{"accessors":[{"bufferView":0,"byteOffset":0,"componentType":5123,"count":72,"type":"SCALAR"},{"bufferView":1,"byteOffset":0,"componentType":5126,"count":32,"max":[0.712140262126923,2.41566729545593,0.646510660648346],"min":[-0.65130746364593,-0.12805737555027,-0.71967166662216],"type":"VEC3"},{"bufferView":2,"byteOffset":0,"componentType":5126,"count":32,"type":"VEC3"},{"bufferView":3,"byteOffset":0,"componentType":5126,"count":32,"type":"VEC2"},{"bufferView":4,"byteOffset":0,"componentType":5123,"count":135,"type":"SCALAR"},{"bufferView":5,"byteOffset":0,"componentType":5126,"count":60,"max":[0.0263419095426798,1.88311076164246,0.0412147752940655],"min":[-0.04315136745572,-0.02138976380229,-0.05712556838989],"type":"VEC3"},{"bufferView":6,"byteOffset":0,"componentType":5126,"count":60,"type":"VEC3"},{"bufferView":7,"byteOffset":0,"componentType":5126,"count":60,"type":"VEC4"},{"bufferView":8,"byteOffset":0,"componentType":5126,"count":60,"type":"VEC2"},{"bufferView":9,"byteOffset":0,"componentType":5123,"count":303,"type":"SCALAR"},{"bufferView":10,"byteOffset":0,"componentType":5126,"count":114,"max":[0.0268646758049726,1.88327205181122,0.0425534062087536],"min":[-0.04189368337393,-0.02117046527565,-0.05700866132975],"type":"VEC3"},{"bufferView":11,"byteOffset":0,"componentType":5126,"count":114,"type":"VEC3"},{"bufferView":12,"byteOffset":0,"componentType":5126,"count":114,"type":"VEC4"},{"bufferView":13,"byteOffset":0,"componentType":5126,"count":114,"type":"VEC2"},{"bufferView":14,"byteOffset":0,"componentType":5123,"count":447,"type":"SCALAR"},{"bufferView":15,"byteOffset":0,"componentType":5126,"count":157,"max":[0.0268646162003279,1.88324081897736,0.0425534397363663],"min":[-0.04157683253288,-0.02116355113685,-0.05632811784744],"type":"VEC3"},{"bufferView":16,"byteOffset":0,"componentType":5126,"count":157,"type":"VEC3"},{"bufferView":17,"byteOffset":0,"componentType":5126,"count":157,"type":"VEC4"},{"bufferView":18,"byteOffset":0,"componentType":5126,"count":157,"type":"VEC2"},{"bufferView":19,"byteOffset":0,"componentType":5123,"count":261,"type":"SCALAR"},{"bufferView":20,"byteOffset":0,"componentType":5126,"count":127,"max":[0.670880556106567,2.32799768447876,0.637444198131561],"min":[-0.72634464502335,0.786792874336243,-0.74440395832062],"type":"VEC3"},{"bufferView":21,"byteOffset":0,"componentType":5126,"count":127,"type":"VEC3"},{"bufferView":22,"byteOffset":0,"componentType":5126,"count":127,"type":"VEC4"},{"bufferView":23,"byteOffset":0,"componentType":5126,"count":127,"type":"VEC2"},{"bufferView":24,"byteOffset":0,"componentType":5123,"count":498,"type":"SCALAR"},{"bufferView":25,"byteOffset":0,"componentType":5126,"count":232,"max":[0.689283192157745,2.32799768447876,0.652347803115845],"min":[-0.72634464502335,0.786792874336243,-0.74440395832062],"type":"VEC3"},{"bufferView":26,"byteOffset":0,"componentType":5126,"count":232,"type":"VEC3"},{"bufferView":27,"byteOffset":0,"componentType":5126,"count":232,"type":"VEC4"},{"bufferView":28,"byteOffset":0,"componentType":5126,"count":232,"type":"VEC2"},{"bufferView":29,"byteOffset":0,"componentType":5123,"count":969,"type":"SCALAR"},{"bufferView":30,"byteOffset":0,"componentType":5126,"count":394,"max":[0.690321505069733,2.3277862071991,0.653699576854706],"min":[-0.72634464502335,0.786792874336243,-0.74440395832062],"type":"VEC3"},{"bufferView":31,"byteOffset":0,"componentType":5126,"count":394,"type":"VEC3"},{"bufferView":32,"byteOffset":0,"componentType":5126,"count":394,"type":"VEC4"},{"bufferView":33,"byteOffset":0,"componentType":5126,"count":394,"type":"VEC2"}],"asset":{"generator":"FBX2glTF v0.13.1","version":"2.0"},"bufferViews":[{"buffer":0,"byteLength":144,"byteOffset":0,"target":34963},{"buffer":0,"byteLength":384,"byteOffset":144,"target":34962},{"buffer":0,"byteLength":384,"byteOffset":528,"target":34962},{"buffer":0,"byteLength":256,"byteOffset":912,"target":34962},{"buffer":0,"byteLength":270,"byteOffset":1168,"target":34963},{"buffer":0,"byteLength":720,"byteOffset":1440,"target":34962},{"buffer":0,"byteLength":720,"byteOffset":2160,"target":34962},{"buffer":0,"byteLength":960,"byteOffset":2880,"target":34962},{"buffer":0,"byteLength":480,"byteOffset":3840,"target":34962},{"buffer":0,"byteLength":606,"byteOffset":4320,"target":34963},{"buffer":0,"byteLength":1368,"byteOffset":4928,"target":34962},{"buffer":0,"byteLength":1368,"byteOffset":6296,"target":34962},{"buffer":0,"byteLength":1824,"byteOffset":7664,"target":34962},{"buffer":0,"byteLength":912,"byteOffset":9488,"target":34962},{"buffer":0,"byteLength":894,"byteOffset":10400,"target":34963},{"buffer":0,"byteLength":1884,"byteOffset":11296,"target":34962},{"buffer":0,"byteLength":1884,"byteOffset":13180,"target":34962},{"buffer":0,"byteLength":2512,"byteOffset":15064,"target":34962},{"buffer":0,"byteLength":1256,"byteOffset":17576,"target":34962},{"buffer":0,"byteLength":522,"byteOffset":18832,"target":34963},{"buffer":0,"byteLength":1524,"byteOffset":19356,"target":34962},{"buffer":0,"byteLength":1524,"byteOffset":20880,"target":34962},{"buffer":0,"byteLength":2032,"byteOffset":22404,"target":34962},{"buffer":0,"byteLength":1016,"byteOffset":24436,"target":34962},{"buffer":0,"byteLength":996,"byteOffset":25452,"target":34963},{"buffer":0,"byteLength":2784,"byteOffset":26448,"target":34962},{"buffer":0,"byteLength":2784,"byteOffset":29232,"target":34962},{"buffer":0,"byteLength":3712,"byteOffset":32016,"target":34962},{"buffer":0,"byteLength":1856,"byteOffset":35728,"target":34962},{"buffer":0,"byteLength":1938,"byteOffset":37584,"target":34963},{"buffer":0,"byteLength":4728,"byteOffset":39524,"target":34962},{"buffer":0,"byteLength":4728,"byteOffset":44252,"target":34962},{"buffer":0,"byteLength":6304,"byteOffset":48980,"target":34962},{"buffer":0,"byteLength":3152,"byteOffset":55284,"target":34962}],"buffers":[{"byteLength":58436,"uri":"Aspen_03.bin"}],"images":[{"name":"Billboard_Aspen_03","uri":"Billboard_Aspen_03.tga"},{"name":"Maple_01_Bark_A","uri":"Maple_01_Bark_A.tga"},{"name":"Aspen_Leaves_A","uri":"Aspen_Leaves_A.tga"}],"materials":[{"alphaMode":"OPAQUE","doubleSided":false,"extras":{"fromFBX":{"isTruePBR":false,"shadingModel":"Phong"}},"name":"Billboard_Aspen_03","pbrMetallicRoughness":{"baseColorFactor":[0.800000011920929,0.800000011920929,0.800000011920929,1],"baseColorTexture":{"index":0,"texCoord":0},"metallicFactor":0.400000005960464,"roughnessFactor":0.272661000490189}},{"alphaMode":"OPAQUE","doubleSided":false,"extras":{"fromFBX":{"isTruePBR":false,"shadingModel":"Phong"}},"name":"Maple_01_Bark","pbrMetallicRoughness":{"baseColorFactor":[0.800000011920929,0.800000011920929,0.800000011920929,1],"baseColorTexture":{"index":1,"texCoord":0},"metallicFactor":0.400000005960464,"roughnessFactor":0.272661000490189}},{"alphaMode":"OPAQUE","doubleSided":false,"extras":{"fromFBX":{"isTruePBR":false,"shadingModel":"Phong"}},"name":"Aspen_Leaves","pbrMetallicRoughness":{"baseColorFactor":[0.800000011920929,0.800000011920929,0.800000011920929,1],"baseColorTexture":{"index":2,"texCoord":0},"metallicFactor":0.400000005960464,"roughnessFactor":0.272661000490189}}],"meshes":[{"name":"Billboard_Aspen_03","primitives":[{"attributes":{"NORMAL":2,"POSITION":1,"TEXCOORD_0":3},"indices":0,"material":0,"mode":4}]},{"name":"Aspen_03_LOD2","primitives":[{"attributes":{"COLOR_0":7,"NORMAL":6,"POSITION":5,"TEXCOORD_0":8},"indices":4,"material":1,"mode":4},{"attributes":{"COLOR_0":22,"NORMAL":21,"POSITION":20,"TEXCOORD_0":23},"indices":19,"material":2,"mode":4}]},{"name":"Aspen_03_LOD1","primitives":[{"attributes":{"COLOR_0":12,"NORMAL":11,"POSITION":10,"TEXCOORD_0":13},"indices":9,"material":1,"mode":4},{"attributes":{"COLOR_0":27,"NORMAL":26,"POSITION":25,"TEXCOORD_0":28},"indices":24,"material":2,"mode":4}]},{"name":"Aspen_03_LOD0","primitives":[{"attributes":{"COLOR_0":17,"NORMAL":16,"POSITION":15,"TEXCOORD_0":18},"indices":14,"material":1,"mode":4},{"attributes":{"COLOR_0":32,"NORMAL":31,"POSITION":30,"TEXCOORD_0":33},"indices":29,"material":2,"mode":4}]}],"nodes":[{"mesh":0,"name":"Billboard_Aspen_03","rotation":[0,0,0,1],"scale":[1,1,1],"translation":[0,0,0]},{"mesh":1,"name":"Aspen_03_LOD2","rotation":[0,0,0,1],"scale":[1,1,1],"translation":[0,0,0]},{"mesh":2,"name":"Aspen_03_LOD1","rotation":[0,0,0,1],"scale":[1,1,1],"translation":[0,0,0]},{"mesh":3,"name":"Aspen_03_LOD0","rotation":[0,0,0,1],"scale":[1,1,1],"translation":[0,0,0]}],"samplers":[{}],"scene":0,"scenes":[{"name":"Root Scene","nodes":[0,1,2,3]}],"textures":[{"name":"Billboard_Aspen_03","sampler":0,"source":0},{"name":"Maple_01_Bark_A","sampler":0,"source":1},{"name":"Aspen_Leaves_A","sampler":0,"source":2}]}