{"accessors":[{"bufferView":0,"byteOffset":0,"componentType":5123,"count":24,"type":"SCALAR"},{"bufferView":1,"byteOffset":0,"componentType":5126,"count":16,"max":[3.75040698051453,7.42077302932739,4.30624485015869],"min":[-3.59666538238525,-0.141193151474,-3.79082083702087],"type":"VEC3"},{"bufferView":2,"byteOffset":0,"componentType":5126,"count":16,"type":"VEC3"},{"bufferView":3,"byteOffset":0,"componentType":5126,"count":16,"type":"VEC2"},{"bufferView":4,"byteOffset":0,"componentType":5123,"count":99,"type":"SCALAR"},{"bufferView":5,"byteOffset":0,"componentType":5126,"count":51,"max":[0.246771290898323,2.3379647731781,0.214901864528656],"min":[-0.20429627597332,-0.07599738240242,-0.27287372946739],"type":"VEC3"},{"bufferView":6,"byteOffset":0,"componentType":5126,"count":51,"type":"VEC3"},{"bufferView":7,"byteOffset":0,"componentType":5126,"count":51,"type":"VEC4"},{"bufferView":8,"byteOffset":0,"componentType":5126,"count":51,"type":"VEC2"},{"bufferView":9,"byteOffset":0,"componentType":5123,"count":363,"type":"SCALAR"},{"bufferView":10,"byteOffset":0,"componentType":5126,"count":150,"max":[0.249324008822441,2.21813321113586,0.215450584888458],"min":[-0.20429627597332,-0.07554567605257,-0.25663682818413],"type":"VEC3"},{"bufferView":11,"byteOffset":0,"componentType":5126,"count":150,"type":"VEC3"},{"bufferView":12,"byteOffset":0,"componentType":5126,"count":150,"type":"VEC4"},{"bufferView":13,"byteOffset":0,"componentType":5126,"count":150,"type":"VEC2"},{"bufferView":14,"byteOffset":0,"componentType":5123,"count":1209,"type":"SCALAR"},{"bufferView":15,"byteOffset":0,"componentType":5126,"count":409,"max":[0.247070133686066,1.96569395065308,0.221801236271858],"min":[-0.20429627597332,-0.07522797584534,-0.25789144635201],"type":"VEC3"},{"bufferView":16,"byteOffset":0,"componentType":5126,"count":409,"type":"VEC3"},{"bufferView":17,"byteOffset":0,"componentType":5126,"count":409,"type":"VEC4"},{"bufferView":18,"byteOffset":0,"componentType":5126,"count":409,"type":"VEC2"},{"bufferView":19,"byteOffset":0,"componentType":5123,"count":705,"type":"SCALAR"},{"bufferView":20,"byteOffset":0,"componentType":5126,"count":303,"max":[1.77277278900146,6.07183456420898,2.19533348083496],"min":[-1.63977563381195,2.06639099121094,-1.96764695644379],"type":"VEC3"},{"bufferView":21,"byteOffset":0,"componentType":5126,"count":303,"type":"VEC3"},{"bufferView":22,"byteOffset":0,"componentType":5126,"count":303,"type":"VEC4"},{"bufferView":23,"byteOffset":0,"componentType":5126,"count":303,"type":"VEC2"},{"bufferView":24,"byteOffset":0,"componentType":5123,"count":7374,"type":"SCALAR"},{"bufferView":25,"byteOffset":0,"componentType":5126,"count":2171,"max":[2.5749089717865,6.39622163772583,3.17347550392151],"min":[-2.69182729721069,1.75771296024323,-2.34362435340881],"type":"VEC3"},{"bufferView":26,"byteOffset":0,"componentType":5126,"count":2171,"type":"VEC3"},{"bufferView":27,"byteOffset":0,"componentType":5126,"count":2171,"type":"VEC4"},{"bufferView":28,"byteOffset":0,"componentType":5126,"count":2171,"type":"VEC2"},{"bufferView":29,"byteOffset":0,"componentType":5123,"count":19050,"type":"SCALAR"},{"bufferView":30,"byteOffset":0,"componentType":5126,"count":5252,"max":[2.57401657104492,6.39778852462769,3.1734414100647],"min":[-2.69171786308289,1.93454432487488,-2.34340381622314],"type":"VEC3"},{"bufferView":31,"byteOffset":0,"componentType":5126,"count":5252,"type":"VEC3"},{"bufferView":32,"byteOffset":0,"componentType":5126,"count":5252,"type":"VEC4"},{"bufferView":33,"byteOffset":0,"componentType":5126,"count":5252,"type":"VEC2"},{"bufferView":34,"byteOffset":0,"componentType":5123,"count":1854,"type":"SCALAR"},{"bufferView":35,"byteOffset":0,"componentType":5126,"count":1004,"max":[3.80591630935669,7.24210071563721,4.37378692626953],"min":[-3.64833092689514,1.86863195896149,-3.36527180671692],"type":"VEC3"},{"bufferView":36,"byteOffset":0,"componentType":5126,"count":1004,"type":"VEC3"},{"bufferView":37,"byteOffset":0,"componentType":5126,"count":1004,"type":"VEC4"},{"bufferView":38,"byteOffset":0,"componentType":5126,"count":1004,"type":"VEC2"},{"bufferView":39,"byteOffset":0,"componentType":5123,"count":6570,"type":"SCALAR"},{"bufferView":40,"byteOffset":0,"componentType":5126,"count":2738,"max":[3.72247672080994,7.36020994186401,4.37378692626953],"min":[-3.64833092689514,1.9220449924469,-3.56709432601929],"type":"VEC3"},{"bufferView":41,"byteOffset":0,"componentType":5126,"count":2738,"type":"VEC3"},{"bufferView":42,"byteOffset":0,"componentType":5126,"count":2738,"type":"VEC4"},{"bufferView":43,"byteOffset":0,"componentType":5126,"count":2738,"type":"VEC2"},{"bufferView":44,"byteOffset":0,"componentType":5123,"count":7362,"type":"SCALAR"},{"bufferView":45,"byteOffset":0,"componentType":5126,"count":3010,"max":[3.72247672080994,7.35480165481567,4.37148141860962],"min":[-3.64442658424377,1.9220449924469,-3.56709432601929],"type":"VEC3"},{"bufferView":46,"byteOffset":0,"componentType":5126,"count":3010,"type":"VEC3"},{"bufferView":47,"byteOffset":0,"componentType":5126,"count":3010,"type":"VEC4"},{"bufferView":48,"byteOffset":0,"componentType":5126,"count":3010,"type":"VEC2"}],"asset":{"generator":"FBX2glTF v0.13.1","version":"2.0"},"bufferViews":[{"buffer":0,"byteLength":48,"byteOffset":0,"target":34963},{"buffer":0,"byteLength":192,"byteOffset":48,"target":34962},{"buffer":0,"byteLength":192,"byteOffset":240,"target":34962},{"buffer":0,"byteLength":128,"byteOffset":432,"target":34962},{"buffer":0,"byteLength":198,"byteOffset":560,"target":34963},{"buffer":0,"byteLength":612,"byteOffset":760,"target":34962},{"buffer":0,"byteLength":612,"byteOffset":1372,"target":34962},{"buffer":0,"byteLength":816,"byteOffset":1984,"target":34962},{"buffer":0,"byteLength":408,"byteOffset":2800,"target":34962},{"buffer":0,"byteLength":726,"byteOffset":3208,"target":34963},{"buffer":0,"byteLength":1800,"byteOffset":3936,"target":34962},{"buffer":0,"byteLength":1800,"byteOffset":5736,"target":34962},{"buffer":0,"byteLength":2400,"byteOffset":7536,"target":34962},{"buffer":0,"byteLength":1200,"byteOffset":9936,"target":34962},{"buffer":0,"byteLength":2418,"byteOffset":11136,"target":34963},{"buffer":0,"byteLength":4908,"byteOffset":13556,"target":34962},{"buffer":0,"byteLength":4908,"byteOffset":18464,"target":34962},{"buffer":0,"byteLength":6544,"byteOffset":23372,"target":34962},{"buffer":0,"byteLength":3272,"byteOffset":29916,"target":34962},{"buffer":0,"byteLength":1410,"byteOffset":33188,"target":34963},{"buffer":0,"byteLength":3636,"byteOffset":34600,"target":34962},{"buffer":0,"byteLength":3636,"byteOffset":38236,"target":34962},{"buffer":0,"byteLength":4848,"byteOffset":41872,"target":34962},{"buffer":0,"byteLength":2424,"byteOffset":46720,"target":34962},{"buffer":0,"byteLength":14748,"byteOffset":49144,"target":34963},{"buffer":0,"byteLength":26052,"byteOffset":63892,"target":34962},{"buffer":0,"byteLength":26052,"byteOffset":89944,"target":34962},{"buffer":0,"byteLength":34736,"byteOffset":115996,"target":34962},{"buffer":0,"byteLength":17368,"byteOffset":150732,"target":34962},{"buffer":0,"byteLength":38100,"byteOffset":168100,"target":34963},{"buffer":0,"byteLength":63024,"byteOffset":206200,"target":34962},{"buffer":0,"byteLength":63024,"byteOffset":269224,"target":34962},{"buffer":0,"byteLength":84032,"byteOffset":332248,"target":34962},{"buffer":0,"byteLength":42016,"byteOffset":416280,"target":34962},{"buffer":0,"byteLength":3708,"byteOffset":458296,"target":34963},{"buffer":0,"byteLength":12048,"byteOffset":462004,"target":34962},{"buffer":0,"byteLength":12048,"byteOffset":474052,"target":34962},{"buffer":0,"byteLength":16064,"byteOffset":486100,"target":34962},{"buffer":0,"byteLength":8032,"byteOffset":502164,"target":34962},{"buffer":0,"byteLength":13140,"byteOffset":510196,"target":34963},{"buffer":0,"byteLength":32856,"byteOffset":523336,"target":34962},{"buffer":0,"byteLength":32856,"byteOffset":556192,"target":34962},{"buffer":0,"byteLength":43808,"byteOffset":589048,"target":34962},{"buffer":0,"byteLength":21904,"byteOffset":632856,"target":34962},{"buffer":0,"byteLength":14724,"byteOffset":654760,"target":34963},{"buffer":0,"byteLength":36120,"byteOffset":669484,"target":34962},{"buffer":0,"byteLength":36120,"byteOffset":705604,"target":34962},{"buffer":0,"byteLength":48160,"byteOffset":741724,"target":34962},{"buffer":0,"byteLength":24080,"byteOffset":789884,"target":34962}],"buffers":[{"byteLength":813964,"uri":"Aspen_02.bin"}],"images":[{"name":"Billboard_Aspen_02","uri":"Billboard_Aspen_02.tga"},{"name":"Aspen_02_Bark_A","uri":"Aspen_02_Bark_A.tga"},{"name":"Aspen_Bark_A","uri":"Aspen_Bark_A.tga"},{"name":"Aspen_Leaves_A","uri":"Aspen_Leaves_A.tga"}],"materials":[{"alphaMode":"OPAQUE","doubleSided":false,"extras":{"fromFBX":{"isTruePBR":false,"shadingModel":"Phong"}},"name":"Billboard_Aspen_02","pbrMetallicRoughness":{"baseColorFactor":[0.800000011920929,0.800000011920929,0.800000011920929,1],"baseColorTexture":{"index":0,"texCoord":0},"metallicFactor":0.400000005960464,"roughnessFactor":0.272661000490189}},{"alphaMode":"OPAQUE","doubleSided":false,"extras":{"fromFBX":{"isTruePBR":false,"shadingModel":"Phong"}},"name":"Aspen_02_Bark","pbrMetallicRoughness":{"baseColorFactor":[0.800000011920929,0.800000011920929,0.800000011920929,1],"baseColorTexture":{"index":1,"texCoord":0},"metallicFactor":0.400000005960464,"roughnessFactor":0.272661000490189}},{"alphaMode":"OPAQUE","doubleSided":false,"extras":{"fromFBX":{"isTruePBR":false,"shadingModel":"Phong"}},"name":"Aspen_Bark","pbrMetallicRoughness":{"baseColorFactor":[0.800000011920929,0.800000011920929,0.800000011920929,1],"baseColorTexture":{"index":2,"texCoord":0},"metallicFactor":0.400000005960464,"roughnessFactor":0.272661000490189}},{"alphaMode":"OPAQUE","doubleSided":false,"extras":{"fromFBX":{"isTruePBR":false,"shadingModel":"Phong"}},"name":"Aspen_Leaves","pbrMetallicRoughness":{"baseColorFactor":[0.800000011920929,0.800000011920929,0.800000011920929,1],"baseColorTexture":{"index":3,"texCoord":0},"metallicFactor":0.400000005960464,"roughnessFactor":0.272661000490189}}],"meshes":[{"name":"Billboard_Aspen_02","primitives":[{"attributes":{"NORMAL":2,"POSITION":1,"TEXCOORD_0":3},"indices":0,"material":0,"mode":4}]},{"name":"Aspen_02_LOD2","primitives":[{"attributes":{"COLOR_0":7,"NORMAL":6,"POSITION":5,"TEXCOORD_0":8},"indices":4,"material":1,"mode":4},{"attributes":{"COLOR_0":22,"NORMAL":21,"POSITION":20,"TEXCOORD_0":23},"indices":19,"material":2,"mode":4},{"attributes":{"COLOR_0":37,"NORMAL":36,"POSITION":35,"TEXCOORD_0":38},"indices":34,"material":3,"mode":4}]},{"name":"Aspen_02_LOD1","primitives":[{"attributes":{"COLOR_0":12,"NORMAL":11,"POSITION":10,"TEXCOORD_0":13},"indices":9,"material":1,"mode":4},{"attributes":{"COLOR_0":27,"NORMAL":26,"POSITION":25,"TEXCOORD_0":28},"indices":24,"material":2,"mode":4},{"attributes":{"COLOR_0":42,"NORMAL":41,"POSITION":40,"TEXCOORD_0":43},"indices":39,"material":3,"mode":4}]},{"name":"Aspen_02_LOD0","primitives":[{"attributes":{"COLOR_0":17,"NORMAL":16,"POSITION":15,"TEXCOORD_0":18},"indices":14,"material":1,"mode":4},{"attributes":{"COLOR_0":32,"NORMAL":31,"POSITION":30,"TEXCOORD_0":33},"indices":29,"material":2,"mode":4},{"attributes":{"COLOR_0":47,"NORMAL":46,"POSITION":45,"TEXCOORD_0":48},"indices":44,"material":3,"mode":4}]}],"nodes":[{"mesh":0,"name":"Billboard_Aspen_02","rotation":[0,0,0,1],"scale":[1,1,1],"translation":[0,0,0]},{"mesh":1,"name":"Aspen_02_LOD2","rotation":[0,0,0,1],"scale":[1,1,1],"translation":[0,0,0]},{"mesh":2,"name":"Aspen_02_LOD1","rotation":[0,0,0,1],"scale":[1,1,1],"translation":[0,0,0]},{"mesh":3,"name":"Aspen_02_LOD0","rotation":[0,0,0,1],"scale":[1,1,1],"translation":[0,0,0]}],"samplers":[{}],"scene":0,"scenes":[{"name":"Root Scene","nodes":[0,1,2,3]}],"textures":[{"name":"Billboard_Aspen_02","sampler":0,"source":0},{"name":"Aspen_02_Bark_A","sampler":0,"source":1},{"name":"Aspen_Bark_A","sampler":0,"source":2},{"name":"Aspen_Leaves_A","sampler":0,"source":3}]}