{"accessors":[{"bufferView":0,"byteOffset":0,"componentType":5123,"count":24,"type":"SCALAR"},{"bufferView":1,"byteOffset":0,"componentType":5126,"count":16,"max":[3.93143844604492,10.5716123580933,4.65641164779663],"min":[-4.7231707572937,-0.1215014308691,-3.97755646705627],"type":"VEC3"},{"bufferView":2,"byteOffset":0,"componentType":5126,"count":16,"type":"VEC3"},{"bufferView":3,"byteOffset":0,"componentType":5126,"count":16,"type":"VEC2"},{"bufferView":4,"byteOffset":0,"componentType":5123,"count":3654,"type":"SCALAR"},{"bufferView":5,"byteOffset":0,"componentType":5126,"count":1149,"max":[0.564849734306335,2.38824033737183,0.666139900684357],"min":[-0.72865605354309,-0.0755233168602,-0.65688878297806],"type":"VEC3"},{"bufferView":6,"byteOffset":0,"componentType":5126,"count":1149,"type":"VEC3"},{"bufferView":7,"byteOffset":0,"componentType":5126,"count":1149,"type":"VEC4"},{"bufferView":8,"byteOffset":0,"componentType":5126,"count":1149,"type":"VEC2"},{"bufferView":9,"byteOffset":0,"componentType":5123,"count":45,"type":"SCALAR"},{"bufferView":10,"byteOffset":0,"componentType":5126,"count":31,"max":[0.453851610422134,2.75628805160522,0.663133323192596],"min":[-0.68604904413223,-0.03846621885896,-0.6705197095871],"type":"VEC3"},{"bufferView":11,"byteOffset":0,"componentType":5126,"count":31,"type":"VEC3"},{"bufferView":12,"byteOffset":0,"componentType":5126,"count":31,"type":"VEC4"},{"bufferView":13,"byteOffset":0,"componentType":5126,"count":31,"type":"VEC2"},{"bufferView":14,"byteOffset":0,"componentType":5123,"count":744,"type":"SCALAR"},{"bufferView":15,"byteOffset":0,"componentType":5126,"count":313,"max":[0.575566232204437,2.8219587802887,0.666139900684357],"min":[-0.72717106342316,-0.08299125730991,-0.65339332818985],"type":"VEC3"},{"bufferView":16,"byteOffset":0,"componentType":5126,"count":313,"type":"VEC3"},{"bufferView":17,"byteOffset":0,"componentType":5126,"count":313,"type":"VEC4"},{"bufferView":18,"byteOffset":0,"componentType":5126,"count":313,"type":"VEC2"},{"bufferView":19,"byteOffset":0,"componentType":5123,"count":23949,"type":"SCALAR"},{"bufferView":20,"byteOffset":0,"componentType":5126,"count":6917,"max":[3.13483905792236,9.85876941680908,4.41017246246338],"min":[-3.86919951438904,2.18276858329773,-2.52625942230225],"type":"VEC3"},{"bufferView":21,"byteOffset":0,"componentType":5126,"count":6917,"type":"VEC3"},{"bufferView":22,"byteOffset":0,"componentType":5126,"count":6917,"type":"VEC4"},{"bufferView":23,"byteOffset":0,"componentType":5126,"count":6917,"type":"VEC2"},{"bufferView":24,"byteOffset":0,"componentType":5123,"count":204,"type":"SCALAR"},{"bufferView":25,"byteOffset":0,"componentType":5126,"count":97,"max":[3.04489183425903,9.71293354034424,3.77241230010986],"min":[-3.86919951438904,2.31760573387146,-1.23859596252441],"type":"VEC3"},{"bufferView":26,"byteOffset":0,"componentType":5126,"count":97,"type":"VEC3"},{"bufferView":27,"byteOffset":0,"componentType":5126,"count":97,"type":"VEC4"},{"bufferView":28,"byteOffset":0,"componentType":5126,"count":97,"type":"VEC2"},{"bufferView":29,"byteOffset":0,"componentType":5123,"count":6594,"type":"SCALAR"},{"bufferView":30,"byteOffset":0,"componentType":5126,"count":2276,"max":[3.06044769287109,9.85870742797852,4.41674470901489],"min":[-3.86919951438904,2.64590692520142,-2.48831748962402],"type":"VEC3"},{"bufferView":31,"byteOffset":0,"componentType":5126,"count":2276,"type":"VEC3"},{"bufferView":32,"byteOffset":0,"componentType":5126,"count":2276,"type":"VEC4"},{"bufferView":33,"byteOffset":0,"componentType":5126,"count":2276,"type":"VEC2"},{"bufferView":34,"byteOffset":0,"componentType":5123,"count":10725,"type":"SCALAR"},{"bufferView":35,"byteOffset":0,"componentType":5126,"count":4377,"max":[3.72331142425537,10.4307479858398,4.55313014984131],"min":[-4.55838012695312,2.4013524055481,-3.62817215919495],"type":"VEC3"},{"bufferView":36,"byteOffset":0,"componentType":5126,"count":4377,"type":"VEC3"},{"bufferView":37,"byteOffset":0,"componentType":5126,"count":4377,"type":"VEC4"},{"bufferView":38,"byteOffset":0,"componentType":5126,"count":4377,"type":"VEC2"},{"bufferView":39,"byteOffset":0,"componentType":5123,"count":2133,"type":"SCALAR"},{"bufferView":40,"byteOffset":0,"componentType":5126,"count":1467,"max":[3.84299516677856,10.436900138855,4.67919111251831],"min":[-4.56210899353027,2.05924272537231,-3.69411277770996],"type":"VEC3"},{"bufferView":41,"byteOffset":0,"componentType":5126,"count":1467,"type":"VEC3"},{"bufferView":42,"byteOffset":0,"componentType":5126,"count":1467,"type":"VEC4"},{"bufferView":43,"byteOffset":0,"componentType":5126,"count":1467,"type":"VEC2"},{"bufferView":44,"byteOffset":0,"componentType":5123,"count":6018,"type":"SCALAR"},{"bufferView":45,"byteOffset":0,"componentType":5126,"count":2918,"max":[3.72331142425537,10.4408626556396,4.55313014984131],"min":[-4.56250953674316,2.4013524055481,-3.62813520431519],"type":"VEC3"},{"bufferView":46,"byteOffset":0,"componentType":5126,"count":2918,"type":"VEC3"},{"bufferView":47,"byteOffset":0,"componentType":5126,"count":2918,"type":"VEC4"},{"bufferView":48,"byteOffset":0,"componentType":5126,"count":2918,"type":"VEC2"}],"asset":{"generator":"FBX2glTF v0.13.1","version":"2.0"},"bufferViews":[{"buffer":0,"byteLength":48,"byteOffset":0,"target":34963},{"buffer":0,"byteLength":192,"byteOffset":48,"target":34962},{"buffer":0,"byteLength":192,"byteOffset":240,"target":34962},{"buffer":0,"byteLength":128,"byteOffset":432,"target":34962},{"buffer":0,"byteLength":7308,"byteOffset":560,"target":34963},{"buffer":0,"byteLength":13788,"byteOffset":7868,"target":34962},{"buffer":0,"byteLength":13788,"byteOffset":21656,"target":34962},{"buffer":0,"byteLength":18384,"byteOffset":35444,"target":34962},{"buffer":0,"byteLength":9192,"byteOffset":53828,"target":34962},{"buffer":0,"byteLength":90,"byteOffset":63020,"target":34963},{"buffer":0,"byteLength":372,"byteOffset":63112,"target":34962},{"buffer":0,"byteLength":372,"byteOffset":63484,"target":34962},{"buffer":0,"byteLength":496,"byteOffset":63856,"target":34962},{"buffer":0,"byteLength":248,"byteOffset":64352,"target":34962},{"buffer":0,"byteLength":1488,"byteOffset":64600,"target":34963},{"buffer":0,"byteLength":3756,"byteOffset":66088,"target":34962},{"buffer":0,"byteLength":3756,"byteOffset":69844,"target":34962},{"buffer":0,"byteLength":5008,"byteOffset":73600,"target":34962},{"buffer":0,"byteLength":2504,"byteOffset":78608,"target":34962},{"buffer":0,"byteLength":47898,"byteOffset":81112,"target":34963},{"buffer":0,"byteLength":83004,"byteOffset":129012,"target":34962},{"buffer":0,"byteLength":83004,"byteOffset":212016,"target":34962},{"buffer":0,"byteLength":110672,"byteOffset":295020,"target":34962},{"buffer":0,"byteLength":55336,"byteOffset":405692,"target":34962},{"buffer":0,"byteLength":408,"byteOffset":461028,"target":34963},{"buffer":0,"byteLength":1164,"byteOffset":461436,"target":34962},{"buffer":0,"byteLength":1164,"byteOffset":462600,"target":34962},{"buffer":0,"byteLength":1552,"byteOffset":463764,"target":34962},{"buffer":0,"byteLength":776,"byteOffset":465316,"target":34962},{"buffer":0,"byteLength":13188,"byteOffset":466092,"target":34963},{"buffer":0,"byteLength":27312,"byteOffset":479280,"target":34962},{"buffer":0,"byteLength":27312,"byteOffset":506592,"target":34962},{"buffer":0,"byteLength":36416,"byteOffset":533904,"target":34962},{"buffer":0,"byteLength":18208,"byteOffset":570320,"target":34962},{"buffer":0,"byteLength":21450,"byteOffset":588528,"target":34963},{"buffer":0,"byteLength":52524,"byteOffset":609980,"target":34962},{"buffer":0,"byteLength":52524,"byteOffset":662504,"target":34962},{"buffer":0,"byteLength":70032,"byteOffset":715028,"target":34962},{"buffer":0,"byteLength":35016,"byteOffset":785060,"target":34962},{"buffer":0,"byteLength":4266,"byteOffset":820076,"target":34963},{"buffer":0,"byteLength":17604,"byteOffset":824344,"target":34962},{"buffer":0,"byteLength":17604,"byteOffset":841948,"target":34962},{"buffer":0,"byteLength":23472,"byteOffset":859552,"target":34962},{"buffer":0,"byteLength":11736,"byteOffset":883024,"target":34962},{"buffer":0,"byteLength":12036,"byteOffset":894760,"target":34963},{"buffer":0,"byteLength":35016,"byteOffset":906796,"target":34962},{"buffer":0,"byteLength":35016,"byteOffset":941812,"target":34962},{"buffer":0,"byteLength":46688,"byteOffset":976828,"target":34962},{"buffer":0,"byteLength":23344,"byteOffset":1023516,"target":34962}],"buffers":[{"byteLength":1046860,"uri":"Aspen_01.bin"}],"images":[{"name":"Billboard_Aspen_01","uri":"Billboard_Aspen_01.tga"},{"name":"Aspen_01_Bark_A","uri":"Aspen_01_Bark_A.tga"},{"name":"Aspen_Bark_A","uri":"Aspen_Bark_A.tga"},{"name":"Aspen_Leaves_A","uri":"Aspen_Leaves_A.tga"}],"materials":[{"alphaMode":"OPAQUE","doubleSided":false,"extras":{"fromFBX":{"isTruePBR":false,"shadingModel":"Phong"}},"name":"Billboard_Aspen_01","pbrMetallicRoughness":{"baseColorFactor":[0.800000011920929,0.800000011920929,0.800000011920929,1],"baseColorTexture":{"index":0,"texCoord":0},"metallicFactor":0.400000005960464,"roughnessFactor":0.272661000490189}},{"alphaMode":"OPAQUE","doubleSided":false,"extras":{"fromFBX":{"isTruePBR":false,"shadingModel":"Phong"}},"name":"Aspen_01_Bark","pbrMetallicRoughness":{"baseColorFactor":[0.800000011920929,0.800000011920929,0.800000011920929,1],"baseColorTexture":{"index":1,"texCoord":0},"metallicFactor":0.400000005960464,"roughnessFactor":0.272661000490189}},{"alphaMode":"OPAQUE","doubleSided":false,"extras":{"fromFBX":{"isTruePBR":false,"shadingModel":"Phong"}},"name":"Aspen_Bark","pbrMetallicRoughness":{"baseColorFactor":[0.800000011920929,0.800000011920929,0.800000011920929,1],"baseColorTexture":{"index":2,"texCoord":0},"metallicFactor":0.400000005960464,"roughnessFactor":0.272661000490189}},{"alphaMode":"OPAQUE","doubleSided":false,"extras":{"fromFBX":{"isTruePBR":false,"shadingModel":"Phong"}},"name":"Aspen_Leaves","pbrMetallicRoughness":{"baseColorFactor":[0.800000011920929,0.800000011920929,0.800000011920929,1],"baseColorTexture":{"index":3,"texCoord":0},"metallicFactor":0.400000005960464,"roughnessFactor":0.272661000490189}}],"meshes":[{"name":"Billboard_Aspen_01","primitives":[{"attributes":{"NORMAL":2,"POSITION":1,"TEXCOORD_0":3},"indices":0,"material":0,"mode":4}]},{"name":"Aspen_01_LOD0","primitives":[{"attributes":{"COLOR_0":7,"NORMAL":6,"POSITION":5,"TEXCOORD_0":8},"indices":4,"material":1,"mode":4},{"attributes":{"COLOR_0":22,"NORMAL":21,"POSITION":20,"TEXCOORD_0":23},"indices":19,"material":2,"mode":4},{"attributes":{"COLOR_0":37,"NORMAL":36,"POSITION":35,"TEXCOORD_0":38},"indices":34,"material":3,"mode":4}]},{"name":"Aspen_01_LOD2","primitives":[{"attributes":{"COLOR_0":12,"NORMAL":11,"POSITION":10,"TEXCOORD_0":13},"indices":9,"material":1,"mode":4},{"attributes":{"COLOR_0":27,"NORMAL":26,"POSITION":25,"TEXCOORD_0":28},"indices":24,"material":2,"mode":4},{"attributes":{"COLOR_0":42,"NORMAL":41,"POSITION":40,"TEXCOORD_0":43},"indices":39,"material":3,"mode":4}]},{"name":"Aspen_01_LOD1","primitives":[{"attributes":{"COLOR_0":17,"NORMAL":16,"POSITION":15,"TEXCOORD_0":18},"indices":14,"material":1,"mode":4},{"attributes":{"COLOR_0":32,"NORMAL":31,"POSITION":30,"TEXCOORD_0":33},"indices":29,"material":2,"mode":4},{"attributes":{"COLOR_0":47,"NORMAL":46,"POSITION":45,"TEXCOORD_0":48},"indices":44,"material":3,"mode":4}]}],"nodes":[{"mesh":0,"name":"Billboard_Aspen_01","rotation":[0,0,0,1],"scale":[1,1,1],"translation":[0,0,0]},{"mesh":1,"name":"Aspen_01_LOD0","rotation":[0,0,0,1],"scale":[1,1,1],"translation":[0,0,0]},{"mesh":2,"name":"Aspen_01_LOD2","rotation":[0,0,0,1],"scale":[1,1,1],"translation":[0,0,0]},{"mesh":3,"name":"Aspen_01_LOD1","rotation":[0,0,0,1],"scale":[1,1,1],"translation":[0,0,0]}],"samplers":[{}],"scene":0,"scenes":[{"name":"Root Scene","nodes":[0,1,2,3]}],"textures":[{"name":"Billboard_Aspen_01","sampler":0,"source":0},{"name":"Aspen_01_Bark_A","sampler":0,"source":1},{"name":"Aspen_Bark_A","sampler":0,"source":2},{"name":"Aspen_Leaves_A","sampler":0,"source":3}]}