{"accessors":[{"bufferView":0,"byteOffset":0,"componentType":5123,"count":69,"type":"SCALAR"},{"bufferView":1,"byteOffset":0,"componentType":5126,"count":31,"max":[1.09961903095245,4.13452577590942,1.16795241832733],"min":[-1.22909367084503,-0.13657170534134,-1.17973518371582],"type":"VEC3"},{"bufferView":2,"byteOffset":0,"componentType":5126,"count":31,"type":"VEC3"},{"bufferView":3,"byteOffset":0,"componentType":5126,"count":31,"type":"VEC2"}],"asset":{"generator":"FBX2glTF v0.13.1","version":"2.0"},"bufferViews":[{"buffer":0,"byteLength":138,"byteOffset":0,"target":34963},{"buffer":0,"byteLength":372,"byteOffset":140,"target":34962},{"buffer":0,"byteLength":372,"byteOffset":512,"target":34962},{"buffer":0,"byteLength":248,"byteOffset":884,"target":34962}],"buffers":[{"byteLength":1132,"uri":"Billboard_Maple_02.bin"}],"images":[{"name":"Billboard_Maple_02","uri":"Billboard_Maple_02.tga"}],"materials":[{"alphaMode":"OPAQUE","doubleSided":false,"extras":{"fromFBX":{"isTruePBR":false,"shadingModel":"Phong"}},"name":"Billboard_Maple_02","pbrMetallicRoughness":{"baseColorFactor":[1,1,1,1],"baseColorTexture":{"index":0,"texCoord":0},"metallicFactor":0.400000005960464,"roughnessFactor":0.272165536880493}}],"meshes":[{"name":"Billboard_Maple_02","primitives":[{"attributes":{"NORMAL":2,"POSITION":1,"TEXCOORD_0":3},"indices":0,"material":0,"mode":4}]}],"nodes":[{"mesh":0,"name":"Billboard_Maple_02","rotation":[0,0,0,1],"scale":[1,1,1],"translation":[0,0,0]}],"samplers":[{}],"scene":0,"scenes":[{"name":"Root Scene","nodes":[0]}],"textures":[{"name":"base_color_texture","sampler":0,"source":0}]}