{"accessors":[{"bufferView":0,"byteOffset":0,"componentType":5123,"count":24,"type":"SCALAR"},{"bufferView":1,"byteOffset":0,"componentType":5126,"count":16,"max":[3.93143844604492,10.5716123580933,4.656409740448],"min":[-4.7231707572937,-0.12150091677904,-3.97755718231201],"type":"VEC3"},{"bufferView":2,"byteOffset":0,"componentType":5126,"count":16,"type":"VEC3"},{"bufferView":3,"byteOffset":0,"componentType":5126,"count":16,"type":"VEC2"}],"asset":{"generator":"FBX2glTF v0.13.1","version":"2.0"},"bufferViews":[{"buffer":0,"byteLength":48,"byteOffset":0,"target":34963},{"buffer":0,"byteLength":192,"byteOffset":48,"target":34962},{"buffer":0,"byteLength":192,"byteOffset":240,"target":34962},{"buffer":0,"byteLength":128,"byteOffset":432,"target":34962}],"buffers":[{"byteLength":560,"uri":"Billboard_Aspen_01.bin"}],"images":[{"name":"Billboard_Aspen_01","uri":"Billboard_Aspen_01.tga"}],"materials":[{"alphaMode":"OPAQUE","doubleSided":false,"extras":{"fromFBX":{"isTruePBR":false,"shadingModel":"Phong"}},"name":"Billboard_Aspen_01","pbrMetallicRoughness":{"baseColorFactor":[1,1,1,1],"baseColorTexture":{"index":0,"texCoord":0},"metallicFactor":0.400000005960464,"roughnessFactor":0.272165536880493}}],"meshes":[{"name":"Billboard_Aspen_01","primitives":[{"attributes":{"NORMAL":2,"POSITION":1,"TEXCOORD_0":3},"indices":0,"material":0,"mode":4}]}],"nodes":[{"mesh":0,"name":"Billboard_Aspen_01","rotation":[0,0,0,1],"scale":[1,1,1],"translation":[0,0,0]}],"samplers":[{}],"scene":0,"scenes":[{"name":"Root Scene","nodes":[0]}],"textures":[{"name":"base_color_texture","sampler":0,"source":0}]}