{"accessors":[{"bufferView":0,"byteOffset":0,"componentType":5123,"count":168,"type":"SCALAR"},{"bufferView":1,"byteOffset":0,"componentType":5126,"count":69,"max":[0.977123141288757,1.41833567619324,0.791929304599762],"min":[-0.7448096871376,-0.03736583888531,-0.78323745727539],"type":"VEC3"},{"bufferView":2,"byteOffset":0,"componentType":5126,"count":69,"type":"VEC3"},{"bufferView":3,"byteOffset":0,"componentType":5126,"count":69,"type":"VEC4"},{"bufferView":4,"byteOffset":0,"componentType":5126,"count":69,"type":"VEC2"}],"asset":{"generator":"FBX2glTF v0.13.1","version":"2.0"},"bufferViews":[{"buffer":0,"byteLength":336,"byteOffset":0,"target":34963},{"buffer":0,"byteLength":828,"byteOffset":336,"target":34962},{"buffer":0,"byteLength":828,"byteOffset":1164,"target":34962},{"buffer":0,"byteLength":1104,"byteOffset":1992,"target":34962},{"buffer":0,"byteLength":552,"byteOffset":3096,"target":34962}],"buffers":[{"byteLength":3648,"uri":"Bushes_01.bin"}],"images":[{"name":"Bushes_01_A","uri":"Bushes_01_A.tga"}],"materials":[{"alphaMode":"OPAQUE","doubleSided":false,"extras":{"fromFBX":{"isTruePBR":false,"shadingModel":"Phong"}},"name":"Bushes_01","pbrMetallicRoughness":{"baseColorFactor":[0.800000011920929,0.800000011920929,0.800000011920929,0.199999988079071],"baseColorTexture":{"index":0,"texCoord":0},"metallicFactor":0.400000005960464,"roughnessFactor":0.272661000490189}}],"meshes":[{"name":"Bushes_01","primitives":[{"attributes":{"COLOR_0":3,"NORMAL":2,"POSITION":1,"TEXCOORD_0":4},"indices":0,"material":0,"mode":4}]}],"nodes":[{"mesh":0,"name":"Bushes_01","rotation":[0,0,0,1],"scale":[1,1,1],"translation":[0,0,0]}],"samplers":[{}],"scene":0,"scenes":[{"name":"Root Scene","nodes":[0]}],"textures":[{"name":"Bushes_01_A","sampler":0,"source":0}]}