{"accessors":[{"bufferView":0,"byteOffset":0,"componentType":5123,"count":243,"type":"SCALAR"},{"bufferView":1,"byteOffset":0,"componentType":5126,"count":106,"max":[1.11565148830414,1.4924932718277,1.08712339401245],"min":[-1.0519425868988,-0.1743880957365,-1.10725820064545],"type":"VEC3"},{"bufferView":2,"byteOffset":0,"componentType":5126,"count":106,"type":"VEC3"},{"bufferView":3,"byteOffset":0,"componentType":5126,"count":106,"type":"VEC4"},{"bufferView":4,"byteOffset":0,"componentType":5126,"count":106,"type":"VEC2"}],"asset":{"generator":"FBX2glTF v0.13.1","version":"2.0"},"bufferViews":[{"buffer":0,"byteLength":486,"byteOffset":0,"target":34963},{"buffer":0,"byteLength":1272,"byteOffset":488,"target":34962},{"buffer":0,"byteLength":1272,"byteOffset":1760,"target":34962},{"buffer":0,"byteLength":1696,"byteOffset":3032,"target":34962},{"buffer":0,"byteLength":848,"byteOffset":4728,"target":34962}],"buffers":[{"byteLength":5576,"uri":"Bushes_02.bin"}],"images":[{"name":"Bushes_01_A","uri":"Bushes_01_A.tga"}],"materials":[{"alphaMode":"OPAQUE","doubleSided":false,"extras":{"fromFBX":{"isTruePBR":false,"shadingModel":"Phong"}},"name":"Bushes_01","pbrMetallicRoughness":{"baseColorFactor":[0.800000011920929,0.800000011920929,0.800000011920929,0.199999988079071],"baseColorTexture":{"index":0,"texCoord":0},"metallicFactor":0.400000005960464,"roughnessFactor":0.272661000490189}}],"meshes":[{"name":"Bushes_02","primitives":[{"attributes":{"COLOR_0":3,"NORMAL":2,"POSITION":1,"TEXCOORD_0":4},"indices":0,"material":0,"mode":4}]}],"nodes":[{"mesh":0,"name":"Bushes_02","rotation":[0,0,0,1],"scale":[1,1,1],"translation":[0,0,0]}],"samplers":[{}],"scene":0,"scenes":[{"name":"Root Scene","nodes":[0]}],"textures":[{"name":"Bushes_01_A","sampler":0,"source":0}]}