{"accessors":[{"bufferView":0,"byteOffset":0,"componentType":5123,"count":270,"type":"SCALAR"},{"bufferView":1,"byteOffset":0,"componentType":5126,"count":107,"max":[0.899787366390228,1.44118523597717,0.838348209857941],"min":[-0.82298809289932,-0.05324716120958,-0.79023540019989],"type":"VEC3"},{"bufferView":2,"byteOffset":0,"componentType":5126,"count":107,"type":"VEC3"},{"bufferView":3,"byteOffset":0,"componentType":5126,"count":107,"type":"VEC4"},{"bufferView":4,"byteOffset":0,"componentType":5126,"count":107,"type":"VEC2"}],"asset":{"generator":"FBX2glTF v0.13.1","version":"2.0"},"bufferViews":[{"buffer":0,"byteLength":540,"byteOffset":0,"target":34963},{"buffer":0,"byteLength":1284,"byteOffset":540,"target":34962},{"buffer":0,"byteLength":1284,"byteOffset":1824,"target":34962},{"buffer":0,"byteLength":1712,"byteOffset":3108,"target":34962},{"buffer":0,"byteLength":856,"byteOffset":4820,"target":34962}],"buffers":[{"byteLength":5676,"uri":"Bushes_03.bin"}],"images":[{"name":"Bushes_01_A","uri":"Bushes_01_A.tga"}],"materials":[{"alphaMode":"OPAQUE","doubleSided":false,"extras":{"fromFBX":{"isTruePBR":false,"shadingModel":"Phong"}},"name":"Bushes_01","pbrMetallicRoughness":{"baseColorFactor":[0.800000011920929,0.800000011920929,0.800000011920929,0.199999988079071],"baseColorTexture":{"index":0,"texCoord":0},"metallicFactor":0.400000005960464,"roughnessFactor":0.272661000490189}}],"meshes":[{"name":"Bushes_03","primitives":[{"attributes":{"COLOR_0":3,"NORMAL":2,"POSITION":1,"TEXCOORD_0":4},"indices":0,"material":0,"mode":4}]}],"nodes":[{"mesh":0,"name":"Bushes_03","rotation":[0,0,0,1],"scale":[1,1,1],"translation":[0,0,0]}],"samplers":[{}],"scene":0,"scenes":[{"name":"Root Scene","nodes":[0]}],"textures":[{"name":"Bushes_01_A","sampler":0,"source":0}]}