{"accessors":[{"bufferView":0,"byteOffset":0,"componentType":5123,"count":480,"type":"SCALAR"},{"bufferView":1,"byteOffset":0,"componentType":5126,"count":136,"max":[1.17039549350739,0.720740616321564,1.00292074680328],"min":[-1.00540709495544,0,-1.28593897819519],"type":"VEC3"},{"bufferView":2,"byteOffset":0,"componentType":5126,"count":136,"type":"VEC3"},{"bufferView":3,"byteOffset":0,"componentType":5126,"count":136,"type":"VEC2"},{"bufferView":4,"byteOffset":0,"componentType":5123,"count":234,"type":"SCALAR"},{"bufferView":5,"byteOffset":0,"componentType":5126,"count":84,"max":[1.17039549350739,0.739072263240814,1.00292074680328],"min":[-1.00540709495544,0,-1.28593897819519],"type":"VEC3"},{"bufferView":6,"byteOffset":0,"componentType":5126,"count":84,"type":"VEC3"},{"bufferView":7,"byteOffset":0,"componentType":5126,"count":84,"type":"VEC2"},{"bufferView":8,"byteOffset":0,"componentType":5123,"count":120,"type":"SCALAR"},{"bufferView":9,"byteOffset":0,"componentType":5126,"count":53,"max":[1.17039549350739,0.665640830993652,1.00292074680328],"min":[-1.00540709495544,0,-1.28593897819519],"type":"VEC3"},{"bufferView":10,"byteOffset":0,"componentType":5126,"count":53,"type":"VEC3"},{"bufferView":11,"byteOffset":0,"componentType":5126,"count":53,"type":"VEC2"}],"asset":{"generator":"FBX2glTF v0.13.1","version":"2.0"},"bufferViews":[{"buffer":0,"byteLength":960,"byteOffset":0,"target":34963},{"buffer":0,"byteLength":1632,"byteOffset":960,"target":34962},{"buffer":0,"byteLength":1632,"byteOffset":2592,"target":34962},{"buffer":0,"byteLength":1088,"byteOffset":4224,"target":34962},{"buffer":0,"byteLength":468,"byteOffset":5312,"target":34963},{"buffer":0,"byteLength":1008,"byteOffset":5780,"target":34962},{"buffer":0,"byteLength":1008,"byteOffset":6788,"target":34962},{"buffer":0,"byteLength":672,"byteOffset":7796,"target":34962},{"buffer":0,"byteLength":240,"byteOffset":8468,"target":34963},{"buffer":0,"byteLength":636,"byteOffset":8708,"target":34962},{"buffer":0,"byteLength":636,"byteOffset":9344,"target":34962},{"buffer":0,"byteLength":424,"byteOffset":9980,"target":34962}],"buffers":[{"byteLength":10404,"uri":"Fern_01.bin"}],"images":[{"name":"Grass","uri":"Grass.tga"}],"materials":[{"alphaMode":"OPAQUE","doubleSided":false,"extras":{"fromFBX":{"isTruePBR":false,"shadingModel":"Phong"}},"name":"Grass","pbrMetallicRoughness":{"baseColorFactor":[1,1,1,1],"baseColorTexture":{"index":0,"texCoord":0},"metallicFactor":0.400000005960464,"roughnessFactor":0.272165536880493}}],"meshes":[{"name":"Fern_01_LOD0","primitives":[{"attributes":{"NORMAL":2,"POSITION":1,"TEXCOORD_0":3},"indices":0,"material":0,"mode":4}]},{"name":"Fern_01_LOD1","primitives":[{"attributes":{"NORMAL":6,"POSITION":5,"TEXCOORD_0":7},"indices":4,"material":0,"mode":4}]},{"name":"Fern_01_LOD2","primitives":[{"attributes":{"NORMAL":10,"POSITION":9,"TEXCOORD_0":11},"indices":8,"material":0,"mode":4}]}],"nodes":[{"mesh":0,"name":"Fern_01_LOD0","rotation":[0,0,0,1],"scale":[1,1,1],"translation":[0,0,0]},{"mesh":1,"name":"Fern_01_LOD1","rotation":[0,0,0,1],"scale":[1,1,1],"translation":[0,0,0]},{"mesh":2,"name":"Fern_01_LOD2","rotation":[0,0,0,1],"scale":[1,1,1],"translation":[0,0,0]}],"samplers":[{}],"scene":0,"scenes":[{"name":"Root Scene","nodes":[0,1,2]}],"textures":[{"name":"base_color_texture","sampler":0,"source":0}]}