{"accessors":[{"bufferView":0,"byteOffset":0,"componentType":5123,"count":540,"type":"SCALAR"},{"bufferView":1,"byteOffset":0,"componentType":5126,"count":153,"max":[1.16529488563538,0.392934381961823,1.01298880577087],"min":[-1.45595681667328,-0.22479100525379,-1.40978693962097],"type":"VEC3"},{"bufferView":2,"byteOffset":0,"componentType":5126,"count":153,"type":"VEC3"},{"bufferView":3,"byteOffset":0,"componentType":5126,"count":153,"type":"VEC2"},{"bufferView":4,"byteOffset":0,"componentType":5123,"count":279,"type":"SCALAR"},{"bufferView":5,"byteOffset":0,"componentType":5126,"count":97,"max":[1.16529488563538,0.413803786039352,1.01298880577087],"min":[-1.45595681667328,-0.22479100525379,-1.40978693962097],"type":"VEC3"},{"bufferView":6,"byteOffset":0,"componentType":5126,"count":97,"type":"VEC3"},{"bufferView":7,"byteOffset":0,"componentType":5126,"count":97,"type":"VEC2"},{"bufferView":8,"byteOffset":0,"componentType":5123,"count":144,"type":"SCALAR"},{"bufferView":9,"byteOffset":0,"componentType":5126,"count":61,"max":[1.16529488563538,0.413803786039352,1.01298880577087],"min":[-1.45595681667328,-0.22479100525379,-1.40978693962097],"type":"VEC3"},{"bufferView":10,"byteOffset":0,"componentType":5126,"count":61,"type":"VEC3"},{"bufferView":11,"byteOffset":0,"componentType":5126,"count":61,"type":"VEC2"}],"asset":{"generator":"FBX2glTF v0.13.1","version":"2.0"},"bufferViews":[{"buffer":0,"byteLength":1080,"byteOffset":0,"target":34963},{"buffer":0,"byteLength":1836,"byteOffset":1080,"target":34962},{"buffer":0,"byteLength":1836,"byteOffset":2916,"target":34962},{"buffer":0,"byteLength":1224,"byteOffset":4752,"target":34962},{"buffer":0,"byteLength":558,"byteOffset":5976,"target":34963},{"buffer":0,"byteLength":1164,"byteOffset":6536,"target":34962},{"buffer":0,"byteLength":1164,"byteOffset":7700,"target":34962},{"buffer":0,"byteLength":776,"byteOffset":8864,"target":34962},{"buffer":0,"byteLength":288,"byteOffset":9640,"target":34963},{"buffer":0,"byteLength":732,"byteOffset":9928,"target":34962},{"buffer":0,"byteLength":732,"byteOffset":10660,"target":34962},{"buffer":0,"byteLength":488,"byteOffset":11392,"target":34962}],"buffers":[{"byteLength":11880,"uri":"Fern_02.bin"}],"images":[{"name":"Grass","uri":"Grass.tga"}],"materials":[{"alphaMode":"OPAQUE","doubleSided":false,"extras":{"fromFBX":{"isTruePBR":false,"shadingModel":"Phong"}},"name":"Grass","pbrMetallicRoughness":{"baseColorFactor":[1,1,1,1],"baseColorTexture":{"index":0,"texCoord":0},"metallicFactor":0.400000005960464,"roughnessFactor":0.272165536880493}}],"meshes":[{"name":"Fern_02_LOD0","primitives":[{"attributes":{"NORMAL":2,"POSITION":1,"TEXCOORD_0":3},"indices":0,"material":0,"mode":4}]},{"name":"Fern_02_LOD1","primitives":[{"attributes":{"NORMAL":6,"POSITION":5,"TEXCOORD_0":7},"indices":4,"material":0,"mode":4}]},{"name":"Fern_02_LOD2","primitives":[{"attributes":{"NORMAL":10,"POSITION":9,"TEXCOORD_0":11},"indices":8,"material":0,"mode":4}]}],"nodes":[{"mesh":0,"name":"Fern_02_LOD0","rotation":[0,0,0,1],"scale":[1,1,1],"translation":[0,0,0]},{"mesh":1,"name":"Fern_02_LOD1","rotation":[0,0,0,1],"scale":[1,1,1],"translation":[0,0,0]},{"mesh":2,"name":"Fern_02_LOD2","rotation":[0,0,0,1],"scale":[1,1,1],"translation":[0,0,0]}],"samplers":[{}],"scene":0,"scenes":[{"name":"Root Scene","nodes":[0,1,2]}],"textures":[{"name":"base_color_texture","sampler":0,"source":0}]}