{"accessors":[{"bufferView":0,"byteOffset":0,"componentType":5123,"count":576,"type":"SCALAR"},{"bufferView":1,"byteOffset":0,"componentType":5126,"count":239,"max":[0.502247869968414,0.414743423461914,0.52392703294754],"min":[-0.49596449732781,-0.00000008028692,-0.49118402600288],"type":"VEC3"},{"bufferView":2,"byteOffset":0,"componentType":5126,"count":239,"type":"VEC3"},{"bufferView":3,"byteOffset":0,"componentType":5126,"count":239,"type":"VEC2"},{"bufferView":4,"byteOffset":0,"componentType":5123,"count":249,"type":"SCALAR"},{"bufferView":5,"byteOffset":0,"componentType":5126,"count":142,"max":[0.497701525688171,0.414743423461914,0.52392703294754],"min":[-0.49596449732781,-0.00011612758681,-0.49118402600288],"type":"VEC3"},{"bufferView":6,"byteOffset":0,"componentType":5126,"count":142,"type":"VEC3"},{"bufferView":7,"byteOffset":0,"componentType":5126,"count":142,"type":"VEC2"}],"asset":{"generator":"FBX2glTF v0.13.1","version":"2.0"},"bufferViews":[{"buffer":0,"byteLength":1152,"byteOffset":0,"target":34963},{"buffer":0,"byteLength":2868,"byteOffset":1152,"target":34962},{"buffer":0,"byteLength":2868,"byteOffset":4020,"target":34962},{"buffer":0,"byteLength":1912,"byteOffset":6888,"target":34962},{"buffer":0,"byteLength":498,"byteOffset":8800,"target":34963},{"buffer":0,"byteLength":1704,"byteOffset":9300,"target":34962},{"buffer":0,"byteLength":1704,"byteOffset":11004,"target":34962},{"buffer":0,"byteLength":1136,"byteOffset":12708,"target":34962}],"buffers":[{"byteLength":13844,"uri":"Grass_01.bin"}],"images":[{"name":"Grass","uri":"Grass.tga"}],"materials":[{"alphaMode":"OPAQUE","doubleSided":false,"extras":{"fromFBX":{"isTruePBR":false,"shadingModel":"Phong"}},"name":"Grass","pbrMetallicRoughness":{"baseColorFactor":[1,1,1,1],"baseColorTexture":{"index":0,"texCoord":0},"metallicFactor":0.400000005960464,"roughnessFactor":0.272165536880493}}],"meshes":[{"name":"Grass_01_LOD0","primitives":[{"attributes":{"NORMAL":2,"POSITION":1,"TEXCOORD_0":3},"indices":0,"material":0,"mode":4}]},{"name":"Grass_01_LOD1","primitives":[{"attributes":{"NORMAL":6,"POSITION":5,"TEXCOORD_0":7},"indices":4,"material":0,"mode":4}]}],"nodes":[{"mesh":0,"name":"Grass_01_LOD0","rotation":[0,0,0,1],"scale":[1,1,1],"translation":[0,0,0]},{"mesh":1,"name":"Grass_01_LOD1","rotation":[0,0,0,1],"scale":[1,1,1],"translation":[0,0,0]}],"samplers":[{}],"scene":0,"scenes":[{"name":"Root Scene","nodes":[0,1]}],"textures":[{"name":"base_color_texture","sampler":0,"source":0}]}