{"accessors":[{"bufferView":0,"byteOffset":0,"componentType":5123,"count":1944,"type":"SCALAR"},{"bufferView":1,"byteOffset":0,"componentType":5126,"count":763,"max":[0.80375599861145,0.372668296098709,0.733874559402466],"min":[-0.84585499763489,-0.00000010882533,-0.98654586076736],"type":"VEC3"},{"bufferView":2,"byteOffset":0,"componentType":5126,"count":763,"type":"VEC3"},{"bufferView":3,"byteOffset":0,"componentType":5126,"count":763,"type":"VEC2"},{"bufferView":4,"byteOffset":0,"componentType":5123,"count":972,"type":"SCALAR"},{"bufferView":5,"byteOffset":0,"componentType":5126,"count":485,"max":[0.80375599861145,0.372668296098709,0.731617867946625],"min":[-0.84585499763489,-0.00062558439095,-0.98654586076736],"type":"VEC3"},{"bufferView":6,"byteOffset":0,"componentType":5126,"count":485,"type":"VEC3"},{"bufferView":7,"byteOffset":0,"componentType":5126,"count":485,"type":"VEC2"}],"asset":{"generator":"FBX2glTF v0.13.1","version":"2.0"},"bufferViews":[{"buffer":0,"byteLength":3888,"byteOffset":0,"target":34963},{"buffer":0,"byteLength":9156,"byteOffset":3888,"target":34962},{"buffer":0,"byteLength":9156,"byteOffset":13044,"target":34962},{"buffer":0,"byteLength":6104,"byteOffset":22200,"target":34962},{"buffer":0,"byteLength":1944,"byteOffset":28304,"target":34963},{"buffer":0,"byteLength":5820,"byteOffset":30248,"target":34962},{"buffer":0,"byteLength":5820,"byteOffset":36068,"target":34962},{"buffer":0,"byteLength":3880,"byteOffset":41888,"target":34962}],"buffers":[{"byteLength":45768,"uri":"Grass_02.bin"}],"images":[{"name":"Grass","uri":"Grass.tga"}],"materials":[{"alphaMode":"OPAQUE","doubleSided":false,"extras":{"fromFBX":{"isTruePBR":false,"shadingModel":"Phong"}},"name":"Grass","pbrMetallicRoughness":{"baseColorFactor":[1,1,1,1],"baseColorTexture":{"index":0,"texCoord":0},"metallicFactor":0.400000005960464,"roughnessFactor":0.272165536880493}}],"meshes":[{"name":"Grass_02_LOD0","primitives":[{"attributes":{"NORMAL":2,"POSITION":1,"TEXCOORD_0":3},"indices":0,"material":0,"mode":4}]},{"name":"Grass_02_LOD1","primitives":[{"attributes":{"NORMAL":6,"POSITION":5,"TEXCOORD_0":7},"indices":4,"material":0,"mode":4}]}],"nodes":[{"mesh":0,"name":"Grass_02_LOD0","rotation":[0,0,0,1],"scale":[1,1,1],"translation":[0,0,0]},{"mesh":1,"name":"Grass_02_LOD1","rotation":[0,0,0,1],"scale":[1,1,1],"translation":[0,0,0]}],"samplers":[{}],"scene":0,"scenes":[{"name":"Root Scene","nodes":[0,1]}],"textures":[{"name":"base_color_texture","sampler":0,"source":0}]}