{"accessors":[{"bufferView":0,"byteOffset":0,"componentType":5123,"count":270,"type":"SCALAR"},{"bufferView":1,"byteOffset":0,"componentType":5126,"count":76,"max":[0.337518483400345,0.768777906894684,0.345942080020905],"min":[-0.34000799059868,0,-0.34418535232544],"type":"VEC3"},{"bufferView":2,"byteOffset":0,"componentType":5126,"count":76,"type":"VEC3"},{"bufferView":3,"byteOffset":0,"componentType":5126,"count":76,"type":"VEC2"},{"bufferView":4,"byteOffset":0,"componentType":5123,"count":144,"type":"SCALAR"},{"bufferView":5,"byteOffset":0,"componentType":5126,"count":60,"max":[0.337518483400345,0.768909990787506,0.345942080020905],"min":[-0.34000799059868,-0.00046518698218,-0.34418535232544],"type":"VEC3"},{"bufferView":6,"byteOffset":0,"componentType":5126,"count":60,"type":"VEC3"},{"bufferView":7,"byteOffset":0,"componentType":5126,"count":60,"type":"VEC2"}],"asset":{"generator":"FBX2glTF v0.13.1","version":"2.0"},"bufferViews":[{"buffer":0,"byteLength":540,"byteOffset":0,"target":34963},{"buffer":0,"byteLength":912,"byteOffset":540,"target":34962},{"buffer":0,"byteLength":912,"byteOffset":1452,"target":34962},{"buffer":0,"byteLength":608,"byteOffset":2364,"target":34962},{"buffer":0,"byteLength":288,"byteOffset":2972,"target":34963},{"buffer":0,"byteLength":720,"byteOffset":3260,"target":34962},{"buffer":0,"byteLength":720,"byteOffset":3980,"target":34962},{"buffer":0,"byteLength":480,"byteOffset":4700,"target":34962}],"buffers":[{"byteLength":5180,"uri":"Grass_03.bin"}],"images":[{"name":"Grass_02_A","uri":"Grass_02_A.tga"}],"materials":[{"alphaMode":"OPAQUE","doubleSided":false,"extras":{"fromFBX":{"isTruePBR":false,"shadingModel":"Phong"}},"name":"Grass_02","pbrMetallicRoughness":{"baseColorFactor":[1,1,1,1],"baseColorTexture":{"index":0,"texCoord":0},"metallicFactor":0.400000005960464,"roughnessFactor":0.272165536880493}}],"meshes":[{"name":"Grass_03_LOD0","primitives":[{"attributes":{"NORMAL":2,"POSITION":1,"TEXCOORD_0":3},"indices":0,"material":0,"mode":4}]},{"name":"Grass_03_LOD1","primitives":[{"attributes":{"NORMAL":6,"POSITION":5,"TEXCOORD_0":7},"indices":4,"material":0,"mode":4}]}],"nodes":[{"mesh":0,"name":"Grass_03_LOD0","rotation":[0,0,0,1],"scale":[1,1,1],"translation":[0,0,0]},{"mesh":1,"name":"Grass_03_LOD1","rotation":[0,0,0,1],"scale":[1,1,1],"translation":[0,0,0]}],"samplers":[{}],"scene":0,"scenes":[{"name":"Root Scene","nodes":[0,1]}],"textures":[{"name":"base_color_texture","sampler":0,"source":0}]}