{"accessors":[{"bufferView":0,"byteOffset":0,"componentType":5123,"count":63,"type":"SCALAR"},{"bufferView":1,"byteOffset":0,"componentType":5126,"count":29,"max":[3.17191743850708,7.76574087142944,3.36584830284119],"min":[-3.39850664138794,-0.12066643685103,-4.47837829589844],"type":"VEC3"},{"bufferView":2,"byteOffset":0,"componentType":5126,"count":29,"type":"VEC3"},{"bufferView":3,"byteOffset":0,"componentType":5126,"count":29,"type":"VEC2"},{"bufferView":4,"byteOffset":0,"componentType":5123,"count":348,"type":"SCALAR"},{"bufferView":5,"byteOffset":0,"componentType":5126,"count":146,"max":[0.162645474076271,2.79126763343811,0.168440878391266],"min":[-0.1583634018898,-0.04713091626763,-0.20939467847347],"type":"VEC3"},{"bufferView":6,"byteOffset":0,"componentType":5126,"count":146,"type":"VEC3"},{"bufferView":7,"byteOffset":0,"componentType":5126,"count":146,"type":"VEC4"},{"bufferView":8,"byteOffset":0,"componentType":5126,"count":146,"type":"VEC2"},{"bufferView":9,"byteOffset":0,"componentType":5123,"count":348,"type":"SCALAR"},{"bufferView":10,"byteOffset":0,"componentType":5126,"count":146,"max":[0.162645474076271,2.79126763343811,0.168440878391266],"min":[-0.1583634018898,-0.04713091626763,-0.20939467847347],"type":"VEC3"},{"bufferView":11,"byteOffset":0,"componentType":5126,"count":146,"type":"VEC3"},{"bufferView":12,"byteOffset":0,"componentType":5126,"count":146,"type":"VEC4"},{"bufferView":13,"byteOffset":0,"componentType":5126,"count":146,"type":"VEC2"},{"bufferView":14,"byteOffset":0,"componentType":5123,"count":1212,"type":"SCALAR"},{"bufferView":15,"byteOffset":0,"componentType":5126,"count":430,"max":[0.162645474076271,2.68196797370911,0.168440878391266],"min":[-0.15831153094768,-0.04713091626763,-0.20959761738777],"type":"VEC3"},{"bufferView":16,"byteOffset":0,"componentType":5126,"count":430,"type":"VEC3"},{"bufferView":17,"byteOffset":0,"componentType":5126,"count":430,"type":"VEC4"},{"bufferView":18,"byteOffset":0,"componentType":5126,"count":430,"type":"VEC2"},{"bufferView":19,"byteOffset":0,"componentType":5123,"count":486,"type":"SCALAR"},{"bufferView":20,"byteOffset":0,"componentType":5126,"count":172,"max":[0.551316201686859,7.14831399917603,0.48397696018219],"min":[-1.70061075687408,2.53500938415527,-0.91825771331787],"type":"VEC3"},{"bufferView":21,"byteOffset":0,"componentType":5126,"count":172,"type":"VEC3"},{"bufferView":22,"byteOffset":0,"componentType":5126,"count":172,"type":"VEC4"},{"bufferView":23,"byteOffset":0,"componentType":5126,"count":172,"type":"VEC2"},{"bufferView":24,"byteOffset":0,"componentType":5123,"count":4215,"type":"SCALAR"},{"bufferView":25,"byteOffset":0,"componentType":5126,"count":1281,"max":[2.04407405853271,7.14831399917603,2.50993657112122],"min":[-2.54673910140991,2.53500938415527,-3.64384269714355],"type":"VEC3"},{"bufferView":26,"byteOffset":0,"componentType":5126,"count":1281,"type":"VEC3"},{"bufferView":27,"byteOffset":0,"componentType":5126,"count":1281,"type":"VEC4"},{"bufferView":28,"byteOffset":0,"componentType":5126,"count":1281,"type":"VEC2"},{"bufferView":29,"byteOffset":0,"componentType":5123,"count":13686,"type":"SCALAR"},{"bufferView":30,"byteOffset":0,"componentType":5126,"count":3747,"max":[2.04426193237305,7.14831399917603,2.51020050048828],"min":[-2.54745173454285,2.59611129760742,-3.64373779296875],"type":"VEC3"},{"bufferView":31,"byteOffset":0,"componentType":5126,"count":3747,"type":"VEC3"},{"bufferView":32,"byteOffset":0,"componentType":5126,"count":3747,"type":"VEC4"},{"bufferView":33,"byteOffset":0,"componentType":5126,"count":3747,"type":"VEC2"},{"bufferView":34,"byteOffset":0,"componentType":5123,"count":3114,"type":"SCALAR"},{"bufferView":35,"byteOffset":0,"componentType":5126,"count":1632,"max":[2.76461291313171,7.68556308746338,3.14736413955688],"min":[-3.1228985786438,2.24757146835327,-4.38029289245605],"type":"VEC3"},{"bufferView":36,"byteOffset":0,"componentType":5126,"count":1632,"type":"VEC3"},{"bufferView":37,"byteOffset":0,"componentType":5126,"count":1632,"type":"VEC4"},{"bufferView":38,"byteOffset":0,"componentType":5126,"count":1632,"type":"VEC2"},{"bufferView":39,"byteOffset":0,"componentType":5123,"count":7677,"type":"SCALAR"},{"bufferView":40,"byteOffset":0,"componentType":5126,"count":3105,"max":[2.88493943214417,7.68556308746338,3.32804703712463],"min":[-3.21666216850281,2.35289406776428,-4.37302398681641],"type":"VEC3"},{"bufferView":41,"byteOffset":0,"componentType":5126,"count":3105,"type":"VEC3"},{"bufferView":42,"byteOffset":0,"componentType":5126,"count":3105,"type":"VEC4"},{"bufferView":43,"byteOffset":0,"componentType":5126,"count":3105,"type":"VEC2"},{"bufferView":44,"byteOffset":0,"componentType":5123,"count":7776,"type":"SCALAR"},{"bufferView":45,"byteOffset":0,"componentType":5126,"count":3136,"max":[2.88493943214417,7.68556308746338,3.32804703712463],"min":[-3.21666216850281,2.35289406776428,-4.37302398681641],"type":"VEC3"},{"bufferView":46,"byteOffset":0,"componentType":5126,"count":3136,"type":"VEC3"},{"bufferView":47,"byteOffset":0,"componentType":5126,"count":3136,"type":"VEC4"},{"bufferView":48,"byteOffset":0,"componentType":5126,"count":3136,"type":"VEC2"}],"asset":{"generator":"FBX2glTF v0.13.1","version":"2.0"},"bufferViews":[{"buffer":0,"byteLength":126,"byteOffset":0,"target":34963},{"buffer":0,"byteLength":348,"byteOffset":128,"target":34962},{"buffer":0,"byteLength":348,"byteOffset":476,"target":34962},{"buffer":0,"byteLength":232,"byteOffset":824,"target":34962},{"buffer":0,"byteLength":696,"byteOffset":1056,"target":34963},{"buffer":0,"byteLength":1752,"byteOffset":1752,"target":34962},{"buffer":0,"byteLength":1752,"byteOffset":3504,"target":34962},{"buffer":0,"byteLength":2336,"byteOffset":5256,"target":34962},{"buffer":0,"byteLength":1168,"byteOffset":7592,"target":34962},{"buffer":0,"byteLength":696,"byteOffset":8760,"target":34963},{"buffer":0,"byteLength":1752,"byteOffset":9456,"target":34962},{"buffer":0,"byteLength":1752,"byteOffset":11208,"target":34962},{"buffer":0,"byteLength":2336,"byteOffset":12960,"target":34962},{"buffer":0,"byteLength":1168,"byteOffset":15296,"target":34962},{"buffer":0,"byteLength":2424,"byteOffset":16464,"target":34963},{"buffer":0,"byteLength":5160,"byteOffset":18888,"target":34962},{"buffer":0,"byteLength":5160,"byteOffset":24048,"target":34962},{"buffer":0,"byteLength":6880,"byteOffset":29208,"target":34962},{"buffer":0,"byteLength":3440,"byteOffset":36088,"target":34962},{"buffer":0,"byteLength":972,"byteOffset":39528,"target":34963},{"buffer":0,"byteLength":2064,"byteOffset":40500,"target":34962},{"buffer":0,"byteLength":2064,"byteOffset":42564,"target":34962},{"buffer":0,"byteLength":2752,"byteOffset":44628,"target":34962},{"buffer":0,"byteLength":1376,"byteOffset":47380,"target":34962},{"buffer":0,"byteLength":8430,"byteOffset":48756,"target":34963},{"buffer":0,"byteLength":15372,"byteOffset":57188,"target":34962},{"buffer":0,"byteLength":15372,"byteOffset":72560,"target":34962},{"buffer":0,"byteLength":20496,"byteOffset":87932,"target":34962},{"buffer":0,"byteLength":10248,"byteOffset":108428,"target":34962},{"buffer":0,"byteLength":27372,"byteOffset":118676,"target":34963},{"buffer":0,"byteLength":44964,"byteOffset":146048,"target":34962},{"buffer":0,"byteLength":44964,"byteOffset":191012,"target":34962},{"buffer":0,"byteLength":59952,"byteOffset":235976,"target":34962},{"buffer":0,"byteLength":29976,"byteOffset":295928,"target":34962},{"buffer":0,"byteLength":6228,"byteOffset":325904,"target":34963},{"buffer":0,"byteLength":19584,"byteOffset":332132,"target":34962},{"buffer":0,"byteLength":19584,"byteOffset":351716,"target":34962},{"buffer":0,"byteLength":26112,"byteOffset":371300,"target":34962},{"buffer":0,"byteLength":13056,"byteOffset":397412,"target":34962},{"buffer":0,"byteLength":15354,"byteOffset":410468,"target":34963},{"buffer":0,"byteLength":37260,"byteOffset":425824,"target":34962},{"buffer":0,"byteLength":37260,"byteOffset":463084,"target":34962},{"buffer":0,"byteLength":49680,"byteOffset":500344,"target":34962},{"buffer":0,"byteLength":24840,"byteOffset":550024,"target":34962},{"buffer":0,"byteLength":15552,"byteOffset":574864,"target":34963},{"buffer":0,"byteLength":37632,"byteOffset":590416,"target":34962},{"buffer":0,"byteLength":37632,"byteOffset":628048,"target":34962},{"buffer":0,"byteLength":50176,"byteOffset":665680,"target":34962},{"buffer":0,"byteLength":25088,"byteOffset":715856,"target":34962}],"buffers":[{"byteLength":740944,"uri":"Maple_01.bin"}],"images":[{"name":"Billboard_Maple_01","uri":"Billboard_Maple_01.tga"},{"name":"Maple_01_Bark_A","uri":"Maple_01_Bark_A.tga"},{"name":"Maple_Bark_01_A","uri":"Maple_Bark_01_A.tga"},{"name":"Maple_Leaves_A","uri":"Maple_Leaves_A.tga"}],"materials":[{"alphaMode":"OPAQUE","doubleSided":false,"extras":{"fromFBX":{"isTruePBR":false,"shadingModel":"Phong"}},"name":"Billboard_Maple_01","pbrMetallicRoughness":{"baseColorFactor":[1,1,1,0],"baseColorTexture":{"index":0,"texCoord":0},"metallicFactor":0.400000005960464,"roughnessFactor":0.272661000490189}},{"alphaMode":"OPAQUE","doubleSided":false,"extras":{"fromFBX":{"isTruePBR":false,"shadingModel":"Phong"}},"name":"Maple_01_Bark","pbrMetallicRoughness":{"baseColorFactor":[1,1,1,0],"baseColorTexture":{"index":1,"texCoord":0},"metallicFactor":0.400000005960464,"roughnessFactor":0.272661000490189}},{"alphaMode":"OPAQUE","doubleSided":false,"extras":{"fromFBX":{"isTruePBR":false,"shadingModel":"Phong"}},"name":"Maple_Bark","pbrMetallicRoughness":{"baseColorFactor":[1,1,1,0],"baseColorTexture":{"index":2,"texCoord":0},"metallicFactor":0.400000005960464,"roughnessFactor":0.272661000490189}},{"alphaMode":"OPAQUE","doubleSided":false,"extras":{"fromFBX":{"isTruePBR":false,"shadingModel":"Phong"}},"name":"Maple_Leaves","pbrMetallicRoughness":{"baseColorFactor":[1,1,1,0],"baseColorTexture":{"index":3,"texCoord":0},"metallicFactor":0.400000005960464,"roughnessFactor":0.272661000490189}}],"meshes":[{"name":"Billboard_Maple_01","primitives":[{"attributes":{"NORMAL":2,"POSITION":1,"TEXCOORD_0":3},"indices":0,"material":0,"mode":4}]},{"name":"Maple_01_LOD2","primitives":[{"attributes":{"COLOR_0":7,"NORMAL":6,"POSITION":5,"TEXCOORD_0":8},"indices":4,"material":1,"mode":4},{"attributes":{"COLOR_0":22,"NORMAL":21,"POSITION":20,"TEXCOORD_0":23},"indices":19,"material":2,"mode":4},{"attributes":{"COLOR_0":37,"NORMAL":36,"POSITION":35,"TEXCOORD_0":38},"indices":34,"material":3,"mode":4}]},{"name":"Maple_01_LOD1","primitives":[{"attributes":{"COLOR_0":12,"NORMAL":11,"POSITION":10,"TEXCOORD_0":13},"indices":9,"material":1,"mode":4},{"attributes":{"COLOR_0":27,"NORMAL":26,"POSITION":25,"TEXCOORD_0":28},"indices":24,"material":2,"mode":4},{"attributes":{"COLOR_0":42,"NORMAL":41,"POSITION":40,"TEXCOORD_0":43},"indices":39,"material":3,"mode":4}]},{"name":"Maple_01_LOD0","primitives":[{"attributes":{"COLOR_0":17,"NORMAL":16,"POSITION":15,"TEXCOORD_0":18},"indices":14,"material":1,"mode":4},{"attributes":{"COLOR_0":32,"NORMAL":31,"POSITION":30,"TEXCOORD_0":33},"indices":29,"material":2,"mode":4},{"attributes":{"COLOR_0":47,"NORMAL":46,"POSITION":45,"TEXCOORD_0":48},"indices":44,"material":3,"mode":4}]}],"nodes":[{"mesh":0,"name":"Billboard_Maple_01","rotation":[0,0,0,1],"scale":[1,1,1],"translation":[0,0,0]},{"mesh":1,"name":"Maple_01_LOD2","rotation":[0,0,0,1],"scale":[1,1,1],"translation":[0,0,0]},{"mesh":2,"name":"Maple_01_LOD1","rotation":[0,0,0,1],"scale":[1,1,1],"translation":[0,0,0]},{"mesh":3,"name":"Maple_01_LOD0","rotation":[0,0,0,1],"scale":[1,1,1],"translation":[0,0,0]}],"samplers":[{}],"scene":0,"scenes":[{"name":"Root Scene","nodes":[0,1,2,3]}],"textures":[{"name":"base_color_texture","sampler":0,"source":0},{"name":"base_color_texture","sampler":0,"source":1},{"name":"base_color_texture","sampler":0,"source":2},{"name":"base_color_texture","sampler":0,"source":3}]}