{"accessors":[{"bufferView":0,"byteOffset":0,"componentType":5123,"count":69,"type":"SCALAR"},{"bufferView":1,"byteOffset":0,"componentType":5126,"count":31,"max":[1.09961903095245,4.13452577590942,1.16795337200165],"min":[-1.22909367084503,-0.13657173514366,-1.17973446846008],"type":"VEC3"},{"bufferView":2,"byteOffset":0,"componentType":5126,"count":31,"type":"VEC3"},{"bufferView":3,"byteOffset":0,"componentType":5126,"count":31,"type":"VEC2"},{"bufferView":4,"byteOffset":0,"componentType":5123,"count":165,"type":"SCALAR"},{"bufferView":5,"byteOffset":0,"componentType":5126,"count":97,"max":[0.0686932653188705,3.26752185821533,0.0695464164018631],"min":[-0.06799688190222,-0.07208853214979,-0.05444598942995],"type":"VEC3"},{"bufferView":6,"byteOffset":0,"componentType":5126,"count":97,"type":"VEC3"},{"bufferView":7,"byteOffset":0,"componentType":5126,"count":97,"type":"VEC4"},{"bufferView":8,"byteOffset":0,"componentType":5126,"count":97,"type":"VEC2"},{"bufferView":9,"byteOffset":0,"componentType":5123,"count":1308,"type":"SCALAR"},{"bufferView":10,"byteOffset":0,"componentType":5126,"count":436,"max":[0.0670806095004082,3.26570725440979,0.0679586008191109],"min":[-0.06826204061508,-0.07199060916901,-0.05669478699565],"type":"VEC3"},{"bufferView":11,"byteOffset":0,"componentType":5126,"count":436,"type":"VEC3"},{"bufferView":12,"byteOffset":0,"componentType":5126,"count":436,"type":"VEC4"},{"bufferView":13,"byteOffset":0,"componentType":5126,"count":436,"type":"VEC2"},{"bufferView":14,"byteOffset":0,"componentType":5123,"count":2592,"type":"SCALAR"},{"bufferView":15,"byteOffset":0,"componentType":5126,"count":746,"max":[0.0670806095004082,3.26583003997803,0.0679586008191109],"min":[-0.06821170449257,-0.07202216982841,-0.05669478699565],"type":"VEC3"},{"bufferView":16,"byteOffset":0,"componentType":5126,"count":746,"type":"VEC3"},{"bufferView":17,"byteOffset":0,"componentType":5126,"count":746,"type":"VEC4"},{"bufferView":18,"byteOffset":0,"componentType":5126,"count":746,"type":"VEC2"},{"bufferView":19,"byteOffset":0,"componentType":5123,"count":450,"type":"SCALAR"},{"bufferView":20,"byteOffset":0,"componentType":5126,"count":253,"max":[1.14642012119293,4.0863094329834,1.24081337451935],"min":[-1.19604074954987,1.04066479206085,-1.15262579917908],"type":"VEC3"},{"bufferView":21,"byteOffset":0,"componentType":5126,"count":253,"type":"VEC3"},{"bufferView":22,"byteOffset":0,"componentType":5126,"count":253,"type":"VEC4"},{"bufferView":23,"byteOffset":0,"componentType":5126,"count":253,"type":"VEC2"},{"bufferView":24,"byteOffset":0,"componentType":5123,"count":945,"type":"SCALAR"},{"bufferView":25,"byteOffset":0,"componentType":5126,"count":447,"max":[1.14642012119293,4.07509469985962,1.24081337451935],"min":[-1.19604074954987,1.17313277721405,-1.14216125011444],"type":"VEC3"},{"bufferView":26,"byteOffset":0,"componentType":5126,"count":447,"type":"VEC3"},{"bufferView":27,"byteOffset":0,"componentType":5126,"count":447,"type":"VEC4"},{"bufferView":28,"byteOffset":0,"componentType":5126,"count":447,"type":"VEC2"},{"bufferView":29,"byteOffset":0,"componentType":5123,"count":1716,"type":"SCALAR"},{"bufferView":30,"byteOffset":0,"componentType":5126,"count":713,"max":[1.14642012119293,4.07364130020142,1.24081337451935],"min":[-1.19604074954987,1.17313277721405,-1.14216125011444],"type":"VEC3"},{"bufferView":31,"byteOffset":0,"componentType":5126,"count":713,"type":"VEC3"},{"bufferView":32,"byteOffset":0,"componentType":5126,"count":713,"type":"VEC4"},{"bufferView":33,"byteOffset":0,"componentType":5126,"count":713,"type":"VEC2"}],"asset":{"generator":"FBX2glTF v0.13.1","version":"2.0"},"bufferViews":[{"buffer":0,"byteLength":138,"byteOffset":0,"target":34963},{"buffer":0,"byteLength":372,"byteOffset":140,"target":34962},{"buffer":0,"byteLength":372,"byteOffset":512,"target":34962},{"buffer":0,"byteLength":248,"byteOffset":884,"target":34962},{"buffer":0,"byteLength":330,"byteOffset":1132,"target":34963},{"buffer":0,"byteLength":1164,"byteOffset":1464,"target":34962},{"buffer":0,"byteLength":1164,"byteOffset":2628,"target":34962},{"buffer":0,"byteLength":1552,"byteOffset":3792,"target":34962},{"buffer":0,"byteLength":776,"byteOffset":5344,"target":34962},{"buffer":0,"byteLength":2616,"byteOffset":6120,"target":34963},{"buffer":0,"byteLength":5232,"byteOffset":8736,"target":34962},{"buffer":0,"byteLength":5232,"byteOffset":13968,"target":34962},{"buffer":0,"byteLength":6976,"byteOffset":19200,"target":34962},{"buffer":0,"byteLength":3488,"byteOffset":26176,"target":34962},{"buffer":0,"byteLength":5184,"byteOffset":29664,"target":34963},{"buffer":0,"byteLength":8952,"byteOffset":34848,"target":34962},{"buffer":0,"byteLength":8952,"byteOffset":43800,"target":34962},{"buffer":0,"byteLength":11936,"byteOffset":52752,"target":34962},{"buffer":0,"byteLength":5968,"byteOffset":64688,"target":34962},{"buffer":0,"byteLength":900,"byteOffset":70656,"target":34963},{"buffer":0,"byteLength":3036,"byteOffset":71556,"target":34962},{"buffer":0,"byteLength":3036,"byteOffset":74592,"target":34962},{"buffer":0,"byteLength":4048,"byteOffset":77628,"target":34962},{"buffer":0,"byteLength":2024,"byteOffset":81676,"target":34962},{"buffer":0,"byteLength":1890,"byteOffset":83700,"target":34963},{"buffer":0,"byteLength":5364,"byteOffset":85592,"target":34962},{"buffer":0,"byteLength":5364,"byteOffset":90956,"target":34962},{"buffer":0,"byteLength":7152,"byteOffset":96320,"target":34962},{"buffer":0,"byteLength":3576,"byteOffset":103472,"target":34962},{"buffer":0,"byteLength":3432,"byteOffset":107048,"target":34963},{"buffer":0,"byteLength":8556,"byteOffset":110480,"target":34962},{"buffer":0,"byteLength":8556,"byteOffset":119036,"target":34962},{"buffer":0,"byteLength":11408,"byteOffset":127592,"target":34962},{"buffer":0,"byteLength":5704,"byteOffset":139000,"target":34962}],"buffers":[{"byteLength":144704,"uri":"Maple_02.bin"}],"images":[{"name":"Billboard_Maple_02","uri":"Billboard_Maple_02.tga"},{"name":"Maple_02_Bark_A","uri":"Maple_02_Bark_A.tga"},{"name":"Maple_Leaves_A","uri":"Maple_Leaves_A.tga"}],"materials":[{"alphaMode":"OPAQUE","doubleSided":false,"extras":{"fromFBX":{"isTruePBR":false,"shadingModel":"Phong"}},"name":"Billboard_Maple_02","pbrMetallicRoughness":{"baseColorFactor":[1,1,1,0],"baseColorTexture":{"index":0,"texCoord":0},"metallicFactor":0.400000005960464,"roughnessFactor":0.272661000490189}},{"alphaMode":"OPAQUE","doubleSided":false,"extras":{"fromFBX":{"isTruePBR":false,"shadingModel":"Phong"}},"name":"Maple_02_Bark","pbrMetallicRoughness":{"baseColorFactor":[1,1,1,0],"baseColorTexture":{"index":1,"texCoord":0},"metallicFactor":0.400000005960464,"roughnessFactor":0.272661000490189}},{"alphaMode":"OPAQUE","doubleSided":false,"extras":{"fromFBX":{"isTruePBR":false,"shadingModel":"Phong"}},"name":"Maple_Leaves","pbrMetallicRoughness":{"baseColorFactor":[1,1,1,0],"baseColorTexture":{"index":2,"texCoord":0},"metallicFactor":0.400000005960464,"roughnessFactor":0.272661000490189}}],"meshes":[{"name":"Billboard_Maple_02","primitives":[{"attributes":{"NORMAL":2,"POSITION":1,"TEXCOORD_0":3},"indices":0,"material":0,"mode":4}]},{"name":"Maple_02_LOD2","primitives":[{"attributes":{"COLOR_0":7,"NORMAL":6,"POSITION":5,"TEXCOORD_0":8},"indices":4,"material":1,"mode":4},{"attributes":{"COLOR_0":22,"NORMAL":21,"POSITION":20,"TEXCOORD_0":23},"indices":19,"material":2,"mode":4}]},{"name":"Maple_02_LOD1","primitives":[{"attributes":{"COLOR_0":12,"NORMAL":11,"POSITION":10,"TEXCOORD_0":13},"indices":9,"material":1,"mode":4},{"attributes":{"COLOR_0":27,"NORMAL":26,"POSITION":25,"TEXCOORD_0":28},"indices":24,"material":2,"mode":4}]},{"name":"Maple_02_LOD0","primitives":[{"attributes":{"COLOR_0":17,"NORMAL":16,"POSITION":15,"TEXCOORD_0":18},"indices":14,"material":1,"mode":4},{"attributes":{"COLOR_0":32,"NORMAL":31,"POSITION":30,"TEXCOORD_0":33},"indices":29,"material":2,"mode":4}]}],"nodes":[{"mesh":0,"name":"Billboard_Maple_02","rotation":[0,0,0,1],"scale":[1,1,1],"translation":[0,0,0]},{"mesh":1,"name":"Maple_02_LOD2","rotation":[0,0,0,1],"scale":[1,1,1],"translation":[0,0,0]},{"mesh":2,"name":"Maple_02_LOD1","rotation":[0,0,0,1],"scale":[1,1,1],"translation":[0,0,0]},{"mesh":3,"name":"Maple_02_LOD0","rotation":[0,0,0,1],"scale":[1,1,1],"translation":[0,0,0]}],"samplers":[{}],"scene":0,"scenes":[{"name":"Root Scene","nodes":[0,1,2,3]}],"textures":[{"name":"base_color_texture","sampler":0,"source":0},{"name":"base_color_texture","sampler":0,"source":1},{"name":"base_color_texture","sampler":0,"source":2}]}