{"accessors":[{"bufferView":0,"byteOffset":0,"componentType":5123,"count":1854,"type":"SCALAR"},{"bufferView":1,"byteOffset":0,"componentType":5126,"count":374,"max":[0.394162565469742,2.35704469680786,0.36669984459877],"min":[-0.26251590251923,-0.13192319869995,-0.29467767477036],"type":"VEC3"},{"bufferView":2,"byteOffset":0,"componentType":5126,"count":374,"type":"VEC3"},{"bufferView":3,"byteOffset":0,"componentType":5126,"count":374,"type":"VEC2"},{"bufferView":4,"byteOffset":0,"componentType":5123,"count":1014,"type":"SCALAR"},{"bufferView":5,"byteOffset":0,"componentType":5126,"count":223,"max":[0.394162565469742,2.35557889938354,0.36669984459877],"min":[-0.26251590251923,-0.13192319869995,-0.29467767477036],"type":"VEC3"},{"bufferView":6,"byteOffset":0,"componentType":5126,"count":223,"type":"VEC3"},{"bufferView":7,"byteOffset":0,"componentType":5126,"count":223,"type":"VEC2"},{"bufferView":8,"byteOffset":0,"componentType":5123,"count":489,"type":"SCALAR"},{"bufferView":9,"byteOffset":0,"componentType":5126,"count":123,"max":[0.394162565469742,2.35557889938354,0.36669984459877],"min":[-0.25995635986328,-0.13192319869995,-0.28395119309425],"type":"VEC3"},{"bufferView":10,"byteOffset":0,"componentType":5126,"count":123,"type":"VEC3"},{"bufferView":11,"byteOffset":0,"componentType":5126,"count":123,"type":"VEC2"}],"asset":{"generator":"FBX2glTF v0.13.1","version":"2.0"},"bufferViews":[{"buffer":0,"byteLength":3708,"byteOffset":0,"target":34963},{"buffer":0,"byteLength":4488,"byteOffset":3708,"target":34962},{"buffer":0,"byteLength":4488,"byteOffset":8196,"target":34962},{"buffer":0,"byteLength":2992,"byteOffset":12684,"target":34962},{"buffer":0,"byteLength":2028,"byteOffset":15676,"target":34963},{"buffer":0,"byteLength":2676,"byteOffset":17704,"target":34962},{"buffer":0,"byteLength":2676,"byteOffset":20380,"target":34962},{"buffer":0,"byteLength":1784,"byteOffset":23056,"target":34962},{"buffer":0,"byteLength":978,"byteOffset":24840,"target":34963},{"buffer":0,"byteLength":1476,"byteOffset":25820,"target":34962},{"buffer":0,"byteLength":1476,"byteOffset":27296,"target":34962},{"buffer":0,"byteLength":984,"byteOffset":28772,"target":34962}],"buffers":[{"byteLength":29756,"uri":"Stump.bin"}],"images":[{"name":"Stump_A","uri":"Stump_A.tga"}],"materials":[{"alphaMode":"OPAQUE","doubleSided":false,"extras":{"fromFBX":{"isTruePBR":false,"shadingModel":"Phong"}},"name":"Stump","pbrMetallicRoughness":{"baseColorFactor":[1,1,1,1],"baseColorTexture":{"index":0,"texCoord":0},"metallicFactor":0.400000005960464,"roughnessFactor":0.272165536880493}}],"meshes":[{"name":"Stump_LOD0","primitives":[{"attributes":{"NORMAL":2,"POSITION":1,"TEXCOORD_0":3},"indices":0,"material":0,"mode":4}]},{"name":"Stump_LOD1","primitives":[{"attributes":{"NORMAL":6,"POSITION":5,"TEXCOORD_0":7},"indices":4,"material":0,"mode":4}]},{"name":"Stump_LOD2","primitives":[{"attributes":{"NORMAL":10,"POSITION":9,"TEXCOORD_0":11},"indices":8,"material":0,"mode":4}]}],"nodes":[{"mesh":0,"name":"Stump_LOD0","rotation":[0,0,0,1],"scale":[1,1,1],"translation":[0,0,0]},{"mesh":1,"name":"Stump_LOD1","rotation":[0,0,0,1],"scale":[1,1,1],"translation":[0,0,0]},{"mesh":2,"name":"Stump_LOD2","rotation":[0,0,0,1],"scale":[1,1,1],"translation":[0,0,0]}],"samplers":[{}],"scene":0,"scenes":[{"name":"Root Scene","nodes":[0,1,2]}],"textures":[{"name":"base_color_texture","sampler":0,"source":0}]}