{"accessors":[{"bufferView":0,"byteOffset":0,"componentType":5123,"count":5802,"type":"SCALAR"},{"bufferView":1,"byteOffset":0,"componentType":5126,"count":2263,"max":[0.00316566880792379,0.239525079727173,0.134401321411133],"min":[-0.13316775858402,-0.22350539267063,-0.14338970184326],"type":"VEC3"},{"bufferView":2,"byteOffset":0,"componentType":5126,"count":2263,"type":"VEC3"},{"bufferView":3,"byteOffset":0,"componentType":5126,"count":2263,"type":"VEC2"},{"bufferView":4,"byteOffset":0,"componentType":5123,"count":276,"type":"SCALAR"},{"bufferView":5,"byteOffset":0,"componentType":5126,"count":64,"max":[0,0.429881811141968,0.268802165985107],"min":[-0.02068418264389,-0.01712900400162,0],"type":"VEC3"},{"bufferView":6,"byteOffset":0,"componentType":5126,"count":64,"type":"VEC3"},{"bufferView":7,"byteOffset":0,"componentType":5126,"count":64,"type":"VEC2"},{"bufferView":8,"byteOffset":0,"componentType":5123,"count":438,"type":"SCALAR"},{"bufferView":9,"byteOffset":0,"componentType":5126,"count":126,"max":[0.0275315679609776,0.211926162242889,0.0331926345825195],"min":[-0.02753157168627,-0.02753156796098,-0.0016113370657],"type":"VEC3"},{"bufferView":10,"byteOffset":0,"componentType":5126,"count":126,"type":"VEC3"},{"bufferView":11,"byteOffset":0,"componentType":5126,"count":126,"type":"VEC2"},{"bufferView":12,"byteOffset":0,"componentType":5123,"count":3051,"type":"SCALAR"},{"bufferView":13,"byteOffset":0,"componentType":5126,"count":1580,"max":[0.00322551955468953,0.239525109529495,0.133519068360329],"min":[-0.13377368450165,-0.22270558774471,-0.14340578019619],"type":"VEC3"},{"bufferView":14,"byteOffset":0,"componentType":5126,"count":1580,"type":"VEC3"},{"bufferView":15,"byteOffset":0,"componentType":5126,"count":1580,"type":"VEC2"},{"bufferView":16,"byteOffset":0,"componentType":5123,"count":945,"type":"SCALAR"},{"bufferView":17,"byteOffset":0,"componentType":5126,"count":498,"max":[0.00283875549212098,0.239525109529495,0.130543678998947],"min":[-0.13199792802334,-0.21960213780403,-0.14214226603508],"type":"VEC3"},{"bufferView":18,"byteOffset":0,"componentType":5126,"count":498,"type":"VEC3"},{"bufferView":19,"byteOffset":0,"componentType":5126,"count":498,"type":"VEC2"}],"asset":{"generator":"FBX2glTF v0.13.1","version":"2.0"},"bufferViews":[{"buffer":0,"byteLength":11604,"byteOffset":0,"target":34963},{"buffer":0,"byteLength":27156,"byteOffset":11604,"target":34962},{"buffer":0,"byteLength":27156,"byteOffset":38760,"target":34962},{"buffer":0,"byteLength":18104,"byteOffset":65916,"target":34962},{"buffer":0,"byteLength":552,"byteOffset":84020,"target":34963},{"buffer":0,"byteLength":768,"byteOffset":84572,"target":34962},{"buffer":0,"byteLength":768,"byteOffset":85340,"target":34962},{"buffer":0,"byteLength":512,"byteOffset":86108,"target":34962},{"buffer":0,"byteLength":876,"byteOffset":86620,"target":34963},{"buffer":0,"byteLength":1512,"byteOffset":87496,"target":34962},{"buffer":0,"byteLength":1512,"byteOffset":89008,"target":34962},{"buffer":0,"byteLength":1008,"byteOffset":90520,"target":34962},{"buffer":0,"byteLength":6102,"byteOffset":91528,"target":34963},{"buffer":0,"byteLength":18960,"byteOffset":97632,"target":34962},{"buffer":0,"byteLength":18960,"byteOffset":116592,"target":34962},{"buffer":0,"byteLength":12640,"byteOffset":135552,"target":34962},{"buffer":0,"byteLength":1890,"byteOffset":148192,"target":34963},{"buffer":0,"byteLength":5976,"byteOffset":150084,"target":34962},{"buffer":0,"byteLength":5976,"byteOffset":156060,"target":34962},{"buffer":0,"byteLength":3984,"byteOffset":162036,"target":34962}],"buffers":[{"byteLength":166020,"uri":"Electric_Box.bin"}],"images":[{"name":"Wires_A","uri":"Wires_A.tga"}],"materials":[{"alphaMode":"OPAQUE","doubleSided":false,"extras":{"fromFBX":{"isTruePBR":false,"shadingModel":"Phong"}},"name":"Wires","pbrMetallicRoughness":{"baseColorFactor":[1,1,1,1],"baseColorTexture":{"index":0,"texCoord":0},"metallicFactor":0.400000005960464,"roughnessFactor":0.272165536880493}}],"meshes":[{"name":"Electric_Box_LOD0","primitives":[{"attributes":{"NORMAL":2,"POSITION":1,"TEXCOORD_0":3},"indices":0,"material":0,"mode":4}]},{"name":"Electric_Box_Door","primitives":[{"attributes":{"NORMAL":6,"POSITION":5,"TEXCOORD_0":7},"indices":4,"material":0,"mode":4}]},{"name":"Electric_Box_Handle","primitives":[{"attributes":{"NORMAL":10,"POSITION":9,"TEXCOORD_0":11},"indices":8,"material":0,"mode":4}]},{"name":"Electric_Box_LOD1","primitives":[{"attributes":{"NORMAL":14,"POSITION":13,"TEXCOORD_0":15},"indices":12,"material":0,"mode":4}]},{"name":"Electric_Box_LOD2","primitives":[{"attributes":{"NORMAL":18,"POSITION":17,"TEXCOORD_0":19},"indices":16,"material":0,"mode":4}]}],"nodes":[{"mesh":0,"name":"Electric_Box_LOD0","rotation":[0,0,0,1],"scale":[1,1,1],"translation":[0,0,0]},{"mesh":1,"name":"Electric_Box_Door","rotation":[0,0,0,1],"scale":[1,1,1],"translation":[-0.12871344387531,-0.20637638866901,-0.13440084457397]},{"mesh":2,"name":"Electric_Box_Handle","rotation":[0,0,0,1],"scale":[1,1,1],"translation":[-0.05566115677357,-0.00021928937349,0.133386135101318]},{"mesh":3,"name":"Electric_Box_LOD1","rotation":[0,0,0,1],"scale":[1,1,1],"translation":[0,0,0]},{"mesh":4,"name":"Electric_Box_LOD2","rotation":[0,0,0,1],"scale":[1,1,1],"translation":[0,0,0]}],"samplers":[{}],"scene":0,"scenes":[{"name":"Root Scene","nodes":[0,1,2,3,4]}],"textures":[{"name":"base_color_texture","sampler":0,"source":0}]}