{"accessors":[{"bufferView":0,"byteOffset":0,"componentType":5123,"count":690,"type":"SCALAR"},{"bufferView":1,"byteOffset":0,"componentType":5126,"count":212,"max":[0.00303033879026771,0.125506892800331,0.0805544853210449],"min":[-0.10287643969059,-0.12392593920231,-0.08055281639099],"type":"VEC3"},{"bufferView":2,"byteOffset":0,"componentType":5126,"count":212,"type":"VEC3"},{"bufferView":3,"byteOffset":0,"componentType":5126,"count":212,"type":"VEC2"},{"bufferView":4,"byteOffset":0,"componentType":5123,"count":186,"type":"SCALAR"},{"bufferView":5,"byteOffset":0,"componentType":5126,"count":82,"max":[0.00303033879026771,0.125506892800331,0.0764780044555664],"min":[-0.10287643969059,-0.12392593920231,-0.07647800445557],"type":"VEC3"},{"bufferView":6,"byteOffset":0,"componentType":5126,"count":82,"type":"VEC3"},{"bufferView":7,"byteOffset":0,"componentType":5126,"count":82,"type":"VEC2"}],"asset":{"generator":"FBX2glTF v0.13.1","version":"2.0"},"bufferViews":[{"buffer":0,"byteLength":1380,"byteOffset":0,"target":34963},{"buffer":0,"byteLength":2544,"byteOffset":1380,"target":34962},{"buffer":0,"byteLength":2544,"byteOffset":3924,"target":34962},{"buffer":0,"byteLength":1696,"byteOffset":6468,"target":34962},{"buffer":0,"byteLength":372,"byteOffset":8164,"target":34963},{"buffer":0,"byteLength":984,"byteOffset":8536,"target":34962},{"buffer":0,"byteLength":984,"byteOffset":9520,"target":34962},{"buffer":0,"byteLength":656,"byteOffset":10504,"target":34962}],"buffers":[{"byteLength":11160,"uri":"Electric_Box_02.bin"}],"images":[{"name":"Wires_A","uri":"Wires_A.tga"}],"materials":[{"alphaMode":"OPAQUE","doubleSided":false,"extras":{"fromFBX":{"isTruePBR":false,"shadingModel":"Phong"}},"name":"Wires","pbrMetallicRoughness":{"baseColorFactor":[1,1,1,1],"baseColorTexture":{"index":0,"texCoord":0},"metallicFactor":0.400000005960464,"roughnessFactor":0.272165536880493}}],"meshes":[{"name":"Electric_Box_02_LOD0","primitives":[{"attributes":{"NORMAL":2,"POSITION":1,"TEXCOORD_0":3},"indices":0,"material":0,"mode":4}]},{"name":"Electric_Box_02_LOD1","primitives":[{"attributes":{"NORMAL":6,"POSITION":5,"TEXCOORD_0":7},"indices":4,"material":0,"mode":4}]}],"nodes":[{"mesh":0,"name":"Electric_Box_02_LOD0","rotation":[0,0,0,1],"scale":[1,1,1],"translation":[0,0,0]},{"mesh":1,"name":"Electric_Box_02_LOD1","rotation":[0,0,0,1],"scale":[1,1,1],"translation":[0,0,0]}],"samplers":[{}],"scene":0,"scenes":[{"name":"Root Scene","nodes":[0,1]}],"textures":[{"name":"base_color_texture","sampler":0,"source":0}]}