{"accessors":[{"bufferView":0,"byteOffset":0,"componentType":5123,"count":786,"type":"SCALAR"},{"bufferView":1,"byteOffset":0,"componentType":5126,"count":266,"max":[-0.02952398918569,0.171726241707802,2.06195688247681],"min":[-0.10184669494629,0.0533123016357422,-2.0561203956604],"type":"VEC3"},{"bufferView":2,"byteOffset":0,"componentType":5126,"count":266,"type":"VEC3"},{"bufferView":3,"byteOffset":0,"componentType":5126,"count":266,"type":"VEC2"},{"bufferView":4,"byteOffset":0,"componentType":5123,"count":345,"type":"SCALAR"},{"bufferView":5,"byteOffset":0,"componentType":5126,"count":141,"max":[-0.02952398918569,0.171726241707802,2.06195688247681],"min":[-0.10067510604858,0.0533123016357422,-2.0561203956604],"type":"VEC3"},{"bufferView":6,"byteOffset":0,"componentType":5126,"count":141,"type":"VEC3"},{"bufferView":7,"byteOffset":0,"componentType":5126,"count":141,"type":"VEC2"}],"asset":{"generator":"FBX2glTF v0.13.1","version":"2.0"},"bufferViews":[{"buffer":0,"byteLength":1572,"byteOffset":0,"target":34963},{"buffer":0,"byteLength":3192,"byteOffset":1572,"target":34962},{"buffer":0,"byteLength":3192,"byteOffset":4764,"target":34962},{"buffer":0,"byteLength":2128,"byteOffset":7956,"target":34962},{"buffer":0,"byteLength":690,"byteOffset":10084,"target":34963},{"buffer":0,"byteLength":1692,"byteOffset":10776,"target":34962},{"buffer":0,"byteLength":1692,"byteOffset":12468,"target":34962},{"buffer":0,"byteLength":1128,"byteOffset":14160,"target":34962}],"buffers":[{"byteLength":15288,"uri":"Pipes_13.bin"}],"images":[{"name":"Pipes_A","uri":"Pipes_A.tga"}],"materials":[{"alphaMode":"OPAQUE","doubleSided":false,"extras":{"fromFBX":{"isTruePBR":false,"shadingModel":"Phong"}},"name":"Pipes","pbrMetallicRoughness":{"baseColorFactor":[1,1,1,1],"baseColorTexture":{"index":0,"texCoord":0},"metallicFactor":0.400000005960464,"roughnessFactor":0.272165536880493}}],"meshes":[{"name":"Pipes_13_LOD0","primitives":[{"attributes":{"NORMAL":2,"POSITION":1,"TEXCOORD_0":3},"indices":0,"material":0,"mode":4}]},{"name":"Pipes_13_LOD1","primitives":[{"attributes":{"NORMAL":6,"POSITION":5,"TEXCOORD_0":7},"indices":4,"material":0,"mode":4}]}],"nodes":[{"mesh":0,"name":"Pipes_13_LOD0","rotation":[0,0,0,1],"scale":[1,1,1],"translation":[0,0,0]},{"mesh":1,"name":"Pipes_13_LOD1","rotation":[0,0,0,1],"scale":[1,1,1],"translation":[0,0,0]}],"samplers":[{}],"scene":0,"scenes":[{"name":"Root Scene","nodes":[0,1]}],"textures":[{"name":"base_color_texture","sampler":0,"source":0}]}