{"accessors":[{"bufferView":0,"byteOffset":0,"componentType":5123,"count":2364,"type":"SCALAR"},{"bufferView":1,"byteOffset":0,"componentType":5126,"count":671,"max":[-0.02029570564628,0.0746216773986816,0.0702202320098877],"min":[-0.19588582217693,-0.07111430168152,-0.07551550865173],"type":"VEC3"},{"bufferView":2,"byteOffset":0,"componentType":5126,"count":671,"type":"VEC3"},{"bufferView":3,"byteOffset":0,"componentType":5126,"count":671,"type":"VEC2"},{"bufferView":4,"byteOffset":0,"componentType":5123,"count":1197,"type":"SCALAR"},{"bufferView":5,"byteOffset":0,"componentType":5126,"count":441,"max":[-0.01953455433249,0.0747982934117317,0.0697379559278488],"min":[-0.19619157910347,-0.07129091769457,-0.07569210231304],"type":"VEC3"},{"bufferView":6,"byteOffset":0,"componentType":5126,"count":441,"type":"VEC3"},{"bufferView":7,"byteOffset":0,"componentType":5126,"count":441,"type":"VEC2"},{"bufferView":8,"byteOffset":0,"componentType":5123,"count":531,"type":"SCALAR"},{"bufferView":9,"byteOffset":0,"componentType":5126,"count":231,"max":[-0.02187118679285,0.0747982934117317,0.0697379559278488],"min":[-0.19665870070458,-0.07063192874193,-0.07714222371578],"type":"VEC3"},{"bufferView":10,"byteOffset":0,"componentType":5126,"count":231,"type":"VEC3"},{"bufferView":11,"byteOffset":0,"componentType":5126,"count":231,"type":"VEC2"}],"asset":{"generator":"FBX2glTF v0.13.1","version":"2.0"},"bufferViews":[{"buffer":0,"byteLength":4728,"byteOffset":0,"target":34963},{"buffer":0,"byteLength":8052,"byteOffset":4728,"target":34962},{"buffer":0,"byteLength":8052,"byteOffset":12780,"target":34962},{"buffer":0,"byteLength":5368,"byteOffset":20832,"target":34962},{"buffer":0,"byteLength":2394,"byteOffset":26200,"target":34963},{"buffer":0,"byteLength":5292,"byteOffset":28596,"target":34962},{"buffer":0,"byteLength":5292,"byteOffset":33888,"target":34962},{"buffer":0,"byteLength":3528,"byteOffset":39180,"target":34962},{"buffer":0,"byteLength":1062,"byteOffset":42708,"target":34963},{"buffer":0,"byteLength":2772,"byteOffset":43772,"target":34962},{"buffer":0,"byteLength":2772,"byteOffset":46544,"target":34962},{"buffer":0,"byteLength":1848,"byteOffset":49316,"target":34962}],"buffers":[{"byteLength":51164,"uri":"Pipes_08.bin"}],"images":[{"name":"Pipes_A","uri":"Pipes_A.tga"}],"materials":[{"alphaMode":"OPAQUE","doubleSided":false,"extras":{"fromFBX":{"isTruePBR":false,"shadingModel":"Phong"}},"name":"Pipes","pbrMetallicRoughness":{"baseColorFactor":[1,1,1,1],"baseColorTexture":{"index":0,"texCoord":0},"metallicFactor":0.400000005960464,"roughnessFactor":0.272165536880493}}],"meshes":[{"name":"Pipes_08_LOD0","primitives":[{"attributes":{"NORMAL":2,"POSITION":1,"TEXCOORD_0":3},"indices":0,"material":0,"mode":4}]},{"name":"Pipes_08_LOD1","primitives":[{"attributes":{"NORMAL":6,"POSITION":5,"TEXCOORD_0":7},"indices":4,"material":0,"mode":4}]},{"name":"Pipes_08_LOD2","primitives":[{"attributes":{"NORMAL":10,"POSITION":9,"TEXCOORD_0":11},"indices":8,"material":0,"mode":4}]}],"nodes":[{"mesh":0,"name":"Pipes_08_LOD0","rotation":[0,0,0,1],"scale":[1,1,1],"translation":[0,0,0]},{"mesh":1,"name":"Pipes_08_LOD1","rotation":[0,0,0,1],"scale":[1,1,1],"translation":[0,0,0]},{"mesh":2,"name":"Pipes_08_LOD2","rotation":[0,0,0,1],"scale":[1,1,1],"translation":[0,0,0]}],"samplers":[{}],"scene":0,"scenes":[{"name":"Root Scene","nodes":[0,1,2]}],"textures":[{"name":"base_color_texture","sampler":0,"source":0}]}