{"accessors":[{"bufferView":0,"byteOffset":0,"componentType":5123,"count":2208,"type":"SCALAR"},{"bufferView":1,"byteOffset":0,"componentType":5126,"count":742,"max":[-0.05417803674936,2,0.0883245468139648],"min":[-0.23035815358162,0.000000038246305678058,-0.08907222747803],"type":"VEC3"},{"bufferView":2,"byteOffset":0,"componentType":5126,"count":742,"type":"VEC3"},{"bufferView":3,"byteOffset":0,"componentType":5126,"count":742,"type":"VEC2"},{"bufferView":4,"byteOffset":0,"componentType":5123,"count":1077,"type":"SCALAR"},{"bufferView":5,"byteOffset":0,"componentType":5126,"count":481,"max":[-0.0582106038928,2,0.0835332274436951],"min":[-0.2263256162405,0.000000038246305678058,-0.08428090810776],"type":"VEC3"},{"bufferView":6,"byteOffset":0,"componentType":5126,"count":481,"type":"VEC3"},{"bufferView":7,"byteOffset":0,"componentType":5126,"count":481,"type":"VEC2"},{"bufferView":8,"byteOffset":0,"componentType":5123,"count":354,"type":"SCALAR"},{"bufferView":9,"byteOffset":0,"componentType":5126,"count":132,"max":[-0.0582106038928,2,0.0835332274436951],"min":[-0.2263256162405,0.000000038246305678058,-0.08428090810776],"type":"VEC3"},{"bufferView":10,"byteOffset":0,"componentType":5126,"count":132,"type":"VEC3"},{"bufferView":11,"byteOffset":0,"componentType":5126,"count":132,"type":"VEC2"}],"asset":{"generator":"FBX2glTF v0.13.1","version":"2.0"},"bufferViews":[{"buffer":0,"byteLength":4416,"byteOffset":0,"target":34963},{"buffer":0,"byteLength":8904,"byteOffset":4416,"target":34962},{"buffer":0,"byteLength":8904,"byteOffset":13320,"target":34962},{"buffer":0,"byteLength":5936,"byteOffset":22224,"target":34962},{"buffer":0,"byteLength":2154,"byteOffset":28160,"target":34963},{"buffer":0,"byteLength":5772,"byteOffset":30316,"target":34962},{"buffer":0,"byteLength":5772,"byteOffset":36088,"target":34962},{"buffer":0,"byteLength":3848,"byteOffset":41860,"target":34962},{"buffer":0,"byteLength":708,"byteOffset":45708,"target":34963},{"buffer":0,"byteLength":1584,"byteOffset":46416,"target":34962},{"buffer":0,"byteLength":1584,"byteOffset":48000,"target":34962},{"buffer":0,"byteLength":1056,"byteOffset":49584,"target":34962}],"buffers":[{"byteLength":50640,"uri":"Pipes_02.bin"}],"images":[{"name":"Pipes_A","uri":"Pipes_A.tga"}],"materials":[{"alphaMode":"OPAQUE","doubleSided":false,"extras":{"fromFBX":{"isTruePBR":false,"shadingModel":"Phong"}},"name":"Pipes","pbrMetallicRoughness":{"baseColorFactor":[1,1,1,1],"baseColorTexture":{"index":0,"texCoord":0},"metallicFactor":0.400000005960464,"roughnessFactor":0.272165536880493}}],"meshes":[{"name":"Pipes_02_LOD0","primitives":[{"attributes":{"NORMAL":2,"POSITION":1,"TEXCOORD_0":3},"indices":0,"material":0,"mode":4}]},{"name":"Pipes_02_LOD1","primitives":[{"attributes":{"NORMAL":6,"POSITION":5,"TEXCOORD_0":7},"indices":4,"material":0,"mode":4}]},{"name":"Pipes_02_LOD2","primitives":[{"attributes":{"NORMAL":10,"POSITION":9,"TEXCOORD_0":11},"indices":8,"material":0,"mode":4}]}],"nodes":[{"mesh":0,"name":"Pipes_02_LOD0","rotation":[0,0,0,1],"scale":[1,1,1],"translation":[0,0,0]},{"mesh":1,"name":"Pipes_02_LOD1","rotation":[0,0,0,1],"scale":[1,1,1],"translation":[0,0,0]},{"mesh":2,"name":"Pipes_02_LOD2","rotation":[0,0,0,1],"scale":[1,1,1],"translation":[0,0,0]}],"samplers":[{}],"scene":0,"scenes":[{"name":"Root Scene","nodes":[0,1,2]}],"textures":[{"name":"base_color_texture","sampler":0,"source":0}]}