{"accessors":[{"bufferView":0,"byteOffset":0,"componentType":5123,"count":1368,"type":"SCALAR"},{"bufferView":1,"byteOffset":0,"componentType":5126,"count":339,"max":[0.00980019569396973,0.233347162604332,0.0746054649353027],"min":[-0.22033278644085,-0.00577831268311,-0.07524919509888],"type":"VEC3"},{"bufferView":2,"byteOffset":0,"componentType":5126,"count":339,"type":"VEC3"},{"bufferView":3,"byteOffset":0,"componentType":5126,"count":339,"type":"VEC2"},{"bufferView":4,"byteOffset":0,"componentType":5123,"count":528,"type":"SCALAR"},{"bufferView":5,"byteOffset":0,"componentType":5126,"count":160,"max":[0.00980019569396973,0.229917123913765,0.0711753889918327],"min":[-0.21690286695957,-0.00577831268311,-0.07181913405657],"type":"VEC3"},{"bufferView":6,"byteOffset":0,"componentType":5126,"count":160,"type":"VEC3"},{"bufferView":7,"byteOffset":0,"componentType":5126,"count":160,"type":"VEC2"},{"bufferView":8,"byteOffset":0,"componentType":5123,"count":276,"type":"SCALAR"},{"bufferView":9,"byteOffset":0,"componentType":5126,"count":93,"max":[0.0098101943731308,0.232459634542465,0.0728540122509003],"min":[-0.21848906576634,-0.00605366751552,-0.07186715304852],"type":"VEC3"},{"bufferView":10,"byteOffset":0,"componentType":5126,"count":93,"type":"VEC3"},{"bufferView":11,"byteOffset":0,"componentType":5126,"count":93,"type":"VEC2"}],"asset":{"generator":"FBX2glTF v0.13.1","version":"2.0"},"bufferViews":[{"buffer":0,"byteLength":2736,"byteOffset":0,"target":34963},{"buffer":0,"byteLength":4068,"byteOffset":2736,"target":34962},{"buffer":0,"byteLength":4068,"byteOffset":6804,"target":34962},{"buffer":0,"byteLength":2712,"byteOffset":10872,"target":34962},{"buffer":0,"byteLength":1056,"byteOffset":13584,"target":34963},{"buffer":0,"byteLength":1920,"byteOffset":14640,"target":34962},{"buffer":0,"byteLength":1920,"byteOffset":16560,"target":34962},{"buffer":0,"byteLength":1280,"byteOffset":18480,"target":34962},{"buffer":0,"byteLength":552,"byteOffset":19760,"target":34963},{"buffer":0,"byteLength":1116,"byteOffset":20312,"target":34962},{"buffer":0,"byteLength":1116,"byteOffset":21428,"target":34962},{"buffer":0,"byteLength":744,"byteOffset":22544,"target":34962}],"buffers":[{"byteLength":23288,"uri":"Pipes_05.bin"}],"images":[{"name":"Pipes_A","uri":"Pipes_A.tga"}],"materials":[{"alphaMode":"OPAQUE","doubleSided":false,"extras":{"fromFBX":{"isTruePBR":false,"shadingModel":"Phong"}},"name":"Pipes","pbrMetallicRoughness":{"baseColorFactor":[1,1,1,1],"baseColorTexture":{"index":0,"texCoord":0},"metallicFactor":0.400000005960464,"roughnessFactor":0.272165536880493}}],"meshes":[{"name":"Pipes_05_LOD0","primitives":[{"attributes":{"NORMAL":2,"POSITION":1,"TEXCOORD_0":3},"indices":0,"material":0,"mode":4}]},{"name":"Pipes_05_LOD1","primitives":[{"attributes":{"NORMAL":6,"POSITION":5,"TEXCOORD_0":7},"indices":4,"material":0,"mode":4}]},{"name":"Pipes_05_LOD2","primitives":[{"attributes":{"NORMAL":10,"POSITION":9,"TEXCOORD_0":11},"indices":8,"material":0,"mode":4}]}],"nodes":[{"mesh":0,"name":"Pipes_05_LOD0","rotation":[0,0,0,1],"scale":[1,1,1],"translation":[0,0,0]},{"mesh":1,"name":"Pipes_05_LOD1","rotation":[0,0,0,1],"scale":[1,1,1],"translation":[0,0,0]},{"mesh":2,"name":"Pipes_05_LOD2","rotation":[0,0,0,1],"scale":[1,1,1],"translation":[0,0,0]}],"samplers":[{}],"scene":0,"scenes":[{"name":"Root Scene","nodes":[0,1,2]}],"textures":[{"name":"base_color_texture","sampler":0,"source":0}]}