{"accessors":[{"bufferView":0,"byteOffset":0,"componentType":5123,"count":72,"type":"SCALAR"},{"bufferView":1,"byteOffset":0,"componentType":5126,"count":26,"max":[-0.0350087992847,1.99999976158142,0.0345823541283607],"min":[-0.10396417230368,0,-0.03437307104468],"type":"VEC3"},{"bufferView":2,"byteOffset":0,"componentType":5126,"count":26,"type":"VEC3"},{"bufferView":3,"byteOffset":0,"componentType":5126,"count":26,"type":"VEC2"}],"asset":{"generator":"FBX2glTF v0.13.1","version":"2.0"},"bufferViews":[{"buffer":0,"byteLength":144,"byteOffset":0,"target":34963},{"buffer":0,"byteLength":312,"byteOffset":144,"target":34962},{"buffer":0,"byteLength":312,"byteOffset":456,"target":34962},{"buffer":0,"byteLength":208,"byteOffset":768,"target":34962}],"buffers":[{"byteLength":976,"uri":"Pipes_07.bin"}],"images":[{"name":"Pipes_A","uri":"Pipes_A.tga"}],"materials":[{"alphaMode":"OPAQUE","doubleSided":false,"extras":{"fromFBX":{"isTruePBR":false,"shadingModel":"Phong"}},"name":"Pipes","pbrMetallicRoughness":{"baseColorFactor":[1,1,1,1],"baseColorTexture":{"index":0,"texCoord":0},"metallicFactor":0.400000005960464,"roughnessFactor":0.272165536880493}}],"meshes":[{"name":"Pipes_07","primitives":[{"attributes":{"NORMAL":2,"POSITION":1,"TEXCOORD_0":3},"indices":0,"material":0,"mode":4}]}],"nodes":[{"mesh":0,"name":"Pipes_07","rotation":[0,0,0,1],"scale":[1,1,1],"translation":[0,0,0]}],"samplers":[{}],"scene":0,"scenes":[{"name":"Root Scene","nodes":[0]}],"textures":[{"name":"base_color_texture","sampler":0,"source":0}]}