{"accessors":[{"bufferView":0,"byteOffset":0,"componentType":5123,"count":2526,"type":"SCALAR"},{"bufferView":1,"byteOffset":0,"componentType":5126,"count":832,"max":[-0.05417803674936,2,0.0910253524780273],"min":[-0.23747409880161,-0.00203423574567,-0.0918173789978],"type":"VEC3"},{"bufferView":2,"byteOffset":0,"componentType":5126,"count":832,"type":"VEC3"},{"bufferView":3,"byteOffset":0,"componentType":5126,"count":832,"type":"VEC2"},{"bufferView":4,"byteOffset":0,"componentType":5123,"count":1461,"type":"SCALAR"},{"bufferView":5,"byteOffset":0,"componentType":5126,"count":619,"max":[-0.05463153123856,2,0.0910253524780273],"min":[-0.23747409880161,-0.00203423574567,-0.0918173789978],"type":"VEC3"},{"bufferView":6,"byteOffset":0,"componentType":5126,"count":619,"type":"VEC3"},{"bufferView":7,"byteOffset":0,"componentType":5126,"count":619,"type":"VEC2"},{"bufferView":8,"byteOffset":0,"componentType":5123,"count":387,"type":"SCALAR"},{"bufferView":9,"byteOffset":0,"componentType":5126,"count":151,"max":[-0.05463153123856,2,0.0910253524780273],"min":[-0.23785300552845,-0.00203423574567,-0.0918173789978],"type":"VEC3"},{"bufferView":10,"byteOffset":0,"componentType":5126,"count":151,"type":"VEC3"},{"bufferView":11,"byteOffset":0,"componentType":5126,"count":151,"type":"VEC2"}],"asset":{"generator":"FBX2glTF v0.13.1","version":"2.0"},"bufferViews":[{"buffer":0,"byteLength":5052,"byteOffset":0,"target":34963},{"buffer":0,"byteLength":9984,"byteOffset":5052,"target":34962},{"buffer":0,"byteLength":9984,"byteOffset":15036,"target":34962},{"buffer":0,"byteLength":6656,"byteOffset":25020,"target":34962},{"buffer":0,"byteLength":2922,"byteOffset":31676,"target":34963},{"buffer":0,"byteLength":7428,"byteOffset":34600,"target":34962},{"buffer":0,"byteLength":7428,"byteOffset":42028,"target":34962},{"buffer":0,"byteLength":4952,"byteOffset":49456,"target":34962},{"buffer":0,"byteLength":774,"byteOffset":54408,"target":34963},{"buffer":0,"byteLength":1812,"byteOffset":55184,"target":34962},{"buffer":0,"byteLength":1812,"byteOffset":56996,"target":34962},{"buffer":0,"byteLength":1208,"byteOffset":58808,"target":34962}],"buffers":[{"byteLength":60016,"uri":"Pipes_01.bin"}],"images":[{"name":"Pipes_A","uri":"Pipes_A.tga"}],"materials":[{"alphaMode":"OPAQUE","doubleSided":false,"extras":{"fromFBX":{"isTruePBR":false,"shadingModel":"Phong"}},"name":"Pipes","pbrMetallicRoughness":{"baseColorFactor":[1,1,1,1],"baseColorTexture":{"index":0,"texCoord":0},"metallicFactor":0.400000005960464,"roughnessFactor":0.272165536880493}}],"meshes":[{"name":"Pipes_01_LOD0","primitives":[{"attributes":{"NORMAL":2,"POSITION":1,"TEXCOORD_0":3},"indices":0,"material":0,"mode":4}]},{"name":"Pipes_01_LOD1","primitives":[{"attributes":{"NORMAL":6,"POSITION":5,"TEXCOORD_0":7},"indices":4,"material":0,"mode":4}]},{"name":"Pipes_01_LOD2","primitives":[{"attributes":{"NORMAL":10,"POSITION":9,"TEXCOORD_0":11},"indices":8,"material":0,"mode":4}]}],"nodes":[{"mesh":0,"name":"Pipes_01_LOD0","rotation":[0,0,0,1],"scale":[1,1,1],"translation":[0,0,0]},{"mesh":1,"name":"Pipes_01_LOD1","rotation":[0,0,0,1],"scale":[1,1,1],"translation":[0,0,0]},{"mesh":2,"name":"Pipes_01_LOD2","rotation":[0,0,0,1],"scale":[1,1,1],"translation":[0,0,0]}],"samplers":[{}],"scene":0,"scenes":[{"name":"Root Scene","nodes":[0,1,2]}],"textures":[{"name":"base_color_texture","sampler":0,"source":0}]}