{"accessors":[{"bufferView":0,"byteOffset":0,"componentType":5123,"count":450,"type":"SCALAR"},{"bufferView":1,"byteOffset":0,"componentType":5126,"count":140,"max":[-0.01217031478882,3.05604577064514,0.056753396987915],"min":[-0.11640775203705,-0.00434859842062,-0.04862427711487],"type":"VEC3"},{"bufferView":2,"byteOffset":0,"componentType":5126,"count":140,"type":"VEC3"},{"bufferView":3,"byteOffset":0,"componentType":5126,"count":140,"type":"VEC2"},{"bufferView":4,"byteOffset":0,"componentType":5123,"count":225,"type":"SCALAR"},{"bufferView":5,"byteOffset":0,"componentType":5126,"count":83,"max":[-0.01217031478882,3.05604600906372,0.0556137561798096],"min":[-0.11646227538586,-0.00439006835222,-0.04766739159822],"type":"VEC3"},{"bufferView":6,"byteOffset":0,"componentType":5126,"count":83,"type":"VEC3"},{"bufferView":7,"byteOffset":0,"componentType":5126,"count":83,"type":"VEC2"}],"asset":{"generator":"FBX2glTF v0.13.1","version":"2.0"},"bufferViews":[{"buffer":0,"byteLength":900,"byteOffset":0,"target":34963},{"buffer":0,"byteLength":1680,"byteOffset":900,"target":34962},{"buffer":0,"byteLength":1680,"byteOffset":2580,"target":34962},{"buffer":0,"byteLength":1120,"byteOffset":4260,"target":34962},{"buffer":0,"byteLength":450,"byteOffset":5380,"target":34963},{"buffer":0,"byteLength":996,"byteOffset":5832,"target":34962},{"buffer":0,"byteLength":996,"byteOffset":6828,"target":34962},{"buffer":0,"byteLength":664,"byteOffset":7824,"target":34962}],"buffers":[{"byteLength":8488,"uri":"Pipes_11.bin"}],"images":[{"name":"Pipes_A","uri":"Pipes_A.tga"}],"materials":[{"alphaMode":"OPAQUE","doubleSided":false,"extras":{"fromFBX":{"isTruePBR":false,"shadingModel":"Phong"}},"name":"Pipes","pbrMetallicRoughness":{"baseColorFactor":[1,1,1,1],"baseColorTexture":{"index":0,"texCoord":0},"metallicFactor":0.400000005960464,"roughnessFactor":0.272165536880493}}],"meshes":[{"name":"Pipes_11_LOD0","primitives":[{"attributes":{"NORMAL":2,"POSITION":1,"TEXCOORD_0":3},"indices":0,"material":0,"mode":4}]},{"name":"Pipes_11_LOD1","primitives":[{"attributes":{"NORMAL":6,"POSITION":5,"TEXCOORD_0":7},"indices":4,"material":0,"mode":4}]}],"nodes":[{"mesh":0,"name":"Pipes_11_LOD0","rotation":[0,0,0,1],"scale":[1,1,1],"translation":[0,0,0]},{"mesh":1,"name":"Pipes_11_LOD1","rotation":[0,0,0,1],"scale":[1,1,1],"translation":[0,0,0]}],"samplers":[{}],"scene":0,"scenes":[{"name":"Root Scene","nodes":[0,1]}],"textures":[{"name":"base_color_texture","sampler":0,"source":0}]}