{"accessors":[{"bufferView":0,"byteOffset":0,"componentType":5123,"count":636,"type":"SCALAR"},{"bufferView":1,"byteOffset":0,"componentType":5126,"count":154,"max":[0.00639617443084717,0.167277097702026,2.10305571556091],"min":[-0.10204267501831,0.0959644317626953,0.000000119209289550781],"type":"VEC3"},{"bufferView":2,"byteOffset":0,"componentType":5126,"count":154,"type":"VEC3"},{"bufferView":3,"byteOffset":0,"componentType":5126,"count":154,"type":"VEC2"},{"bufferView":4,"byteOffset":0,"componentType":5123,"count":321,"type":"SCALAR"},{"bufferView":5,"byteOffset":0,"componentType":5126,"count":85,"max":[0.00639617443084717,0.167405471205711,2.10305571556091],"min":[-0.10123506188393,0.0958165898919106,0.000000118633586509986],"type":"VEC3"},{"bufferView":6,"byteOffset":0,"componentType":5126,"count":85,"type":"VEC3"},{"bufferView":7,"byteOffset":0,"componentType":5126,"count":85,"type":"VEC2"}],"asset":{"generator":"FBX2glTF v0.13.1","version":"2.0"},"bufferViews":[{"buffer":0,"byteLength":1272,"byteOffset":0,"target":34963},{"buffer":0,"byteLength":1848,"byteOffset":1272,"target":34962},{"buffer":0,"byteLength":1848,"byteOffset":3120,"target":34962},{"buffer":0,"byteLength":1232,"byteOffset":4968,"target":34962},{"buffer":0,"byteLength":642,"byteOffset":6200,"target":34963},{"buffer":0,"byteLength":1020,"byteOffset":6844,"target":34962},{"buffer":0,"byteLength":1020,"byteOffset":7864,"target":34962},{"buffer":0,"byteLength":680,"byteOffset":8884,"target":34962}],"buffers":[{"byteLength":9564,"uri":"Pipes_15.bin"}],"images":[{"name":"Pipes_A","uri":"Pipes_A.tga"}],"materials":[{"alphaMode":"OPAQUE","doubleSided":false,"extras":{"fromFBX":{"isTruePBR":false,"shadingModel":"Phong"}},"name":"Pipes","pbrMetallicRoughness":{"baseColorFactor":[1,1,1,1],"baseColorTexture":{"index":0,"texCoord":0},"metallicFactor":0.400000005960464,"roughnessFactor":0.272165536880493}}],"meshes":[{"name":"Pipes_15_LOD0","primitives":[{"attributes":{"NORMAL":2,"POSITION":1,"TEXCOORD_0":3},"indices":0,"material":0,"mode":4}]},{"name":"Pipes_15_LOD1","primitives":[{"attributes":{"NORMAL":6,"POSITION":5,"TEXCOORD_0":7},"indices":4,"material":0,"mode":4}]}],"nodes":[{"mesh":0,"name":"Pipes_15_LOD0","rotation":[0,0,0,1],"scale":[1,1,1],"translation":[0,0,0]},{"mesh":1,"name":"Pipes_15_LOD1","rotation":[0,0,0,1],"scale":[1,1,1],"translation":[0,0,0]}],"samplers":[{}],"scene":0,"scenes":[{"name":"Root Scene","nodes":[0,1]}],"textures":[{"name":"base_color_texture","sampler":0,"source":0}]}