{"accessors":[{"bufferView":0,"byteOffset":0,"componentType":5123,"count":2826,"type":"SCALAR"},{"bufferView":1,"byteOffset":0,"componentType":5126,"count":777,"max":[-0.0709153264761,0.0852415561676025,0.101932525634766],"min":[-0.34346342086792,-0.1193927526474,-0.10270309448242],"type":"VEC3"},{"bufferView":2,"byteOffset":0,"componentType":5126,"count":777,"type":"VEC3"},{"bufferView":3,"byteOffset":0,"componentType":5126,"count":777,"type":"VEC2"},{"bufferView":4,"byteOffset":0,"componentType":5123,"count":1692,"type":"SCALAR"},{"bufferView":5,"byteOffset":0,"componentType":5126,"count":570,"max":[-0.0718522593379,0.0854244604706764,0.101932525634766],"min":[-0.34367769956589,-0.11957564204931,-0.10270309448242],"type":"VEC3"},{"bufferView":6,"byteOffset":0,"componentType":5126,"count":570,"type":"VEC3"},{"bufferView":7,"byteOffset":0,"componentType":5126,"count":570,"type":"VEC2"},{"bufferView":8,"byteOffset":0,"componentType":5123,"count":696,"type":"SCALAR"},{"bufferView":9,"byteOffset":0,"componentType":5126,"count":303,"max":[-0.0717920511961,0.0854244604706764,0.102279797196388],"min":[-0.34405326843262,-0.12131170928478,-0.10300198197365],"type":"VEC3"},{"bufferView":10,"byteOffset":0,"componentType":5126,"count":303,"type":"VEC3"},{"bufferView":11,"byteOffset":0,"componentType":5126,"count":303,"type":"VEC2"}],"asset":{"generator":"FBX2glTF v0.13.1","version":"2.0"},"bufferViews":[{"buffer":0,"byteLength":5652,"byteOffset":0,"target":34963},{"buffer":0,"byteLength":9324,"byteOffset":5652,"target":34962},{"buffer":0,"byteLength":9324,"byteOffset":14976,"target":34962},{"buffer":0,"byteLength":6216,"byteOffset":24300,"target":34962},{"buffer":0,"byteLength":3384,"byteOffset":30516,"target":34963},{"buffer":0,"byteLength":6840,"byteOffset":33900,"target":34962},{"buffer":0,"byteLength":6840,"byteOffset":40740,"target":34962},{"buffer":0,"byteLength":4560,"byteOffset":47580,"target":34962},{"buffer":0,"byteLength":1392,"byteOffset":52140,"target":34963},{"buffer":0,"byteLength":3636,"byteOffset":53532,"target":34962},{"buffer":0,"byteLength":3636,"byteOffset":57168,"target":34962},{"buffer":0,"byteLength":2424,"byteOffset":60804,"target":34962}],"buffers":[{"byteLength":63228,"uri":"Pipes_03.bin"}],"images":[{"name":"Pipes_A","uri":"Pipes_A.tga"}],"materials":[{"alphaMode":"OPAQUE","doubleSided":false,"extras":{"fromFBX":{"isTruePBR":false,"shadingModel":"Phong"}},"name":"Pipes","pbrMetallicRoughness":{"baseColorFactor":[1,1,1,1],"baseColorTexture":{"index":0,"texCoord":0},"metallicFactor":0.400000005960464,"roughnessFactor":0.272165536880493}}],"meshes":[{"name":"Pipes_03_LOD0","primitives":[{"attributes":{"NORMAL":2,"POSITION":1,"TEXCOORD_0":3},"indices":0,"material":0,"mode":4}]},{"name":"Pipes_03_LOD1","primitives":[{"attributes":{"NORMAL":6,"POSITION":5,"TEXCOORD_0":7},"indices":4,"material":0,"mode":4}]},{"name":"Pipes_03_LOD2","primitives":[{"attributes":{"NORMAL":10,"POSITION":9,"TEXCOORD_0":11},"indices":8,"material":0,"mode":4}]}],"nodes":[{"mesh":0,"name":"Pipes_03_LOD0","rotation":[0,0,0,1],"scale":[1,1,1],"translation":[0,0,0]},{"mesh":1,"name":"Pipes_03_LOD1","rotation":[0,0,0,1],"scale":[1,1,1],"translation":[0,0,0]},{"mesh":2,"name":"Pipes_03_LOD2","rotation":[0,0,0,1],"scale":[1,1,1],"translation":[0,0,0]}],"samplers":[{}],"scene":0,"scenes":[{"name":"Root Scene","nodes":[0,1,2]}],"textures":[{"name":"base_color_texture","sampler":0,"source":0}]}