{"accessors":[{"bufferView":0,"byteOffset":0,"componentType":5123,"count":4158,"type":"SCALAR"},{"bufferView":1,"byteOffset":0,"componentType":5126,"count":1373,"max":[0.0036744624376297,0.153921365737915,0.0533981882035732],"min":[-0.17506970465183,-0.01128149032593,-0.05442800745368],"type":"VEC3"},{"bufferView":2,"byteOffset":0,"componentType":5126,"count":1373,"type":"VEC3"},{"bufferView":3,"byteOffset":0,"componentType":5126,"count":1373,"type":"VEC2"},{"bufferView":4,"byteOffset":0,"componentType":5123,"count":2148,"type":"SCALAR"},{"bufferView":5,"byteOffset":0,"componentType":5126,"count":983,"max":[0.0036744624376297,0.153381034731865,0.0528578124940395],"min":[-0.17452937364578,-0.011305635795,-0.05388762801886],"type":"VEC3"},{"bufferView":6,"byteOffset":0,"componentType":5126,"count":983,"type":"VEC3"},{"bufferView":7,"byteOffset":0,"componentType":5126,"count":983,"type":"VEC2"},{"bufferView":8,"byteOffset":0,"componentType":5123,"count":462,"type":"SCALAR"},{"bufferView":9,"byteOffset":0,"componentType":5126,"count":160,"max":[0.00367768690921366,0.153180405497551,0.0528024882078171],"min":[-0.17432035505772,-0.00678677950054,-0.0538324713707],"type":"VEC3"},{"bufferView":10,"byteOffset":0,"componentType":5126,"count":160,"type":"VEC3"},{"bufferView":11,"byteOffset":0,"componentType":5126,"count":160,"type":"VEC2"}],"asset":{"generator":"FBX2glTF v0.13.1","version":"2.0"},"bufferViews":[{"buffer":0,"byteLength":8316,"byteOffset":0,"target":34963},{"buffer":0,"byteLength":16476,"byteOffset":8316,"target":34962},{"buffer":0,"byteLength":16476,"byteOffset":24792,"target":34962},{"buffer":0,"byteLength":10984,"byteOffset":41268,"target":34962},{"buffer":0,"byteLength":4296,"byteOffset":52252,"target":34963},{"buffer":0,"byteLength":11796,"byteOffset":56548,"target":34962},{"buffer":0,"byteLength":11796,"byteOffset":68344,"target":34962},{"buffer":0,"byteLength":7864,"byteOffset":80140,"target":34962},{"buffer":0,"byteLength":924,"byteOffset":88004,"target":34963},{"buffer":0,"byteLength":1920,"byteOffset":88928,"target":34962},{"buffer":0,"byteLength":1920,"byteOffset":90848,"target":34962},{"buffer":0,"byteLength":1280,"byteOffset":92768,"target":34962}],"buffers":[{"byteLength":94048,"uri":"Pipes_10.bin"}],"images":[{"name":"Pipes_A","uri":"Pipes_A.tga"}],"materials":[{"alphaMode":"OPAQUE","doubleSided":false,"extras":{"fromFBX":{"isTruePBR":false,"shadingModel":"Phong"}},"name":"Pipes","pbrMetallicRoughness":{"baseColorFactor":[1,1,1,1],"baseColorTexture":{"index":0,"texCoord":0},"metallicFactor":0.400000005960464,"roughnessFactor":0.272165536880493}}],"meshes":[{"name":"Pipes_10_LOD0","primitives":[{"attributes":{"NORMAL":2,"POSITION":1,"TEXCOORD_0":3},"indices":0,"material":0,"mode":4}]},{"name":"Pipes_10_LOD1","primitives":[{"attributes":{"NORMAL":6,"POSITION":5,"TEXCOORD_0":7},"indices":4,"material":0,"mode":4}]},{"name":"Pipes_10_LOD2","primitives":[{"attributes":{"NORMAL":10,"POSITION":9,"TEXCOORD_0":11},"indices":8,"material":0,"mode":4}]}],"nodes":[{"mesh":0,"name":"Pipes_10_LOD0","rotation":[0,0,0,1],"scale":[1,1,1],"translation":[0,0,0]},{"mesh":1,"name":"Pipes_10_LOD1","rotation":[0,0,0,1],"scale":[1,1,1],"translation":[0,0,0]},{"mesh":2,"name":"Pipes_10_LOD2","rotation":[0,0,0,1],"scale":[1,1,1],"translation":[0,0,0]}],"samplers":[{}],"scene":0,"scenes":[{"name":"Root Scene","nodes":[0,1,2]}],"textures":[{"name":"base_color_texture","sampler":0,"source":0}]}