{"accessors":[{"bufferView":0,"byteOffset":0,"componentType":5123,"count":2604,"type":"SCALAR"},{"bufferView":1,"byteOffset":0,"componentType":5126,"count":898,"max":[-0.06403665989637,1.99999952316284,0.0533981882035732],"min":[-0.17178742587566,-0.00000000745058,-0.05442800745368],"type":"VEC3"},{"bufferView":2,"byteOffset":0,"componentType":5126,"count":898,"type":"VEC3"},{"bufferView":3,"byteOffset":0,"componentType":5126,"count":898,"type":"VEC2"},{"bufferView":4,"byteOffset":0,"componentType":5123,"count":1284,"type":"SCALAR"},{"bufferView":5,"byteOffset":0,"componentType":5126,"count":678,"max":[-0.06661838293076,1.99999952316284,0.0508161149919033],"min":[-0.1693294942379,-0.00000000745058,-0.05184593424201],"type":"VEC3"},{"bufferView":6,"byteOffset":0,"componentType":5126,"count":678,"type":"VEC3"},{"bufferView":7,"byteOffset":0,"componentType":5126,"count":678,"type":"VEC2"},{"bufferView":8,"byteOffset":0,"componentType":5123,"count":246,"type":"SCALAR"},{"bufferView":9,"byteOffset":0,"componentType":5126,"count":96,"max":[-0.06506478786469,1.99999952316284,0.0509400255978107],"min":[-0.17000548541546,-0.00000000748873,-0.05196984112263],"type":"VEC3"},{"bufferView":10,"byteOffset":0,"componentType":5126,"count":96,"type":"VEC3"},{"bufferView":11,"byteOffset":0,"componentType":5126,"count":96,"type":"VEC2"}],"asset":{"generator":"FBX2glTF v0.13.1","version":"2.0"},"bufferViews":[{"buffer":0,"byteLength":5208,"byteOffset":0,"target":34963},{"buffer":0,"byteLength":10776,"byteOffset":5208,"target":34962},{"buffer":0,"byteLength":10776,"byteOffset":15984,"target":34962},{"buffer":0,"byteLength":7184,"byteOffset":26760,"target":34962},{"buffer":0,"byteLength":2568,"byteOffset":33944,"target":34963},{"buffer":0,"byteLength":8136,"byteOffset":36512,"target":34962},{"buffer":0,"byteLength":8136,"byteOffset":44648,"target":34962},{"buffer":0,"byteLength":5424,"byteOffset":52784,"target":34962},{"buffer":0,"byteLength":492,"byteOffset":58208,"target":34963},{"buffer":0,"byteLength":1152,"byteOffset":58700,"target":34962},{"buffer":0,"byteLength":1152,"byteOffset":59852,"target":34962},{"buffer":0,"byteLength":768,"byteOffset":61004,"target":34962}],"buffers":[{"byteLength":61772,"uri":"Pipes_09.bin"}],"images":[{"name":"Pipes_A","uri":"Pipes_A.tga"}],"materials":[{"alphaMode":"OPAQUE","doubleSided":false,"extras":{"fromFBX":{"isTruePBR":false,"shadingModel":"Phong"}},"name":"Pipes","pbrMetallicRoughness":{"baseColorFactor":[1,1,1,1],"baseColorTexture":{"index":0,"texCoord":0},"metallicFactor":0.400000005960464,"roughnessFactor":0.272165536880493}}],"meshes":[{"name":"Pipes_09_LOD0","primitives":[{"attributes":{"NORMAL":2,"POSITION":1,"TEXCOORD_0":3},"indices":0,"material":0,"mode":4}]},{"name":"Pipes_09_LOD1","primitives":[{"attributes":{"NORMAL":6,"POSITION":5,"TEXCOORD_0":7},"indices":4,"material":0,"mode":4}]},{"name":"Pipes_09_LOD2","primitives":[{"attributes":{"NORMAL":10,"POSITION":9,"TEXCOORD_0":11},"indices":8,"material":0,"mode":4}]}],"nodes":[{"mesh":0,"name":"Pipes_09_LOD0","rotation":[0,0,0,1],"scale":[1,1,1],"translation":[0,0,0]},{"mesh":1,"name":"Pipes_09_LOD1","rotation":[0,0,0,1],"scale":[1,1,1],"translation":[0,0,0]},{"mesh":2,"name":"Pipes_09_LOD2","rotation":[0,0,0,1],"scale":[1,1,1],"translation":[0,0,0]}],"samplers":[{}],"scene":0,"scenes":[{"name":"Root Scene","nodes":[0,1,2]}],"textures":[{"name":"base_color_texture","sampler":0,"source":0}]}