{"accessors":[{"bufferView":0,"byteOffset":0,"componentType":5123,"count":954,"type":"SCALAR"},{"bufferView":1,"byteOffset":0,"componentType":5126,"count":270,"max":[-0.02029570564628,1.99999976158142,0.0497333742678165],"min":[-0.12038185447454,0,-0.05035400390625],"type":"VEC3"},{"bufferView":2,"byteOffset":0,"componentType":5126,"count":270,"type":"VEC3"},{"bufferView":3,"byteOffset":0,"componentType":5126,"count":270,"type":"VEC2"},{"bufferView":4,"byteOffset":0,"componentType":5123,"count":234,"type":"SCALAR"},{"bufferView":5,"byteOffset":0,"componentType":5126,"count":90,"max":[-0.02029570564628,1.99999976158142,0.0497333742678165],"min":[-0.12038185447454,0,-0.0503537915647],"type":"VEC3"},{"bufferView":6,"byteOffset":0,"componentType":5126,"count":90,"type":"VEC3"},{"bufferView":7,"byteOffset":0,"componentType":5126,"count":90,"type":"VEC2"}],"asset":{"generator":"FBX2glTF v0.13.1","version":"2.0"},"bufferViews":[{"buffer":0,"byteLength":1908,"byteOffset":0,"target":34963},{"buffer":0,"byteLength":3240,"byteOffset":1908,"target":34962},{"buffer":0,"byteLength":3240,"byteOffset":5148,"target":34962},{"buffer":0,"byteLength":2160,"byteOffset":8388,"target":34962},{"buffer":0,"byteLength":468,"byteOffset":10548,"target":34963},{"buffer":0,"byteLength":1080,"byteOffset":11016,"target":34962},{"buffer":0,"byteLength":1080,"byteOffset":12096,"target":34962},{"buffer":0,"byteLength":720,"byteOffset":13176,"target":34962}],"buffers":[{"byteLength":13896,"uri":"Pipes_06.bin"}],"images":[{"name":"Pipes_A","uri":"Pipes_A.tga"}],"materials":[{"alphaMode":"OPAQUE","doubleSided":false,"extras":{"fromFBX":{"isTruePBR":false,"shadingModel":"Phong"}},"name":"Pipes","pbrMetallicRoughness":{"baseColorFactor":[1,1,1,1],"baseColorTexture":{"index":0,"texCoord":0},"metallicFactor":0.400000005960464,"roughnessFactor":0.272165536880493}}],"meshes":[{"name":"Pipes_06_LOD0","primitives":[{"attributes":{"NORMAL":2,"POSITION":1,"TEXCOORD_0":3},"indices":0,"material":0,"mode":4}]},{"name":"Pipes_06_LOD1","primitives":[{"attributes":{"NORMAL":6,"POSITION":5,"TEXCOORD_0":7},"indices":4,"material":0,"mode":4}]}],"nodes":[{"mesh":0,"name":"Pipes_06_LOD0","rotation":[0,0,0,1],"scale":[1,1,1],"translation":[0,0,0]},{"mesh":1,"name":"Pipes_06_LOD1","rotation":[0,0,0,1],"scale":[1,1,1],"translation":[0,0,0]}],"samplers":[{}],"scene":0,"scenes":[{"name":"Root Scene","nodes":[0,1]}],"textures":[{"name":"base_color_texture","sampler":0,"source":0}]}