{"accessors":[{"bufferView":0,"byteOffset":0,"componentType":5123,"count":594,"type":"SCALAR"},{"bufferView":1,"byteOffset":0,"componentType":5126,"count":198,"max":[0.00723850727081299,1,0.0499119758605957],"min":[-0.03283035755157,-0.06490903347731,-0.04937148094177],"type":"VEC3"},{"bufferView":2,"byteOffset":0,"componentType":5126,"count":198,"type":"VEC3"},{"bufferView":3,"byteOffset":0,"componentType":5126,"count":198,"type":"VEC2"},{"bufferView":4,"byteOffset":0,"componentType":5123,"count":258,"type":"SCALAR"},{"bufferView":5,"byteOffset":0,"componentType":5126,"count":96,"max":[0.00721815507858992,1,0.0493931174278259],"min":[-0.03285618126392,-0.06437382847071,-0.04830016940832],"type":"VEC3"},{"bufferView":6,"byteOffset":0,"componentType":5126,"count":96,"type":"VEC3"},{"bufferView":7,"byteOffset":0,"componentType":5126,"count":96,"type":"VEC2"}],"asset":{"generator":"FBX2glTF v0.13.1","version":"2.0"},"bufferViews":[{"buffer":0,"byteLength":1188,"byteOffset":0,"target":34963},{"buffer":0,"byteLength":2376,"byteOffset":1188,"target":34962},{"buffer":0,"byteLength":2376,"byteOffset":3564,"target":34962},{"buffer":0,"byteLength":1584,"byteOffset":5940,"target":34962},{"buffer":0,"byteLength":516,"byteOffset":7524,"target":34963},{"buffer":0,"byteLength":1152,"byteOffset":8040,"target":34962},{"buffer":0,"byteLength":1152,"byteOffset":9192,"target":34962},{"buffer":0,"byteLength":768,"byteOffset":10344,"target":34962}],"buffers":[{"byteLength":11112,"uri":"Wires_05.bin"}],"images":[{"name":"Wires_A","uri":"Wires_A.tga"}],"materials":[{"alphaMode":"OPAQUE","doubleSided":false,"extras":{"fromFBX":{"isTruePBR":false,"shadingModel":"Phong"}},"name":"Wires","pbrMetallicRoughness":{"baseColorFactor":[1,1,1,1],"baseColorTexture":{"index":0,"texCoord":0},"metallicFactor":0.400000005960464,"roughnessFactor":0.272165536880493}}],"meshes":[{"name":"Wires_05_LOD0","primitives":[{"attributes":{"NORMAL":2,"POSITION":1,"TEXCOORD_0":3},"indices":0,"material":0,"mode":4}]},{"name":"Wires_05_LOD1","primitives":[{"attributes":{"NORMAL":6,"POSITION":5,"TEXCOORD_0":7},"indices":4,"material":0,"mode":4}]}],"nodes":[{"mesh":0,"name":"Wires_05_LOD0","rotation":[0,0,0,1],"scale":[1,1,1],"translation":[0,0,0]},{"mesh":1,"name":"Wires_05_LOD1","rotation":[0,0,0,1],"scale":[1,1,1],"translation":[0,0,0]}],"samplers":[{}],"scene":0,"scenes":[{"name":"Root Scene","nodes":[0,1]}],"textures":[{"name":"base_color_texture","sampler":0,"source":0}]}