{"accessors":[{"bufferView":0,"byteOffset":0,"componentType":5123,"count":186,"type":"SCALAR"},{"bufferView":1,"byteOffset":0,"componentType":5126,"count":82,"max":[0.00122514774557203,1,0.0335579887032509],"min":[-0.01977479457855,-0.00000001985616,-0.03285422176123],"type":"VEC3"},{"bufferView":2,"byteOffset":0,"componentType":5126,"count":82,"type":"VEC3"},{"bufferView":3,"byteOffset":0,"componentType":5126,"count":82,"type":"VEC2"}],"asset":{"generator":"FBX2glTF v0.13.1","version":"2.0"},"bufferViews":[{"buffer":0,"byteLength":372,"byteOffset":0,"target":34963},{"buffer":0,"byteLength":984,"byteOffset":372,"target":34962},{"buffer":0,"byteLength":984,"byteOffset":1356,"target":34962},{"buffer":0,"byteLength":656,"byteOffset":2340,"target":34962}],"buffers":[{"byteLength":2996,"uri":"Wires_02.bin"}],"images":[{"name":"Wires_A","uri":"Wires_A.tga"}],"materials":[{"alphaMode":"OPAQUE","doubleSided":false,"extras":{"fromFBX":{"isTruePBR":false,"shadingModel":"Phong"}},"name":"Wires","pbrMetallicRoughness":{"baseColorFactor":[1,1,1,1],"baseColorTexture":{"index":0,"texCoord":0},"metallicFactor":0.400000005960464,"roughnessFactor":0.272165536880493}}],"meshes":[{"name":"Wires_02","primitives":[{"attributes":{"NORMAL":2,"POSITION":1,"TEXCOORD_0":3},"indices":0,"material":0,"mode":4}]}],"nodes":[{"mesh":0,"name":"Wires_02","rotation":[0,0,0,1],"scale":[1,1,1],"translation":[0,0,0]}],"samplers":[{}],"scene":0,"scenes":[{"name":"Root Scene","nodes":[0]}],"textures":[{"name":"base_color_texture","sampler":0,"source":0}]}