{"accessors":[{"bufferView":0,"byteOffset":0,"componentType":5123,"count":690,"type":"SCALAR"},{"bufferView":1,"byteOffset":0,"componentType":5126,"count":215,"max":[0.0145022850483656,1,0.0694625377655029],"min":[-0.0523260384798,-0.06946290284395,-0.06946313381195],"type":"VEC3"},{"bufferView":2,"byteOffset":0,"componentType":5126,"count":215,"type":"VEC3"},{"bufferView":3,"byteOffset":0,"componentType":5126,"count":215,"type":"VEC2"},{"bufferView":4,"byteOffset":0,"componentType":5123,"count":255,"type":"SCALAR"},{"bufferView":5,"byteOffset":0,"componentType":5126,"count":103,"max":[0.0145045155659318,1,0.0684960409998894],"min":[-0.05232416093349,-0.06859125941992,-0.06861834973097],"type":"VEC3"},{"bufferView":6,"byteOffset":0,"componentType":5126,"count":103,"type":"VEC3"},{"bufferView":7,"byteOffset":0,"componentType":5126,"count":103,"type":"VEC2"}],"asset":{"generator":"FBX2glTF v0.13.1","version":"2.0"},"bufferViews":[{"buffer":0,"byteLength":1380,"byteOffset":0,"target":34963},{"buffer":0,"byteLength":2580,"byteOffset":1380,"target":34962},{"buffer":0,"byteLength":2580,"byteOffset":3960,"target":34962},{"buffer":0,"byteLength":1720,"byteOffset":6540,"target":34962},{"buffer":0,"byteLength":510,"byteOffset":8260,"target":34963},{"buffer":0,"byteLength":1236,"byteOffset":8772,"target":34962},{"buffer":0,"byteLength":1236,"byteOffset":10008,"target":34962},{"buffer":0,"byteLength":824,"byteOffset":11244,"target":34962}],"buffers":[{"byteLength":12068,"uri":"Wires_03.bin"}],"images":[{"name":"Wires_A","uri":"Wires_A.tga"}],"materials":[{"alphaMode":"OPAQUE","doubleSided":false,"extras":{"fromFBX":{"isTruePBR":false,"shadingModel":"Phong"}},"name":"Wires","pbrMetallicRoughness":{"baseColorFactor":[1,1,1,1],"baseColorTexture":{"index":0,"texCoord":0},"metallicFactor":0.400000005960464,"roughnessFactor":0.272165536880493}}],"meshes":[{"name":"Wires_03_LOD0","primitives":[{"attributes":{"NORMAL":2,"POSITION":1,"TEXCOORD_0":3},"indices":0,"material":0,"mode":4}]},{"name":"Wires_03_LOD1","primitives":[{"attributes":{"NORMAL":6,"POSITION":5,"TEXCOORD_0":7},"indices":4,"material":0,"mode":4}]}],"nodes":[{"mesh":0,"name":"Wires_03_LOD0","rotation":[0,0,0,1],"scale":[1,1,1],"translation":[0,0,0]},{"mesh":1,"name":"Wires_03_LOD1","rotation":[0,0,0,1],"scale":[1,1,1],"translation":[0,0,0]}],"samplers":[{}],"scene":0,"scenes":[{"name":"Root Scene","nodes":[0,1]}],"textures":[{"name":"base_color_texture","sampler":0,"source":0}]}