{"accessors":[{"bufferView":0,"byteOffset":0,"componentType":5123,"count":696,"type":"SCALAR"},{"bufferView":1,"byteOffset":0,"componentType":5126,"count":236,"max":[0.00734558142721653,1,0.0499117374420166],"min":[-0.03685798868537,-0.06490903347731,-0.04937160015106],"type":"VEC3"},{"bufferView":2,"byteOffset":0,"componentType":5126,"count":236,"type":"VEC3"},{"bufferView":3,"byteOffset":0,"componentType":5126,"count":236,"type":"VEC2"},{"bufferView":4,"byteOffset":0,"componentType":5123,"count":102,"type":"SCALAR"},{"bufferView":5,"byteOffset":0,"componentType":5126,"count":44,"max":[0.00305378995835781,0.0158842746168375,0.00608682632446289],"min":[-0.0364535190165,-0.01463250443339,-0.00608682632446],"type":"VEC3"},{"bufferView":6,"byteOffset":0,"componentType":5126,"count":44,"type":"VEC3"},{"bufferView":7,"byteOffset":0,"componentType":5126,"count":44,"type":"VEC2"},{"bufferView":8,"byteOffset":0,"componentType":5123,"count":357,"type":"SCALAR"},{"bufferView":9,"byteOffset":0,"componentType":5126,"count":133,"max":[0.00734721543267369,1,0.0493857674300671],"min":[-0.03685798868537,-0.06437380611897,-0.04889249801636],"type":"VEC3"},{"bufferView":10,"byteOffset":0,"componentType":5126,"count":133,"type":"VEC3"},{"bufferView":11,"byteOffset":0,"componentType":5126,"count":133,"type":"VEC2"}],"asset":{"generator":"FBX2glTF v0.13.1","version":"2.0"},"bufferViews":[{"buffer":0,"byteLength":1392,"byteOffset":0,"target":34963},{"buffer":0,"byteLength":2832,"byteOffset":1392,"target":34962},{"buffer":0,"byteLength":2832,"byteOffset":4224,"target":34962},{"buffer":0,"byteLength":1888,"byteOffset":7056,"target":34962},{"buffer":0,"byteLength":204,"byteOffset":8944,"target":34963},{"buffer":0,"byteLength":528,"byteOffset":9148,"target":34962},{"buffer":0,"byteLength":528,"byteOffset":9676,"target":34962},{"buffer":0,"byteLength":352,"byteOffset":10204,"target":34962},{"buffer":0,"byteLength":714,"byteOffset":10556,"target":34963},{"buffer":0,"byteLength":1596,"byteOffset":11272,"target":34962},{"buffer":0,"byteLength":1596,"byteOffset":12868,"target":34962},{"buffer":0,"byteLength":1064,"byteOffset":14464,"target":34962}],"buffers":[{"byteLength":15528,"uri":"Wires_04.bin"}],"images":[{"name":"Wires_A","uri":"Wires_A.tga"}],"materials":[{"alphaMode":"OPAQUE","doubleSided":false,"extras":{"fromFBX":{"isTruePBR":false,"shadingModel":"Phong"}},"name":"Wires","pbrMetallicRoughness":{"baseColorFactor":[1,1,1,1],"baseColorTexture":{"index":0,"texCoord":0},"metallicFactor":0.400000005960464,"roughnessFactor":0.272165536880493}}],"meshes":[{"name":"Wires_04_LOD0","primitives":[{"attributes":{"NORMAL":2,"POSITION":1,"TEXCOORD_0":3},"indices":0,"material":0,"mode":4}]},{"name":"Wires_04_01","primitives":[{"attributes":{"NORMAL":6,"POSITION":5,"TEXCOORD_0":7},"indices":4,"material":0,"mode":4}]},{"name":"Wires_04_LOD1","primitives":[{"attributes":{"NORMAL":10,"POSITION":9,"TEXCOORD_0":11},"indices":8,"material":0,"mode":4}]}],"nodes":[{"mesh":0,"name":"Wires_04_LOD0","rotation":[0,0,0,1],"scale":[1,1,1],"translation":[0,0,0]},{"mesh":1,"name":"Wires_04_01","rotation":[0,0,0,1],"scale":[1,1,1],"translation":[-0.03292417898774,0.0137172574177384,0.0000700950622558594]},{"mesh":2,"name":"Wires_04_LOD1","rotation":[0,0,0,1],"scale":[1,1,1],"translation":[0,0,0]}],"samplers":[{}],"scene":0,"scenes":[{"name":"Root Scene","nodes":[0,1,2]}],"textures":[{"name":"base_color_texture","sampler":0,"source":0}]}