{"accessors":[{"bufferView":0,"byteOffset":0,"componentType":5123,"count":588,"type":"SCALAR"},{"bufferView":1,"byteOffset":0,"componentType":5126,"count":199,"max":[0.00137746892869473,1.01032769680023,0.0331374406814575],"min":[-0.01962232217193,0,-0.13309362530708],"type":"VEC3"},{"bufferView":2,"byteOffset":0,"componentType":5126,"count":199,"type":"VEC3"},{"bufferView":3,"byteOffset":0,"componentType":5126,"count":199,"type":"VEC2"}],"asset":{"generator":"FBX2glTF v0.13.1","version":"2.0"},"bufferViews":[{"buffer":0,"byteLength":1176,"byteOffset":0,"target":34963},{"buffer":0,"byteLength":2388,"byteOffset":1176,"target":34962},{"buffer":0,"byteLength":2388,"byteOffset":3564,"target":34962},{"buffer":0,"byteLength":1592,"byteOffset":5952,"target":34962}],"buffers":[{"byteLength":7544,"uri":"Wires_09.bin"}],"images":[{"name":"Wires_A","uri":"Wires_A.tga"}],"materials":[{"alphaMode":"OPAQUE","doubleSided":false,"extras":{"fromFBX":{"isTruePBR":false,"shadingModel":"Phong"}},"name":"Wires","pbrMetallicRoughness":{"baseColorFactor":[1,1,1,1],"baseColorTexture":{"index":0,"texCoord":0},"metallicFactor":0.400000005960464,"roughnessFactor":0.272165536880493}}],"meshes":[{"name":"Wires_09","primitives":[{"attributes":{"NORMAL":2,"POSITION":1,"TEXCOORD_0":3},"indices":0,"material":0,"mode":4}]}],"nodes":[{"mesh":0,"name":"Wires_09","rotation":[0,0,0,1],"scale":[1,1,1],"translation":[0,0,0]}],"samplers":[{}],"scene":0,"scenes":[{"name":"Root Scene","nodes":[0]}],"textures":[{"name":"base_color_texture","sampler":0,"source":0}]}