{"accessors":[{"bufferView":0,"byteOffset":0,"componentType":5123,"count":1038,"type":"SCALAR"},{"bufferView":1,"byteOffset":0,"componentType":5126,"count":314,"max":[0.0173197090625763,0.0402577668428421,0.0310822725296021],"min":[-0.04456806182861,-0.26702785491943,-0.02630388736725],"type":"VEC3"},{"bufferView":2,"byteOffset":0,"componentType":5126,"count":314,"type":"VEC3"},{"bufferView":3,"byteOffset":0,"componentType":5126,"count":314,"type":"VEC2"},{"bufferView":4,"byteOffset":0,"componentType":5123,"count":501,"type":"SCALAR"},{"bufferView":5,"byteOffset":0,"componentType":5126,"count":208,"max":[0.0173197090625763,0.04004892334342,0.0310822725296021],"min":[-0.04478937014937,-0.26705813407898,-0.02630388736725],"type":"VEC3"},{"bufferView":6,"byteOffset":0,"componentType":5126,"count":208,"type":"VEC3"},{"bufferView":7,"byteOffset":0,"componentType":5126,"count":208,"type":"VEC2"},{"bufferView":8,"byteOffset":0,"componentType":5123,"count":204,"type":"SCALAR"},{"bufferView":9,"byteOffset":0,"componentType":5126,"count":126,"max":[-0.00472052255645,0.0385694615542889,0.0281930342316628],"min":[-0.04481110349298,-0.26709827780724,-0.021767931059],"type":"VEC3"},{"bufferView":10,"byteOffset":0,"componentType":5126,"count":126,"type":"VEC3"},{"bufferView":11,"byteOffset":0,"componentType":5126,"count":126,"type":"VEC2"}],"asset":{"generator":"FBX2glTF v0.13.1","version":"2.0"},"bufferViews":[{"buffer":0,"byteLength":2076,"byteOffset":0,"target":34963},{"buffer":0,"byteLength":3768,"byteOffset":2076,"target":34962},{"buffer":0,"byteLength":3768,"byteOffset":5844,"target":34962},{"buffer":0,"byteLength":2512,"byteOffset":9612,"target":34962},{"buffer":0,"byteLength":1002,"byteOffset":12124,"target":34963},{"buffer":0,"byteLength":2496,"byteOffset":13128,"target":34962},{"buffer":0,"byteLength":2496,"byteOffset":15624,"target":34962},{"buffer":0,"byteLength":1664,"byteOffset":18120,"target":34962},{"buffer":0,"byteLength":408,"byteOffset":19784,"target":34963},{"buffer":0,"byteLength":1512,"byteOffset":20192,"target":34962},{"buffer":0,"byteLength":1512,"byteOffset":21704,"target":34962},{"buffer":0,"byteLength":1008,"byteOffset":23216,"target":34962}],"buffers":[{"byteLength":24224,"uri":"Wires_06.bin"}],"images":[{"name":"Wires_A","uri":"Wires_A.tga"}],"materials":[{"alphaMode":"OPAQUE","doubleSided":false,"extras":{"fromFBX":{"isTruePBR":false,"shadingModel":"Phong"}},"name":"Wires","pbrMetallicRoughness":{"baseColorFactor":[1,1,1,1],"baseColorTexture":{"index":0,"texCoord":0},"metallicFactor":0.400000005960464,"roughnessFactor":0.272165536880493}}],"meshes":[{"name":"Wires_06_LOD0","primitives":[{"attributes":{"NORMAL":2,"POSITION":1,"TEXCOORD_0":3},"indices":0,"material":0,"mode":4}]},{"name":"Wires_06_LOD1","primitives":[{"attributes":{"NORMAL":6,"POSITION":5,"TEXCOORD_0":7},"indices":4,"material":0,"mode":4}]},{"name":"Wires_06_LOD2","primitives":[{"attributes":{"NORMAL":10,"POSITION":9,"TEXCOORD_0":11},"indices":8,"material":0,"mode":4}]}],"nodes":[{"mesh":0,"name":"Wires_06_LOD0","rotation":[0,0,0,1],"scale":[1,1,1],"translation":[0,0,0]},{"mesh":1,"name":"Wires_06_LOD1","rotation":[0,0,0,1],"scale":[1,1,1],"translation":[0,0,0]},{"mesh":2,"name":"Wires_06_LOD2","rotation":[0,0,0,1],"scale":[1,1,1],"translation":[0,0,0]}],"samplers":[{}],"scene":0,"scenes":[{"name":"Root Scene","nodes":[0,1,2]}],"textures":[{"name":"base_color_texture","sampler":0,"source":0}]}