{"accessors":[{"bufferView":0,"byteOffset":0,"componentType":5123,"count":510,"type":"SCALAR"},{"bufferView":1,"byteOffset":0,"componentType":5126,"count":145,"max":[0.00122514902614057,0.0328541956841946,1],"min":[-0.01977479085326,-0.25849720835686,-0.00000002011071],"type":"VEC3"},{"bufferView":2,"byteOffset":0,"componentType":5126,"count":145,"type":"VEC3"},{"bufferView":3,"byteOffset":0,"componentType":5126,"count":145,"type":"VEC2"}],"asset":{"generator":"FBX2glTF v0.13.1","version":"2.0"},"bufferViews":[{"buffer":0,"byteLength":1020,"byteOffset":0,"target":34963},{"buffer":0,"byteLength":1740,"byteOffset":1020,"target":34962},{"buffer":0,"byteLength":1740,"byteOffset":2760,"target":34962},{"buffer":0,"byteLength":1160,"byteOffset":4500,"target":34962}],"buffers":[{"byteLength":5660,"uri":"Wires_07.bin"}],"images":[{"name":"Wires_A","uri":"Wires_A.tga"}],"materials":[{"alphaMode":"OPAQUE","doubleSided":false,"extras":{"fromFBX":{"isTruePBR":false,"shadingModel":"Phong"}},"name":"Wires","pbrMetallicRoughness":{"baseColorFactor":[1,1,1,1],"baseColorTexture":{"index":0,"texCoord":0},"metallicFactor":0.400000005960464,"roughnessFactor":0.272165536880493}}],"meshes":[{"name":"Wires_07","primitives":[{"attributes":{"NORMAL":2,"POSITION":1,"TEXCOORD_0":3},"indices":0,"material":0,"mode":4}]}],"nodes":[{"mesh":0,"name":"Wires_07","rotation":[0,0,0,1],"scale":[1,1,1],"translation":[0,0,0]}],"samplers":[{}],"scene":0,"scenes":[{"name":"Root Scene","nodes":[0]}],"textures":[{"name":"base_color_texture","sampler":0,"source":0}]}