{"accessors":[{"bufferView":0,"byteOffset":0,"componentType":5123,"count":11232,"type":"SCALAR"},{"bufferView":1,"byteOffset":0,"componentType":5126,"count":1976,"max":[0.399883687496185,0.184153169393539,0.235327765345573],"min":[-0.38633811473846,-0.00955418217927,-0.228964433074],"type":"VEC3"},{"bufferView":2,"byteOffset":0,"componentType":5126,"count":1976,"type":"VEC3"},{"bufferView":3,"byteOffset":0,"componentType":5126,"count":1976,"type":"VEC2"},{"bufferView":4,"byteOffset":0,"componentType":5123,"count":5256,"type":"SCALAR"},{"bufferView":5,"byteOffset":0,"componentType":5126,"count":933,"max":[0.399797201156616,0.18418525159359,0.235327765345573],"min":[-0.38643994927406,-0.00945892278105,-0.22887702286243],"type":"VEC3"},{"bufferView":6,"byteOffset":0,"componentType":5126,"count":933,"type":"VEC3"},{"bufferView":7,"byteOffset":0,"componentType":5126,"count":933,"type":"VEC2"},{"bufferView":8,"byteOffset":0,"componentType":5123,"count":534,"type":"SCALAR"},{"bufferView":9,"byteOffset":0,"componentType":5126,"count":112,"max":[0.397665411233902,0.184622570872307,0.233896404504776],"min":[-0.38639464974403,-0.00886105000973,-0.23066817224026],"type":"VEC3"},{"bufferView":10,"byteOffset":0,"componentType":5126,"count":112,"type":"VEC3"},{"bufferView":11,"byteOffset":0,"componentType":5126,"count":112,"type":"VEC2"}],"asset":{"generator":"FBX2glTF v0.13.1","version":"2.0"},"bufferViews":[{"buffer":0,"byteLength":22464,"byteOffset":0,"target":34963},{"buffer":0,"byteLength":23712,"byteOffset":22464,"target":34962},{"buffer":0,"byteLength":23712,"byteOffset":46176,"target":34962},{"buffer":0,"byteLength":15808,"byteOffset":69888,"target":34962},{"buffer":0,"byteLength":10512,"byteOffset":85696,"target":34963},{"buffer":0,"byteLength":11196,"byteOffset":96208,"target":34962},{"buffer":0,"byteLength":11196,"byteOffset":107404,"target":34962},{"buffer":0,"byteLength":7464,"byteOffset":118600,"target":34962},{"buffer":0,"byteLength":1068,"byteOffset":126064,"target":34963},{"buffer":0,"byteLength":1344,"byteOffset":127132,"target":34962},{"buffer":0,"byteLength":1344,"byteOffset":128476,"target":34962},{"buffer":0,"byteLength":896,"byteOffset":129820,"target":34962}],"buffers":[{"byteLength":130716,"uri":"Bag_Plaster.bin"}],"images":[{"name":"Construction_Tools_A","uri":"Construction_Tools_A.tga"}],"materials":[{"alphaMode":"OPAQUE","doubleSided":false,"extras":{"fromFBX":{"isTruePBR":false,"shadingModel":"Phong"}},"name":"Construction_Tools","pbrMetallicRoughness":{"baseColorFactor":[1,1,1,1],"baseColorTexture":{"index":0,"texCoord":0},"metallicFactor":0.400000005960464,"roughnessFactor":0.272165536880493}}],"meshes":[{"name":"Bag_Plaster_LOD0","primitives":[{"attributes":{"NORMAL":2,"POSITION":1,"TEXCOORD_0":3},"indices":0,"material":0,"mode":4}]},{"name":"Bag_Plaster_LOD1","primitives":[{"attributes":{"NORMAL":6,"POSITION":5,"TEXCOORD_0":7},"indices":4,"material":0,"mode":4}]},{"name":"Bag_Plaster_LOD2","primitives":[{"attributes":{"NORMAL":10,"POSITION":9,"TEXCOORD_0":11},"indices":8,"material":0,"mode":4}]}],"nodes":[{"mesh":0,"name":"Bag_Plaster_LOD0","rotation":[0,0,0,1],"scale":[1,1,1],"translation":[0,0,0]},{"mesh":1,"name":"Bag_Plaster_LOD1","rotation":[0,0,0,1],"scale":[1,1,1],"translation":[0,0,0]},{"mesh":2,"name":"Bag_Plaster_LOD2","rotation":[0,0,0,1],"scale":[1,1,1],"translation":[0,0,0]}],"samplers":[{}],"scene":0,"scenes":[{"name":"Root Scene","nodes":[0,1,2]}],"textures":[{"name":"base_color_texture","sampler":0,"source":0}]}