{"accessors":[{"bufferView":0,"byteOffset":0,"componentType":5123,"count":10758,"type":"SCALAR"},{"bufferView":1,"byteOffset":0,"componentType":5126,"count":3180,"max":[1.70179712772369,0.707683444023132,0.511316657066345],"min":[-1.10000002384186,-0.0032828329131,-1.48005700111389],"type":"VEC3"},{"bufferView":2,"byteOffset":0,"componentType":5126,"count":3180,"type":"VEC3"},{"bufferView":3,"byteOffset":0,"componentType":5126,"count":3180,"type":"VEC2"},{"bufferView":4,"byteOffset":0,"componentType":5123,"count":6003,"type":"SCALAR"},{"bufferView":5,"byteOffset":0,"componentType":5126,"count":1976,"max":[1.70187652111053,0.707712531089783,0.511323630809784],"min":[-1.10000002384186,-0.00328283337876,-1.48005700111389],"type":"VEC3"},{"bufferView":6,"byteOffset":0,"componentType":5126,"count":1976,"type":"VEC3"},{"bufferView":7,"byteOffset":0,"componentType":5126,"count":1976,"type":"VEC2"},{"bufferView":8,"byteOffset":0,"componentType":5123,"count":915,"type":"SCALAR"},{"bufferView":9,"byteOffset":0,"componentType":5126,"count":459,"max":[1.10000002384186,0.708336174488068,0.51131671667099],"min":[-1.10000002384186,-0.00000001490116,-0.5963546037674],"type":"VEC3"},{"bufferView":10,"byteOffset":0,"componentType":5126,"count":459,"type":"VEC3"},{"bufferView":11,"byteOffset":0,"componentType":5126,"count":459,"type":"VEC2"}],"asset":{"generator":"FBX2glTF v0.13.1","version":"2.0"},"bufferViews":[{"buffer":0,"byteLength":21516,"byteOffset":0,"target":34963},{"buffer":0,"byteLength":38160,"byteOffset":21516,"target":34962},{"buffer":0,"byteLength":38160,"byteOffset":59676,"target":34962},{"buffer":0,"byteLength":25440,"byteOffset":97836,"target":34962},{"buffer":0,"byteLength":12006,"byteOffset":123276,"target":34963},{"buffer":0,"byteLength":23712,"byteOffset":135284,"target":34962},{"buffer":0,"byteLength":23712,"byteOffset":158996,"target":34962},{"buffer":0,"byteLength":15808,"byteOffset":182708,"target":34962},{"buffer":0,"byteLength":1830,"byteOffset":198516,"target":34963},{"buffer":0,"byteLength":5508,"byteOffset":200348,"target":34962},{"buffer":0,"byteLength":5508,"byteOffset":205856,"target":34962},{"buffer":0,"byteLength":3672,"byteOffset":211364,"target":34962}],"buffers":[{"byteLength":215036,"uri":"Bathroom.bin"}],"images":[{"name":"Bathroom_A","uri":"Bathroom_A.tga"}],"materials":[{"alphaMode":"OPAQUE","doubleSided":false,"extras":{"fromFBX":{"isTruePBR":false,"shadingModel":"Phong"}},"name":"Bathroom","pbrMetallicRoughness":{"baseColorFactor":[1,1,1,1],"baseColorTexture":{"index":0,"texCoord":0},"metallicFactor":0.400000005960464,"roughnessFactor":0.272165536880493}}],"meshes":[{"name":"Bathroom_LOD0","primitives":[{"attributes":{"NORMAL":2,"POSITION":1,"TEXCOORD_0":3},"indices":0,"material":0,"mode":4}]},{"name":"Bathroom_LOD1","primitives":[{"attributes":{"NORMAL":6,"POSITION":5,"TEXCOORD_0":7},"indices":4,"material":0,"mode":4}]},{"name":"Bathroom_LOD2","primitives":[{"attributes":{"NORMAL":10,"POSITION":9,"TEXCOORD_0":11},"indices":8,"material":0,"mode":4}]}],"nodes":[{"mesh":0,"name":"Bathroom_LOD0","rotation":[0,0,0,1],"scale":[1,1,1],"translation":[0,0,0]},{"mesh":1,"name":"Bathroom_LOD1","rotation":[0,0,0,1],"scale":[1,1,1],"translation":[0,0,0]},{"mesh":2,"name":"Bathroom_LOD2","rotation":[0,0,0,1],"scale":[1,1,1],"translation":[0,0,0]}],"samplers":[{}],"scene":0,"scenes":[{"name":"Root Scene","nodes":[0,1,2]}],"textures":[{"name":"base_color_texture","sampler":0,"source":0}]}