{"accessors":[{"bufferView":0,"byteOffset":0,"componentType":5123,"count":6672,"type":"SCALAR"},{"bufferView":1,"byteOffset":0,"componentType":5126,"count":2084,"max":[1.02711832523346,1.10728657245636,0.493295073509216],"min":[-1.0274224281311,-0.00022375583649,-0.4932949244976],"type":"VEC3"},{"bufferView":2,"byteOffset":0,"componentType":5126,"count":2084,"type":"VEC3"},{"bufferView":3,"byteOffset":0,"componentType":5126,"count":2084,"type":"VEC2"},{"bufferView":4,"byteOffset":0,"componentType":5123,"count":3486,"type":"SCALAR"},{"bufferView":5,"byteOffset":0,"componentType":5126,"count":1358,"max":[1.02711832523346,1.10659611225128,0.493295073509216],"min":[-1.0274224281311,-0.00022375583649,-0.4932949244976],"type":"VEC3"},{"bufferView":6,"byteOffset":0,"componentType":5126,"count":1358,"type":"VEC3"},{"bufferView":7,"byteOffset":0,"componentType":5126,"count":1358,"type":"VEC2"},{"bufferView":8,"byteOffset":0,"componentType":5123,"count":600,"type":"SCALAR"},{"bufferView":9,"byteOffset":0,"componentType":5126,"count":400,"max":[1.02545464038849,1.09830546379089,0.4913270175457],"min":[-1.02819085121155,-0.00071899709292,-0.49132707715035],"type":"VEC3"},{"bufferView":10,"byteOffset":0,"componentType":5126,"count":400,"type":"VEC3"},{"bufferView":11,"byteOffset":0,"componentType":5126,"count":400,"type":"VEC2"}],"asset":{"generator":"FBX2glTF v0.13.1","version":"2.0"},"bufferViews":[{"buffer":0,"byteLength":13344,"byteOffset":0,"target":34963},{"buffer":0,"byteLength":25008,"byteOffset":13344,"target":34962},{"buffer":0,"byteLength":25008,"byteOffset":38352,"target":34962},{"buffer":0,"byteLength":16672,"byteOffset":63360,"target":34962},{"buffer":0,"byteLength":6972,"byteOffset":80032,"target":34963},{"buffer":0,"byteLength":16296,"byteOffset":87004,"target":34962},{"buffer":0,"byteLength":16296,"byteOffset":103300,"target":34962},{"buffer":0,"byteLength":10864,"byteOffset":119596,"target":34962},{"buffer":0,"byteLength":1200,"byteOffset":130460,"target":34963},{"buffer":0,"byteLength":4800,"byteOffset":131660,"target":34962},{"buffer":0,"byteLength":4800,"byteOffset":136460,"target":34962},{"buffer":0,"byteLength":3200,"byteOffset":141260,"target":34962}],"buffers":[{"byteLength":144460,"uri":"Bed_01.bin"}],"images":[{"name":"Bed_A","uri":"Bed_A.tga"}],"materials":[{"alphaMode":"OPAQUE","doubleSided":false,"extras":{"fromFBX":{"isTruePBR":false,"shadingModel":"Phong"}},"name":"Bed","pbrMetallicRoughness":{"baseColorFactor":[1,1,1,1],"baseColorTexture":{"index":0,"texCoord":0},"metallicFactor":0.400000005960464,"roughnessFactor":0.272165536880493}}],"meshes":[{"name":"Bed_LOD0","primitives":[{"attributes":{"NORMAL":2,"POSITION":1,"TEXCOORD_0":3},"indices":0,"material":0,"mode":4}]},{"name":"Bed_LOD1","primitives":[{"attributes":{"NORMAL":6,"POSITION":5,"TEXCOORD_0":7},"indices":4,"material":0,"mode":4}]},{"name":"Bed_LOD2","primitives":[{"attributes":{"NORMAL":10,"POSITION":9,"TEXCOORD_0":11},"indices":8,"material":0,"mode":4}]}],"nodes":[{"mesh":0,"name":"Bed_LOD0","rotation":[0,0,0,1],"scale":[1,1,1],"translation":[0,0,0]},{"mesh":1,"name":"Bed_LOD1","rotation":[0,0,0,1],"scale":[1,1,1],"translation":[0,0,0]},{"mesh":2,"name":"Bed_LOD2","rotation":[0,0,0,1],"scale":[1,1,1],"translation":[0,0,0]}],"samplers":[{}],"scene":0,"scenes":[{"name":"Root Scene","nodes":[0,1,2]}],"textures":[{"name":"base_color_texture","sampler":0,"source":0}]}