{"accessors":[{"bufferView":0,"byteOffset":0,"componentType":5123,"count":9324,"type":"SCALAR"},{"bufferView":1,"byteOffset":0,"componentType":5126,"count":2644,"max":[1.02711832523346,1.10728657245636,0.493295073509216],"min":[-1.0274224281311,-0.00022375583649,-0.4932949244976],"type":"VEC3"},{"bufferView":2,"byteOffset":0,"componentType":5126,"count":2644,"type":"VEC3"},{"bufferView":3,"byteOffset":0,"componentType":5126,"count":2644,"type":"VEC2"},{"bufferView":4,"byteOffset":0,"componentType":5123,"count":4620,"type":"SCALAR"},{"bufferView":5,"byteOffset":0,"componentType":5126,"count":1639,"max":[1.02711832523346,1.10659611225128,0.493295073509216],"min":[-1.0274224281311,-0.00022375583649,-0.4932949244976],"type":"VEC3"},{"bufferView":6,"byteOffset":0,"componentType":5126,"count":1639,"type":"VEC3"},{"bufferView":7,"byteOffset":0,"componentType":5126,"count":1639,"type":"VEC2"},{"bufferView":8,"byteOffset":0,"componentType":5123,"count":804,"type":"SCALAR"},{"bufferView":9,"byteOffset":0,"componentType":5126,"count":474,"max":[1.02545464038849,1.09830546379089,0.4913270175457],"min":[-1.02819085121155,-0.00071899709292,-0.49132707715035],"type":"VEC3"},{"bufferView":10,"byteOffset":0,"componentType":5126,"count":474,"type":"VEC3"},{"bufferView":11,"byteOffset":0,"componentType":5126,"count":474,"type":"VEC2"},{"bufferView":12,"byteOffset":0,"componentType":5123,"count":13242,"type":"SCALAR"},{"bufferView":13,"byteOffset":0,"componentType":5126,"count":2535,"max":[0.959520220756531,0.834520161151886,0.535823106765747],"min":[-1.0690746307373,0.328575730323792,-0.49842810630798],"type":"VEC3"},{"bufferView":14,"byteOffset":0,"componentType":5126,"count":2535,"type":"VEC3"},{"bufferView":15,"byteOffset":0,"componentType":5126,"count":2535,"type":"VEC2"},{"bufferView":16,"byteOffset":0,"componentType":5123,"count":6000,"type":"SCALAR"},{"bufferView":17,"byteOffset":0,"componentType":5126,"count":1240,"max":[0.959912538528442,0.833971917629242,0.535823106765747],"min":[-1.0685316324234,0.328828185796738,-0.49842810630798],"type":"VEC3"},{"bufferView":18,"byteOffset":0,"componentType":5126,"count":1240,"type":"VEC3"},{"bufferView":19,"byteOffset":0,"componentType":5126,"count":1240,"type":"VEC2"},{"bufferView":20,"byteOffset":0,"componentType":5123,"count":2106,"type":"SCALAR"},{"bufferView":21,"byteOffset":0,"componentType":5126,"count":482,"max":[0.954252123832703,0.833401560783386,0.533189475536346],"min":[-1.06764423847198,0.330007493495941,-0.49632033705711],"type":"VEC3"},{"bufferView":22,"byteOffset":0,"componentType":5126,"count":482,"type":"VEC3"},{"bufferView":23,"byteOffset":0,"componentType":5126,"count":482,"type":"VEC2"}],"asset":{"generator":"FBX2glTF v0.13.1","version":"2.0"},"bufferViews":[{"buffer":0,"byteLength":18648,"byteOffset":0,"target":34963},{"buffer":0,"byteLength":31728,"byteOffset":18648,"target":34962},{"buffer":0,"byteLength":31728,"byteOffset":50376,"target":34962},{"buffer":0,"byteLength":21152,"byteOffset":82104,"target":34962},{"buffer":0,"byteLength":9240,"byteOffset":103256,"target":34963},{"buffer":0,"byteLength":19668,"byteOffset":112496,"target":34962},{"buffer":0,"byteLength":19668,"byteOffset":132164,"target":34962},{"buffer":0,"byteLength":13112,"byteOffset":151832,"target":34962},{"buffer":0,"byteLength":1608,"byteOffset":164944,"target":34963},{"buffer":0,"byteLength":5688,"byteOffset":166552,"target":34962},{"buffer":0,"byteLength":5688,"byteOffset":172240,"target":34962},{"buffer":0,"byteLength":3792,"byteOffset":177928,"target":34962},{"buffer":0,"byteLength":26484,"byteOffset":181720,"target":34963},{"buffer":0,"byteLength":30420,"byteOffset":208204,"target":34962},{"buffer":0,"byteLength":30420,"byteOffset":238624,"target":34962},{"buffer":0,"byteLength":20280,"byteOffset":269044,"target":34962},{"buffer":0,"byteLength":12000,"byteOffset":289324,"target":34963},{"buffer":0,"byteLength":14880,"byteOffset":301324,"target":34962},{"buffer":0,"byteLength":14880,"byteOffset":316204,"target":34962},{"buffer":0,"byteLength":9920,"byteOffset":331084,"target":34962},{"buffer":0,"byteLength":4212,"byteOffset":341004,"target":34963},{"buffer":0,"byteLength":5784,"byteOffset":345216,"target":34962},{"buffer":0,"byteLength":5784,"byteOffset":351000,"target":34962},{"buffer":0,"byteLength":3856,"byteOffset":356784,"target":34962}],"buffers":[{"byteLength":360640,"uri":"Bed_03.bin"}],"images":[{"name":"Bed_A","uri":"Bed_A.tga"},{"name":"Pillow_A","uri":"Pillow_A.tga"}],"materials":[{"alphaMode":"OPAQUE","doubleSided":false,"extras":{"fromFBX":{"isTruePBR":false,"shadingModel":"Phong"}},"name":"Bed","pbrMetallicRoughness":{"baseColorFactor":[1,1,1,1],"baseColorTexture":{"index":0,"texCoord":0},"metallicFactor":0.400000005960464,"roughnessFactor":0.272165536880493}},{"alphaMode":"OPAQUE","doubleSided":false,"extras":{"fromFBX":{"isTruePBR":false,"shadingModel":"Phong"}},"name":"Pillow","pbrMetallicRoughness":{"baseColorFactor":[1,1,1,1],"baseColorTexture":{"index":1,"texCoord":0},"metallicFactor":0.400000005960464,"roughnessFactor":0.272165536880493}}],"meshes":[{"name":"Bed_03_LOD0","primitives":[{"attributes":{"NORMAL":2,"POSITION":1,"TEXCOORD_0":3},"indices":0,"material":0,"mode":4},{"attributes":{"NORMAL":14,"POSITION":13,"TEXCOORD_0":15},"indices":12,"material":1,"mode":4}]},{"name":"Bed_03_LOD1","primitives":[{"attributes":{"NORMAL":6,"POSITION":5,"TEXCOORD_0":7},"indices":4,"material":0,"mode":4},{"attributes":{"NORMAL":18,"POSITION":17,"TEXCOORD_0":19},"indices":16,"material":1,"mode":4}]},{"name":"Bed_03_LOD2","primitives":[{"attributes":{"NORMAL":10,"POSITION":9,"TEXCOORD_0":11},"indices":8,"material":0,"mode":4},{"attributes":{"NORMAL":22,"POSITION":21,"TEXCOORD_0":23},"indices":20,"material":1,"mode":4}]}],"nodes":[{"mesh":0,"name":"Bed_03_LOD0","rotation":[0,0,0,1],"scale":[1,1,1],"translation":[0,0,0]},{"mesh":1,"name":"Bed_03_LOD1","rotation":[0,0,0,1],"scale":[1,1,1],"translation":[0,0,0]},{"mesh":2,"name":"Bed_03_LOD2","rotation":[0,0,0,1],"scale":[1,1,1],"translation":[0,0,0]}],"samplers":[{}],"scene":0,"scenes":[{"name":"Root Scene","nodes":[0,1,2]}],"textures":[{"name":"base_color_texture","sampler":0,"source":0},{"name":"base_color_texture","sampler":0,"source":1}]}