{"accessors":[{"bufferView":0,"byteOffset":0,"componentType":5123,"count":7836,"type":"SCALAR"},{"bufferView":1,"byteOffset":0,"componentType":5126,"count":2306,"max":[1.02711832523346,1.10728657245636,0.493295073509216],"min":[-1.0274224281311,-0.00022375583649,-0.4932949244976],"type":"VEC3"},{"bufferView":2,"byteOffset":0,"componentType":5126,"count":2306,"type":"VEC3"},{"bufferView":3,"byteOffset":0,"componentType":5126,"count":2306,"type":"VEC2"},{"bufferView":4,"byteOffset":0,"componentType":5123,"count":3831,"type":"SCALAR"},{"bufferView":5,"byteOffset":0,"componentType":5126,"count":1437,"max":[1.02711832523346,1.10659611225128,0.493295073509216],"min":[-1.0274224281311,-0.00022375583649,-0.4932949244976],"type":"VEC3"},{"bufferView":6,"byteOffset":0,"componentType":5126,"count":1437,"type":"VEC3"},{"bufferView":7,"byteOffset":0,"componentType":5126,"count":1437,"type":"VEC2"},{"bufferView":8,"byteOffset":0,"componentType":5123,"count":639,"type":"SCALAR"},{"bufferView":9,"byteOffset":0,"componentType":5126,"count":415,"max":[1.02545464038849,1.09830546379089,0.4913270175457],"min":[-1.02819085121155,-0.00071899709292,-0.49132707715035],"type":"VEC3"},{"bufferView":10,"byteOffset":0,"componentType":5126,"count":415,"type":"VEC3"},{"bufferView":11,"byteOffset":0,"componentType":5126,"count":415,"type":"VEC2"},{"bufferView":12,"byteOffset":0,"componentType":5123,"count":14262,"type":"SCALAR"},{"bufferView":13,"byteOffset":0,"componentType":5126,"count":2627,"max":[0.993426620960236,0.82575649023056,0.495827853679657],"min":[-0.99610900878906,0.506572127342224,-0.49003753066063],"type":"VEC3"},{"bufferView":14,"byteOffset":0,"componentType":5126,"count":2627,"type":"VEC3"},{"bufferView":15,"byteOffset":0,"componentType":5126,"count":2627,"type":"VEC2"},{"bufferView":16,"byteOffset":0,"componentType":5123,"count":3612,"type":"SCALAR"},{"bufferView":17,"byteOffset":0,"componentType":5126,"count":719,"max":[0.99338299036026,0.82428765296936,0.495778411626816],"min":[-0.9959232211113,0.506952524185181,-0.49181693792343],"type":"VEC3"},{"bufferView":18,"byteOffset":0,"componentType":5126,"count":719,"type":"VEC3"},{"bufferView":19,"byteOffset":0,"componentType":5126,"count":719,"type":"VEC2"},{"bufferView":20,"byteOffset":0,"componentType":5123,"count":426,"type":"SCALAR"},{"bufferView":21,"byteOffset":0,"componentType":5126,"count":138,"max":[0.984535574913025,0.825401127338409,0.493066847324371],"min":[-0.99193501472473,0.509129881858826,-0.48455366492271],"type":"VEC3"},{"bufferView":22,"byteOffset":0,"componentType":5126,"count":138,"type":"VEC3"},{"bufferView":23,"byteOffset":0,"componentType":5126,"count":138,"type":"VEC2"}],"asset":{"generator":"FBX2glTF v0.13.1","version":"2.0"},"bufferViews":[{"buffer":0,"byteLength":15672,"byteOffset":0,"target":34963},{"buffer":0,"byteLength":27672,"byteOffset":15672,"target":34962},{"buffer":0,"byteLength":27672,"byteOffset":43344,"target":34962},{"buffer":0,"byteLength":18448,"byteOffset":71016,"target":34962},{"buffer":0,"byteLength":7662,"byteOffset":89464,"target":34963},{"buffer":0,"byteLength":17244,"byteOffset":97128,"target":34962},{"buffer":0,"byteLength":17244,"byteOffset":114372,"target":34962},{"buffer":0,"byteLength":11496,"byteOffset":131616,"target":34962},{"buffer":0,"byteLength":1278,"byteOffset":143112,"target":34963},{"buffer":0,"byteLength":4980,"byteOffset":144392,"target":34962},{"buffer":0,"byteLength":4980,"byteOffset":149372,"target":34962},{"buffer":0,"byteLength":3320,"byteOffset":154352,"target":34962},{"buffer":0,"byteLength":28524,"byteOffset":157672,"target":34963},{"buffer":0,"byteLength":31524,"byteOffset":186196,"target":34962},{"buffer":0,"byteLength":31524,"byteOffset":217720,"target":34962},{"buffer":0,"byteLength":21016,"byteOffset":249244,"target":34962},{"buffer":0,"byteLength":7224,"byteOffset":270260,"target":34963},{"buffer":0,"byteLength":8628,"byteOffset":277484,"target":34962},{"buffer":0,"byteLength":8628,"byteOffset":286112,"target":34962},{"buffer":0,"byteLength":5752,"byteOffset":294740,"target":34962},{"buffer":0,"byteLength":852,"byteOffset":300492,"target":34963},{"buffer":0,"byteLength":1656,"byteOffset":301344,"target":34962},{"buffer":0,"byteLength":1656,"byteOffset":303000,"target":34962},{"buffer":0,"byteLength":1104,"byteOffset":304656,"target":34962}],"buffers":[{"byteLength":305760,"uri":"Bed_02.bin"}],"images":[{"name":"Bed_A","uri":"Bed_A.tga"},{"name":"Pillow_A","uri":"Pillow_A.tga"}],"materials":[{"alphaMode":"OPAQUE","doubleSided":false,"extras":{"fromFBX":{"isTruePBR":false,"shadingModel":"Phong"}},"name":"Bed","pbrMetallicRoughness":{"baseColorFactor":[1,1,1,1],"baseColorTexture":{"index":0,"texCoord":0},"metallicFactor":0.400000005960464,"roughnessFactor":0.272165536880493}},{"alphaMode":"OPAQUE","doubleSided":false,"extras":{"fromFBX":{"isTruePBR":false,"shadingModel":"Phong"}},"name":"Pillow","pbrMetallicRoughness":{"baseColorFactor":[1,1,1,1],"baseColorTexture":{"index":1,"texCoord":0},"metallicFactor":0.400000005960464,"roughnessFactor":0.272165536880493}}],"meshes":[{"name":"Bed_02_LOD0","primitives":[{"attributes":{"NORMAL":2,"POSITION":1,"TEXCOORD_0":3},"indices":0,"material":0,"mode":4},{"attributes":{"NORMAL":14,"POSITION":13,"TEXCOORD_0":15},"indices":12,"material":1,"mode":4}]},{"name":"Bed_02_LOD1","primitives":[{"attributes":{"NORMAL":6,"POSITION":5,"TEXCOORD_0":7},"indices":4,"material":0,"mode":4},{"attributes":{"NORMAL":18,"POSITION":17,"TEXCOORD_0":19},"indices":16,"material":1,"mode":4}]},{"name":"Bed_02_LOD2","primitives":[{"attributes":{"NORMAL":10,"POSITION":9,"TEXCOORD_0":11},"indices":8,"material":0,"mode":4},{"attributes":{"NORMAL":22,"POSITION":21,"TEXCOORD_0":23},"indices":20,"material":1,"mode":4}]}],"nodes":[{"mesh":0,"name":"Bed_02_LOD0","rotation":[0,0,0,1],"scale":[1,1,1],"translation":[0,0,0]},{"mesh":1,"name":"Bed_02_LOD1","rotation":[0,0,0,1],"scale":[1,1,1],"translation":[0,0,0]},{"mesh":2,"name":"Bed_02_LOD2","rotation":[0,0,0,1],"scale":[1,1,1],"translation":[0,0,0]}],"samplers":[{}],"scene":0,"scenes":[{"name":"Root Scene","nodes":[0,1,2]}],"textures":[{"name":"base_color_texture","sampler":0,"source":0},{"name":"base_color_texture","sampler":0,"source":1}]}