{"accessors":[{"bufferView":0,"byteOffset":0,"componentType":5123,"count":234,"type":"SCALAR"},{"bufferView":1,"byteOffset":0,"componentType":5126,"count":144,"max":[2,2.4703688621521,1.2998434305191],"min":[-0.03541249409318,0,-0.0001564619597],"type":"VEC3"},{"bufferView":2,"byteOffset":0,"componentType":5126,"count":144,"type":"VEC3"},{"bufferView":3,"byteOffset":0,"componentType":5126,"count":144,"type":"VEC2"},{"bufferView":4,"byteOffset":0,"componentType":5123,"count":948,"type":"SCALAR"},{"bufferView":5,"byteOffset":0,"componentType":5126,"count":358,"max":[0.0584025382995605,1.7571474313736,1.05435311794281],"min":[-0.07753098011017,0,-0.02129301801324],"type":"VEC3"},{"bufferView":6,"byteOffset":0,"componentType":5126,"count":358,"type":"VEC3"},{"bufferView":7,"byteOffset":0,"componentType":5126,"count":358,"type":"VEC2"},{"bufferView":8,"byteOffset":0,"componentType":5123,"count":507,"type":"SCALAR"},{"bufferView":9,"byteOffset":0,"componentType":5126,"count":234,"max":[0.0584764815866947,1.7571474313736,1.01360297203064],"min":[-0.07766379415989,0,-0.02129301428795],"type":"VEC3"},{"bufferView":10,"byteOffset":0,"componentType":5126,"count":234,"type":"VEC3"},{"bufferView":11,"byteOffset":0,"componentType":5126,"count":234,"type":"VEC2"}],"asset":{"generator":"FBX2glTF v0.13.1","version":"2.0"},"bufferViews":[{"buffer":0,"byteLength":468,"byteOffset":0,"target":34963},{"buffer":0,"byteLength":1728,"byteOffset":468,"target":34962},{"buffer":0,"byteLength":1728,"byteOffset":2196,"target":34962},{"buffer":0,"byteLength":1152,"byteOffset":3924,"target":34962},{"buffer":0,"byteLength":1896,"byteOffset":5076,"target":34963},{"buffer":0,"byteLength":4296,"byteOffset":6972,"target":34962},{"buffer":0,"byteLength":4296,"byteOffset":11268,"target":34962},{"buffer":0,"byteLength":2864,"byteOffset":15564,"target":34962},{"buffer":0,"byteLength":1014,"byteOffset":18428,"target":34963},{"buffer":0,"byteLength":2808,"byteOffset":19444,"target":34962},{"buffer":0,"byteLength":2808,"byteOffset":22252,"target":34962},{"buffer":0,"byteLength":1872,"byteOffset":25060,"target":34962}],"buffers":[{"byteLength":26932,"uri":"Booth_Toilet.bin"}],"images":[{"name":"Booth_Toilet_A","uri":"Booth_Toilet_A.tga"}],"materials":[{"alphaMode":"OPAQUE","doubleSided":false,"extras":{"fromFBX":{"isTruePBR":false,"shadingModel":"Phong"}},"name":"Booth_Toilet","pbrMetallicRoughness":{"baseColorFactor":[1,1,1,1],"baseColorTexture":{"index":0,"texCoord":0},"metallicFactor":0.400000005960464,"roughnessFactor":0.272165536880493}}],"meshes":[{"name":"Booth_Toilet","primitives":[{"attributes":{"NORMAL":2,"POSITION":1,"TEXCOORD_0":3},"indices":0,"material":0,"mode":4}]},{"name":"Booth_Toilet_Door_LOD0","primitives":[{"attributes":{"NORMAL":6,"POSITION":5,"TEXCOORD_0":7},"indices":4,"material":0,"mode":4}]},{"name":"Booth_Toilet_Door_LOD1","primitives":[{"attributes":{"NORMAL":10,"POSITION":9,"TEXCOORD_0":11},"indices":8,"material":0,"mode":4}]}],"nodes":[{"mesh":0,"name":"Booth_Toilet","rotation":[0,0,0,1],"scale":[1,1,1],"translation":[0,0,0]},{"children":[2],"mesh":1,"name":"Booth_Toilet_Door_LOD0","rotation":[0,0,0,1],"scale":[1,1,1],"translation":[-0.00300829997286,0.328097760677338,0.129475221037865]},{"mesh":2,"name":"Booth_Toilet_Door_LOD1","rotation":[0,0,0,1],"scale":[1,1,1],"translation":[-0.00000000029802,0.0000000381469718035987,0.0407501310110092]}],"samplers":[{}],"scene":0,"scenes":[{"name":"Root Scene","nodes":[0,1]}],"textures":[{"name":"base_color_texture","sampler":0,"source":0}]}