{"accessors":[{"bufferView":0,"byteOffset":0,"componentType":5123,"count":2244,"type":"SCALAR"},{"bufferView":1,"byteOffset":0,"componentType":5126,"count":469,"max":[0.328288197517395,0.159033730626106,0.214898109436035],"min":[-0.32848703861237,-0.00058521516621,-0.21489810943603],"type":"VEC3"},{"bufferView":2,"byteOffset":0,"componentType":5126,"count":469,"type":"VEC3"},{"bufferView":3,"byteOffset":0,"componentType":5126,"count":469,"type":"VEC2"},{"bufferView":4,"byteOffset":0,"componentType":5123,"count":1140,"type":"SCALAR"},{"bufferView":5,"byteOffset":0,"componentType":5126,"count":238,"max":[0.325108051300049,0.157384008169174,0.212650984525681],"min":[-0.32786074280739,-0.00067536003189,-0.21265026926994],"type":"VEC3"},{"bufferView":6,"byteOffset":0,"componentType":5126,"count":238,"type":"VEC3"},{"bufferView":7,"byteOffset":0,"componentType":5126,"count":238,"type":"VEC2"}],"asset":{"generator":"FBX2glTF v0.13.1","version":"2.0"},"bufferViews":[{"buffer":0,"byteLength":4488,"byteOffset":0,"target":34963},{"buffer":0,"byteLength":5628,"byteOffset":4488,"target":34962},{"buffer":0,"byteLength":5628,"byteOffset":10116,"target":34962},{"buffer":0,"byteLength":3752,"byteOffset":15744,"target":34962},{"buffer":0,"byteLength":2280,"byteOffset":19496,"target":34963},{"buffer":0,"byteLength":2856,"byteOffset":21776,"target":34962},{"buffer":0,"byteLength":2856,"byteOffset":24632,"target":34962},{"buffer":0,"byteLength":1904,"byteOffset":27488,"target":34962}],"buffers":[{"byteLength":29392,"uri":"Bowl.bin"}],"images":[{"name":"Nightstand_A","uri":"Nightstand_A.tga"}],"materials":[{"alphaMode":"OPAQUE","doubleSided":false,"extras":{"fromFBX":{"isTruePBR":false,"shadingModel":"Phong"}},"name":"Nightstand","pbrMetallicRoughness":{"baseColorFactor":[1,1,1,1],"baseColorTexture":{"index":0,"texCoord":0},"metallicFactor":0.400000005960464,"roughnessFactor":0.272165536880493}}],"meshes":[{"name":"Bowl_LOD0","primitives":[{"attributes":{"NORMAL":2,"POSITION":1,"TEXCOORD_0":3},"indices":0,"material":0,"mode":4}]},{"name":"Bowl_LOD1","primitives":[{"attributes":{"NORMAL":6,"POSITION":5,"TEXCOORD_0":7},"indices":4,"material":0,"mode":4}]}],"nodes":[{"mesh":0,"name":"Bowl_LOD0","rotation":[0,0,0,1],"scale":[1,1,1],"translation":[0,0,0]},{"mesh":1,"name":"Bowl_LOD1","rotation":[0,0,0,1],"scale":[1,1,1],"translation":[0,0,0]}],"samplers":[{}],"scene":0,"scenes":[{"name":"Root Scene","nodes":[0,1]}],"textures":[{"name":"base_color_texture","sampler":0,"source":0}]}