{"accessors":[{"bufferView":0,"byteOffset":0,"componentType":5123,"count":2286,"type":"SCALAR"},{"bufferView":1,"byteOffset":0,"componentType":5126,"count":516,"max":[0.0460585355758667,0.46292644739151,0.0460895001888275],"min":[-0.04602652415633,-0.00064182654023,-0.04599561914802],"type":"VEC3"},{"bufferView":2,"byteOffset":0,"componentType":5126,"count":516,"type":"VEC3"},{"bufferView":3,"byteOffset":0,"componentType":5126,"count":516,"type":"VEC2"},{"bufferView":4,"byteOffset":0,"componentType":5123,"count":1170,"type":"SCALAR"},{"bufferView":5,"byteOffset":0,"componentType":5126,"count":277,"max":[0.0460585355758667,0.462926477193832,0.0460895001888275],"min":[-0.04602652415633,-0.00064182665665,-0.04599561914802],"type":"VEC3"},{"bufferView":6,"byteOffset":0,"componentType":5126,"count":277,"type":"VEC3"},{"bufferView":7,"byteOffset":0,"componentType":5126,"count":277,"type":"VEC2"},{"bufferView":8,"byteOffset":0,"componentType":5123,"count":555,"type":"SCALAR"},{"bufferView":9,"byteOffset":0,"componentType":5126,"count":146,"max":[0.0462978966534138,0.449351370334625,0.0466595366597176],"min":[-0.04618052020669,-0.00070522760507,-0.04628328606486],"type":"VEC3"},{"bufferView":10,"byteOffset":0,"componentType":5126,"count":146,"type":"VEC3"},{"bufferView":11,"byteOffset":0,"componentType":5126,"count":146,"type":"VEC2"},{"bufferView":12,"byteOffset":0,"componentType":5123,"count":24,"type":"SCALAR"},{"bufferView":13,"byteOffset":0,"componentType":5126,"count":16,"max":[0.0328842364251614,0.112892672419548,0.0325011573731899],"min":[-0.03211808204651,-0.01615978032351,-0.03250115737319],"type":"VEC3"},{"bufferView":14,"byteOffset":0,"componentType":5126,"count":16,"type":"VEC3"},{"bufferView":15,"byteOffset":0,"componentType":5126,"count":16,"type":"VEC2"}],"asset":{"generator":"FBX2glTF v0.13.1","version":"2.0"},"bufferViews":[{"buffer":0,"byteLength":4572,"byteOffset":0,"target":34963},{"buffer":0,"byteLength":6192,"byteOffset":4572,"target":34962},{"buffer":0,"byteLength":6192,"byteOffset":10764,"target":34962},{"buffer":0,"byteLength":4128,"byteOffset":16956,"target":34962},{"buffer":0,"byteLength":2340,"byteOffset":21084,"target":34963},{"buffer":0,"byteLength":3324,"byteOffset":23424,"target":34962},{"buffer":0,"byteLength":3324,"byteOffset":26748,"target":34962},{"buffer":0,"byteLength":2216,"byteOffset":30072,"target":34962},{"buffer":0,"byteLength":1110,"byteOffset":32288,"target":34963},{"buffer":0,"byteLength":1752,"byteOffset":33400,"target":34962},{"buffer":0,"byteLength":1752,"byteOffset":35152,"target":34962},{"buffer":0,"byteLength":1168,"byteOffset":36904,"target":34962},{"buffer":0,"byteLength":48,"byteOffset":38072,"target":34963},{"buffer":0,"byteLength":192,"byteOffset":38120,"target":34962},{"buffer":0,"byteLength":192,"byteOffset":38312,"target":34962},{"buffer":0,"byteLength":128,"byteOffset":38504,"target":34962}],"buffers":[{"byteLength":38632,"uri":"Candle_05.bin"}],"images":[{"name":"Candles_A","uri":"Candles_A.tga"},{"name":"1","uri":"1.psd"}],"materials":[{"alphaMode":"OPAQUE","doubleSided":false,"extras":{"fromFBX":{"isTruePBR":false,"shadingModel":"Phong"}},"name":"Candles","pbrMetallicRoughness":{"baseColorFactor":[1,1,1,1],"baseColorTexture":{"index":0,"texCoord":0},"metallicFactor":0.400000005960464,"roughnessFactor":0.272165536880493}},{"alphaMode":"OPAQUE","doubleSided":false,"extras":{"fromFBX":{"isTruePBR":false,"shadingModel":"Phong"}},"name":"Сandle_Flame","pbrMetallicRoughness":{"baseColorFactor":[1,1,1,1],"baseColorTexture":{"index":1,"texCoord":0},"metallicFactor":0.400000005960464,"roughnessFactor":0.272165536880493}}],"meshes":[{"name":"Candle_05_LOD0","primitives":[{"attributes":{"NORMAL":2,"POSITION":1,"TEXCOORD_0":3},"indices":0,"material":0,"mode":4}]},{"name":"Candle_05_LOD1","primitives":[{"attributes":{"NORMAL":6,"POSITION":5,"TEXCOORD_0":7},"indices":4,"material":0,"mode":4}]},{"name":"Candle_05_LOD2","primitives":[{"attributes":{"NORMAL":10,"POSITION":9,"TEXCOORD_0":11},"indices":8,"material":0,"mode":4}]},{"name":"Candle_Flame_05","primitives":[{"attributes":{"NORMAL":14,"POSITION":13,"TEXCOORD_0":15},"indices":12,"material":1,"mode":4}]}],"nodes":[{"mesh":0,"name":"Candle_05_LOD0","rotation":[0,0,0,1],"scale":[1,1,1],"translation":[0,0,0]},{"mesh":1,"name":"Candle_05_LOD1","rotation":[0,0,0,1],"scale":[1,1,1],"translation":[0,0,0]},{"mesh":2,"name":"Candle_05_LOD2","rotation":[0,0,0,1],"scale":[1,1,1],"translation":[0,0,0]},{"mesh":3,"name":"Candle_Flame_05","rotation":[0,0,0,1],"scale":[1,1,1],"translation":[-0.00026611419162,0.468121856451035,-0.00209825532511]}],"samplers":[{}],"scene":0,"scenes":[{"name":"Root Scene","nodes":[0,1,2,3]}],"textures":[{"name":"base_color_texture","sampler":0,"source":0},{"name":"base_color_texture","sampler":0,"source":1}]}