{"accessors":[{"bufferView":0,"byteOffset":0,"componentType":5123,"count":3366,"type":"SCALAR"},{"bufferView":1,"byteOffset":0,"componentType":5126,"count":661,"max":[0.0628824234008789,0.188704252243042,0.0969715267419815],"min":[-0.08696973323822,-0.00818484090269,-0.06210014596581],"type":"VEC3"},{"bufferView":2,"byteOffset":0,"componentType":5126,"count":661,"type":"VEC3"},{"bufferView":3,"byteOffset":0,"componentType":5126,"count":661,"type":"VEC2"},{"bufferView":4,"byteOffset":0,"componentType":5123,"count":906,"type":"SCALAR"},{"bufferView":5,"byteOffset":0,"componentType":5126,"count":194,"max":[0.0629643723368645,0.188692942261696,0.0969715267419815],"min":[-0.08694170415401,-0.00845997687429,-0.06226105988026],"type":"VEC3"},{"bufferView":6,"byteOffset":0,"componentType":5126,"count":194,"type":"VEC3"},{"bufferView":7,"byteOffset":0,"componentType":5126,"count":194,"type":"VEC2"},{"bufferView":8,"byteOffset":0,"componentType":5123,"count":372,"type":"SCALAR"},{"bufferView":9,"byteOffset":0,"componentType":5126,"count":88,"max":[0.0617218427360058,0.177485123276711,0.0968722999095917],"min":[-0.08608163893223,-0.00757203483954,-0.0563089735806],"type":"VEC3"},{"bufferView":10,"byteOffset":0,"componentType":5126,"count":88,"type":"VEC3"},{"bufferView":11,"byteOffset":0,"componentType":5126,"count":88,"type":"VEC2"},{"bufferView":12,"byteOffset":0,"componentType":5123,"count":24,"type":"SCALAR"},{"bufferView":13,"byteOffset":0,"componentType":5126,"count":16,"max":[0.0456019453704357,0.156552985310555,0.0450707152485847],"min":[-0.04453948885202,-0.02240944653749,-0.04507071524858],"type":"VEC3"},{"bufferView":14,"byteOffset":0,"componentType":5126,"count":16,"type":"VEC3"},{"bufferView":15,"byteOffset":0,"componentType":5126,"count":16,"type":"VEC2"}],"asset":{"generator":"FBX2glTF v0.13.1","version":"2.0"},"bufferViews":[{"buffer":0,"byteLength":6732,"byteOffset":0,"target":34963},{"buffer":0,"byteLength":7932,"byteOffset":6732,"target":34962},{"buffer":0,"byteLength":7932,"byteOffset":14664,"target":34962},{"buffer":0,"byteLength":5288,"byteOffset":22596,"target":34962},{"buffer":0,"byteLength":1812,"byteOffset":27884,"target":34963},{"buffer":0,"byteLength":2328,"byteOffset":29696,"target":34962},{"buffer":0,"byteLength":2328,"byteOffset":32024,"target":34962},{"buffer":0,"byteLength":1552,"byteOffset":34352,"target":34962},{"buffer":0,"byteLength":744,"byteOffset":35904,"target":34963},{"buffer":0,"byteLength":1056,"byteOffset":36648,"target":34962},{"buffer":0,"byteLength":1056,"byteOffset":37704,"target":34962},{"buffer":0,"byteLength":704,"byteOffset":38760,"target":34962},{"buffer":0,"byteLength":48,"byteOffset":39464,"target":34963},{"buffer":0,"byteLength":192,"byteOffset":39512,"target":34962},{"buffer":0,"byteLength":192,"byteOffset":39704,"target":34962},{"buffer":0,"byteLength":128,"byteOffset":39896,"target":34962}],"buffers":[{"byteLength":40024,"uri":"Candle_04.bin"}],"images":[{"name":"Candles_A","uri":"Candles_A.tga"},{"name":"1","uri":"1.psd"}],"materials":[{"alphaMode":"OPAQUE","doubleSided":false,"extras":{"fromFBX":{"isTruePBR":false,"shadingModel":"Phong"}},"name":"Candles","pbrMetallicRoughness":{"baseColorFactor":[1,1,1,1],"baseColorTexture":{"index":0,"texCoord":0},"metallicFactor":0.400000005960464,"roughnessFactor":0.272165536880493}},{"alphaMode":"OPAQUE","doubleSided":false,"extras":{"fromFBX":{"isTruePBR":false,"shadingModel":"Phong"}},"name":"Сandle_Flame","pbrMetallicRoughness":{"baseColorFactor":[1,1,1,1],"baseColorTexture":{"index":1,"texCoord":0},"metallicFactor":0.400000005960464,"roughnessFactor":0.272165536880493}}],"meshes":[{"name":"Candle_04_LOD0","primitives":[{"attributes":{"NORMAL":2,"POSITION":1,"TEXCOORD_0":3},"indices":0,"material":0,"mode":4}]},{"name":"Candle_04_LOD1","primitives":[{"attributes":{"NORMAL":6,"POSITION":5,"TEXCOORD_0":7},"indices":4,"material":0,"mode":4}]},{"name":"Candle_04_LOD2","primitives":[{"attributes":{"NORMAL":10,"POSITION":9,"TEXCOORD_0":11},"indices":8,"material":0,"mode":4}]},{"name":"Candle_Flame_04","primitives":[{"attributes":{"NORMAL":14,"POSITION":13,"TEXCOORD_0":15},"indices":12,"material":1,"mode":4}]}],"nodes":[{"mesh":0,"name":"Candle_04_LOD0","rotation":[0,0,0,1],"scale":[1,1,1],"translation":[0,0,0]},{"mesh":1,"name":"Candle_04_LOD1","rotation":[0,0,0,1],"scale":[1,1,1],"translation":[0,0,0]},{"mesh":2,"name":"Candle_04_LOD2","rotation":[0,0,0,1],"scale":[1,1,1],"translation":[0,0,0]},{"mesh":3,"name":"Candle_Flame_04","rotation":[0,0,0,1],"scale":[1,1,1],"translation":[0.00436067394912243,0.20188969373703,0.00368064641952515]}],"samplers":[{}],"scene":0,"scenes":[{"name":"Root Scene","nodes":[0,1,2,3]}],"textures":[{"name":"base_color_texture","sampler":0,"source":0},{"name":"base_color_texture","sampler":0,"source":1}]}