{"accessors":[{"bufferView":0,"byteOffset":0,"componentType":5123,"count":4512,"type":"SCALAR"},{"bufferView":1,"byteOffset":0,"componentType":5126,"count":856,"max":[0.0605848245322704,0.322287857532501,0.0667426288127899],"min":[-0.07494103908539,-0.00705779530108,-0.07687245309353],"type":"VEC3"},{"bufferView":2,"byteOffset":0,"componentType":5126,"count":856,"type":"VEC3"},{"bufferView":3,"byteOffset":0,"componentType":5126,"count":856,"type":"VEC2"},{"bufferView":4,"byteOffset":0,"componentType":5123,"count":1428,"type":"SCALAR"},{"bufferView":5,"byteOffset":0,"componentType":5126,"count":284,"max":[0.0609865598380566,0.322280466556549,0.0668103843927383],"min":[-0.07536712288857,-0.00748874899,-0.07687892019749],"type":"VEC3"},{"bufferView":6,"byteOffset":0,"componentType":5126,"count":284,"type":"VEC3"},{"bufferView":7,"byteOffset":0,"componentType":5126,"count":284,"type":"VEC2"},{"bufferView":8,"byteOffset":0,"componentType":5123,"count":339,"type":"SCALAR"},{"bufferView":9,"byteOffset":0,"componentType":5126,"count":81,"max":[0.0598547831177711,0.30922070145607,0.0654354244470596],"min":[-0.07553604990244,-0.00829923804849,-0.07764934003353],"type":"VEC3"},{"bufferView":10,"byteOffset":0,"componentType":5126,"count":81,"type":"VEC3"},{"bufferView":11,"byteOffset":0,"componentType":5126,"count":81,"type":"VEC2"},{"bufferView":12,"byteOffset":0,"componentType":5123,"count":24,"type":"SCALAR"},{"bufferView":13,"byteOffset":0,"componentType":5126,"count":16,"max":[0.0584985017776489,0.200827285647392,0.0578170381486416],"min":[-0.05713557079434,-0.02874699607491,-0.05781703814864],"type":"VEC3"},{"bufferView":14,"byteOffset":0,"componentType":5126,"count":16,"type":"VEC3"},{"bufferView":15,"byteOffset":0,"componentType":5126,"count":16,"type":"VEC2"}],"asset":{"generator":"FBX2glTF v0.13.1","version":"2.0"},"bufferViews":[{"buffer":0,"byteLength":9024,"byteOffset":0,"target":34963},{"buffer":0,"byteLength":10272,"byteOffset":9024,"target":34962},{"buffer":0,"byteLength":10272,"byteOffset":19296,"target":34962},{"buffer":0,"byteLength":6848,"byteOffset":29568,"target":34962},{"buffer":0,"byteLength":2856,"byteOffset":36416,"target":34963},{"buffer":0,"byteLength":3408,"byteOffset":39272,"target":34962},{"buffer":0,"byteLength":3408,"byteOffset":42680,"target":34962},{"buffer":0,"byteLength":2272,"byteOffset":46088,"target":34962},{"buffer":0,"byteLength":678,"byteOffset":48360,"target":34963},{"buffer":0,"byteLength":972,"byteOffset":49040,"target":34962},{"buffer":0,"byteLength":972,"byteOffset":50012,"target":34962},{"buffer":0,"byteLength":648,"byteOffset":50984,"target":34962},{"buffer":0,"byteLength":48,"byteOffset":51632,"target":34963},{"buffer":0,"byteLength":192,"byteOffset":51680,"target":34962},{"buffer":0,"byteLength":192,"byteOffset":51872,"target":34962},{"buffer":0,"byteLength":128,"byteOffset":52064,"target":34962}],"buffers":[{"byteLength":52192,"uri":"Candle_02.bin"}],"images":[{"name":"Candles_A","uri":"Candles_A.tga"},{"name":"1","uri":"1.psd"}],"materials":[{"alphaMode":"OPAQUE","doubleSided":false,"extras":{"fromFBX":{"isTruePBR":false,"shadingModel":"Phong"}},"name":"Candles","pbrMetallicRoughness":{"baseColorFactor":[1,1,1,1],"baseColorTexture":{"index":0,"texCoord":0},"metallicFactor":0.400000005960464,"roughnessFactor":0.272165536880493}},{"alphaMode":"OPAQUE","doubleSided":false,"extras":{"fromFBX":{"isTruePBR":false,"shadingModel":"Phong"}},"name":"Сandle_Flame","pbrMetallicRoughness":{"baseColorFactor":[1,1,1,1],"baseColorTexture":{"index":1,"texCoord":0},"metallicFactor":0.400000005960464,"roughnessFactor":0.272165536880493}}],"meshes":[{"name":"Candle_02_LOD0","primitives":[{"attributes":{"NORMAL":2,"POSITION":1,"TEXCOORD_0":3},"indices":0,"material":0,"mode":4}]},{"name":"Candle_02_LOD1","primitives":[{"attributes":{"NORMAL":6,"POSITION":5,"TEXCOORD_0":7},"indices":4,"material":0,"mode":4}]},{"name":"Candle_02_LOD2","primitives":[{"attributes":{"NORMAL":10,"POSITION":9,"TEXCOORD_0":11},"indices":8,"material":0,"mode":4}]},{"name":"Candle_Flame_02","primitives":[{"attributes":{"NORMAL":14,"POSITION":13,"TEXCOORD_0":15},"indices":12,"material":1,"mode":4}]}],"nodes":[{"mesh":0,"name":"Candle_02_LOD0","rotation":[0,0,0,1],"scale":[1,1,1],"translation":[0,0,0]},{"mesh":1,"name":"Candle_02_LOD1","rotation":[0,0,0,1],"scale":[1,1,1],"translation":[0,0,0]},{"mesh":2,"name":"Candle_02_LOD2","rotation":[0,0,0,1],"scale":[1,1,1],"translation":[0,0,0]},{"mesh":3,"name":"Candle_Flame_02","rotation":[0,0,0,1],"scale":[1,1,1],"translation":[-0.01018190011382,0.331984668970108,0.00030183792114257]}],"samplers":[{}],"scene":0,"scenes":[{"name":"Root Scene","nodes":[0,1,2,3]}],"textures":[{"name":"base_color_texture","sampler":0,"source":0},{"name":"base_color_texture","sampler":0,"source":1}]}