{"accessors":[{"bufferView":0,"byteOffset":0,"componentType":5123,"count":2655,"type":"SCALAR"},{"bufferView":1,"byteOffset":0,"componentType":5126,"count":577,"max":[0.0460585355758667,0.382016658782959,0.0460895001888275],"min":[-0.04602652415633,-0.00064182654023,-0.04599561914802],"type":"VEC3"},{"bufferView":2,"byteOffset":0,"componentType":5126,"count":577,"type":"VEC3"},{"bufferView":3,"byteOffset":0,"componentType":5126,"count":577,"type":"VEC2"},{"bufferView":4,"byteOffset":0,"componentType":5123,"count":1344,"type":"SCALAR"},{"bufferView":5,"byteOffset":0,"componentType":5126,"count":305,"max":[0.0460585355758667,0.382016718387604,0.0460895001888275],"min":[-0.04602652415633,-0.00064182665665,-0.04599561914802],"type":"VEC3"},{"bufferView":6,"byteOffset":0,"componentType":5126,"count":305,"type":"VEC3"},{"bufferView":7,"byteOffset":0,"componentType":5126,"count":305,"type":"VEC2"},{"bufferView":8,"byteOffset":0,"componentType":5123,"count":483,"type":"SCALAR"},{"bufferView":9,"byteOffset":0,"componentType":5126,"count":129,"max":[0.0462978966534138,0.373481273651123,0.0466595366597176],"min":[-0.04618052020669,-0.00070522760507,-0.04628328606486],"type":"VEC3"},{"bufferView":10,"byteOffset":0,"componentType":5126,"count":129,"type":"VEC3"},{"bufferView":11,"byteOffset":0,"componentType":5126,"count":129,"type":"VEC2"},{"bufferView":12,"byteOffset":0,"componentType":5123,"count":24,"type":"SCALAR"},{"bufferView":13,"byteOffset":0,"componentType":5126,"count":16,"max":[0.0230022873729467,0.0789676159620285,0.0227343272417784],"min":[-0.02246636897326,-0.01130365207791,-0.02273432724178],"type":"VEC3"},{"bufferView":14,"byteOffset":0,"componentType":5126,"count":16,"type":"VEC3"},{"bufferView":15,"byteOffset":0,"componentType":5126,"count":16,"type":"VEC2"}],"asset":{"generator":"FBX2glTF v0.13.1","version":"2.0"},"bufferViews":[{"buffer":0,"byteLength":5310,"byteOffset":0,"target":34963},{"buffer":0,"byteLength":6924,"byteOffset":5312,"target":34962},{"buffer":0,"byteLength":6924,"byteOffset":12236,"target":34962},{"buffer":0,"byteLength":4616,"byteOffset":19160,"target":34962},{"buffer":0,"byteLength":2688,"byteOffset":23776,"target":34963},{"buffer":0,"byteLength":3660,"byteOffset":26464,"target":34962},{"buffer":0,"byteLength":3660,"byteOffset":30124,"target":34962},{"buffer":0,"byteLength":2440,"byteOffset":33784,"target":34962},{"buffer":0,"byteLength":966,"byteOffset":36224,"target":34963},{"buffer":0,"byteLength":1548,"byteOffset":37192,"target":34962},{"buffer":0,"byteLength":1548,"byteOffset":38740,"target":34962},{"buffer":0,"byteLength":1032,"byteOffset":40288,"target":34962},{"buffer":0,"byteLength":48,"byteOffset":41320,"target":34963},{"buffer":0,"byteLength":192,"byteOffset":41368,"target":34962},{"buffer":0,"byteLength":192,"byteOffset":41560,"target":34962},{"buffer":0,"byteLength":128,"byteOffset":41752,"target":34962}],"buffers":[{"byteLength":41880,"uri":"Candle_06.bin"}],"images":[{"name":"Candles_A","uri":"Candles_A.tga"},{"name":"1","uri":"1.psd"}],"materials":[{"alphaMode":"OPAQUE","doubleSided":false,"extras":{"fromFBX":{"isTruePBR":false,"shadingModel":"Phong"}},"name":"Candles","pbrMetallicRoughness":{"baseColorFactor":[1,1,1,1],"baseColorTexture":{"index":0,"texCoord":0},"metallicFactor":0.400000005960464,"roughnessFactor":0.272165536880493}},{"alphaMode":"OPAQUE","doubleSided":false,"extras":{"fromFBX":{"isTruePBR":false,"shadingModel":"Phong"}},"name":"Сandle_Flame","pbrMetallicRoughness":{"baseColorFactor":[1,1,1,1],"baseColorTexture":{"index":1,"texCoord":0},"metallicFactor":0.400000005960464,"roughnessFactor":0.272165536880493}}],"meshes":[{"name":"Candle_06_LOD0","primitives":[{"attributes":{"NORMAL":2,"POSITION":1,"TEXCOORD_0":3},"indices":0,"material":0,"mode":4}]},{"name":"Candle_06_LOD1","primitives":[{"attributes":{"NORMAL":6,"POSITION":5,"TEXCOORD_0":7},"indices":4,"material":0,"mode":4}]},{"name":"Candle_06_LOD2","primitives":[{"attributes":{"NORMAL":10,"POSITION":9,"TEXCOORD_0":11},"indices":8,"material":0,"mode":4}]},{"name":"Candle_Flame_06","primitives":[{"attributes":{"NORMAL":14,"POSITION":13,"TEXCOORD_0":15},"indices":12,"material":1,"mode":4}]}],"nodes":[{"mesh":0,"name":"Candle_06_LOD0","rotation":[0,0,0,1],"scale":[1,1,1],"translation":[0,0,0]},{"mesh":1,"name":"Candle_06_LOD1","rotation":[0,0,0,1],"scale":[1,1,1],"translation":[0,0,0]},{"mesh":2,"name":"Candle_06_LOD2","rotation":[0,0,0,1],"scale":[1,1,1],"translation":[0,0,0]},{"mesh":3,"name":"Candle_Flame_06","rotation":[0,0,0,1],"scale":[1,1,1],"translation":[-0.00015266187256,0.38383224606514,-0.00430454965681]}],"samplers":[{}],"scene":0,"scenes":[{"name":"Root Scene","nodes":[0,1,2,3]}],"textures":[{"name":"base_color_texture","sampler":0,"source":0},{"name":"base_color_texture","sampler":0,"source":1}]}