{"accessors":[{"bufferView":0,"byteOffset":0,"componentType":5123,"count":3810,"type":"SCALAR"},{"bufferView":1,"byteOffset":0,"componentType":5126,"count":737,"max":[0.0660395622253418,0.247531041502953,0.0866575241088867],"min":[-0.11037939786911,-0.00763923628256,-0.08992290496826],"type":"VEC3"},{"bufferView":2,"byteOffset":0,"componentType":5126,"count":737,"type":"VEC3"},{"bufferView":3,"byteOffset":0,"componentType":5126,"count":737,"type":"VEC2"},{"bufferView":4,"byteOffset":0,"componentType":5123,"count":873,"type":"SCALAR"},{"bufferView":5,"byteOffset":0,"componentType":5126,"count":186,"max":[0.0661441907286644,0.24748969078064,0.0854599252343178],"min":[-0.10832379758358,-0.00709141697735,-0.09123922139406],"type":"VEC3"},{"bufferView":6,"byteOffset":0,"componentType":5126,"count":186,"type":"VEC3"},{"bufferView":7,"byteOffset":0,"componentType":5126,"count":186,"type":"VEC2"},{"bufferView":8,"byteOffset":0,"componentType":5123,"count":285,"type":"SCALAR"},{"bufferView":9,"byteOffset":0,"componentType":5126,"count":70,"max":[0.0621165744960308,0.23035229742527,0.0847452729940414],"min":[-0.10560402274132,-0.00651794532314,-0.08592507988214],"type":"VEC3"},{"bufferView":10,"byteOffset":0,"componentType":5126,"count":70,"type":"VEC3"},{"bufferView":11,"byteOffset":0,"componentType":5126,"count":70,"type":"VEC2"},{"bufferView":12,"byteOffset":0,"componentType":5123,"count":24,"type":"SCALAR"},{"bufferView":13,"byteOffset":0,"componentType":5126,"count":16,"max":[0.0456019453704357,0.156552985310555,0.0450707152485847],"min":[-0.04453948885202,-0.02240944653749,-0.04507071524858],"type":"VEC3"},{"bufferView":14,"byteOffset":0,"componentType":5126,"count":16,"type":"VEC3"},{"bufferView":15,"byteOffset":0,"componentType":5126,"count":16,"type":"VEC2"}],"asset":{"generator":"FBX2glTF v0.13.1","version":"2.0"},"bufferViews":[{"buffer":0,"byteLength":7620,"byteOffset":0,"target":34963},{"buffer":0,"byteLength":8844,"byteOffset":7620,"target":34962},{"buffer":0,"byteLength":8844,"byteOffset":16464,"target":34962},{"buffer":0,"byteLength":5896,"byteOffset":25308,"target":34962},{"buffer":0,"byteLength":1746,"byteOffset":31204,"target":34963},{"buffer":0,"byteLength":2232,"byteOffset":32952,"target":34962},{"buffer":0,"byteLength":2232,"byteOffset":35184,"target":34962},{"buffer":0,"byteLength":1488,"byteOffset":37416,"target":34962},{"buffer":0,"byteLength":570,"byteOffset":38904,"target":34963},{"buffer":0,"byteLength":840,"byteOffset":39476,"target":34962},{"buffer":0,"byteLength":840,"byteOffset":40316,"target":34962},{"buffer":0,"byteLength":560,"byteOffset":41156,"target":34962},{"buffer":0,"byteLength":48,"byteOffset":41716,"target":34963},{"buffer":0,"byteLength":192,"byteOffset":41764,"target":34962},{"buffer":0,"byteLength":192,"byteOffset":41956,"target":34962},{"buffer":0,"byteLength":128,"byteOffset":42148,"target":34962}],"buffers":[{"byteLength":42276,"uri":"Candle_03.bin"}],"images":[{"name":"Candles_A","uri":"Candles_A.tga"},{"name":"1","uri":"1.psd"}],"materials":[{"alphaMode":"OPAQUE","doubleSided":false,"extras":{"fromFBX":{"isTruePBR":false,"shadingModel":"Phong"}},"name":"Candles","pbrMetallicRoughness":{"baseColorFactor":[1,1,1,1],"baseColorTexture":{"index":0,"texCoord":0},"metallicFactor":0.400000005960464,"roughnessFactor":0.272165536880493}},{"alphaMode":"OPAQUE","doubleSided":false,"extras":{"fromFBX":{"isTruePBR":false,"shadingModel":"Phong"}},"name":"Сandle_Flame","pbrMetallicRoughness":{"baseColorFactor":[1,1,1,1],"baseColorTexture":{"index":1,"texCoord":0},"metallicFactor":0.400000005960464,"roughnessFactor":0.272165536880493}}],"meshes":[{"name":"Candle_03_LOD0","primitives":[{"attributes":{"NORMAL":2,"POSITION":1,"TEXCOORD_0":3},"indices":0,"material":0,"mode":4}]},{"name":"Candle_03_LOD1","primitives":[{"attributes":{"NORMAL":6,"POSITION":5,"TEXCOORD_0":7},"indices":4,"material":0,"mode":4}]},{"name":"Candle_03_LOD2","primitives":[{"attributes":{"NORMAL":10,"POSITION":9,"TEXCOORD_0":11},"indices":8,"material":0,"mode":4}]},{"name":"Candle_Flame_03","primitives":[{"attributes":{"NORMAL":14,"POSITION":13,"TEXCOORD_0":15},"indices":12,"material":1,"mode":4}]}],"nodes":[{"mesh":0,"name":"Candle_03_LOD0","rotation":[0,0,0,1],"scale":[1,1,1],"translation":[0,0,0]},{"mesh":3,"name":"Candle_Flame_03","rotation":[0,0,0,1],"scale":[1,1,1],"translation":[-0.01564830355346,0.252725929021835,0.0013728141784668]},{"mesh":1,"name":"Candle_03_LOD1","rotation":[0,0,0,1],"scale":[1,1,1],"translation":[0,0,0]},{"mesh":2,"name":"Candle_03_LOD2","rotation":[0,0,0,1],"scale":[1,1,1],"translation":[0,0,0]}],"samplers":[{}],"scene":0,"scenes":[{"name":"Root Scene","nodes":[0,1,2,3]}],"textures":[{"name":"base_color_texture","sampler":0,"source":0},{"name":"base_color_texture","sampler":0,"source":1}]}