{"accessors":[{"bufferView":0,"byteOffset":0,"componentType":5123,"count":2277,"type":"SCALAR"},{"bufferView":1,"byteOffset":0,"componentType":5126,"count":449,"max":[0.0549767017364502,0.173542514443398,0.0455120876431465],"min":[-0.05208075046539,-0.0007206350565,-0.04027735069394],"type":"VEC3"},{"bufferView":2,"byteOffset":0,"componentType":5126,"count":449,"type":"VEC3"},{"bufferView":3,"byteOffset":0,"componentType":5126,"count":449,"type":"VEC2"},{"bufferView":4,"byteOffset":0,"componentType":5123,"count":975,"type":"SCALAR"},{"bufferView":5,"byteOffset":0,"componentType":5126,"count":213,"max":[0.0552235692739487,0.173542454838753,0.0454662702977657],"min":[-0.05208075046539,-0.00121696968563,-0.04027735069394],"type":"VEC3"},{"bufferView":6,"byteOffset":0,"componentType":5126,"count":213,"type":"VEC3"},{"bufferView":7,"byteOffset":0,"componentType":5126,"count":213,"type":"VEC2"},{"bufferView":8,"byteOffset":0,"componentType":5123,"count":156,"type":"SCALAR"},{"bufferView":9,"byteOffset":0,"componentType":5126,"count":52,"max":[0.0566773749887943,0.174354165792465,0.0420111566781998],"min":[-0.04302362725139,-0.00084723165492,-0.04022829607129],"type":"VEC3"},{"bufferView":10,"byteOffset":0,"componentType":5126,"count":52,"type":"VEC3"},{"bufferView":11,"byteOffset":0,"componentType":5126,"count":52,"type":"VEC2"},{"bufferView":12,"byteOffset":0,"componentType":5123,"count":24,"type":"SCALAR"},{"bufferView":13,"byteOffset":0,"componentType":5126,"count":16,"max":[0.0456019453704357,0.156552985310555,0.0450707152485847],"min":[-0.04453948885202,-0.02240944653749,-0.04507071524858],"type":"VEC3"},{"bufferView":14,"byteOffset":0,"componentType":5126,"count":16,"type":"VEC3"},{"bufferView":15,"byteOffset":0,"componentType":5126,"count":16,"type":"VEC2"}],"asset":{"generator":"FBX2glTF v0.13.1","version":"2.0"},"bufferViews":[{"buffer":0,"byteLength":4554,"byteOffset":0,"target":34963},{"buffer":0,"byteLength":5388,"byteOffset":4556,"target":34962},{"buffer":0,"byteLength":5388,"byteOffset":9944,"target":34962},{"buffer":0,"byteLength":3592,"byteOffset":15332,"target":34962},{"buffer":0,"byteLength":1950,"byteOffset":18924,"target":34963},{"buffer":0,"byteLength":2556,"byteOffset":20876,"target":34962},{"buffer":0,"byteLength":2556,"byteOffset":23432,"target":34962},{"buffer":0,"byteLength":1704,"byteOffset":25988,"target":34962},{"buffer":0,"byteLength":312,"byteOffset":27692,"target":34963},{"buffer":0,"byteLength":624,"byteOffset":28004,"target":34962},{"buffer":0,"byteLength":624,"byteOffset":28628,"target":34962},{"buffer":0,"byteLength":416,"byteOffset":29252,"target":34962},{"buffer":0,"byteLength":48,"byteOffset":29668,"target":34963},{"buffer":0,"byteLength":192,"byteOffset":29716,"target":34962},{"buffer":0,"byteLength":192,"byteOffset":29908,"target":34962},{"buffer":0,"byteLength":128,"byteOffset":30100,"target":34962}],"buffers":[{"byteLength":30228,"uri":"Candle_01.bin"}],"images":[{"name":"Candles_A","uri":"Candles_A.tga"},{"name":"1","uri":"1.psd"}],"materials":[{"alphaMode":"OPAQUE","doubleSided":false,"extras":{"fromFBX":{"isTruePBR":false,"shadingModel":"Phong"}},"name":"Candles","pbrMetallicRoughness":{"baseColorFactor":[1,1,1,1],"baseColorTexture":{"index":0,"texCoord":0},"metallicFactor":0.400000005960464,"roughnessFactor":0.272165536880493}},{"alphaMode":"OPAQUE","doubleSided":false,"extras":{"fromFBX":{"isTruePBR":false,"shadingModel":"Phong"}},"name":"Сandle_Flame","pbrMetallicRoughness":{"baseColorFactor":[1,1,1,1],"baseColorTexture":{"index":1,"texCoord":0},"metallicFactor":0.400000005960464,"roughnessFactor":0.272165536880493}}],"meshes":[{"name":"Candle_01_LOD0","primitives":[{"attributes":{"NORMAL":2,"POSITION":1,"TEXCOORD_0":3},"indices":0,"material":0,"mode":4}]},{"name":"Candle_01_LOD1","primitives":[{"attributes":{"NORMAL":6,"POSITION":5,"TEXCOORD_0":7},"indices":4,"material":0,"mode":4}]},{"name":"Candle_01_LOD2","primitives":[{"attributes":{"NORMAL":10,"POSITION":9,"TEXCOORD_0":11},"indices":8,"material":0,"mode":4}]},{"name":"Candle_Flame_01","primitives":[{"attributes":{"NORMAL":14,"POSITION":13,"TEXCOORD_0":15},"indices":12,"material":1,"mode":4}]}],"nodes":[{"mesh":0,"name":"Candle_01_LOD0","rotation":[0,0,0,1],"scale":[1,1,1],"translation":[0,0,0]},{"mesh":1,"name":"Candle_01_LOD1","rotation":[0,0,0,1],"scale":[1,1,1],"translation":[0,0,0]},{"mesh":2,"name":"Candle_01_LOD2","rotation":[0,0,0,1],"scale":[1,1,1],"translation":[0,0,0]},{"mesh":3,"name":"Candle_Flame_01","rotation":[0,0,0,1],"scale":[1,1,1],"translation":[0.0176275242120028,0.187528237700462,0.0158271789550781]}],"samplers":[{}],"scene":0,"scenes":[{"name":"Root Scene","nodes":[0,1,2,3]}],"textures":[{"name":"base_color_texture","sampler":0,"source":0},{"name":"base_color_texture","sampler":0,"source":1}]}