{"accessors":[{"bufferView":0,"byteOffset":0,"componentType":5123,"count":6066,"type":"SCALAR"},{"bufferView":1,"byteOffset":0,"componentType":5126,"count":1507,"max":[0.0894312635064125,0.262982428073883,0.0956283584237099],"min":[-0.05679616332054,-0.00138618797064,-0.10104905813932],"type":"VEC3"},{"bufferView":2,"byteOffset":0,"componentType":5126,"count":1507,"type":"VEC3"},{"bufferView":3,"byteOffset":0,"componentType":5126,"count":1507,"type":"VEC2"},{"bufferView":4,"byteOffset":0,"componentType":5123,"count":2922,"type":"SCALAR"},{"bufferView":5,"byteOffset":0,"componentType":5126,"count":847,"max":[0.0891437157988548,0.262982428073883,0.0956283584237099],"min":[-0.05679616332054,-0.00152690673713,-0.10104905813932],"type":"VEC3"},{"bufferView":6,"byteOffset":0,"componentType":5126,"count":847,"type":"VEC3"},{"bufferView":7,"byteOffset":0,"componentType":5126,"count":847,"type":"VEC2"},{"bufferView":8,"byteOffset":0,"componentType":5123,"count":582,"type":"SCALAR"},{"bufferView":9,"byteOffset":0,"componentType":5126,"count":215,"max":[0.0704675614833832,0.232416421175003,0.0967456698417664],"min":[-0.05347518250346,-0.00111275736708,-0.1022622063756],"type":"VEC3"},{"bufferView":10,"byteOffset":0,"componentType":5126,"count":215,"type":"VEC3"},{"bufferView":11,"byteOffset":0,"componentType":5126,"count":215,"type":"VEC2"},{"bufferView":12,"byteOffset":0,"componentType":5123,"count":102,"type":"SCALAR"},{"bufferView":13,"byteOffset":0,"componentType":5126,"count":24,"max":[-0.02607733011246,0.177592813968658,0.062453530728817],"min":[-0.05147361755371,0.0495117381215096,-0.06797602027655],"type":"VEC3"},{"bufferView":14,"byteOffset":0,"componentType":5126,"count":24,"type":"VEC3"},{"bufferView":15,"byteOffset":0,"componentType":5126,"count":24,"type":"VEC2"},{"bufferView":16,"byteOffset":0,"componentType":5123,"count":66,"type":"SCALAR"},{"bufferView":17,"byteOffset":0,"componentType":5126,"count":18,"max":[-0.02607733011246,0.177592813968658,0.062453530728817],"min":[-0.05175591260195,0.0495117381215096,-0.06797602027655],"type":"VEC3"},{"bufferView":18,"byteOffset":0,"componentType":5126,"count":18,"type":"VEC3"},{"bufferView":19,"byteOffset":0,"componentType":5126,"count":18,"type":"VEC2"},{"bufferView":20,"byteOffset":0,"componentType":5123,"count":42,"type":"SCALAR"},{"bufferView":21,"byteOffset":0,"componentType":5126,"count":14,"max":[-0.02607733011246,0.177592813968658,0.062453530728817],"min":[-0.05110279098153,0.0495117381215096,-0.06797602027655],"type":"VEC3"},{"bufferView":22,"byteOffset":0,"componentType":5126,"count":14,"type":"VEC3"},{"bufferView":23,"byteOffset":0,"componentType":5126,"count":14,"type":"VEC2"}],"asset":{"generator":"FBX2glTF v0.13.1","version":"2.0"},"bufferViews":[{"buffer":0,"byteLength":12132,"byteOffset":0,"target":34963},{"buffer":0,"byteLength":18084,"byteOffset":12132,"target":34962},{"buffer":0,"byteLength":18084,"byteOffset":30216,"target":34962},{"buffer":0,"byteLength":12056,"byteOffset":48300,"target":34962},{"buffer":0,"byteLength":5844,"byteOffset":60356,"target":34963},{"buffer":0,"byteLength":10164,"byteOffset":66200,"target":34962},{"buffer":0,"byteLength":10164,"byteOffset":76364,"target":34962},{"buffer":0,"byteLength":6776,"byteOffset":86528,"target":34962},{"buffer":0,"byteLength":1164,"byteOffset":93304,"target":34963},{"buffer":0,"byteLength":2580,"byteOffset":94468,"target":34962},{"buffer":0,"byteLength":2580,"byteOffset":97048,"target":34962},{"buffer":0,"byteLength":1720,"byteOffset":99628,"target":34962},{"buffer":0,"byteLength":204,"byteOffset":101348,"target":34963},{"buffer":0,"byteLength":288,"byteOffset":101552,"target":34962},{"buffer":0,"byteLength":288,"byteOffset":101840,"target":34962},{"buffer":0,"byteLength":192,"byteOffset":102128,"target":34962},{"buffer":0,"byteLength":132,"byteOffset":102320,"target":34963},{"buffer":0,"byteLength":216,"byteOffset":102452,"target":34962},{"buffer":0,"byteLength":216,"byteOffset":102668,"target":34962},{"buffer":0,"byteLength":144,"byteOffset":102884,"target":34962},{"buffer":0,"byteLength":84,"byteOffset":103028,"target":34963},{"buffer":0,"byteLength":168,"byteOffset":103112,"target":34962},{"buffer":0,"byteLength":168,"byteOffset":103280,"target":34962},{"buffer":0,"byteLength":112,"byteOffset":103448,"target":34962}],"buffers":[{"byteLength":103560,"uri":"Clock.bin"}],"images":[{"name":"Shelf_A","uri":"Shelf_A.tga"},{"name":"Glass_A","uri":"Glass_A.tga"}],"materials":[{"alphaMode":"OPAQUE","doubleSided":false,"extras":{"fromFBX":{"isTruePBR":false,"shadingModel":"Phong"}},"name":"Shelf","pbrMetallicRoughness":{"baseColorFactor":[1,1,1,1],"baseColorTexture":{"index":0,"texCoord":0},"metallicFactor":0.400000005960464,"roughnessFactor":0.272165536880493}},{"alphaMode":"OPAQUE","doubleSided":false,"extras":{"fromFBX":{"isTruePBR":false,"shadingModel":"Phong"}},"name":"Glass(Fade)","pbrMetallicRoughness":{"baseColorFactor":[1,1,1,1],"baseColorTexture":{"index":1,"texCoord":0},"metallicFactor":0.400000005960464,"roughnessFactor":0.272165536880493}}],"meshes":[{"name":"Clock_LOD0","primitives":[{"attributes":{"NORMAL":2,"POSITION":1,"TEXCOORD_0":3},"indices":0,"material":0,"mode":4},{"attributes":{"NORMAL":14,"POSITION":13,"TEXCOORD_0":15},"indices":12,"material":1,"mode":4}]},{"name":"Clock_LOD1","primitives":[{"attributes":{"NORMAL":6,"POSITION":5,"TEXCOORD_0":7},"indices":4,"material":0,"mode":4},{"attributes":{"NORMAL":18,"POSITION":17,"TEXCOORD_0":19},"indices":16,"material":1,"mode":4}]},{"name":"Clock_LOD2","primitives":[{"attributes":{"NORMAL":10,"POSITION":9,"TEXCOORD_0":11},"indices":8,"material":0,"mode":4},{"attributes":{"NORMAL":22,"POSITION":21,"TEXCOORD_0":23},"indices":20,"material":1,"mode":4}]}],"nodes":[{"mesh":0,"name":"Clock_LOD0","rotation":[0,0,0,1],"scale":[1,1,1],"translation":[0,0,0]},{"mesh":1,"name":"Clock_LOD1","rotation":[0,0,0,1],"scale":[1,1,1],"translation":[0,0,0]},{"mesh":2,"name":"Clock_LOD2","rotation":[0,0,0,1],"scale":[1,1,1],"translation":[0,0,0]}],"samplers":[{}],"scene":0,"scenes":[{"name":"Root Scene","nodes":[0,1,2]}],"textures":[{"name":"base_color_texture","sampler":0,"source":0},{"name":"base_color_texture","sampler":0,"source":1}]}