{"accessors":[{"bufferView":0,"byteOffset":0,"componentType":5123,"count":618,"type":"SCALAR"},{"bufferView":1,"byteOffset":0,"componentType":5126,"count":220,"max":[-0.00000011920929,0.177983343601227,0.159444332122803],"min":[-0.03576993942261,-0.30277660489082,-0.15538287162781],"type":"VEC3"},{"bufferView":2,"byteOffset":0,"componentType":5126,"count":220,"type":"VEC3"},{"bufferView":3,"byteOffset":0,"componentType":5126,"count":220,"type":"VEC2"},{"bufferView":4,"byteOffset":0,"componentType":5123,"count":330,"type":"SCALAR"},{"bufferView":5,"byteOffset":0,"componentType":5126,"count":188,"max":[-0.00000011920929,0.174302875995636,0.155763626098633],"min":[-0.03576993942261,-0.29909604787826,-0.15170240402222],"type":"VEC3"},{"bufferView":6,"byteOffset":0,"componentType":5126,"count":188,"type":"VEC3"},{"bufferView":7,"byteOffset":0,"componentType":5126,"count":188,"type":"VEC2"}],"asset":{"generator":"FBX2glTF v0.13.1","version":"2.0"},"bufferViews":[{"buffer":0,"byteLength":1236,"byteOffset":0,"target":34963},{"buffer":0,"byteLength":2640,"byteOffset":1236,"target":34962},{"buffer":0,"byteLength":2640,"byteOffset":3876,"target":34962},{"buffer":0,"byteLength":1760,"byteOffset":6516,"target":34962},{"buffer":0,"byteLength":660,"byteOffset":8276,"target":34963},{"buffer":0,"byteLength":2256,"byteOffset":8936,"target":34962},{"buffer":0,"byteLength":2256,"byteOffset":11192,"target":34962},{"buffer":0,"byteLength":1504,"byteOffset":13448,"target":34962}],"buffers":[{"byteLength":14952,"uri":"Cross.bin"}],"images":[{"name":"Shelf_A","uri":"Shelf_A.tga"}],"materials":[{"alphaMode":"OPAQUE","doubleSided":false,"extras":{"fromFBX":{"isTruePBR":false,"shadingModel":"Phong"}},"name":"Shelf","pbrMetallicRoughness":{"baseColorFactor":[1,1,1,1],"baseColorTexture":{"index":0,"texCoord":0},"metallicFactor":0.400000005960464,"roughnessFactor":0.272165536880493}}],"meshes":[{"name":"Cross_LOD0","primitives":[{"attributes":{"NORMAL":2,"POSITION":1,"TEXCOORD_0":3},"indices":0,"material":0,"mode":4}]},{"name":"Cross_LOD1","primitives":[{"attributes":{"NORMAL":6,"POSITION":5,"TEXCOORD_0":7},"indices":4,"material":0,"mode":4}]}],"nodes":[{"mesh":0,"name":"Cross_LOD0","rotation":[0,0,0,1],"scale":[1,1,1],"translation":[0,0,0]},{"mesh":1,"name":"Cross_LOD1","rotation":[0,0,0,1],"scale":[1,1,1],"translation":[0,0,0]}],"samplers":[{}],"scene":0,"scenes":[{"name":"Root Scene","nodes":[0,1]}],"textures":[{"name":"base_color_texture","sampler":0,"source":0}]}