{"accessors":[{"bufferView":0,"byteOffset":0,"componentType":5123,"count":1512,"type":"SCALAR"},{"bufferView":1,"byteOffset":0,"componentType":5126,"count":343,"max":[0.0574502348899841,0.126279056072235,0.0579867362976074],"min":[-0.05646252632141,0.00180844217538834,-0.08670091629028],"type":"VEC3"},{"bufferView":2,"byteOffset":0,"componentType":5126,"count":343,"type":"VEC3"},{"bufferView":3,"byteOffset":0,"componentType":5126,"count":343,"type":"VEC2"},{"bufferView":4,"byteOffset":0,"componentType":5123,"count":996,"type":"SCALAR"},{"bufferView":5,"byteOffset":0,"componentType":5126,"count":286,"max":[0.0574502348899841,0.126279056072235,0.0579867362976074],"min":[-0.05646252632141,0.00180844217538834,-0.08670091629028],"type":"VEC3"},{"bufferView":6,"byteOffset":0,"componentType":5126,"count":286,"type":"VEC3"},{"bufferView":7,"byteOffset":0,"componentType":5126,"count":286,"type":"VEC2"},{"bufferView":8,"byteOffset":0,"componentType":5123,"count":450,"type":"SCALAR"},{"bufferView":9,"byteOffset":0,"componentType":5126,"count":163,"max":[0.0574233941733837,0.126823887228966,0.0575481653213501],"min":[-0.056162212044,0.00165154738351703,-0.08560018241405],"type":"VEC3"},{"bufferView":10,"byteOffset":0,"componentType":5126,"count":163,"type":"VEC3"},{"bufferView":11,"byteOffset":0,"componentType":5126,"count":163,"type":"VEC2"}],"asset":{"generator":"FBX2glTF v0.13.1","version":"2.0"},"bufferViews":[{"buffer":0,"byteLength":3024,"byteOffset":0,"target":34963},{"buffer":0,"byteLength":4116,"byteOffset":3024,"target":34962},{"buffer":0,"byteLength":4116,"byteOffset":7140,"target":34962},{"buffer":0,"byteLength":2744,"byteOffset":11256,"target":34962},{"buffer":0,"byteLength":1992,"byteOffset":14000,"target":34963},{"buffer":0,"byteLength":3432,"byteOffset":15992,"target":34962},{"buffer":0,"byteLength":3432,"byteOffset":19424,"target":34962},{"buffer":0,"byteLength":2288,"byteOffset":22856,"target":34962},{"buffer":0,"byteLength":900,"byteOffset":25144,"target":34963},{"buffer":0,"byteLength":1956,"byteOffset":26044,"target":34962},{"buffer":0,"byteLength":1956,"byteOffset":28000,"target":34962},{"buffer":0,"byteLength":1304,"byteOffset":29956,"target":34962}],"buffers":[{"byteLength":31260,"uri":"Cup.bin"}],"images":[{"name":"Shelf_A","uri":"Shelf_A.tga"}],"materials":[{"alphaMode":"OPAQUE","doubleSided":false,"extras":{"fromFBX":{"isTruePBR":false,"shadingModel":"Phong"}},"name":"Shelf","pbrMetallicRoughness":{"baseColorFactor":[1,1,1,1],"baseColorTexture":{"index":0,"texCoord":0},"metallicFactor":0.400000005960464,"roughnessFactor":0.272165536880493}}],"meshes":[{"name":"Cup_LOD0","primitives":[{"attributes":{"NORMAL":2,"POSITION":1,"TEXCOORD_0":3},"indices":0,"material":0,"mode":4}]},{"name":"Cup_LOD1","primitives":[{"attributes":{"NORMAL":6,"POSITION":5,"TEXCOORD_0":7},"indices":4,"material":0,"mode":4}]},{"name":"Cup_LOD2","primitives":[{"attributes":{"NORMAL":10,"POSITION":9,"TEXCOORD_0":11},"indices":8,"material":0,"mode":4}]}],"nodes":[{"mesh":0,"name":"Cup_LOD0","rotation":[0,0,0,1],"scale":[1,1,1],"translation":[0,0,0]},{"mesh":1,"name":"Cup_LOD1","rotation":[0,0,0,1],"scale":[1,1,1],"translation":[0,0,0]},{"mesh":2,"name":"Cup_LOD2","rotation":[0,0,0,1],"scale":[1,1,1],"translation":[0,0,0]}],"samplers":[{}],"scene":0,"scenes":[{"name":"Root Scene","nodes":[0,1,2]}],"textures":[{"name":"base_color_texture","sampler":0,"source":0}]}