{"accessors":[{"bufferView":0,"byteOffset":0,"componentType":5123,"count":2724,"type":"SCALAR"},{"bufferView":1,"byteOffset":0,"componentType":5126,"count":573,"max":[0.0756669044494629,0.153992712497711,0.0756669044494629],"min":[-0.07566690444946,-0.00000000004087,-0.07566690444946],"type":"VEC3"},{"bufferView":2,"byteOffset":0,"componentType":5126,"count":573,"type":"VEC3"},{"bufferView":3,"byteOffset":0,"componentType":5126,"count":573,"type":"VEC2"},{"bufferView":4,"byteOffset":0,"componentType":5123,"count":1374,"type":"SCALAR"},{"bufferView":5,"byteOffset":0,"componentType":5126,"count":311,"max":[0.0756669044494629,0.153992712497711,0.0753838643431664],"min":[-0.07538390159607,-0.00000000004087,-0.07566690444946],"type":"VEC3"},{"bufferView":6,"byteOffset":0,"componentType":5126,"count":311,"type":"VEC3"},{"bufferView":7,"byteOffset":0,"componentType":5126,"count":311,"type":"VEC2"},{"bufferView":8,"byteOffset":0,"componentType":5123,"count":540,"type":"SCALAR"},{"bufferView":9,"byteOffset":0,"componentType":5126,"count":136,"max":[0.0758021399378777,0.154263362288475,0.0770785510540009],"min":[-0.07470761239529,-0.00015563768102,-0.07547417283058],"type":"VEC3"},{"bufferView":10,"byteOffset":0,"componentType":5126,"count":136,"type":"VEC3"},{"bufferView":11,"byteOffset":0,"componentType":5126,"count":136,"type":"VEC2"}],"asset":{"generator":"FBX2glTF v0.13.1","version":"2.0"},"bufferViews":[{"buffer":0,"byteLength":5448,"byteOffset":0,"target":34963},{"buffer":0,"byteLength":6876,"byteOffset":5448,"target":34962},{"buffer":0,"byteLength":6876,"byteOffset":12324,"target":34962},{"buffer":0,"byteLength":4584,"byteOffset":19200,"target":34962},{"buffer":0,"byteLength":2748,"byteOffset":23784,"target":34963},{"buffer":0,"byteLength":3732,"byteOffset":26532,"target":34962},{"buffer":0,"byteLength":3732,"byteOffset":30264,"target":34962},{"buffer":0,"byteLength":2488,"byteOffset":33996,"target":34962},{"buffer":0,"byteLength":1080,"byteOffset":36484,"target":34963},{"buffer":0,"byteLength":1632,"byteOffset":37564,"target":34962},{"buffer":0,"byteLength":1632,"byteOffset":39196,"target":34962},{"buffer":0,"byteLength":1088,"byteOffset":40828,"target":34962}],"buffers":[{"byteLength":41916,"uri":"Cup_02.bin"}],"images":[{"name":"Candles_A","uri":"Candles_A.tga"}],"materials":[{"alphaMode":"OPAQUE","doubleSided":false,"extras":{"fromFBX":{"isTruePBR":false,"shadingModel":"Phong"}},"name":"Candles","pbrMetallicRoughness":{"baseColorFactor":[1,1,1,1],"baseColorTexture":{"index":0,"texCoord":0},"metallicFactor":0.400000005960464,"roughnessFactor":0.272165536880493}}],"meshes":[{"name":"Cup_02_LOD0","primitives":[{"attributes":{"NORMAL":2,"POSITION":1,"TEXCOORD_0":3},"indices":0,"material":0,"mode":4}]},{"name":"Cup_02_LOD1","primitives":[{"attributes":{"NORMAL":6,"POSITION":5,"TEXCOORD_0":7},"indices":4,"material":0,"mode":4}]},{"name":"Cup_02_LOD2","primitives":[{"attributes":{"NORMAL":10,"POSITION":9,"TEXCOORD_0":11},"indices":8,"material":0,"mode":4}]}],"nodes":[{"mesh":0,"name":"Cup_02_LOD0","rotation":[0,0,0,1],"scale":[1,1,1],"translation":[0,0,0]},{"mesh":1,"name":"Cup_02_LOD1","rotation":[0,0,0,1],"scale":[1,1,1],"translation":[0,0,0]},{"mesh":2,"name":"Cup_02_LOD2","rotation":[0,0,0,1],"scale":[1,1,1],"translation":[0,0,0]}],"samplers":[{}],"scene":0,"scenes":[{"name":"Root Scene","nodes":[0,1,2]}],"textures":[{"name":"base_color_texture","sampler":0,"source":0}]}