{"accessors":[{"bufferView":0,"byteOffset":0,"componentType":5123,"count":14520,"type":"SCALAR"},{"bufferView":1,"byteOffset":0,"componentType":5126,"count":2553,"max":[-0.09675386548042,0.64432168006897,0.670932531356812],"min":[-0.16950881481171,-0.29882025718689,-0.60028147697449],"type":"VEC3"},{"bufferView":2,"byteOffset":0,"componentType":5126,"count":2553,"type":"VEC3"},{"bufferView":3,"byteOffset":0,"componentType":5126,"count":2553,"type":"VEC2"},{"bufferView":4,"byteOffset":0,"componentType":5123,"count":6306,"type":"SCALAR"},{"bufferView":5,"byteOffset":0,"componentType":5126,"count":1154,"max":[-0.09675386548042,0.644470751285553,0.670932531356812],"min":[-0.16950881481171,-0.29894214868545,-0.60028147697449],"type":"VEC3"},{"bufferView":6,"byteOffset":0,"componentType":5126,"count":1154,"type":"VEC3"},{"bufferView":7,"byteOffset":0,"componentType":5126,"count":1154,"type":"VEC2"},{"bufferView":8,"byteOffset":0,"componentType":5123,"count":303,"type":"SCALAR"},{"bufferView":9,"byteOffset":0,"componentType":5126,"count":79,"max":[-0.09749395400286,0.645283341407776,0.670309901237488],"min":[-0.16658818721771,-0.29779231548309,-0.60455006361008],"type":"VEC3"},{"bufferView":10,"byteOffset":0,"componentType":5126,"count":79,"type":"VEC3"},{"bufferView":11,"byteOffset":0,"componentType":5126,"count":79,"type":"VEC2"},{"bufferView":12,"byteOffset":0,"componentType":5123,"count":5124,"type":"SCALAR"},{"bufferView":13,"byteOffset":0,"componentType":5126,"count":1670,"max":[0.00473105907440186,0.696936070919037,0.757663726806641],"min":[-0.15753304958344,0.617801666259766,-0.66373866796493],"type":"VEC3"},{"bufferView":14,"byteOffset":0,"componentType":5126,"count":1670,"type":"VEC3"},{"bufferView":15,"byteOffset":0,"componentType":5126,"count":1670,"type":"VEC2"},{"bufferView":16,"byteOffset":0,"componentType":5123,"count":3774,"type":"SCALAR"},{"bufferView":17,"byteOffset":0,"componentType":5126,"count":1165,"max":[0.00473105907440186,0.696936070919037,0.757663726806641],"min":[-0.15753304958344,0.617801666259766,-0.66373866796493],"type":"VEC3"},{"bufferView":18,"byteOffset":0,"componentType":5126,"count":1165,"type":"VEC3"},{"bufferView":19,"byteOffset":0,"componentType":5126,"count":1165,"type":"VEC2"},{"bufferView":20,"byteOffset":0,"componentType":5123,"count":102,"type":"SCALAR"},{"bufferView":21,"byteOffset":0,"componentType":5126,"count":51,"max":[0.00486439792439342,0.693751275539398,0.752395212650299],"min":[-0.15638816356659,0.623846888542175,-0.65928363800049],"type":"VEC3"},{"bufferView":22,"byteOffset":0,"componentType":5126,"count":51,"type":"VEC3"},{"bufferView":23,"byteOffset":0,"componentType":5126,"count":51,"type":"VEC2"}],"asset":{"generator":"FBX2glTF v0.13.1","version":"2.0"},"bufferViews":[{"buffer":0,"byteLength":29040,"byteOffset":0,"target":34963},{"buffer":0,"byteLength":30636,"byteOffset":29040,"target":34962},{"buffer":0,"byteLength":30636,"byteOffset":59676,"target":34962},{"buffer":0,"byteLength":20424,"byteOffset":90312,"target":34962},{"buffer":0,"byteLength":12612,"byteOffset":110736,"target":34963},{"buffer":0,"byteLength":13848,"byteOffset":123348,"target":34962},{"buffer":0,"byteLength":13848,"byteOffset":137196,"target":34962},{"buffer":0,"byteLength":9232,"byteOffset":151044,"target":34962},{"buffer":0,"byteLength":606,"byteOffset":160276,"target":34963},{"buffer":0,"byteLength":948,"byteOffset":160884,"target":34962},{"buffer":0,"byteLength":948,"byteOffset":161832,"target":34962},{"buffer":0,"byteLength":632,"byteOffset":162780,"target":34962},{"buffer":0,"byteLength":10248,"byteOffset":163412,"target":34963},{"buffer":0,"byteLength":20040,"byteOffset":173660,"target":34962},{"buffer":0,"byteLength":20040,"byteOffset":193700,"target":34962},{"buffer":0,"byteLength":13360,"byteOffset":213740,"target":34962},{"buffer":0,"byteLength":7548,"byteOffset":227100,"target":34963},{"buffer":0,"byteLength":13980,"byteOffset":234648,"target":34962},{"buffer":0,"byteLength":13980,"byteOffset":248628,"target":34962},{"buffer":0,"byteLength":9320,"byteOffset":262608,"target":34962},{"buffer":0,"byteLength":204,"byteOffset":271928,"target":34963},{"buffer":0,"byteLength":612,"byteOffset":272132,"target":34962},{"buffer":0,"byteLength":612,"byteOffset":272744,"target":34962},{"buffer":0,"byteLength":408,"byteOffset":273356,"target":34962}],"buffers":[{"byteLength":273764,"uri":"Curtain_03.bin"}],"images":[{"name":"Curtain_03_A","uri":"Curtain_03_A.tga"}],"materials":[{"alphaMode":"OPAQUE","doubleSided":false,"extras":{"fromFBX":{"isTruePBR":false,"shadingModel":"Phong"}},"name":"Curtain_03_Fade","pbrMetallicRoughness":{"baseColorFactor":[1,1,1,1],"baseColorTexture":{"index":0,"texCoord":0},"metallicFactor":0.400000005960464,"roughnessFactor":0.272165536880493}},{"alphaMode":"OPAQUE","doubleSided":false,"extras":{"fromFBX":{"isTruePBR":false,"shadingModel":"Phong"}},"name":"Curtain_03","pbrMetallicRoughness":{"baseColorFactor":[1,1,1,1],"baseColorTexture":{"index":0,"texCoord":0},"metallicFactor":0.400000005960464,"roughnessFactor":0.272165536880493}}],"meshes":[{"name":"Curtain_03_LOD0","primitives":[{"attributes":{"NORMAL":2,"POSITION":1,"TEXCOORD_0":3},"indices":0,"material":0,"mode":4},{"attributes":{"NORMAL":14,"POSITION":13,"TEXCOORD_0":15},"indices":12,"material":1,"mode":4}]},{"name":"Curtain_03_LOD1","primitives":[{"attributes":{"NORMAL":6,"POSITION":5,"TEXCOORD_0":7},"indices":4,"material":0,"mode":4},{"attributes":{"NORMAL":18,"POSITION":17,"TEXCOORD_0":19},"indices":16,"material":1,"mode":4}]},{"name":"Curtain_03_LOD2","primitives":[{"attributes":{"NORMAL":10,"POSITION":9,"TEXCOORD_0":11},"indices":8,"material":0,"mode":4},{"attributes":{"NORMAL":22,"POSITION":21,"TEXCOORD_0":23},"indices":20,"material":1,"mode":4}]}],"nodes":[{"mesh":0,"name":"Curtain_03_LOD0","rotation":[0,0,0,1],"scale":[1,1,1],"translation":[0,0,0]},{"mesh":1,"name":"Curtain_03_LOD1","rotation":[0,0,0,1],"scale":[1,1,1],"translation":[0,0,0]},{"mesh":2,"name":"Curtain_03_LOD2","rotation":[0,0,0,1],"scale":[1,1,1],"translation":[0,0,0]}],"samplers":[{}],"scene":0,"scenes":[{"name":"Root Scene","nodes":[0,1,2]}],"textures":[{"name":"base_color_texture","sampler":0,"source":0}]}