{"accessors":[{"bufferView":0,"byteOffset":0,"componentType":5123,"count":5280,"type":"SCALAR"},{"bufferView":1,"byteOffset":0,"componentType":5126,"count":1225,"max":[0.00232565402984619,3.70000028610229,0.703956186771393],"min":[-2.8483726978302,2.9001681804657,-0.70671737194061],"type":"VEC3"},{"bufferView":2,"byteOffset":0,"componentType":5126,"count":1225,"type":"VEC3"},{"bufferView":3,"byteOffset":0,"componentType":5126,"count":1225,"type":"VEC2"},{"bufferView":4,"byteOffset":0,"componentType":5123,"count":2616,"type":"SCALAR"},{"bufferView":5,"byteOffset":0,"componentType":5126,"count":673,"max":[0.00232565402984619,3.70000028610229,0.702759027481079],"min":[-2.84838485717773,2.90136551856995,-0.70552009344101],"type":"VEC3"},{"bufferView":6,"byteOffset":0,"componentType":5126,"count":673,"type":"VEC3"},{"bufferView":7,"byteOffset":0,"componentType":5126,"count":673,"type":"VEC2"},{"bufferView":8,"byteOffset":0,"componentType":5123,"count":1104,"type":"SCALAR"},{"bufferView":9,"byteOffset":0,"componentType":5126,"count":344,"max":[0.00232590385712683,3.70000028610229,0.702775716781616],"min":[-2.84810447692871,2.90136551856995,-0.70552009344101],"type":"VEC3"},{"bufferView":10,"byteOffset":0,"componentType":5126,"count":344,"type":"VEC3"},{"bufferView":11,"byteOffset":0,"componentType":5126,"count":344,"type":"VEC2"},{"bufferView":12,"byteOffset":0,"componentType":5123,"count":24192,"type":"SCALAR"},{"bufferView":13,"byteOffset":0,"componentType":5126,"count":4161,"max":[-0.5642654299736,2.98813772201538,-0.59144866466522],"min":[-2.65323114395142,0.221888348460197,-0.72768408060074],"type":"VEC3"},{"bufferView":14,"byteOffset":0,"componentType":5126,"count":4161,"type":"VEC3"},{"bufferView":15,"byteOffset":0,"componentType":5126,"count":4161,"type":"VEC2"},{"bufferView":16,"byteOffset":0,"componentType":5123,"count":11619,"type":"SCALAR"},{"bufferView":17,"byteOffset":0,"componentType":5126,"count":2018,"max":[-0.56414896249771,2.98813772201538,-0.59133440256119],"min":[-2.65323114395142,0.221888348460197,-0.72762858867645],"type":"VEC3"},{"bufferView":18,"byteOffset":0,"componentType":5126,"count":2018,"type":"VEC3"},{"bufferView":19,"byteOffset":0,"componentType":5126,"count":2018,"type":"VEC2"},{"bufferView":20,"byteOffset":0,"componentType":5123,"count":192,"type":"SCALAR"},{"bufferView":21,"byteOffset":0,"componentType":5126,"count":58,"max":[-0.56373697519302,2.99062490463257,-0.58790862560272],"min":[-2.6534788608551,0.221975937485695,-0.7342101931572],"type":"VEC3"},{"bufferView":22,"byteOffset":0,"componentType":5126,"count":58,"type":"VEC3"},{"bufferView":23,"byteOffset":0,"componentType":5126,"count":58,"type":"VEC2"}],"asset":{"generator":"FBX2glTF v0.13.1","version":"2.0"},"bufferViews":[{"buffer":0,"byteLength":10560,"byteOffset":0,"target":34963},{"buffer":0,"byteLength":14700,"byteOffset":10560,"target":34962},{"buffer":0,"byteLength":14700,"byteOffset":25260,"target":34962},{"buffer":0,"byteLength":9800,"byteOffset":39960,"target":34962},{"buffer":0,"byteLength":5232,"byteOffset":49760,"target":34963},{"buffer":0,"byteLength":8076,"byteOffset":54992,"target":34962},{"buffer":0,"byteLength":8076,"byteOffset":63068,"target":34962},{"buffer":0,"byteLength":5384,"byteOffset":71144,"target":34962},{"buffer":0,"byteLength":2208,"byteOffset":76528,"target":34963},{"buffer":0,"byteLength":4128,"byteOffset":78736,"target":34962},{"buffer":0,"byteLength":4128,"byteOffset":82864,"target":34962},{"buffer":0,"byteLength":2752,"byteOffset":86992,"target":34962},{"buffer":0,"byteLength":48384,"byteOffset":89744,"target":34963},{"buffer":0,"byteLength":49932,"byteOffset":138128,"target":34962},{"buffer":0,"byteLength":49932,"byteOffset":188060,"target":34962},{"buffer":0,"byteLength":33288,"byteOffset":237992,"target":34962},{"buffer":0,"byteLength":23238,"byteOffset":271280,"target":34963},{"buffer":0,"byteLength":24216,"byteOffset":294520,"target":34962},{"buffer":0,"byteLength":24216,"byteOffset":318736,"target":34962},{"buffer":0,"byteLength":16144,"byteOffset":342952,"target":34962},{"buffer":0,"byteLength":384,"byteOffset":359096,"target":34963},{"buffer":0,"byteLength":696,"byteOffset":359480,"target":34962},{"buffer":0,"byteLength":696,"byteOffset":360176,"target":34962},{"buffer":0,"byteLength":464,"byteOffset":360872,"target":34962}],"buffers":[{"byteLength":361336,"uri":"Curtain.bin"}],"images":[{"name":"Curtain_A","uri":"Curtain_A.tga"}],"materials":[{"alphaMode":"OPAQUE","doubleSided":false,"extras":{"fromFBX":{"isTruePBR":false,"shadingModel":"Phong"}},"name":"Curtain","pbrMetallicRoughness":{"baseColorFactor":[1,1,1,1],"baseColorTexture":{"index":0,"texCoord":0},"metallicFactor":0.400000005960464,"roughnessFactor":0.272165536880493}},{"alphaMode":"OPAQUE","doubleSided":false,"extras":{"fromFBX":{"isTruePBR":false,"shadingModel":"Phong"}},"name":"Curtain_Fade","pbrMetallicRoughness":{"baseColorFactor":[0.800000011920929,0.800000011920929,0.800000011920929,1],"metallicFactor":0.400000005960464,"roughnessFactor":0.272165536880493}}],"meshes":[{"name":"Curtain_LOD0","primitives":[{"attributes":{"NORMAL":2,"POSITION":1,"TEXCOORD_0":3},"indices":0,"material":0,"mode":4},{"attributes":{"NORMAL":14,"POSITION":13,"TEXCOORD_0":15},"indices":12,"material":1,"mode":4}]},{"name":"Curtain_LOD1","primitives":[{"attributes":{"NORMAL":6,"POSITION":5,"TEXCOORD_0":7},"indices":4,"material":0,"mode":4},{"attributes":{"NORMAL":18,"POSITION":17,"TEXCOORD_0":19},"indices":16,"material":1,"mode":4}]},{"name":"Curtain_LOD2","primitives":[{"attributes":{"NORMAL":10,"POSITION":9,"TEXCOORD_0":11},"indices":8,"material":0,"mode":4},{"attributes":{"NORMAL":22,"POSITION":21,"TEXCOORD_0":23},"indices":20,"material":1,"mode":4}]}],"nodes":[{"mesh":0,"name":"Curtain_LOD0","rotation":[0,0,0,1],"scale":[1,1,1],"translation":[0,0,0]},{"mesh":1,"name":"Curtain_LOD1","rotation":[0,0,0,1],"scale":[1,1,1],"translation":[0,0,0]},{"mesh":2,"name":"Curtain_LOD2","rotation":[0,0,0,1],"scale":[1,1,1],"translation":[0,0,0]}],"samplers":[{}],"scene":0,"scenes":[{"name":"Root Scene","nodes":[0,1,2]}],"textures":[{"name":"base_color_texture","sampler":0,"source":0}]}