{"accessors":[{"bufferView":0,"byteOffset":0,"componentType":5123,"count":5460,"type":"SCALAR"},{"bufferView":1,"byteOffset":0,"componentType":5126,"count":1790,"max":[0.00459393858909607,0.50537109375,0.714671075344086],"min":[-0.15767017006874,0.415547549724579,-0.70673149824143],"type":"VEC3"},{"bufferView":2,"byteOffset":0,"componentType":5126,"count":1790,"type":"VEC3"},{"bufferView":3,"byteOffset":0,"componentType":5126,"count":1790,"type":"VEC2"},{"bufferView":4,"byteOffset":0,"componentType":5123,"count":3585,"type":"SCALAR"},{"bufferView":5,"byteOffset":0,"componentType":5126,"count":1035,"max":[0.00459393858909607,0.50537109375,0.714671075344086],"min":[-0.15767017006874,0.414832234382629,-0.70673149824143],"type":"VEC3"},{"bufferView":6,"byteOffset":0,"componentType":5126,"count":1035,"type":"VEC3"},{"bufferView":7,"byteOffset":0,"componentType":5126,"count":1035,"type":"VEC2"},{"bufferView":8,"byteOffset":0,"componentType":5123,"count":138,"type":"SCALAR"},{"bufferView":9,"byteOffset":0,"componentType":5126,"count":56,"max":[0.0045052096247673,0.515278458595276,0.714671075344086],"min":[-0.16145333647728,0.422874093055725,-0.69416427612305],"type":"VEC3"},{"bufferView":10,"byteOffset":0,"componentType":5126,"count":56,"type":"VEC3"},{"bufferView":11,"byteOffset":0,"componentType":5126,"count":56,"type":"VEC2"},{"bufferView":12,"byteOffset":0,"componentType":5123,"count":17640,"type":"SCALAR"},{"bufferView":13,"byteOffset":0,"componentType":5126,"count":3069,"max":[-0.07352116703987,0.451260507106781,0.619677245616913],"min":[-0.17856498062611,-0.44518437981606,-0.64587861299515],"type":"VEC3"},{"bufferView":14,"byteOffset":0,"componentType":5126,"count":3069,"type":"VEC3"},{"bufferView":15,"byteOffset":0,"componentType":5126,"count":3069,"type":"VEC2"},{"bufferView":16,"byteOffset":0,"componentType":5123,"count":5883,"type":"SCALAR"},{"bufferView":17,"byteOffset":0,"componentType":5126,"count":1075,"max":[-0.07246484607458,0.451277941465378,0.619677245616913],"min":[-0.17856498062611,-0.44503870606422,-0.64587861299515],"type":"VEC3"},{"bufferView":18,"byteOffset":0,"componentType":5126,"count":1075,"type":"VEC3"},{"bufferView":19,"byteOffset":0,"componentType":5126,"count":1075,"type":"VEC2"},{"bufferView":20,"byteOffset":0,"componentType":5123,"count":483,"type":"SCALAR"},{"bufferView":21,"byteOffset":0,"componentType":5126,"count":115,"max":[-0.07471375912428,0.450321674346924,0.620737910270691],"min":[-0.18221265077591,-0.44687861204147,-0.64353764057159],"type":"VEC3"},{"bufferView":22,"byteOffset":0,"componentType":5126,"count":115,"type":"VEC3"},{"bufferView":23,"byteOffset":0,"componentType":5126,"count":115,"type":"VEC2"}],"asset":{"generator":"FBX2glTF v0.13.1","version":"2.0"},"bufferViews":[{"buffer":0,"byteLength":10920,"byteOffset":0,"target":34963},{"buffer":0,"byteLength":21480,"byteOffset":10920,"target":34962},{"buffer":0,"byteLength":21480,"byteOffset":32400,"target":34962},{"buffer":0,"byteLength":14320,"byteOffset":53880,"target":34962},{"buffer":0,"byteLength":7170,"byteOffset":68200,"target":34963},{"buffer":0,"byteLength":12420,"byteOffset":75372,"target":34962},{"buffer":0,"byteLength":12420,"byteOffset":87792,"target":34962},{"buffer":0,"byteLength":8280,"byteOffset":100212,"target":34962},{"buffer":0,"byteLength":276,"byteOffset":108492,"target":34963},{"buffer":0,"byteLength":672,"byteOffset":108768,"target":34962},{"buffer":0,"byteLength":672,"byteOffset":109440,"target":34962},{"buffer":0,"byteLength":448,"byteOffset":110112,"target":34962},{"buffer":0,"byteLength":35280,"byteOffset":110560,"target":34963},{"buffer":0,"byteLength":36828,"byteOffset":145840,"target":34962},{"buffer":0,"byteLength":36828,"byteOffset":182668,"target":34962},{"buffer":0,"byteLength":24552,"byteOffset":219496,"target":34962},{"buffer":0,"byteLength":11766,"byteOffset":244048,"target":34963},{"buffer":0,"byteLength":12900,"byteOffset":255816,"target":34962},{"buffer":0,"byteLength":12900,"byteOffset":268716,"target":34962},{"buffer":0,"byteLength":8600,"byteOffset":281616,"target":34962},{"buffer":0,"byteLength":966,"byteOffset":290216,"target":34963},{"buffer":0,"byteLength":1380,"byteOffset":291184,"target":34962},{"buffer":0,"byteLength":1380,"byteOffset":292564,"target":34962},{"buffer":0,"byteLength":920,"byteOffset":293944,"target":34962}],"buffers":[{"byteLength":294864,"uri":"Curtain_04.bin"}],"images":[{"name":"Curtain_03_A","uri":"Curtain_03_A.tga"}],"materials":[{"alphaMode":"OPAQUE","doubleSided":false,"extras":{"fromFBX":{"isTruePBR":false,"shadingModel":"Phong"}},"name":"Curtain_03","pbrMetallicRoughness":{"baseColorFactor":[1,1,1,1],"baseColorTexture":{"index":0,"texCoord":0},"metallicFactor":0.400000005960464,"roughnessFactor":0.272165536880493}},{"alphaMode":"OPAQUE","doubleSided":false,"extras":{"fromFBX":{"isTruePBR":false,"shadingModel":"Phong"}},"name":"Curtain_03_Fade","pbrMetallicRoughness":{"baseColorFactor":[1,1,1,1],"baseColorTexture":{"index":0,"texCoord":0},"metallicFactor":0.400000005960464,"roughnessFactor":0.272165536880493}}],"meshes":[{"name":"Curtain_04_LOD0","primitives":[{"attributes":{"NORMAL":2,"POSITION":1,"TEXCOORD_0":3},"indices":0,"material":0,"mode":4},{"attributes":{"NORMAL":14,"POSITION":13,"TEXCOORD_0":15},"indices":12,"material":1,"mode":4}]},{"name":"Curtain_04_LOD1","primitives":[{"attributes":{"NORMAL":6,"POSITION":5,"TEXCOORD_0":7},"indices":4,"material":0,"mode":4},{"attributes":{"NORMAL":18,"POSITION":17,"TEXCOORD_0":19},"indices":16,"material":1,"mode":4}]},{"name":"Curtain_04_LOD2","primitives":[{"attributes":{"NORMAL":10,"POSITION":9,"TEXCOORD_0":11},"indices":8,"material":0,"mode":4},{"attributes":{"NORMAL":22,"POSITION":21,"TEXCOORD_0":23},"indices":20,"material":1,"mode":4}]}],"nodes":[{"mesh":0,"name":"Curtain_04_LOD0","rotation":[0,0,0,1],"scale":[1,1,1],"translation":[0,0,0]},{"mesh":1,"name":"Curtain_04_LOD1","rotation":[0,0,0,1],"scale":[1,1,1],"translation":[0,0,0]},{"mesh":2,"name":"Curtain_04_LOD2","rotation":[0,0,0,1],"scale":[1,1,1],"translation":[0,0,0]}],"samplers":[{}],"scene":0,"scenes":[{"name":"Root Scene","nodes":[0,1,2]}],"textures":[{"name":"base_color_texture","sampler":0,"source":0}]}