{"accessors":[{"bufferView":0,"byteOffset":0,"componentType":5123,"count":1368,"type":"SCALAR"},{"bufferView":1,"byteOffset":0,"componentType":5126,"count":568,"max":[0.161324381828308,0.0358885116875172,0.271200358867645],"min":[-0.16132426261902,-0.00170434638858,-0.27127912640572],"type":"VEC3"},{"bufferView":2,"byteOffset":0,"componentType":5126,"count":568,"type":"VEC3"},{"bufferView":3,"byteOffset":0,"componentType":5126,"count":568,"type":"VEC2"},{"bufferView":4,"byteOffset":0,"componentType":5123,"count":687,"type":"SCALAR"},{"bufferView":5,"byteOffset":0,"componentType":5126,"count":335,"max":[0.161324381828308,0.0371272005140781,0.271200358867645],"min":[-0.16132438182831,-0.00170757411979,-0.27127912640572],"type":"VEC3"},{"bufferView":6,"byteOffset":0,"componentType":5126,"count":335,"type":"VEC3"},{"bufferView":7,"byteOffset":0,"componentType":5126,"count":335,"type":"VEC2"},{"bufferView":8,"byteOffset":0,"componentType":5123,"count":300,"type":"SCALAR"},{"bufferView":9,"byteOffset":0,"componentType":5126,"count":144,"max":[0.161370515823364,0.0371272005140781,0.27119705080986],"min":[-0.16136604547501,-0.00186151976231,-0.27128002047539],"type":"VEC3"},{"bufferView":10,"byteOffset":0,"componentType":5126,"count":144,"type":"VEC3"},{"bufferView":11,"byteOffset":0,"componentType":5126,"count":144,"type":"VEC2"}],"asset":{"generator":"FBX2glTF v0.13.1","version":"2.0"},"bufferViews":[{"buffer":0,"byteLength":2736,"byteOffset":0,"target":34963},{"buffer":0,"byteLength":6816,"byteOffset":2736,"target":34962},{"buffer":0,"byteLength":6816,"byteOffset":9552,"target":34962},{"buffer":0,"byteLength":4544,"byteOffset":16368,"target":34962},{"buffer":0,"byteLength":1374,"byteOffset":20912,"target":34963},{"buffer":0,"byteLength":4020,"byteOffset":22288,"target":34962},{"buffer":0,"byteLength":4020,"byteOffset":26308,"target":34962},{"buffer":0,"byteLength":2680,"byteOffset":30328,"target":34962},{"buffer":0,"byteLength":600,"byteOffset":33008,"target":34963},{"buffer":0,"byteLength":1728,"byteOffset":33608,"target":34962},{"buffer":0,"byteLength":1728,"byteOffset":35336,"target":34962},{"buffer":0,"byteLength":1152,"byteOffset":37064,"target":34962}],"buffers":[{"byteLength":38216,"uri":"Devil's_Book_01.bin"}],"images":[{"name":"Booth_Toilet_A","uri":"Booth_Toilet_A.tga"}],"materials":[{"alphaMode":"OPAQUE","doubleSided":false,"extras":{"fromFBX":{"isTruePBR":false,"shadingModel":"Phong"}},"name":"Booth_Toilet","pbrMetallicRoughness":{"baseColorFactor":[1,1,1,1],"baseColorTexture":{"index":0,"texCoord":0},"metallicFactor":0.400000005960464,"roughnessFactor":0.272165536880493}}],"meshes":[{"name":"Devil's_Book_01_LOD0","primitives":[{"attributes":{"NORMAL":2,"POSITION":1,"TEXCOORD_0":3},"indices":0,"material":0,"mode":4}]},{"name":"Devil's_Book_01_LOD1","primitives":[{"attributes":{"NORMAL":6,"POSITION":5,"TEXCOORD_0":7},"indices":4,"material":0,"mode":4}]},{"name":"Devil's_Book_01_LOD2","primitives":[{"attributes":{"NORMAL":10,"POSITION":9,"TEXCOORD_0":11},"indices":8,"material":0,"mode":4}]}],"nodes":[{"mesh":0,"name":"Devil's_Book_01_LOD0","rotation":[0,0,0,1],"scale":[1,1,1],"translation":[0,0,0]},{"mesh":1,"name":"Devil's_Book_01_LOD1","rotation":[0,0,0,1],"scale":[1,1,1],"translation":[0,0,0]},{"mesh":2,"name":"Devil's_Book_01_LOD2","rotation":[0,0,0,1],"scale":[1,1,1],"translation":[0,0,0]}],"samplers":[{}],"scene":0,"scenes":[{"name":"Root Scene","nodes":[0,1,2]}],"textures":[{"name":"base_color_texture","sampler":0,"source":0}]}