{"accessors":[{"bufferView":0,"byteOffset":0,"componentType":5123,"count":1584,"type":"SCALAR"},{"bufferView":1,"byteOffset":0,"componentType":5126,"count":654,"max":[0.0370272994041443,0.322519212961197,0.116711728274822],"min":[-0.0197132434696,-0.00012944533955,-0.12974697351456],"type":"VEC3"},{"bufferView":2,"byteOffset":0,"componentType":5126,"count":654,"type":"VEC3"},{"bufferView":3,"byteOffset":0,"componentType":5126,"count":654,"type":"VEC2"},{"bufferView":4,"byteOffset":0,"componentType":5123,"count":813,"type":"SCALAR"},{"bufferView":5,"byteOffset":0,"componentType":5126,"count":389,"max":[0.0370272994041443,0.322519212961197,0.116711728274822],"min":[-0.01971640624106,-0.0001294453541,-0.12960484623909],"type":"VEC3"},{"bufferView":6,"byteOffset":0,"componentType":5126,"count":389,"type":"VEC3"},{"bufferView":7,"byteOffset":0,"componentType":5126,"count":389,"type":"VEC2"},{"bufferView":8,"byteOffset":0,"componentType":5123,"count":294,"type":"SCALAR"},{"bufferView":9,"byteOffset":0,"componentType":5126,"count":173,"max":[0.0354121066629887,0.322562396526337,0.116688542068005],"min":[-0.01988609321415,-0.00017057548393,-0.12435284256935],"type":"VEC3"},{"bufferView":10,"byteOffset":0,"componentType":5126,"count":173,"type":"VEC3"},{"bufferView":11,"byteOffset":0,"componentType":5126,"count":173,"type":"VEC2"}],"asset":{"generator":"FBX2glTF v0.13.1","version":"2.0"},"bufferViews":[{"buffer":0,"byteLength":3168,"byteOffset":0,"target":34963},{"buffer":0,"byteLength":7848,"byteOffset":3168,"target":34962},{"buffer":0,"byteLength":7848,"byteOffset":11016,"target":34962},{"buffer":0,"byteLength":5232,"byteOffset":18864,"target":34962},{"buffer":0,"byteLength":1626,"byteOffset":24096,"target":34963},{"buffer":0,"byteLength":4668,"byteOffset":25724,"target":34962},{"buffer":0,"byteLength":4668,"byteOffset":30392,"target":34962},{"buffer":0,"byteLength":3112,"byteOffset":35060,"target":34962},{"buffer":0,"byteLength":588,"byteOffset":38172,"target":34963},{"buffer":0,"byteLength":2076,"byteOffset":38760,"target":34962},{"buffer":0,"byteLength":2076,"byteOffset":40836,"target":34962},{"buffer":0,"byteLength":1384,"byteOffset":42912,"target":34962}],"buffers":[{"byteLength":44296,"uri":"Devil's_Book_02.bin"}],"images":[{"name":"Booth_Toilet_A","uri":"Booth_Toilet_A.tga"}],"materials":[{"alphaMode":"OPAQUE","doubleSided":false,"extras":{"fromFBX":{"isTruePBR":false,"shadingModel":"Phong"}},"name":"Booth_Toilet","pbrMetallicRoughness":{"baseColorFactor":[1,1,1,1],"baseColorTexture":{"index":0,"texCoord":0},"metallicFactor":0.400000005960464,"roughnessFactor":0.272165536880493}}],"meshes":[{"name":"Devil's_Book_02_LOD0","primitives":[{"attributes":{"NORMAL":2,"POSITION":1,"TEXCOORD_0":3},"indices":0,"material":0,"mode":4}]},{"name":"Devil's_Book_02_LOD1","primitives":[{"attributes":{"NORMAL":6,"POSITION":5,"TEXCOORD_0":7},"indices":4,"material":0,"mode":4}]},{"name":"Devil's_Book_02_LOD2","primitives":[{"attributes":{"NORMAL":10,"POSITION":9,"TEXCOORD_0":11},"indices":8,"material":0,"mode":4}]}],"nodes":[{"mesh":0,"name":"Devil's_Book_02_LOD0","rotation":[0,0,0,1],"scale":[1,1,1],"translation":[0,0,0]},{"mesh":1,"name":"Devil's_Book_02_LOD1","rotation":[0,0,0,1],"scale":[1,1,1],"translation":[0,0,0]},{"mesh":2,"name":"Devil's_Book_02_LOD2","rotation":[0,0,0,1],"scale":[1,1,1],"translation":[0,0,0]}],"samplers":[{}],"scene":0,"scenes":[{"name":"Root Scene","nodes":[0,1,2]}],"textures":[{"name":"base_color_texture","sampler":0,"source":0}]}