{"accessors":[{"bufferView":0,"byteOffset":0,"componentType":5123,"count":8334,"type":"SCALAR"},{"bufferView":1,"byteOffset":0,"componentType":5126,"count":1893,"max":[0.244068801403046,1.94711589813232,0.403899341821671],"min":[-0.4410794377327,-0.00289228907786,-0.39917868375778],"type":"VEC3"},{"bufferView":2,"byteOffset":0,"componentType":5126,"count":1893,"type":"VEC3"},{"bufferView":3,"byteOffset":0,"componentType":5126,"count":1893,"type":"VEC2"},{"bufferView":4,"byteOffset":0,"componentType":5123,"count":4332,"type":"SCALAR"},{"bufferView":5,"byteOffset":0,"componentType":5126,"count":1179,"max":[0.244068801403046,1.94711589813232,0.403899341821671],"min":[-0.4410794377327,-0.00289228907786,-0.39917868375778],"type":"VEC3"},{"bufferView":6,"byteOffset":0,"componentType":5126,"count":1179,"type":"VEC3"},{"bufferView":7,"byteOffset":0,"componentType":5126,"count":1179,"type":"VEC2"},{"bufferView":8,"byteOffset":0,"componentType":5123,"count":1119,"type":"SCALAR"},{"bufferView":9,"byteOffset":0,"componentType":5126,"count":431,"max":[0.24232591688633,1.9455600976944,0.405174016952515],"min":[-0.43990045785904,-0.00287797115743,-0.39743974804878],"type":"VEC3"},{"bufferView":10,"byteOffset":0,"componentType":5126,"count":431,"type":"VEC3"},{"bufferView":11,"byteOffset":0,"componentType":5126,"count":431,"type":"VEC2"}],"asset":{"generator":"FBX2glTF v0.13.1","version":"2.0"},"bufferViews":[{"buffer":0,"byteLength":16668,"byteOffset":0,"target":34963},{"buffer":0,"byteLength":22716,"byteOffset":16668,"target":34962},{"buffer":0,"byteLength":22716,"byteOffset":39384,"target":34962},{"buffer":0,"byteLength":15144,"byteOffset":62100,"target":34962},{"buffer":0,"byteLength":8664,"byteOffset":77244,"target":34963},{"buffer":0,"byteLength":14148,"byteOffset":85908,"target":34962},{"buffer":0,"byteLength":14148,"byteOffset":100056,"target":34962},{"buffer":0,"byteLength":9432,"byteOffset":114204,"target":34962},{"buffer":0,"byteLength":2238,"byteOffset":123636,"target":34963},{"buffer":0,"byteLength":5172,"byteOffset":125876,"target":34962},{"buffer":0,"byteLength":5172,"byteOffset":131048,"target":34962},{"buffer":0,"byteLength":3448,"byteOffset":136220,"target":34962}],"buffers":[{"byteLength":139668,"uri":"Dropper.bin"}],"images":[{"name":"Nightstand_A","uri":"Nightstand_A.tga"}],"materials":[{"alphaMode":"OPAQUE","doubleSided":false,"extras":{"fromFBX":{"isTruePBR":false,"shadingModel":"Phong"}},"name":"Nightstand","pbrMetallicRoughness":{"baseColorFactor":[1,1,1,1],"baseColorTexture":{"index":0,"texCoord":0},"metallicFactor":0.400000005960464,"roughnessFactor":0.272165536880493}}],"meshes":[{"name":"Dropper_LOD0","primitives":[{"attributes":{"NORMAL":2,"POSITION":1,"TEXCOORD_0":3},"indices":0,"material":0,"mode":4}]},{"name":"Dropper_LOD1","primitives":[{"attributes":{"NORMAL":6,"POSITION":5,"TEXCOORD_0":7},"indices":4,"material":0,"mode":4}]},{"name":"Dropper_LOD2","primitives":[{"attributes":{"NORMAL":10,"POSITION":9,"TEXCOORD_0":11},"indices":8,"material":0,"mode":4}]}],"nodes":[{"mesh":0,"name":"Dropper_LOD0","rotation":[0,0,0,1],"scale":[1,1,1],"translation":[0,0,0]},{"mesh":1,"name":"Dropper_LOD1","rotation":[0,0,0,1],"scale":[1,1,1],"translation":[0,0,0]},{"mesh":2,"name":"Dropper_LOD2","rotation":[0,0,0,1],"scale":[1,1,1],"translation":[0,0,0]}],"samplers":[{}],"scene":0,"scenes":[{"name":"Root Scene","nodes":[0,1,2]}],"textures":[{"name":"base_color_texture","sampler":0,"source":0}]}