{"accessors":[{"bufferView":0,"byteOffset":0,"componentType":5123,"count":6324,"type":"SCALAR"},{"bufferView":1,"byteOffset":0,"componentType":5126,"count":2118,"max":[0.00786379259079695,1.12014293670654,1.76198327541351],"min":[-1.23966646194458,-0.00850374531001,-1.76441466808319],"type":"VEC3"},{"bufferView":2,"byteOffset":0,"componentType":5126,"count":2118,"type":"VEC3"},{"bufferView":3,"byteOffset":0,"componentType":5126,"count":2118,"type":"VEC2"},{"bufferView":4,"byteOffset":0,"componentType":5123,"count":2970,"type":"SCALAR"},{"bufferView":5,"byteOffset":0,"componentType":5126,"count":1340,"max":[0.00786379259079695,1.12014293670654,1.76198327541351],"min":[-1.23863661289215,-0.00850374531001,-1.76441466808319],"type":"VEC3"},{"bufferView":6,"byteOffset":0,"componentType":5126,"count":1340,"type":"VEC3"},{"bufferView":7,"byteOffset":0,"componentType":5126,"count":1340,"type":"VEC2"},{"bufferView":8,"byteOffset":0,"componentType":5123,"count":387,"type":"SCALAR"},{"bufferView":9,"byteOffset":0,"componentType":5126,"count":207,"max":[0.00786379259079695,1.12014293670654,1.76198327541351],"min":[-1.19286477565765,-0.00850374531001,-1.76441466808319],"type":"VEC3"},{"bufferView":10,"byteOffset":0,"componentType":5126,"count":207,"type":"VEC3"},{"bufferView":11,"byteOffset":0,"componentType":5126,"count":207,"type":"VEC2"}],"asset":{"generator":"FBX2glTF v0.13.1","version":"2.0"},"bufferViews":[{"buffer":0,"byteLength":12648,"byteOffset":0,"target":34963},{"buffer":0,"byteLength":25416,"byteOffset":12648,"target":34962},{"buffer":0,"byteLength":25416,"byteOffset":38064,"target":34962},{"buffer":0,"byteLength":16944,"byteOffset":63480,"target":34962},{"buffer":0,"byteLength":5940,"byteOffset":80424,"target":34963},{"buffer":0,"byteLength":16080,"byteOffset":86364,"target":34962},{"buffer":0,"byteLength":16080,"byteOffset":102444,"target":34962},{"buffer":0,"byteLength":10720,"byteOffset":118524,"target":34962},{"buffer":0,"byteLength":774,"byteOffset":129244,"target":34963},{"buffer":0,"byteLength":2484,"byteOffset":130020,"target":34962},{"buffer":0,"byteLength":2484,"byteOffset":132504,"target":34962},{"buffer":0,"byteLength":1656,"byteOffset":134988,"target":34962}],"buffers":[{"byteLength":136644,"uri":"Electric_Box_03.bin"}],"images":[{"name":"Electric_Box_A","uri":"Electric_Box_A.tga"}],"materials":[{"alphaMode":"OPAQUE","doubleSided":false,"extras":{"fromFBX":{"isTruePBR":false,"shadingModel":"Phong"}},"name":"Electric_Box","pbrMetallicRoughness":{"baseColorFactor":[1,1,1,1],"baseColorTexture":{"index":0,"texCoord":0},"metallicFactor":0.400000005960464,"roughnessFactor":0.272165536880493}}],"meshes":[{"name":"Electric_Box_03_LOD0","primitives":[{"attributes":{"NORMAL":2,"POSITION":1,"TEXCOORD_0":3},"indices":0,"material":0,"mode":4}]},{"name":"Electric_Box_03_LOD1","primitives":[{"attributes":{"NORMAL":6,"POSITION":5,"TEXCOORD_0":7},"indices":4,"material":0,"mode":4}]},{"name":"Electric_Box_03_LOD2","primitives":[{"attributes":{"NORMAL":10,"POSITION":9,"TEXCOORD_0":11},"indices":8,"material":0,"mode":4}]}],"nodes":[{"mesh":0,"name":"Electric_Box_03_LOD0","rotation":[0,0,0,1],"scale":[1,1,1],"translation":[0,0,0]},{"mesh":1,"name":"Electric_Box_03_LOD1","rotation":[0,0,0,1],"scale":[1,1,1],"translation":[0,0,0]},{"mesh":2,"name":"Electric_Box_03_LOD2","rotation":[0,0,0,1],"scale":[1,1,1],"translation":[0,0,0]}],"samplers":[{}],"scene":0,"scenes":[{"name":"Root Scene","nodes":[0,1,2]}],"textures":[{"name":"base_color_texture","sampler":0,"source":0}]}