{"accessors":[{"bufferView":0,"byteOffset":0,"componentType":5123,"count":13878,"type":"SCALAR"},{"bufferView":1,"byteOffset":0,"componentType":5126,"count":4161,"max":[0.505562722682953,1.62735104560852,0.427313566207886],"min":[-0.55420219898224,-0.00534546375275,-0.42731356620789],"type":"VEC3"},{"bufferView":2,"byteOffset":0,"componentType":5126,"count":4161,"type":"VEC3"},{"bufferView":3,"byteOffset":0,"componentType":5126,"count":4161,"type":"VEC2"},{"bufferView":4,"byteOffset":0,"componentType":5123,"count":7410,"type":"SCALAR"},{"bufferView":5,"byteOffset":0,"componentType":5126,"count":2690,"max":[0.505562722682953,1.62735104560852,0.427519649267197],"min":[-0.55413460731506,-0.00534546375275,-0.4275196492672],"type":"VEC3"},{"bufferView":6,"byteOffset":0,"componentType":5126,"count":2690,"type":"VEC3"},{"bufferView":7,"byteOffset":0,"componentType":5126,"count":2690,"type":"VEC2"},{"bufferView":8,"byteOffset":0,"componentType":5123,"count":1617,"type":"SCALAR"},{"bufferView":9,"byteOffset":0,"componentType":5126,"count":885,"max":[0.505562722682953,1.59136319160461,0.419372320175171],"min":[-0.5466256737709,-0.00534546375275,-0.41630136966705],"type":"VEC3"},{"bufferView":10,"byteOffset":0,"componentType":5126,"count":885,"type":"VEC3"},{"bufferView":11,"byteOffset":0,"componentType":5126,"count":885,"type":"VEC2"}],"asset":{"generator":"FBX2glTF v0.13.1","version":"2.0"},"bufferViews":[{"buffer":0,"byteLength":27756,"byteOffset":0,"target":34963},{"buffer":0,"byteLength":49932,"byteOffset":27756,"target":34962},{"buffer":0,"byteLength":49932,"byteOffset":77688,"target":34962},{"buffer":0,"byteLength":33288,"byteOffset":127620,"target":34962},{"buffer":0,"byteLength":14820,"byteOffset":160908,"target":34963},{"buffer":0,"byteLength":32280,"byteOffset":175728,"target":34962},{"buffer":0,"byteLength":32280,"byteOffset":208008,"target":34962},{"buffer":0,"byteLength":21520,"byteOffset":240288,"target":34962},{"buffer":0,"byteLength":3234,"byteOffset":261808,"target":34963},{"buffer":0,"byteLength":10620,"byteOffset":265044,"target":34962},{"buffer":0,"byteLength":10620,"byteOffset":275664,"target":34962},{"buffer":0,"byteLength":7080,"byteOffset":286284,"target":34962}],"buffers":[{"byteLength":293364,"uri":"Electric_Сhair.bin"}],"materials":[{"alphaMode":"OPAQUE","doubleSided":false,"extras":{"fromFBX":{"isTruePBR":false,"shadingModel":"Phong"}},"name":"Electric_Сhair","pbrMetallicRoughness":{"baseColorFactor":[1,1,1,1],"metallicFactor":0.400000005960464,"roughnessFactor":0.272165536880493}}],"meshes":[{"name":"Electric_Сhair_LOD0","primitives":[{"attributes":{"NORMAL":2,"POSITION":1,"TEXCOORD_0":3},"indices":0,"material":0,"mode":4}]},{"name":"Electric_Сhair_LOD1","primitives":[{"attributes":{"NORMAL":6,"POSITION":5,"TEXCOORD_0":7},"indices":4,"material":0,"mode":4}]},{"name":"Electric_Сhair_LOD2","primitives":[{"attributes":{"NORMAL":10,"POSITION":9,"TEXCOORD_0":11},"indices":8,"material":0,"mode":4}]}],"nodes":[{"mesh":0,"name":"Electric_Сhair_LOD0","rotation":[0,0,0,1],"scale":[1,1,1],"translation":[0,0,0]},{"mesh":1,"name":"Electric_Сhair_LOD1","rotation":[0,0,0,1],"scale":[1,1,1],"translation":[0,0,0]},{"mesh":2,"name":"Electric_Сhair_LOD2","rotation":[0,0,0,1],"scale":[1,1,1],"translation":[0,0,0]}],"samplers":[{}],"scene":0,"scenes":[{"name":"Root Scene","nodes":[0,1,2]}]}