{"accessors":[{"bufferView":0,"byteOffset":0,"componentType":5123,"count":5862,"type":"SCALAR"},{"bufferView":1,"byteOffset":0,"componentType":5126,"count":1413,"max":[0.0409796237945557,0.0409795977175236,0.0799627676606178],"min":[-0.04097962379456,-0.0409796051681,-0.12977768480778],"type":"VEC3"},{"bufferView":2,"byteOffset":0,"componentType":5126,"count":1413,"type":"VEC3"},{"bufferView":3,"byteOffset":0,"componentType":5126,"count":1413,"type":"VEC2"},{"bufferView":4,"byteOffset":0,"componentType":5123,"count":747,"type":"SCALAR"},{"bufferView":5,"byteOffset":0,"componentType":5126,"count":264,"max":[0.0409755855798721,0.0413281321525574,0.0802478268742561],"min":[-0.0407516695559,-0.04077665135264,-0.1298416107893],"type":"VEC3"},{"bufferView":6,"byteOffset":0,"componentType":5126,"count":264,"type":"VEC3"},{"bufferView":7,"byteOffset":0,"componentType":5126,"count":264,"type":"VEC2"},{"bufferView":8,"byteOffset":0,"componentType":5123,"count":2862,"type":"SCALAR"},{"bufferView":9,"byteOffset":0,"componentType":5126,"count":756,"max":[0.0412660837173462,0.0413464643061161,0.0799627751111984],"min":[-0.04134649038315,-0.04142691195011,-0.12979146838188],"type":"VEC3"},{"bufferView":10,"byteOffset":0,"componentType":5126,"count":756,"type":"VEC3"},{"bufferView":11,"byteOffset":0,"componentType":5126,"count":756,"type":"VEC2"},{"bufferView":12,"byteOffset":0,"componentType":5123,"count":444,"type":"SCALAR"},{"bufferView":13,"byteOffset":0,"componentType":5126,"count":123,"max":[0.0345886945724487,0.034588661044836,-0.10972490906715],"min":[-0.03458869457245,-0.03458866104484,-0.12689962983131],"type":"VEC3"},{"bufferView":14,"byteOffset":0,"componentType":5126,"count":123,"type":"VEC3"},{"bufferView":15,"byteOffset":0,"componentType":5126,"count":123,"type":"VEC2"},{"bufferView":16,"byteOffset":0,"componentType":5123,"count":96,"type":"SCALAR"},{"bufferView":17,"byteOffset":0,"componentType":5126,"count":34,"max":[0.0345886945724487,0.034588661044836,-0.10972309857607],"min":[-0.03458869457245,-0.03458866104484,-0.12689962983131],"type":"VEC3"},{"bufferView":18,"byteOffset":0,"componentType":5126,"count":34,"type":"VEC3"},{"bufferView":19,"byteOffset":0,"componentType":5126,"count":34,"type":"VEC2"},{"bufferView":20,"byteOffset":0,"componentType":5123,"count":198,"type":"SCALAR"},{"bufferView":21,"byteOffset":0,"componentType":5126,"count":63,"max":[0.0345886945724487,0.034588661044836,-0.10972116142511],"min":[-0.03458869457245,-0.03458866104484,-0.12689962983131],"type":"VEC3"},{"bufferView":22,"byteOffset":0,"componentType":5126,"count":63,"type":"VEC3"},{"bufferView":23,"byteOffset":0,"componentType":5126,"count":63,"type":"VEC2"}],"asset":{"generator":"FBX2glTF v0.13.1","version":"2.0"},"bufferViews":[{"buffer":0,"byteLength":11724,"byteOffset":0,"target":34963},{"buffer":0,"byteLength":16956,"byteOffset":11724,"target":34962},{"buffer":0,"byteLength":16956,"byteOffset":28680,"target":34962},{"buffer":0,"byteLength":11304,"byteOffset":45636,"target":34962},{"buffer":0,"byteLength":1494,"byteOffset":56940,"target":34963},{"buffer":0,"byteLength":3168,"byteOffset":58436,"target":34962},{"buffer":0,"byteLength":3168,"byteOffset":61604,"target":34962},{"buffer":0,"byteLength":2112,"byteOffset":64772,"target":34962},{"buffer":0,"byteLength":5724,"byteOffset":66884,"target":34963},{"buffer":0,"byteLength":9072,"byteOffset":72608,"target":34962},{"buffer":0,"byteLength":9072,"byteOffset":81680,"target":34962},{"buffer":0,"byteLength":6048,"byteOffset":90752,"target":34962},{"buffer":0,"byteLength":888,"byteOffset":96800,"target":34963},{"buffer":0,"byteLength":1476,"byteOffset":97688,"target":34962},{"buffer":0,"byteLength":1476,"byteOffset":99164,"target":34962},{"buffer":0,"byteLength":984,"byteOffset":100640,"target":34962},{"buffer":0,"byteLength":192,"byteOffset":101624,"target":34963},{"buffer":0,"byteLength":408,"byteOffset":101816,"target":34962},{"buffer":0,"byteLength":408,"byteOffset":102224,"target":34962},{"buffer":0,"byteLength":272,"byteOffset":102632,"target":34962},{"buffer":0,"byteLength":396,"byteOffset":102904,"target":34963},{"buffer":0,"byteLength":756,"byteOffset":103300,"target":34962},{"buffer":0,"byteLength":756,"byteOffset":104056,"target":34962},{"buffer":0,"byteLength":504,"byteOffset":104812,"target":34962}],"buffers":[{"byteLength":105316,"uri":"Flashlight.bin"}],"images":[{"name":"Flashlight_A","uri":"Flashlight_A.tga"},{"name":"Glass_A","uri":"Glass_A.tga"}],"materials":[{"alphaMode":"OPAQUE","doubleSided":false,"extras":{"fromFBX":{"isTruePBR":false,"shadingModel":"Phong"}},"name":"Flashlight","pbrMetallicRoughness":{"baseColorFactor":[1,1,1,1],"baseColorTexture":{"index":0,"texCoord":0},"metallicFactor":0.400000005960464,"roughnessFactor":0.272165536880493}},{"alphaMode":"OPAQUE","doubleSided":false,"extras":{"fromFBX":{"isTruePBR":false,"shadingModel":"Phong"}},"name":"Glass_Fade","pbrMetallicRoughness":{"baseColorFactor":[1,1,1,1],"baseColorTexture":{"index":1,"texCoord":0},"metallicFactor":0.400000005960464,"roughnessFactor":0.272165536880493}}],"meshes":[{"name":"Flashlight_LOD0","primitives":[{"attributes":{"NORMAL":2,"POSITION":1,"TEXCOORD_0":3},"indices":0,"material":0,"mode":4},{"attributes":{"NORMAL":14,"POSITION":13,"TEXCOORD_0":15},"indices":12,"material":1,"mode":4}]},{"name":"Flashlight_LOD2","primitives":[{"attributes":{"NORMAL":6,"POSITION":5,"TEXCOORD_0":7},"indices":4,"material":0,"mode":4},{"attributes":{"NORMAL":18,"POSITION":17,"TEXCOORD_0":19},"indices":16,"material":1,"mode":4}]},{"name":"Flashlight_LOD1","primitives":[{"attributes":{"NORMAL":10,"POSITION":9,"TEXCOORD_0":11},"indices":8,"material":0,"mode":4},{"attributes":{"NORMAL":22,"POSITION":21,"TEXCOORD_0":23},"indices":20,"material":1,"mode":4}]}],"nodes":[{"mesh":0,"name":"Flashlight_LOD0","rotation":[0,0,0,1],"scale":[1,1,1],"translation":[0,0,0]},{"mesh":1,"name":"Flashlight_LOD2","rotation":[0,0,0,1],"scale":[1,1,1],"translation":[0,0,0]},{"mesh":2,"name":"Flashlight_LOD1","rotation":[0,0,0,1],"scale":[1,1,1],"translation":[0,0,0]}],"samplers":[{}],"scene":0,"scenes":[{"name":"Root Scene","nodes":[0,1,2]}],"textures":[{"name":"base_color_texture","sampler":0,"source":0},{"name":"base_color_texture","sampler":0,"source":1}]}