{"accessors":[{"bufferView":0,"byteOffset":0,"componentType":5123,"count":1644,"type":"SCALAR"},{"bufferView":1,"byteOffset":0,"componentType":5126,"count":700,"max":[0.00467042624950409,1.67888617515564,0.518011450767517],"min":[-0.05138058960438,0.053149938583374,-0.51801145076752],"type":"VEC3"},{"bufferView":2,"byteOffset":0,"componentType":5126,"count":700,"type":"VEC3"},{"bufferView":3,"byteOffset":0,"componentType":5126,"count":700,"type":"VEC2"},{"bufferView":4,"byteOffset":0,"componentType":5123,"count":840,"type":"SCALAR"},{"bufferView":5,"byteOffset":0,"componentType":5126,"count":452,"max":[0.00467042624950409,1.67888617515564,0.518011450767517],"min":[-0.05138058960438,0.053149938583374,-0.51801145076752],"type":"VEC3"},{"bufferView":6,"byteOffset":0,"componentType":5126,"count":452,"type":"VEC3"},{"bufferView":7,"byteOffset":0,"componentType":5126,"count":452,"type":"VEC2"},{"bufferView":8,"byteOffset":0,"componentType":5123,"count":546,"type":"SCALAR"},{"bufferView":9,"byteOffset":0,"componentType":5126,"count":246,"max":[0.00467042624950409,1.67888617515564,0.518011450767517],"min":[-0.05138058960438,0.053149938583374,-0.51801145076752],"type":"VEC3"},{"bufferView":10,"byteOffset":0,"componentType":5126,"count":246,"type":"VEC3"},{"bufferView":11,"byteOffset":0,"componentType":5126,"count":246,"type":"VEC2"}],"asset":{"generator":"FBX2glTF v0.13.1","version":"2.0"},"bufferViews":[{"buffer":0,"byteLength":3288,"byteOffset":0,"target":34963},{"buffer":0,"byteLength":8400,"byteOffset":3288,"target":34962},{"buffer":0,"byteLength":8400,"byteOffset":11688,"target":34962},{"buffer":0,"byteLength":5600,"byteOffset":20088,"target":34962},{"buffer":0,"byteLength":1680,"byteOffset":25688,"target":34963},{"buffer":0,"byteLength":5424,"byteOffset":27368,"target":34962},{"buffer":0,"byteLength":5424,"byteOffset":32792,"target":34962},{"buffer":0,"byteLength":3616,"byteOffset":38216,"target":34962},{"buffer":0,"byteLength":1092,"byteOffset":41832,"target":34963},{"buffer":0,"byteLength":2952,"byteOffset":42924,"target":34962},{"buffer":0,"byteLength":2952,"byteOffset":45876,"target":34962},{"buffer":0,"byteLength":1968,"byteOffset":48828,"target":34962}],"buffers":[{"byteLength":50796,"uri":"Grate_Window_01.bin"}],"images":[{"name":"Curtain_03_A","uri":"Curtain_03_A.tga"}],"materials":[{"alphaMode":"OPAQUE","doubleSided":false,"extras":{"fromFBX":{"isTruePBR":false,"shadingModel":"Phong"}},"name":"Curtain_03","pbrMetallicRoughness":{"baseColorFactor":[1,1,1,1],"baseColorTexture":{"index":0,"texCoord":0},"metallicFactor":0.400000005960464,"roughnessFactor":0.272165536880493}}],"meshes":[{"name":"Grate_Window_LOD0","primitives":[{"attributes":{"NORMAL":2,"POSITION":1,"TEXCOORD_0":3},"indices":0,"material":0,"mode":4}]},{"name":"Grate_Window_LOD1","primitives":[{"attributes":{"NORMAL":6,"POSITION":5,"TEXCOORD_0":7},"indices":4,"material":0,"mode":4}]},{"name":"Grate_Window_LOD2","primitives":[{"attributes":{"NORMAL":10,"POSITION":9,"TEXCOORD_0":11},"indices":8,"material":0,"mode":4}]}],"nodes":[{"mesh":0,"name":"Grate_Window_LOD0","rotation":[0,0,0,1],"scale":[1,1,1],"translation":[0,0,0]},{"mesh":1,"name":"Grate_Window_LOD1","rotation":[0,0,0,1],"scale":[1,1,1],"translation":[0,0,0]},{"mesh":2,"name":"Grate_Window_LOD2","rotation":[0,0,0,1],"scale":[1,1,1],"translation":[0,0,0]}],"samplers":[{}],"scene":0,"scenes":[{"name":"Root Scene","nodes":[0,1,2]}],"textures":[{"name":"base_color_texture","sampler":0,"source":0}]}