{"accessors":[{"bufferView":0,"byteOffset":0,"componentType":5123,"count":2382,"type":"SCALAR"},{"bufferView":1,"byteOffset":0,"componentType":5126,"count":655,"max":[0.11855936050415,0.0744004547595978,0],"min":[-0.11855936050415,-0.0744004547596,-0.09417237341404],"type":"VEC3"},{"bufferView":2,"byteOffset":0,"componentType":5126,"count":655,"type":"VEC3"},{"bufferView":3,"byteOffset":0,"componentType":5126,"count":655,"type":"VEC2"},{"bufferView":4,"byteOffset":0,"componentType":5123,"count":741,"type":"SCALAR"},{"bufferView":5,"byteOffset":0,"componentType":5126,"count":301,"max":[0.11855936050415,0.0744004547595978,0],"min":[-0.11855936050415,-0.0744004547596,-0.09375869482756],"type":"VEC3"},{"bufferView":6,"byteOffset":0,"componentType":5126,"count":301,"type":"VEC3"},{"bufferView":7,"byteOffset":0,"componentType":5126,"count":301,"type":"VEC2"},{"bufferView":8,"byteOffset":0,"componentType":5123,"count":426,"type":"SCALAR"},{"bufferView":9,"byteOffset":0,"componentType":5126,"count":218,"max":[0.11855936050415,0.0744004547595978,0],"min":[-0.11855936050415,-0.0744004547596,-0.09266221523285],"type":"VEC3"},{"bufferView":10,"byteOffset":0,"componentType":5126,"count":218,"type":"VEC3"},{"bufferView":11,"byteOffset":0,"componentType":5126,"count":218,"type":"VEC2"},{"bufferView":12,"byteOffset":0,"componentType":5123,"count":618,"type":"SCALAR"},{"bufferView":13,"byteOffset":0,"componentType":5126,"count":118,"max":[0.0331007242202759,0.0328889563679695,-0.04879283905029],"min":[-0.03358989953995,-0.03380166739225,-0.12089729309082],"type":"VEC3"},{"bufferView":14,"byteOffset":0,"componentType":5126,"count":118,"type":"VEC3"},{"bufferView":15,"byteOffset":0,"componentType":5126,"count":118,"type":"VEC2"},{"bufferView":16,"byteOffset":0,"componentType":5123,"count":279,"type":"SCALAR"},{"bufferView":17,"byteOffset":0,"componentType":5126,"count":57,"max":[0.0325116477906704,0.0325868651270866,-0.04879283905029],"min":[-0.03300082311034,-0.03374190628529,-0.12099365890026],"type":"VEC3"},{"bufferView":18,"byteOffset":0,"componentType":5126,"count":57,"type":"VEC3"},{"bufferView":19,"byteOffset":0,"componentType":5126,"count":57,"type":"VEC2"},{"bufferView":20,"byteOffset":0,"componentType":5123,"count":159,"type":"SCALAR"},{"bufferView":21,"byteOffset":0,"componentType":5126,"count":37,"max":[0.0323678776621819,0.0308296028524637,-0.04879283905029],"min":[-0.03485799208283,-0.03380530327559,-0.12315680086613],"type":"VEC3"},{"bufferView":22,"byteOffset":0,"componentType":5126,"count":37,"type":"VEC3"},{"bufferView":23,"byteOffset":0,"componentType":5126,"count":37,"type":"VEC2"}],"asset":{"generator":"FBX2glTF v0.13.1","version":"2.0"},"bufferViews":[{"buffer":0,"byteLength":4764,"byteOffset":0,"target":34963},{"buffer":0,"byteLength":7860,"byteOffset":4764,"target":34962},{"buffer":0,"byteLength":7860,"byteOffset":12624,"target":34962},{"buffer":0,"byteLength":5240,"byteOffset":20484,"target":34962},{"buffer":0,"byteLength":1482,"byteOffset":25724,"target":34963},{"buffer":0,"byteLength":3612,"byteOffset":27208,"target":34962},{"buffer":0,"byteLength":3612,"byteOffset":30820,"target":34962},{"buffer":0,"byteLength":2408,"byteOffset":34432,"target":34962},{"buffer":0,"byteLength":852,"byteOffset":36840,"target":34963},{"buffer":0,"byteLength":2616,"byteOffset":37692,"target":34962},{"buffer":0,"byteLength":2616,"byteOffset":40308,"target":34962},{"buffer":0,"byteLength":1744,"byteOffset":42924,"target":34962},{"buffer":0,"byteLength":1236,"byteOffset":44668,"target":34963},{"buffer":0,"byteLength":1416,"byteOffset":45904,"target":34962},{"buffer":0,"byteLength":1416,"byteOffset":47320,"target":34962},{"buffer":0,"byteLength":944,"byteOffset":48736,"target":34962},{"buffer":0,"byteLength":558,"byteOffset":49680,"target":34963},{"buffer":0,"byteLength":684,"byteOffset":50240,"target":34962},{"buffer":0,"byteLength":684,"byteOffset":50924,"target":34962},{"buffer":0,"byteLength":456,"byteOffset":51608,"target":34962},{"buffer":0,"byteLength":318,"byteOffset":52064,"target":34963},{"buffer":0,"byteLength":444,"byteOffset":52384,"target":34962},{"buffer":0,"byteLength":444,"byteOffset":52828,"target":34962},{"buffer":0,"byteLength":296,"byteOffset":53272,"target":34962}],"buffers":[{"byteLength":53568,"uri":"Light_Bulb.bin"}],"images":[{"name":"Flashlight_A","uri":"Flashlight_A.tga"},{"name":"Glass_A","uri":"Glass_A.tga"}],"materials":[{"alphaMode":"OPAQUE","doubleSided":false,"extras":{"fromFBX":{"isTruePBR":false,"shadingModel":"Phong"}},"name":"Flashlight","pbrMetallicRoughness":{"baseColorFactor":[1,1,1,1],"baseColorTexture":{"index":0,"texCoord":0},"metallicFactor":0.400000005960464,"roughnessFactor":0.272165536880493}},{"alphaMode":"OPAQUE","doubleSided":false,"extras":{"fromFBX":{"isTruePBR":false,"shadingModel":"Phong"}},"name":"Glass_Fade","pbrMetallicRoughness":{"baseColorFactor":[1,1,1,1],"baseColorTexture":{"index":1,"texCoord":0},"metallicFactor":0.400000005960464,"roughnessFactor":0.272165536880493}}],"meshes":[{"name":"Light_Bulb_LOD0","primitives":[{"attributes":{"NORMAL":2,"POSITION":1,"TEXCOORD_0":3},"indices":0,"material":0,"mode":4},{"attributes":{"NORMAL":14,"POSITION":13,"TEXCOORD_0":15},"indices":12,"material":1,"mode":4}]},{"name":"Light_Bulb_LOD1","primitives":[{"attributes":{"NORMAL":6,"POSITION":5,"TEXCOORD_0":7},"indices":4,"material":0,"mode":4},{"attributes":{"NORMAL":18,"POSITION":17,"TEXCOORD_0":19},"indices":16,"material":1,"mode":4}]},{"name":"Light_Bulb_LOD2","primitives":[{"attributes":{"NORMAL":10,"POSITION":9,"TEXCOORD_0":11},"indices":8,"material":0,"mode":4},{"attributes":{"NORMAL":22,"POSITION":21,"TEXCOORD_0":23},"indices":20,"material":1,"mode":4}]}],"nodes":[{"mesh":0,"name":"Light_Bulb_LOD0","rotation":[0,0,0,1],"scale":[1,1,1],"translation":[0,0,0]},{"mesh":1,"name":"Light_Bulb_LOD1","rotation":[0,0,0,1],"scale":[1,1,1],"translation":[0,0,0]},{"mesh":2,"name":"Light_Bulb_LOD2","rotation":[0,0,0,1],"scale":[1,1,1],"translation":[0,0,0]}],"samplers":[{}],"scene":0,"scenes":[{"name":"Root Scene","nodes":[0,1,2]}],"textures":[{"name":"base_color_texture","sampler":0,"source":0},{"name":"base_color_texture","sampler":0,"source":1}]}