{"accessors":[{"bufferView":0,"byteOffset":0,"componentType":5123,"count":63480,"type":"SCALAR"},{"bufferView":1,"byteOffset":0,"componentType":5126,"count":13222,"max":[1.1546436548233,0.706874668598175,0.524665594100952],"min":[-1.17702531814575,-0.00116154551506,-0.55966919660568],"type":"VEC3"},{"bufferView":2,"byteOffset":0,"componentType":5126,"count":13222,"type":"VEC3"},{"bufferView":3,"byteOffset":0,"componentType":5126,"count":13222,"type":"VEC2"},{"bufferView":4,"byteOffset":0,"componentType":5123,"count":31248,"type":"SCALAR"},{"bufferView":5,"byteOffset":0,"componentType":5126,"count":7674,"max":[1.15083611011505,0.706303834915161,0.524665594100952],"min":[-1.17321789264679,-0.00116154551506,-0.55966919660568],"type":"VEC3"},{"bufferView":6,"byteOffset":0,"componentType":5126,"count":7674,"type":"VEC3"},{"bufferView":7,"byteOffset":0,"componentType":5126,"count":7674,"type":"VEC2"},{"bufferView":8,"byteOffset":0,"componentType":5123,"count":3411,"type":"SCALAR"},{"bufferView":9,"byteOffset":0,"componentType":5126,"count":2060,"max":[1.1493855714798,0.706865131855011,0.520480036735535],"min":[-1.17219889163971,-0.00852689798921,-0.55874419212341],"type":"VEC3"},{"bufferView":10,"byteOffset":0,"componentType":5126,"count":2060,"type":"VEC3"},{"bufferView":11,"byteOffset":0,"componentType":5126,"count":2060,"type":"VEC2"}],"asset":{"generator":"FBX2glTF v0.13.1","version":"2.0"},"bufferViews":[{"buffer":0,"byteLength":126960,"byteOffset":0,"target":34963},{"buffer":0,"byteLength":158664,"byteOffset":126960,"target":34962},{"buffer":0,"byteLength":158664,"byteOffset":285624,"target":34962},{"buffer":0,"byteLength":105776,"byteOffset":444288,"target":34962},{"buffer":0,"byteLength":62496,"byteOffset":550064,"target":34963},{"buffer":0,"byteLength":92088,"byteOffset":612560,"target":34962},{"buffer":0,"byteLength":92088,"byteOffset":704648,"target":34962},{"buffer":0,"byteLength":61392,"byteOffset":796736,"target":34962},{"buffer":0,"byteLength":6822,"byteOffset":858128,"target":34963},{"buffer":0,"byteLength":24720,"byteOffset":864952,"target":34962},{"buffer":0,"byteLength":24720,"byteOffset":889672,"target":34962},{"buffer":0,"byteLength":16480,"byteOffset":914392,"target":34962}],"buffers":[{"byteLength":930872,"uri":"Lockup_Bed.bin"}],"images":[{"name":"Lockup_Bed_A","uri":"Lockup_Bed_A.tga"}],"materials":[{"alphaMode":"OPAQUE","doubleSided":false,"extras":{"fromFBX":{"isTruePBR":false,"shadingModel":"Phong"}},"name":"Lockup_Bed","pbrMetallicRoughness":{"baseColorFactor":[1,1,1,1],"baseColorTexture":{"index":0,"texCoord":0},"metallicFactor":0.400000005960464,"roughnessFactor":0.272165536880493}}],"meshes":[{"name":"Lockup_Bed_LOD0","primitives":[{"attributes":{"NORMAL":2,"POSITION":1,"TEXCOORD_0":3},"indices":0,"material":0,"mode":4}]},{"name":"Lockup_Bed_LOD1","primitives":[{"attributes":{"NORMAL":6,"POSITION":5,"TEXCOORD_0":7},"indices":4,"material":0,"mode":4}]},{"name":"Lockup_Bed_LOD2","primitives":[{"attributes":{"NORMAL":10,"POSITION":9,"TEXCOORD_0":11},"indices":8,"material":0,"mode":4}]}],"nodes":[{"mesh":0,"name":"Lockup_Bed_LOD0","rotation":[0,0,0,1],"scale":[1,1,1],"translation":[0,0,0]},{"mesh":1,"name":"Lockup_Bed_LOD1","rotation":[0,0,0,1],"scale":[1,1,1],"translation":[0,0,0]},{"mesh":2,"name":"Lockup_Bed_LOD2","rotation":[0,0,0,1],"scale":[1,1,1],"translation":[0,0,0]}],"samplers":[{}],"scene":0,"scenes":[{"name":"Root Scene","nodes":[0,1,2]}],"textures":[{"name":"base_color_texture","sampler":0,"source":0}]}