{"accessors":[{"bufferView":0,"byteOffset":0,"componentType":5123,"count":2652,"type":"SCALAR"},{"bufferView":1,"byteOffset":0,"componentType":5126,"count":560,"max":[0.977920055389404,0.0731683820486069,0.465948313474655],"min":[-0.97357052564621,-0.07316838204861,-0.46594831347465],"type":"VEC3"},{"bufferView":2,"byteOffset":0,"componentType":5126,"count":560,"type":"VEC3"},{"bufferView":3,"byteOffset":0,"componentType":5126,"count":560,"type":"VEC2"},{"bufferView":4,"byteOffset":0,"componentType":5123,"count":1134,"type":"SCALAR"},{"bufferView":5,"byteOffset":0,"componentType":5126,"count":281,"max":[0.978281915187836,0.0727372094988823,0.466002225875854],"min":[-0.97396260499954,-0.07316886633635,-0.46600860357285],"type":"VEC3"},{"bufferView":6,"byteOffset":0,"componentType":5126,"count":281,"type":"VEC3"},{"bufferView":7,"byteOffset":0,"componentType":5126,"count":281,"type":"VEC2"},{"bufferView":8,"byteOffset":0,"componentType":5123,"count":204,"type":"SCALAR"},{"bufferView":9,"byteOffset":0,"componentType":5126,"count":80,"max":[0.972579300403595,0.0732628181576729,0.468287646770477],"min":[-0.9677574634552,-0.07102887332439,-0.46229979395866],"type":"VEC3"},{"bufferView":10,"byteOffset":0,"componentType":5126,"count":80,"type":"VEC3"},{"bufferView":11,"byteOffset":0,"componentType":5126,"count":80,"type":"VEC2"}],"asset":{"generator":"FBX2glTF v0.13.1","version":"2.0"},"bufferViews":[{"buffer":0,"byteLength":5304,"byteOffset":0,"target":34963},{"buffer":0,"byteLength":6720,"byteOffset":5304,"target":34962},{"buffer":0,"byteLength":6720,"byteOffset":12024,"target":34962},{"buffer":0,"byteLength":4480,"byteOffset":18744,"target":34962},{"buffer":0,"byteLength":2268,"byteOffset":23224,"target":34963},{"buffer":0,"byteLength":3372,"byteOffset":25492,"target":34962},{"buffer":0,"byteLength":3372,"byteOffset":28864,"target":34962},{"buffer":0,"byteLength":2248,"byteOffset":32236,"target":34962},{"buffer":0,"byteLength":408,"byteOffset":34484,"target":34963},{"buffer":0,"byteLength":960,"byteOffset":34892,"target":34962},{"buffer":0,"byteLength":960,"byteOffset":35852,"target":34962},{"buffer":0,"byteLength":640,"byteOffset":36812,"target":34962}],"buffers":[{"byteLength":37452,"uri":"Mattress.bin"}],"images":[{"name":"Bed_A","uri":"Bed_A.tga"}],"materials":[{"alphaMode":"OPAQUE","doubleSided":false,"extras":{"fromFBX":{"isTruePBR":false,"shadingModel":"Phong"}},"name":"Bed","pbrMetallicRoughness":{"baseColorFactor":[1,1,1,1],"baseColorTexture":{"index":0,"texCoord":0},"metallicFactor":0.400000005960464,"roughnessFactor":0.272165536880493}}],"meshes":[{"name":"Mattress_LOD0","primitives":[{"attributes":{"NORMAL":2,"POSITION":1,"TEXCOORD_0":3},"indices":0,"material":0,"mode":4}]},{"name":"Mattress_LOD1","primitives":[{"attributes":{"NORMAL":6,"POSITION":5,"TEXCOORD_0":7},"indices":4,"material":0,"mode":4}]},{"name":"Mattress_LOD2","primitives":[{"attributes":{"NORMAL":10,"POSITION":9,"TEXCOORD_0":11},"indices":8,"material":0,"mode":4}]}],"nodes":[{"mesh":0,"name":"Mattress_LOD0","rotation":[0,0,0,1],"scale":[1,1,1],"translation":[0,0,0]},{"mesh":1,"name":"Mattress_LOD1","rotation":[0,0,0,1],"scale":[1,1,1],"translation":[0,0,0]},{"mesh":2,"name":"Mattress_LOD2","rotation":[0,0,0,1],"scale":[1,1,1],"translation":[0,0,0]}],"samplers":[{}],"scene":0,"scenes":[{"name":"Root Scene","nodes":[0,1,2]}],"textures":[{"name":"base_color_texture","sampler":0,"source":0}]}