{"accessors":[{"bufferView":0,"byteOffset":0,"componentType":5123,"count":126,"type":"SCALAR"},{"bufferView":1,"byteOffset":0,"componentType":5126,"count":68,"max":[0.00541571481153369,0.496706813573837,0.341203212738037],"min":[-0.03277432173491,-0.41009125113487,-0.36367580294609],"type":"VEC3"},{"bufferView":2,"byteOffset":0,"componentType":5126,"count":68,"type":"VEC3"},{"bufferView":3,"byteOffset":0,"componentType":5126,"count":68,"type":"VEC2"}],"asset":{"generator":"FBX2glTF v0.13.1","version":"2.0"},"bufferViews":[{"buffer":0,"byteLength":252,"byteOffset":0,"target":34963},{"buffer":0,"byteLength":816,"byteOffset":252,"target":34962},{"buffer":0,"byteLength":816,"byteOffset":1068,"target":34962},{"buffer":0,"byteLength":544,"byteOffset":1884,"target":34962}],"buffers":[{"byteLength":2428,"uri":"Mirror.bin"}],"images":[{"name":"Sink_A","uri":"Sink_A.tga"}],"materials":[{"alphaMode":"OPAQUE","doubleSided":false,"extras":{"fromFBX":{"isTruePBR":false,"shadingModel":"Phong"}},"name":"Sink","pbrMetallicRoughness":{"baseColorFactor":[1,1,1,1],"baseColorTexture":{"index":0,"texCoord":0},"metallicFactor":0.400000005960464,"roughnessFactor":0.272165536880493}}],"meshes":[{"name":"Sink_LOD0","primitives":[{"attributes":{"NORMAL":2,"POSITION":1,"TEXCOORD_0":3},"indices":0,"material":0,"mode":4}]}],"nodes":[{"mesh":0,"name":"Sink_LOD0","rotation":[0,0,0,1],"scale":[1,1,1],"translation":[0,0,0]}],"samplers":[{}],"scene":0,"scenes":[{"name":"Root Scene","nodes":[0]}],"textures":[{"name":"base_color_texture","sampler":0,"source":0}]}