{"accessors":[{"bufferView":0,"byteOffset":0,"componentType":5123,"count":3504,"type":"SCALAR"},{"bufferView":1,"byteOffset":0,"componentType":5126,"count":974,"max":[0.340181052684784,1.04145538806915,0.389241933822632],"min":[-0.34018105268478,-0.000223768875,-0.46055147051811],"type":"VEC3"},{"bufferView":2,"byteOffset":0,"componentType":5126,"count":974,"type":"VEC3"},{"bufferView":3,"byteOffset":0,"componentType":5126,"count":974,"type":"VEC2"},{"bufferView":4,"byteOffset":0,"componentType":5123,"count":768,"type":"SCALAR"},{"bufferView":5,"byteOffset":0,"componentType":5126,"count":248,"max":[0.0231520216912031,0.411229491233826,0.00532865524291992],"min":[-0.03757390379906,-0.05428928136826,-0.66769170761108],"type":"VEC3"},{"bufferView":6,"byteOffset":0,"componentType":5126,"count":248,"type":"VEC3"},{"bufferView":7,"byteOffset":0,"componentType":5126,"count":248,"type":"VEC2"},{"bufferView":8,"byteOffset":0,"componentType":5123,"count":402,"type":"SCALAR"},{"bufferView":9,"byteOffset":0,"componentType":5126,"count":149,"max":[0.0226073190569878,0.411229491233826,0.00530805299058557],"min":[-0.03789364546537,-0.05428928136826,-0.66769170761108],"type":"VEC3"},{"bufferView":10,"byteOffset":0,"componentType":5126,"count":149,"type":"VEC3"},{"bufferView":11,"byteOffset":0,"componentType":5126,"count":149,"type":"VEC2"},{"bufferView":12,"byteOffset":0,"componentType":5123,"count":156,"type":"SCALAR"},{"bufferView":13,"byteOffset":0,"componentType":5126,"count":65,"max":[0.0226073190569878,0.411229491233826,0],"min":[0.0000000298023223876953,-0.05428928136826,-0.66769170761108],"type":"VEC3"},{"bufferView":14,"byteOffset":0,"componentType":5126,"count":65,"type":"VEC3"},{"bufferView":15,"byteOffset":0,"componentType":5126,"count":65,"type":"VEC2"},{"bufferView":16,"byteOffset":0,"componentType":5123,"count":1923,"type":"SCALAR"},{"bufferView":17,"byteOffset":0,"componentType":5126,"count":607,"max":[0.340181052684784,1.0407657623291,0.389241933822632],"min":[-0.34018105268478,-0.000223768875,-0.45937693119049],"type":"VEC3"},{"bufferView":18,"byteOffset":0,"componentType":5126,"count":607,"type":"VEC3"},{"bufferView":19,"byteOffset":0,"componentType":5126,"count":607,"type":"VEC2"},{"bufferView":20,"byteOffset":0,"componentType":5123,"count":681,"type":"SCALAR"},{"bufferView":21,"byteOffset":0,"componentType":5126,"count":259,"max":[0.338632792234421,1.0407886505127,0.387693703174591],"min":[-0.33863279223442,-0.000223768875,-0.45385068655014],"type":"VEC3"},{"bufferView":22,"byteOffset":0,"componentType":5126,"count":259,"type":"VEC3"},{"bufferView":23,"byteOffset":0,"componentType":5126,"count":259,"type":"VEC2"}],"asset":{"generator":"FBX2glTF v0.13.1","version":"2.0"},"bufferViews":[{"buffer":0,"byteLength":7008,"byteOffset":0,"target":34963},{"buffer":0,"byteLength":11688,"byteOffset":7008,"target":34962},{"buffer":0,"byteLength":11688,"byteOffset":18696,"target":34962},{"buffer":0,"byteLength":7792,"byteOffset":30384,"target":34962},{"buffer":0,"byteLength":1536,"byteOffset":38176,"target":34963},{"buffer":0,"byteLength":2976,"byteOffset":39712,"target":34962},{"buffer":0,"byteLength":2976,"byteOffset":42688,"target":34962},{"buffer":0,"byteLength":1984,"byteOffset":45664,"target":34962},{"buffer":0,"byteLength":804,"byteOffset":47648,"target":34963},{"buffer":0,"byteLength":1788,"byteOffset":48452,"target":34962},{"buffer":0,"byteLength":1788,"byteOffset":50240,"target":34962},{"buffer":0,"byteLength":1192,"byteOffset":52028,"target":34962},{"buffer":0,"byteLength":312,"byteOffset":53220,"target":34963},{"buffer":0,"byteLength":780,"byteOffset":53532,"target":34962},{"buffer":0,"byteLength":780,"byteOffset":54312,"target":34962},{"buffer":0,"byteLength":520,"byteOffset":55092,"target":34962},{"buffer":0,"byteLength":3846,"byteOffset":55612,"target":34963},{"buffer":0,"byteLength":7284,"byteOffset":59460,"target":34962},{"buffer":0,"byteLength":7284,"byteOffset":66744,"target":34962},{"buffer":0,"byteLength":4856,"byteOffset":74028,"target":34962},{"buffer":0,"byteLength":1362,"byteOffset":78884,"target":34963},{"buffer":0,"byteLength":3108,"byteOffset":80248,"target":34962},{"buffer":0,"byteLength":3108,"byteOffset":83356,"target":34962},{"buffer":0,"byteLength":2072,"byteOffset":86464,"target":34962}],"buffers":[{"byteLength":88536,"uri":"Nightstand.bin"}],"images":[{"name":"Nightstand_A","uri":"Nightstand_A.tga"}],"materials":[{"alphaMode":"OPAQUE","doubleSided":false,"extras":{"fromFBX":{"isTruePBR":false,"shadingModel":"Phong"}},"name":"Nightstand","pbrMetallicRoughness":{"baseColorFactor":[1,1,1,1],"baseColorTexture":{"index":0,"texCoord":0},"metallicFactor":0.400000005960464,"roughnessFactor":0.272165536880493}}],"meshes":[{"name":"Nightstand_LOD0","primitives":[{"attributes":{"NORMAL":2,"POSITION":1,"TEXCOORD_0":3},"indices":0,"material":0,"mode":4}]},{"name":"Nightstand_Door_LOD0","primitives":[{"attributes":{"NORMAL":6,"POSITION":5,"TEXCOORD_0":7},"indices":4,"material":0,"mode":4}]},{"name":"Nightstand_Door_LOD1","primitives":[{"attributes":{"NORMAL":10,"POSITION":9,"TEXCOORD_0":11},"indices":8,"material":0,"mode":4}]},{"name":"Nightstand_Door_LOD2","primitives":[{"attributes":{"NORMAL":14,"POSITION":13,"TEXCOORD_0":15},"indices":12,"material":0,"mode":4}]},{"name":"Nightstand_LOD1","primitives":[{"attributes":{"NORMAL":18,"POSITION":17,"TEXCOORD_0":19},"indices":16,"material":0,"mode":4}]},{"name":"Nightstand_LOD2","primitives":[{"attributes":{"NORMAL":22,"POSITION":21,"TEXCOORD_0":23},"indices":20,"material":0,"mode":4}]}],"nodes":[{"mesh":0,"name":"Nightstand_LOD0","rotation":[0,0,0,1],"scale":[1,1,1],"translation":[0,0,0]},{"children":[2,3],"mesh":1,"name":"Nightstand_Door_LOD0","rotation":[0,0,0,1],"scale":[1,1,1],"translation":[-0.31426906585693,0.266630679368973,0.333847045898438]},{"mesh":2,"name":"Nightstand_Door_LOD1","rotation":[0,0,0,1],"scale":[1,1,1],"translation":[0.0000000190734859017994,0.0000000190734859017994,0.0000000381469718035987]},{"mesh":3,"name":"Nightstand_Door_LOD2","rotation":[0,0,0,1],"scale":[1,1,1],"translation":[0.0000000190734859017994,0.0000000190734859017994,0.0000000381469718035987]},{"mesh":4,"name":"Nightstand_LOD1","rotation":[0,0,0,1],"scale":[1,1,1],"translation":[0,0,0]},{"mesh":5,"name":"Nightstand_LOD2","rotation":[0,0,0,1],"scale":[1,1,1],"translation":[0,0,0]}],"samplers":[{}],"scene":0,"scenes":[{"name":"Root Scene","nodes":[0,1,4,5]}],"textures":[{"name":"base_color_texture","sampler":0,"source":0}]}