{"accessors":[{"bufferView":0,"byteOffset":0,"componentType":5123,"count":1200,"type":"SCALAR"},{"bufferView":1,"byteOffset":0,"componentType":5126,"count":473,"max":[0.00102603435516357,0.162156403064728,0.0920857191085815],"min":[-0.0122245978564,-0.16215640306473,-0.09819829463959],"type":"VEC3"},{"bufferView":2,"byteOffset":0,"componentType":5126,"count":473,"type":"VEC3"},{"bufferView":3,"byteOffset":0,"componentType":5126,"count":473,"type":"VEC2"},{"bufferView":4,"byteOffset":0,"componentType":5123,"count":624,"type":"SCALAR"},{"bufferView":5,"byteOffset":0,"componentType":5126,"count":324,"max":[0.00102603435516357,0.162156403064728,0.0916319042444229],"min":[-0.0122245978564,-0.16215640306473,-0.09774447977543],"type":"VEC3"},{"bufferView":6,"byteOffset":0,"componentType":5126,"count":324,"type":"VEC3"},{"bufferView":7,"byteOffset":0,"componentType":5126,"count":324,"type":"VEC2"}],"asset":{"generator":"FBX2glTF v0.13.1","version":"2.0"},"bufferViews":[{"buffer":0,"byteLength":2400,"byteOffset":0,"target":34963},{"buffer":0,"byteLength":5676,"byteOffset":2400,"target":34962},{"buffer":0,"byteLength":5676,"byteOffset":8076,"target":34962},{"buffer":0,"byteLength":3784,"byteOffset":13752,"target":34962},{"buffer":0,"byteLength":1248,"byteOffset":17536,"target":34963},{"buffer":0,"byteLength":3888,"byteOffset":18784,"target":34962},{"buffer":0,"byteLength":3888,"byteOffset":22672,"target":34962},{"buffer":0,"byteLength":2592,"byteOffset":26560,"target":34962}],"buffers":[{"byteLength":29152,"uri":"Pad.bin"}],"images":[{"name":"Curtain_A","uri":"Curtain_A.tga"}],"materials":[{"alphaMode":"OPAQUE","doubleSided":false,"extras":{"fromFBX":{"isTruePBR":false,"shadingModel":"Phong"}},"name":"Curtain","pbrMetallicRoughness":{"baseColorFactor":[1,1,1,1],"baseColorTexture":{"index":0,"texCoord":0},"metallicFactor":0.400000005960464,"roughnessFactor":0.272165536880493}}],"meshes":[{"name":"Pad_LOD0","primitives":[{"attributes":{"NORMAL":2,"POSITION":1,"TEXCOORD_0":3},"indices":0,"material":0,"mode":4}]},{"name":"Pad_LOD1","primitives":[{"attributes":{"NORMAL":6,"POSITION":5,"TEXCOORD_0":7},"indices":4,"material":0,"mode":4}]}],"nodes":[{"mesh":0,"name":"Pad_LOD0","rotation":[0,0,0,1],"scale":[1,1,1],"translation":[0,0,0]},{"mesh":1,"name":"Pad_LOD1","rotation":[0,0,0,1],"scale":[1,1,1],"translation":[0,0,0]}],"samplers":[{}],"scene":0,"scenes":[{"name":"Root Scene","nodes":[0,1]}],"textures":[{"name":"base_color_texture","sampler":0,"source":0}]}