{"accessors":[{"bufferView":0,"byteOffset":0,"componentType":5123,"count":3894,"type":"SCALAR"},{"bufferView":1,"byteOffset":0,"componentType":5126,"count":997,"max":[0.276758939027786,0.136514142155647,0.168061077594757],"min":[-0.16725131869316,-0.00000000552574,-0.16806107759476],"type":"VEC3"},{"bufferView":2,"byteOffset":0,"componentType":5126,"count":997,"type":"VEC3"},{"bufferView":3,"byteOffset":0,"componentType":5126,"count":997,"type":"VEC2"},{"bufferView":4,"byteOffset":0,"componentType":5123,"count":1998,"type":"SCALAR"},{"bufferView":5,"byteOffset":0,"componentType":5126,"count":565,"max":[0.276529133319855,0.136740565299988,0.168052837252617],"min":[-0.16725131869316,-0.00000000552574,-0.16805289685726],"type":"VEC3"},{"bufferView":6,"byteOffset":0,"componentType":5126,"count":565,"type":"VEC3"},{"bufferView":7,"byteOffset":0,"componentType":5126,"count":565,"type":"VEC2"},{"bufferView":8,"byteOffset":0,"componentType":5123,"count":468,"type":"SCALAR"},{"bufferView":9,"byteOffset":0,"componentType":5126,"count":317,"max":[0.274598687887192,0.135035470128059,0.15539188683033],"min":[-0.15099613368511,-0.00001135453476,-0.15539188683033],"type":"VEC3"},{"bufferView":10,"byteOffset":0,"componentType":5126,"count":317,"type":"VEC3"},{"bufferView":11,"byteOffset":0,"componentType":5126,"count":317,"type":"VEC2"}],"asset":{"generator":"FBX2glTF v0.13.1","version":"2.0"},"bufferViews":[{"buffer":0,"byteLength":7788,"byteOffset":0,"target":34963},{"buffer":0,"byteLength":11964,"byteOffset":7788,"target":34962},{"buffer":0,"byteLength":11964,"byteOffset":19752,"target":34962},{"buffer":0,"byteLength":7976,"byteOffset":31716,"target":34962},{"buffer":0,"byteLength":3996,"byteOffset":39692,"target":34963},{"buffer":0,"byteLength":6780,"byteOffset":43688,"target":34962},{"buffer":0,"byteLength":6780,"byteOffset":50468,"target":34962},{"buffer":0,"byteLength":4520,"byteOffset":57248,"target":34962},{"buffer":0,"byteLength":936,"byteOffset":61768,"target":34963},{"buffer":0,"byteLength":3804,"byteOffset":62704,"target":34962},{"buffer":0,"byteLength":3804,"byteOffset":66508,"target":34962},{"buffer":0,"byteLength":2536,"byteOffset":70312,"target":34962}],"buffers":[{"byteLength":72848,"uri":"Paint_Roller.bin"}],"images":[{"name":"Construction_Tools_A","uri":"Construction_Tools_A.tga"}],"materials":[{"alphaMode":"OPAQUE","doubleSided":false,"extras":{"fromFBX":{"isTruePBR":false,"shadingModel":"Phong"}},"name":"Construction_Tools","pbrMetallicRoughness":{"baseColorFactor":[1,1,1,1],"baseColorTexture":{"index":0,"texCoord":0},"metallicFactor":0.400000005960464,"roughnessFactor":0.272165536880493}}],"meshes":[{"name":"Paint_Roller_LOD0","primitives":[{"attributes":{"NORMAL":2,"POSITION":1,"TEXCOORD_0":3},"indices":0,"material":0,"mode":4}]},{"name":"Paint_Roller_LOD1","primitives":[{"attributes":{"NORMAL":6,"POSITION":5,"TEXCOORD_0":7},"indices":4,"material":0,"mode":4}]},{"name":"Paint_Roller_LOD2","primitives":[{"attributes":{"NORMAL":10,"POSITION":9,"TEXCOORD_0":11},"indices":8,"material":0,"mode":4}]}],"nodes":[{"mesh":0,"name":"Paint_Roller_LOD0","rotation":[0,0,0,1],"scale":[1,1,1],"translation":[0,0,0]},{"mesh":1,"name":"Paint_Roller_LOD1","rotation":[0,0,0,1],"scale":[1,1,1],"translation":[0,0,0]},{"mesh":2,"name":"Paint_Roller_LOD2","rotation":[0,0,0,1],"scale":[1,1,1],"translation":[0,0,0]}],"samplers":[{}],"scene":0,"scenes":[{"name":"Root Scene","nodes":[0,1,2]}],"textures":[{"name":"base_color_texture","sampler":0,"source":0}]}