{"accessors":[{"bufferView":0,"byteOffset":0,"componentType":5123,"count":294,"type":"SCALAR"},{"bufferView":1,"byteOffset":0,"componentType":5126,"count":142,"max":[0.0766169875860214,0.253019034862518,0.138700872659683],"min":[-0.05757725983858,-0.00859561190009,-0.17929086089134],"type":"VEC3"},{"bufferView":2,"byteOffset":0,"componentType":5126,"count":142,"type":"VEC3"},{"bufferView":3,"byteOffset":0,"componentType":5126,"count":142,"type":"VEC2"},{"bufferView":4,"byteOffset":0,"componentType":5123,"count":126,"type":"SCALAR"},{"bufferView":5,"byteOffset":0,"componentType":5126,"count":74,"max":[0.0766169875860214,0.253019034862518,0.138700872659683],"min":[-0.05757725983858,-0.00859561190009,-0.17929086089134],"type":"VEC3"},{"bufferView":6,"byteOffset":0,"componentType":5126,"count":74,"type":"VEC3"},{"bufferView":7,"byteOffset":0,"componentType":5126,"count":74,"type":"VEC2"}],"asset":{"generator":"FBX2glTF v0.13.1","version":"2.0"},"bufferViews":[{"buffer":0,"byteLength":588,"byteOffset":0,"target":34963},{"buffer":0,"byteLength":1704,"byteOffset":588,"target":34962},{"buffer":0,"byteLength":1704,"byteOffset":2292,"target":34962},{"buffer":0,"byteLength":1136,"byteOffset":3996,"target":34962},{"buffer":0,"byteLength":252,"byteOffset":5132,"target":34963},{"buffer":0,"byteLength":888,"byteOffset":5384,"target":34962},{"buffer":0,"byteLength":888,"byteOffset":6272,"target":34962},{"buffer":0,"byteLength":592,"byteOffset":7160,"target":34962}],"buffers":[{"byteLength":7752,"uri":"Photo_Frame.bin"}],"images":[{"name":"Shelf_A","uri":"Shelf_A.tga"}],"materials":[{"alphaMode":"OPAQUE","doubleSided":false,"extras":{"fromFBX":{"isTruePBR":false,"shadingModel":"Phong"}},"name":"Shelf","pbrMetallicRoughness":{"baseColorFactor":[1,1,1,1],"baseColorTexture":{"index":0,"texCoord":0},"metallicFactor":0.400000005960464,"roughnessFactor":0.272165536880493}}],"meshes":[{"name":"Photo_Frame_LOD0","primitives":[{"attributes":{"NORMAL":2,"POSITION":1,"TEXCOORD_0":3},"indices":0,"material":0,"mode":4}]},{"name":"Photo_Frame_LOD1","primitives":[{"attributes":{"NORMAL":6,"POSITION":5,"TEXCOORD_0":7},"indices":4,"material":0,"mode":4}]}],"nodes":[{"mesh":0,"name":"Photo_Frame_LOD0","rotation":[0,0,0,1],"scale":[1,1,1],"translation":[0,0,0]},{"mesh":1,"name":"Photo_Frame_LOD1","rotation":[0,0,0,1],"scale":[1,1,1],"translation":[0,0,0]}],"samplers":[{}],"scene":0,"scenes":[{"name":"Root Scene","nodes":[0,1]}],"textures":[{"name":"base_color_texture","sampler":0,"source":0}]}