{"accessors":[{"bufferView":0,"byteOffset":0,"componentType":5123,"count":1812,"type":"SCALAR"},{"bufferView":1,"byteOffset":0,"componentType":5126,"count":584,"max":[0.00836995430290699,2.08782839775085,0.513864934444427],"min":[-0.27904364466667,-0.00606447458267,-0.51369321346283],"type":"VEC3"},{"bufferView":2,"byteOffset":0,"componentType":5126,"count":584,"type":"VEC3"},{"bufferView":3,"byteOffset":0,"componentType":5126,"count":584,"type":"VEC2"},{"bufferView":4,"byteOffset":0,"componentType":5123,"count":918,"type":"SCALAR"},{"bufferView":5,"byteOffset":0,"componentType":5126,"count":325,"max":[0.00836995430290699,2.08782839775085,0.513864934444427],"min":[-0.27832582592964,-0.00606447458267,-0.51369321346283],"type":"VEC3"},{"bufferView":6,"byteOffset":0,"componentType":5126,"count":325,"type":"VEC3"},{"bufferView":7,"byteOffset":0,"componentType":5126,"count":325,"type":"VEC2"},{"bufferView":8,"byteOffset":0,"componentType":5123,"count":234,"type":"SCALAR"},{"bufferView":9,"byteOffset":0,"componentType":5126,"count":184,"max":[0.00836995430290699,2.07536816596985,0.513864934444427],"min":[-0.27172222733498,-0.00606447458267,-0.51369321346283],"type":"VEC3"},{"bufferView":10,"byteOffset":0,"componentType":5126,"count":184,"type":"VEC3"},{"bufferView":11,"byteOffset":0,"componentType":5126,"count":184,"type":"VEC2"}],"asset":{"generator":"FBX2glTF v0.13.1","version":"2.0"},"bufferViews":[{"buffer":0,"byteLength":3624,"byteOffset":0,"target":34963},{"buffer":0,"byteLength":7008,"byteOffset":3624,"target":34962},{"buffer":0,"byteLength":7008,"byteOffset":10632,"target":34962},{"buffer":0,"byteLength":4672,"byteOffset":17640,"target":34962},{"buffer":0,"byteLength":1836,"byteOffset":22312,"target":34963},{"buffer":0,"byteLength":3900,"byteOffset":24148,"target":34962},{"buffer":0,"byteLength":3900,"byteOffset":28048,"target":34962},{"buffer":0,"byteLength":2600,"byteOffset":31948,"target":34962},{"buffer":0,"byteLength":468,"byteOffset":34548,"target":34963},{"buffer":0,"byteLength":2208,"byteOffset":35016,"target":34962},{"buffer":0,"byteLength":2208,"byteOffset":37224,"target":34962},{"buffer":0,"byteLength":1472,"byteOffset":39432,"target":34962}],"buffers":[{"byteLength":40904,"uri":"Poster_04.bin"}],"images":[{"name":"Poster_A","uri":"Poster_A.tga"}],"materials":[{"alphaMode":"OPAQUE","doubleSided":false,"extras":{"fromFBX":{"isTruePBR":false,"shadingModel":"Phong"}},"name":"Poster","pbrMetallicRoughness":{"baseColorFactor":[1,1,1,1],"baseColorTexture":{"index":0,"texCoord":0},"metallicFactor":0.400000005960464,"roughnessFactor":0.272165536880493}}],"meshes":[{"name":"Poster_04_LOD0","primitives":[{"attributes":{"NORMAL":2,"POSITION":1,"TEXCOORD_0":3},"indices":0,"material":0,"mode":4}]},{"name":"Poster_04_LOD1","primitives":[{"attributes":{"NORMAL":6,"POSITION":5,"TEXCOORD_0":7},"indices":4,"material":0,"mode":4}]},{"name":"Poster_04_LOD2","primitives":[{"attributes":{"NORMAL":10,"POSITION":9,"TEXCOORD_0":11},"indices":8,"material":0,"mode":4}]}],"nodes":[{"mesh":0,"name":"Poster_04_LOD0","rotation":[0,0,0,1],"scale":[1,1,1],"translation":[0,0,0]},{"mesh":1,"name":"Poster_04_LOD1","rotation":[0,0,0,1],"scale":[1,1,1],"translation":[0,0,0]},{"mesh":2,"name":"Poster_04_LOD2","rotation":[0,0,0,1],"scale":[1,1,1],"translation":[0,0,0]}],"samplers":[{}],"scene":0,"scenes":[{"name":"Root Scene","nodes":[0,1,2]}],"textures":[{"name":"base_color_texture","sampler":0,"source":0}]}