{"accessors":[{"bufferView":0,"byteOffset":0,"componentType":5123,"count":1716,"type":"SCALAR"},{"bufferView":1,"byteOffset":0,"componentType":5126,"count":455,"max":[0.0222028885036707,2.06730270385742,1.27956557273865],"min":[-0.28550723195076,-0.00342541001737,-1.26682615280151],"type":"VEC3"},{"bufferView":2,"byteOffset":0,"componentType":5126,"count":455,"type":"VEC3"},{"bufferView":3,"byteOffset":0,"componentType":5126,"count":455,"type":"VEC2"},{"bufferView":4,"byteOffset":0,"componentType":5123,"count":714,"type":"SCALAR"},{"bufferView":5,"byteOffset":0,"componentType":5126,"count":266,"max":[0.0222028885036707,2.06730270385742,1.27697920799255],"min":[-0.28191527724266,-0.00203956477344,-1.26682615280151],"type":"VEC3"},{"bufferView":6,"byteOffset":0,"componentType":5126,"count":266,"type":"VEC3"},{"bufferView":7,"byteOffset":0,"componentType":5126,"count":266,"type":"VEC2"},{"bufferView":8,"byteOffset":0,"componentType":5123,"count":132,"type":"SCALAR"},{"bufferView":9,"byteOffset":0,"componentType":5126,"count":78,"max":[-0.08974819630384,2.07050156593323,1.2774498462677],"min":[-0.27120491862297,0.0628946274518967,-1.26541185379028],"type":"VEC3"},{"bufferView":10,"byteOffset":0,"componentType":5126,"count":78,"type":"VEC3"},{"bufferView":11,"byteOffset":0,"componentType":5126,"count":78,"type":"VEC2"}],"asset":{"generator":"FBX2glTF v0.13.1","version":"2.0"},"bufferViews":[{"buffer":0,"byteLength":3432,"byteOffset":0,"target":34963},{"buffer":0,"byteLength":5460,"byteOffset":3432,"target":34962},{"buffer":0,"byteLength":5460,"byteOffset":8892,"target":34962},{"buffer":0,"byteLength":3640,"byteOffset":14352,"target":34962},{"buffer":0,"byteLength":1428,"byteOffset":17992,"target":34963},{"buffer":0,"byteLength":3192,"byteOffset":19420,"target":34962},{"buffer":0,"byteLength":3192,"byteOffset":22612,"target":34962},{"buffer":0,"byteLength":2128,"byteOffset":25804,"target":34962},{"buffer":0,"byteLength":264,"byteOffset":27932,"target":34963},{"buffer":0,"byteLength":936,"byteOffset":28196,"target":34962},{"buffer":0,"byteLength":936,"byteOffset":29132,"target":34962},{"buffer":0,"byteLength":624,"byteOffset":30068,"target":34962}],"buffers":[{"byteLength":30692,"uri":"Projector_Screen_01.bin"}],"images":[{"name":"Projector_Screen_A","uri":"Projector_Screen_A.tga"}],"materials":[{"alphaMode":"OPAQUE","doubleSided":false,"extras":{"fromFBX":{"isTruePBR":false,"shadingModel":"Phong"}},"name":"Projector_Screen","pbrMetallicRoughness":{"baseColorFactor":[1,1,1,1],"baseColorTexture":{"index":0,"texCoord":0},"metallicFactor":0.400000005960464,"roughnessFactor":0.272165536880493}}],"meshes":[{"name":"Projector_Screen_01_LOD0","primitives":[{"attributes":{"NORMAL":2,"POSITION":1,"TEXCOORD_0":3},"indices":0,"material":0,"mode":4}]},{"name":"Projector_Screen_01_LOD1","primitives":[{"attributes":{"NORMAL":6,"POSITION":5,"TEXCOORD_0":7},"indices":4,"material":0,"mode":4}]},{"name":"Projector_Screen_01_LOD2","primitives":[{"attributes":{"NORMAL":10,"POSITION":9,"TEXCOORD_0":11},"indices":8,"material":0,"mode":4}]}],"nodes":[{"mesh":0,"name":"Projector_Screen_01_LOD0","rotation":[0,0,0,1],"scale":[1,1,1],"translation":[0,0,0]},{"mesh":1,"name":"Projector_Screen_01_LOD1","rotation":[0,0,0,1],"scale":[1,1,1],"translation":[0,0,0]},{"mesh":2,"name":"Projector_Screen_01_LOD2","rotation":[0,0,0,1],"scale":[1,1,1],"translation":[0,0,0]}],"samplers":[{}],"scene":0,"scenes":[{"name":"Root Scene","nodes":[0,1,2]}],"textures":[{"name":"base_color_texture","sampler":0,"source":0}]}