{"accessors":[{"bufferView":0,"byteOffset":0,"componentType":5123,"count":20064,"type":"SCALAR"},{"bufferView":1,"byteOffset":0,"componentType":5126,"count":6387,"max":[0.336558640003204,0.705074310302734,0.170349329710007],"min":[-0.25182065367699,0.00068885582732036,-0.14341244101524],"type":"VEC3"},{"bufferView":2,"byteOffset":0,"componentType":5126,"count":6387,"type":"VEC3"},{"bufferView":3,"byteOffset":0,"componentType":5126,"count":6387,"type":"VEC2"},{"bufferView":4,"byteOffset":0,"componentType":5123,"count":10767,"type":"SCALAR"},{"bufferView":5,"byteOffset":0,"componentType":5126,"count":3828,"max":[0.336558640003204,0.705074310302734,0.170604050159454],"min":[-0.25182065367699,0.00072316755540669,-0.14341244101524],"type":"VEC3"},{"bufferView":6,"byteOffset":0,"componentType":5126,"count":3828,"type":"VEC3"},{"bufferView":7,"byteOffset":0,"componentType":5126,"count":3828,"type":"VEC2"},{"bufferView":8,"byteOffset":0,"componentType":5123,"count":2556,"type":"SCALAR"},{"bufferView":9,"byteOffset":0,"componentType":5126,"count":1319,"max":[0.336838334798813,0.707624793052673,0.165841653943062],"min":[-0.25182065367699,0.00074063759529963,-0.13088276982307],"type":"VEC3"},{"bufferView":10,"byteOffset":0,"componentType":5126,"count":1319,"type":"VEC3"},{"bufferView":11,"byteOffset":0,"componentType":5126,"count":1319,"type":"VEC2"}],"asset":{"generator":"FBX2glTF v0.13.1","version":"2.0"},"bufferViews":[{"buffer":0,"byteLength":40128,"byteOffset":0,"target":34963},{"buffer":0,"byteLength":76644,"byteOffset":40128,"target":34962},{"buffer":0,"byteLength":76644,"byteOffset":116772,"target":34962},{"buffer":0,"byteLength":51096,"byteOffset":193416,"target":34962},{"buffer":0,"byteLength":21534,"byteOffset":244512,"target":34963},{"buffer":0,"byteLength":45936,"byteOffset":266048,"target":34962},{"buffer":0,"byteLength":45936,"byteOffset":311984,"target":34962},{"buffer":0,"byteLength":30624,"byteOffset":357920,"target":34962},{"buffer":0,"byteLength":5112,"byteOffset":388544,"target":34963},{"buffer":0,"byteLength":15828,"byteOffset":393656,"target":34962},{"buffer":0,"byteLength":15828,"byteOffset":409484,"target":34962},{"buffer":0,"byteLength":10552,"byteOffset":425312,"target":34962}],"buffers":[{"byteLength":435864,"uri":"Projector.bin"}],"images":[{"name":"Projector_A","uri":"Projector_A.tga"}],"materials":[{"alphaMode":"OPAQUE","doubleSided":false,"extras":{"fromFBX":{"isTruePBR":false,"shadingModel":"Phong"}},"name":"Projector","pbrMetallicRoughness":{"baseColorFactor":[1,1,1,1],"baseColorTexture":{"index":0,"texCoord":0},"metallicFactor":0.400000005960464,"roughnessFactor":0.272165536880493}}],"meshes":[{"name":"Projector_LOD0","primitives":[{"attributes":{"NORMAL":2,"POSITION":1,"TEXCOORD_0":3},"indices":0,"material":0,"mode":4}]},{"name":"Projector_LOD1","primitives":[{"attributes":{"NORMAL":6,"POSITION":5,"TEXCOORD_0":7},"indices":4,"material":0,"mode":4}]},{"name":"Projector_LOD2","primitives":[{"attributes":{"NORMAL":10,"POSITION":9,"TEXCOORD_0":11},"indices":8,"material":0,"mode":4}]}],"nodes":[{"mesh":0,"name":"Projector_LOD0","rotation":[0,0,0,1],"scale":[1,1,1],"translation":[0,0,0]},{"mesh":1,"name":"Projector_LOD1","rotation":[0,0,0,1],"scale":[1,1,1],"translation":[0,0,0]},{"mesh":2,"name":"Projector_LOD2","rotation":[0,0,0,1],"scale":[1,1,1],"translation":[0,0,0]}],"samplers":[{}],"scene":0,"scenes":[{"name":"Root Scene","nodes":[0,1,2]}],"textures":[{"name":"base_color_texture","sampler":0,"source":0}]}