{"accessors":[{"bufferView":0,"byteOffset":0,"componentType":5123,"count":9918,"type":"SCALAR"},{"bufferView":1,"byteOffset":0,"componentType":5126,"count":2120,"max":[0.404270619153976,1.15287578105927,0.320285797119141],"min":[-0.26603049039841,-0.00347404927015,-0.32028579711914],"type":"VEC3"},{"bufferView":2,"byteOffset":0,"componentType":5126,"count":2120,"type":"VEC3"},{"bufferView":3,"byteOffset":0,"componentType":5126,"count":2120,"type":"VEC2"},{"bufferView":4,"byteOffset":0,"componentType":5123,"count":3072,"type":"SCALAR"},{"bufferView":5,"byteOffset":0,"componentType":5126,"count":871,"max":[0.404270619153976,1.15262413024902,0.320285797119141],"min":[-0.26601493358612,-0.00347404927015,-0.32028579711914],"type":"VEC3"},{"bufferView":6,"byteOffset":0,"componentType":5126,"count":871,"type":"VEC3"},{"bufferView":7,"byteOffset":0,"componentType":5126,"count":871,"type":"VEC2"},{"bufferView":8,"byteOffset":0,"componentType":5123,"count":693,"type":"SCALAR"},{"bufferView":9,"byteOffset":0,"componentType":5126,"count":326,"max":[0.392823338508606,1.14986908435822,0.323167145252228],"min":[-0.26369652152062,-0.00347404833883,-0.32301867008209],"type":"VEC3"},{"bufferView":10,"byteOffset":0,"componentType":5126,"count":326,"type":"VEC3"},{"bufferView":11,"byteOffset":0,"componentType":5126,"count":326,"type":"VEC2"}],"asset":{"generator":"FBX2glTF v0.13.1","version":"2.0"},"bufferViews":[{"buffer":0,"byteLength":19836,"byteOffset":0,"target":34963},{"buffer":0,"byteLength":25440,"byteOffset":19836,"target":34962},{"buffer":0,"byteLength":25440,"byteOffset":45276,"target":34962},{"buffer":0,"byteLength":16960,"byteOffset":70716,"target":34962},{"buffer":0,"byteLength":6144,"byteOffset":87676,"target":34963},{"buffer":0,"byteLength":10452,"byteOffset":93820,"target":34962},{"buffer":0,"byteLength":10452,"byteOffset":104272,"target":34962},{"buffer":0,"byteLength":6968,"byteOffset":114724,"target":34962},{"buffer":0,"byteLength":1386,"byteOffset":121692,"target":34963},{"buffer":0,"byteLength":3912,"byteOffset":123080,"target":34962},{"buffer":0,"byteLength":3912,"byteOffset":126992,"target":34962},{"buffer":0,"byteLength":2608,"byteOffset":130904,"target":34962}],"buffers":[{"byteLength":133512,"uri":"Reception_Сhair.bin"}],"materials":[{"alphaMode":"OPAQUE","doubleSided":false,"extras":{"fromFBX":{"isTruePBR":false,"shadingModel":"Phong"}},"name":"Reception_Сhair","pbrMetallicRoughness":{"baseColorFactor":[1,1,1,1],"metallicFactor":0.400000005960464,"roughnessFactor":0.272165536880493}}],"meshes":[{"name":"Reception_Сhair_LOD0","primitives":[{"attributes":{"NORMAL":2,"POSITION":1,"TEXCOORD_0":3},"indices":0,"material":0,"mode":4}]},{"name":"Reception_Сhair_LOD1","primitives":[{"attributes":{"NORMAL":6,"POSITION":5,"TEXCOORD_0":7},"indices":4,"material":0,"mode":4}]},{"name":"Reception_Сhair_LOD2","primitives":[{"attributes":{"NORMAL":10,"POSITION":9,"TEXCOORD_0":11},"indices":8,"material":0,"mode":4}]}],"nodes":[{"mesh":0,"name":"Reception_Сhair_LOD0","rotation":[0,0,0,1],"scale":[1,1,1],"translation":[0,0,0]},{"mesh":1,"name":"Reception_Сhair_LOD1","rotation":[0,0,0,1],"scale":[1,1,1],"translation":[0,0,0]},{"mesh":2,"name":"Reception_Сhair_LOD2","rotation":[0,0,0,1],"scale":[1,1,1],"translation":[0,0,0]}],"samplers":[{}],"scene":0,"scenes":[{"name":"Root Scene","nodes":[0,1,2]}]}