{"accessors":[{"bufferView":0,"byteOffset":0,"componentType":5123,"count":2112,"type":"SCALAR"},{"bufferView":1,"byteOffset":0,"componentType":5126,"count":702,"max":[0.0605795085430145,0.0062867826782167,0.0463344268500805],"min":[-0.08719853311777,-0.00586596224457,-0.05034758150578],"type":"VEC3"},{"bufferView":2,"byteOffset":0,"componentType":5126,"count":702,"type":"VEC3"},{"bufferView":3,"byteOffset":0,"componentType":5126,"count":702,"type":"VEC2"},{"bufferView":4,"byteOffset":0,"componentType":5123,"count":954,"type":"SCALAR"},{"bufferView":5,"byteOffset":0,"componentType":5126,"count":482,"max":[0.0604763925075531,0.0062867826782167,0.0452836640179157],"min":[-0.08719853311777,-0.00586596177891,-0.05037939548492],"type":"VEC3"},{"bufferView":6,"byteOffset":0,"componentType":5126,"count":482,"type":"VEC3"},{"bufferView":7,"byteOffset":0,"componentType":5126,"count":482,"type":"VEC2"},{"bufferView":8,"byteOffset":0,"componentType":5123,"count":444,"type":"SCALAR"},{"bufferView":9,"byteOffset":0,"componentType":5126,"count":386,"max":[0.0601216107606888,0.0062867826782167,0.0461734272539616],"min":[-0.08762081712484,-0.00511691672727,-0.05058108642697],"type":"VEC3"},{"bufferView":10,"byteOffset":0,"componentType":5126,"count":386,"type":"VEC3"},{"bufferView":11,"byteOffset":0,"componentType":5126,"count":386,"type":"VEC2"}],"asset":{"generator":"FBX2glTF v0.13.1","version":"2.0"},"bufferViews":[{"buffer":0,"byteLength":4224,"byteOffset":0,"target":34963},{"buffer":0,"byteLength":8424,"byteOffset":4224,"target":34962},{"buffer":0,"byteLength":8424,"byteOffset":12648,"target":34962},{"buffer":0,"byteLength":5616,"byteOffset":21072,"target":34962},{"buffer":0,"byteLength":1908,"byteOffset":26688,"target":34963},{"buffer":0,"byteLength":5784,"byteOffset":28596,"target":34962},{"buffer":0,"byteLength":5784,"byteOffset":34380,"target":34962},{"buffer":0,"byteLength":3856,"byteOffset":40164,"target":34962},{"buffer":0,"byteLength":888,"byteOffset":44020,"target":34963},{"buffer":0,"byteLength":4632,"byteOffset":44908,"target":34962},{"buffer":0,"byteLength":4632,"byteOffset":49540,"target":34962},{"buffer":0,"byteLength":3088,"byteOffset":54172,"target":34962}],"buffers":[{"byteLength":57260,"uri":"Rosary.bin"}],"images":[{"name":"Shelf_A","uri":"Shelf_A.tga"}],"materials":[{"alphaMode":"OPAQUE","doubleSided":false,"extras":{"fromFBX":{"isTruePBR":false,"shadingModel":"Phong"}},"name":"Shelf","pbrMetallicRoughness":{"baseColorFactor":[1,1,1,1],"baseColorTexture":{"index":0,"texCoord":0},"metallicFactor":0.400000005960464,"roughnessFactor":0.272165536880493}}],"meshes":[{"name":"Rosary_LOD0","primitives":[{"attributes":{"NORMAL":2,"POSITION":1,"TEXCOORD_0":3},"indices":0,"material":0,"mode":4}]},{"name":"Rosary_LOD1","primitives":[{"attributes":{"NORMAL":6,"POSITION":5,"TEXCOORD_0":7},"indices":4,"material":0,"mode":4}]},{"name":"Rosary_LOD2","primitives":[{"attributes":{"NORMAL":10,"POSITION":9,"TEXCOORD_0":11},"indices":8,"material":0,"mode":4}]}],"nodes":[{"mesh":0,"name":"Rosary_LOD0","rotation":[0,0,0,1],"scale":[1,1,1],"translation":[0,0,0]},{"mesh":1,"name":"Rosary_LOD1","rotation":[0,0,0,1],"scale":[1,1,1],"translation":[0,0,0]},{"mesh":2,"name":"Rosary_LOD2","rotation":[0,0,0,1],"scale":[1,1,1],"translation":[0,0,0]}],"samplers":[{}],"scene":0,"scenes":[{"name":"Root Scene","nodes":[0,1,2]}],"textures":[{"name":"base_color_texture","sampler":0,"source":0}]}