{"accessors":[{"bufferView":0,"byteOffset":0,"componentType":5123,"count":2499,"type":"SCALAR"},{"bufferView":1,"byteOffset":0,"componentType":5126,"count":517,"max":[0.0148569345474243,0.0703548267483711,0.29705810546875],"min":[-0.01485693454742,-0.03300504013896,-0.06945824623108],"type":"VEC3"},{"bufferView":2,"byteOffset":0,"componentType":5126,"count":517,"type":"VEC3"},{"bufferView":3,"byteOffset":0,"componentType":5126,"count":517,"type":"VEC2"},{"bufferView":4,"byteOffset":0,"componentType":5123,"count":1053,"type":"SCALAR"},{"bufferView":5,"byteOffset":0,"componentType":5126,"count":236,"max":[0.0149192977696657,0.0704651847481728,0.29705810546875],"min":[-0.01491932198405,-0.0328581109643,-0.0693282559514],"type":"VEC3"},{"bufferView":6,"byteOffset":0,"componentType":5126,"count":236,"type":"VEC3"},{"bufferView":7,"byteOffset":0,"componentType":5126,"count":236,"type":"VEC2"},{"bufferView":8,"byteOffset":0,"componentType":5123,"count":363,"type":"SCALAR"},{"bufferView":9,"byteOffset":0,"componentType":5126,"count":100,"max":[0.015250489115715,0.0704162791371346,0.297364503145218],"min":[-0.01525052729994,-0.03336840122938,-0.06877316534519],"type":"VEC3"},{"bufferView":10,"byteOffset":0,"componentType":5126,"count":100,"type":"VEC3"},{"bufferView":11,"byteOffset":0,"componentType":5126,"count":100,"type":"VEC2"}],"asset":{"generator":"FBX2glTF v0.13.1","version":"2.0"},"bufferViews":[{"buffer":0,"byteLength":4998,"byteOffset":0,"target":34963},{"buffer":0,"byteLength":6204,"byteOffset":5000,"target":34962},{"buffer":0,"byteLength":6204,"byteOffset":11204,"target":34962},{"buffer":0,"byteLength":4136,"byteOffset":17408,"target":34962},{"buffer":0,"byteLength":2106,"byteOffset":21544,"target":34963},{"buffer":0,"byteLength":2832,"byteOffset":23652,"target":34962},{"buffer":0,"byteLength":2832,"byteOffset":26484,"target":34962},{"buffer":0,"byteLength":1888,"byteOffset":29316,"target":34962},{"buffer":0,"byteLength":726,"byteOffset":31204,"target":34963},{"buffer":0,"byteLength":1200,"byteOffset":31932,"target":34962},{"buffer":0,"byteLength":1200,"byteOffset":33132,"target":34962},{"buffer":0,"byteLength":800,"byteOffset":34332,"target":34962}],"buffers":[{"byteLength":35132,"uri":"Sacrificial_knife.bin"}],"images":[{"name":"Candles_A","uri":"Candles_A.tga"}],"materials":[{"alphaMode":"OPAQUE","doubleSided":false,"extras":{"fromFBX":{"isTruePBR":false,"shadingModel":"Phong"}},"name":"Candles","pbrMetallicRoughness":{"baseColorFactor":[1,1,1,1],"baseColorTexture":{"index":0,"texCoord":0},"metallicFactor":0.400000005960464,"roughnessFactor":0.272165536880493}}],"meshes":[{"name":"Sacrificial_knife_LOD0","primitives":[{"attributes":{"NORMAL":2,"POSITION":1,"TEXCOORD_0":3},"indices":0,"material":0,"mode":4}]},{"name":"Sacrificial_knife_LOD1","primitives":[{"attributes":{"NORMAL":6,"POSITION":5,"TEXCOORD_0":7},"indices":4,"material":0,"mode":4}]},{"name":"Sacrificial_knife_LOD2","primitives":[{"attributes":{"NORMAL":10,"POSITION":9,"TEXCOORD_0":11},"indices":8,"material":0,"mode":4}]}],"nodes":[{"mesh":0,"name":"Sacrificial_knife_LOD0","rotation":[0,0,0,1],"scale":[1,1,1],"translation":[0,0,0]},{"mesh":1,"name":"Sacrificial_knife_LOD1","rotation":[0,0,0,1],"scale":[1,1,1],"translation":[0,0,0]},{"mesh":2,"name":"Sacrificial_knife_LOD2","rotation":[0,0,0,1],"scale":[1,1,1],"translation":[0,0,0]}],"samplers":[{}],"scene":0,"scenes":[{"name":"Root Scene","nodes":[0,1,2]}],"textures":[{"name":"base_color_texture","sampler":0,"source":0}]}