{"accessors":[{"bufferView":0,"byteOffset":0,"componentType":5123,"count":864,"type":"SCALAR"},{"bufferView":1,"byteOffset":0,"componentType":5126,"count":318,"max":[0.00023853778839111,0.0191662088036537,0.518376469612122],"min":[-0.24483048915863,-0.17286762595177,-0.51837641000748],"type":"VEC3"},{"bufferView":2,"byteOffset":0,"componentType":5126,"count":318,"type":"VEC3"},{"bufferView":3,"byteOffset":0,"componentType":5126,"count":318,"type":"VEC2"},{"bufferView":4,"byteOffset":0,"componentType":5123,"count":456,"type":"SCALAR"},{"bufferView":5,"byteOffset":0,"componentType":5126,"count":182,"max":[0.00023107620654627,0.0191662088036537,0.518376469612122],"min":[-0.24483048915863,-0.17286762595177,-0.51837641000748],"type":"VEC3"},{"bufferView":6,"byteOffset":0,"componentType":5126,"count":182,"type":"VEC3"},{"bufferView":7,"byteOffset":0,"componentType":5126,"count":182,"type":"VEC2"},{"bufferView":8,"byteOffset":0,"componentType":5123,"count":285,"type":"SCALAR"},{"bufferView":9,"byteOffset":0,"componentType":5126,"count":129,"max":[0.00037729463656432,0.0191662088036537,0.518376469612122],"min":[-0.24483048915863,-0.17286762595177,-0.51837641000748],"type":"VEC3"},{"bufferView":10,"byteOffset":0,"componentType":5126,"count":129,"type":"VEC3"},{"bufferView":11,"byteOffset":0,"componentType":5126,"count":129,"type":"VEC2"}],"asset":{"generator":"FBX2glTF v0.13.1","version":"2.0"},"bufferViews":[{"buffer":0,"byteLength":1728,"byteOffset":0,"target":34963},{"buffer":0,"byteLength":3816,"byteOffset":1728,"target":34962},{"buffer":0,"byteLength":3816,"byteOffset":5544,"target":34962},{"buffer":0,"byteLength":2544,"byteOffset":9360,"target":34962},{"buffer":0,"byteLength":912,"byteOffset":11904,"target":34963},{"buffer":0,"byteLength":2184,"byteOffset":12816,"target":34962},{"buffer":0,"byteLength":2184,"byteOffset":15000,"target":34962},{"buffer":0,"byteLength":1456,"byteOffset":17184,"target":34962},{"buffer":0,"byteLength":570,"byteOffset":18640,"target":34963},{"buffer":0,"byteLength":1548,"byteOffset":19212,"target":34962},{"buffer":0,"byteLength":1548,"byteOffset":20760,"target":34962},{"buffer":0,"byteLength":1032,"byteOffset":22308,"target":34962}],"buffers":[{"byteLength":23340,"uri":"Shelf.bin"}],"images":[{"name":"Shelf_A","uri":"Shelf_A.tga"}],"materials":[{"alphaMode":"OPAQUE","doubleSided":false,"extras":{"fromFBX":{"isTruePBR":false,"shadingModel":"Phong"}},"name":"Shelf","pbrMetallicRoughness":{"baseColorFactor":[1,1,1,1],"baseColorTexture":{"index":0,"texCoord":0},"metallicFactor":0.400000005960464,"roughnessFactor":0.272165536880493}}],"meshes":[{"name":"Shelf_LOD0","primitives":[{"attributes":{"NORMAL":2,"POSITION":1,"TEXCOORD_0":3},"indices":0,"material":0,"mode":4}]},{"name":"Shelf_LOD1","primitives":[{"attributes":{"NORMAL":6,"POSITION":5,"TEXCOORD_0":7},"indices":4,"material":0,"mode":4}]},{"name":"Shelf_LOD2","primitives":[{"attributes":{"NORMAL":10,"POSITION":9,"TEXCOORD_0":11},"indices":8,"material":0,"mode":4}]}],"nodes":[{"mesh":0,"name":"Shelf_LOD0","rotation":[0,0,0,1],"scale":[1,1,1],"translation":[0,0,0]},{"mesh":1,"name":"Shelf_LOD1","rotation":[0,0,0,1],"scale":[1,1,1],"translation":[0,0,0]},{"mesh":2,"name":"Shelf_LOD2","rotation":[0,0,0,1],"scale":[1,1,1],"translation":[0,0,0]}],"samplers":[{}],"scene":0,"scenes":[{"name":"Root Scene","nodes":[0,1,2]}],"textures":[{"name":"base_color_texture","sampler":0,"source":0}]}