{"accessors":[{"bufferView":0,"byteOffset":0,"componentType":5123,"count":4287,"type":"SCALAR"},{"bufferView":1,"byteOffset":0,"componentType":5126,"count":1156,"max":[0.0000000125683357055095,1.28308916091919,0.28753000497818],"min":[-0.96426898241043,0,-0.28753000497818],"type":"VEC3"},{"bufferView":2,"byteOffset":0,"componentType":5126,"count":1156,"type":"VEC3"},{"bufferView":3,"byteOffset":0,"componentType":5126,"count":1156,"type":"VEC2"},{"bufferView":4,"byteOffset":0,"componentType":5123,"count":2103,"type":"SCALAR"},{"bufferView":5,"byteOffset":0,"componentType":5126,"count":602,"max":[0.0000000125683357055095,1.28308916091919,0.28753000497818],"min":[-0.96388363838196,0,-0.28753000497818],"type":"VEC3"},{"bufferView":6,"byteOffset":0,"componentType":5126,"count":602,"type":"VEC3"},{"bufferView":7,"byteOffset":0,"componentType":5126,"count":602,"type":"VEC2"},{"bufferView":8,"byteOffset":0,"componentType":5123,"count":552,"type":"SCALAR"},{"bufferView":9,"byteOffset":0,"componentType":5126,"count":342,"max":[0.0000000125683357055095,1.28308916091919,0.287529945373535],"min":[-0.96517848968506,0,-0.28752994537353],"type":"VEC3"},{"bufferView":10,"byteOffset":0,"componentType":5126,"count":342,"type":"VEC3"},{"bufferView":11,"byteOffset":0,"componentType":5126,"count":342,"type":"VEC2"}],"asset":{"generator":"FBX2glTF v0.13.1","version":"2.0"},"bufferViews":[{"buffer":0,"byteLength":8574,"byteOffset":0,"target":34963},{"buffer":0,"byteLength":13872,"byteOffset":8576,"target":34962},{"buffer":0,"byteLength":13872,"byteOffset":22448,"target":34962},{"buffer":0,"byteLength":9248,"byteOffset":36320,"target":34962},{"buffer":0,"byteLength":4206,"byteOffset":45568,"target":34963},{"buffer":0,"byteLength":7224,"byteOffset":49776,"target":34962},{"buffer":0,"byteLength":7224,"byteOffset":57000,"target":34962},{"buffer":0,"byteLength":4816,"byteOffset":64224,"target":34962},{"buffer":0,"byteLength":1104,"byteOffset":69040,"target":34963},{"buffer":0,"byteLength":4104,"byteOffset":70144,"target":34962},{"buffer":0,"byteLength":4104,"byteOffset":74248,"target":34962},{"buffer":0,"byteLength":2736,"byteOffset":78352,"target":34962}],"buffers":[{"byteLength":81088,"uri":"Sink_02.bin"}],"images":[{"name":"Sink_02_A","uri":"Sink_02_A.tga"}],"materials":[{"alphaMode":"OPAQUE","doubleSided":false,"extras":{"fromFBX":{"isTruePBR":false,"shadingModel":"Phong"}},"name":"Sink_02","pbrMetallicRoughness":{"baseColorFactor":[1,1,1,1],"baseColorTexture":{"index":0,"texCoord":0},"metallicFactor":0.400000005960464,"roughnessFactor":0.272165536880493}}],"meshes":[{"name":"Sink_02_LOD0","primitives":[{"attributes":{"NORMAL":2,"POSITION":1,"TEXCOORD_0":3},"indices":0,"material":0,"mode":4}]},{"name":"Sink_02_LOD1","primitives":[{"attributes":{"NORMAL":6,"POSITION":5,"TEXCOORD_0":7},"indices":4,"material":0,"mode":4}]},{"name":"Sink_02_LOD2","primitives":[{"attributes":{"NORMAL":10,"POSITION":9,"TEXCOORD_0":11},"indices":8,"material":0,"mode":4}]}],"nodes":[{"mesh":0,"name":"Sink_02_LOD0","rotation":[0,0,0,1],"scale":[1,1,1],"translation":[0,0,0]},{"mesh":1,"name":"Sink_02_LOD1","rotation":[0,0,0,1],"scale":[1,1,1],"translation":[0,0,0]},{"mesh":2,"name":"Sink_02_LOD2","rotation":[0,0,0,1],"scale":[1,1,1],"translation":[0,0,0]}],"samplers":[{}],"scene":0,"scenes":[{"name":"Root Scene","nodes":[0,1,2]}],"textures":[{"name":"base_color_texture","sampler":0,"source":0}]}