{"accessors":[{"bufferView":0,"byteOffset":0,"componentType":5123,"count":3666,"type":"SCALAR"},{"bufferView":1,"byteOffset":0,"componentType":5126,"count":1052,"max":[0.300726145505905,0.215118497610092,0.346672624349594],"min":[-0.25232422351837,-0.37041261792183,-0.34667262434959],"type":"VEC3"},{"bufferView":2,"byteOffset":0,"componentType":5126,"count":1052,"type":"VEC3"},{"bufferView":3,"byteOffset":0,"componentType":5126,"count":1052,"type":"VEC2"},{"bufferView":4,"byteOffset":0,"componentType":5123,"count":7152,"type":"SCALAR"},{"bufferView":5,"byteOffset":0,"componentType":5126,"count":1767,"max":[0.300726145505905,0.216615229845047,0.346672594547272],"min":[-0.25416824221611,-0.37041261792183,-0.34667259454727],"type":"VEC3"},{"bufferView":6,"byteOffset":0,"componentType":5126,"count":1767,"type":"VEC3"},{"bufferView":7,"byteOffset":0,"componentType":5126,"count":1767,"type":"VEC2"},{"bufferView":8,"byteOffset":0,"componentType":5123,"count":789,"type":"SCALAR"},{"bufferView":9,"byteOffset":0,"componentType":5126,"count":405,"max":[0.300726145505905,0.212448343634605,0.346672624349594],"min":[-0.25232422351837,-0.3686665892601,-0.34667262434959],"type":"VEC3"},{"bufferView":10,"byteOffset":0,"componentType":5126,"count":405,"type":"VEC3"},{"bufferView":11,"byteOffset":0,"componentType":5126,"count":405,"type":"VEC2"}],"asset":{"generator":"FBX2glTF v0.13.1","version":"2.0"},"bufferViews":[{"buffer":0,"byteLength":7332,"byteOffset":0,"target":34963},{"buffer":0,"byteLength":12624,"byteOffset":7332,"target":34962},{"buffer":0,"byteLength":12624,"byteOffset":19956,"target":34962},{"buffer":0,"byteLength":8416,"byteOffset":32580,"target":34962},{"buffer":0,"byteLength":14304,"byteOffset":40996,"target":34963},{"buffer":0,"byteLength":21204,"byteOffset":55300,"target":34962},{"buffer":0,"byteLength":21204,"byteOffset":76504,"target":34962},{"buffer":0,"byteLength":14136,"byteOffset":97708,"target":34962},{"buffer":0,"byteLength":1578,"byteOffset":111844,"target":34963},{"buffer":0,"byteLength":4860,"byteOffset":113424,"target":34962},{"buffer":0,"byteLength":4860,"byteOffset":118284,"target":34962},{"buffer":0,"byteLength":3240,"byteOffset":123144,"target":34962}],"buffers":[{"byteLength":126384,"uri":"Sink.bin"}],"images":[{"name":"Sink_A","uri":"Sink_A.tga"}],"materials":[{"alphaMode":"OPAQUE","doubleSided":false,"extras":{"fromFBX":{"isTruePBR":false,"shadingModel":"Phong"}},"name":"Sink","pbrMetallicRoughness":{"baseColorFactor":[1,1,1,1],"baseColorTexture":{"index":0,"texCoord":0},"metallicFactor":0.400000005960464,"roughnessFactor":0.272165536880493}}],"meshes":[{"name":"Sink_LOD1","primitives":[{"attributes":{"NORMAL":2,"POSITION":1,"TEXCOORD_0":3},"indices":0,"material":0,"mode":4}]},{"name":"Sink_LOD0","primitives":[{"attributes":{"NORMAL":6,"POSITION":5,"TEXCOORD_0":7},"indices":4,"material":0,"mode":4}]},{"name":"Sink_LOD2","primitives":[{"attributes":{"NORMAL":10,"POSITION":9,"TEXCOORD_0":11},"indices":8,"material":0,"mode":4}]}],"nodes":[{"mesh":0,"name":"Sink_LOD1","rotation":[0,0,0,1],"scale":[1,1,1],"translation":[0,0,0]},{"mesh":1,"name":"Sink_LOD0","rotation":[0,0,0,1],"scale":[1,1,1],"translation":[0,0,0]},{"mesh":2,"name":"Sink_LOD2","rotation":[0,0,0,1],"scale":[1,1,1],"translation":[0,0,0]}],"samplers":[{}],"scene":0,"scenes":[{"name":"Root Scene","nodes":[0,1,2]}],"textures":[{"name":"base_color_texture","sampler":0,"source":0}]}