{"accessors":[{"bufferView":0,"byteOffset":0,"componentType":5123,"count":1008,"type":"SCALAR"},{"bufferView":1,"byteOffset":0,"componentType":5126,"count":292,"max":[0.120486713945866,0.00520577467978001,0.0981954336166382],"min":[-0.07446326315403,-0.00520577467978,-0.09819555282593],"type":"VEC3"},{"bufferView":2,"byteOffset":0,"componentType":5126,"count":292,"type":"VEC3"},{"bufferView":3,"byteOffset":0,"componentType":5126,"count":292,"type":"VEC2"},{"bufferView":4,"byteOffset":0,"componentType":5123,"count":486,"type":"SCALAR"},{"bufferView":5,"byteOffset":0,"componentType":5126,"count":157,"max":[0.120766952633858,0.005213703494519,0.0981954336166382],"min":[-0.07360684871674,-0.00521370302886,-0.09819555282593],"type":"VEC3"},{"bufferView":6,"byteOffset":0,"componentType":5126,"count":157,"type":"VEC3"},{"bufferView":7,"byteOffset":0,"componentType":5126,"count":157,"type":"VEC2"}],"asset":{"generator":"FBX2glTF v0.13.1","version":"2.0"},"bufferViews":[{"buffer":0,"byteLength":2016,"byteOffset":0,"target":34963},{"buffer":0,"byteLength":3504,"byteOffset":2016,"target":34962},{"buffer":0,"byteLength":3504,"byteOffset":5520,"target":34962},{"buffer":0,"byteLength":2336,"byteOffset":9024,"target":34962},{"buffer":0,"byteLength":972,"byteOffset":11360,"target":34963},{"buffer":0,"byteLength":1884,"byteOffset":12332,"target":34962},{"buffer":0,"byteLength":1884,"byteOffset":14216,"target":34962},{"buffer":0,"byteLength":1256,"byteOffset":16100,"target":34962}],"buffers":[{"byteLength":17356,"uri":"Spatula.bin"}],"images":[{"name":"Construction_Tools_A","uri":"Construction_Tools_A.tga"}],"materials":[{"alphaMode":"OPAQUE","doubleSided":false,"extras":{"fromFBX":{"isTruePBR":false,"shadingModel":"Phong"}},"name":"Construction_Tools","pbrMetallicRoughness":{"baseColorFactor":[1,1,1,1],"baseColorTexture":{"index":0,"texCoord":0},"metallicFactor":0.400000005960464,"roughnessFactor":0.272165536880493}}],"meshes":[{"name":"Spatula_LOD0","primitives":[{"attributes":{"NORMAL":2,"POSITION":1,"TEXCOORD_0":3},"indices":0,"material":0,"mode":4}]},{"name":"Spatula_LOD1","primitives":[{"attributes":{"NORMAL":6,"POSITION":5,"TEXCOORD_0":7},"indices":4,"material":0,"mode":4}]}],"nodes":[{"mesh":0,"name":"Spatula_LOD0","rotation":[0,0,0,1],"scale":[1,1,1],"translation":[0,0,0]},{"mesh":1,"name":"Spatula_LOD1","rotation":[0,0,0,1],"scale":[1,1,1],"translation":[0,0,0]}],"samplers":[{}],"scene":0,"scenes":[{"name":"Root Scene","nodes":[0,1]}],"textures":[{"name":"base_color_texture","sampler":0,"source":0}]}