{"accessors":[{"bufferView":0,"byteOffset":0,"componentType":5123,"count":6354,"type":"SCALAR"},{"bufferView":1,"byteOffset":0,"componentType":5126,"count":1574,"max":[0.471174567937851,1.76784300804138,0.203077957034111],"min":[-0.35212928056717,-0.00353017449379,-0.25006601214409],"type":"VEC3"},{"bufferView":2,"byteOffset":0,"componentType":5126,"count":1574,"type":"VEC3"},{"bufferView":3,"byteOffset":0,"componentType":5126,"count":1574,"type":"VEC2"},{"bufferView":4,"byteOffset":0,"componentType":5123,"count":1554,"type":"SCALAR"},{"bufferView":5,"byteOffset":0,"componentType":5126,"count":348,"max":[0.0123938145115972,0.0180002301931381,0.199636951088905],"min":[-0.61934196949005,-0.01179389376193,-0.20170001685619],"type":"VEC3"},{"bufferView":6,"byteOffset":0,"componentType":5126,"count":348,"type":"VEC3"},{"bufferView":7,"byteOffset":0,"componentType":5126,"count":348,"type":"VEC2"},{"bufferView":8,"byteOffset":0,"componentType":5123,"count":807,"type":"SCALAR"},{"bufferView":9,"byteOffset":0,"componentType":5126,"count":201,"max":[0.0118922470137477,0.0180006325244904,0.200378015637398],"min":[-0.61916452646256,-0.01078522671014,-0.20148259401321],"type":"VEC3"},{"bufferView":10,"byteOffset":0,"componentType":5126,"count":201,"type":"VEC3"},{"bufferView":11,"byteOffset":0,"componentType":5126,"count":201,"type":"VEC2"},{"bufferView":12,"byteOffset":0,"componentType":5123,"count":285,"type":"SCALAR"},{"bufferView":13,"byteOffset":0,"componentType":5126,"count":102,"max":[0.010659066028893,0.0177608020603657,0.200468838214874],"min":[-0.62014663219452,-0.01086391787976,-0.20041492581368],"type":"VEC3"},{"bufferView":14,"byteOffset":0,"componentType":5126,"count":102,"type":"VEC3"},{"bufferView":15,"byteOffset":0,"componentType":5126,"count":102,"type":"VEC2"},{"bufferView":16,"byteOffset":0,"componentType":5123,"count":3237,"type":"SCALAR"},{"bufferView":17,"byteOffset":0,"componentType":5126,"count":901,"max":[0.471174567937851,1.76740717887878,0.203077957034111],"min":[-0.35212931036949,-0.00353010091931,-0.2498626857996],"type":"VEC3"},{"bufferView":18,"byteOffset":0,"componentType":5126,"count":901,"type":"VEC3"},{"bufferView":19,"byteOffset":0,"componentType":5126,"count":901,"type":"VEC2"},{"bufferView":20,"byteOffset":0,"componentType":5123,"count":984,"type":"SCALAR"},{"bufferView":21,"byteOffset":0,"componentType":5126,"count":363,"max":[0.46919921040535,1.76456832885742,0.197772786021233],"min":[-0.34770086407661,-0.00372409867123,-0.20150889456272],"type":"VEC3"},{"bufferView":22,"byteOffset":0,"componentType":5126,"count":363,"type":"VEC3"},{"bufferView":23,"byteOffset":0,"componentType":5126,"count":363,"type":"VEC2"}],"asset":{"generator":"FBX2glTF v0.13.1","version":"2.0"},"bufferViews":[{"buffer":0,"byteLength":12708,"byteOffset":0,"target":34963},{"buffer":0,"byteLength":18888,"byteOffset":12708,"target":34962},{"buffer":0,"byteLength":18888,"byteOffset":31596,"target":34962},{"buffer":0,"byteLength":12592,"byteOffset":50484,"target":34962},{"buffer":0,"byteLength":3108,"byteOffset":63076,"target":34963},{"buffer":0,"byteLength":4176,"byteOffset":66184,"target":34962},{"buffer":0,"byteLength":4176,"byteOffset":70360,"target":34962},{"buffer":0,"byteLength":2784,"byteOffset":74536,"target":34962},{"buffer":0,"byteLength":1614,"byteOffset":77320,"target":34963},{"buffer":0,"byteLength":2412,"byteOffset":78936,"target":34962},{"buffer":0,"byteLength":2412,"byteOffset":81348,"target":34962},{"buffer":0,"byteLength":1608,"byteOffset":83760,"target":34962},{"buffer":0,"byteLength":570,"byteOffset":85368,"target":34963},{"buffer":0,"byteLength":1224,"byteOffset":85940,"target":34962},{"buffer":0,"byteLength":1224,"byteOffset":87164,"target":34962},{"buffer":0,"byteLength":816,"byteOffset":88388,"target":34962},{"buffer":0,"byteLength":6474,"byteOffset":89204,"target":34963},{"buffer":0,"byteLength":10812,"byteOffset":95680,"target":34962},{"buffer":0,"byteLength":10812,"byteOffset":106492,"target":34962},{"buffer":0,"byteLength":7208,"byteOffset":117304,"target":34962},{"buffer":0,"byteLength":1968,"byteOffset":124512,"target":34963},{"buffer":0,"byteLength":4356,"byteOffset":126480,"target":34962},{"buffer":0,"byteLength":4356,"byteOffset":130836,"target":34962},{"buffer":0,"byteLength":2904,"byteOffset":135192,"target":34962}],"buffers":[{"byteLength":138096,"uri":"Toilet_Bowl.bin"}],"images":[{"name":"Toilet_Bowl_A","uri":"Toilet_Bowl_A.tga"}],"materials":[{"alphaMode":"OPAQUE","doubleSided":false,"extras":{"fromFBX":{"isTruePBR":false,"shadingModel":"Phong"}},"name":"Toilet_Bowl","pbrMetallicRoughness":{"baseColorFactor":[1,1,1,1],"baseColorTexture":{"index":0,"texCoord":0},"metallicFactor":0.400000005960464,"roughnessFactor":0.272165536880493}}],"meshes":[{"name":"Toilet_Bowl_LOD0","primitives":[{"attributes":{"NORMAL":2,"POSITION":1,"TEXCOORD_0":3},"indices":0,"material":0,"mode":4}]},{"name":"Toilet_Bowl_Cap_LOD0","primitives":[{"attributes":{"NORMAL":6,"POSITION":5,"TEXCOORD_0":7},"indices":4,"material":0,"mode":4}]},{"name":"Toilet_Bowl_Cap_LOD1","primitives":[{"attributes":{"NORMAL":10,"POSITION":9,"TEXCOORD_0":11},"indices":8,"material":0,"mode":4}]},{"name":"Toilet_Bowl_Cap_LOD2","primitives":[{"attributes":{"NORMAL":14,"POSITION":13,"TEXCOORD_0":15},"indices":12,"material":0,"mode":4}]},{"name":"Toilet_Bowl_LOD1","primitives":[{"attributes":{"NORMAL":18,"POSITION":17,"TEXCOORD_0":19},"indices":16,"material":0,"mode":4}]},{"name":"Toilet_Bowl_LOD2","primitives":[{"attributes":{"NORMAL":22,"POSITION":21,"TEXCOORD_0":23},"indices":20,"material":0,"mode":4}]}],"nodes":[{"mesh":0,"name":"Toilet_Bowl_LOD0","rotation":[0,0,0,1],"scale":[1,1,1],"translation":[0,0,0]},{"children":[2,3],"mesh":1,"name":"Toilet_Bowl_Cap_LOD0","rotation":[0,0,0,1],"scale":[1,1,1],"translation":[0.276290744543076,0.517676413059235,0.00270889396779239]},{"mesh":2,"name":"Toilet_Bowl_Cap_LOD1","rotation":[0,0,0,1],"scale":[1,1,1],"translation":[0,0.0000000381469718035987,0.0000000178813923668031]},{"mesh":3,"name":"Toilet_Bowl_Cap_LOD2","rotation":[0,0,0,1],"scale":[1,1,1],"translation":[0,0.0000000381469718035987,0.0000000178813923668031]},{"mesh":4,"name":"Toilet_Bowl_LOD1","rotation":[0,0,0,1],"scale":[1,1,1],"translation":[0,0,0]},{"mesh":5,"name":"Toilet_Bowl_LOD2","rotation":[0,0,0,1],"scale":[1,1,1],"translation":[0,0,0]}],"samplers":[{}],"scene":0,"scenes":[{"name":"Root Scene","nodes":[0,1,4,5]}],"textures":[{"name":"base_color_texture","sampler":0,"source":0}]}