{"accessors":[{"bufferView":0,"byteOffset":0,"componentType":5123,"count":5952,"type":"SCALAR"},{"bufferView":1,"byteOffset":0,"componentType":5126,"count":1964,"max":[0.00075386464595794,1.25853598117828,0.388562470674515],"min":[-0.29916274547577,-0.0299457591027,-0.36442899703979],"type":"VEC3"},{"bufferView":2,"byteOffset":0,"componentType":5126,"count":1964,"type":"VEC3"},{"bufferView":3,"byteOffset":0,"componentType":5126,"count":1964,"type":"VEC2"},{"bufferView":4,"byteOffset":0,"componentType":5123,"count":2646,"type":"SCALAR"},{"bufferView":5,"byteOffset":0,"componentType":5126,"count":1077,"max":[0.00075386464595794,1.25853610038757,0.388562470674515],"min":[-0.29916274547577,-0.03007910586894,-0.36442899703979],"type":"VEC3"},{"bufferView":6,"byteOffset":0,"componentType":5126,"count":1077,"type":"VEC3"},{"bufferView":7,"byteOffset":0,"componentType":5126,"count":1077,"type":"VEC2"},{"bufferView":8,"byteOffset":0,"componentType":5123,"count":1119,"type":"SCALAR"},{"bufferView":9,"byteOffset":0,"componentType":5126,"count":545,"max":[0.00110992067493498,1.25157690048218,0.389514088630676],"min":[-0.29931649565697,-0.03007910586894,-0.36539313197136],"type":"VEC3"},{"bufferView":10,"byteOffset":0,"componentType":5126,"count":545,"type":"VEC3"},{"bufferView":11,"byteOffset":0,"componentType":5126,"count":545,"type":"VEC2"}],"asset":{"generator":"FBX2glTF v0.13.1","version":"2.0"},"bufferViews":[{"buffer":0,"byteLength":11904,"byteOffset":0,"target":34963},{"buffer":0,"byteLength":23568,"byteOffset":11904,"target":34962},{"buffer":0,"byteLength":23568,"byteOffset":35472,"target":34962},{"buffer":0,"byteLength":15712,"byteOffset":59040,"target":34962},{"buffer":0,"byteLength":5292,"byteOffset":74752,"target":34963},{"buffer":0,"byteLength":12924,"byteOffset":80044,"target":34962},{"buffer":0,"byteLength":12924,"byteOffset":92968,"target":34962},{"buffer":0,"byteLength":8616,"byteOffset":105892,"target":34962},{"buffer":0,"byteLength":2238,"byteOffset":114508,"target":34963},{"buffer":0,"byteLength":6540,"byteOffset":116748,"target":34962},{"buffer":0,"byteLength":6540,"byteOffset":123288,"target":34962},{"buffer":0,"byteLength":4360,"byteOffset":129828,"target":34962}],"buffers":[{"byteLength":134188,"uri":"Urinal.bin"}],"images":[{"name":"Toilet_Bowl_A","uri":"Toilet_Bowl_A.tga"}],"materials":[{"alphaMode":"OPAQUE","doubleSided":false,"extras":{"fromFBX":{"isTruePBR":false,"shadingModel":"Phong"}},"name":"Toilet_Bowl","pbrMetallicRoughness":{"baseColorFactor":[1,1,1,1],"baseColorTexture":{"index":0,"texCoord":0},"metallicFactor":0.400000005960464,"roughnessFactor":0.272165536880493}}],"meshes":[{"name":"Urinal_LOD0","primitives":[{"attributes":{"NORMAL":2,"POSITION":1,"TEXCOORD_0":3},"indices":0,"material":0,"mode":4}]},{"name":"Urinal_LOD1","primitives":[{"attributes":{"NORMAL":6,"POSITION":5,"TEXCOORD_0":7},"indices":4,"material":0,"mode":4}]},{"name":"Urinal_LOD2","primitives":[{"attributes":{"NORMAL":10,"POSITION":9,"TEXCOORD_0":11},"indices":8,"material":0,"mode":4}]}],"nodes":[{"mesh":0,"name":"Urinal_LOD0","rotation":[0,0,0,1],"scale":[1,1,1],"translation":[0,0,0]},{"mesh":1,"name":"Urinal_LOD1","rotation":[0,0,0,1],"scale":[1,1,1],"translation":[0,0,0]},{"mesh":2,"name":"Urinal_LOD2","rotation":[0,0,0,1],"scale":[1,1,1],"translation":[0,0,0]}],"samplers":[{}],"scene":0,"scenes":[{"name":"Root Scene","nodes":[0,1,2]}],"textures":[{"name":"base_color_texture","sampler":0,"source":0}]}