{"accessors":[{"bufferView":0,"byteOffset":0,"componentType":5123,"count":2982,"type":"SCALAR"},{"bufferView":1,"byteOffset":0,"componentType":5126,"count":830,"max":[0.0617870129644871,0.0321467481553555,0.0620480850338936],"min":[-0.0616072639823,-0.00037804435124,-0.06134614720941],"type":"VEC3"},{"bufferView":2,"byteOffset":0,"componentType":5126,"count":830,"type":"VEC3"},{"bufferView":3,"byteOffset":0,"componentType":5126,"count":830,"type":"VEC2"},{"bufferView":4,"byteOffset":0,"componentType":5123,"count":1446,"type":"SCALAR"},{"bufferView":5,"byteOffset":0,"componentType":5126,"count":486,"max":[0.061970766633749,0.0320951454341412,0.0622086226940155],"min":[-0.06179102882743,-0.00037804435124,-0.06155307590961],"type":"VEC3"},{"bufferView":6,"byteOffset":0,"componentType":5126,"count":486,"type":"VEC3"},{"bufferView":7,"byteOffset":0,"componentType":5126,"count":486,"type":"VEC2"},{"bufferView":8,"byteOffset":0,"componentType":5123,"count":207,"type":"SCALAR"},{"bufferView":9,"byteOffset":0,"componentType":5126,"count":84,"max":[0.0609665960073471,0.0213922020047903,0.0619757026433945],"min":[-0.06078685075045,-0.00039701952483,-0.0605410784483],"type":"VEC3"},{"bufferView":10,"byteOffset":0,"componentType":5126,"count":84,"type":"VEC3"},{"bufferView":11,"byteOffset":0,"componentType":5126,"count":84,"type":"VEC2"}],"asset":{"generator":"FBX2glTF v0.13.1","version":"2.0"},"bufferViews":[{"buffer":0,"byteLength":5964,"byteOffset":0,"target":34963},{"buffer":0,"byteLength":9960,"byteOffset":5964,"target":34962},{"buffer":0,"byteLength":9960,"byteOffset":15924,"target":34962},{"buffer":0,"byteLength":6640,"byteOffset":25884,"target":34962},{"buffer":0,"byteLength":2892,"byteOffset":32524,"target":34963},{"buffer":0,"byteLength":5832,"byteOffset":35416,"target":34962},{"buffer":0,"byteLength":5832,"byteOffset":41248,"target":34962},{"buffer":0,"byteLength":3888,"byteOffset":47080,"target":34962},{"buffer":0,"byteLength":414,"byteOffset":50968,"target":34963},{"buffer":0,"byteLength":1008,"byteOffset":51384,"target":34962},{"buffer":0,"byteLength":1008,"byteOffset":52392,"target":34962},{"buffer":0,"byteLength":672,"byteOffset":53400,"target":34962}],"buffers":[{"byteLength":54072,"uri":"Ashtray.bin"}],"images":[{"name":"Table_Lamp_A","uri":"Table_Lamp_A.tga"}],"materials":[{"alphaMode":"OPAQUE","doubleSided":false,"extras":{"fromFBX":{"isTruePBR":false,"shadingModel":"Phong"}},"name":"Table_Lamp","pbrMetallicRoughness":{"baseColorFactor":[1,1,1,1],"baseColorTexture":{"index":0,"texCoord":0},"metallicFactor":0.400000005960464,"roughnessFactor":0.272165536880493}}],"meshes":[{"name":"Ashtray_LOD0","primitives":[{"attributes":{"NORMAL":2,"POSITION":1,"TEXCOORD_0":3},"indices":0,"material":0,"mode":4}]},{"name":"Ashtray_LOD1","primitives":[{"attributes":{"NORMAL":6,"POSITION":5,"TEXCOORD_0":7},"indices":4,"material":0,"mode":4}]},{"name":"Ashtray_LOD2","primitives":[{"attributes":{"NORMAL":10,"POSITION":9,"TEXCOORD_0":11},"indices":8,"material":0,"mode":4}]}],"nodes":[{"mesh":0,"name":"Ashtray_LOD0","rotation":[0,0,0,1],"scale":[1.08743917942047,1.08743917942047,1.08743917942047],"translation":[0,0,0]},{"mesh":1,"name":"Ashtray_LOD1","rotation":[0,0,0,1],"scale":[1.08743917942047,1.08743917942047,1.08743917942047],"translation":[0,0,0]},{"mesh":2,"name":"Ashtray_LOD2","rotation":[0,0,0,1],"scale":[1.08743917942047,1.08743917942047,1.08743917942047],"translation":[0,0,0]}],"samplers":[{}],"scene":0,"scenes":[{"name":"Root Scene","nodes":[0,1,2]}],"textures":[{"name":"base_color_texture","sampler":0,"source":0}]}