{"accessors":[{"bufferView":0,"byteOffset":0,"componentType":5123,"count":1806,"type":"SCALAR"},{"bufferView":1,"byteOffset":0,"componentType":5126,"count":468,"max":[0.0494560264050961,0.243937373161316,0.127402201294899],"min":[-0.05307805538177,-0.00064879056299,-0.12291609495878],"type":"VEC3"},{"bufferView":2,"byteOffset":0,"componentType":5126,"count":468,"type":"VEC3"},{"bufferView":3,"byteOffset":0,"componentType":5126,"count":468,"type":"VEC2"},{"bufferView":4,"byteOffset":0,"componentType":5123,"count":756,"type":"SCALAR"},{"bufferView":5,"byteOffset":0,"componentType":5126,"count":240,"max":[0.0494560264050961,0.244020909070969,0.127402186393738],"min":[-0.05307805538177,-0.00064879056299,-0.12291610240936],"type":"VEC3"},{"bufferView":6,"byteOffset":0,"componentType":5126,"count":240,"type":"VEC3"},{"bufferView":7,"byteOffset":0,"componentType":5126,"count":240,"type":"VEC2"},{"bufferView":8,"byteOffset":0,"componentType":5123,"count":339,"type":"SCALAR"},{"bufferView":9,"byteOffset":0,"componentType":5126,"count":148,"max":[0.0494560264050961,0.244185239076614,0.127402395009995],"min":[-0.05307805538177,-0.00064879056299,-0.12291609495878],"type":"VEC3"},{"bufferView":10,"byteOffset":0,"componentType":5126,"count":148,"type":"VEC3"},{"bufferView":11,"byteOffset":0,"componentType":5126,"count":148,"type":"VEC2"}],"asset":{"generator":"FBX2glTF v0.13.1","version":"2.0"},"bufferViews":[{"buffer":0,"byteLength":3612,"byteOffset":0,"target":34963},{"buffer":0,"byteLength":5616,"byteOffset":3612,"target":34962},{"buffer":0,"byteLength":5616,"byteOffset":9228,"target":34962},{"buffer":0,"byteLength":3744,"byteOffset":14844,"target":34962},{"buffer":0,"byteLength":1512,"byteOffset":18588,"target":34963},{"buffer":0,"byteLength":2880,"byteOffset":20100,"target":34962},{"buffer":0,"byteLength":2880,"byteOffset":22980,"target":34962},{"buffer":0,"byteLength":1920,"byteOffset":25860,"target":34962},{"buffer":0,"byteLength":678,"byteOffset":27780,"target":34963},{"buffer":0,"byteLength":1776,"byteOffset":28460,"target":34962},{"buffer":0,"byteLength":1776,"byteOffset":30236,"target":34962},{"buffer":0,"byteLength":1184,"byteOffset":32012,"target":34962}],"buffers":[{"byteLength":33196,"uri":"Ballpoint_Pen.bin"}],"images":[{"name":"Ballpoint_Pen_A","uri":"Ballpoint_Pen_A.tga"}],"materials":[{"alphaMode":"OPAQUE","doubleSided":false,"extras":{"fromFBX":{"isTruePBR":false,"shadingModel":"Phong"}},"name":"Ballpoint_Pen","pbrMetallicRoughness":{"baseColorFactor":[1,1,1,1],"baseColorTexture":{"index":0,"texCoord":0},"metallicFactor":0.400000005960464,"roughnessFactor":0.272165536880493}}],"meshes":[{"name":"Ballpoint_Pen_LOD0","primitives":[{"attributes":{"NORMAL":2,"POSITION":1,"TEXCOORD_0":3},"indices":0,"material":0,"mode":4}]},{"name":"Ballpoint_Pen_LOD1","primitives":[{"attributes":{"NORMAL":6,"POSITION":5,"TEXCOORD_0":7},"indices":4,"material":0,"mode":4}]},{"name":"Ballpoint_Pen_LOD2","primitives":[{"attributes":{"NORMAL":10,"POSITION":9,"TEXCOORD_0":11},"indices":8,"material":0,"mode":4}]}],"nodes":[{"mesh":0,"name":"Ballpoint_Pen_LOD0","rotation":[0,0,0,1],"scale":[1,1,1],"translation":[0,0,0]},{"mesh":1,"name":"Ballpoint_Pen_LOD1","rotation":[0,0,0,1],"scale":[1,1,1],"translation":[0,0,0]},{"mesh":2,"name":"Ballpoint_Pen_LOD2","rotation":[0,0,0,1],"scale":[1,1,1],"translation":[0,0,0]}],"samplers":[{}],"scene":0,"scenes":[{"name":"Root Scene","nodes":[0,1,2]}],"textures":[{"name":"base_color_texture","sampler":0,"source":0}]}