{"accessors":[{"bufferView":0,"byteOffset":0,"componentType":5123,"count":3996,"type":"SCALAR"},{"bufferView":1,"byteOffset":0,"componentType":5126,"count":1126,"max":[0.371156603097916,0.901412785053253,0.702688634395599],"min":[-0.37199735641479,0.00240563601255417,-0.7026886343956],"type":"VEC3"},{"bufferView":2,"byteOffset":0,"componentType":5126,"count":1126,"type":"VEC3"},{"bufferView":3,"byteOffset":0,"componentType":5126,"count":1126,"type":"VEC2"},{"bufferView":4,"byteOffset":0,"componentType":5123,"count":1956,"type":"SCALAR"},{"bufferView":5,"byteOffset":0,"componentType":5126,"count":589,"max":[0.369963556528091,0.901474714279175,0.701425552368164],"min":[-0.37080425024033,0.00232510548084974,-0.70140051841736],"type":"VEC3"},{"bufferView":6,"byteOffset":0,"componentType":5126,"count":589,"type":"VEC3"},{"bufferView":7,"byteOffset":0,"componentType":5126,"count":589,"type":"VEC2"},{"bufferView":8,"byteOffset":0,"componentType":5123,"count":471,"type":"SCALAR"},{"bufferView":9,"byteOffset":0,"componentType":5126,"count":220,"max":[0.36116087436676,0.900212228298187,0.692656219005585],"min":[-0.36458852887154,-0.0016349676298,-0.69538509845734],"type":"VEC3"},{"bufferView":10,"byteOffset":0,"componentType":5126,"count":220,"type":"VEC3"},{"bufferView":11,"byteOffset":0,"componentType":5126,"count":220,"type":"VEC2"}],"asset":{"generator":"FBX2glTF v0.13.1","version":"2.0"},"bufferViews":[{"buffer":0,"byteLength":7992,"byteOffset":0,"target":34963},{"buffer":0,"byteLength":13512,"byteOffset":7992,"target":34962},{"buffer":0,"byteLength":13512,"byteOffset":21504,"target":34962},{"buffer":0,"byteLength":9008,"byteOffset":35016,"target":34962},{"buffer":0,"byteLength":3912,"byteOffset":44024,"target":34963},{"buffer":0,"byteLength":7068,"byteOffset":47936,"target":34962},{"buffer":0,"byteLength":7068,"byteOffset":55004,"target":34962},{"buffer":0,"byteLength":4712,"byteOffset":62072,"target":34962},{"buffer":0,"byteLength":942,"byteOffset":66784,"target":34963},{"buffer":0,"byteLength":2640,"byteOffset":67728,"target":34962},{"buffer":0,"byteLength":2640,"byteOffset":70368,"target":34962},{"buffer":0,"byteLength":1760,"byteOffset":73008,"target":34962}],"buffers":[{"byteLength":74768,"uri":"Bedside_Table.bin"}],"images":[{"name":"Wardrobe_03_A","uri":"Wardrobe_03_A.tga"}],"materials":[{"alphaMode":"OPAQUE","doubleSided":false,"extras":{"fromFBX":{"isTruePBR":false,"shadingModel":"Phong"}},"name":"Wardrobe_03","pbrMetallicRoughness":{"baseColorFactor":[1,1,1,1],"baseColorTexture":{"index":0,"texCoord":0},"metallicFactor":0.400000005960464,"roughnessFactor":0.272165536880493}}],"meshes":[{"name":"Bedside_Table_LOD0","primitives":[{"attributes":{"NORMAL":2,"POSITION":1,"TEXCOORD_0":3},"indices":0,"material":0,"mode":4}]},{"name":"Bedside_Table_LOD1","primitives":[{"attributes":{"NORMAL":6,"POSITION":5,"TEXCOORD_0":7},"indices":4,"material":0,"mode":4}]},{"name":"Bedside_Table_LOD2","primitives":[{"attributes":{"NORMAL":10,"POSITION":9,"TEXCOORD_0":11},"indices":8,"material":0,"mode":4}]}],"nodes":[{"mesh":0,"name":"Bedside_Table_LOD0","rotation":[0,0,0,1],"scale":[1,1,1],"translation":[0,0,0]},{"mesh":1,"name":"Bedside_Table_LOD1","rotation":[0,0,0,1],"scale":[1,1,1],"translation":[0,0,0]},{"mesh":2,"name":"Bedside_Table_LOD2","rotation":[0,0,0,1],"scale":[1,1,1],"translation":[0,0,0]}],"samplers":[{}],"scene":0,"scenes":[{"name":"Root Scene","nodes":[0,1,2]}],"textures":[{"name":"base_color_texture","sampler":0,"source":0}]}