{"accessors":[{"bufferView":0,"byteOffset":0,"componentType":5123,"count":360,"type":"SCALAR"},{"bufferView":1,"byteOffset":0,"componentType":5126,"count":240,"max":[0.242976814508438,0.354048222303391,0.375509828329086],"min":[-0.00239765224978,-0.00703456625342,-0.00260015181266],"type":"VEC3"},{"bufferView":2,"byteOffset":0,"componentType":5126,"count":240,"type":"VEC3"},{"bufferView":3,"byteOffset":0,"componentType":5126,"count":240,"type":"VEC2"}],"asset":{"generator":"FBX2glTF v0.13.1","version":"2.0"},"bufferViews":[{"buffer":0,"byteLength":720,"byteOffset":0,"target":34963},{"buffer":0,"byteLength":2880,"byteOffset":720,"target":34962},{"buffer":0,"byteLength":2880,"byteOffset":3600,"target":34962},{"buffer":0,"byteLength":1920,"byteOffset":6480,"target":34962}],"buffers":[{"byteLength":8400,"uri":"Books_09.bin"}],"images":[{"name":"Books_A","uri":"Books_A.tga"}],"materials":[{"alphaMode":"OPAQUE","doubleSided":false,"extras":{"fromFBX":{"isTruePBR":false,"shadingModel":"Phong"}},"name":"Books","pbrMetallicRoughness":{"baseColorFactor":[1,1,1,1],"baseColorTexture":{"index":0,"texCoord":0},"metallicFactor":0.400000005960464,"roughnessFactor":0.272165536880493}}],"meshes":[{"name":"Books_09","primitives":[{"attributes":{"NORMAL":2,"POSITION":1,"TEXCOORD_0":3},"indices":0,"material":0,"mode":4}]}],"nodes":[{"mesh":0,"name":"Books_09","rotation":[0,0,0,1],"scale":[1,1,1],"translation":[-0.00673764012754,0,0]}],"samplers":[{}],"scene":0,"scenes":[{"name":"Root Scene","nodes":[0]}],"textures":[{"name":"base_color_texture","sampler":0,"source":0}]}