{"accessors":[{"bufferView":0,"byteOffset":0,"componentType":5123,"count":78,"type":"SCALAR"},{"bufferView":1,"byteOffset":0,"componentType":5126,"count":28,"max":[-0.00055360794067,0.155452996492386,0.255779266357422],"min":[-0.01467764377594,-0.22587518393993,-0.23164653778076],"type":"VEC3"},{"bufferView":2,"byteOffset":0,"componentType":5126,"count":28,"type":"VEC3"},{"bufferView":3,"byteOffset":0,"componentType":5126,"count":28,"type":"VEC2"}],"asset":{"generator":"FBX2glTF v0.13.1","version":"2.0"},"bufferViews":[{"buffer":0,"byteLength":156,"byteOffset":0,"target":34963},{"buffer":0,"byteLength":336,"byteOffset":156,"target":34962},{"buffer":0,"byteLength":336,"byteOffset":492,"target":34962},{"buffer":0,"byteLength":224,"byteOffset":828,"target":34962}],"buffers":[{"byteLength":1052,"uri":"Certificate_04.bin"}],"materials":[{"alphaMode":"OPAQUE","doubleSided":false,"extras":{"fromFBX":{"isTruePBR":false,"shadingModel":"Phong"}},"name":"Curtain_02","pbrMetallicRoughness":{"baseColorFactor":[1,1,1,1],"metallicFactor":0.400000005960464,"roughnessFactor":0.272165536880493}}],"meshes":[{"name":"Certificate_04","primitives":[{"attributes":{"NORMAL":2,"POSITION":1,"TEXCOORD_0":3},"indices":0,"material":0,"mode":4}]}],"nodes":[{"mesh":0,"name":"Certificate_04","rotation":[0,0,0,1],"scale":[1,1,1],"translation":[0,0,0]}],"samplers":[{}],"scene":0,"scenes":[{"name":"Root Scene","nodes":[0]}]}