{"accessors":[{"bufferView":0,"byteOffset":0,"componentType":5123,"count":8760,"type":"SCALAR"},{"bufferView":1,"byteOffset":0,"componentType":5126,"count":1952,"max":[-0.49595552682877,2.95918583869934,1.84685099124908],"min":[-0.67190062999725,2.86599183082581,-1.84685099124908],"type":"VEC3"},{"bufferView":2,"byteOffset":0,"componentType":5126,"count":1952,"type":"VEC3"},{"bufferView":3,"byteOffset":0,"componentType":5126,"count":1952,"type":"VEC2"},{"bufferView":4,"byteOffset":0,"componentType":5123,"count":3510,"type":"SCALAR"},{"bufferView":5,"byteOffset":0,"componentType":5126,"count":870,"max":[-0.49595552682877,2.95937609672546,1.84658014774323],"min":[-0.67538911104202,2.86580157279968,-1.84658014774323],"type":"VEC3"},{"bufferView":6,"byteOffset":0,"componentType":5126,"count":870,"type":"VEC3"},{"bufferView":7,"byteOffset":0,"componentType":5126,"count":870,"type":"VEC2"},{"bufferView":8,"byteOffset":0,"componentType":5123,"count":150,"type":"SCALAR"},{"bufferView":9,"byteOffset":0,"componentType":5126,"count":61,"max":[-0.60890603065491,2.95565056800842,1.84352660179138],"min":[-0.6768856048584,2.87213802337646,-1.84926617145538],"type":"VEC3"},{"bufferView":10,"byteOffset":0,"componentType":5126,"count":61,"type":"VEC3"},{"bufferView":11,"byteOffset":0,"componentType":5126,"count":61,"type":"VEC2"},{"bufferView":12,"byteOffset":0,"componentType":5123,"count":9216,"type":"SCALAR"},{"bufferView":13,"byteOffset":0,"componentType":5126,"count":1690,"max":[-0.61368143558502,2.91053819656372,1.76027047634125],"min":[-0.66603535413742,0.656711161136627,-1.76027047634125],"type":"VEC3"},{"bufferView":14,"byteOffset":0,"componentType":5126,"count":1690,"type":"VEC3"},{"bufferView":15,"byteOffset":0,"componentType":5126,"count":1690,"type":"VEC2"},{"bufferView":16,"byteOffset":0,"componentType":5123,"count":1878,"type":"SCALAR"},{"bufferView":17,"byteOffset":0,"componentType":5126,"count":402,"max":[-0.61433237791061,2.91099429130554,1.76027047634125],"min":[-0.6696492433548,0.656704485416412,-1.76027047634125],"type":"VEC3"},{"bufferView":18,"byteOffset":0,"componentType":5126,"count":402,"type":"VEC3"},{"bufferView":19,"byteOffset":0,"componentType":5126,"count":402,"type":"VEC2"},{"bufferView":20,"byteOffset":0,"componentType":5123,"count":78,"type":"SCALAR"},{"bufferView":21,"byteOffset":0,"componentType":5126,"count":30,"max":[-0.60291969776154,2.91618776321411,1.75973105430603],"min":[-0.67794513702393,0.656706213951111,-1.75268363952637],"type":"VEC3"},{"bufferView":22,"byteOffset":0,"componentType":5126,"count":30,"type":"VEC3"},{"bufferView":23,"byteOffset":0,"componentType":5126,"count":30,"type":"VEC2"}],"asset":{"generator":"FBX2glTF v0.13.1","version":"2.0"},"bufferViews":[{"buffer":0,"byteLength":17520,"byteOffset":0,"target":34963},{"buffer":0,"byteLength":23424,"byteOffset":17520,"target":34962},{"buffer":0,"byteLength":23424,"byteOffset":40944,"target":34962},{"buffer":0,"byteLength":15616,"byteOffset":64368,"target":34962},{"buffer":0,"byteLength":7020,"byteOffset":79984,"target":34963},{"buffer":0,"byteLength":10440,"byteOffset":87004,"target":34962},{"buffer":0,"byteLength":10440,"byteOffset":97444,"target":34962},{"buffer":0,"byteLength":6960,"byteOffset":107884,"target":34962},{"buffer":0,"byteLength":300,"byteOffset":114844,"target":34963},{"buffer":0,"byteLength":732,"byteOffset":115144,"target":34962},{"buffer":0,"byteLength":732,"byteOffset":115876,"target":34962},{"buffer":0,"byteLength":488,"byteOffset":116608,"target":34962},{"buffer":0,"byteLength":18432,"byteOffset":117096,"target":34963},{"buffer":0,"byteLength":20280,"byteOffset":135528,"target":34962},{"buffer":0,"byteLength":20280,"byteOffset":155808,"target":34962},{"buffer":0,"byteLength":13520,"byteOffset":176088,"target":34962},{"buffer":0,"byteLength":3756,"byteOffset":189608,"target":34963},{"buffer":0,"byteLength":4824,"byteOffset":193364,"target":34962},{"buffer":0,"byteLength":4824,"byteOffset":198188,"target":34962},{"buffer":0,"byteLength":3216,"byteOffset":203012,"target":34962},{"buffer":0,"byteLength":156,"byteOffset":206228,"target":34963},{"buffer":0,"byteLength":360,"byteOffset":206384,"target":34962},{"buffer":0,"byteLength":360,"byteOffset":206744,"target":34962},{"buffer":0,"byteLength":240,"byteOffset":207104,"target":34962}],"buffers":[{"byteLength":207344,"uri":"Curtain_02.bin"}],"materials":[{"alphaMode":"OPAQUE","doubleSided":false,"extras":{"fromFBX":{"isTruePBR":false,"shadingModel":"Phong"}},"name":"Curtain_02_Fade","pbrMetallicRoughness":{"baseColorFactor":[0.800000011920929,0.800000011920929,0.800000011920929,1],"metallicFactor":0.400000005960464,"roughnessFactor":0.272165536880493}},{"alphaMode":"OPAQUE","doubleSided":false,"extras":{"fromFBX":{"isTruePBR":false,"shadingModel":"Phong"}},"name":"Curtain_02","pbrMetallicRoughness":{"baseColorFactor":[1,1,1,1],"metallicFactor":0.400000005960464,"roughnessFactor":0.272165536880493}}],"meshes":[{"name":"Сurtain_02_LOD0","primitives":[{"attributes":{"NORMAL":2,"POSITION":1,"TEXCOORD_0":3},"indices":0,"material":1,"mode":4},{"attributes":{"NORMAL":14,"POSITION":13,"TEXCOORD_0":15},"indices":12,"material":0,"mode":4}]},{"name":"Сurtain_02_LOD1","primitives":[{"attributes":{"NORMAL":6,"POSITION":5,"TEXCOORD_0":7},"indices":4,"material":1,"mode":4},{"attributes":{"NORMAL":18,"POSITION":17,"TEXCOORD_0":19},"indices":16,"material":0,"mode":4}]},{"name":"Сurtain_02_LOD2","primitives":[{"attributes":{"NORMAL":10,"POSITION":9,"TEXCOORD_0":11},"indices":8,"material":1,"mode":4},{"attributes":{"NORMAL":22,"POSITION":21,"TEXCOORD_0":23},"indices":20,"material":0,"mode":4}]}],"nodes":[{"mesh":0,"name":"Сurtain_02_LOD0","rotation":[0,0,0,1],"scale":[1,1,1],"translation":[0,0,0]},{"mesh":1,"name":"Сurtain_02_LOD1","rotation":[0,0,0,1],"scale":[1,1,1],"translation":[0,0,0]},{"mesh":2,"name":"Сurtain_02_LOD2","rotation":[0,0,0,1],"scale":[1,1,1],"translation":[0,0,0]}],"samplers":[{}],"scene":0,"scenes":[{"name":"Root Scene","nodes":[0,1,2]}]}