{"accessors":[{"bufferView":0,"byteOffset":0,"componentType":5123,"count":22914,"type":"SCALAR"},{"bufferView":1,"byteOffset":0,"componentType":5126,"count":4367,"max":[0.435240417718887,1.27698147296906,0.321025997400284],"min":[-0.28984114527702,-0.00218285690062,-0.32102599740028],"type":"VEC3"},{"bufferView":2,"byteOffset":0,"componentType":5126,"count":4367,"type":"VEC3"},{"bufferView":3,"byteOffset":0,"componentType":5126,"count":4367,"type":"VEC2"},{"bufferView":4,"byteOffset":0,"componentType":5123,"count":4062,"type":"SCALAR"},{"bufferView":5,"byteOffset":0,"componentType":5126,"count":986,"max":[0.435034692287445,1.27672040462494,0.320833623409271],"min":[-0.28860554099083,-0.00218318216503,-0.32083362340927],"type":"VEC3"},{"bufferView":6,"byteOffset":0,"componentType":5126,"count":986,"type":"VEC3"},{"bufferView":7,"byteOffset":0,"componentType":5126,"count":986,"type":"VEC2"},{"bufferView":8,"byteOffset":0,"componentType":5123,"count":774,"type":"SCALAR"},{"bufferView":9,"byteOffset":0,"componentType":5126,"count":251,"max":[0.430102705955505,1.28056979179382,0.317296504974365],"min":[-0.27844420075417,-0.00219076126814,-0.31727510690689],"type":"VEC3"},{"bufferView":10,"byteOffset":0,"componentType":5126,"count":251,"type":"VEC3"},{"bufferView":11,"byteOffset":0,"componentType":5126,"count":251,"type":"VEC2"}],"asset":{"generator":"FBX2glTF v0.13.1","version":"2.0"},"bufferViews":[{"buffer":0,"byteLength":45828,"byteOffset":0,"target":34963},{"buffer":0,"byteLength":52404,"byteOffset":45828,"target":34962},{"buffer":0,"byteLength":52404,"byteOffset":98232,"target":34962},{"buffer":0,"byteLength":34936,"byteOffset":150636,"target":34962},{"buffer":0,"byteLength":8124,"byteOffset":185572,"target":34963},{"buffer":0,"byteLength":11832,"byteOffset":193696,"target":34962},{"buffer":0,"byteLength":11832,"byteOffset":205528,"target":34962},{"buffer":0,"byteLength":7888,"byteOffset":217360,"target":34962},{"buffer":0,"byteLength":1548,"byteOffset":225248,"target":34963},{"buffer":0,"byteLength":3012,"byteOffset":226796,"target":34962},{"buffer":0,"byteLength":3012,"byteOffset":229808,"target":34962},{"buffer":0,"byteLength":2008,"byteOffset":232820,"target":34962}],"buffers":[{"byteLength":234828,"uri":"Directors_Chair.bin"}],"images":[{"name":"Directors_Chair_A","uri":"Directors_Chair_A.tga"}],"materials":[{"alphaMode":"OPAQUE","doubleSided":false,"extras":{"fromFBX":{"isTruePBR":false,"shadingModel":"Phong"}},"name":"Directors_Chair","pbrMetallicRoughness":{"baseColorFactor":[1,1,1,1],"baseColorTexture":{"index":0,"texCoord":0},"metallicFactor":0.400000005960464,"roughnessFactor":0.272165536880493}}],"meshes":[{"name":"Directors_Chair_LOD0","primitives":[{"attributes":{"NORMAL":2,"POSITION":1,"TEXCOORD_0":3},"indices":0,"material":0,"mode":4}]},{"name":"Directors_Chair_LOD1","primitives":[{"attributes":{"NORMAL":6,"POSITION":5,"TEXCOORD_0":7},"indices":4,"material":0,"mode":4}]},{"name":"Directors_Chair_LOD2","primitives":[{"attributes":{"NORMAL":10,"POSITION":9,"TEXCOORD_0":11},"indices":8,"material":0,"mode":4}]}],"nodes":[{"mesh":0,"name":"Directors_Chair_LOD0","rotation":[0,0,0,1],"scale":[1,1,1],"translation":[0,0,0]},{"mesh":1,"name":"Directors_Chair_LOD1","rotation":[0,0,0,1],"scale":[1,1,1],"translation":[0,0,0]},{"mesh":2,"name":"Directors_Chair_LOD2","rotation":[0,0,0,1],"scale":[1,1,1],"translation":[0,0,0]}],"samplers":[{}],"scene":0,"scenes":[{"name":"Root Scene","nodes":[0,1,2]}],"textures":[{"name":"base_color_texture","sampler":0,"source":0}]}