{"accessors":[{"bufferView":0,"byteOffset":0,"componentType":5123,"count":4692,"type":"SCALAR"},{"bufferView":1,"byteOffset":0,"componentType":5126,"count":1605,"max":[0.50943797826767,0.936310648918152,1.04171216487885],"min":[-0.40818151831627,-0.00000011920929,-1.04171216487885],"type":"VEC3"},{"bufferView":2,"byteOffset":0,"componentType":5126,"count":1605,"type":"VEC3"},{"bufferView":3,"byteOffset":0,"componentType":5126,"count":1605,"type":"VEC2"},{"bufferView":4,"byteOffset":0,"componentType":5123,"count":618,"type":"SCALAR"},{"bufferView":5,"byteOffset":0,"componentType":5126,"count":230,"max":[0.185304120182991,0.0871101543307304,0.273758888244629],"min":[-0.22604918479919,-0.1449978351593,-0.27375876903534],"type":"VEC3"},{"bufferView":6,"byteOffset":0,"componentType":5126,"count":230,"type":"VEC3"},{"bufferView":7,"byteOffset":0,"componentType":5126,"count":230,"type":"VEC2"},{"bufferView":8,"byteOffset":0,"componentType":5123,"count":294,"type":"SCALAR"},{"bufferView":9,"byteOffset":0,"componentType":5126,"count":151,"max":[0.185304135084152,0.0871101543307304,0.273758918046951],"min":[-0.22604918479919,-0.1449978351593,-0.27375876903534],"type":"VEC3"},{"bufferView":10,"byteOffset":0,"componentType":5126,"count":151,"type":"VEC3"},{"bufferView":11,"byteOffset":0,"componentType":5126,"count":151,"type":"VEC2"},{"bufferView":12,"byteOffset":0,"componentType":5123,"count":618,"type":"SCALAR"},{"bufferView":13,"byteOffset":0,"componentType":5126,"count":230,"max":[0.185304120182991,0.0871101543307304,0.273758888244629],"min":[-0.22604918479919,-0.1449978351593,-0.27375876903534],"type":"VEC3"},{"bufferView":14,"byteOffset":0,"componentType":5126,"count":230,"type":"VEC3"},{"bufferView":15,"byteOffset":0,"componentType":5126,"count":230,"type":"VEC2"},{"bufferView":16,"byteOffset":0,"componentType":5123,"count":300,"type":"SCALAR"},{"bufferView":17,"byteOffset":0,"componentType":5126,"count":153,"max":[0.185304135084152,0.0871101543307304,0.273758918046951],"min":[-0.22604918479919,-0.1449978351593,-0.27375876903534],"type":"VEC3"},{"bufferView":18,"byteOffset":0,"componentType":5126,"count":153,"type":"VEC3"},{"bufferView":19,"byteOffset":0,"componentType":5126,"count":153,"type":"VEC2"},{"bufferView":20,"byteOffset":0,"componentType":5123,"count":2505,"type":"SCALAR"},{"bufferView":21,"byteOffset":0,"componentType":5126,"count":975,"max":[0.50943797826767,0.936310648918152,1.03999412059784],"min":[-0.40818151831627,-0.00000006332994,-1.03950107097626],"type":"VEC3"},{"bufferView":22,"byteOffset":0,"componentType":5126,"count":975,"type":"VEC3"},{"bufferView":23,"byteOffset":0,"componentType":5126,"count":975,"type":"VEC2"},{"bufferView":24,"byteOffset":0,"componentType":5123,"count":897,"type":"SCALAR"},{"bufferView":25,"byteOffset":0,"componentType":5126,"count":426,"max":[0.505206882953644,0.934748113155365,1.03999412059784],"min":[-0.40481778979302,-0.00000006332994,-1.03936469554901],"type":"VEC3"},{"bufferView":26,"byteOffset":0,"componentType":5126,"count":426,"type":"VEC3"},{"bufferView":27,"byteOffset":0,"componentType":5126,"count":426,"type":"VEC2"}],"asset":{"generator":"FBX2glTF v0.13.1","version":"2.0"},"bufferViews":[{"buffer":0,"byteLength":9384,"byteOffset":0,"target":34963},{"buffer":0,"byteLength":19260,"byteOffset":9384,"target":34962},{"buffer":0,"byteLength":19260,"byteOffset":28644,"target":34962},{"buffer":0,"byteLength":12840,"byteOffset":47904,"target":34962},{"buffer":0,"byteLength":1236,"byteOffset":60744,"target":34963},{"buffer":0,"byteLength":2760,"byteOffset":61980,"target":34962},{"buffer":0,"byteLength":2760,"byteOffset":64740,"target":34962},{"buffer":0,"byteLength":1840,"byteOffset":67500,"target":34962},{"buffer":0,"byteLength":588,"byteOffset":69340,"target":34963},{"buffer":0,"byteLength":1812,"byteOffset":69928,"target":34962},{"buffer":0,"byteLength":1812,"byteOffset":71740,"target":34962},{"buffer":0,"byteLength":1208,"byteOffset":73552,"target":34962},{"buffer":0,"byteLength":1236,"byteOffset":74760,"target":34963},{"buffer":0,"byteLength":2760,"byteOffset":75996,"target":34962},{"buffer":0,"byteLength":2760,"byteOffset":78756,"target":34962},{"buffer":0,"byteLength":1840,"byteOffset":81516,"target":34962},{"buffer":0,"byteLength":600,"byteOffset":83356,"target":34963},{"buffer":0,"byteLength":1836,"byteOffset":83956,"target":34962},{"buffer":0,"byteLength":1836,"byteOffset":85792,"target":34962},{"buffer":0,"byteLength":1224,"byteOffset":87628,"target":34962},{"buffer":0,"byteLength":5010,"byteOffset":88852,"target":34963},{"buffer":0,"byteLength":11700,"byteOffset":93864,"target":34962},{"buffer":0,"byteLength":11700,"byteOffset":105564,"target":34962},{"buffer":0,"byteLength":7800,"byteOffset":117264,"target":34962},{"buffer":0,"byteLength":1794,"byteOffset":125064,"target":34963},{"buffer":0,"byteLength":5112,"byteOffset":126860,"target":34962},{"buffer":0,"byteLength":5112,"byteOffset":131972,"target":34962},{"buffer":0,"byteLength":3408,"byteOffset":137084,"target":34962}],"buffers":[{"byteLength":140492,"uri":"Directors_Desk.bin"}],"images":[{"name":"Directors_Desk_A","uri":"Directors_Desk_A.tga"}],"materials":[{"alphaMode":"OPAQUE","doubleSided":false,"extras":{"fromFBX":{"isTruePBR":false,"shadingModel":"Phong"}},"name":"Directors_Desk","pbrMetallicRoughness":{"baseColorFactor":[1,1,1,1],"baseColorTexture":{"index":0,"texCoord":0},"metallicFactor":0.400000005960464,"roughnessFactor":0.272165536880493}}],"meshes":[{"name":"Directors_Desk_LOD0","primitives":[{"attributes":{"NORMAL":2,"POSITION":1,"TEXCOORD_0":3},"indices":0,"material":0,"mode":4}]},{"name":"Box_01_LOD0","primitives":[{"attributes":{"NORMAL":6,"POSITION":5,"TEXCOORD_0":7},"indices":4,"material":0,"mode":4}]},{"name":"Box_01_LOD1","primitives":[{"attributes":{"NORMAL":10,"POSITION":9,"TEXCOORD_0":11},"indices":8,"material":0,"mode":4}]},{"name":"Box_02_LOD0","primitives":[{"attributes":{"NORMAL":14,"POSITION":13,"TEXCOORD_0":15},"indices":12,"material":0,"mode":4}]},{"name":"Box_02_LOD1","primitives":[{"attributes":{"NORMAL":18,"POSITION":17,"TEXCOORD_0":19},"indices":16,"material":0,"mode":4}]},{"name":"Directors_Desk_LOD1","primitives":[{"attributes":{"NORMAL":22,"POSITION":21,"TEXCOORD_0":23},"indices":20,"material":0,"mode":4}]},{"name":"Directors_Desk_LOD2","primitives":[{"attributes":{"NORMAL":26,"POSITION":25,"TEXCOORD_0":27},"indices":24,"material":0,"mode":4}]}],"nodes":[{"mesh":0,"name":"Directors_Desk_LOD0","rotation":[0,0,0,1],"scale":[1,1,1],"translation":[0,0,0]},{"children":[2],"mesh":1,"name":"Box_01_LOD0","rotation":[0,0,0,1],"scale":[1,1,1],"translation":[-0.18213218450546,0.784534871578217,-0.71363842487335]},{"mesh":2,"name":"Box_01_LOD1","rotation":[0,0,0,1],"scale":[1,1,1],"translation":[-0.00000007629394,0.0000000762939436071974,-0.00000007629394]},{"children":[4],"mesh":3,"name":"Box_02_LOD0","rotation":[0,0,0,1],"scale":[1,1,1],"translation":[-0.18213206529617,0.784534871578217,0.713638424873352]},{"mesh":4,"name":"Box_02_LOD1","rotation":[0,0,0,1],"scale":[1,1,1],"translation":[-0.00000019073485,0.0000000762939436071974,0.0000000762939436071974]},{"mesh":5,"name":"Directors_Desk_LOD1","rotation":[0,0,0,1],"scale":[1,1,1],"translation":[0,0,0]},{"mesh":6,"name":"Directors_Desk_LOD2","rotation":[0,0,0,1],"scale":[1,1,1],"translation":[0,0,0]}],"samplers":[{}],"scene":0,"scenes":[{"name":"Root Scene","nodes":[0,1,3,5,6]}],"textures":[{"name":"base_color_texture","sampler":0,"source":0}]}