{"accessors":[{"bufferView":0,"byteOffset":0,"componentType":5123,"count":120,"type":"SCALAR"},{"bufferView":1,"byteOffset":0,"componentType":5126,"count":72,"max":[0.000000000039453572353576,1.78373885154724,0.338033050298691],"min":[-0.56563347578049,0,-0.33803305029869],"type":"VEC3"},{"bufferView":2,"byteOffset":0,"componentType":5126,"count":72,"type":"VEC3"},{"bufferView":3,"byteOffset":0,"componentType":5126,"count":72,"type":"VEC2"},{"bufferView":4,"byteOffset":0,"componentType":5123,"count":3342,"type":"SCALAR"},{"bufferView":5,"byteOffset":0,"componentType":5126,"count":1390,"max":[0.252651691436768,0.412951231002808,0.439828127622604],"min":[-0.34101149439812,-0.11548274755478,-0.4398281276226],"type":"VEC3"},{"bufferView":6,"byteOffset":0,"componentType":5126,"count":1390,"type":"VEC3"},{"bufferView":7,"byteOffset":0,"componentType":5126,"count":1390,"type":"VEC2"},{"bufferView":8,"byteOffset":0,"componentType":5123,"count":1671,"type":"SCALAR"},{"bufferView":9,"byteOffset":0,"componentType":5126,"count":845,"max":[0.252651691436768,0.412951231002808,0.439828127622604],"min":[-0.34202215075493,-0.11548274755478,-0.4398281276226],"type":"VEC3"},{"bufferView":10,"byteOffset":0,"componentType":5126,"count":845,"type":"VEC3"},{"bufferView":11,"byteOffset":0,"componentType":5126,"count":845,"type":"VEC2"},{"bufferView":12,"byteOffset":0,"componentType":5123,"count":525,"type":"SCALAR"},{"bufferView":13,"byteOffset":0,"componentType":5126,"count":287,"max":[0.252651691436768,0.412951231002808,0.439828127622604],"min":[-0.34202215075493,-0.11548274755478,-0.4398281276226],"type":"VEC3"},{"bufferView":14,"byteOffset":0,"componentType":5126,"count":287,"type":"VEC3"},{"bufferView":15,"byteOffset":0,"componentType":5126,"count":287,"type":"VEC2"},{"bufferView":16,"byteOffset":0,"componentType":5123,"count":744,"type":"SCALAR"},{"bufferView":17,"byteOffset":0,"componentType":5126,"count":276,"max":[0.252651691436768,0.445613384246826,0.439828127622604],"min":[-0.34101149439812,-0.08282065391541,-0.4398281276226],"type":"VEC3"},{"bufferView":18,"byteOffset":0,"componentType":5126,"count":276,"type":"VEC3"},{"bufferView":19,"byteOffset":0,"componentType":5126,"count":276,"type":"VEC2"},{"bufferView":20,"byteOffset":0,"componentType":5123,"count":396,"type":"SCALAR"},{"bufferView":21,"byteOffset":0,"componentType":5126,"count":202,"max":[0.252651691436768,0.445613384246826,0.439828127622604],"min":[-0.33991411328316,-0.08282065391541,-0.4398281276226],"type":"VEC3"},{"bufferView":22,"byteOffset":0,"componentType":5126,"count":202,"type":"VEC3"},{"bufferView":23,"byteOffset":0,"componentType":5126,"count":202,"type":"VEC2"},{"bufferView":24,"byteOffset":0,"componentType":5123,"count":3342,"type":"SCALAR"},{"bufferView":25,"byteOffset":0,"componentType":5126,"count":1390,"max":[0.252651691436768,0.412951231002808,0.439828127622604],"min":[-0.34101149439812,-0.11548274755478,-0.4398281276226],"type":"VEC3"},{"bufferView":26,"byteOffset":0,"componentType":5126,"count":1390,"type":"VEC3"},{"bufferView":27,"byteOffset":0,"componentType":5126,"count":1390,"type":"VEC2"},{"bufferView":28,"byteOffset":0,"componentType":5123,"count":1671,"type":"SCALAR"},{"bufferView":29,"byteOffset":0,"componentType":5126,"count":845,"max":[0.252651691436768,0.412951231002808,0.439828127622604],"min":[-0.34202215075493,-0.11548274755478,-0.4398281276226],"type":"VEC3"},{"bufferView":30,"byteOffset":0,"componentType":5126,"count":845,"type":"VEC3"},{"bufferView":31,"byteOffset":0,"componentType":5126,"count":845,"type":"VEC2"},{"bufferView":32,"byteOffset":0,"componentType":5123,"count":525,"type":"SCALAR"},{"bufferView":33,"byteOffset":0,"componentType":5126,"count":287,"max":[0.252651691436768,0.412951231002808,0.439828127622604],"min":[-0.34202215075493,-0.11548274755478,-0.4398281276226],"type":"VEC3"},{"bufferView":34,"byteOffset":0,"componentType":5126,"count":287,"type":"VEC3"},{"bufferView":35,"byteOffset":0,"componentType":5126,"count":287,"type":"VEC2"},{"bufferView":36,"byteOffset":0,"componentType":5123,"count":744,"type":"SCALAR"},{"bufferView":37,"byteOffset":0,"componentType":5126,"count":276,"max":[0.252651691436768,0.445613384246826,0.439828127622604],"min":[-0.34101149439812,-0.08282065391541,-0.4398281276226],"type":"VEC3"},{"bufferView":38,"byteOffset":0,"componentType":5126,"count":276,"type":"VEC3"},{"bufferView":39,"byteOffset":0,"componentType":5126,"count":276,"type":"VEC2"},{"bufferView":40,"byteOffset":0,"componentType":5123,"count":396,"type":"SCALAR"},{"bufferView":41,"byteOffset":0,"componentType":5126,"count":202,"max":[0.252651691436768,0.445613384246826,0.439828127622604],"min":[-0.33991411328316,-0.08282065391541,-0.4398281276226],"type":"VEC3"},{"bufferView":42,"byteOffset":0,"componentType":5126,"count":202,"type":"VEC3"},{"bufferView":43,"byteOffset":0,"componentType":5126,"count":202,"type":"VEC2"}],"asset":{"generator":"FBX2glTF v0.13.1","version":"2.0"},"bufferViews":[{"buffer":0,"byteLength":240,"byteOffset":0,"target":34963},{"buffer":0,"byteLength":864,"byteOffset":240,"target":34962},{"buffer":0,"byteLength":864,"byteOffset":1104,"target":34962},{"buffer":0,"byteLength":576,"byteOffset":1968,"target":34962},{"buffer":0,"byteLength":6684,"byteOffset":2544,"target":34963},{"buffer":0,"byteLength":16680,"byteOffset":9228,"target":34962},{"buffer":0,"byteLength":16680,"byteOffset":25908,"target":34962},{"buffer":0,"byteLength":11120,"byteOffset":42588,"target":34962},{"buffer":0,"byteLength":3342,"byteOffset":53708,"target":34963},{"buffer":0,"byteLength":10140,"byteOffset":57052,"target":34962},{"buffer":0,"byteLength":10140,"byteOffset":67192,"target":34962},{"buffer":0,"byteLength":6760,"byteOffset":77332,"target":34962},{"buffer":0,"byteLength":1050,"byteOffset":84092,"target":34963},{"buffer":0,"byteLength":3444,"byteOffset":85144,"target":34962},{"buffer":0,"byteLength":3444,"byteOffset":88588,"target":34962},{"buffer":0,"byteLength":2296,"byteOffset":92032,"target":34962},{"buffer":0,"byteLength":1488,"byteOffset":94328,"target":34963},{"buffer":0,"byteLength":3312,"byteOffset":95816,"target":34962},{"buffer":0,"byteLength":3312,"byteOffset":99128,"target":34962},{"buffer":0,"byteLength":2208,"byteOffset":102440,"target":34962},{"buffer":0,"byteLength":792,"byteOffset":104648,"target":34963},{"buffer":0,"byteLength":2424,"byteOffset":105440,"target":34962},{"buffer":0,"byteLength":2424,"byteOffset":107864,"target":34962},{"buffer":0,"byteLength":1616,"byteOffset":110288,"target":34962},{"buffer":0,"byteLength":6684,"byteOffset":111904,"target":34963},{"buffer":0,"byteLength":16680,"byteOffset":118588,"target":34962},{"buffer":0,"byteLength":16680,"byteOffset":135268,"target":34962},{"buffer":0,"byteLength":11120,"byteOffset":151948,"target":34962},{"buffer":0,"byteLength":3342,"byteOffset":163068,"target":34963},{"buffer":0,"byteLength":10140,"byteOffset":166412,"target":34962},{"buffer":0,"byteLength":10140,"byteOffset":176552,"target":34962},{"buffer":0,"byteLength":6760,"byteOffset":186692,"target":34962},{"buffer":0,"byteLength":1050,"byteOffset":193452,"target":34963},{"buffer":0,"byteLength":3444,"byteOffset":194504,"target":34962},{"buffer":0,"byteLength":3444,"byteOffset":197948,"target":34962},{"buffer":0,"byteLength":2296,"byteOffset":201392,"target":34962},{"buffer":0,"byteLength":1488,"byteOffset":203688,"target":34963},{"buffer":0,"byteLength":3312,"byteOffset":205176,"target":34962},{"buffer":0,"byteLength":3312,"byteOffset":208488,"target":34962},{"buffer":0,"byteLength":2208,"byteOffset":211800,"target":34962},{"buffer":0,"byteLength":792,"byteOffset":214008,"target":34963},{"buffer":0,"byteLength":2424,"byteOffset":214800,"target":34962},{"buffer":0,"byteLength":2424,"byteOffset":217224,"target":34962},{"buffer":0,"byteLength":1616,"byteOffset":219648,"target":34962}],"buffers":[{"byteLength":221264,"uri":"Filing_Cabinet.bin"}],"images":[{"name":"Filing_Cabinet_A","uri":"Filing_Cabinet_A.tga"}],"materials":[{"alphaMode":"OPAQUE","doubleSided":false,"extras":{"fromFBX":{"isTruePBR":false,"shadingModel":"Phong"}},"name":"Filing_Cabinet","pbrMetallicRoughness":{"baseColorFactor":[1,1,1,1],"baseColorTexture":{"index":0,"texCoord":0},"metallicFactor":0.400000005960464,"roughnessFactor":0.272165536880493}}],"meshes":[{"name":"Filing_Cabinet_LOD0","primitives":[{"attributes":{"NORMAL":2,"POSITION":1,"TEXCOORD_0":3},"indices":0,"material":0,"mode":4}]},{"name":"Filing_Box_01_LOD0","primitives":[{"attributes":{"NORMAL":6,"POSITION":5,"TEXCOORD_0":7},"indices":4,"material":0,"mode":4}]},{"name":"Filing_Box_01_LOD1","primitives":[{"attributes":{"NORMAL":10,"POSITION":9,"TEXCOORD_0":11},"indices":8,"material":0,"mode":4}]},{"name":"Filing_Box_01_LOD2","primitives":[{"attributes":{"NORMAL":14,"POSITION":13,"TEXCOORD_0":15},"indices":12,"material":0,"mode":4}]},{"name":"Filing_Box_01_LOD0.001","primitives":[{"attributes":{"NORMAL":18,"POSITION":17,"TEXCOORD_0":19},"indices":16,"material":0,"mode":4}]},{"name":"Filing_Box_01_LOD1.001","primitives":[{"attributes":{"NORMAL":22,"POSITION":21,"TEXCOORD_0":23},"indices":20,"material":0,"mode":4}]},{"name":"Filing_Box_04_LOD0","primitives":[{"attributes":{"NORMAL":26,"POSITION":25,"TEXCOORD_0":27},"indices":24,"material":0,"mode":4}]},{"name":"Filing_Box_04_LOD1","primitives":[{"attributes":{"NORMAL":30,"POSITION":29,"TEXCOORD_0":31},"indices":28,"material":0,"mode":4}]},{"name":"Filing_Box_04_LOD2","primitives":[{"attributes":{"NORMAL":34,"POSITION":33,"TEXCOORD_0":35},"indices":32,"material":0,"mode":4}]},{"name":"Filing_Box_03_LOD0","primitives":[{"attributes":{"NORMAL":38,"POSITION":37,"TEXCOORD_0":39},"indices":36,"material":0,"mode":4}]},{"name":"Filing_Box_03_LOD1","primitives":[{"attributes":{"NORMAL":42,"POSITION":41,"TEXCOORD_0":43},"indices":40,"material":0,"mode":4}]}],"nodes":[{"mesh":0,"name":"Filing_Cabinet_LOD0","rotation":[0,0,0,1],"scale":[1,1,1],"translation":[0,0,0]},{"children":[2,3],"mesh":1,"name":"Filing_Box_01_LOD0","rotation":[0,0,0,1],"scale":[0.67780727148056,0.67780727148056,0.67780727148056],"translation":[-0.3815723657608,0.748745739459991,0]},{"mesh":2,"name":"Filing_Box_01_LOD1","rotation":[0,0,0,1],"scale":[1,1,1],"translation":[0.000000152587887214395,-0.00000007629394,0]},{"mesh":3,"name":"Filing_Box_01_LOD2","rotation":[0,0,0,1],"scale":[1,1,1],"translation":[0.000000152587887214395,-0.00000007629394,0]},{"children":[5],"mesh":4,"name":"Filing_Box_01_LOD0.001","rotation":[0,0,0,1],"scale":[0.67780727148056,0.67780727148056,0.67780727148056],"translation":[-0.3815723657608,0.368296086788177,0]},{"mesh":5,"name":"Filing_Box_01_LOD1.001","rotation":[0,0,0,1],"scale":[1,1,1],"translation":[-0.00000003814697,0,0]},{"children":[7,8],"mesh":6,"name":"Filing_Box_04_LOD0","rotation":[0,0,0,1],"scale":[0.67780727148056,0.67780727148056,0.67780727148056],"translation":[-0.3815723657608,1.46603143215179,0]},{"mesh":7,"name":"Filing_Box_04_LOD1","rotation":[0,0,0,1],"scale":[1,1,1],"translation":[0.000000152587887214395,0,0]},{"mesh":8,"name":"Filing_Box_04_LOD2","rotation":[0,0,0,1],"scale":[1,1,1],"translation":[0.000000152587887214395,0,0]},{"children":[10],"mesh":9,"name":"Filing_Box_03_LOD0","rotation":[0,0,0,1],"scale":[0.67780727148056,0.67780727148056,0.67780727148056],"translation":[-0.3815723657608,1.08558201789856,0]},{"mesh":10,"name":"Filing_Box_03_LOD1","rotation":[0,0,0,1],"scale":[1,1,1],"translation":[-0.00000003814697,0,0]}],"samplers":[{}],"scene":0,"scenes":[{"name":"Root Scene","nodes":[0,1,4,6,9]}],"textures":[{"name":"base_color_texture","sampler":0,"source":0}]}