{"accessors":[{"bufferView":0,"byteOffset":0,"componentType":5123,"count":1788,"type":"SCALAR"},{"bufferView":1,"byteOffset":0,"componentType":5126,"count":604,"max":[0.0722663551568985,0.294811725616455,0.0938121005892754],"min":[-0.07855566591024,-0.00149120762944,-0.0773538351059],"type":"VEC3"},{"bufferView":2,"byteOffset":0,"componentType":5126,"count":604,"type":"VEC3"},{"bufferView":3,"byteOffset":0,"componentType":5126,"count":604,"type":"VEC2"},{"bufferView":4,"byteOffset":0,"componentType":5123,"count":852,"type":"SCALAR"},{"bufferView":5,"byteOffset":0,"componentType":5126,"count":417,"max":[0.0722663551568985,0.294811725616455,0.0938002839684486],"min":[-0.07855566591024,-0.00149120762944,-0.0773538351059],"type":"VEC3"},{"bufferView":6,"byteOffset":0,"componentType":5126,"count":417,"type":"VEC3"},{"bufferView":7,"byteOffset":0,"componentType":5126,"count":417,"type":"VEC2"},{"bufferView":8,"byteOffset":0,"componentType":5123,"count":438,"type":"SCALAR"},{"bufferView":9,"byteOffset":0,"componentType":5126,"count":268,"max":[0.0714197084307671,0.294811725616455,0.0929054021835327],"min":[-0.07768943160772,-0.00149120762944,-0.07675669342279],"type":"VEC3"},{"bufferView":10,"byteOffset":0,"componentType":5126,"count":268,"type":"VEC3"},{"bufferView":11,"byteOffset":0,"componentType":5126,"count":268,"type":"VEC2"}],"asset":{"generator":"FBX2glTF v0.13.1","version":"2.0"},"bufferViews":[{"buffer":0,"byteLength":3576,"byteOffset":0,"target":34963},{"buffer":0,"byteLength":7248,"byteOffset":3576,"target":34962},{"buffer":0,"byteLength":7248,"byteOffset":10824,"target":34962},{"buffer":0,"byteLength":4832,"byteOffset":18072,"target":34962},{"buffer":0,"byteLength":1704,"byteOffset":22904,"target":34963},{"buffer":0,"byteLength":5004,"byteOffset":24608,"target":34962},{"buffer":0,"byteLength":5004,"byteOffset":29612,"target":34962},{"buffer":0,"byteLength":3336,"byteOffset":34616,"target":34962},{"buffer":0,"byteLength":876,"byteOffset":37952,"target":34963},{"buffer":0,"byteLength":3216,"byteOffset":38828,"target":34962},{"buffer":0,"byteLength":3216,"byteOffset":42044,"target":34962},{"buffer":0,"byteLength":2144,"byteOffset":45260,"target":34962}],"buffers":[{"byteLength":47404,"uri":"Metronome.bin"}],"images":[{"name":"Table_Lamp_A","uri":"Table_Lamp_A.tga"}],"materials":[{"alphaMode":"OPAQUE","doubleSided":false,"extras":{"fromFBX":{"isTruePBR":false,"shadingModel":"Phong"}},"name":"Table_Lamp","pbrMetallicRoughness":{"baseColorFactor":[1,1,1,1],"baseColorTexture":{"index":0,"texCoord":0},"metallicFactor":0.400000005960464,"roughnessFactor":0.272165536880493}}],"meshes":[{"name":"Metronome_LOD0","primitives":[{"attributes":{"NORMAL":2,"POSITION":1,"TEXCOORD_0":3},"indices":0,"material":0,"mode":4}]},{"name":"Metronome_LOD1","primitives":[{"attributes":{"NORMAL":6,"POSITION":5,"TEXCOORD_0":7},"indices":4,"material":0,"mode":4}]},{"name":"Metronome_LOD2","primitives":[{"attributes":{"NORMAL":10,"POSITION":9,"TEXCOORD_0":11},"indices":8,"material":0,"mode":4}]}],"nodes":[{"mesh":0,"name":"Metronome_LOD0","rotation":[0,0,0,1],"scale":[1,1,1],"translation":[0,0,0]},{"mesh":1,"name":"Metronome_LOD1","rotation":[0,0,0,1],"scale":[1,1,1],"translation":[0,0,0]},{"mesh":2,"name":"Metronome_LOD2","rotation":[0,0,0,1],"scale":[1,1,1],"translation":[0,0,0]}],"samplers":[{}],"scene":0,"scenes":[{"name":"Root Scene","nodes":[0,1,2]}],"textures":[{"name":"base_color_texture","sampler":0,"source":0}]}