{"accessors":[{"bufferView":0,"byteOffset":0,"componentType":5123,"count":468,"type":"SCALAR"},{"bufferView":1,"byteOffset":0,"componentType":5126,"count":142,"max":[0.0637268722057343,0.142951399087906,0.0649175271391869],"min":[-0.06423708796501,-0.00411108322442,-0.06304643303156],"type":"VEC3"},{"bufferView":2,"byteOffset":0,"componentType":5126,"count":142,"type":"VEC3"},{"bufferView":3,"byteOffset":0,"componentType":5126,"count":142,"type":"VEC2"},{"bufferView":4,"byteOffset":0,"componentType":5123,"count":228,"type":"SCALAR"},{"bufferView":5,"byteOffset":0,"componentType":5126,"count":84,"max":[0.0637268722057343,0.142951399087906,0.0649175271391869],"min":[-0.06423708796501,-0.00411108322442,-0.06304643303156],"type":"VEC3"},{"bufferView":6,"byteOffset":0,"componentType":5126,"count":84,"type":"VEC3"},{"bufferView":7,"byteOffset":0,"componentType":5126,"count":84,"type":"VEC2"}],"asset":{"generator":"FBX2glTF v0.13.1","version":"2.0"},"bufferViews":[{"buffer":0,"byteLength":936,"byteOffset":0,"target":34963},{"buffer":0,"byteLength":1704,"byteOffset":936,"target":34962},{"buffer":0,"byteLength":1704,"byteOffset":2640,"target":34962},{"buffer":0,"byteLength":1136,"byteOffset":4344,"target":34962},{"buffer":0,"byteLength":456,"byteOffset":5480,"target":34963},{"buffer":0,"byteLength":1008,"byteOffset":5936,"target":34962},{"buffer":0,"byteLength":1008,"byteOffset":6944,"target":34962},{"buffer":0,"byteLength":672,"byteOffset":7952,"target":34962}],"buffers":[{"byteLength":8624,"uri":"Organizer.bin"}],"images":[{"name":"Ballpoint_Pen_A","uri":"Ballpoint_Pen_A.tga"}],"materials":[{"alphaMode":"OPAQUE","doubleSided":false,"extras":{"fromFBX":{"isTruePBR":false,"shadingModel":"Phong"}},"name":"Ballpoint_Pen","pbrMetallicRoughness":{"baseColorFactor":[1,1,1,1],"baseColorTexture":{"index":0,"texCoord":0},"metallicFactor":0.400000005960464,"roughnessFactor":0.272165536880493}}],"meshes":[{"name":"Organizer_LOD0","primitives":[{"attributes":{"NORMAL":2,"POSITION":1,"TEXCOORD_0":3},"indices":0,"material":0,"mode":4}]},{"name":"Organizer_LOD1","primitives":[{"attributes":{"NORMAL":6,"POSITION":5,"TEXCOORD_0":7},"indices":4,"material":0,"mode":4}]}],"nodes":[{"mesh":0,"name":"Organizer_LOD0","rotation":[0,0,0,1],"scale":[1,1,1],"translation":[0,0,0]},{"mesh":1,"name":"Organizer_LOD1","rotation":[0,0,0,1],"scale":[1,1,1],"translation":[0,0,0]}],"samplers":[{}],"scene":0,"scenes":[{"name":"Root Scene","nodes":[0,1]}],"textures":[{"name":"base_color_texture","sampler":0,"source":0}]}