{"accessors":[{"bufferView":0,"byteOffset":0,"componentType":5123,"count":1752,"type":"SCALAR"},{"bufferView":1,"byteOffset":0,"componentType":5126,"count":736,"max":[0.202249825000763,0.188121676445007,0.139213025569916],"min":[-0.21530923247337,-0.00111299753189,-0.13961642980576],"type":"VEC3"},{"bufferView":2,"byteOffset":0,"componentType":5126,"count":736,"type":"VEC3"},{"bufferView":3,"byteOffset":0,"componentType":5126,"count":736,"type":"VEC2"},{"bufferView":4,"byteOffset":0,"componentType":5123,"count":834,"type":"SCALAR"},{"bufferView":5,"byteOffset":0,"componentType":5126,"count":496,"max":[0.202564045786858,0.188121676445007,0.139974698424339],"min":[-0.21530923247337,-0.00111299753189,-0.13961642980576],"type":"VEC3"},{"bufferView":6,"byteOffset":0,"componentType":5126,"count":496,"type":"VEC3"},{"bufferView":7,"byteOffset":0,"componentType":5126,"count":496,"type":"VEC2"}],"asset":{"generator":"FBX2glTF v0.13.1","version":"2.0"},"bufferViews":[{"buffer":0,"byteLength":3504,"byteOffset":0,"target":34963},{"buffer":0,"byteLength":8832,"byteOffset":3504,"target":34962},{"buffer":0,"byteLength":8832,"byteOffset":12336,"target":34962},{"buffer":0,"byteLength":5888,"byteOffset":21168,"target":34962},{"buffer":0,"byteLength":1668,"byteOffset":27056,"target":34963},{"buffer":0,"byteLength":5952,"byteOffset":28724,"target":34962},{"buffer":0,"byteLength":5952,"byteOffset":34676,"target":34962},{"buffer":0,"byteLength":3968,"byteOffset":40628,"target":34962}],"buffers":[{"byteLength":44596,"uri":"Paper_Storage.bin"}],"images":[{"name":"Ballpoint_Pen_A","uri":"Ballpoint_Pen_A.tga"}],"materials":[{"alphaMode":"OPAQUE","doubleSided":false,"extras":{"fromFBX":{"isTruePBR":false,"shadingModel":"Phong"}},"name":"Ballpoint_Pen","pbrMetallicRoughness":{"baseColorFactor":[1,1,1,1],"baseColorTexture":{"index":0,"texCoord":0},"metallicFactor":0.400000005960464,"roughnessFactor":0.272165536880493}}],"meshes":[{"name":"Paper_Storage_LOD0","primitives":[{"attributes":{"NORMAL":2,"POSITION":1,"TEXCOORD_0":3},"indices":0,"material":0,"mode":4}]},{"name":"Paper_Storage_LOD1","primitives":[{"attributes":{"NORMAL":6,"POSITION":5,"TEXCOORD_0":7},"indices":4,"material":0,"mode":4}]}],"nodes":[{"mesh":0,"name":"Paper_Storage_LOD0","rotation":[0,0,0,1],"scale":[1,1,1],"translation":[0,0,0]},{"mesh":1,"name":"Paper_Storage_LOD1","rotation":[0,0,0,1],"scale":[1,1,1],"translation":[0,0,0]}],"samplers":[{}],"scene":0,"scenes":[{"name":"Root Scene","nodes":[0,1]}],"textures":[{"name":"base_color_texture","sampler":0,"source":0}]}