{"accessors":[{"bufferView":0,"byteOffset":0,"componentType":5123,"count":54,"type":"SCALAR"},{"bufferView":1,"byteOffset":0,"componentType":5126,"count":36,"max":[0.199662625789642,0.00803367607295513,0.113639965653419],"min":[-0.18447637557983,0,-0.13608084619045],"type":"VEC3"},{"bufferView":2,"byteOffset":0,"componentType":5126,"count":36,"type":"VEC3"},{"bufferView":3,"byteOffset":0,"componentType":5126,"count":36,"type":"VEC2"}],"asset":{"generator":"FBX2glTF v0.13.1","version":"2.0"},"bufferViews":[{"buffer":0,"byteLength":108,"byteOffset":0,"target":34963},{"buffer":0,"byteLength":432,"byteOffset":108,"target":34962},{"buffer":0,"byteLength":432,"byteOffset":540,"target":34962},{"buffer":0,"byteLength":288,"byteOffset":972,"target":34962}],"buffers":[{"byteLength":1260,"uri":"Sheet_paper_02.bin"}],"images":[{"name":"Books_A","uri":"Books_A.tga"}],"materials":[{"alphaMode":"OPAQUE","doubleSided":false,"extras":{"fromFBX":{"isTruePBR":false,"shadingModel":"Phong"}},"name":"Books","pbrMetallicRoughness":{"baseColorFactor":[1,1,1,1],"baseColorTexture":{"index":0,"texCoord":0},"metallicFactor":0.400000005960464,"roughnessFactor":0.272165536880493}}],"meshes":[{"name":"Sheet_paper_02","primitives":[{"attributes":{"NORMAL":2,"POSITION":1,"TEXCOORD_0":3},"indices":0,"material":0,"mode":4}]}],"nodes":[{"mesh":0,"name":"Sheet_paper_02","rotation":[0,0,0,1],"scale":[1,1,1],"translation":[0,0,0]}],"samplers":[{}],"scene":0,"scenes":[{"name":"Root Scene","nodes":[0]}],"textures":[{"name":"base_color_texture","sampler":0,"source":0}]}