{"accessors":[{"bufferView":0,"byteOffset":0,"componentType":5123,"count":888,"type":"SCALAR"},{"bufferView":1,"byteOffset":0,"componentType":5126,"count":306,"max":[0.0145369470119476,0.0686744004487991,0.0784082412719727],"min":[-0.01839987933636,0.000099918688647449,-0.06858849525452],"type":"VEC3"},{"bufferView":2,"byteOffset":0,"componentType":5126,"count":306,"type":"VEC3"},{"bufferView":3,"byteOffset":0,"componentType":5126,"count":306,"type":"VEC2"},{"bufferView":4,"byteOffset":0,"componentType":5123,"count":438,"type":"SCALAR"},{"bufferView":5,"byteOffset":0,"componentType":5126,"count":174,"max":[0.0145379742607474,0.0685069784522057,0.0784633681178093],"min":[-0.01839987933636,0.000099918688647449,-0.06829704344273],"type":"VEC3"},{"bufferView":6,"byteOffset":0,"componentType":5126,"count":174,"type":"VEC3"},{"bufferView":7,"byteOffset":0,"componentType":5126,"count":174,"type":"VEC2"},{"bufferView":8,"byteOffset":0,"componentType":5123,"count":180,"type":"SCALAR"},{"bufferView":9,"byteOffset":0,"componentType":5126,"count":124,"max":[0.014567794278264,0.0681341588497162,0.0772395431995392],"min":[-0.01839987933636,0.0000784482253948227,-0.06686624139547],"type":"VEC3"},{"bufferView":10,"byteOffset":0,"componentType":5126,"count":124,"type":"VEC3"},{"bufferView":11,"byteOffset":0,"componentType":5126,"count":124,"type":"VEC2"}],"asset":{"generator":"FBX2glTF v0.13.1","version":"2.0"},"bufferViews":[{"buffer":0,"byteLength":1776,"byteOffset":0,"target":34963},{"buffer":0,"byteLength":3672,"byteOffset":1776,"target":34962},{"buffer":0,"byteLength":3672,"byteOffset":5448,"target":34962},{"buffer":0,"byteLength":2448,"byteOffset":9120,"target":34962},{"buffer":0,"byteLength":876,"byteOffset":11568,"target":34963},{"buffer":0,"byteLength":2088,"byteOffset":12444,"target":34962},{"buffer":0,"byteLength":2088,"byteOffset":14532,"target":34962},{"buffer":0,"byteLength":1392,"byteOffset":16620,"target":34962},{"buffer":0,"byteLength":360,"byteOffset":18012,"target":34963},{"buffer":0,"byteLength":1488,"byteOffset":18372,"target":34962},{"buffer":0,"byteLength":1488,"byteOffset":19860,"target":34962},{"buffer":0,"byteLength":992,"byteOffset":21348,"target":34962}],"buffers":[{"byteLength":22340,"uri":"Stapler.bin"}],"images":[{"name":"Table_Lamp_A","uri":"Table_Lamp_A.tga"}],"materials":[{"alphaMode":"OPAQUE","doubleSided":false,"extras":{"fromFBX":{"isTruePBR":false,"shadingModel":"Phong"}},"name":"Table_Lamp","pbrMetallicRoughness":{"baseColorFactor":[1,1,1,1],"baseColorTexture":{"index":0,"texCoord":0},"metallicFactor":0.400000005960464,"roughnessFactor":0.272165536880493}}],"meshes":[{"name":"Stapler_LOD0","primitives":[{"attributes":{"NORMAL":2,"POSITION":1,"TEXCOORD_0":3},"indices":0,"material":0,"mode":4}]},{"name":"Stapler_LOD1","primitives":[{"attributes":{"NORMAL":6,"POSITION":5,"TEXCOORD_0":7},"indices":4,"material":0,"mode":4}]},{"name":"Stapler_LOD2","primitives":[{"attributes":{"NORMAL":10,"POSITION":9,"TEXCOORD_0":11},"indices":8,"material":0,"mode":4}]}],"nodes":[{"mesh":0,"name":"Stapler_LOD0","rotation":[0,0,0,1],"scale":[1,1,1],"translation":[0,0,0]},{"mesh":1,"name":"Stapler_LOD1","rotation":[0,0,0,1],"scale":[1,1,1],"translation":[0,0,0]},{"mesh":2,"name":"Stapler_LOD2","rotation":[0,0,0,1],"scale":[1,1,1],"translation":[0,0,0]}],"samplers":[{}],"scene":0,"scenes":[{"name":"Root Scene","nodes":[0,1,2]}],"textures":[{"name":"base_color_texture","sampler":0,"source":0}]}