{"accessors":[{"bufferView":0,"byteOffset":0,"componentType":5123,"count":3948,"type":"SCALAR"},{"bufferView":1,"byteOffset":0,"componentType":5126,"count":1201,"max":[0.161571308970451,0.702670335769653,0.161571264266968],"min":[-0.16157126426697,-0.00233856588602,-0.16157129406929],"type":"VEC3"},{"bufferView":2,"byteOffset":0,"componentType":5126,"count":1201,"type":"VEC3"},{"bufferView":3,"byteOffset":0,"componentType":5126,"count":1201,"type":"VEC2"},{"bufferView":4,"byteOffset":0,"componentType":5123,"count":2280,"type":"SCALAR"},{"bufferView":5,"byteOffset":0,"componentType":5126,"count":776,"max":[0.161571308970451,0.702670335769653,0.161571264266968],"min":[-0.16157126426697,-0.00233856588602,-0.16157129406929],"type":"VEC3"},{"bufferView":6,"byteOffset":0,"componentType":5126,"count":776,"type":"VEC3"},{"bufferView":7,"byteOffset":0,"componentType":5126,"count":776,"type":"VEC2"},{"bufferView":8,"byteOffset":0,"componentType":5123,"count":783,"type":"SCALAR"},{"bufferView":9,"byteOffset":0,"componentType":5126,"count":410,"max":[0.160290241241455,0.702670335769653,0.160290241241455],"min":[-0.16029021143913,-0.00233856588602,-0.16029031574726],"type":"VEC3"},{"bufferView":10,"byteOffset":0,"componentType":5126,"count":410,"type":"VEC3"},{"bufferView":11,"byteOffset":0,"componentType":5126,"count":410,"type":"VEC2"}],"asset":{"generator":"FBX2glTF v0.13.1","version":"2.0"},"bufferViews":[{"buffer":0,"byteLength":7896,"byteOffset":0,"target":34963},{"buffer":0,"byteLength":14412,"byteOffset":7896,"target":34962},{"buffer":0,"byteLength":14412,"byteOffset":22308,"target":34962},{"buffer":0,"byteLength":9608,"byteOffset":36720,"target":34962},{"buffer":0,"byteLength":4560,"byteOffset":46328,"target":34963},{"buffer":0,"byteLength":9312,"byteOffset":50888,"target":34962},{"buffer":0,"byteLength":9312,"byteOffset":60200,"target":34962},{"buffer":0,"byteLength":6208,"byteOffset":69512,"target":34962},{"buffer":0,"byteLength":1566,"byteOffset":75720,"target":34963},{"buffer":0,"byteLength":4920,"byteOffset":77288,"target":34962},{"buffer":0,"byteLength":4920,"byteOffset":82208,"target":34962},{"buffer":0,"byteLength":3280,"byteOffset":87128,"target":34962}],"buffers":[{"byteLength":90408,"uri":"Table_Lamp.bin"}],"images":[{"name":"Table_Lamp_A","uri":"Table_Lamp_A.tga"}],"materials":[{"alphaMode":"OPAQUE","doubleSided":false,"extras":{"fromFBX":{"isTruePBR":false,"shadingModel":"Phong"}},"name":"Table_Lamp","pbrMetallicRoughness":{"baseColorFactor":[1,1,1,1],"baseColorTexture":{"index":0,"texCoord":0},"metallicFactor":0.400000005960464,"roughnessFactor":0.272165536880493}}],"meshes":[{"name":"Table_Lamp_LOD0","primitives":[{"attributes":{"NORMAL":2,"POSITION":1,"TEXCOORD_0":3},"indices":0,"material":0,"mode":4}]},{"name":"Table_Lamp_LOD1","primitives":[{"attributes":{"NORMAL":6,"POSITION":5,"TEXCOORD_0":7},"indices":4,"material":0,"mode":4}]},{"name":"Table_Lamp_LOD2","primitives":[{"attributes":{"NORMAL":10,"POSITION":9,"TEXCOORD_0":11},"indices":8,"material":0,"mode":4}]}],"nodes":[{"mesh":0,"name":"Table_Lamp_LOD0","rotation":[0,0,0,1],"scale":[1,1,1],"translation":[0,0,0]},{"mesh":1,"name":"Table_Lamp_LOD1","rotation":[0,0,0,1],"scale":[1,1,1],"translation":[0,0,0]},{"mesh":2,"name":"Table_Lamp_LOD2","rotation":[0,0,0,1],"scale":[1,1,1],"translation":[0,0,0]}],"samplers":[{}],"scene":0,"scenes":[{"name":"Root Scene","nodes":[0,1,2]}],"textures":[{"name":"base_color_texture","sampler":0,"source":0}]}