{"accessors":[{"bufferView":0,"byteOffset":0,"componentType":5123,"count":5970,"type":"SCALAR"},{"bufferView":1,"byteOffset":0,"componentType":5126,"count":1588,"max":[0.135314285755157,0.147678762674332,0.118975602090359],"min":[-0.13242757320404,-0.00152430962771,-0.21302877366543],"type":"VEC3"},{"bufferView":2,"byteOffset":0,"componentType":5126,"count":1588,"type":"VEC3"},{"bufferView":3,"byteOffset":0,"componentType":5126,"count":1588,"type":"VEC2"},{"bufferView":4,"byteOffset":0,"componentType":5123,"count":2565,"type":"SCALAR"},{"bufferView":5,"byteOffset":0,"componentType":5126,"count":981,"max":[0.134941682219505,0.147678807377815,0.119327560067177],"min":[-0.13179449737072,-0.00122851633932,-0.21302904188633],"type":"VEC3"},{"bufferView":6,"byteOffset":0,"componentType":5126,"count":981,"type":"VEC3"},{"bufferView":7,"byteOffset":0,"componentType":5126,"count":981,"type":"VEC2"},{"bufferView":8,"byteOffset":0,"componentType":5123,"count":702,"type":"SCALAR"},{"bufferView":9,"byteOffset":0,"componentType":5126,"count":333,"max":[0.133815065026283,0.148014545440674,0.119262263178825],"min":[-0.12973687052727,-0.00237103062682,-0.12619377672672],"type":"VEC3"},{"bufferView":10,"byteOffset":0,"componentType":5126,"count":333,"type":"VEC3"},{"bufferView":11,"byteOffset":0,"componentType":5126,"count":333,"type":"VEC2"}],"asset":{"generator":"FBX2glTF v0.13.1","version":"2.0"},"bufferViews":[{"buffer":0,"byteLength":11940,"byteOffset":0,"target":34963},{"buffer":0,"byteLength":19056,"byteOffset":11940,"target":34962},{"buffer":0,"byteLength":19056,"byteOffset":30996,"target":34962},{"buffer":0,"byteLength":12704,"byteOffset":50052,"target":34962},{"buffer":0,"byteLength":5130,"byteOffset":62756,"target":34963},{"buffer":0,"byteLength":11772,"byteOffset":67888,"target":34962},{"buffer":0,"byteLength":11772,"byteOffset":79660,"target":34962},{"buffer":0,"byteLength":7848,"byteOffset":91432,"target":34962},{"buffer":0,"byteLength":1404,"byteOffset":99280,"target":34963},{"buffer":0,"byteLength":3996,"byteOffset":100684,"target":34962},{"buffer":0,"byteLength":3996,"byteOffset":104680,"target":34962},{"buffer":0,"byteLength":2664,"byteOffset":108676,"target":34962}],"buffers":[{"byteLength":111340,"uri":"Telephone_02.bin"}],"images":[{"name":"Ballpoint_Pen_A","uri":"Ballpoint_Pen_A.tga"}],"materials":[{"alphaMode":"OPAQUE","doubleSided":false,"extras":{"fromFBX":{"isTruePBR":false,"shadingModel":"Phong"}},"name":"Ballpoint_Pen","pbrMetallicRoughness":{"baseColorFactor":[1,1,1,1],"baseColorTexture":{"index":0,"texCoord":0},"metallicFactor":0.400000005960464,"roughnessFactor":0.272165536880493}}],"meshes":[{"name":"Telephone_02_LOD0","primitives":[{"attributes":{"NORMAL":2,"POSITION":1,"TEXCOORD_0":3},"indices":0,"material":0,"mode":4}]},{"name":"Telephone_02_LOD1","primitives":[{"attributes":{"NORMAL":6,"POSITION":5,"TEXCOORD_0":7},"indices":4,"material":0,"mode":4}]},{"name":"Telephone_02_LOD2","primitives":[{"attributes":{"NORMAL":10,"POSITION":9,"TEXCOORD_0":11},"indices":8,"material":0,"mode":4}]}],"nodes":[{"mesh":0,"name":"Telephone_02_LOD0","rotation":[0,0,0,1],"scale":[1,1,1],"translation":[0,0,0]},{"mesh":1,"name":"Telephone_02_LOD1","rotation":[0,0,0,1],"scale":[1,1,1],"translation":[0,0,0]},{"mesh":2,"name":"Telephone_02_LOD2","rotation":[0,0,0,1],"scale":[1,1,1],"translation":[0,0,0]}],"samplers":[{}],"scene":0,"scenes":[{"name":"Root Scene","nodes":[0,1,2]}],"textures":[{"name":"base_color_texture","sampler":0,"source":0}]}