{"accessors":[{"bufferView":0,"byteOffset":0,"componentType":5123,"count":1632,"type":"SCALAR"},{"bufferView":1,"byteOffset":0,"componentType":5126,"count":691,"max":[0.0000000000107434061646927,2.21490168571472,0.868875086307526],"min":[-0.5949786901474,-0.00000000372529,-0.86887508630753],"type":"VEC3"},{"bufferView":2,"byteOffset":0,"componentType":5126,"count":691,"type":"VEC3"},{"bufferView":3,"byteOffset":0,"componentType":5126,"count":691,"type":"VEC2"},{"bufferView":4,"byteOffset":0,"componentType":5123,"count":801,"type":"SCALAR"},{"bufferView":5,"byteOffset":0,"componentType":5126,"count":441,"max":[0.0000000000107434061646927,2.21490168571472,0.868875086307526],"min":[-0.5949786901474,-0.00000000372529,-0.86887508630753],"type":"VEC3"},{"bufferView":6,"byteOffset":0,"componentType":5126,"count":441,"type":"VEC3"},{"bufferView":7,"byteOffset":0,"componentType":5126,"count":441,"type":"VEC2"}],"asset":{"generator":"FBX2glTF v0.13.1","version":"2.0"},"bufferViews":[{"buffer":0,"byteLength":3264,"byteOffset":0,"target":34963},{"buffer":0,"byteLength":8292,"byteOffset":3264,"target":34962},{"buffer":0,"byteLength":8292,"byteOffset":11556,"target":34962},{"buffer":0,"byteLength":5528,"byteOffset":19848,"target":34962},{"buffer":0,"byteLength":1602,"byteOffset":25376,"target":34963},{"buffer":0,"byteLength":5292,"byteOffset":26980,"target":34962},{"buffer":0,"byteLength":5292,"byteOffset":32272,"target":34962},{"buffer":0,"byteLength":3528,"byteOffset":37564,"target":34962}],"buffers":[{"byteLength":41092,"uri":"Wardrobe_03.bin"}],"images":[{"name":"Wardrobe_03_A","uri":"Wardrobe_03_A.tga"}],"materials":[{"alphaMode":"OPAQUE","doubleSided":false,"extras":{"fromFBX":{"isTruePBR":false,"shadingModel":"Phong"}},"name":"Wardrobe_03","pbrMetallicRoughness":{"baseColorFactor":[1,1,1,1],"baseColorTexture":{"index":0,"texCoord":0},"metallicFactor":0.400000005960464,"roughnessFactor":0.272165536880493}}],"meshes":[{"name":"Wardrobe_03_LOD0","primitives":[{"attributes":{"NORMAL":2,"POSITION":1,"TEXCOORD_0":3},"indices":0,"material":0,"mode":4}]},{"name":"Wardrobe_03_LOD1","primitives":[{"attributes":{"NORMAL":6,"POSITION":5,"TEXCOORD_0":7},"indices":4,"material":0,"mode":4}]}],"nodes":[{"mesh":0,"name":"Wardrobe_03_LOD0","rotation":[0,0,0,1],"scale":[1,1,1],"translation":[0,0,0]},{"mesh":1,"name":"Wardrobe_03_LOD1","rotation":[0,0,0,1],"scale":[1,1,1],"translation":[0,0,0]}],"samplers":[{}],"scene":0,"scenes":[{"name":"Root Scene","nodes":[0,1]}],"textures":[{"name":"base_color_texture","sampler":0,"source":0}]}