{"accessors":[{"bufferView":0,"byteOffset":0,"componentType":5123,"count":6,"type":"SCALAR"},{"bufferView":1,"byteOffset":0,"componentType":5126,"count":4,"max":[0.0000000107065556420594,0.141812577843666,0.141812652349472],"min":[-0.00000001070655,-0.14181262254715,-0.14181254804134],"type":"VEC3"},{"bufferView":2,"byteOffset":0,"componentType":5126,"count":4,"type":"VEC3"},{"bufferView":3,"byteOffset":0,"componentType":5126,"count":4,"type":"VEC2"}],"asset":{"generator":"FBX2glTF v0.13.1","version":"2.0"},"bufferViews":[{"buffer":0,"byteLength":12,"byteOffset":0,"target":34963},{"buffer":0,"byteLength":48,"byteOffset":12,"target":34962},{"buffer":0,"byteLength":48,"byteOffset":60,"target":34962},{"buffer":0,"byteLength":32,"byteOffset":108,"target":34962}],"buffers":[{"byteLength":140,"uri":"Blood_Decals_03.bin"}],"images":[{"name":"Blood_Decals_A","uri":"Blood_Decals_A.tga"}],"materials":[{"alphaMode":"OPAQUE","doubleSided":false,"extras":{"fromFBX":{"isTruePBR":false,"shadingModel":"Phong"}},"name":"Blood_Decals_01","pbrMetallicRoughness":{"baseColorFactor":[1,1,1,1],"baseColorTexture":{"index":0,"texCoord":0},"metallicFactor":0.400000005960464,"roughnessFactor":0.272165536880493}}],"meshes":[{"name":"Blood_Decals_03","primitives":[{"attributes":{"NORMAL":2,"POSITION":1,"TEXCOORD_0":3},"indices":0,"material":0,"mode":4}]}],"nodes":[{"mesh":0,"name":"Blood_Decals_03","rotation":[0,0,0,1],"scale":[1,1,1],"translation":[0,0,0]}],"samplers":[{}],"scene":0,"scenes":[{"name":"Root Scene","nodes":[0]}],"textures":[{"name":"base_color_texture","sampler":0,"source":0}]}