{"accessors":[{"bufferView":0,"byteOffset":0,"componentType":5123,"count":24,"type":"SCALAR"},{"bufferView":1,"byteOffset":0,"componentType":5126,"count":10,"max":[1.02319240570068,0.63110762834549,0.0154211390763521],"min":[-0.01474681217223,-0.63110762834549,-0.91218012571335],"type":"VEC3"},{"bufferView":2,"byteOffset":0,"componentType":5126,"count":10,"type":"VEC3"},{"bufferView":3,"byteOffset":0,"componentType":5126,"count":10,"type":"VEC2"}],"asset":{"generator":"FBX2glTF v0.13.1","version":"2.0"},"bufferViews":[{"buffer":0,"byteLength":48,"byteOffset":0,"target":34963},{"buffer":0,"byteLength":120,"byteOffset":48,"target":34962},{"buffer":0,"byteLength":120,"byteOffset":168,"target":34962},{"buffer":0,"byteLength":80,"byteOffset":288,"target":34962}],"buffers":[{"byteLength":368,"uri":"Decals_27.bin"}],"images":[{"name":"Decals_04_A","uri":"Decals_04_A.tga"}],"materials":[{"alphaMode":"OPAQUE","doubleSided":false,"extras":{"fromFBX":{"isTruePBR":false,"shadingModel":"Phong"}},"name":"Decals_04","pbrMetallicRoughness":{"baseColorFactor":[1,1,1,1],"baseColorTexture":{"index":0,"texCoord":0},"metallicFactor":0.400000005960464,"roughnessFactor":0.272165536880493}}],"meshes":[{"name":"Decals_27","primitives":[{"attributes":{"NORMAL":2,"POSITION":1,"TEXCOORD_0":3},"indices":0,"material":0,"mode":4}]}],"nodes":[{"mesh":0,"name":"Decals_27","rotation":[0,0,0,1],"scale":[1,1,1],"translation":[0,0,0]}],"samplers":[{}],"scene":0,"scenes":[{"name":"Root Scene","nodes":[0]}],"textures":[{"name":"base_color_texture","sampler":0,"source":0}]}