{"accessors":[{"bufferView":0,"byteOffset":0,"componentType":5123,"count":102,"type":"SCALAR"},{"bufferView":1,"byteOffset":0,"componentType":5126,"count":40,"max":[0.288850575685501,0.710636496543884,0],"min":[-0.28885063529015,0.29569536447525,-3],"type":"VEC3"},{"bufferView":2,"byteOffset":0,"componentType":5126,"count":40,"type":"VEC3"},{"bufferView":3,"byteOffset":0,"componentType":5126,"count":40,"type":"VEC2"}],"asset":{"generator":"FBX2glTF v0.13.1","version":"2.0"},"bufferViews":[{"buffer":0,"byteLength":204,"byteOffset":0,"target":34963},{"buffer":0,"byteLength":480,"byteOffset":204,"target":34962},{"buffer":0,"byteLength":480,"byteOffset":684,"target":34962},{"buffer":0,"byteLength":320,"byteOffset":1164,"target":34962}],"buffers":[{"byteLength":1484,"uri":"Beam_01.bin"}],"images":[{"name":"Wall_01_A","uri":"Wall_01_A.tga"}],"materials":[{"alphaMode":"OPAQUE","doubleSided":false,"extras":{"fromFBX":{"isTruePBR":false,"shadingModel":"Phong"}},"name":"Wall_01","pbrMetallicRoughness":{"baseColorFactor":[1,1,1,1],"baseColorTexture":{"index":0,"texCoord":0},"metallicFactor":0.400000005960464,"roughnessFactor":0.272165536880493}}],"meshes":[{"name":"Beam_01","primitives":[{"attributes":{"NORMAL":2,"POSITION":1,"TEXCOORD_0":3},"indices":0,"material":0,"mode":4}]}],"nodes":[{"mesh":0,"name":"Beam_01","rotation":[0,0,0,1],"scale":[1,1,1],"translation":[0,0,0]}],"samplers":[{}],"scene":0,"scenes":[{"name":"Root Scene","nodes":[0]}],"textures":[{"name":"base_color_texture","sampler":0,"source":0}]}