{"accessors":[{"bufferView":0,"byteOffset":0,"componentType":5123,"count":486,"type":"SCALAR"},{"bufferView":1,"byteOffset":0,"componentType":5126,"count":170,"max":[0.00918674468994141,3.79990768432617,0.353169441223145],"min":[-0.51051253080368,-0.0053117275238,-0.3562570810318],"type":"VEC3"},{"bufferView":2,"byteOffset":0,"componentType":5126,"count":170,"type":"VEC3"},{"bufferView":3,"byteOffset":0,"componentType":5126,"count":170,"type":"VEC2"}],"asset":{"generator":"FBX2glTF v0.13.1","version":"2.0"},"bufferViews":[{"buffer":0,"byteLength":972,"byteOffset":0,"target":34963},{"buffer":0,"byteLength":2040,"byteOffset":972,"target":34962},{"buffer":0,"byteLength":2040,"byteOffset":3012,"target":34962},{"buffer":0,"byteLength":1360,"byteOffset":5052,"target":34962}],"buffers":[{"byteLength":6412,"uri":"Column.bin"}],"images":[{"name":"Wall_01_A","uri":"Wall_01_A.tga"}],"materials":[{"alphaMode":"OPAQUE","doubleSided":false,"extras":{"fromFBX":{"isTruePBR":false,"shadingModel":"Phong"}},"name":"Wall_01","pbrMetallicRoughness":{"baseColorFactor":[1,1,1,1],"baseColorTexture":{"index":0,"texCoord":0},"metallicFactor":0.400000005960464,"roughnessFactor":0.272165536880493}}],"meshes":[{"name":"Column","primitives":[{"attributes":{"NORMAL":2,"POSITION":1,"TEXCOORD_0":3},"indices":0,"material":0,"mode":4}]}],"nodes":[{"mesh":0,"name":"Column","rotation":[0,0,0,1],"scale":[1,1,1],"translation":[0,0,0]}],"samplers":[{}],"scene":0,"scenes":[{"name":"Root Scene","nodes":[0]}],"textures":[{"name":"base_color_texture","sampler":0,"source":0}]}