{"accessors":[{"bufferView":0,"byteOffset":0,"componentType":5123,"count":258,"type":"SCALAR"},{"bufferView":1,"byteOffset":0,"componentType":5126,"count":102,"max":[0.00597862154245377,1.14959216117859,0.0000000189723969867828],"min":[-0.05822717025876,0,-4],"type":"VEC3"},{"bufferView":2,"byteOffset":0,"componentType":5126,"count":102,"type":"VEC3"},{"bufferView":3,"byteOffset":0,"componentType":5126,"count":102,"type":"VEC2"}],"asset":{"generator":"FBX2glTF v0.13.1","version":"2.0"},"bufferViews":[{"buffer":0,"byteLength":516,"byteOffset":0,"target":34963},{"buffer":0,"byteLength":1224,"byteOffset":516,"target":34962},{"buffer":0,"byteLength":1224,"byteOffset":1740,"target":34962},{"buffer":0,"byteLength":816,"byteOffset":2964,"target":34962}],"buffers":[{"byteLength":3780,"uri":"Directors_Door_Wall_05.bin"}],"images":[{"name":"Directors_Door_A","uri":"Directors_Door_A.tga"}],"materials":[{"alphaMode":"OPAQUE","doubleSided":false,"extras":{"fromFBX":{"isTruePBR":false,"shadingModel":"Phong"}},"name":"Directors_Door","pbrMetallicRoughness":{"baseColorFactor":[1,1,1,1],"baseColorTexture":{"index":0,"texCoord":0},"metallicFactor":0.400000005960464,"roughnessFactor":0.272165536880493}}],"meshes":[{"name":"Directors_Door_Wall_05","primitives":[{"attributes":{"NORMAL":2,"POSITION":1,"TEXCOORD_0":3},"indices":0,"material":0,"mode":4}]}],"nodes":[{"mesh":0,"name":"Directors_Door_Wall_05","rotation":[0,0,0,1],"scale":[1,1,1],"translation":[0,0,0]}],"samplers":[{}],"scene":0,"scenes":[{"name":"Root Scene","nodes":[0]}],"textures":[{"name":"base_color_texture","sampler":0,"source":0}]}