{"accessors":[{"bufferView":0,"byteOffset":0,"componentType":5123,"count":180,"type":"SCALAR"},{"bufferView":1,"byteOffset":0,"componentType":5126,"count":88,"max":[0.0539282113313675,4,4],"min":[-0.20000198483467,-0.00123870372772,0],"type":"VEC3"},{"bufferView":2,"byteOffset":0,"componentType":5126,"count":88,"type":"VEC3"},{"bufferView":3,"byteOffset":0,"componentType":5126,"count":88,"type":"VEC2"},{"bufferView":4,"byteOffset":0,"componentType":5123,"count":144,"type":"SCALAR"},{"bufferView":5,"byteOffset":0,"componentType":5126,"count":80,"max":[0.0539282113313675,4,4],"min":[-0.20000198483467,-0.00123870372772,0],"type":"VEC3"},{"bufferView":6,"byteOffset":0,"componentType":5126,"count":80,"type":"VEC3"},{"bufferView":7,"byteOffset":0,"componentType":5126,"count":80,"type":"VEC2"},{"bufferView":8,"byteOffset":0,"componentType":5123,"count":144,"type":"SCALAR"},{"bufferView":9,"byteOffset":0,"componentType":5126,"count":80,"max":[0.0539282113313675,4,4],"min":[-0.20000198483467,-0.00123870372772,0],"type":"VEC3"},{"bufferView":10,"byteOffset":0,"componentType":5126,"count":80,"type":"VEC3"},{"bufferView":11,"byteOffset":0,"componentType":5126,"count":80,"type":"VEC2"},{"bufferView":12,"byteOffset":0,"componentType":5123,"count":252,"type":"SCALAR"},{"bufferView":13,"byteOffset":0,"componentType":5126,"count":133,"max":[-0.04000172019005,4,4.00000047683716],"min":[-0.25392949581146,-0.00123870372772,0.000000238418579101562],"type":"VEC3"},{"bufferView":14,"byteOffset":0,"componentType":5126,"count":133,"type":"VEC3"},{"bufferView":15,"byteOffset":0,"componentType":5126,"count":133,"type":"VEC2"},{"bufferView":16,"byteOffset":0,"componentType":5123,"count":198,"type":"SCALAR"},{"bufferView":17,"byteOffset":0,"componentType":5126,"count":118,"max":[-0.04000172019005,4,4.00000047683716],"min":[-0.25392949581146,-0.00123870372772,0.000000238418579101562],"type":"VEC3"},{"bufferView":18,"byteOffset":0,"componentType":5126,"count":118,"type":"VEC3"},{"bufferView":19,"byteOffset":0,"componentType":5126,"count":118,"type":"VEC2"},{"bufferView":20,"byteOffset":0,"componentType":5123,"count":198,"type":"SCALAR"},{"bufferView":21,"byteOffset":0,"componentType":5126,"count":118,"max":[-0.04000172019005,4,4.00000047683716],"min":[-0.25392949581146,-0.00123870372772,0.000000238418579101562],"type":"VEC3"},{"bufferView":22,"byteOffset":0,"componentType":5126,"count":118,"type":"VEC3"},{"bufferView":23,"byteOffset":0,"componentType":5126,"count":118,"type":"VEC2"},{"bufferView":24,"byteOffset":0,"componentType":5123,"count":6408,"type":"SCALAR"},{"bufferView":25,"byteOffset":0,"componentType":5126,"count":2338,"max":[0.108631618320942,2.81221151351929,3.04920959472656],"min":[-0.16918379068375,-0.01367139816284,0.950790405273438],"type":"VEC3"},{"bufferView":26,"byteOffset":0,"componentType":5126,"count":2338,"type":"VEC3"},{"bufferView":27,"byteOffset":0,"componentType":5126,"count":2338,"type":"VEC2"},{"bufferView":28,"byteOffset":0,"componentType":5123,"count":3333,"type":"SCALAR"},{"bufferView":29,"byteOffset":0,"componentType":5126,"count":1632,"max":[0.109299451112747,2.81221151351929,3.04920959472656],"min":[-0.16918379068375,-0.01367139816284,0.950790405273438],"type":"VEC3"},{"bufferView":30,"byteOffset":0,"componentType":5126,"count":1632,"type":"VEC3"},{"bufferView":31,"byteOffset":0,"componentType":5126,"count":1632,"type":"VEC2"},{"bufferView":32,"byteOffset":0,"componentType":5123,"count":633,"type":"SCALAR"},{"bufferView":33,"byteOffset":0,"componentType":5126,"count":401,"max":[0.0572917647659779,2.81221151351929,3.04920959472656],"min":[-0.07088663429022,-0.01367139816284,0.950790405273438],"type":"VEC3"},{"bufferView":34,"byteOffset":0,"componentType":5126,"count":401,"type":"VEC3"},{"bufferView":35,"byteOffset":0,"componentType":5126,"count":401,"type":"VEC2"},{"bufferView":36,"byteOffset":0,"componentType":5123,"count":4542,"type":"SCALAR"},{"bufferView":37,"byteOffset":0,"componentType":5126,"count":1230,"max":[0.0599532015621662,2.15146636962891,0.0106737622991204],"min":[-0.08890473842621,0,-0.93860936164856],"type":"VEC3"},{"bufferView":38,"byteOffset":0,"componentType":5126,"count":1230,"type":"VEC3"},{"bufferView":39,"byteOffset":0,"componentType":5126,"count":1230,"type":"VEC2"},{"bufferView":40,"byteOffset":0,"componentType":5123,"count":2301,"type":"SCALAR"},{"bufferView":41,"byteOffset":0,"componentType":5126,"count":717,"max":[0.0599532015621662,2.15146636962891,0.0106737622991204],"min":[-0.08890473842621,0,-0.93860936164856],"type":"VEC3"},{"bufferView":42,"byteOffset":0,"componentType":5126,"count":717,"type":"VEC3"},{"bufferView":43,"byteOffset":0,"componentType":5126,"count":717,"type":"VEC2"},{"bufferView":44,"byteOffset":0,"componentType":5123,"count":450,"type":"SCALAR"},{"bufferView":45,"byteOffset":0,"componentType":5126,"count":194,"max":[0.00848735589534044,2.15146636962891,0],"min":[-0.05063914135098,0,-0.93860936164856],"type":"VEC3"},{"bufferView":46,"byteOffset":0,"componentType":5126,"count":194,"type":"VEC3"},{"bufferView":47,"byteOffset":0,"componentType":5126,"count":194,"type":"VEC2"},{"bufferView":48,"byteOffset":0,"componentType":5123,"count":132,"type":"SCALAR"},{"bufferView":49,"byteOffset":0,"componentType":5126,"count":88,"max":[0.0388737209141254,2.70436453819275,2.94258713722229],"min":[-0.00552984839305,0.546821177005768,1.05741250514984],"type":"VEC3"},{"bufferView":50,"byteOffset":0,"componentType":5126,"count":88,"type":"VEC3"},{"bufferView":51,"byteOffset":0,"componentType":5126,"count":88,"type":"VEC2"},{"bufferView":52,"byteOffset":0,"componentType":5123,"count":132,"type":"SCALAR"},{"bufferView":53,"byteOffset":0,"componentType":5126,"count":88,"max":[0.0388737209141254,2.70436453819275,2.94258713722229],"min":[-0.00552984839305,0.546821177005768,1.05741250514984],"type":"VEC3"},{"bufferView":54,"byteOffset":0,"componentType":5126,"count":88,"type":"VEC3"},{"bufferView":55,"byteOffset":0,"componentType":5126,"count":88,"type":"VEC2"},{"bufferView":56,"byteOffset":0,"componentType":5123,"count":132,"type":"SCALAR"},{"bufferView":57,"byteOffset":0,"componentType":5126,"count":88,"max":[0.0388737209141254,2.70436453819275,2.94258713722229],"min":[-0.00552984839305,0.546821177005768,1.05741250514984],"type":"VEC3"},{"bufferView":58,"byteOffset":0,"componentType":5126,"count":88,"type":"VEC3"},{"bufferView":59,"byteOffset":0,"componentType":5126,"count":88,"type":"VEC2"},{"bufferView":60,"byteOffset":0,"componentType":5123,"count":180,"type":"SCALAR"},{"bufferView":61,"byteOffset":0,"componentType":5126,"count":120,"max":[-0.01227073185146,2.06994223594666,-0.1145843565464],"min":[-0.02160677313805,0.527464330196381,-0.81724226474762],"type":"VEC3"},{"bufferView":62,"byteOffset":0,"componentType":5126,"count":120,"type":"VEC3"},{"bufferView":63,"byteOffset":0,"componentType":5126,"count":120,"type":"VEC2"},{"bufferView":64,"byteOffset":0,"componentType":5123,"count":180,"type":"SCALAR"},{"bufferView":65,"byteOffset":0,"componentType":5126,"count":120,"max":[-0.01227073185146,2.06994223594666,-0.1145843565464],"min":[-0.02160677313805,0.527464330196381,-0.81724226474762],"type":"VEC3"},{"bufferView":66,"byteOffset":0,"componentType":5126,"count":120,"type":"VEC3"},{"bufferView":67,"byteOffset":0,"componentType":5126,"count":120,"type":"VEC2"},{"bufferView":68,"byteOffset":0,"componentType":5123,"count":180,"type":"SCALAR"},{"bufferView":69,"byteOffset":0,"componentType":5126,"count":120,"max":[-0.01227073185146,2.06994223594666,-0.1145843565464],"min":[-0.02160677313805,0.527464330196381,-0.81724226474762],"type":"VEC3"},{"bufferView":70,"byteOffset":0,"componentType":5126,"count":120,"type":"VEC3"},{"bufferView":71,"byteOffset":0,"componentType":5126,"count":120,"type":"VEC2"}],"asset":{"generator":"FBX2glTF v0.13.1","version":"2.0"},"bufferViews":[{"buffer":0,"byteLength":360,"byteOffset":0,"target":34963},{"buffer":0,"byteLength":1056,"byteOffset":360,"target":34962},{"buffer":0,"byteLength":1056,"byteOffset":1416,"target":34962},{"buffer":0,"byteLength":704,"byteOffset":2472,"target":34962},{"buffer":0,"byteLength":288,"byteOffset":3176,"target":34963},{"buffer":0,"byteLength":960,"byteOffset":3464,"target":34962},{"buffer":0,"byteLength":960,"byteOffset":4424,"target":34962},{"buffer":0,"byteLength":640,"byteOffset":5384,"target":34962},{"buffer":0,"byteLength":288,"byteOffset":6024,"target":34963},{"buffer":0,"byteLength":960,"byteOffset":6312,"target":34962},{"buffer":0,"byteLength":960,"byteOffset":7272,"target":34962},{"buffer":0,"byteLength":640,"byteOffset":8232,"target":34962},{"buffer":0,"byteLength":504,"byteOffset":8872,"target":34963},{"buffer":0,"byteLength":1596,"byteOffset":9376,"target":34962},{"buffer":0,"byteLength":1596,"byteOffset":10972,"target":34962},{"buffer":0,"byteLength":1064,"byteOffset":12568,"target":34962},{"buffer":0,"byteLength":396,"byteOffset":13632,"target":34963},{"buffer":0,"byteLength":1416,"byteOffset":14028,"target":34962},{"buffer":0,"byteLength":1416,"byteOffset":15444,"target":34962},{"buffer":0,"byteLength":944,"byteOffset":16860,"target":34962},{"buffer":0,"byteLength":396,"byteOffset":17804,"target":34963},{"buffer":0,"byteLength":1416,"byteOffset":18200,"target":34962},{"buffer":0,"byteLength":1416,"byteOffset":19616,"target":34962},{"buffer":0,"byteLength":944,"byteOffset":21032,"target":34962},{"buffer":0,"byteLength":12816,"byteOffset":21976,"target":34963},{"buffer":0,"byteLength":28056,"byteOffset":34792,"target":34962},{"buffer":0,"byteLength":28056,"byteOffset":62848,"target":34962},{"buffer":0,"byteLength":18704,"byteOffset":90904,"target":34962},{"buffer":0,"byteLength":6666,"byteOffset":109608,"target":34963},{"buffer":0,"byteLength":19584,"byteOffset":116276,"target":34962},{"buffer":0,"byteLength":19584,"byteOffset":135860,"target":34962},{"buffer":0,"byteLength":13056,"byteOffset":155444,"target":34962},{"buffer":0,"byteLength":1266,"byteOffset":168500,"target":34963},{"buffer":0,"byteLength":4812,"byteOffset":169768,"target":34962},{"buffer":0,"byteLength":4812,"byteOffset":174580,"target":34962},{"buffer":0,"byteLength":3208,"byteOffset":179392,"target":34962},{"buffer":0,"byteLength":9084,"byteOffset":182600,"target":34963},{"buffer":0,"byteLength":14760,"byteOffset":191684,"target":34962},{"buffer":0,"byteLength":14760,"byteOffset":206444,"target":34962},{"buffer":0,"byteLength":9840,"byteOffset":221204,"target":34962},{"buffer":0,"byteLength":4602,"byteOffset":231044,"target":34963},{"buffer":0,"byteLength":8604,"byteOffset":235648,"target":34962},{"buffer":0,"byteLength":8604,"byteOffset":244252,"target":34962},{"buffer":0,"byteLength":5736,"byteOffset":252856,"target":34962},{"buffer":0,"byteLength":900,"byteOffset":258592,"target":34963},{"buffer":0,"byteLength":2328,"byteOffset":259492,"target":34962},{"buffer":0,"byteLength":2328,"byteOffset":261820,"target":34962},{"buffer":0,"byteLength":1552,"byteOffset":264148,"target":34962},{"buffer":0,"byteLength":264,"byteOffset":265700,"target":34963},{"buffer":0,"byteLength":1056,"byteOffset":265964,"target":34962},{"buffer":0,"byteLength":1056,"byteOffset":267020,"target":34962},{"buffer":0,"byteLength":704,"byteOffset":268076,"target":34962},{"buffer":0,"byteLength":264,"byteOffset":268780,"target":34963},{"buffer":0,"byteLength":1056,"byteOffset":269044,"target":34962},{"buffer":0,"byteLength":1056,"byteOffset":270100,"target":34962},{"buffer":0,"byteLength":704,"byteOffset":271156,"target":34962},{"buffer":0,"byteLength":264,"byteOffset":271860,"target":34963},{"buffer":0,"byteLength":1056,"byteOffset":272124,"target":34962},{"buffer":0,"byteLength":1056,"byteOffset":273180,"target":34962},{"buffer":0,"byteLength":704,"byteOffset":274236,"target":34962},{"buffer":0,"byteLength":360,"byteOffset":274940,"target":34963},{"buffer":0,"byteLength":1440,"byteOffset":275300,"target":34962},{"buffer":0,"byteLength":1440,"byteOffset":276740,"target":34962},{"buffer":0,"byteLength":960,"byteOffset":278180,"target":34962},{"buffer":0,"byteLength":360,"byteOffset":279140,"target":34963},{"buffer":0,"byteLength":1440,"byteOffset":279500,"target":34962},{"buffer":0,"byteLength":1440,"byteOffset":280940,"target":34962},{"buffer":0,"byteLength":960,"byteOffset":282380,"target":34962},{"buffer":0,"byteLength":360,"byteOffset":283340,"target":34963},{"buffer":0,"byteLength":1440,"byteOffset":283700,"target":34962},{"buffer":0,"byteLength":1440,"byteOffset":285140,"target":34962},{"buffer":0,"byteLength":960,"byteOffset":286580,"target":34962}],"buffers":[{"byteLength":287540,"uri":"Door_Corridor.bin"}],"images":[{"name":"Wall_01_A","uri":"Wall_01_A.tga"},{"name":"Door_Corridor_A","uri":"Door_Corridor_A.tga"},{"name":"Glass_A","uri":"Glass_A.tga"}],"materials":[{"alphaMode":"OPAQUE","doubleSided":false,"extras":{"fromFBX":{"isTruePBR":false,"shadingModel":"Phong"}},"name":"Wall_02","pbrMetallicRoughness":{"baseColorFactor":[1,1,1,1],"baseColorTexture":{"index":0,"texCoord":0},"metallicFactor":0.400000005960464,"roughnessFactor":0.272165536880493}},{"alphaMode":"OPAQUE","doubleSided":false,"extras":{"fromFBX":{"isTruePBR":false,"shadingModel":"Phong"}},"name":"Wall_01","pbrMetallicRoughness":{"baseColorFactor":[1,1,1,1],"baseColorTexture":{"index":0,"texCoord":0},"metallicFactor":0.400000005960464,"roughnessFactor":0.272165536880493}},{"alphaMode":"OPAQUE","doubleSided":false,"extras":{"fromFBX":{"isTruePBR":false,"shadingModel":"Phong"}},"name":"Door_Corridor","pbrMetallicRoughness":{"baseColorFactor":[1,1,1,1],"baseColorTexture":{"index":1,"texCoord":0},"metallicFactor":0.400000005960464,"roughnessFactor":0.272165536880493}},{"alphaMode":"OPAQUE","doubleSided":false,"extras":{"fromFBX":{"isTruePBR":false,"shadingModel":"Phong"}},"name":"Glass(Fade)","pbrMetallicRoughness":{"baseColorFactor":[1,1,1,1],"baseColorTexture":{"index":2,"texCoord":0},"metallicFactor":0.400000005960464,"roughnessFactor":0.272165536880493}}],"meshes":[{"name":"Door_Corridor_Wall_LOD0","primitives":[{"attributes":{"NORMAL":2,"POSITION":1,"TEXCOORD_0":3},"indices":0,"material":0,"mode":4},{"attributes":{"NORMAL":14,"POSITION":13,"TEXCOORD_0":15},"indices":12,"material":1,"mode":4},{"attributes":{"NORMAL":26,"POSITION":25,"TEXCOORD_0":27},"indices":24,"material":2,"mode":4},{"attributes":{"NORMAL":50,"POSITION":49,"TEXCOORD_0":51},"indices":48,"material":3,"mode":4}]},{"name":"Door_Corridor_Wall_LOD1","primitives":[{"attributes":{"NORMAL":6,"POSITION":5,"TEXCOORD_0":7},"indices":4,"material":0,"mode":4},{"attributes":{"NORMAL":18,"POSITION":17,"TEXCOORD_0":19},"indices":16,"material":1,"mode":4},{"attributes":{"NORMAL":30,"POSITION":29,"TEXCOORD_0":31},"indices":28,"material":2,"mode":4},{"attributes":{"NORMAL":54,"POSITION":53,"TEXCOORD_0":55},"indices":52,"material":3,"mode":4}]},{"name":"Door_Corridor_Wall_LOD2","primitives":[{"attributes":{"NORMAL":10,"POSITION":9,"TEXCOORD_0":11},"indices":8,"material":0,"mode":4},{"attributes":{"NORMAL":22,"POSITION":21,"TEXCOORD_0":23},"indices":20,"material":1,"mode":4},{"attributes":{"NORMAL":34,"POSITION":33,"TEXCOORD_0":35},"indices":32,"material":2,"mode":4},{"attributes":{"NORMAL":58,"POSITION":57,"TEXCOORD_0":59},"indices":56,"material":3,"mode":4}]},{"name":"Door_Corridor_LOD0","primitives":[{"attributes":{"NORMAL":38,"POSITION":37,"TEXCOORD_0":39},"indices":36,"material":2,"mode":4},{"attributes":{"NORMAL":62,"POSITION":61,"TEXCOORD_0":63},"indices":60,"material":3,"mode":4}]},{"name":"Door_Corridor_LOD1","primitives":[{"attributes":{"NORMAL":42,"POSITION":41,"TEXCOORD_0":43},"indices":40,"material":2,"mode":4},{"attributes":{"NORMAL":66,"POSITION":65,"TEXCOORD_0":67},"indices":64,"material":3,"mode":4}]},{"name":"Door_Corridor_LOD2","primitives":[{"attributes":{"NORMAL":46,"POSITION":45,"TEXCOORD_0":47},"indices":44,"material":2,"mode":4},{"attributes":{"NORMAL":70,"POSITION":69,"TEXCOORD_0":71},"indices":68,"material":3,"mode":4}]}],"nodes":[{"mesh":0,"name":"Door_Corridor_Wall_LOD0","rotation":[0,0,0,1],"scale":[1,1,1],"translation":[0,0,0]},{"mesh":1,"name":"Door_Corridor_Wall_LOD1","rotation":[0,0,0,1],"scale":[1,1,1],"translation":[0,0,0]},{"mesh":2,"name":"Door_Corridor_Wall_LOD2","rotation":[0,0,0,1],"scale":[1,1,1],"translation":[0,0,0]},{"children":[4,5],"mesh":3,"name":"Door_Corridor_LOD0","rotation":[0,0,0,1],"scale":[1,1,1],"translation":[0.0486297607421875,0.0116941928863525,2.93860626220703]},{"mesh":4,"name":"Door_Corridor_LOD1","rotation":[0,0,0,1],"scale":[1,1,1],"translation":[0,0.00000000119209286886246,0]},{"mesh":5,"name":"Door_Corridor_LOD2","rotation":[0,0,0,1],"scale":[1,1,1],"translation":[0,0.00000000119209286886246,0]}],"samplers":[{}],"scene":0,"scenes":[{"name":"Root Scene","nodes":[0,1,2,3]}],"textures":[{"name":"base_color_texture","sampler":0,"source":0},{"name":"base_color_texture","sampler":0,"source":1},{"name":"base_color_texture","sampler":0,"source":2}]}