{"accessors":[{"bufferView":0,"byteOffset":0,"componentType":5123,"count":1590,"type":"SCALAR"},{"bufferView":1,"byteOffset":0,"componentType":5126,"count":654,"max":[0.0495829991996288,2.24555373191833,0.015953540802002],"min":[-0.10309166461229,0,-1.26074647903442],"type":"VEC3"},{"bufferView":2,"byteOffset":0,"componentType":5126,"count":654,"type":"VEC3"},{"bufferView":3,"byteOffset":0,"componentType":5126,"count":654,"type":"VEC2"},{"bufferView":4,"byteOffset":0,"componentType":5123,"count":792,"type":"SCALAR"},{"bufferView":5,"byteOffset":0,"componentType":5126,"count":422,"max":[0.0495829991996288,2.24555373191833,0.0170620735734701],"min":[-0.10309167951345,0,-1.26074647903442],"type":"VEC3"},{"bufferView":6,"byteOffset":0,"componentType":5126,"count":422,"type":"VEC3"},{"bufferView":7,"byteOffset":0,"componentType":5126,"count":422,"type":"VEC2"},{"bufferView":8,"byteOffset":0,"componentType":5123,"count":306,"type":"SCALAR"},{"bufferView":9,"byteOffset":0,"componentType":5126,"count":152,"max":[0.0167818516492844,2.24555373191833,0],"min":[-0.07029052078724,0,-1.26074647903442],"type":"VEC3"},{"bufferView":10,"byteOffset":0,"componentType":5126,"count":152,"type":"VEC3"},{"bufferView":11,"byteOffset":0,"componentType":5126,"count":152,"type":"VEC2"},{"bufferView":12,"byteOffset":0,"componentType":5123,"count":186,"type":"SCALAR"},{"bufferView":13,"byteOffset":0,"componentType":5126,"count":124,"max":[0.166587859392166,3.29999923706055,2.66819858551025],"min":[-0.01851370930672,0.992008864879608,1.32954454421997],"type":"VEC3"},{"bufferView":14,"byteOffset":0,"componentType":5126,"count":124,"type":"VEC3"},{"bufferView":15,"byteOffset":0,"componentType":5126,"count":124,"type":"VEC2"},{"bufferView":16,"byteOffset":0,"componentType":5123,"count":84,"type":"SCALAR"},{"bufferView":17,"byteOffset":0,"componentType":5126,"count":62,"max":[0.166587859392166,3.29999923706055,2.66819858551025],"min":[-0.01851371116936,0.99234014749527,1.32954454421997],"type":"VEC3"},{"bufferView":18,"byteOffset":0,"componentType":5126,"count":62,"type":"VEC3"},{"bufferView":19,"byteOffset":0,"componentType":5126,"count":62,"type":"VEC2"},{"bufferView":20,"byteOffset":0,"componentType":5123,"count":12,"type":"SCALAR"},{"bufferView":21,"byteOffset":0,"componentType":5126,"count":8,"max":[-0.01717428863049,1.85015332698822,-0.30351328849793],"min":[-0.0390140414238,1.38880121707916,-0.95478940010071],"type":"VEC3"},{"bufferView":22,"byteOffset":0,"componentType":5126,"count":8,"type":"VEC3"},{"bufferView":23,"byteOffset":0,"componentType":5126,"count":8,"type":"VEC2"},{"bufferView":24,"byteOffset":0,"componentType":5123,"count":12,"type":"SCALAR"},{"bufferView":25,"byteOffset":0,"componentType":5126,"count":8,"max":[-0.01717428863049,1.85015332698822,-0.30351328849793],"min":[-0.0390140414238,1.38880121707916,-0.95478940010071],"type":"VEC3"},{"bufferView":26,"byteOffset":0,"componentType":5126,"count":8,"type":"VEC3"},{"bufferView":27,"byteOffset":0,"componentType":5126,"count":8,"type":"VEC2"},{"bufferView":28,"byteOffset":0,"componentType":5123,"count":12,"type":"SCALAR"},{"bufferView":29,"byteOffset":0,"componentType":5126,"count":8,"max":[-0.01717428863049,1.85015332698822,-0.30351328849793],"min":[-0.0390140414238,1.38880121707916,-0.95478940010071],"type":"VEC3"},{"bufferView":30,"byteOffset":0,"componentType":5126,"count":8,"type":"VEC3"},{"bufferView":31,"byteOffset":0,"componentType":5126,"count":8,"type":"VEC2"},{"bufferView":32,"byteOffset":0,"componentType":5123,"count":354,"type":"SCALAR"},{"bufferView":33,"byteOffset":0,"componentType":5126,"count":234,"max":[0.0192538797855377,3.97737789154053,4],"min":[-0.54695129394531,0,0],"type":"VEC3"},{"bufferView":34,"byteOffset":0,"componentType":5126,"count":234,"type":"VEC3"},{"bufferView":35,"byteOffset":0,"componentType":5126,"count":234,"type":"VEC2"},{"bufferView":36,"byteOffset":0,"componentType":5123,"count":261,"type":"SCALAR"},{"bufferView":37,"byteOffset":0,"componentType":5126,"count":181,"max":[0.0192538797855377,3.97737789154053,4],"min":[-0.54892230033875,0,-0.00000190734863],"type":"VEC3"},{"bufferView":38,"byteOffset":0,"componentType":5126,"count":181,"type":"VEC3"},{"bufferView":39,"byteOffset":0,"componentType":5126,"count":181,"type":"VEC2"},{"bufferView":40,"byteOffset":0,"componentType":5123,"count":327,"type":"SCALAR"},{"bufferView":41,"byteOffset":0,"componentType":5126,"count":141,"max":[0.00294458866119385,1.07893145084381,3.75459098815918],"min":[-2.13496112823486,-0.02412987500429,0.308315277099609],"type":"VEC3"},{"bufferView":42,"byteOffset":0,"componentType":5126,"count":141,"type":"VEC3"},{"bufferView":43,"byteOffset":0,"componentType":5126,"count":141,"type":"VEC2"},{"bufferView":44,"byteOffset":0,"componentType":5123,"count":147,"type":"SCALAR"},{"bufferView":45,"byteOffset":0,"componentType":5126,"count":99,"max":[0.00296617858111858,1.07893145084381,3.75394344329834],"min":[-2.13496112823486,-0.02412987500429,0.310206353664398],"type":"VEC3"},{"bufferView":46,"byteOffset":0,"componentType":5126,"count":99,"type":"VEC3"},{"bufferView":47,"byteOffset":0,"componentType":5126,"count":99,"type":"VEC2"},{"bufferView":48,"byteOffset":0,"componentType":5123,"count":822,"type":"SCALAR"},{"bufferView":49,"byteOffset":0,"componentType":5126,"count":370,"max":[0.00354695320129395,1.15086114406586,3.56181883811951],"min":[-2.16103982925415,-0.09252365678549,0.481722593307495],"type":"VEC3"},{"bufferView":50,"byteOffset":0,"componentType":5126,"count":370,"type":"VEC3"},{"bufferView":51,"byteOffset":0,"componentType":5126,"count":370,"type":"VEC2"},{"bufferView":52,"byteOffset":0,"componentType":5123,"count":327,"type":"SCALAR"},{"bufferView":53,"byteOffset":0,"componentType":5126,"count":174,"max":[0.00355058000423014,1.14981532096863,3.56181693077087],"min":[-2.1582818031311,-0.09252365678549,0.481287837028503],"type":"VEC3"},{"bufferView":54,"byteOffset":0,"componentType":5126,"count":174,"type":"VEC3"},{"bufferView":55,"byteOffset":0,"componentType":5126,"count":174,"type":"VEC2"},{"bufferView":56,"byteOffset":0,"componentType":5123,"count":36,"type":"SCALAR"},{"bufferView":57,"byteOffset":0,"componentType":5126,"count":24,"max":[0.111314803361893,5,4],"min":[-0.00000008940697,0.999999761581421,0],"type":"VEC3"},{"bufferView":58,"byteOffset":0,"componentType":5126,"count":24,"type":"VEC3"},{"bufferView":59,"byteOffset":0,"componentType":5126,"count":24,"type":"VEC2"},{"bufferView":60,"byteOffset":0,"componentType":5123,"count":36,"type":"SCALAR"},{"bufferView":61,"byteOffset":0,"componentType":5126,"count":24,"max":[0.111314803361893,5,4],"min":[-0.00000008940697,0.999999761581421,0],"type":"VEC3"},{"bufferView":62,"byteOffset":0,"componentType":5126,"count":24,"type":"VEC3"},{"bufferView":63,"byteOffset":0,"componentType":5126,"count":24,"type":"VEC2"},{"bufferView":64,"byteOffset":0,"componentType":5123,"count":216,"type":"SCALAR"},{"bufferView":65,"byteOffset":0,"componentType":5126,"count":82,"max":[0.553928256034851,5,4],"min":[0.16658778488636,0.995654881000519,0],"type":"VEC3"},{"bufferView":66,"byteOffset":0,"componentType":5126,"count":82,"type":"VEC3"},{"bufferView":67,"byteOffset":0,"componentType":5126,"count":82,"type":"VEC2"},{"bufferView":68,"byteOffset":0,"componentType":5123,"count":216,"type":"SCALAR"},{"bufferView":69,"byteOffset":0,"componentType":5126,"count":82,"max":[0.553928256034851,5,4],"min":[0.16658778488636,0.995654881000519,0],"type":"VEC3"},{"bufferView":70,"byteOffset":0,"componentType":5126,"count":82,"type":"VEC3"},{"bufferView":71,"byteOffset":0,"componentType":5126,"count":82,"type":"VEC2"},{"bufferView":72,"byteOffset":0,"componentType":5123,"count":456,"type":"SCALAR"},{"bufferView":73,"byteOffset":0,"componentType":5126,"count":268,"max":[0.5,5,4],"min":[-2.12643218040466,-0.00250229239464,0],"type":"VEC3"},{"bufferView":74,"byteOffset":0,"componentType":5126,"count":268,"type":"VEC3"},{"bufferView":75,"byteOffset":0,"componentType":5126,"count":268,"type":"VEC2"}],"asset":{"generator":"FBX2glTF v0.13.1","version":"2.0"},"bufferViews":[{"buffer":0,"byteLength":3180,"byteOffset":0,"target":34963},{"buffer":0,"byteLength":7848,"byteOffset":3180,"target":34962},{"buffer":0,"byteLength":7848,"byteOffset":11028,"target":34962},{"buffer":0,"byteLength":5232,"byteOffset":18876,"target":34962},{"buffer":0,"byteLength":1584,"byteOffset":24108,"target":34963},{"buffer":0,"byteLength":5064,"byteOffset":25692,"target":34962},{"buffer":0,"byteLength":5064,"byteOffset":30756,"target":34962},{"buffer":0,"byteLength":3376,"byteOffset":35820,"target":34962},{"buffer":0,"byteLength":612,"byteOffset":39196,"target":34963},{"buffer":0,"byteLength":1824,"byteOffset":39808,"target":34962},{"buffer":0,"byteLength":1824,"byteOffset":41632,"target":34962},{"buffer":0,"byteLength":1216,"byteOffset":43456,"target":34962},{"buffer":0,"byteLength":372,"byteOffset":44672,"target":34963},{"buffer":0,"byteLength":1488,"byteOffset":45044,"target":34962},{"buffer":0,"byteLength":1488,"byteOffset":46532,"target":34962},{"buffer":0,"byteLength":992,"byteOffset":48020,"target":34962},{"buffer":0,"byteLength":168,"byteOffset":49012,"target":34963},{"buffer":0,"byteLength":744,"byteOffset":49180,"target":34962},{"buffer":0,"byteLength":744,"byteOffset":49924,"target":34962},{"buffer":0,"byteLength":496,"byteOffset":50668,"target":34962},{"buffer":0,"byteLength":24,"byteOffset":51164,"target":34963},{"buffer":0,"byteLength":96,"byteOffset":51188,"target":34962},{"buffer":0,"byteLength":96,"byteOffset":51284,"target":34962},{"buffer":0,"byteLength":64,"byteOffset":51380,"target":34962},{"buffer":0,"byteLength":24,"byteOffset":51444,"target":34963},{"buffer":0,"byteLength":96,"byteOffset":51468,"target":34962},{"buffer":0,"byteLength":96,"byteOffset":51564,"target":34962},{"buffer":0,"byteLength":64,"byteOffset":51660,"target":34962},{"buffer":0,"byteLength":24,"byteOffset":51724,"target":34963},{"buffer":0,"byteLength":96,"byteOffset":51748,"target":34962},{"buffer":0,"byteLength":96,"byteOffset":51844,"target":34962},{"buffer":0,"byteLength":64,"byteOffset":51940,"target":34962},{"buffer":0,"byteLength":708,"byteOffset":52004,"target":34963},{"buffer":0,"byteLength":2808,"byteOffset":52712,"target":34962},{"buffer":0,"byteLength":2808,"byteOffset":55520,"target":34962},{"buffer":0,"byteLength":1872,"byteOffset":58328,"target":34962},{"buffer":0,"byteLength":522,"byteOffset":60200,"target":34963},{"buffer":0,"byteLength":2172,"byteOffset":60724,"target":34962},{"buffer":0,"byteLength":2172,"byteOffset":62896,"target":34962},{"buffer":0,"byteLength":1448,"byteOffset":65068,"target":34962},{"buffer":0,"byteLength":654,"byteOffset":66516,"target":34963},{"buffer":0,"byteLength":1692,"byteOffset":67172,"target":34962},{"buffer":0,"byteLength":1692,"byteOffset":68864,"target":34962},{"buffer":0,"byteLength":1128,"byteOffset":70556,"target":34962},{"buffer":0,"byteLength":294,"byteOffset":71684,"target":34963},{"buffer":0,"byteLength":1188,"byteOffset":71980,"target":34962},{"buffer":0,"byteLength":1188,"byteOffset":73168,"target":34962},{"buffer":0,"byteLength":792,"byteOffset":74356,"target":34962},{"buffer":0,"byteLength":1644,"byteOffset":75148,"target":34963},{"buffer":0,"byteLength":4440,"byteOffset":76792,"target":34962},{"buffer":0,"byteLength":4440,"byteOffset":81232,"target":34962},{"buffer":0,"byteLength":2960,"byteOffset":85672,"target":34962},{"buffer":0,"byteLength":654,"byteOffset":88632,"target":34963},{"buffer":0,"byteLength":2088,"byteOffset":89288,"target":34962},{"buffer":0,"byteLength":2088,"byteOffset":91376,"target":34962},{"buffer":0,"byteLength":1392,"byteOffset":93464,"target":34962},{"buffer":0,"byteLength":72,"byteOffset":94856,"target":34963},{"buffer":0,"byteLength":288,"byteOffset":94928,"target":34962},{"buffer":0,"byteLength":288,"byteOffset":95216,"target":34962},{"buffer":0,"byteLength":192,"byteOffset":95504,"target":34962},{"buffer":0,"byteLength":72,"byteOffset":95696,"target":34963},{"buffer":0,"byteLength":288,"byteOffset":95768,"target":34962},{"buffer":0,"byteLength":288,"byteOffset":96056,"target":34962},{"buffer":0,"byteLength":192,"byteOffset":96344,"target":34962},{"buffer":0,"byteLength":432,"byteOffset":96536,"target":34963},{"buffer":0,"byteLength":984,"byteOffset":96968,"target":34962},{"buffer":0,"byteLength":984,"byteOffset":97952,"target":34962},{"buffer":0,"byteLength":656,"byteOffset":98936,"target":34962},{"buffer":0,"byteLength":432,"byteOffset":99592,"target":34963},{"buffer":0,"byteLength":984,"byteOffset":100024,"target":34962},{"buffer":0,"byteLength":984,"byteOffset":101008,"target":34962},{"buffer":0,"byteLength":656,"byteOffset":101992,"target":34962},{"buffer":0,"byteLength":912,"byteOffset":102648,"target":34963},{"buffer":0,"byteLength":3216,"byteOffset":103560,"target":34962},{"buffer":0,"byteLength":3216,"byteOffset":106776,"target":34962},{"buffer":0,"byteLength":2144,"byteOffset":109992,"target":34962}],"buffers":[{"byteLength":112136,"uri":"Emergency_Door.bin"}],"images":[{"name":"Emergency_Door_A","uri":"Emergency_Door_A.tga"},{"name":"Glass_A","uri":"Glass_A.tga"},{"name":"Parapet_A","uri":"Parapet_A.tga"},{"name":"Concrete_A","uri":"Concrete_A.tga"},{"name":"Porch_A","uri":"Porch_A.tga"},{"name":"Wall_Brick_A","uri":"Wall_Brick_A.tga"},{"name":"Wall_01_A","uri":"Wall_01_A.tga"}],"materials":[{"alphaMode":"OPAQUE","doubleSided":false,"extras":{"fromFBX":{"isTruePBR":false,"shadingModel":"Lambert"}},"name":"DefaultMaterial","pbrMetallicRoughness":{"baseColorFactor":[0.5,0.5,0.5,1],"metallicFactor":0.200000002980232,"roughnessFactor":0.800000011920929}},{"alphaMode":"OPAQUE","doubleSided":false,"extras":{"fromFBX":{"isTruePBR":false,"shadingModel":"Phong"}},"name":"Emergency_Door","pbrMetallicRoughness":{"baseColorFactor":[1,1,1,1],"baseColorTexture":{"index":0,"texCoord":0},"metallicFactor":0.400000005960464,"roughnessFactor":0.272165536880493}},{"alphaMode":"OPAQUE","doubleSided":false,"extras":{"fromFBX":{"isTruePBR":false,"shadingModel":"Phong"}},"name":"Glass","pbrMetallicRoughness":{"baseColorFactor":[1,1,1,1],"baseColorTexture":{"index":1,"texCoord":0},"metallicFactor":0.400000005960464,"roughnessFactor":0.272165536880493}},{"alphaMode":"OPAQUE","doubleSided":false,"extras":{"fromFBX":{"isTruePBR":false,"shadingModel":"Phong"}},"name":"Parapet","pbrMetallicRoughness":{"baseColorFactor":[1,1,1,1],"baseColorTexture":{"index":2,"texCoord":0},"metallicFactor":0.400000005960464,"roughnessFactor":0.272165536880493}},{"alphaMode":"OPAQUE","doubleSided":false,"extras":{"fromFBX":{"isTruePBR":false,"shadingModel":"Phong"}},"name":"Concrete","pbrMetallicRoughness":{"baseColorFactor":[1,1,1,1],"baseColorTexture":{"index":3,"texCoord":0},"metallicFactor":0.400000005960464,"roughnessFactor":0.272165536880493}},{"alphaMode":"OPAQUE","doubleSided":false,"extras":{"fromFBX":{"isTruePBR":false,"shadingModel":"Phong"}},"name":"Porch","pbrMetallicRoughness":{"baseColorFactor":[1,1,1,1],"baseColorTexture":{"index":4,"texCoord":0},"metallicFactor":0.400000005960464,"roughnessFactor":0.272165536880493}},{"alphaMode":"OPAQUE","doubleSided":false,"extras":{"fromFBX":{"isTruePBR":false,"shadingModel":"Phong"}},"name":"Wall_Brick","pbrMetallicRoughness":{"baseColorFactor":[1,1,1,1],"baseColorTexture":{"index":5,"texCoord":0},"metallicFactor":0.400000005960464,"roughnessFactor":0.272165536880493}},{"alphaMode":"OPAQUE","doubleSided":false,"extras":{"fromFBX":{"isTruePBR":false,"shadingModel":"Phong"}},"name":"Wall_01","pbrMetallicRoughness":{"baseColorFactor":[1,1,1,1],"baseColorTexture":{"index":6,"texCoord":0},"metallicFactor":0.400000005960464,"roughnessFactor":0.272165536880493}}],"meshes":[{"name":"Emergency_Door_01_LOD0","primitives":[{"attributes":{"NORMAL":2,"POSITION":1,"TEXCOORD_0":3},"indices":0,"material":1,"mode":4},{"attributes":{"NORMAL":22,"POSITION":21,"TEXCOORD_0":23},"indices":20,"material":2,"mode":4}]},{"name":"Emergency_Door_01_LOD1","primitives":[{"attributes":{"NORMAL":6,"POSITION":5,"TEXCOORD_0":7},"indices":4,"material":1,"mode":4},{"attributes":{"NORMAL":26,"POSITION":25,"TEXCOORD_0":27},"indices":24,"material":2,"mode":4}]},{"name":"Emergency_Door_01_LOD2","primitives":[{"attributes":{"NORMAL":10,"POSITION":9,"TEXCOORD_0":11},"indices":8,"material":1,"mode":4},{"attributes":{"NORMAL":30,"POSITION":29,"TEXCOORD_0":31},"indices":28,"material":2,"mode":4}]},{"name":"Emergency_Door_LOD0","primitives":[{"attributes":{"NORMAL":14,"POSITION":13,"TEXCOORD_0":15},"indices":12,"material":1,"mode":4},{"attributes":{"NORMAL":34,"POSITION":33,"TEXCOORD_0":35},"indices":32,"material":3,"mode":4},{"attributes":{"NORMAL":42,"POSITION":41,"TEXCOORD_0":43},"indices":40,"material":4,"mode":4},{"attributes":{"NORMAL":50,"POSITION":49,"TEXCOORD_0":51},"indices":48,"material":5,"mode":4},{"attributes":{"NORMAL":58,"POSITION":57,"TEXCOORD_0":59},"indices":56,"material":6,"mode":4},{"attributes":{"NORMAL":66,"POSITION":65,"TEXCOORD_0":67},"indices":64,"material":7,"mode":4}]},{"name":"Emergency_Door_LOD1","primitives":[{"attributes":{"NORMAL":18,"POSITION":17,"TEXCOORD_0":19},"indices":16,"material":1,"mode":4},{"attributes":{"NORMAL":38,"POSITION":37,"TEXCOORD_0":39},"indices":36,"material":3,"mode":4},{"attributes":{"NORMAL":46,"POSITION":45,"TEXCOORD_0":47},"indices":44,"material":4,"mode":4},{"attributes":{"NORMAL":54,"POSITION":53,"TEXCOORD_0":55},"indices":52,"material":5,"mode":4},{"attributes":{"NORMAL":62,"POSITION":61,"TEXCOORD_0":63},"indices":60,"material":6,"mode":4},{"attributes":{"NORMAL":70,"POSITION":69,"TEXCOORD_0":71},"indices":68,"material":7,"mode":4}]},{"name":"Emergency_Door_Collider","primitives":[{"attributes":{"NORMAL":74,"POSITION":73,"TEXCOORD_0":75},"indices":72,"material":0,"mode":4}]}],"nodes":[{"mesh":5,"name":"Emergency_Door_Collider","rotation":[0,0,0,1],"scale":[1,1,1],"translation":[0,0,0]},{"children":[2,3],"mesh":0,"name":"Emergency_Door_01_LOD0","rotation":[0,0,0,1],"scale":[1,1,1],"translation":[0.166587829589844,1.02546060085297,2.63145446777344]},{"mesh":1,"name":"Emergency_Door_01_LOD1","rotation":[0,0,0,1],"scale":[1,1,1],"translation":[0.0000000190734859017994,0.0000000762939436071974,0.00000030517577442879]},{"mesh":2,"name":"Emergency_Door_01_LOD2","rotation":[0,0,0,1],"scale":[1,1,1],"translation":[0.0000000190734859017994,0.0000000762939436071974,0.00000030517577442879]},{"mesh":3,"name":"Emergency_Door_LOD0","rotation":[0,0,0,1],"scale":[1,1,1],"translation":[0,0,0]},{"mesh":4,"name":"Emergency_Door_LOD1","rotation":[0,0,0,1],"scale":[1,1,1],"translation":[0,0,0]}],"samplers":[{}],"scene":0,"scenes":[{"name":"Root Scene","nodes":[0,1,4,5]}],"textures":[{"name":"base_color_texture","sampler":0,"source":0},{"name":"base_color_texture","sampler":0,"source":1},{"name":"base_color_texture","sampler":0,"source":2},{"name":"base_color_texture","sampler":0,"source":3},{"name":"base_color_texture","sampler":0,"source":4},{"name":"base_color_texture","sampler":0,"source":5},{"name":"base_color_texture","sampler":0,"source":6}]}