{"accessors":[{"bufferView":0,"byteOffset":0,"componentType":5123,"count":6,"type":"SCALAR"},{"bufferView":1,"byteOffset":0,"componentType":5126,"count":4,"max":[0,0,2],"min":[-2,0,0],"type":"VEC3"},{"bufferView":2,"byteOffset":0,"componentType":5126,"count":4,"type":"VEC3"},{"bufferView":3,"byteOffset":0,"componentType":5126,"count":4,"type":"VEC2"},{"bufferView":4,"byteOffset":0,"componentType":5123,"count":6,"type":"SCALAR"},{"bufferView":5,"byteOffset":0,"componentType":5126,"count":4,"max":[0,0,2],"min":[-2,0,0],"type":"VEC3"},{"bufferView":6,"byteOffset":0,"componentType":5126,"count":4,"type":"VEC3"},{"bufferView":7,"byteOffset":0,"componentType":5126,"count":4,"type":"VEC2"},{"bufferView":8,"byteOffset":0,"componentType":5123,"count":6,"type":"SCALAR"},{"bufferView":9,"byteOffset":0,"componentType":5126,"count":4,"max":[0,0,2],"min":[-2,0,0],"type":"VEC3"},{"bufferView":10,"byteOffset":0,"componentType":5126,"count":4,"type":"VEC3"},{"bufferView":11,"byteOffset":0,"componentType":5126,"count":4,"type":"VEC2"},{"bufferView":12,"byteOffset":0,"componentType":5123,"count":3654,"type":"SCALAR"},{"bufferView":13,"byteOffset":0,"componentType":5126,"count":1095,"max":[0,-0.06828197836876,2],"min":[-2.00000095367432,-1.22587561607361,0],"type":"VEC3"},{"bufferView":14,"byteOffset":0,"componentType":5126,"count":1095,"type":"VEC3"},{"bufferView":15,"byteOffset":0,"componentType":5126,"count":1095,"type":"VEC2"},{"bufferView":16,"byteOffset":0,"componentType":5123,"count":1251,"type":"SCALAR"},{"bufferView":17,"byteOffset":0,"componentType":5126,"count":502,"max":[0,-0.06828197836876,2],"min":[-2.00000095367432,-1.22593140602112,0],"type":"VEC3"},{"bufferView":18,"byteOffset":0,"componentType":5126,"count":502,"type":"VEC3"},{"bufferView":19,"byteOffset":0,"componentType":5126,"count":502,"type":"VEC2"},{"bufferView":20,"byteOffset":0,"componentType":5123,"count":471,"type":"SCALAR"},{"bufferView":21,"byteOffset":0,"componentType":5126,"count":217,"max":[0,-0.06828197836876,2],"min":[-2.00000095367432,-0.30939722061157,0],"type":"VEC3"},{"bufferView":22,"byteOffset":0,"componentType":5126,"count":217,"type":"VEC3"},{"bufferView":23,"byteOffset":0,"componentType":5126,"count":217,"type":"VEC2"}],"asset":{"generator":"FBX2glTF v0.13.1","version":"2.0"},"bufferViews":[{"buffer":0,"byteLength":12,"byteOffset":0,"target":34963},{"buffer":0,"byteLength":48,"byteOffset":12,"target":34962},{"buffer":0,"byteLength":48,"byteOffset":60,"target":34962},{"buffer":0,"byteLength":32,"byteOffset":108,"target":34962},{"buffer":0,"byteLength":12,"byteOffset":140,"target":34963},{"buffer":0,"byteLength":48,"byteOffset":152,"target":34962},{"buffer":0,"byteLength":48,"byteOffset":200,"target":34962},{"buffer":0,"byteLength":32,"byteOffset":248,"target":34962},{"buffer":0,"byteLength":12,"byteOffset":280,"target":34963},{"buffer":0,"byteLength":48,"byteOffset":292,"target":34962},{"buffer":0,"byteLength":48,"byteOffset":340,"target":34962},{"buffer":0,"byteLength":32,"byteOffset":388,"target":34962},{"buffer":0,"byteLength":7308,"byteOffset":420,"target":34963},{"buffer":0,"byteLength":13140,"byteOffset":7728,"target":34962},{"buffer":0,"byteLength":13140,"byteOffset":20868,"target":34962},{"buffer":0,"byteLength":8760,"byteOffset":34008,"target":34962},{"buffer":0,"byteLength":2502,"byteOffset":42768,"target":34963},{"buffer":0,"byteLength":6024,"byteOffset":45272,"target":34962},{"buffer":0,"byteLength":6024,"byteOffset":51296,"target":34962},{"buffer":0,"byteLength":4016,"byteOffset":57320,"target":34962},{"buffer":0,"byteLength":942,"byteOffset":61336,"target":34963},{"buffer":0,"byteLength":2604,"byteOffset":62280,"target":34962},{"buffer":0,"byteLength":2604,"byteOffset":64884,"target":34962},{"buffer":0,"byteLength":1736,"byteOffset":67488,"target":34962}],"buffers":[{"byteLength":69224,"uri":"Floor_02.bin"}],"images":[{"name":"Floor_01_A","uri":"Floor_01_A.tga"},{"name":"Ceiling_A","uri":"Ceiling_A.tga"}],"materials":[{"alphaMode":"OPAQUE","doubleSided":false,"extras":{"fromFBX":{"isTruePBR":false,"shadingModel":"Phong"}},"name":"Floor_01","pbrMetallicRoughness":{"baseColorFactor":[1,1,1,1],"baseColorTexture":{"index":0,"texCoord":0},"metallicFactor":0.400000005960464,"roughnessFactor":0.272165536880493}},{"alphaMode":"OPAQUE","doubleSided":false,"extras":{"fromFBX":{"isTruePBR":false,"shadingModel":"Phong"}},"name":"Ceiling","pbrMetallicRoughness":{"baseColorFactor":[1,1,1,1],"baseColorTexture":{"index":1,"texCoord":0},"metallicFactor":0.400000005960464,"roughnessFactor":0.272165536880493}}],"meshes":[{"name":"Floor_02_LOD0","primitives":[{"attributes":{"NORMAL":2,"POSITION":1,"TEXCOORD_0":3},"indices":0,"material":0,"mode":4},{"attributes":{"NORMAL":14,"POSITION":13,"TEXCOORD_0":15},"indices":12,"material":1,"mode":4}]},{"name":"Floor_02_LOD1","primitives":[{"attributes":{"NORMAL":6,"POSITION":5,"TEXCOORD_0":7},"indices":4,"material":0,"mode":4},{"attributes":{"NORMAL":18,"POSITION":17,"TEXCOORD_0":19},"indices":16,"material":1,"mode":4}]},{"name":"Floor_02_LOD2","primitives":[{"attributes":{"NORMAL":10,"POSITION":9,"TEXCOORD_0":11},"indices":8,"material":0,"mode":4},{"attributes":{"NORMAL":22,"POSITION":21,"TEXCOORD_0":23},"indices":20,"material":1,"mode":4}]}],"nodes":[{"mesh":0,"name":"Floor_02_LOD0","rotation":[0,0,0,1],"scale":[1,1,1],"translation":[0,0,0]},{"mesh":1,"name":"Floor_02_LOD1","rotation":[0,0,0,1],"scale":[1,1,1],"translation":[0,0,0]},{"mesh":2,"name":"Floor_02_LOD2","rotation":[0,0,0,1],"scale":[1,1,1],"translation":[0,0,0]}],"samplers":[{}],"scene":0,"scenes":[{"name":"Root Scene","nodes":[0,1,2]}],"textures":[{"name":"base_color_texture","sampler":0,"source":0},{"name":"base_color_texture","sampler":0,"source":1}]}