{"accessors":[{"bufferView":0,"byteOffset":0,"componentType":5123,"count":6,"type":"SCALAR"},{"bufferView":1,"byteOffset":0,"componentType":5126,"count":4,"max":[0,0,2],"min":[-2,0,0],"type":"VEC3"},{"bufferView":2,"byteOffset":0,"componentType":5126,"count":4,"type":"VEC3"},{"bufferView":3,"byteOffset":0,"componentType":5126,"count":4,"type":"VEC2"},{"bufferView":4,"byteOffset":0,"componentType":5123,"count":6,"type":"SCALAR"},{"bufferView":5,"byteOffset":0,"componentType":5126,"count":4,"max":[0,0,2],"min":[-2,0,0],"type":"VEC3"},{"bufferView":6,"byteOffset":0,"componentType":5126,"count":4,"type":"VEC3"},{"bufferView":7,"byteOffset":0,"componentType":5126,"count":4,"type":"VEC2"},{"bufferView":8,"byteOffset":0,"componentType":5123,"count":6,"type":"SCALAR"},{"bufferView":9,"byteOffset":0,"componentType":5126,"count":4,"max":[0,0,2],"min":[-2,0,0],"type":"VEC3"},{"bufferView":10,"byteOffset":0,"componentType":5126,"count":4,"type":"VEC3"},{"bufferView":11,"byteOffset":0,"componentType":5126,"count":4,"type":"VEC2"},{"bufferView":12,"byteOffset":0,"componentType":5123,"count":14094,"type":"SCALAR"},{"bufferView":13,"byteOffset":0,"componentType":5126,"count":4562,"max":[0,-0.06828197836876,2.00434517860413],"min":[-2.00000095367432,-2.66815423965454,0],"type":"VEC3"},{"bufferView":14,"byteOffset":0,"componentType":5126,"count":4562,"type":"VEC3"},{"bufferView":15,"byteOffset":0,"componentType":5126,"count":4562,"type":"VEC2"},{"bufferView":16,"byteOffset":0,"componentType":5123,"count":4992,"type":"SCALAR"},{"bufferView":17,"byteOffset":0,"componentType":5126,"count":2268,"max":[0,-0.06828197836876,2],"min":[-2.00000095367432,-2.66815447807312,0],"type":"VEC3"},{"bufferView":18,"byteOffset":0,"componentType":5126,"count":2268,"type":"VEC3"},{"bufferView":19,"byteOffset":0,"componentType":5126,"count":2268,"type":"VEC2"},{"bufferView":20,"byteOffset":0,"componentType":5123,"count":870,"type":"SCALAR"},{"bufferView":21,"byteOffset":0,"componentType":5126,"count":420,"max":[0,-0.06828197836876,2],"min":[-2.00000095367432,-0.30939722061157,0],"type":"VEC3"},{"bufferView":22,"byteOffset":0,"componentType":5126,"count":420,"type":"VEC3"},{"bufferView":23,"byteOffset":0,"componentType":5126,"count":420,"type":"VEC2"}],"asset":{"generator":"FBX2glTF v0.13.1","version":"2.0"},"bufferViews":[{"buffer":0,"byteLength":12,"byteOffset":0,"target":34963},{"buffer":0,"byteLength":48,"byteOffset":12,"target":34962},{"buffer":0,"byteLength":48,"byteOffset":60,"target":34962},{"buffer":0,"byteLength":32,"byteOffset":108,"target":34962},{"buffer":0,"byteLength":12,"byteOffset":140,"target":34963},{"buffer":0,"byteLength":48,"byteOffset":152,"target":34962},{"buffer":0,"byteLength":48,"byteOffset":200,"target":34962},{"buffer":0,"byteLength":32,"byteOffset":248,"target":34962},{"buffer":0,"byteLength":12,"byteOffset":280,"target":34963},{"buffer":0,"byteLength":48,"byteOffset":292,"target":34962},{"buffer":0,"byteLength":48,"byteOffset":340,"target":34962},{"buffer":0,"byteLength":32,"byteOffset":388,"target":34962},{"buffer":0,"byteLength":28188,"byteOffset":420,"target":34963},{"buffer":0,"byteLength":54744,"byteOffset":28608,"target":34962},{"buffer":0,"byteLength":54744,"byteOffset":83352,"target":34962},{"buffer":0,"byteLength":36496,"byteOffset":138096,"target":34962},{"buffer":0,"byteLength":9984,"byteOffset":174592,"target":34963},{"buffer":0,"byteLength":27216,"byteOffset":184576,"target":34962},{"buffer":0,"byteLength":27216,"byteOffset":211792,"target":34962},{"buffer":0,"byteLength":18144,"byteOffset":239008,"target":34962},{"buffer":0,"byteLength":1740,"byteOffset":257152,"target":34963},{"buffer":0,"byteLength":5040,"byteOffset":258892,"target":34962},{"buffer":0,"byteLength":5040,"byteOffset":263932,"target":34962},{"buffer":0,"byteLength":3360,"byteOffset":268972,"target":34962}],"buffers":[{"byteLength":272332,"uri":"Floor_03.bin"}],"images":[{"name":"Floor_01_A","uri":"Floor_01_A.tga"},{"name":"Ceiling_A","uri":"Ceiling_A.tga"}],"materials":[{"alphaMode":"OPAQUE","doubleSided":false,"extras":{"fromFBX":{"isTruePBR":false,"shadingModel":"Phong"}},"name":"Floor_01","pbrMetallicRoughness":{"baseColorFactor":[1,1,1,1],"baseColorTexture":{"index":0,"texCoord":0},"metallicFactor":0.400000005960464,"roughnessFactor":0.272165536880493}},{"alphaMode":"OPAQUE","doubleSided":false,"extras":{"fromFBX":{"isTruePBR":false,"shadingModel":"Phong"}},"name":"Ceiling","pbrMetallicRoughness":{"baseColorFactor":[1,1,1,1],"baseColorTexture":{"index":1,"texCoord":0},"metallicFactor":0.400000005960464,"roughnessFactor":0.272165536880493}}],"meshes":[{"name":"Floor_03_LOD0","primitives":[{"attributes":{"NORMAL":2,"POSITION":1,"TEXCOORD_0":3},"indices":0,"material":0,"mode":4},{"attributes":{"NORMAL":14,"POSITION":13,"TEXCOORD_0":15},"indices":12,"material":1,"mode":4}]},{"name":"Floor_03_LOD1","primitives":[{"attributes":{"NORMAL":6,"POSITION":5,"TEXCOORD_0":7},"indices":4,"material":0,"mode":4},{"attributes":{"NORMAL":18,"POSITION":17,"TEXCOORD_0":19},"indices":16,"material":1,"mode":4}]},{"name":"Floor_03_LOD2","primitives":[{"attributes":{"NORMAL":10,"POSITION":9,"TEXCOORD_0":11},"indices":8,"material":0,"mode":4},{"attributes":{"NORMAL":22,"POSITION":21,"TEXCOORD_0":23},"indices":20,"material":1,"mode":4}]}],"nodes":[{"mesh":0,"name":"Floor_03_LOD0","rotation":[0,0,0,1],"scale":[1,1,1],"translation":[0,0,0]},{"mesh":1,"name":"Floor_03_LOD1","rotation":[0,0,0,1],"scale":[1,1,1],"translation":[0,0,0]},{"mesh":2,"name":"Floor_03_LOD2","rotation":[0,0,0,1],"scale":[1,1,1],"translation":[0,0,0]}],"samplers":[{}],"scene":0,"scenes":[{"name":"Root Scene","nodes":[0,1,2]}],"textures":[{"name":"base_color_texture","sampler":0,"source":0},{"name":"base_color_texture","sampler":0,"source":1}]}