{"accessors":[{"bufferView":0,"byteOffset":0,"componentType":5123,"count":210,"type":"SCALAR"},{"bufferView":1,"byteOffset":0,"componentType":5126,"count":136,"max":[0.0223870184272528,0.753287017345428,2.89589715003967],"min":[-0.14442044496536,-0.04113793373108,-2.89589715003967],"type":"VEC3"},{"bufferView":2,"byteOffset":0,"componentType":5126,"count":136,"type":"VEC3"},{"bufferView":3,"byteOffset":0,"componentType":5126,"count":136,"type":"VEC2"}],"asset":{"generator":"FBX2glTF v0.13.1","version":"2.0"},"bufferViews":[{"buffer":0,"byteLength":420,"byteOffset":0,"target":34963},{"buffer":0,"byteLength":1632,"byteOffset":420,"target":34962},{"buffer":0,"byteLength":1632,"byteOffset":2052,"target":34962},{"buffer":0,"byteLength":1088,"byteOffset":3684,"target":34962}],"buffers":[{"byteLength":4772,"uri":"Inscription.bin"}],"images":[{"name":"Emergency_Door_A","uri":"Emergency_Door_A.tga"}],"materials":[{"alphaMode":"OPAQUE","doubleSided":false,"extras":{"fromFBX":{"isTruePBR":false,"shadingModel":"Phong"}},"name":"Emergency_Door","pbrMetallicRoughness":{"baseColorFactor":[1,1,1,1],"baseColorTexture":{"index":0,"texCoord":0},"metallicFactor":0.400000005960464,"roughnessFactor":0.272165536880493}}],"meshes":[{"name":"Inscription","primitives":[{"attributes":{"NORMAL":2,"POSITION":1,"TEXCOORD_0":3},"indices":0,"material":0,"mode":4}]}],"nodes":[{"mesh":0,"name":"Inscription","rotation":[0,0,0,1],"scale":[1,1,1],"translation":[0,0,0]}],"samplers":[{}],"scene":0,"scenes":[{"name":"Root Scene","nodes":[0]}],"textures":[{"name":"base_color_texture","sampler":0,"source":0}]}