{"accessors":[{"bufferView":0,"byteOffset":0,"componentType":5123,"count":792,"type":"SCALAR"},{"bufferView":1,"byteOffset":0,"componentType":5126,"count":405,"max":[0.0631647109985352,4,4],"min":[-0.26339054107666,-0.00339829921722,0],"type":"VEC3"},{"bufferView":2,"byteOffset":0,"componentType":5126,"count":405,"type":"VEC3"},{"bufferView":3,"byteOffset":0,"componentType":5126,"count":405,"type":"VEC2"},{"bufferView":4,"byteOffset":0,"componentType":5123,"count":420,"type":"SCALAR"},{"bufferView":5,"byteOffset":0,"componentType":5126,"count":227,"max":[0.0631647109985352,4,4],"min":[-0.26339054107666,-0.00339829921722,0],"type":"VEC3"},{"bufferView":6,"byteOffset":0,"componentType":5126,"count":227,"type":"VEC3"},{"bufferView":7,"byteOffset":0,"componentType":5126,"count":227,"type":"VEC2"},{"bufferView":8,"byteOffset":0,"componentType":5123,"count":168,"type":"SCALAR"},{"bufferView":9,"byteOffset":0,"componentType":5126,"count":87,"max":[0.053929328918457,4,4],"min":[-0.00241988897324,-0.00339829921722,0],"type":"VEC3"},{"bufferView":10,"byteOffset":0,"componentType":5126,"count":87,"type":"VEC3"},{"bufferView":11,"byteOffset":0,"componentType":5126,"count":87,"type":"VEC2"},{"bufferView":12,"byteOffset":0,"componentType":5123,"count":162,"type":"SCALAR"},{"bufferView":13,"byteOffset":0,"componentType":5126,"count":84,"max":[0.0539292693138123,4,4],"min":[-0.00241994857788,-0.00339829921722,0],"type":"VEC3"},{"bufferView":14,"byteOffset":0,"componentType":5126,"count":84,"type":"VEC3"},{"bufferView":15,"byteOffset":0,"componentType":5126,"count":84,"type":"VEC2"},{"bufferView":16,"byteOffset":0,"componentType":5123,"count":234,"type":"SCALAR"},{"bufferView":17,"byteOffset":0,"componentType":5126,"count":156,"max":[0.0635567232966423,2.3036036491394,2.66291308403015],"min":[-0.05972170829773,-0.00264539732598,1.33708655834198],"type":"VEC3"},{"bufferView":18,"byteOffset":0,"componentType":5126,"count":156,"type":"VEC3"},{"bufferView":19,"byteOffset":0,"componentType":5126,"count":156,"type":"VEC2"},{"bufferView":20,"byteOffset":0,"componentType":5123,"count":138,"type":"SCALAR"},{"bufferView":21,"byteOffset":0,"componentType":5126,"count":72,"max":[0.0635566711425781,2.3036036491394,2.66291308403015],"min":[-0.05972194671631,-0.00264539732598,1.33708655834198],"type":"VEC3"},{"bufferView":22,"byteOffset":0,"componentType":5126,"count":72,"type":"VEC3"},{"bufferView":23,"byteOffset":0,"componentType":5126,"count":72,"type":"VEC2"},{"bufferView":24,"byteOffset":0,"componentType":5123,"count":2832,"type":"SCALAR"},{"bufferView":25,"byteOffset":0,"componentType":5126,"count":962,"max":[0.0773622468113899,2.18942785263062,0.0100007653236389],"min":[-0.09864139556885,0,-1.14649188518524],"type":"VEC3"},{"bufferView":26,"byteOffset":0,"componentType":5126,"count":962,"type":"VEC3"},{"bufferView":27,"byteOffset":0,"componentType":5126,"count":962,"type":"VEC2"},{"bufferView":28,"byteOffset":0,"componentType":5123,"count":1425,"type":"SCALAR"},{"bufferView":29,"byteOffset":0,"componentType":5126,"count":583,"max":[0.0773622468113899,2.18942785263062,0.00996197946369648],"min":[-0.09864139556885,0,-1.14649188518524],"type":"VEC3"},{"bufferView":30,"byteOffset":0,"componentType":5126,"count":583,"type":"VEC3"},{"bufferView":31,"byteOffset":0,"componentType":5126,"count":583,"type":"VEC2"},{"bufferView":32,"byteOffset":0,"componentType":5123,"count":462,"type":"SCALAR"},{"bufferView":33,"byteOffset":0,"componentType":5126,"count":226,"max":[0.0170161724090576,2.18942785263062,0],"min":[-0.04076655209064,0,-1.14649188518524],"type":"VEC3"},{"bufferView":34,"byteOffset":0,"componentType":5126,"count":226,"type":"VEC3"},{"bufferView":35,"byteOffset":0,"componentType":5126,"count":226,"type":"VEC2"},{"bufferView":36,"byteOffset":0,"componentType":5123,"count":12,"type":"SCALAR"},{"bufferView":37,"byteOffset":0,"componentType":5126,"count":8,"max":[-0.00539023708552,2.03881573677063,-0.11985746026039],"min":[-0.0167824011296,1.10075116157532,-1.02663445472717],"type":"VEC3"},{"bufferView":38,"byteOffset":0,"componentType":5126,"count":8,"type":"VEC3"},{"bufferView":39,"byteOffset":0,"componentType":5126,"count":8,"type":"VEC2"},{"bufferView":40,"byteOffset":0,"componentType":5123,"count":12,"type":"SCALAR"},{"bufferView":41,"byteOffset":0,"componentType":5126,"count":8,"max":[-0.00539023708552,2.03881573677063,-0.11985746026039],"min":[-0.0167824011296,1.10075116157532,-1.02663445472717],"type":"VEC3"},{"bufferView":42,"byteOffset":0,"componentType":5126,"count":8,"type":"VEC3"},{"bufferView":43,"byteOffset":0,"componentType":5126,"count":8,"type":"VEC2"},{"bufferView":44,"byteOffset":0,"componentType":5123,"count":12,"type":"SCALAR"},{"bufferView":45,"byteOffset":0,"componentType":5126,"count":8,"max":[-0.00539023708552,2.03881573677063,-0.11985746026039],"min":[-0.0167824011296,1.10075116157532,-1.02663445472717],"type":"VEC3"},{"bufferView":46,"byteOffset":0,"componentType":5126,"count":8,"type":"VEC3"},{"bufferView":47,"byteOffset":0,"componentType":5126,"count":8,"type":"VEC2"}],"asset":{"generator":"FBX2glTF v0.13.1","version":"2.0"},"bufferViews":[{"buffer":0,"byteLength":1584,"byteOffset":0,"target":34963},{"buffer":0,"byteLength":4860,"byteOffset":1584,"target":34962},{"buffer":0,"byteLength":4860,"byteOffset":6444,"target":34962},{"buffer":0,"byteLength":3240,"byteOffset":11304,"target":34962},{"buffer":0,"byteLength":840,"byteOffset":14544,"target":34963},{"buffer":0,"byteLength":2724,"byteOffset":15384,"target":34962},{"buffer":0,"byteLength":2724,"byteOffset":18108,"target":34962},{"buffer":0,"byteLength":1816,"byteOffset":20832,"target":34962},{"buffer":0,"byteLength":336,"byteOffset":22648,"target":34963},{"buffer":0,"byteLength":1044,"byteOffset":22984,"target":34962},{"buffer":0,"byteLength":1044,"byteOffset":24028,"target":34962},{"buffer":0,"byteLength":696,"byteOffset":25072,"target":34962},{"buffer":0,"byteLength":324,"byteOffset":25768,"target":34963},{"buffer":0,"byteLength":1008,"byteOffset":26092,"target":34962},{"buffer":0,"byteLength":1008,"byteOffset":27100,"target":34962},{"buffer":0,"byteLength":672,"byteOffset":28108,"target":34962},{"buffer":0,"byteLength":468,"byteOffset":28780,"target":34963},{"buffer":0,"byteLength":1872,"byteOffset":29248,"target":34962},{"buffer":0,"byteLength":1872,"byteOffset":31120,"target":34962},{"buffer":0,"byteLength":1248,"byteOffset":32992,"target":34962},{"buffer":0,"byteLength":276,"byteOffset":34240,"target":34963},{"buffer":0,"byteLength":864,"byteOffset":34516,"target":34962},{"buffer":0,"byteLength":864,"byteOffset":35380,"target":34962},{"buffer":0,"byteLength":576,"byteOffset":36244,"target":34962},{"buffer":0,"byteLength":5664,"byteOffset":36820,"target":34963},{"buffer":0,"byteLength":11544,"byteOffset":42484,"target":34962},{"buffer":0,"byteLength":11544,"byteOffset":54028,"target":34962},{"buffer":0,"byteLength":7696,"byteOffset":65572,"target":34962},{"buffer":0,"byteLength":2850,"byteOffset":73268,"target":34963},{"buffer":0,"byteLength":6996,"byteOffset":76120,"target":34962},{"buffer":0,"byteLength":6996,"byteOffset":83116,"target":34962},{"buffer":0,"byteLength":4664,"byteOffset":90112,"target":34962},{"buffer":0,"byteLength":924,"byteOffset":94776,"target":34963},{"buffer":0,"byteLength":2712,"byteOffset":95700,"target":34962},{"buffer":0,"byteLength":2712,"byteOffset":98412,"target":34962},{"buffer":0,"byteLength":1808,"byteOffset":101124,"target":34962},{"buffer":0,"byteLength":24,"byteOffset":102932,"target":34963},{"buffer":0,"byteLength":96,"byteOffset":102956,"target":34962},{"buffer":0,"byteLength":96,"byteOffset":103052,"target":34962},{"buffer":0,"byteLength":64,"byteOffset":103148,"target":34962},{"buffer":0,"byteLength":24,"byteOffset":103212,"target":34963},{"buffer":0,"byteLength":96,"byteOffset":103236,"target":34962},{"buffer":0,"byteLength":96,"byteOffset":103332,"target":34962},{"buffer":0,"byteLength":64,"byteOffset":103428,"target":34962},{"buffer":0,"byteLength":24,"byteOffset":103492,"target":34963},{"buffer":0,"byteLength":96,"byteOffset":103516,"target":34962},{"buffer":0,"byteLength":96,"byteOffset":103612,"target":34962},{"buffer":0,"byteLength":64,"byteOffset":103708,"target":34962}],"buffers":[{"byteLength":103772,"uri":"Interior_Wall_Door_03.bin"}],"images":[{"name":"Wall_01_A","uri":"Wall_01_A.tga"},{"name":"Directors_Door_A","uri":"Directors_Door_A.tga"},{"name":"Glass_A","uri":"Glass_A.tga"}],"materials":[{"alphaMode":"OPAQUE","doubleSided":false,"extras":{"fromFBX":{"isTruePBR":false,"shadingModel":"Phong"}},"name":"Wall_01","pbrMetallicRoughness":{"baseColorFactor":[1,1,1,1],"baseColorTexture":{"index":0,"texCoord":0},"metallicFactor":0.400000005960464,"roughnessFactor":0.272165536880493}},{"alphaMode":"OPAQUE","doubleSided":false,"extras":{"fromFBX":{"isTruePBR":false,"shadingModel":"Phong"}},"name":"Wall_02","pbrMetallicRoughness":{"baseColorFactor":[1,1,1,1],"baseColorTexture":{"index":0,"texCoord":0},"metallicFactor":0.400000005960464,"roughnessFactor":0.272165536880493}},{"alphaMode":"OPAQUE","doubleSided":false,"extras":{"fromFBX":{"isTruePBR":false,"shadingModel":"Phong"}},"name":"Directors_Door","pbrMetallicRoughness":{"baseColorFactor":[1,1,1,1],"baseColorTexture":{"index":1,"texCoord":0},"metallicFactor":0.400000005960464,"roughnessFactor":0.272165536880493}},{"alphaMode":"OPAQUE","doubleSided":false,"extras":{"fromFBX":{"isTruePBR":false,"shadingModel":"Phong"}},"name":"Glass(Fade)","pbrMetallicRoughness":{"baseColorFactor":[1,1,1,1],"baseColorTexture":{"index":2,"texCoord":0},"metallicFactor":0.400000005960464,"roughnessFactor":0.272165536880493}}],"meshes":[{"name":"Interior_Wall_Door_03_LOD0","primitives":[{"attributes":{"NORMAL":2,"POSITION":1,"TEXCOORD_0":3},"indices":0,"material":0,"mode":4},{"attributes":{"NORMAL":10,"POSITION":9,"TEXCOORD_0":11},"indices":8,"material":1,"mode":4},{"attributes":{"NORMAL":18,"POSITION":17,"TEXCOORD_0":19},"indices":16,"material":2,"mode":4}]},{"name":"Interior_Wall_Door_03_LOD1","primitives":[{"attributes":{"NORMAL":6,"POSITION":5,"TEXCOORD_0":7},"indices":4,"material":0,"mode":4},{"attributes":{"NORMAL":14,"POSITION":13,"TEXCOORD_0":15},"indices":12,"material":1,"mode":4},{"attributes":{"NORMAL":22,"POSITION":21,"TEXCOORD_0":23},"indices":20,"material":2,"mode":4}]},{"name":"Directors_Door_LOD0","primitives":[{"attributes":{"NORMAL":26,"POSITION":25,"TEXCOORD_0":27},"indices":24,"material":2,"mode":4},{"attributes":{"NORMAL":38,"POSITION":37,"TEXCOORD_0":39},"indices":36,"material":3,"mode":4}]},{"name":"Directors_Door_LOD1","primitives":[{"attributes":{"NORMAL":30,"POSITION":29,"TEXCOORD_0":31},"indices":28,"material":2,"mode":4},{"attributes":{"NORMAL":42,"POSITION":41,"TEXCOORD_0":43},"indices":40,"material":3,"mode":4}]},{"name":"Directors_Door_LOD2","primitives":[{"attributes":{"NORMAL":34,"POSITION":33,"TEXCOORD_0":35},"indices":32,"material":2,"mode":4},{"attributes":{"NORMAL":46,"POSITION":45,"TEXCOORD_0":47},"indices":44,"material":3,"mode":4}]}],"nodes":[{"mesh":0,"name":"Interior_Wall_Door_03_LOD0","rotation":[0,0,0,1],"scale":[1,1,1],"translation":[0,0,0]},{"mesh":1,"name":"Interior_Wall_Door_03_LOD1","rotation":[0,0,0,1],"scale":[1,1,1],"translation":[0,0,0]},{"children":[3,4],"mesh":2,"name":"Directors_Door_LOD0","rotation":[0,0,0,1],"scale":[1,1,1],"translation":[0.0267257690429688,0.0294646024703979,2.57203674316406]},{"mesh":3,"name":"Directors_Door_LOD1","rotation":[0,0,0,1],"scale":[1,1,1],"translation":[0,0,0]},{"mesh":4,"name":"Directors_Door_LOD2","rotation":[0,0,0,1],"scale":[1,1,1],"translation":[0,0,0]}],"samplers":[{}],"scene":0,"scenes":[{"name":"Root Scene","nodes":[0,1,2]}],"textures":[{"name":"base_color_texture","sampler":0,"source":0},{"name":"base_color_texture","sampler":0,"source":1},{"name":"base_color_texture","sampler":0,"source":2}]}