{"accessors":[{"bufferView":0,"byteOffset":0,"componentType":5123,"count":486,"type":"SCALAR"},{"bufferView":1,"byteOffset":0,"componentType":5126,"count":189,"max":[2.00000238418579,4,0.0539286136627197],"min":[-0.05392849445343,-0.00123870372772,-2.05392837524414],"type":"VEC3"},{"bufferView":2,"byteOffset":0,"componentType":5126,"count":189,"type":"VEC3"},{"bufferView":3,"byteOffset":0,"componentType":5126,"count":189,"type":"VEC2"},{"bufferView":4,"byteOffset":0,"componentType":5123,"count":162,"type":"SCALAR"},{"bufferView":5,"byteOffset":0,"componentType":5126,"count":72,"max":[2.00000214576721,4,-0.0000004227974],"min":[0.00000169356326296111,-0.00123834609985,-2.00000047683716],"type":"VEC3"},{"bufferView":6,"byteOffset":0,"componentType":5126,"count":72,"type":"VEC3"},{"bufferView":7,"byteOffset":0,"componentType":5126,"count":72,"type":"VEC2"}],"asset":{"generator":"FBX2glTF v0.13.1","version":"2.0"},"bufferViews":[{"buffer":0,"byteLength":972,"byteOffset":0,"target":34963},{"buffer":0,"byteLength":2268,"byteOffset":972,"target":34962},{"buffer":0,"byteLength":2268,"byteOffset":3240,"target":34962},{"buffer":0,"byteLength":1512,"byteOffset":5508,"target":34962},{"buffer":0,"byteLength":324,"byteOffset":7020,"target":34963},{"buffer":0,"byteLength":864,"byteOffset":7344,"target":34962},{"buffer":0,"byteLength":864,"byteOffset":8208,"target":34962},{"buffer":0,"byteLength":576,"byteOffset":9072,"target":34962}],"buffers":[{"byteLength":9648,"uri":"Interior_Wall_Angle_03.bin"}],"images":[{"name":"Wall_01_A","uri":"Wall_01_A.tga"}],"materials":[{"alphaMode":"OPAQUE","doubleSided":false,"extras":{"fromFBX":{"isTruePBR":false,"shadingModel":"Phong"}},"name":"Wall_01","pbrMetallicRoughness":{"baseColorFactor":[1,1,1,1],"baseColorTexture":{"index":0,"texCoord":0},"metallicFactor":0.400000005960464,"roughnessFactor":0.272165536880493}},{"alphaMode":"OPAQUE","doubleSided":false,"extras":{"fromFBX":{"isTruePBR":false,"shadingModel":"Phong"}},"name":"Wall_02","pbrMetallicRoughness":{"baseColorFactor":[1,1,1,1],"baseColorTexture":{"index":0,"texCoord":0},"metallicFactor":0.400000005960464,"roughnessFactor":0.272165536880493}}],"meshes":[{"name":"Interior_Wall_Angle_03","primitives":[{"attributes":{"NORMAL":2,"POSITION":1,"TEXCOORD_0":3},"indices":0,"material":0,"mode":4},{"attributes":{"NORMAL":6,"POSITION":5,"TEXCOORD_0":7},"indices":4,"material":1,"mode":4}]}],"nodes":[{"mesh":0,"name":"Interior_Wall_Angle_03","rotation":[0,0,0,1],"scale":[1,1,1],"translation":[0,0,0]}],"samplers":[{}],"scene":0,"scenes":[{"name":"Root Scene","nodes":[0]}],"textures":[{"name":"base_color_texture","sampler":0,"source":0}]}