{"accessors":[{"bufferView":0,"byteOffset":0,"componentType":5123,"count":2160,"type":"SCALAR"},{"bufferView":1,"byteOffset":0,"componentType":5126,"count":726,"max":[0.102861419320107,2.2041642665863,1.14310455322266],"min":[-0.06274961680174,0,-0.00750315189362],"type":"VEC3"},{"bufferView":2,"byteOffset":0,"componentType":5126,"count":726,"type":"VEC3"},{"bufferView":3,"byteOffset":0,"componentType":5126,"count":726,"type":"VEC2"},{"bufferView":4,"byteOffset":0,"componentType":5123,"count":1119,"type":"SCALAR"},{"bufferView":5,"byteOffset":0,"componentType":5126,"count":464,"max":[0.102380633354187,2.2041642665863,1.14310455322266],"min":[-0.06227372959256,0,-0.00756502244622],"type":"VEC3"},{"bufferView":6,"byteOffset":0,"componentType":5126,"count":464,"type":"VEC3"},{"bufferView":7,"byteOffset":0,"componentType":5126,"count":464,"type":"VEC2"},{"bufferView":8,"byteOffset":0,"componentType":5123,"count":192,"type":"SCALAR"},{"bufferView":9,"byteOffset":0,"componentType":5126,"count":112,"max":[0.0512132495641708,2.2041642665863,1.14310455322266],"min":[-0.01362331677228,0,0],"type":"VEC3"},{"bufferView":10,"byteOffset":0,"componentType":5126,"count":112,"type":"VEC3"},{"bufferView":11,"byteOffset":0,"componentType":5126,"count":112,"type":"VEC2"},{"bufferView":12,"byteOffset":0,"componentType":5123,"count":234,"type":"SCALAR"},{"bufferView":13,"byteOffset":0,"componentType":5126,"count":156,"max":[0.0597213171422482,2.3036036491394,2.66291308403015],"min":[-0.06354898959398,-0.00429989024997,1.33708655834198],"type":"VEC3"},{"bufferView":14,"byteOffset":0,"componentType":5126,"count":156,"type":"VEC3"},{"bufferView":15,"byteOffset":0,"componentType":5126,"count":156,"type":"VEC2"},{"bufferView":16,"byteOffset":0,"componentType":5123,"count":156,"type":"SCALAR"},{"bufferView":17,"byteOffset":0,"componentType":5126,"count":98,"max":[0.0597213171422482,2.3036036491394,2.66291308403015],"min":[-0.06354898959398,-0.00429989024997,1.33708655834198],"type":"VEC3"},{"bufferView":18,"byteOffset":0,"componentType":5126,"count":98,"type":"VEC3"},{"bufferView":19,"byteOffset":0,"componentType":5126,"count":98,"type":"VEC2"},{"bufferView":20,"byteOffset":0,"componentType":5123,"count":12,"type":"SCALAR"},{"bufferView":21,"byteOffset":0,"componentType":5126,"count":8,"max":[0.0397206619381905,1.76617538928986,0.796392977237701],"min":[0.00064275425393134,1.32904291152954,0.354081571102142],"type":"VEC3"},{"bufferView":22,"byteOffset":0,"componentType":5126,"count":8,"type":"VEC3"},{"bufferView":23,"byteOffset":0,"componentType":5126,"count":8,"type":"VEC2"},{"bufferView":24,"byteOffset":0,"componentType":5123,"count":12,"type":"SCALAR"},{"bufferView":25,"byteOffset":0,"componentType":5126,"count":8,"max":[0.0397206619381905,1.76617538928986,0.796392977237701],"min":[0.00064275425393134,1.32904291152954,0.354081571102142],"type":"VEC3"},{"bufferView":26,"byteOffset":0,"componentType":5126,"count":8,"type":"VEC3"},{"bufferView":27,"byteOffset":0,"componentType":5126,"count":8,"type":"VEC2"},{"bufferView":28,"byteOffset":0,"componentType":5123,"count":12,"type":"SCALAR"},{"bufferView":29,"byteOffset":0,"componentType":5126,"count":8,"max":[0.0397206619381905,1.76617538928986,0.796392977237701],"min":[0.00064275425393134,1.32904291152954,0.354081571102142],"type":"VEC3"},{"bufferView":30,"byteOffset":0,"componentType":5126,"count":8,"type":"VEC3"},{"bufferView":31,"byteOffset":0,"componentType":5126,"count":8,"type":"VEC2"},{"bufferView":32,"byteOffset":0,"componentType":5123,"count":450,"type":"SCALAR"},{"bufferView":33,"byteOffset":0,"componentType":5126,"count":179,"max":[0.0402851104736328,4,4],"min":[-0.25392949581146,-0.00339829921722,0],"type":"VEC3"},{"bufferView":34,"byteOffset":0,"componentType":5126,"count":179,"type":"VEC3"},{"bufferView":35,"byteOffset":0,"componentType":5126,"count":179,"type":"VEC2"},{"bufferView":36,"byteOffset":0,"componentType":5123,"count":210,"type":"SCALAR"},{"bufferView":37,"byteOffset":0,"componentType":5126,"count":97,"max":[0.0202534198760986,4,4],"min":[-0.25392949581146,-0.00339829921722,0],"type":"VEC3"},{"bufferView":38,"byteOffset":0,"componentType":5126,"count":97,"type":"VEC3"},{"bufferView":39,"byteOffset":0,"componentType":5126,"count":97,"type":"VEC2"},{"bufferView":40,"byteOffset":0,"componentType":5123,"count":120,"type":"SCALAR"},{"bufferView":41,"byteOffset":0,"componentType":5126,"count":55,"max":[0.0539282113313675,4,4],"min":[-0.00241836905479,-0.00123870372772,0],"type":"VEC3"},{"bufferView":42,"byteOffset":0,"componentType":5126,"count":55,"type":"VEC3"},{"bufferView":43,"byteOffset":0,"componentType":5126,"count":55,"type":"VEC2"},{"bufferView":44,"byteOffset":0,"componentType":5123,"count":84,"type":"SCALAR"},{"bufferView":45,"byteOffset":0,"componentType":5126,"count":44,"max":[0.0539282113313675,4,4],"min":[-0.00241836905479,-0.00123870372772,0],"type":"VEC3"},{"bufferView":46,"byteOffset":0,"componentType":5126,"count":44,"type":"VEC3"},{"bufferView":47,"byteOffset":0,"componentType":5126,"count":44,"type":"VEC2"}],"asset":{"generator":"FBX2glTF v0.13.1","version":"2.0"},"bufferViews":[{"buffer":0,"byteLength":4320,"byteOffset":0,"target":34963},{"buffer":0,"byteLength":8712,"byteOffset":4320,"target":34962},{"buffer":0,"byteLength":8712,"byteOffset":13032,"target":34962},{"buffer":0,"byteLength":5808,"byteOffset":21744,"target":34962},{"buffer":0,"byteLength":2238,"byteOffset":27552,"target":34963},{"buffer":0,"byteLength":5568,"byteOffset":29792,"target":34962},{"buffer":0,"byteLength":5568,"byteOffset":35360,"target":34962},{"buffer":0,"byteLength":3712,"byteOffset":40928,"target":34962},{"buffer":0,"byteLength":384,"byteOffset":44640,"target":34963},{"buffer":0,"byteLength":1344,"byteOffset":45024,"target":34962},{"buffer":0,"byteLength":1344,"byteOffset":46368,"target":34962},{"buffer":0,"byteLength":896,"byteOffset":47712,"target":34962},{"buffer":0,"byteLength":468,"byteOffset":48608,"target":34963},{"buffer":0,"byteLength":1872,"byteOffset":49076,"target":34962},{"buffer":0,"byteLength":1872,"byteOffset":50948,"target":34962},{"buffer":0,"byteLength":1248,"byteOffset":52820,"target":34962},{"buffer":0,"byteLength":312,"byteOffset":54068,"target":34963},{"buffer":0,"byteLength":1176,"byteOffset":54380,"target":34962},{"buffer":0,"byteLength":1176,"byteOffset":55556,"target":34962},{"buffer":0,"byteLength":784,"byteOffset":56732,"target":34962},{"buffer":0,"byteLength":24,"byteOffset":57516,"target":34963},{"buffer":0,"byteLength":96,"byteOffset":57540,"target":34962},{"buffer":0,"byteLength":96,"byteOffset":57636,"target":34962},{"buffer":0,"byteLength":64,"byteOffset":57732,"target":34962},{"buffer":0,"byteLength":24,"byteOffset":57796,"target":34963},{"buffer":0,"byteLength":96,"byteOffset":57820,"target":34962},{"buffer":0,"byteLength":96,"byteOffset":57916,"target":34962},{"buffer":0,"byteLength":64,"byteOffset":58012,"target":34962},{"buffer":0,"byteLength":24,"byteOffset":58076,"target":34963},{"buffer":0,"byteLength":96,"byteOffset":58100,"target":34962},{"buffer":0,"byteLength":96,"byteOffset":58196,"target":34962},{"buffer":0,"byteLength":64,"byteOffset":58292,"target":34962},{"buffer":0,"byteLength":900,"byteOffset":58356,"target":34963},{"buffer":0,"byteLength":2148,"byteOffset":59256,"target":34962},{"buffer":0,"byteLength":2148,"byteOffset":61404,"target":34962},{"buffer":0,"byteLength":1432,"byteOffset":63552,"target":34962},{"buffer":0,"byteLength":420,"byteOffset":64984,"target":34963},{"buffer":0,"byteLength":1164,"byteOffset":65404,"target":34962},{"buffer":0,"byteLength":1164,"byteOffset":66568,"target":34962},{"buffer":0,"byteLength":776,"byteOffset":67732,"target":34962},{"buffer":0,"byteLength":240,"byteOffset":68508,"target":34963},{"buffer":0,"byteLength":660,"byteOffset":68748,"target":34962},{"buffer":0,"byteLength":660,"byteOffset":69408,"target":34962},{"buffer":0,"byteLength":440,"byteOffset":70068,"target":34962},{"buffer":0,"byteLength":168,"byteOffset":70508,"target":34963},{"buffer":0,"byteLength":528,"byteOffset":70676,"target":34962},{"buffer":0,"byteLength":528,"byteOffset":71204,"target":34962},{"buffer":0,"byteLength":352,"byteOffset":71732,"target":34962}],"buffers":[{"byteLength":72084,"uri":"Interior_Wall_Door_01.bin"}],"images":[{"name":"Interior_Door_A","uri":"Interior_Door_A.tga"},{"name":"Glass_A","uri":"Glass_A.tga"},{"name":"Wall_01_A","uri":"Wall_01_A.tga"}],"materials":[{"alphaMode":"OPAQUE","doubleSided":false,"extras":{"fromFBX":{"isTruePBR":false,"shadingModel":"Phong"}},"name":"Interior_Door","pbrMetallicRoughness":{"baseColorFactor":[1,1,1,1],"baseColorTexture":{"index":0,"texCoord":0},"metallicFactor":0.400000005960464,"roughnessFactor":0.272165536880493}},{"alphaMode":"OPAQUE","doubleSided":false,"extras":{"fromFBX":{"isTruePBR":false,"shadingModel":"Phong"}},"name":"Glass","pbrMetallicRoughness":{"baseColorFactor":[1,1,1,1],"baseColorTexture":{"index":1,"texCoord":0},"metallicFactor":0.400000005960464,"roughnessFactor":0.272165536880493}},{"alphaMode":"OPAQUE","doubleSided":false,"extras":{"fromFBX":{"isTruePBR":false,"shadingModel":"Phong"}},"name":"Wall_01","pbrMetallicRoughness":{"baseColorFactor":[1,1,1,1],"baseColorTexture":{"index":2,"texCoord":0},"metallicFactor":0.400000005960464,"roughnessFactor":0.272165536880493}},{"alphaMode":"OPAQUE","doubleSided":false,"extras":{"fromFBX":{"isTruePBR":false,"shadingModel":"Phong"}},"name":"Wall_02","pbrMetallicRoughness":{"baseColorFactor":[1,1,1,1],"baseColorTexture":{"index":2,"texCoord":0},"metallicFactor":0.400000005960464,"roughnessFactor":0.272165536880493}}],"meshes":[{"name":"Interior_Door_01_LOD0","primitives":[{"attributes":{"NORMAL":2,"POSITION":1,"TEXCOORD_0":3},"indices":0,"material":0,"mode":4},{"attributes":{"NORMAL":22,"POSITION":21,"TEXCOORD_0":23},"indices":20,"material":1,"mode":4}]},{"name":"Interior_Door_01_LOD1","primitives":[{"attributes":{"NORMAL":6,"POSITION":5,"TEXCOORD_0":7},"indices":4,"material":0,"mode":4},{"attributes":{"NORMAL":26,"POSITION":25,"TEXCOORD_0":27},"indices":24,"material":1,"mode":4}]},{"name":"Interior_Door_01_LOD2","primitives":[{"attributes":{"NORMAL":10,"POSITION":9,"TEXCOORD_0":11},"indices":8,"material":0,"mode":4},{"attributes":{"NORMAL":30,"POSITION":29,"TEXCOORD_0":31},"indices":28,"material":1,"mode":4}]},{"name":"Interior_Wall_Door_01_LOD0","primitives":[{"attributes":{"NORMAL":14,"POSITION":13,"TEXCOORD_0":15},"indices":12,"material":0,"mode":4},{"attributes":{"NORMAL":34,"POSITION":33,"TEXCOORD_0":35},"indices":32,"material":2,"mode":4},{"attributes":{"NORMAL":42,"POSITION":41,"TEXCOORD_0":43},"indices":40,"material":3,"mode":4}]},{"name":"Interior_Wall_Door_01_LOD1","primitives":[{"attributes":{"NORMAL":18,"POSITION":17,"TEXCOORD_0":19},"indices":16,"material":0,"mode":4},{"attributes":{"NORMAL":38,"POSITION":37,"TEXCOORD_0":39},"indices":36,"material":2,"mode":4},{"attributes":{"NORMAL":46,"POSITION":45,"TEXCOORD_0":47},"indices":44,"material":3,"mode":4}]}],"nodes":[{"children":[1,2],"mesh":0,"name":"Interior_Door_01_LOD0","rotation":[0,0,0,1],"scale":[1,1,1],"translation":[-0.04071044921875,0.0265581607818604,1.41735076904297]},{"mesh":1,"name":"Interior_Door_01_LOD1","rotation":[0,0,0,1],"scale":[1,1,1],"translation":[0,0.00000000238418573772492,0]},{"mesh":2,"name":"Interior_Door_01_LOD2","rotation":[0,0,0,1],"scale":[1,1,1],"translation":[0,0.00000000238418573772492,0]},{"mesh":3,"name":"Interior_Wall_Door_01_LOD0","rotation":[0,0,0,1],"scale":[1,1,1],"translation":[0,0,0]},{"mesh":4,"name":"Interior_Wall_Door_01_LOD1","rotation":[0,0,0,1],"scale":[1,1,1],"translation":[0,0,0]}],"samplers":[{}],"scene":0,"scenes":[{"name":"Root Scene","nodes":[0,3,4]}],"textures":[{"name":"base_color_texture","sampler":0,"source":0},{"name":"base_color_texture","sampler":0,"source":1},{"name":"base_color_texture","sampler":0,"source":2}]}