{"accessors":[{"bufferView":0,"byteOffset":0,"componentType":5123,"count":798,"type":"SCALAR"},{"bufferView":1,"byteOffset":0,"componentType":5126,"count":411,"max":[0.0631647109985352,4,4],"min":[-0.26339054107666,-0.00339829921722,0],"type":"VEC3"},{"bufferView":2,"byteOffset":0,"componentType":5126,"count":411,"type":"VEC3"},{"bufferView":3,"byteOffset":0,"componentType":5126,"count":411,"type":"VEC2"},{"bufferView":4,"byteOffset":0,"componentType":5123,"count":366,"type":"SCALAR"},{"bufferView":5,"byteOffset":0,"componentType":5126,"count":201,"max":[0.0631647109985352,4,4],"min":[-0.26339054107666,-0.00339829921722,0],"type":"VEC3"},{"bufferView":6,"byteOffset":0,"componentType":5126,"count":201,"type":"VEC3"},{"bufferView":7,"byteOffset":0,"componentType":5126,"count":201,"type":"VEC2"},{"bufferView":8,"byteOffset":0,"componentType":5123,"count":120,"type":"SCALAR"},{"bufferView":9,"byteOffset":0,"componentType":5126,"count":55,"max":[0.0539283901453018,4,4],"min":[-0.00241819024086,-0.00123870372772,0],"type":"VEC3"},{"bufferView":10,"byteOffset":0,"componentType":5126,"count":55,"type":"VEC3"},{"bufferView":11,"byteOffset":0,"componentType":5126,"count":55,"type":"VEC2"},{"bufferView":12,"byteOffset":0,"componentType":5123,"count":84,"type":"SCALAR"},{"bufferView":13,"byteOffset":0,"componentType":5126,"count":44,"max":[0.0539283901453018,4,4],"min":[-0.00241819024086,-0.00123870372772,0],"type":"VEC3"},{"bufferView":14,"byteOffset":0,"componentType":5126,"count":44,"type":"VEC3"},{"bufferView":15,"byteOffset":0,"componentType":5126,"count":44,"type":"VEC2"},{"bufferView":16,"byteOffset":0,"componentType":5123,"count":258,"type":"SCALAR"},{"bufferView":17,"byteOffset":0,"componentType":5126,"count":164,"max":[0.0597213171422482,2.3036036491394,2.66291308403015],"min":[-0.06354898959398,-0.00264539732598,1.33708655834198],"type":"VEC3"},{"bufferView":18,"byteOffset":0,"componentType":5126,"count":164,"type":"VEC3"},{"bufferView":19,"byteOffset":0,"componentType":5126,"count":164,"type":"VEC2"},{"bufferView":20,"byteOffset":0,"componentType":5123,"count":2160,"type":"SCALAR"},{"bufferView":21,"byteOffset":0,"componentType":5126,"count":726,"max":[0.103572174906731,2.18780446052551,1.14310455322266],"min":[-0.06881169229746,0,-0.00972950458527],"type":"VEC3"},{"bufferView":22,"byteOffset":0,"componentType":5126,"count":726,"type":"VEC3"},{"bufferView":23,"byteOffset":0,"componentType":5126,"count":726,"type":"VEC2"},{"bufferView":24,"byteOffset":0,"componentType":5123,"count":1122,"type":"SCALAR"},{"bufferView":25,"byteOffset":0,"componentType":5126,"count":465,"max":[0.102729663252831,2.18780446052551,1.14310455322266],"min":[-0.06800910830498,0,-0.00979161262512],"type":"VEC3"},{"bufferView":26,"byteOffset":0,"componentType":5126,"count":465,"type":"VEC3"},{"bufferView":27,"byteOffset":0,"componentType":5126,"count":465,"type":"VEC2"},{"bufferView":28,"byteOffset":0,"componentType":5123,"count":288,"type":"SCALAR"},{"bufferView":29,"byteOffset":0,"componentType":5126,"count":176,"max":[0.044167298823595,2.18780446052551,1.14310455322266],"min":[-0.01173669099808,0,0],"type":"VEC3"},{"bufferView":30,"byteOffset":0,"componentType":5126,"count":176,"type":"VEC3"},{"bufferView":31,"byteOffset":0,"componentType":5126,"count":176,"type":"VEC2"},{"bufferView":32,"byteOffset":0,"componentType":5123,"count":138,"type":"SCALAR"},{"bufferView":33,"byteOffset":0,"componentType":5126,"count":86,"max":[0.0597213171422482,2.3036036491394,2.66291308403015],"min":[-0.06354898959398,-0.00264539732598,1.33708655834198],"type":"VEC3"},{"bufferView":34,"byteOffset":0,"componentType":5126,"count":86,"type":"VEC3"},{"bufferView":35,"byteOffset":0,"componentType":5126,"count":86,"type":"VEC2"},{"bufferView":36,"byteOffset":0,"componentType":5123,"count":12,"type":"SCALAR"},{"bufferView":37,"byteOffset":0,"componentType":5126,"count":8,"max":[0.0334335528314114,2.05860567092896,1.01796531677246],"min":[-0.00112619623542,1.26136589050293,0.756931722164154],"type":"VEC3"},{"bufferView":38,"byteOffset":0,"componentType":5126,"count":8,"type":"VEC3"},{"bufferView":39,"byteOffset":0,"componentType":5126,"count":8,"type":"VEC2"},{"bufferView":40,"byteOffset":0,"componentType":5123,"count":12,"type":"SCALAR"},{"bufferView":41,"byteOffset":0,"componentType":5126,"count":8,"max":[0.0334335528314114,2.05860567092896,1.01796531677246],"min":[-0.00112619623542,1.26136589050293,0.756931722164154],"type":"VEC3"},{"bufferView":42,"byteOffset":0,"componentType":5126,"count":8,"type":"VEC3"},{"bufferView":43,"byteOffset":0,"componentType":5126,"count":8,"type":"VEC2"},{"bufferView":44,"byteOffset":0,"componentType":5123,"count":12,"type":"SCALAR"},{"bufferView":45,"byteOffset":0,"componentType":5126,"count":8,"max":[0.0334335528314114,2.05860567092896,1.01796531677246],"min":[-0.00112619623542,1.26136589050293,0.756931722164154],"type":"VEC3"},{"bufferView":46,"byteOffset":0,"componentType":5126,"count":8,"type":"VEC3"},{"bufferView":47,"byteOffset":0,"componentType":5126,"count":8,"type":"VEC2"}],"asset":{"generator":"FBX2glTF v0.13.1","version":"2.0"},"bufferViews":[{"buffer":0,"byteLength":1596,"byteOffset":0,"target":34963},{"buffer":0,"byteLength":4932,"byteOffset":1596,"target":34962},{"buffer":0,"byteLength":4932,"byteOffset":6528,"target":34962},{"buffer":0,"byteLength":3288,"byteOffset":11460,"target":34962},{"buffer":0,"byteLength":732,"byteOffset":14748,"target":34963},{"buffer":0,"byteLength":2412,"byteOffset":15480,"target":34962},{"buffer":0,"byteLength":2412,"byteOffset":17892,"target":34962},{"buffer":0,"byteLength":1608,"byteOffset":20304,"target":34962},{"buffer":0,"byteLength":240,"byteOffset":21912,"target":34963},{"buffer":0,"byteLength":660,"byteOffset":22152,"target":34962},{"buffer":0,"byteLength":660,"byteOffset":22812,"target":34962},{"buffer":0,"byteLength":440,"byteOffset":23472,"target":34962},{"buffer":0,"byteLength":168,"byteOffset":23912,"target":34963},{"buffer":0,"byteLength":528,"byteOffset":24080,"target":34962},{"buffer":0,"byteLength":528,"byteOffset":24608,"target":34962},{"buffer":0,"byteLength":352,"byteOffset":25136,"target":34962},{"buffer":0,"byteLength":516,"byteOffset":25488,"target":34963},{"buffer":0,"byteLength":1968,"byteOffset":26004,"target":34962},{"buffer":0,"byteLength":1968,"byteOffset":27972,"target":34962},{"buffer":0,"byteLength":1312,"byteOffset":29940,"target":34962},{"buffer":0,"byteLength":4320,"byteOffset":31252,"target":34963},{"buffer":0,"byteLength":8712,"byteOffset":35572,"target":34962},{"buffer":0,"byteLength":8712,"byteOffset":44284,"target":34962},{"buffer":0,"byteLength":5808,"byteOffset":52996,"target":34962},{"buffer":0,"byteLength":2244,"byteOffset":58804,"target":34963},{"buffer":0,"byteLength":5580,"byteOffset":61048,"target":34962},{"buffer":0,"byteLength":5580,"byteOffset":66628,"target":34962},{"buffer":0,"byteLength":3720,"byteOffset":72208,"target":34962},{"buffer":0,"byteLength":576,"byteOffset":75928,"target":34963},{"buffer":0,"byteLength":2112,"byteOffset":76504,"target":34962},{"buffer":0,"byteLength":2112,"byteOffset":78616,"target":34962},{"buffer":0,"byteLength":1408,"byteOffset":80728,"target":34962},{"buffer":0,"byteLength":276,"byteOffset":82136,"target":34963},{"buffer":0,"byteLength":1032,"byteOffset":82412,"target":34962},{"buffer":0,"byteLength":1032,"byteOffset":83444,"target":34962},{"buffer":0,"byteLength":688,"byteOffset":84476,"target":34962},{"buffer":0,"byteLength":24,"byteOffset":85164,"target":34963},{"buffer":0,"byteLength":96,"byteOffset":85188,"target":34962},{"buffer":0,"byteLength":96,"byteOffset":85284,"target":34962},{"buffer":0,"byteLength":64,"byteOffset":85380,"target":34962},{"buffer":0,"byteLength":24,"byteOffset":85444,"target":34963},{"buffer":0,"byteLength":96,"byteOffset":85468,"target":34962},{"buffer":0,"byteLength":96,"byteOffset":85564,"target":34962},{"buffer":0,"byteLength":64,"byteOffset":85660,"target":34962},{"buffer":0,"byteLength":24,"byteOffset":85724,"target":34963},{"buffer":0,"byteLength":96,"byteOffset":85748,"target":34962},{"buffer":0,"byteLength":96,"byteOffset":85844,"target":34962},{"buffer":0,"byteLength":64,"byteOffset":85940,"target":34962}],"buffers":[{"byteLength":86004,"uri":"Interior_Wall_Door_02.bin"}],"images":[{"name":"Wall_01_A","uri":"Wall_01_A.tga"},{"name":"Interior_Door_A","uri":"Interior_Door_A.tga"},{"name":"Glass_A","uri":"Glass_A.tga"}],"materials":[{"alphaMode":"OPAQUE","doubleSided":false,"extras":{"fromFBX":{"isTruePBR":false,"shadingModel":"Phong"}},"name":"Wall_01","pbrMetallicRoughness":{"baseColorFactor":[1,1,1,1],"baseColorTexture":{"index":0,"texCoord":0},"metallicFactor":0.400000005960464,"roughnessFactor":0.272165536880493}},{"alphaMode":"OPAQUE","doubleSided":false,"extras":{"fromFBX":{"isTruePBR":false,"shadingModel":"Phong"}},"name":"Wall_02","pbrMetallicRoughness":{"baseColorFactor":[1,1,1,1],"baseColorTexture":{"index":0,"texCoord":0},"metallicFactor":0.400000005960464,"roughnessFactor":0.272165536880493}},{"alphaMode":"OPAQUE","doubleSided":false,"extras":{"fromFBX":{"isTruePBR":false,"shadingModel":"Phong"}},"name":"Interior_Door","pbrMetallicRoughness":{"baseColorFactor":[1,1,1,1],"baseColorTexture":{"index":1,"texCoord":0},"metallicFactor":0.400000005960464,"roughnessFactor":0.272165536880493}},{"alphaMode":"OPAQUE","doubleSided":false,"extras":{"fromFBX":{"isTruePBR":false,"shadingModel":"Phong"}},"name":"Glass","pbrMetallicRoughness":{"baseColorFactor":[1,1,1,1],"baseColorTexture":{"index":2,"texCoord":0},"metallicFactor":0.400000005960464,"roughnessFactor":0.272165536880493}}],"meshes":[{"name":"Interior_Wall_Door_02_LOD0","primitives":[{"attributes":{"NORMAL":2,"POSITION":1,"TEXCOORD_0":3},"indices":0,"material":0,"mode":4},{"attributes":{"NORMAL":10,"POSITION":9,"TEXCOORD_0":11},"indices":8,"material":1,"mode":4},{"attributes":{"NORMAL":18,"POSITION":17,"TEXCOORD_0":19},"indices":16,"material":2,"mode":4}]},{"name":"Interior_Wall_Door_02_LOD1","primitives":[{"attributes":{"NORMAL":6,"POSITION":5,"TEXCOORD_0":7},"indices":4,"material":0,"mode":4},{"attributes":{"NORMAL":14,"POSITION":13,"TEXCOORD_0":15},"indices":12,"material":1,"mode":4},{"attributes":{"NORMAL":34,"POSITION":33,"TEXCOORD_0":35},"indices":32,"material":2,"mode":4}]},{"name":"Interior_Door_02_LOD0","primitives":[{"attributes":{"NORMAL":22,"POSITION":21,"TEXCOORD_0":23},"indices":20,"material":2,"mode":4},{"attributes":{"NORMAL":38,"POSITION":37,"TEXCOORD_0":39},"indices":36,"material":3,"mode":4}]},{"name":"Interior_Door_02_LOD1","primitives":[{"attributes":{"NORMAL":26,"POSITION":25,"TEXCOORD_0":27},"indices":24,"material":2,"mode":4},{"attributes":{"NORMAL":42,"POSITION":41,"TEXCOORD_0":43},"indices":40,"material":3,"mode":4}]},{"name":"Interior_Door_02_LOD2","primitives":[{"attributes":{"NORMAL":30,"POSITION":29,"TEXCOORD_0":31},"indices":28,"material":2,"mode":4},{"attributes":{"NORMAL":46,"POSITION":45,"TEXCOORD_0":47},"indices":44,"material":3,"mode":4}]}],"nodes":[{"mesh":0,"name":"Interior_Wall_Door_02_LOD0","rotation":[0,0,0,1],"scale":[1,1,1],"translation":[0,0,0]},{"children":[2,3],"mesh":2,"name":"Interior_Door_02_LOD0","rotation":[0,0,0,1],"scale":[1,1,1],"translation":[-0.03830718994141,0.0437471196055412,1.46319115161896]},{"mesh":3,"name":"Interior_Door_02_LOD1","rotation":[0,0,0,1],"scale":[1,1,1],"translation":[0,0,0]},{"mesh":4,"name":"Interior_Door_02_LOD2","rotation":[0,0,0,1],"scale":[1,1,1],"translation":[0,0,0]},{"mesh":1,"name":"Interior_Wall_Door_02_LOD1","rotation":[0,0,0,1],"scale":[1,1,1],"translation":[0,0,0]}],"samplers":[{}],"scene":0,"scenes":[{"name":"Root Scene","nodes":[0,1,4]}],"textures":[{"name":"base_color_texture","sampler":0,"source":0},{"name":"base_color_texture","sampler":0,"source":1},{"name":"base_color_texture","sampler":0,"source":2}]}