{"accessors":[{"bufferView":0,"byteOffset":0,"componentType":5123,"count":108,"type":"SCALAR"},{"bufferView":1,"byteOffset":0,"componentType":5126,"count":48,"max":[-0.00000408891037,4,2.00000047683716],"min":[-2.00000214576721,-0.00123834609985,0.000000357627868652344],"type":"VEC3"},{"bufferView":2,"byteOffset":0,"componentType":5126,"count":48,"type":"VEC3"},{"bufferView":3,"byteOffset":0,"componentType":5126,"count":48,"type":"VEC2"},{"bufferView":4,"byteOffset":0,"componentType":5123,"count":270,"type":"SCALAR"},{"bufferView":5,"byteOffset":0,"componentType":5126,"count":114,"max":[0.0539283752441406,4,1.99999976158142],"min":[-2.00000238418579,-0.00123870372772,-0.05392846465111],"type":"VEC3"},{"bufferView":6,"byteOffset":0,"componentType":5126,"count":114,"type":"VEC3"},{"bufferView":7,"byteOffset":0,"componentType":5126,"count":114,"type":"VEC2"}],"asset":{"generator":"FBX2glTF v0.13.1","version":"2.0"},"bufferViews":[{"buffer":0,"byteLength":216,"byteOffset":0,"target":34963},{"buffer":0,"byteLength":576,"byteOffset":216,"target":34962},{"buffer":0,"byteLength":576,"byteOffset":792,"target":34962},{"buffer":0,"byteLength":384,"byteOffset":1368,"target":34962},{"buffer":0,"byteLength":540,"byteOffset":1752,"target":34963},{"buffer":0,"byteLength":1368,"byteOffset":2292,"target":34962},{"buffer":0,"byteLength":1368,"byteOffset":3660,"target":34962},{"buffer":0,"byteLength":912,"byteOffset":5028,"target":34962}],"buffers":[{"byteLength":5940,"uri":"Interior_Wall_Angle_02.bin"}],"images":[{"name":"Wall_01_A","uri":"Wall_01_A.tga"}],"materials":[{"alphaMode":"OPAQUE","doubleSided":false,"extras":{"fromFBX":{"isTruePBR":false,"shadingModel":"Phong"}},"name":"Wall_02","pbrMetallicRoughness":{"baseColorFactor":[1,1,1,1],"baseColorTexture":{"index":0,"texCoord":0},"metallicFactor":0.400000005960464,"roughnessFactor":0.272165536880493}},{"alphaMode":"OPAQUE","doubleSided":false,"extras":{"fromFBX":{"isTruePBR":false,"shadingModel":"Phong"}},"name":"Wall_01","pbrMetallicRoughness":{"baseColorFactor":[1,1,1,1],"baseColorTexture":{"index":0,"texCoord":0},"metallicFactor":0.400000005960464,"roughnessFactor":0.272165536880493}}],"meshes":[{"name":"Interior_Wall_Angle_02","primitives":[{"attributes":{"NORMAL":2,"POSITION":1,"TEXCOORD_0":3},"indices":0,"material":0,"mode":4},{"attributes":{"NORMAL":6,"POSITION":5,"TEXCOORD_0":7},"indices":4,"material":1,"mode":4}]}],"nodes":[{"mesh":0,"name":"Interior_Wall_Angle_02","rotation":[0,0,0,1],"scale":[1,1,1],"translation":[0,0,0]}],"samplers":[{}],"scene":0,"scenes":[{"name":"Root Scene","nodes":[0]}],"textures":[{"name":"base_color_texture","sampler":0,"source":0}]}