{"accessors":[{"bufferView":0,"byteOffset":0,"componentType":5123,"count":54,"type":"SCALAR"},{"bufferView":1,"byteOffset":0,"componentType":5126,"count":24,"max":[-0.19758160412312,4,4.00000047683716],"min":[-0.25392949581146,-0.00123870372772,0.000000238418579101562],"type":"VEC3"},{"bufferView":2,"byteOffset":0,"componentType":5126,"count":24,"type":"VEC3"},{"bufferView":3,"byteOffset":0,"componentType":5126,"count":24,"type":"VEC2"},{"bufferView":4,"byteOffset":0,"componentType":5123,"count":54,"type":"SCALAR"},{"bufferView":5,"byteOffset":0,"componentType":5126,"count":24,"max":[0.0539282113313675,4,4],"min":[-0.00241836905479,-0.00123870372772,0],"type":"VEC3"},{"bufferView":6,"byteOffset":0,"componentType":5126,"count":24,"type":"VEC3"},{"bufferView":7,"byteOffset":0,"componentType":5126,"count":24,"type":"VEC2"}],"asset":{"generator":"FBX2glTF v0.13.1","version":"2.0"},"bufferViews":[{"buffer":0,"byteLength":108,"byteOffset":0,"target":34963},{"buffer":0,"byteLength":288,"byteOffset":108,"target":34962},{"buffer":0,"byteLength":288,"byteOffset":396,"target":34962},{"buffer":0,"byteLength":192,"byteOffset":684,"target":34962},{"buffer":0,"byteLength":108,"byteOffset":876,"target":34963},{"buffer":0,"byteLength":288,"byteOffset":984,"target":34962},{"buffer":0,"byteLength":288,"byteOffset":1272,"target":34962},{"buffer":0,"byteLength":192,"byteOffset":1560,"target":34962}],"buffers":[{"byteLength":1752,"uri":"Interior_Wall_01.bin"}],"images":[{"name":"Wall_01_A","uri":"Wall_01_A.tga"}],"materials":[{"alphaMode":"OPAQUE","doubleSided":false,"extras":{"fromFBX":{"isTruePBR":false,"shadingModel":"Phong"}},"name":"Wall_01","pbrMetallicRoughness":{"baseColorFactor":[1,1,1,1],"baseColorTexture":{"index":0,"texCoord":0},"metallicFactor":0.400000005960464,"roughnessFactor":0.272165536880493}},{"alphaMode":"OPAQUE","doubleSided":false,"extras":{"fromFBX":{"isTruePBR":false,"shadingModel":"Phong"}},"name":"Wall_02","pbrMetallicRoughness":{"baseColorFactor":[0.800000011920929,0.800000011920929,0.800000011920929,1],"metallicFactor":0.400000005960464,"roughnessFactor":0.272165536880493}}],"meshes":[{"name":"Interior_Wall_01","primitives":[{"attributes":{"NORMAL":2,"POSITION":1,"TEXCOORD_0":3},"indices":0,"material":0,"mode":4},{"attributes":{"NORMAL":6,"POSITION":5,"TEXCOORD_0":7},"indices":4,"material":1,"mode":4}]}],"nodes":[{"mesh":0,"name":"Interior_Wall_01","rotation":[0,0,0,1],"scale":[1,1,1],"translation":[0,0,0]}],"samplers":[{}],"scene":0,"scenes":[{"name":"Root Scene","nodes":[0]}],"textures":[{"name":"base_color_texture","sampler":0,"source":0}]}