{"accessors":[{"bufferView":0,"byteOffset":0,"componentType":5123,"count":270,"type":"SCALAR"},{"bufferView":1,"byteOffset":0,"componentType":5126,"count":102,"max":[0.0539283752441406,4,3.99999952316284],"min":[-4.00000047683716,-0.00123870372772,-0.0539284311235],"type":"VEC3"},{"bufferView":2,"byteOffset":0,"componentType":5126,"count":102,"type":"VEC3"},{"bufferView":3,"byteOffset":0,"componentType":5126,"count":102,"type":"VEC2"},{"bufferView":4,"byteOffset":0,"componentType":5123,"count":108,"type":"SCALAR"},{"bufferView":5,"byteOffset":0,"componentType":5126,"count":48,"max":[-0.00000408291817,4,4.00000047683716],"min":[-4,-0.00123864412308,0.000000357627868652344],"type":"VEC3"},{"bufferView":6,"byteOffset":0,"componentType":5126,"count":48,"type":"VEC3"},{"bufferView":7,"byteOffset":0,"componentType":5126,"count":48,"type":"VEC2"}],"asset":{"generator":"FBX2glTF v0.13.1","version":"2.0"},"bufferViews":[{"buffer":0,"byteLength":540,"byteOffset":0,"target":34963},{"buffer":0,"byteLength":1224,"byteOffset":540,"target":34962},{"buffer":0,"byteLength":1224,"byteOffset":1764,"target":34962},{"buffer":0,"byteLength":816,"byteOffset":2988,"target":34962},{"buffer":0,"byteLength":216,"byteOffset":3804,"target":34963},{"buffer":0,"byteLength":576,"byteOffset":4020,"target":34962},{"buffer":0,"byteLength":576,"byteOffset":4596,"target":34962},{"buffer":0,"byteLength":384,"byteOffset":5172,"target":34962}],"buffers":[{"byteLength":5556,"uri":"Interior_Wall_Angle_01.bin"}],"images":[{"name":"Wall_01_A","uri":"Wall_01_A.tga"}],"materials":[{"alphaMode":"OPAQUE","doubleSided":false,"extras":{"fromFBX":{"isTruePBR":false,"shadingModel":"Phong"}},"name":"Wall_01","pbrMetallicRoughness":{"baseColorFactor":[1,1,1,1],"baseColorTexture":{"index":0,"texCoord":0},"metallicFactor":0.400000005960464,"roughnessFactor":0.272165536880493}},{"alphaMode":"OPAQUE","doubleSided":false,"extras":{"fromFBX":{"isTruePBR":false,"shadingModel":"Phong"}},"name":"Wall_02","pbrMetallicRoughness":{"baseColorFactor":[0.800000011920929,0.800000011920929,0.800000011920929,1],"metallicFactor":0.400000005960464,"roughnessFactor":0.272165536880493}}],"meshes":[{"name":"Interior_Wall_Angle_01","primitives":[{"attributes":{"NORMAL":2,"POSITION":1,"TEXCOORD_0":3},"indices":0,"material":0,"mode":4},{"attributes":{"NORMAL":6,"POSITION":5,"TEXCOORD_0":7},"indices":4,"material":1,"mode":4}]}],"nodes":[{"mesh":0,"name":"Interior_Wall_Angle_01","rotation":[0,0,0,1],"scale":[1,1,1],"translation":[0,0,0]}],"samplers":[{}],"scene":0,"scenes":[{"name":"Root Scene","nodes":[0]}],"textures":[{"name":"base_color_texture","sampler":0,"source":0}]}