{"accessors":[{"bufferView":0,"byteOffset":0,"componentType":5123,"count":948,"type":"SCALAR"},{"bufferView":1,"byteOffset":0,"componentType":5126,"count":614,"max":[2.64999985694885,1.5,4],"min":[-0.38932493329048,0,-0.38932383060455],"type":"VEC3"},{"bufferView":2,"byteOffset":0,"componentType":5126,"count":614,"type":"VEC3"},{"bufferView":3,"byteOffset":0,"componentType":5126,"count":614,"type":"VEC2"},{"bufferView":4,"byteOffset":0,"componentType":5123,"count":546,"type":"SCALAR"},{"bufferView":5,"byteOffset":0,"componentType":5126,"count":379,"max":[2.64999985694885,1.5,4],"min":[-0.38932493329048,-0.00000000000002,-0.38932383060455],"type":"VEC3"},{"bufferView":6,"byteOffset":0,"componentType":5126,"count":379,"type":"VEC3"},{"bufferView":7,"byteOffset":0,"componentType":5126,"count":379,"type":"VEC2"},{"bufferView":8,"byteOffset":0,"componentType":5123,"count":186,"type":"SCALAR"},{"bufferView":9,"byteOffset":0,"componentType":5126,"count":131,"max":[2.64999985694885,1.5,4],"min":[-0.38932493329048,-0.00000000000002,-0.38932383060455],"type":"VEC3"},{"bufferView":10,"byteOffset":0,"componentType":5126,"count":131,"type":"VEC3"},{"bufferView":11,"byteOffset":0,"componentType":5126,"count":131,"type":"VEC2"}],"asset":{"generator":"FBX2glTF v0.13.1","version":"2.0"},"bufferViews":[{"buffer":0,"byteLength":1896,"byteOffset":0,"target":34963},{"buffer":0,"byteLength":7368,"byteOffset":1896,"target":34962},{"buffer":0,"byteLength":7368,"byteOffset":9264,"target":34962},{"buffer":0,"byteLength":4912,"byteOffset":16632,"target":34962},{"buffer":0,"byteLength":1092,"byteOffset":21544,"target":34963},{"buffer":0,"byteLength":4548,"byteOffset":22636,"target":34962},{"buffer":0,"byteLength":4548,"byteOffset":27184,"target":34962},{"buffer":0,"byteLength":3032,"byteOffset":31732,"target":34962},{"buffer":0,"byteLength":372,"byteOffset":34764,"target":34963},{"buffer":0,"byteLength":1572,"byteOffset":35136,"target":34962},{"buffer":0,"byteLength":1572,"byteOffset":36708,"target":34962},{"buffer":0,"byteLength":1048,"byteOffset":38280,"target":34962}],"buffers":[{"byteLength":39328,"uri":"Parapet_04.bin"}],"images":[{"name":"Parapet_A","uri":"Parapet_A.tga"}],"materials":[{"alphaMode":"OPAQUE","doubleSided":false,"extras":{"fromFBX":{"isTruePBR":false,"shadingModel":"Phong"}},"name":"Parapet","pbrMetallicRoughness":{"baseColorFactor":[1,1,1,1],"baseColorTexture":{"index":0,"texCoord":0},"metallicFactor":0.400000005960464,"roughnessFactor":0.272165536880493}}],"meshes":[{"name":"Parapet_04_LOD0","primitives":[{"attributes":{"NORMAL":2,"POSITION":1,"TEXCOORD_0":3},"indices":0,"material":0,"mode":4}]},{"name":"Parapet_04_LOD1","primitives":[{"attributes":{"NORMAL":6,"POSITION":5,"TEXCOORD_0":7},"indices":4,"material":0,"mode":4}]},{"name":"Parapet_04_LOD2","primitives":[{"attributes":{"NORMAL":10,"POSITION":9,"TEXCOORD_0":11},"indices":8,"material":0,"mode":4}]}],"nodes":[{"mesh":0,"name":"Parapet_04_LOD0","rotation":[0,0,0,1],"scale":[1,1,1],"translation":[0,0,0]},{"mesh":1,"name":"Parapet_04_LOD1","rotation":[0,0,0,1],"scale":[1,1,1],"translation":[0,0,0]},{"mesh":2,"name":"Parapet_04_LOD2","rotation":[0,0,0,1],"scale":[1,1,1],"translation":[0,0,0]}],"samplers":[{}],"scene":0,"scenes":[{"name":"Root Scene","nodes":[0,1,2]}],"textures":[{"name":"base_color_texture","sampler":0,"source":0}]}