{"accessors":[{"bufferView":0,"byteOffset":0,"componentType":5123,"count":942,"type":"SCALAR"},{"bufferView":1,"byteOffset":0,"componentType":5126,"count":630,"max":[4,1,0.462418854236603],"min":[-0.46241834759712,0,-4],"type":"VEC3"},{"bufferView":2,"byteOffset":0,"componentType":5126,"count":630,"type":"VEC3"},{"bufferView":3,"byteOffset":0,"componentType":5126,"count":630,"type":"VEC2"},{"bufferView":4,"byteOffset":0,"componentType":5123,"count":450,"type":"SCALAR"},{"bufferView":5,"byteOffset":0,"componentType":5126,"count":294,"max":[4,1,0.462418347597122],"min":[-0.46241834759712,0,-4],"type":"VEC3"},{"bufferView":6,"byteOffset":0,"componentType":5126,"count":294,"type":"VEC3"},{"bufferView":7,"byteOffset":0,"componentType":5126,"count":294,"type":"VEC2"}],"asset":{"generator":"FBX2glTF v0.13.1","version":"2.0"},"bufferViews":[{"buffer":0,"byteLength":1884,"byteOffset":0,"target":34963},{"buffer":0,"byteLength":7560,"byteOffset":1884,"target":34962},{"buffer":0,"byteLength":7560,"byteOffset":9444,"target":34962},{"buffer":0,"byteLength":5040,"byteOffset":17004,"target":34962},{"buffer":0,"byteLength":900,"byteOffset":22044,"target":34963},{"buffer":0,"byteLength":3528,"byteOffset":22944,"target":34962},{"buffer":0,"byteLength":3528,"byteOffset":26472,"target":34962},{"buffer":0,"byteLength":2352,"byteOffset":30000,"target":34962}],"buffers":[{"byteLength":32352,"uri":"Parapet_01.bin"}],"images":[{"name":"Parapet_A","uri":"Parapet_A.tga"}],"materials":[{"alphaMode":"OPAQUE","doubleSided":false,"extras":{"fromFBX":{"isTruePBR":false,"shadingModel":"Phong"}},"name":"Parapet","pbrMetallicRoughness":{"baseColorFactor":[1,1,1,1],"baseColorTexture":{"index":0,"texCoord":0},"metallicFactor":0.400000005960464,"roughnessFactor":0.272165536880493}}],"meshes":[{"name":"Parapet_01_LOD0","primitives":[{"attributes":{"NORMAL":2,"POSITION":1,"TEXCOORD_0":3},"indices":0,"material":0,"mode":4}]},{"name":"Parapet_01_LOD1","primitives":[{"attributes":{"NORMAL":6,"POSITION":5,"TEXCOORD_0":7},"indices":4,"material":0,"mode":4}]}],"nodes":[{"mesh":0,"name":"Parapet_01_LOD0","rotation":[0,0,0,1],"scale":[1,1,1],"translation":[0,0,0]},{"mesh":1,"name":"Parapet_01_LOD1","rotation":[0,0,0,1],"scale":[1,1,1],"translation":[0,0,0]}],"samplers":[{}],"scene":0,"scenes":[{"name":"Root Scene","nodes":[0,1]}],"textures":[{"name":"base_color_texture","sampler":0,"source":0}]}