{"accessors":[{"bufferView":0,"byteOffset":0,"componentType":5123,"count":180,"type":"SCALAR"},{"bufferView":1,"byteOffset":0,"componentType":5126,"count":120,"max":[0.557849287986755,1,4.00000047683716],"min":[-4,0,-0.5578481554985],"type":"VEC3"},{"bufferView":2,"byteOffset":0,"componentType":5126,"count":120,"type":"VEC3"},{"bufferView":3,"byteOffset":0,"componentType":5126,"count":120,"type":"VEC2"},{"bufferView":4,"byteOffset":0,"componentType":5123,"count":144,"type":"SCALAR"},{"bufferView":5,"byteOffset":0,"componentType":5126,"count":96,"max":[0.557849287986755,1,4.00000047683716],"min":[-4,0,-0.5578481554985],"type":"VEC3"},{"bufferView":6,"byteOffset":0,"componentType":5126,"count":96,"type":"VEC3"},{"bufferView":7,"byteOffset":0,"componentType":5126,"count":96,"type":"VEC2"}],"asset":{"generator":"FBX2glTF v0.13.1","version":"2.0"},"bufferViews":[{"buffer":0,"byteLength":360,"byteOffset":0,"target":34963},{"buffer":0,"byteLength":1440,"byteOffset":360,"target":34962},{"buffer":0,"byteLength":1440,"byteOffset":1800,"target":34962},{"buffer":0,"byteLength":960,"byteOffset":3240,"target":34962},{"buffer":0,"byteLength":288,"byteOffset":4200,"target":34963},{"buffer":0,"byteLength":1152,"byteOffset":4488,"target":34962},{"buffer":0,"byteLength":1152,"byteOffset":5640,"target":34962},{"buffer":0,"byteLength":768,"byteOffset":6792,"target":34962}],"buffers":[{"byteLength":7560,"uri":"Parapet_07.bin"}],"images":[{"name":"Parapet_A","uri":"Parapet_A.tga"}],"materials":[{"alphaMode":"OPAQUE","doubleSided":false,"extras":{"fromFBX":{"isTruePBR":false,"shadingModel":"Phong"}},"name":"Parapet","pbrMetallicRoughness":{"baseColorFactor":[1,1,1,1],"baseColorTexture":{"index":0,"texCoord":0},"metallicFactor":0.400000005960464,"roughnessFactor":0.272165536880493}}],"meshes":[{"name":"Parapet_07_LOD0","primitives":[{"attributes":{"NORMAL":2,"POSITION":1,"TEXCOORD_0":3},"indices":0,"material":0,"mode":4}]},{"name":"Parapet_07_LOD1","primitives":[{"attributes":{"NORMAL":6,"POSITION":5,"TEXCOORD_0":7},"indices":4,"material":0,"mode":4}]}],"nodes":[{"mesh":0,"name":"Parapet_07_LOD0","rotation":[0,0,0,1],"scale":[1,1,1],"translation":[0,0,0]},{"mesh":1,"name":"Parapet_07_LOD1","rotation":[0,0,0,1],"scale":[1,1,1],"translation":[0,0,0]}],"samplers":[{}],"scene":0,"scenes":[{"name":"Root Scene","nodes":[0,1]}],"textures":[{"name":"base_color_texture","sampler":0,"source":0}]}