{"accessors":[{"bufferView":0,"byteOffset":0,"componentType":5123,"count":90,"type":"SCALAR"},{"bufferView":1,"byteOffset":0,"componentType":5126,"count":60,"max":[0.55784797668457,1,0.000000443595894239479],"min":[-0.26383531093597,0,-4],"type":"VEC3"},{"bufferView":2,"byteOffset":0,"componentType":5126,"count":60,"type":"VEC3"},{"bufferView":3,"byteOffset":0,"componentType":5126,"count":60,"type":"VEC2"},{"bufferView":4,"byteOffset":0,"componentType":5123,"count":72,"type":"SCALAR"},{"bufferView":5,"byteOffset":0,"componentType":5126,"count":48,"max":[0.55784797668457,1,0.000000443595894239479],"min":[-0.26383531093597,0,-4],"type":"VEC3"},{"bufferView":6,"byteOffset":0,"componentType":5126,"count":48,"type":"VEC3"},{"bufferView":7,"byteOffset":0,"componentType":5126,"count":48,"type":"VEC2"}],"asset":{"generator":"FBX2glTF v0.13.1","version":"2.0"},"bufferViews":[{"buffer":0,"byteLength":180,"byteOffset":0,"target":34963},{"buffer":0,"byteLength":720,"byteOffset":180,"target":34962},{"buffer":0,"byteLength":720,"byteOffset":900,"target":34962},{"buffer":0,"byteLength":480,"byteOffset":1620,"target":34962},{"buffer":0,"byteLength":144,"byteOffset":2100,"target":34963},{"buffer":0,"byteLength":576,"byteOffset":2244,"target":34962},{"buffer":0,"byteLength":576,"byteOffset":2820,"target":34962},{"buffer":0,"byteLength":384,"byteOffset":3396,"target":34962}],"buffers":[{"byteLength":3780,"uri":"Parapet_02.bin"}],"images":[{"name":"Parapet_A","uri":"Parapet_A.tga"}],"materials":[{"alphaMode":"OPAQUE","doubleSided":false,"extras":{"fromFBX":{"isTruePBR":false,"shadingModel":"Phong"}},"name":"Parapet","pbrMetallicRoughness":{"baseColorFactor":[1,1,1,1],"baseColorTexture":{"index":0,"texCoord":0},"metallicFactor":0.400000005960464,"roughnessFactor":0.272165536880493}}],"meshes":[{"name":"Parapet_02_LOD0","primitives":[{"attributes":{"NORMAL":2,"POSITION":1,"TEXCOORD_0":3},"indices":0,"material":0,"mode":4}]},{"name":"Parapet_02_LOD1","primitives":[{"attributes":{"NORMAL":6,"POSITION":5,"TEXCOORD_0":7},"indices":4,"material":0,"mode":4}]}],"nodes":[{"mesh":0,"name":"Parapet_02_LOD0","rotation":[0,0,0,1],"scale":[1,1,1],"translation":[0,0,0]},{"mesh":1,"name":"Parapet_02_LOD1","rotation":[0,0,0,1],"scale":[1,1,1],"translation":[0,0,0]}],"samplers":[{}],"scene":0,"scenes":[{"name":"Root Scene","nodes":[0,1]}],"textures":[{"name":"base_color_texture","sampler":0,"source":0}]}