{"accessors":[{"bufferView":0,"byteOffset":0,"componentType":5123,"count":2052,"type":"SCALAR"},{"bufferView":1,"byteOffset":0,"componentType":5126,"count":1310,"max":[2.64999985694885,2.83526015281677,4.38932371139526],"min":[-0.38932493329048,0,-4.38932371139526],"type":"VEC3"},{"bufferView":2,"byteOffset":0,"componentType":5126,"count":1310,"type":"VEC3"},{"bufferView":3,"byteOffset":0,"componentType":5126,"count":1310,"type":"VEC2"},{"bufferView":4,"byteOffset":0,"componentType":5123,"count":1248,"type":"SCALAR"},{"bufferView":5,"byteOffset":0,"componentType":5126,"count":852,"max":[2.64999985694885,2.83526015281677,4.38932371139526],"min":[-0.38932493329048,-0.00000000000002,-4.38932371139526],"type":"VEC3"},{"bufferView":6,"byteOffset":0,"componentType":5126,"count":852,"type":"VEC3"},{"bufferView":7,"byteOffset":0,"componentType":5126,"count":852,"type":"VEC2"},{"bufferView":8,"byteOffset":0,"componentType":5123,"count":528,"type":"SCALAR"},{"bufferView":9,"byteOffset":0,"componentType":5126,"count":356,"max":[2.64999985694885,2.83526015281677,4.38932371139526],"min":[-0.38932493329048,-0.00000000000002,-4.38932371139526],"type":"VEC3"},{"bufferView":10,"byteOffset":0,"componentType":5126,"count":356,"type":"VEC3"},{"bufferView":11,"byteOffset":0,"componentType":5126,"count":356,"type":"VEC2"},{"bufferView":12,"byteOffset":0,"componentType":5123,"count":12,"type":"SCALAR"},{"bufferView":13,"byteOffset":0,"componentType":5126,"count":12,"max":[0.368603765964508,2.5853967666626,3.11686110496521],"min":[-0.16737300157547,1.65013206005096,-3.11686158180237],"type":"VEC3"},{"bufferView":14,"byteOffset":0,"componentType":5126,"count":12,"type":"VEC3"},{"bufferView":15,"byteOffset":0,"componentType":5126,"count":12,"type":"VEC2"},{"bufferView":16,"byteOffset":0,"componentType":5123,"count":12,"type":"SCALAR"},{"bufferView":17,"byteOffset":0,"componentType":5126,"count":12,"max":[0.368603765964508,2.5853967666626,3.11686110496521],"min":[-0.16737300157547,1.65013206005096,-3.11686158180237],"type":"VEC3"},{"bufferView":18,"byteOffset":0,"componentType":5126,"count":12,"type":"VEC3"},{"bufferView":19,"byteOffset":0,"componentType":5126,"count":12,"type":"VEC2"},{"bufferView":20,"byteOffset":0,"componentType":5123,"count":12,"type":"SCALAR"},{"bufferView":21,"byteOffset":0,"componentType":5126,"count":12,"max":[0.368603765964508,2.5853967666626,3.11686110496521],"min":[-0.16737300157547,1.65013206005096,-3.11686158180237],"type":"VEC3"},{"bufferView":22,"byteOffset":0,"componentType":5126,"count":12,"type":"VEC3"},{"bufferView":23,"byteOffset":0,"componentType":5126,"count":12,"type":"VEC2"}],"asset":{"generator":"FBX2glTF v0.13.1","version":"2.0"},"bufferViews":[{"buffer":0,"byteLength":4104,"byteOffset":0,"target":34963},{"buffer":0,"byteLength":15720,"byteOffset":4104,"target":34962},{"buffer":0,"byteLength":15720,"byteOffset":19824,"target":34962},{"buffer":0,"byteLength":10480,"byteOffset":35544,"target":34962},{"buffer":0,"byteLength":2496,"byteOffset":46024,"target":34963},{"buffer":0,"byteLength":10224,"byteOffset":48520,"target":34962},{"buffer":0,"byteLength":10224,"byteOffset":58744,"target":34962},{"buffer":0,"byteLength":6816,"byteOffset":68968,"target":34962},{"buffer":0,"byteLength":1056,"byteOffset":75784,"target":34963},{"buffer":0,"byteLength":4272,"byteOffset":76840,"target":34962},{"buffer":0,"byteLength":4272,"byteOffset":81112,"target":34962},{"buffer":0,"byteLength":2848,"byteOffset":85384,"target":34962},{"buffer":0,"byteLength":24,"byteOffset":88232,"target":34963},{"buffer":0,"byteLength":144,"byteOffset":88256,"target":34962},{"buffer":0,"byteLength":144,"byteOffset":88400,"target":34962},{"buffer":0,"byteLength":96,"byteOffset":88544,"target":34962},{"buffer":0,"byteLength":24,"byteOffset":88640,"target":34963},{"buffer":0,"byteLength":144,"byteOffset":88664,"target":34962},{"buffer":0,"byteLength":144,"byteOffset":88808,"target":34962},{"buffer":0,"byteLength":96,"byteOffset":88952,"target":34962},{"buffer":0,"byteLength":24,"byteOffset":89048,"target":34963},{"buffer":0,"byteLength":144,"byteOffset":89072,"target":34962},{"buffer":0,"byteLength":144,"byteOffset":89216,"target":34962},{"buffer":0,"byteLength":96,"byteOffset":89360,"target":34962}],"buffers":[{"byteLength":89456,"uri":"Parapet_06.bin"}],"images":[{"name":"Parapet_A","uri":"Parapet_A.tga"},{"name":"Wall_Brick_A","uri":"Wall_Brick_A.tga"}],"materials":[{"alphaMode":"OPAQUE","doubleSided":false,"extras":{"fromFBX":{"isTruePBR":false,"shadingModel":"Phong"}},"name":"Parapet","pbrMetallicRoughness":{"baseColorFactor":[1,1,1,1],"baseColorTexture":{"index":0,"texCoord":0},"metallicFactor":0.400000005960464,"roughnessFactor":0.272165536880493}},{"alphaMode":"OPAQUE","doubleSided":false,"extras":{"fromFBX":{"isTruePBR":false,"shadingModel":"Phong"}},"name":"Wall_Brick","pbrMetallicRoughness":{"baseColorFactor":[1,1,1,1],"baseColorTexture":{"index":1,"texCoord":0},"metallicFactor":0.400000005960464,"roughnessFactor":0.272165536880493}}],"meshes":[{"name":"Parapet_06_LOD0","primitives":[{"attributes":{"NORMAL":2,"POSITION":1,"TEXCOORD_0":3},"indices":0,"material":0,"mode":4},{"attributes":{"NORMAL":14,"POSITION":13,"TEXCOORD_0":15},"indices":12,"material":1,"mode":4}]},{"name":"Parapet_06_LOD1","primitives":[{"attributes":{"NORMAL":6,"POSITION":5,"TEXCOORD_0":7},"indices":4,"material":0,"mode":4},{"attributes":{"NORMAL":18,"POSITION":17,"TEXCOORD_0":19},"indices":16,"material":1,"mode":4}]},{"name":"Parapet_06_LOD2","primitives":[{"attributes":{"NORMAL":10,"POSITION":9,"TEXCOORD_0":11},"indices":8,"material":0,"mode":4},{"attributes":{"NORMAL":22,"POSITION":21,"TEXCOORD_0":23},"indices":20,"material":1,"mode":4}]}],"nodes":[{"mesh":0,"name":"Parapet_06_LOD0","rotation":[0,0,0,1],"scale":[1,1,1],"translation":[0,0,0]},{"mesh":1,"name":"Parapet_06_LOD1","rotation":[0,0,0,1],"scale":[1,1,1],"translation":[0,0,0]},{"mesh":2,"name":"Parapet_06_LOD2","rotation":[0,0,0,1],"scale":[1,1,1],"translation":[0,0,0]}],"samplers":[{}],"scene":0,"scenes":[{"name":"Root Scene","nodes":[0,1,2]}],"textures":[{"name":"base_color_texture","sampler":0,"source":0},{"name":"base_color_texture","sampler":0,"source":1}]}