{"accessors":[{"bufferView":0,"byteOffset":0,"componentType":5123,"count":12525,"type":"SCALAR"},{"bufferView":1,"byteOffset":0,"componentType":5126,"count":4181,"max":[5.53313732147217,5.08416271209717,2.1326310634613],"min":[-0.19323921203613,-0.03882217407227,-2.0609564781189],"type":"VEC3"},{"bufferView":2,"byteOffset":0,"componentType":5126,"count":4181,"type":"VEC3"},{"bufferView":3,"byteOffset":0,"componentType":5126,"count":4181,"type":"VEC2"},{"bufferView":4,"byteOffset":0,"componentType":5123,"count":6654,"type":"SCALAR"},{"bufferView":5,"byteOffset":0,"componentType":5126,"count":2802,"max":[5.53313732147217,5.08338165283203,2.1326310634613],"min":[-0.19228032231331,-0.03882217407227,-2.09551763534546],"type":"VEC3"},{"bufferView":6,"byteOffset":0,"componentType":5126,"count":2802,"type":"VEC3"},{"bufferView":7,"byteOffset":0,"componentType":5126,"count":2802,"type":"VEC2"},{"bufferView":8,"byteOffset":0,"componentType":5123,"count":642,"type":"SCALAR"},{"bufferView":9,"byteOffset":0,"componentType":5126,"count":423,"max":[5.53313636779785,4.94420003890991,2.13263320922852],"min":[-0.18325570225716,-0.03882217407227,-2.0641303062439],"type":"VEC3"},{"bufferView":10,"byteOffset":0,"componentType":5126,"count":423,"type":"VEC3"},{"bufferView":11,"byteOffset":0,"componentType":5126,"count":423,"type":"VEC2"},{"bufferView":12,"byteOffset":0,"componentType":5123,"count":1056,"type":"SCALAR"},{"bufferView":13,"byteOffset":0,"componentType":5126,"count":696,"max":[5.5037522315979,5.8341178894043,2.17255330085754],"min":[-0.24011319875717,-0.08172988891602,-2.01476097106934],"type":"VEC3"},{"bufferView":14,"byteOffset":0,"componentType":5126,"count":696,"type":"VEC3"},{"bufferView":15,"byteOffset":0,"componentType":5126,"count":696,"type":"VEC2"}],"asset":{"generator":"FBX2glTF v0.13.1","version":"2.0"},"bufferViews":[{"buffer":0,"byteLength":25050,"byteOffset":0,"target":34963},{"buffer":0,"byteLength":50172,"byteOffset":25052,"target":34962},{"buffer":0,"byteLength":50172,"byteOffset":75224,"target":34962},{"buffer":0,"byteLength":33448,"byteOffset":125396,"target":34962},{"buffer":0,"byteLength":13308,"byteOffset":158844,"target":34963},{"buffer":0,"byteLength":33624,"byteOffset":172152,"target":34962},{"buffer":0,"byteLength":33624,"byteOffset":205776,"target":34962},{"buffer":0,"byteLength":22416,"byteOffset":239400,"target":34962},{"buffer":0,"byteLength":1284,"byteOffset":261816,"target":34963},{"buffer":0,"byteLength":5076,"byteOffset":263100,"target":34962},{"buffer":0,"byteLength":5076,"byteOffset":268176,"target":34962},{"buffer":0,"byteLength":3384,"byteOffset":273252,"target":34962},{"buffer":0,"byteLength":2112,"byteOffset":276636,"target":34963},{"buffer":0,"byteLength":8352,"byteOffset":278748,"target":34962},{"buffer":0,"byteLength":8352,"byteOffset":287100,"target":34962},{"buffer":0,"byteLength":5568,"byteOffset":295452,"target":34962}],"buffers":[{"byteLength":301020,"uri":"Stairs.bin"}],"images":[{"name":"Stairs_01_A","uri":"Stairs_01_A.tga"}],"materials":[{"alphaMode":"OPAQUE","doubleSided":false,"extras":{"fromFBX":{"isTruePBR":false,"shadingModel":"Phong"}},"name":"Stairs_01","pbrMetallicRoughness":{"baseColorFactor":[1,1,1,1],"baseColorTexture":{"index":0,"texCoord":0},"metallicFactor":0.400000005960464,"roughnessFactor":0.272165536880493}},{"alphaMode":"OPAQUE","doubleSided":false,"extras":{"fromFBX":{"isTruePBR":false,"shadingModel":"Lambert"}},"name":"DefaultMaterial","pbrMetallicRoughness":{"baseColorFactor":[0.5,0.5,0.5,1],"metallicFactor":0.200000002980232,"roughnessFactor":0.800000011920929}}],"meshes":[{"name":"Stairs_01_LOD0","primitives":[{"attributes":{"NORMAL":2,"POSITION":1,"TEXCOORD_0":3},"indices":0,"material":0,"mode":4}]},{"name":"Stairs_01_LOD1","primitives":[{"attributes":{"NORMAL":6,"POSITION":5,"TEXCOORD_0":7},"indices":4,"material":0,"mode":4}]},{"name":"Stairs_01_LOD2","primitives":[{"attributes":{"NORMAL":10,"POSITION":9,"TEXCOORD_0":11},"indices":8,"material":0,"mode":4}]},{"name":"Stairs_Collider","primitives":[{"attributes":{"NORMAL":14,"POSITION":13,"TEXCOORD_0":15},"indices":12,"material":1,"mode":4}]}],"nodes":[{"mesh":0,"name":"Stairs_01_LOD0","rotation":[0,0,0,1],"scale":[1,1,1],"translation":[0,0,0]},{"mesh":1,"name":"Stairs_01_LOD1","rotation":[0,0,0,1],"scale":[1,1,1],"translation":[0,0,0]},{"mesh":2,"name":"Stairs_01_LOD2","rotation":[0,0,0,1],"scale":[1,1,1],"translation":[0,0,0]},{"mesh":3,"name":"Stairs_Collider","rotation":[0,0,0,1],"scale":[1,1,1],"translation":[0,0,0]}],"samplers":[{}],"scene":0,"scenes":[{"name":"Root Scene","nodes":[0,1,2,3]}],"textures":[{"name":"base_color_texture","sampler":0,"source":0}]}