{"accessors":[{"bufferView":0,"byteOffset":0,"componentType":5123,"count":1464,"type":"SCALAR"},{"bufferView":1,"byteOffset":0,"componentType":5126,"count":914,"max":[0.560240209102631,4,4],"min":[-2,0,0],"type":"VEC3"},{"bufferView":2,"byteOffset":0,"componentType":5126,"count":914,"type":"VEC3"},{"bufferView":3,"byteOffset":0,"componentType":5126,"count":914,"type":"VEC2"},{"bufferView":4,"byteOffset":0,"componentType":5123,"count":1032,"type":"SCALAR"},{"bufferView":5,"byteOffset":0,"componentType":5126,"count":684,"max":[0.564293324947357,4,4],"min":[-2,0,0],"type":"VEC3"},{"bufferView":6,"byteOffset":0,"componentType":5126,"count":684,"type":"VEC3"},{"bufferView":7,"byteOffset":0,"componentType":5126,"count":684,"type":"VEC2"},{"bufferView":8,"byteOffset":0,"componentType":5123,"count":432,"type":"SCALAR"},{"bufferView":9,"byteOffset":0,"componentType":5126,"count":290,"max":[0.564293324947357,4,4],"min":[-2,0,0],"type":"VEC3"},{"bufferView":10,"byteOffset":0,"componentType":5126,"count":290,"type":"VEC3"},{"bufferView":11,"byteOffset":0,"componentType":5126,"count":290,"type":"VEC2"},{"bufferView":12,"byteOffset":0,"componentType":5123,"count":24,"type":"SCALAR"},{"bufferView":13,"byteOffset":0,"componentType":5126,"count":16,"max":[0.106942355632782,2.49098253250122,3.27914810180664],"min":[0.0981353372335434,0.818919479846954,0.719375848770142],"type":"VEC3"},{"bufferView":14,"byteOffset":0,"componentType":5126,"count":16,"type":"VEC3"},{"bufferView":15,"byteOffset":0,"componentType":5126,"count":16,"type":"VEC2"},{"bufferView":16,"byteOffset":0,"componentType":5123,"count":24,"type":"SCALAR"},{"bufferView":17,"byteOffset":0,"componentType":5126,"count":16,"max":[0.106942355632782,2.49098253250122,3.27914810180664],"min":[0.0981353372335434,0.818919479846954,0.719375848770142],"type":"VEC3"},{"bufferView":18,"byteOffset":0,"componentType":5126,"count":16,"type":"VEC3"},{"bufferView":19,"byteOffset":0,"componentType":5126,"count":16,"type":"VEC2"},{"bufferView":20,"byteOffset":0,"componentType":5123,"count":24,"type":"SCALAR"},{"bufferView":21,"byteOffset":0,"componentType":5126,"count":16,"max":[0.106942355632782,2.49098253250122,3.27914810180664],"min":[0.0981353372335434,0.818919479846954,0.719375848770142],"type":"VEC3"},{"bufferView":22,"byteOffset":0,"componentType":5126,"count":16,"type":"VEC3"},{"bufferView":23,"byteOffset":0,"componentType":5126,"count":16,"type":"VEC2"},{"bufferView":24,"byteOffset":0,"componentType":5123,"count":546,"type":"SCALAR"},{"bufferView":25,"byteOffset":0,"componentType":5126,"count":208,"max":[0.553928434848785,4,4],"min":[-2.00000023841858,-0.00123870372772,-0.55392837524414],"type":"VEC3"},{"bufferView":26,"byteOffset":0,"componentType":5126,"count":208,"type":"VEC3"},{"bufferView":27,"byteOffset":0,"componentType":5126,"count":208,"type":"VEC2"},{"bufferView":28,"byteOffset":0,"componentType":5123,"count":546,"type":"SCALAR"},{"bufferView":29,"byteOffset":0,"componentType":5126,"count":210,"max":[0.553928375244141,4,4],"min":[-2.00000023841858,-0.00123870372772,-0.55392837524414],"type":"VEC3"},{"bufferView":30,"byteOffset":0,"componentType":5126,"count":210,"type":"VEC3"},{"bufferView":31,"byteOffset":0,"componentType":5126,"count":210,"type":"VEC2"},{"bufferView":32,"byteOffset":0,"componentType":5123,"count":435,"type":"SCALAR"},{"bufferView":33,"byteOffset":0,"componentType":5126,"count":183,"max":[0.553928375244141,4,4],"min":[-2.00000023841858,-0.00123870372772,-0.55392837524414],"type":"VEC3"},{"bufferView":34,"byteOffset":0,"componentType":5126,"count":183,"type":"VEC3"},{"bufferView":35,"byteOffset":0,"componentType":5126,"count":183,"type":"VEC2"},{"bufferView":36,"byteOffset":0,"componentType":5123,"count":84,"type":"SCALAR"},{"bufferView":37,"byteOffset":0,"componentType":5126,"count":56,"max":[0,-0.00022518634796,4],"min":[-2,-0.18762074410915,-0.00000190734863],"type":"VEC3"},{"bufferView":38,"byteOffset":0,"componentType":5126,"count":56,"type":"VEC3"},{"bufferView":39,"byteOffset":0,"componentType":5126,"count":56,"type":"VEC2"},{"bufferView":40,"byteOffset":0,"componentType":5123,"count":84,"type":"SCALAR"},{"bufferView":41,"byteOffset":0,"componentType":5126,"count":56,"max":[0,-0.00022518634796,4],"min":[-2,-0.18762074410915,-0.00000190734863],"type":"VEC3"},{"bufferView":42,"byteOffset":0,"componentType":5126,"count":56,"type":"VEC3"},{"bufferView":43,"byteOffset":0,"componentType":5126,"count":56,"type":"VEC2"},{"bufferView":44,"byteOffset":0,"componentType":5123,"count":84,"type":"SCALAR"},{"bufferView":45,"byteOffset":0,"componentType":5126,"count":56,"max":[0,-0.00022518634796,4],"min":[-2,-0.18762074410915,-0.00000190734863],"type":"VEC3"},{"bufferView":46,"byteOffset":0,"componentType":5126,"count":56,"type":"VEC3"},{"bufferView":47,"byteOffset":0,"componentType":5126,"count":56,"type":"VEC2"}],"asset":{"generator":"FBX2glTF v0.13.1","version":"2.0"},"bufferViews":[{"buffer":0,"byteLength":2928,"byteOffset":0,"target":34963},{"buffer":0,"byteLength":10968,"byteOffset":2928,"target":34962},{"buffer":0,"byteLength":10968,"byteOffset":13896,"target":34962},{"buffer":0,"byteLength":7312,"byteOffset":24864,"target":34962},{"buffer":0,"byteLength":2064,"byteOffset":32176,"target":34963},{"buffer":0,"byteLength":8208,"byteOffset":34240,"target":34962},{"buffer":0,"byteLength":8208,"byteOffset":42448,"target":34962},{"buffer":0,"byteLength":5472,"byteOffset":50656,"target":34962},{"buffer":0,"byteLength":864,"byteOffset":56128,"target":34963},{"buffer":0,"byteLength":3480,"byteOffset":56992,"target":34962},{"buffer":0,"byteLength":3480,"byteOffset":60472,"target":34962},{"buffer":0,"byteLength":2320,"byteOffset":63952,"target":34962},{"buffer":0,"byteLength":48,"byteOffset":66272,"target":34963},{"buffer":0,"byteLength":192,"byteOffset":66320,"target":34962},{"buffer":0,"byteLength":192,"byteOffset":66512,"target":34962},{"buffer":0,"byteLength":128,"byteOffset":66704,"target":34962},{"buffer":0,"byteLength":48,"byteOffset":66832,"target":34963},{"buffer":0,"byteLength":192,"byteOffset":66880,"target":34962},{"buffer":0,"byteLength":192,"byteOffset":67072,"target":34962},{"buffer":0,"byteLength":128,"byteOffset":67264,"target":34962},{"buffer":0,"byteLength":48,"byteOffset":67392,"target":34963},{"buffer":0,"byteLength":192,"byteOffset":67440,"target":34962},{"buffer":0,"byteLength":192,"byteOffset":67632,"target":34962},{"buffer":0,"byteLength":128,"byteOffset":67824,"target":34962},{"buffer":0,"byteLength":1092,"byteOffset":67952,"target":34963},{"buffer":0,"byteLength":2496,"byteOffset":69044,"target":34962},{"buffer":0,"byteLength":2496,"byteOffset":71540,"target":34962},{"buffer":0,"byteLength":1664,"byteOffset":74036,"target":34962},{"buffer":0,"byteLength":1092,"byteOffset":75700,"target":34963},{"buffer":0,"byteLength":2520,"byteOffset":76792,"target":34962},{"buffer":0,"byteLength":2520,"byteOffset":79312,"target":34962},{"buffer":0,"byteLength":1680,"byteOffset":81832,"target":34962},{"buffer":0,"byteLength":870,"byteOffset":83512,"target":34963},{"buffer":0,"byteLength":2196,"byteOffset":84384,"target":34962},{"buffer":0,"byteLength":2196,"byteOffset":86580,"target":34962},{"buffer":0,"byteLength":1464,"byteOffset":88776,"target":34962},{"buffer":0,"byteLength":168,"byteOffset":90240,"target":34963},{"buffer":0,"byteLength":672,"byteOffset":90408,"target":34962},{"buffer":0,"byteLength":672,"byteOffset":91080,"target":34962},{"buffer":0,"byteLength":448,"byteOffset":91752,"target":34962},{"buffer":0,"byteLength":168,"byteOffset":92200,"target":34963},{"buffer":0,"byteLength":672,"byteOffset":92368,"target":34962},{"buffer":0,"byteLength":672,"byteOffset":93040,"target":34962},{"buffer":0,"byteLength":448,"byteOffset":93712,"target":34962},{"buffer":0,"byteLength":168,"byteOffset":94160,"target":34963},{"buffer":0,"byteLength":672,"byteOffset":94328,"target":34962},{"buffer":0,"byteLength":672,"byteOffset":95000,"target":34962},{"buffer":0,"byteLength":448,"byteOffset":95672,"target":34962}],"buffers":[{"byteLength":96120,"uri":"Wall_Window_09.bin"}],"images":[{"name":"Wall_Brick_A","uri":"Wall_Brick_A.tga"},{"name":"Glass_A","uri":"Glass_A.tga"},{"name":"Wall_01_A","uri":"Wall_01_A.tga"},{"name":"Parapet_A","uri":"Parapet_A.tga"}],"materials":[{"alphaMode":"OPAQUE","doubleSided":false,"extras":{"fromFBX":{"isTruePBR":false,"shadingModel":"Phong"}},"name":"Wall_Brick","pbrMetallicRoughness":{"baseColorFactor":[1,1,1,1],"baseColorTexture":{"index":0,"texCoord":0},"metallicFactor":0.400000005960464,"roughnessFactor":0.272165536880493}},{"alphaMode":"OPAQUE","doubleSided":false,"extras":{"fromFBX":{"isTruePBR":false,"shadingModel":"Phong"}},"name":"Glass","pbrMetallicRoughness":{"baseColorFactor":[1,1,1,1],"baseColorTexture":{"index":1,"texCoord":0},"metallicFactor":0.400000005960464,"roughnessFactor":0.272165536880493}},{"alphaMode":"OPAQUE","doubleSided":false,"extras":{"fromFBX":{"isTruePBR":false,"shadingModel":"Phong"}},"name":"Wall_01","pbrMetallicRoughness":{"baseColorFactor":[1,1,1,1],"baseColorTexture":{"index":2,"texCoord":0},"metallicFactor":0.400000005960464,"roughnessFactor":0.272165536880493}},{"alphaMode":"OPAQUE","doubleSided":false,"extras":{"fromFBX":{"isTruePBR":false,"shadingModel":"Phong"}},"name":"Parapet","pbrMetallicRoughness":{"baseColorFactor":[1,1,1,1],"baseColorTexture":{"index":3,"texCoord":0},"metallicFactor":0.400000005960464,"roughnessFactor":0.272165536880493}}],"meshes":[{"name":"Wall_Window_09_LOD0","primitives":[{"attributes":{"NORMAL":2,"POSITION":1,"TEXCOORD_0":3},"indices":0,"material":0,"mode":4},{"attributes":{"NORMAL":14,"POSITION":13,"TEXCOORD_0":15},"indices":12,"material":1,"mode":4},{"attributes":{"NORMAL":26,"POSITION":25,"TEXCOORD_0":27},"indices":24,"material":2,"mode":4},{"attributes":{"NORMAL":38,"POSITION":37,"TEXCOORD_0":39},"indices":36,"material":3,"mode":4}]},{"name":"Wall_Window_09_LOD1","primitives":[{"attributes":{"NORMAL":6,"POSITION":5,"TEXCOORD_0":7},"indices":4,"material":0,"mode":4},{"attributes":{"NORMAL":18,"POSITION":17,"TEXCOORD_0":19},"indices":16,"material":1,"mode":4},{"attributes":{"NORMAL":30,"POSITION":29,"TEXCOORD_0":31},"indices":28,"material":2,"mode":4},{"attributes":{"NORMAL":42,"POSITION":41,"TEXCOORD_0":43},"indices":40,"material":3,"mode":4}]},{"name":"Wall_Window_09_LOD2","primitives":[{"attributes":{"NORMAL":10,"POSITION":9,"TEXCOORD_0":11},"indices":8,"material":0,"mode":4},{"attributes":{"NORMAL":22,"POSITION":21,"TEXCOORD_0":23},"indices":20,"material":1,"mode":4},{"attributes":{"NORMAL":34,"POSITION":33,"TEXCOORD_0":35},"indices":32,"material":2,"mode":4},{"attributes":{"NORMAL":46,"POSITION":45,"TEXCOORD_0":47},"indices":44,"material":3,"mode":4}]}],"nodes":[{"mesh":0,"name":"Wall_Window_09_LOD0","rotation":[0,0,0,1],"scale":[1,1,1],"translation":[0,0,0]},{"mesh":1,"name":"Wall_Window_09_LOD1","rotation":[0,0,0,1],"scale":[1,1,1],"translation":[0,0,0]},{"mesh":2,"name":"Wall_Window_09_LOD2","rotation":[0,0,0,1],"scale":[1,1,1],"translation":[0,0,0]}],"samplers":[{}],"scene":0,"scenes":[{"name":"Root Scene","nodes":[0,1,2]}],"textures":[{"name":"base_color_texture","sampler":0,"source":0},{"name":"base_color_texture","sampler":0,"source":1},{"name":"base_color_texture","sampler":0,"source":2},{"name":"base_color_texture","sampler":0,"source":3}]}