{"accessors":[{"bufferView":0,"byteOffset":0,"componentType":5123,"count":726,"type":"SCALAR"},{"bufferView":1,"byteOffset":0,"componentType":5126,"count":464,"max":[0.560239672660828,4,2],"min":[-0.05771385878325,0,0],"type":"VEC3"},{"bufferView":2,"byteOffset":0,"componentType":5126,"count":464,"type":"VEC3"},{"bufferView":3,"byteOffset":0,"componentType":5126,"count":464,"type":"VEC2"},{"bufferView":4,"byteOffset":0,"componentType":5123,"count":501,"type":"SCALAR"},{"bufferView":5,"byteOffset":0,"componentType":5126,"count":359,"max":[0.564293682575226,4,2],"min":[-0.05771385878325,0,0],"type":"VEC3"},{"bufferView":6,"byteOffset":0,"componentType":5126,"count":359,"type":"VEC3"},{"bufferView":7,"byteOffset":0,"componentType":5126,"count":359,"type":"VEC2"},{"bufferView":8,"byteOffset":0,"componentType":5123,"count":231,"type":"SCALAR"},{"bufferView":9,"byteOffset":0,"componentType":5126,"count":157,"max":[0.564293682575226,4,2],"min":[-0.05771385878325,0,0],"type":"VEC3"},{"bufferView":10,"byteOffset":0,"componentType":5126,"count":157,"type":"VEC3"},{"bufferView":11,"byteOffset":0,"componentType":5126,"count":157,"type":"VEC2"},{"bufferView":12,"byteOffset":0,"componentType":5123,"count":12,"type":"SCALAR"},{"bufferView":13,"byteOffset":0,"componentType":5126,"count":8,"max":[0.105060592293739,2.49098253250122,1.47570657730103],"min":[0.0982956290245056,0.818919479846954,0.524523794651031],"type":"VEC3"},{"bufferView":14,"byteOffset":0,"componentType":5126,"count":8,"type":"VEC3"},{"bufferView":15,"byteOffset":0,"componentType":5126,"count":8,"type":"VEC2"},{"bufferView":16,"byteOffset":0,"componentType":5123,"count":12,"type":"SCALAR"},{"bufferView":17,"byteOffset":0,"componentType":5126,"count":8,"max":[0.105060592293739,2.49098253250122,1.47570657730103],"min":[0.0982956290245056,0.818919479846954,0.524523794651031],"type":"VEC3"},{"bufferView":18,"byteOffset":0,"componentType":5126,"count":8,"type":"VEC3"},{"bufferView":19,"byteOffset":0,"componentType":5126,"count":8,"type":"VEC2"},{"bufferView":20,"byteOffset":0,"componentType":5123,"count":12,"type":"SCALAR"},{"bufferView":21,"byteOffset":0,"componentType":5126,"count":8,"max":[0.105060592293739,2.49098253250122,1.47570657730103],"min":[0.0982956290245056,0.818919479846954,0.524523794651031],"type":"VEC3"},{"bufferView":22,"byteOffset":0,"componentType":5126,"count":8,"type":"VEC3"},{"bufferView":23,"byteOffset":0,"componentType":5126,"count":8,"type":"VEC2"},{"bufferView":24,"byteOffset":0,"componentType":5123,"count":159,"type":"SCALAR"},{"bufferView":25,"byteOffset":0,"componentType":5126,"count":56,"max":[0.553928196430206,4,2],"min":[0.132016941905022,-0.00123804807663,-0.00000023841858],"type":"VEC3"},{"bufferView":26,"byteOffset":0,"componentType":5126,"count":56,"type":"VEC3"},{"bufferView":27,"byteOffset":0,"componentType":5126,"count":56,"type":"VEC2"},{"bufferView":28,"byteOffset":0,"componentType":5123,"count":141,"type":"SCALAR"},{"bufferView":29,"byteOffset":0,"componentType":5126,"count":52,"max":[0.553928196430206,4,2],"min":[0.132016941905022,-0.00123804807663,-0.00000023841858],"type":"VEC3"},{"bufferView":30,"byteOffset":0,"componentType":5126,"count":52,"type":"VEC3"},{"bufferView":31,"byteOffset":0,"componentType":5126,"count":52,"type":"VEC2"},{"bufferView":32,"byteOffset":0,"componentType":5123,"count":129,"type":"SCALAR"},{"bufferView":33,"byteOffset":0,"componentType":5126,"count":48,"max":[0.553928196430206,4,2],"min":[0.132016941905022,-0.00123804807663,-0.00000023841858],"type":"VEC3"},{"bufferView":34,"byteOffset":0,"componentType":5126,"count":48,"type":"VEC3"},{"bufferView":35,"byteOffset":0,"componentType":5126,"count":48,"type":"VEC2"},{"bufferView":36,"byteOffset":0,"componentType":5123,"count":42,"type":"SCALAR"},{"bufferView":37,"byteOffset":0,"componentType":5126,"count":28,"max":[-0.00000065168297,-0.00041222572327,1.99999904632568],"min":[-0.11927881091833,-0.18762074410915,-0.00000190734863],"type":"VEC3"},{"bufferView":38,"byteOffset":0,"componentType":5126,"count":28,"type":"VEC3"},{"bufferView":39,"byteOffset":0,"componentType":5126,"count":28,"type":"VEC2"},{"bufferView":40,"byteOffset":0,"componentType":5123,"count":42,"type":"SCALAR"},{"bufferView":41,"byteOffset":0,"componentType":5126,"count":28,"max":[-0.00000065168297,-0.00041222572327,1.99999904632568],"min":[-0.11927881091833,-0.18762074410915,-0.00000190734863],"type":"VEC3"},{"bufferView":42,"byteOffset":0,"componentType":5126,"count":28,"type":"VEC3"},{"bufferView":43,"byteOffset":0,"componentType":5126,"count":28,"type":"VEC2"},{"bufferView":44,"byteOffset":0,"componentType":5123,"count":42,"type":"SCALAR"},{"bufferView":45,"byteOffset":0,"componentType":5126,"count":28,"max":[-0.00000065168297,-0.00041222572327,1.99999904632568],"min":[-0.11927881091833,-0.18762074410915,-0.00000190734863],"type":"VEC3"},{"bufferView":46,"byteOffset":0,"componentType":5126,"count":28,"type":"VEC3"},{"bufferView":47,"byteOffset":0,"componentType":5126,"count":28,"type":"VEC2"}],"asset":{"generator":"FBX2glTF v0.13.1","version":"2.0"},"bufferViews":[{"buffer":0,"byteLength":1452,"byteOffset":0,"target":34963},{"buffer":0,"byteLength":5568,"byteOffset":1452,"target":34962},{"buffer":0,"byteLength":5568,"byteOffset":7020,"target":34962},{"buffer":0,"byteLength":3712,"byteOffset":12588,"target":34962},{"buffer":0,"byteLength":1002,"byteOffset":16300,"target":34963},{"buffer":0,"byteLength":4308,"byteOffset":17304,"target":34962},{"buffer":0,"byteLength":4308,"byteOffset":21612,"target":34962},{"buffer":0,"byteLength":2872,"byteOffset":25920,"target":34962},{"buffer":0,"byteLength":462,"byteOffset":28792,"target":34963},{"buffer":0,"byteLength":1884,"byteOffset":29256,"target":34962},{"buffer":0,"byteLength":1884,"byteOffset":31140,"target":34962},{"buffer":0,"byteLength":1256,"byteOffset":33024,"target":34962},{"buffer":0,"byteLength":24,"byteOffset":34280,"target":34963},{"buffer":0,"byteLength":96,"byteOffset":34304,"target":34962},{"buffer":0,"byteLength":96,"byteOffset":34400,"target":34962},{"buffer":0,"byteLength":64,"byteOffset":34496,"target":34962},{"buffer":0,"byteLength":24,"byteOffset":34560,"target":34963},{"buffer":0,"byteLength":96,"byteOffset":34584,"target":34962},{"buffer":0,"byteLength":96,"byteOffset":34680,"target":34962},{"buffer":0,"byteLength":64,"byteOffset":34776,"target":34962},{"buffer":0,"byteLength":24,"byteOffset":34840,"target":34963},{"buffer":0,"byteLength":96,"byteOffset":34864,"target":34962},{"buffer":0,"byteLength":96,"byteOffset":34960,"target":34962},{"buffer":0,"byteLength":64,"byteOffset":35056,"target":34962},{"buffer":0,"byteLength":318,"byteOffset":35120,"target":34963},{"buffer":0,"byteLength":672,"byteOffset":35440,"target":34962},{"buffer":0,"byteLength":672,"byteOffset":36112,"target":34962},{"buffer":0,"byteLength":448,"byteOffset":36784,"target":34962},{"buffer":0,"byteLength":282,"byteOffset":37232,"target":34963},{"buffer":0,"byteLength":624,"byteOffset":37516,"target":34962},{"buffer":0,"byteLength":624,"byteOffset":38140,"target":34962},{"buffer":0,"byteLength":416,"byteOffset":38764,"target":34962},{"buffer":0,"byteLength":258,"byteOffset":39180,"target":34963},{"buffer":0,"byteLength":576,"byteOffset":39440,"target":34962},{"buffer":0,"byteLength":576,"byteOffset":40016,"target":34962},{"buffer":0,"byteLength":384,"byteOffset":40592,"target":34962},{"buffer":0,"byteLength":84,"byteOffset":40976,"target":34963},{"buffer":0,"byteLength":336,"byteOffset":41060,"target":34962},{"buffer":0,"byteLength":336,"byteOffset":41396,"target":34962},{"buffer":0,"byteLength":224,"byteOffset":41732,"target":34962},{"buffer":0,"byteLength":84,"byteOffset":41956,"target":34963},{"buffer":0,"byteLength":336,"byteOffset":42040,"target":34962},{"buffer":0,"byteLength":336,"byteOffset":42376,"target":34962},{"buffer":0,"byteLength":224,"byteOffset":42712,"target":34962},{"buffer":0,"byteLength":84,"byteOffset":42936,"target":34963},{"buffer":0,"byteLength":336,"byteOffset":43020,"target":34962},{"buffer":0,"byteLength":336,"byteOffset":43356,"target":34962},{"buffer":0,"byteLength":224,"byteOffset":43692,"target":34962}],"buffers":[{"byteLength":43916,"uri":"Wall_Window_08.bin"}],"images":[{"name":"Wall_Brick_A","uri":"Wall_Brick_A.tga"},{"name":"Glass_A","uri":"Glass_A.tga"},{"name":"Wall_01_A","uri":"Wall_01_A.tga"},{"name":"Parapet_A","uri":"Parapet_A.tga"}],"materials":[{"alphaMode":"OPAQUE","doubleSided":false,"extras":{"fromFBX":{"isTruePBR":false,"shadingModel":"Phong"}},"name":"Wall_Brick","pbrMetallicRoughness":{"baseColorFactor":[1,1,1,1],"baseColorTexture":{"index":0,"texCoord":0},"metallicFactor":0.400000005960464,"roughnessFactor":0.272165536880493}},{"alphaMode":"OPAQUE","doubleSided":false,"extras":{"fromFBX":{"isTruePBR":false,"shadingModel":"Phong"}},"name":"Glass","pbrMetallicRoughness":{"baseColorFactor":[1,1,1,1],"baseColorTexture":{"index":1,"texCoord":0},"metallicFactor":0.400000005960464,"roughnessFactor":0.272165536880493}},{"alphaMode":"OPAQUE","doubleSided":false,"extras":{"fromFBX":{"isTruePBR":false,"shadingModel":"Phong"}},"name":"Wall_01","pbrMetallicRoughness":{"baseColorFactor":[1,1,1,1],"baseColorTexture":{"index":2,"texCoord":0},"metallicFactor":0.400000005960464,"roughnessFactor":0.272165536880493}},{"alphaMode":"OPAQUE","doubleSided":false,"extras":{"fromFBX":{"isTruePBR":false,"shadingModel":"Phong"}},"name":"Parapet","pbrMetallicRoughness":{"baseColorFactor":[1,1,1,1],"baseColorTexture":{"index":3,"texCoord":0},"metallicFactor":0.400000005960464,"roughnessFactor":0.272165536880493}}],"meshes":[{"name":"Wall_Window_08_LOD0","primitives":[{"attributes":{"NORMAL":2,"POSITION":1,"TEXCOORD_0":3},"indices":0,"material":0,"mode":4},{"attributes":{"NORMAL":14,"POSITION":13,"TEXCOORD_0":15},"indices":12,"material":1,"mode":4},{"attributes":{"NORMAL":26,"POSITION":25,"TEXCOORD_0":27},"indices":24,"material":2,"mode":4},{"attributes":{"NORMAL":38,"POSITION":37,"TEXCOORD_0":39},"indices":36,"material":3,"mode":4}]},{"name":"Wall_Window_08_LOD1","primitives":[{"attributes":{"NORMAL":6,"POSITION":5,"TEXCOORD_0":7},"indices":4,"material":0,"mode":4},{"attributes":{"NORMAL":18,"POSITION":17,"TEXCOORD_0":19},"indices":16,"material":1,"mode":4},{"attributes":{"NORMAL":30,"POSITION":29,"TEXCOORD_0":31},"indices":28,"material":2,"mode":4},{"attributes":{"NORMAL":42,"POSITION":41,"TEXCOORD_0":43},"indices":40,"material":3,"mode":4}]},{"name":"Wall_Window_08_LOD2","primitives":[{"attributes":{"NORMAL":10,"POSITION":9,"TEXCOORD_0":11},"indices":8,"material":0,"mode":4},{"attributes":{"NORMAL":22,"POSITION":21,"TEXCOORD_0":23},"indices":20,"material":1,"mode":4},{"attributes":{"NORMAL":34,"POSITION":33,"TEXCOORD_0":35},"indices":32,"material":2,"mode":4},{"attributes":{"NORMAL":46,"POSITION":45,"TEXCOORD_0":47},"indices":44,"material":3,"mode":4}]}],"nodes":[{"mesh":0,"name":"Wall_Window_08_LOD0","rotation":[0,0,0,1],"scale":[1,1,1],"translation":[0,0,0]},{"mesh":1,"name":"Wall_Window_08_LOD1","rotation":[0,0,0,1],"scale":[1,1,1],"translation":[0,0,0]},{"mesh":2,"name":"Wall_Window_08_LOD2","rotation":[0,0,0,1],"scale":[1,1,1],"translation":[0,0,0]}],"samplers":[{}],"scene":0,"scenes":[{"name":"Root Scene","nodes":[0,1,2]}],"textures":[{"name":"base_color_texture","sampler":0,"source":0},{"name":"base_color_texture","sampler":0,"source":1},{"name":"base_color_texture","sampler":0,"source":2},{"name":"base_color_texture","sampler":0,"source":3}]}