{"accessors":[{"bufferView":0,"byteOffset":0,"componentType":5123,"count":12,"type":"SCALAR"},{"bufferView":1,"byteOffset":0,"componentType":5126,"count":8,"max":[0.000000349691106293903,4,-0.00000000000011],"min":[-0.00000065168268,0,-2],"type":"VEC3"},{"bufferView":2,"byteOffset":0,"componentType":5126,"count":8,"type":"VEC3"},{"bufferView":3,"byteOffset":0,"componentType":5126,"count":8,"type":"VEC2"},{"bufferView":4,"byteOffset":0,"componentType":5123,"count":54,"type":"SCALAR"},{"bufferView":5,"byteOffset":0,"componentType":5126,"count":24,"max":[0.553928196430206,4,0],"min":[0.497581630945206,-0.00123804807663,-2.00000023841858],"type":"VEC3"},{"bufferView":6,"byteOffset":0,"componentType":5126,"count":24,"type":"VEC3"},{"bufferView":7,"byteOffset":0,"componentType":5126,"count":24,"type":"VEC2"},{"bufferView":8,"byteOffset":0,"componentType":5123,"count":42,"type":"SCALAR"},{"bufferView":9,"byteOffset":0,"componentType":5126,"count":28,"max":[-0.00000065168297,-0.00041222572327,-0.00000095367432],"min":[-0.11927881091833,-0.18762074410915,-2.00000166893005],"type":"VEC3"},{"bufferView":10,"byteOffset":0,"componentType":5126,"count":28,"type":"VEC3"},{"bufferView":11,"byteOffset":0,"componentType":5126,"count":28,"type":"VEC2"}],"asset":{"generator":"FBX2glTF v0.13.1","version":"2.0"},"bufferViews":[{"buffer":0,"byteLength":24,"byteOffset":0,"target":34963},{"buffer":0,"byteLength":96,"byteOffset":24,"target":34962},{"buffer":0,"byteLength":96,"byteOffset":120,"target":34962},{"buffer":0,"byteLength":64,"byteOffset":216,"target":34962},{"buffer":0,"byteLength":108,"byteOffset":280,"target":34963},{"buffer":0,"byteLength":288,"byteOffset":388,"target":34962},{"buffer":0,"byteLength":288,"byteOffset":676,"target":34962},{"buffer":0,"byteLength":192,"byteOffset":964,"target":34962},{"buffer":0,"byteLength":84,"byteOffset":1156,"target":34963},{"buffer":0,"byteLength":336,"byteOffset":1240,"target":34962},{"buffer":0,"byteLength":336,"byteOffset":1576,"target":34962},{"buffer":0,"byteLength":224,"byteOffset":1912,"target":34962}],"buffers":[{"byteLength":2136,"uri":"Wall_05.bin"}],"images":[{"name":"Wall_Brick_A","uri":"Wall_Brick_A.tga"},{"name":"Wall_01_A","uri":"Wall_01_A.tga"},{"name":"Parapet_A","uri":"Parapet_A.tga"}],"materials":[{"alphaMode":"OPAQUE","doubleSided":false,"extras":{"fromFBX":{"isTruePBR":false,"shadingModel":"Phong"}},"name":"Wall_Brick","pbrMetallicRoughness":{"baseColorFactor":[1,1,1,1],"baseColorTexture":{"index":0,"texCoord":0},"metallicFactor":0.400000005960464,"roughnessFactor":0.272165536880493}},{"alphaMode":"OPAQUE","doubleSided":false,"extras":{"fromFBX":{"isTruePBR":false,"shadingModel":"Phong"}},"name":"Wall_01","pbrMetallicRoughness":{"baseColorFactor":[1,1,1,1],"baseColorTexture":{"index":1,"texCoord":0},"metallicFactor":0.400000005960464,"roughnessFactor":0.272165536880493}},{"alphaMode":"OPAQUE","doubleSided":false,"extras":{"fromFBX":{"isTruePBR":false,"shadingModel":"Phong"}},"name":"Parapet","pbrMetallicRoughness":{"baseColorFactor":[1,1,1,1],"baseColorTexture":{"index":2,"texCoord":0},"metallicFactor":0.400000005960464,"roughnessFactor":0.272165536880493}}],"meshes":[{"name":"Wall_05","primitives":[{"attributes":{"NORMAL":2,"POSITION":1,"TEXCOORD_0":3},"indices":0,"material":0,"mode":4},{"attributes":{"NORMAL":6,"POSITION":5,"TEXCOORD_0":7},"indices":4,"material":1,"mode":4},{"attributes":{"NORMAL":10,"POSITION":9,"TEXCOORD_0":11},"indices":8,"material":2,"mode":4}]}],"nodes":[{"mesh":0,"name":"Wall_05","rotation":[0,0,0,1],"scale":[1,1,1],"translation":[0,0,0]}],"samplers":[{}],"scene":0,"scenes":[{"name":"Root Scene","nodes":[0]}],"textures":[{"name":"base_color_texture","sampler":0,"source":0},{"name":"base_color_texture","sampler":0,"source":1},{"name":"base_color_texture","sampler":0,"source":2}]}