{"accessors":[{"bufferView":0,"byteOffset":0,"componentType":5123,"count":2340,"type":"SCALAR"},{"bufferView":1,"byteOffset":0,"componentType":5126,"count":1088,"max":[0.560239553451538,5,0],"min":[-0.0414051823318,1,-2],"type":"VEC3"},{"bufferView":2,"byteOffset":0,"componentType":5126,"count":1088,"type":"VEC3"},{"bufferView":3,"byteOffset":0,"componentType":5126,"count":1088,"type":"VEC2"},{"bufferView":4,"byteOffset":0,"componentType":5123,"count":1203,"type":"SCALAR"},{"bufferView":5,"byteOffset":0,"componentType":5126,"count":676,"max":[0.559318721294403,5,0],"min":[-0.0414051823318,1,-2],"type":"VEC3"},{"bufferView":6,"byteOffset":0,"componentType":5126,"count":676,"type":"VEC3"},{"bufferView":7,"byteOffset":0,"componentType":5126,"count":676,"type":"VEC2"},{"bufferView":8,"byteOffset":0,"componentType":5123,"count":432,"type":"SCALAR"},{"bufferView":9,"byteOffset":0,"componentType":5126,"count":226,"max":[0.55915766954422,5,0],"min":[-0.0414051823318,1,-2],"type":"VEC3"},{"bufferView":10,"byteOffset":0,"componentType":5126,"count":226,"type":"VEC3"},{"bufferView":11,"byteOffset":0,"componentType":5126,"count":226,"type":"VEC2"},{"bufferView":12,"byteOffset":0,"componentType":5123,"count":294,"type":"SCALAR"},{"bufferView":13,"byteOffset":0,"componentType":5126,"count":88,"max":[0.553928196430206,5,0],"min":[0.0718114450573921,0.99876195192337,-2.00000023841858],"type":"VEC3"},{"bufferView":14,"byteOffset":0,"componentType":5126,"count":88,"type":"VEC3"},{"bufferView":15,"byteOffset":0,"componentType":5126,"count":88,"type":"VEC2"},{"bufferView":16,"byteOffset":0,"componentType":5123,"count":276,"type":"SCALAR"},{"bufferView":17,"byteOffset":0,"componentType":5126,"count":84,"max":[0.553928196430206,5,0],"min":[0.0718114450573921,0.99876195192337,-2.00000023841858],"type":"VEC3"},{"bufferView":18,"byteOffset":0,"componentType":5126,"count":84,"type":"VEC3"},{"bufferView":19,"byteOffset":0,"componentType":5126,"count":84,"type":"VEC2"},{"bufferView":20,"byteOffset":0,"componentType":5123,"count":264,"type":"SCALAR"},{"bufferView":21,"byteOffset":0,"componentType":5126,"count":80,"max":[0.553928196430206,5,0],"min":[0.0718114450573921,0.99876195192337,-2.00000023841858],"type":"VEC3"},{"bufferView":22,"byteOffset":0,"componentType":5126,"count":80,"type":"VEC3"},{"bufferView":23,"byteOffset":0,"componentType":5126,"count":80,"type":"VEC2"},{"bufferView":24,"byteOffset":0,"componentType":5123,"count":72,"type":"SCALAR"},{"bufferView":25,"byteOffset":0,"componentType":5126,"count":48,"max":[0.00580104812979698,1,0.0000000388655436722729],"min":[-0.54695069789886,0,-2.00289964675903],"type":"VEC3"},{"bufferView":26,"byteOffset":0,"componentType":5126,"count":48,"type":"VEC3"},{"bufferView":27,"byteOffset":0,"componentType":5126,"count":48,"type":"VEC2"},{"bufferView":28,"byteOffset":0,"componentType":5123,"count":60,"type":"SCALAR"},{"bufferView":29,"byteOffset":0,"componentType":5126,"count":40,"max":[0.00580104812979698,1,0.0000000388655436722729],"min":[-0.54695069789886,0,-2.00289964675903],"type":"VEC3"},{"bufferView":30,"byteOffset":0,"componentType":5126,"count":40,"type":"VEC3"},{"bufferView":31,"byteOffset":0,"componentType":5126,"count":40,"type":"VEC2"},{"bufferView":32,"byteOffset":0,"componentType":5123,"count":48,"type":"SCALAR"},{"bufferView":33,"byteOffset":0,"componentType":5126,"count":32,"max":[0.00580104812979698,1,0.0000000264229722546361],"min":[-0.54695069789886,0,-2.00289964675903],"type":"VEC3"},{"bufferView":34,"byteOffset":0,"componentType":5126,"count":32,"type":"VEC3"},{"bufferView":35,"byteOffset":0,"componentType":5126,"count":32,"type":"VEC2"},{"bufferView":36,"byteOffset":0,"componentType":5123,"count":72,"type":"SCALAR"},{"bufferView":37,"byteOffset":0,"componentType":5126,"count":32,"max":[0.106941699981689,3.7350652217865,-0.49709096550942],"min":[0.0981346741318703,1.8189195394516,-1.46426248550415],"type":"VEC3"},{"bufferView":38,"byteOffset":0,"componentType":5126,"count":32,"type":"VEC3"},{"bufferView":39,"byteOffset":0,"componentType":5126,"count":32,"type":"VEC2"},{"bufferView":40,"byteOffset":0,"componentType":5123,"count":72,"type":"SCALAR"},{"bufferView":41,"byteOffset":0,"componentType":5126,"count":32,"max":[0.106941699981689,3.7350652217865,-0.49709096550942],"min":[0.0981346741318703,1.8189195394516,-1.46426248550415],"type":"VEC3"},{"bufferView":42,"byteOffset":0,"componentType":5126,"count":32,"type":"VEC3"},{"bufferView":43,"byteOffset":0,"componentType":5126,"count":32,"type":"VEC2"},{"bufferView":44,"byteOffset":0,"componentType":5123,"count":72,"type":"SCALAR"},{"bufferView":45,"byteOffset":0,"componentType":5126,"count":32,"max":[0.106941699981689,3.7350652217865,-0.49709096550942],"min":[0.0981346741318703,1.8189195394516,-1.46426248550415],"type":"VEC3"},{"bufferView":46,"byteOffset":0,"componentType":5126,"count":32,"type":"VEC3"},{"bufferView":47,"byteOffset":0,"componentType":5126,"count":32,"type":"VEC2"}],"asset":{"generator":"FBX2glTF v0.13.1","version":"2.0"},"bufferViews":[{"buffer":0,"byteLength":4680,"byteOffset":0,"target":34963},{"buffer":0,"byteLength":13056,"byteOffset":4680,"target":34962},{"buffer":0,"byteLength":13056,"byteOffset":17736,"target":34962},{"buffer":0,"byteLength":8704,"byteOffset":30792,"target":34962},{"buffer":0,"byteLength":2406,"byteOffset":39496,"target":34963},{"buffer":0,"byteLength":8112,"byteOffset":41904,"target":34962},{"buffer":0,"byteLength":8112,"byteOffset":50016,"target":34962},{"buffer":0,"byteLength":5408,"byteOffset":58128,"target":34962},{"buffer":0,"byteLength":864,"byteOffset":63536,"target":34963},{"buffer":0,"byteLength":2712,"byteOffset":64400,"target":34962},{"buffer":0,"byteLength":2712,"byteOffset":67112,"target":34962},{"buffer":0,"byteLength":1808,"byteOffset":69824,"target":34962},{"buffer":0,"byteLength":588,"byteOffset":71632,"target":34963},{"buffer":0,"byteLength":1056,"byteOffset":72220,"target":34962},{"buffer":0,"byteLength":1056,"byteOffset":73276,"target":34962},{"buffer":0,"byteLength":704,"byteOffset":74332,"target":34962},{"buffer":0,"byteLength":552,"byteOffset":75036,"target":34963},{"buffer":0,"byteLength":1008,"byteOffset":75588,"target":34962},{"buffer":0,"byteLength":1008,"byteOffset":76596,"target":34962},{"buffer":0,"byteLength":672,"byteOffset":77604,"target":34962},{"buffer":0,"byteLength":528,"byteOffset":78276,"target":34963},{"buffer":0,"byteLength":960,"byteOffset":78804,"target":34962},{"buffer":0,"byteLength":960,"byteOffset":79764,"target":34962},{"buffer":0,"byteLength":640,"byteOffset":80724,"target":34962},{"buffer":0,"byteLength":144,"byteOffset":81364,"target":34963},{"buffer":0,"byteLength":576,"byteOffset":81508,"target":34962},{"buffer":0,"byteLength":576,"byteOffset":82084,"target":34962},{"buffer":0,"byteLength":384,"byteOffset":82660,"target":34962},{"buffer":0,"byteLength":120,"byteOffset":83044,"target":34963},{"buffer":0,"byteLength":480,"byteOffset":83164,"target":34962},{"buffer":0,"byteLength":480,"byteOffset":83644,"target":34962},{"buffer":0,"byteLength":320,"byteOffset":84124,"target":34962},{"buffer":0,"byteLength":96,"byteOffset":84444,"target":34963},{"buffer":0,"byteLength":384,"byteOffset":84540,"target":34962},{"buffer":0,"byteLength":384,"byteOffset":84924,"target":34962},{"buffer":0,"byteLength":256,"byteOffset":85308,"target":34962},{"buffer":0,"byteLength":144,"byteOffset":85564,"target":34963},{"buffer":0,"byteLength":384,"byteOffset":85708,"target":34962},{"buffer":0,"byteLength":384,"byteOffset":86092,"target":34962},{"buffer":0,"byteLength":256,"byteOffset":86476,"target":34962},{"buffer":0,"byteLength":144,"byteOffset":86732,"target":34963},{"buffer":0,"byteLength":384,"byteOffset":86876,"target":34962},{"buffer":0,"byteLength":384,"byteOffset":87260,"target":34962},{"buffer":0,"byteLength":256,"byteOffset":87644,"target":34962},{"buffer":0,"byteLength":144,"byteOffset":87900,"target":34963},{"buffer":0,"byteLength":384,"byteOffset":88044,"target":34962},{"buffer":0,"byteLength":384,"byteOffset":88428,"target":34962},{"buffer":0,"byteLength":256,"byteOffset":88812,"target":34962}],"buffers":[{"byteLength":89068,"uri":"Wall_Window_02.bin"}],"images":[{"name":"Wall_Brick_A","uri":"Wall_Brick_A.tga"},{"name":"Wall_01_A","uri":"Wall_01_A.tga"},{"name":"Parapet_A","uri":"Parapet_A.tga"},{"name":"Glass_A","uri":"Glass_A.tga"}],"materials":[{"alphaMode":"OPAQUE","doubleSided":false,"extras":{"fromFBX":{"isTruePBR":false,"shadingModel":"Phong"}},"name":"Wall_Brick","pbrMetallicRoughness":{"baseColorFactor":[1,1,1,1],"baseColorTexture":{"index":0,"texCoord":0},"metallicFactor":0.400000005960464,"roughnessFactor":0.272165536880493}},{"alphaMode":"OPAQUE","doubleSided":false,"extras":{"fromFBX":{"isTruePBR":false,"shadingModel":"Phong"}},"name":"Wall_01","pbrMetallicRoughness":{"baseColorFactor":[1,1,1,1],"baseColorTexture":{"index":1,"texCoord":0},"metallicFactor":0.400000005960464,"roughnessFactor":0.272165536880493}},{"alphaMode":"OPAQUE","doubleSided":false,"extras":{"fromFBX":{"isTruePBR":false,"shadingModel":"Phong"}},"name":"Parapet","pbrMetallicRoughness":{"baseColorFactor":[1,1,1,1],"baseColorTexture":{"index":2,"texCoord":0},"metallicFactor":0.400000005960464,"roughnessFactor":0.272165536880493}},{"alphaMode":"OPAQUE","doubleSided":false,"extras":{"fromFBX":{"isTruePBR":false,"shadingModel":"Phong"}},"name":"Glass","pbrMetallicRoughness":{"baseColorFactor":[1,1,1,1],"baseColorTexture":{"index":3,"texCoord":0},"metallicFactor":0.400000005960464,"roughnessFactor":0.272165536880493}}],"meshes":[{"name":"Wall_Window_02_LOD0","primitives":[{"attributes":{"NORMAL":2,"POSITION":1,"TEXCOORD_0":3},"indices":0,"material":0,"mode":4},{"attributes":{"NORMAL":14,"POSITION":13,"TEXCOORD_0":15},"indices":12,"material":1,"mode":4},{"attributes":{"NORMAL":26,"POSITION":25,"TEXCOORD_0":27},"indices":24,"material":2,"mode":4},{"attributes":{"NORMAL":38,"POSITION":37,"TEXCOORD_0":39},"indices":36,"material":3,"mode":4}]},{"name":"Wall_Window_02_LOD1","primitives":[{"attributes":{"NORMAL":6,"POSITION":5,"TEXCOORD_0":7},"indices":4,"material":0,"mode":4},{"attributes":{"NORMAL":18,"POSITION":17,"TEXCOORD_0":19},"indices":16,"material":1,"mode":4},{"attributes":{"NORMAL":30,"POSITION":29,"TEXCOORD_0":31},"indices":28,"material":2,"mode":4},{"attributes":{"NORMAL":42,"POSITION":41,"TEXCOORD_0":43},"indices":40,"material":3,"mode":4}]},{"name":"Wall_Window_02_LOD2","primitives":[{"attributes":{"NORMAL":10,"POSITION":9,"TEXCOORD_0":11},"indices":8,"material":0,"mode":4},{"attributes":{"NORMAL":22,"POSITION":21,"TEXCOORD_0":23},"indices":20,"material":1,"mode":4},{"attributes":{"NORMAL":34,"POSITION":33,"TEXCOORD_0":35},"indices":32,"material":2,"mode":4},{"attributes":{"NORMAL":46,"POSITION":45,"TEXCOORD_0":47},"indices":44,"material":3,"mode":4}]}],"nodes":[{"mesh":0,"name":"Wall_Window_02_LOD0","rotation":[0,0,0,1],"scale":[1,1,1],"translation":[0,0,0]},{"mesh":1,"name":"Wall_Window_02_LOD1","rotation":[0,0,0,1],"scale":[1,1,1],"translation":[0,0,0]},{"mesh":2,"name":"Wall_Window_02_LOD2","rotation":[0,0,0,1],"scale":[1,1,1],"translation":[0,0,0]}],"samplers":[{}],"scene":0,"scenes":[{"name":"Root Scene","nodes":[0,1,2]}],"textures":[{"name":"base_color_texture","sampler":0,"source":0},{"name":"base_color_texture","sampler":0,"source":1},{"name":"base_color_texture","sampler":0,"source":2},{"name":"base_color_texture","sampler":0,"source":3}]}