{"accessors":[{"bufferView":0,"byteOffset":0,"componentType":5123,"count":1452,"type":"SCALAR"},{"bufferView":1,"byteOffset":0,"componentType":5126,"count":920,"max":[0.560240209102631,4,4],"min":[-0.05771385878325,0,0],"type":"VEC3"},{"bufferView":2,"byteOffset":0,"componentType":5126,"count":920,"type":"VEC3"},{"bufferView":3,"byteOffset":0,"componentType":5126,"count":920,"type":"VEC2"},{"bufferView":4,"byteOffset":0,"componentType":5123,"count":1020,"type":"SCALAR"},{"bufferView":5,"byteOffset":0,"componentType":5126,"count":722,"max":[0.564293324947357,4,4],"min":[-0.05771385878325,0,0],"type":"VEC3"},{"bufferView":6,"byteOffset":0,"componentType":5126,"count":722,"type":"VEC3"},{"bufferView":7,"byteOffset":0,"componentType":5126,"count":722,"type":"VEC2"},{"bufferView":8,"byteOffset":0,"componentType":5123,"count":420,"type":"SCALAR"},{"bufferView":9,"byteOffset":0,"componentType":5126,"count":278,"max":[0.564293324947357,4,4],"min":[-0.05771385878325,0,0],"type":"VEC3"},{"bufferView":10,"byteOffset":0,"componentType":5126,"count":278,"type":"VEC3"},{"bufferView":11,"byteOffset":0,"componentType":5126,"count":278,"type":"VEC2"},{"bufferView":12,"byteOffset":0,"componentType":5123,"count":24,"type":"SCALAR"},{"bufferView":13,"byteOffset":0,"componentType":5126,"count":16,"max":[0.106942355632782,2.49098253250122,3.27914810180664],"min":[0.0981353372335434,0.818919479846954,0.719375848770142],"type":"VEC3"},{"bufferView":14,"byteOffset":0,"componentType":5126,"count":16,"type":"VEC3"},{"bufferView":15,"byteOffset":0,"componentType":5126,"count":16,"type":"VEC2"},{"bufferView":16,"byteOffset":0,"componentType":5123,"count":24,"type":"SCALAR"},{"bufferView":17,"byteOffset":0,"componentType":5126,"count":16,"max":[0.106942355632782,2.49098253250122,3.27914810180664],"min":[0.0981353372335434,0.818919479846954,0.719375848770142],"type":"VEC3"},{"bufferView":18,"byteOffset":0,"componentType":5126,"count":16,"type":"VEC3"},{"bufferView":19,"byteOffset":0,"componentType":5126,"count":16,"type":"VEC2"},{"bufferView":20,"byteOffset":0,"componentType":5123,"count":24,"type":"SCALAR"},{"bufferView":21,"byteOffset":0,"componentType":5126,"count":16,"max":[0.106942355632782,2.49098253250122,3.27914810180664],"min":[0.0981353372335434,0.818919479846954,0.719375848770142],"type":"VEC3"},{"bufferView":22,"byteOffset":0,"componentType":5126,"count":16,"type":"VEC3"},{"bufferView":23,"byteOffset":0,"componentType":5126,"count":16,"type":"VEC2"},{"bufferView":24,"byteOffset":0,"componentType":5123,"count":264,"type":"SCALAR"},{"bufferView":25,"byteOffset":0,"componentType":5126,"count":94,"max":[0.553928196430206,4,4],"min":[0.132016941905022,-0.00123870372772,-0.00000023841858],"type":"VEC3"},{"bufferView":26,"byteOffset":0,"componentType":5126,"count":94,"type":"VEC3"},{"bufferView":27,"byteOffset":0,"componentType":5126,"count":94,"type":"VEC2"},{"bufferView":28,"byteOffset":0,"componentType":5123,"count":246,"type":"SCALAR"},{"bufferView":29,"byteOffset":0,"componentType":5126,"count":90,"max":[0.553928196430206,4,4],"min":[0.132016941905022,-0.00123870372772,-0.00000023841858],"type":"VEC3"},{"bufferView":30,"byteOffset":0,"componentType":5126,"count":90,"type":"VEC3"},{"bufferView":31,"byteOffset":0,"componentType":5126,"count":90,"type":"VEC2"},{"bufferView":32,"byteOffset":0,"componentType":5123,"count":123,"type":"SCALAR"},{"bufferView":33,"byteOffset":0,"componentType":5126,"count":63,"max":[0.553928196430206,4,4],"min":[0.132016941905022,-0.00123870372772,-0.00000023841858],"type":"VEC3"},{"bufferView":34,"byteOffset":0,"componentType":5126,"count":63,"type":"VEC3"},{"bufferView":35,"byteOffset":0,"componentType":5126,"count":63,"type":"VEC2"},{"bufferView":36,"byteOffset":0,"componentType":5123,"count":42,"type":"SCALAR"},{"bufferView":37,"byteOffset":0,"componentType":5126,"count":28,"max":[0,-0.00041222572327,4],"min":[-0.11927881091833,-0.18762074410915,-0.00000190734863],"type":"VEC3"},{"bufferView":38,"byteOffset":0,"componentType":5126,"count":28,"type":"VEC3"},{"bufferView":39,"byteOffset":0,"componentType":5126,"count":28,"type":"VEC2"},{"bufferView":40,"byteOffset":0,"componentType":5123,"count":42,"type":"SCALAR"},{"bufferView":41,"byteOffset":0,"componentType":5126,"count":28,"max":[0,-0.00041222572327,4],"min":[-0.11927890777588,-0.18762074410915,-0.00000190734863],"type":"VEC3"},{"bufferView":42,"byteOffset":0,"componentType":5126,"count":28,"type":"VEC3"},{"bufferView":43,"byteOffset":0,"componentType":5126,"count":28,"type":"VEC2"},{"bufferView":44,"byteOffset":0,"componentType":5123,"count":42,"type":"SCALAR"},{"bufferView":45,"byteOffset":0,"componentType":5126,"count":28,"max":[0,-0.00041222572327,4],"min":[-0.11927890777588,-0.18762074410915,-0.00000190734863],"type":"VEC3"},{"bufferView":46,"byteOffset":0,"componentType":5126,"count":28,"type":"VEC3"},{"bufferView":47,"byteOffset":0,"componentType":5126,"count":28,"type":"VEC2"}],"asset":{"generator":"FBX2glTF v0.13.1","version":"2.0"},"bufferViews":[{"buffer":0,"byteLength":2904,"byteOffset":0,"target":34963},{"buffer":0,"byteLength":11040,"byteOffset":2904,"target":34962},{"buffer":0,"byteLength":11040,"byteOffset":13944,"target":34962},{"buffer":0,"byteLength":7360,"byteOffset":24984,"target":34962},{"buffer":0,"byteLength":2040,"byteOffset":32344,"target":34963},{"buffer":0,"byteLength":8664,"byteOffset":34384,"target":34962},{"buffer":0,"byteLength":8664,"byteOffset":43048,"target":34962},{"buffer":0,"byteLength":5776,"byteOffset":51712,"target":34962},{"buffer":0,"byteLength":840,"byteOffset":57488,"target":34963},{"buffer":0,"byteLength":3336,"byteOffset":58328,"target":34962},{"buffer":0,"byteLength":3336,"byteOffset":61664,"target":34962},{"buffer":0,"byteLength":2224,"byteOffset":65000,"target":34962},{"buffer":0,"byteLength":48,"byteOffset":67224,"target":34963},{"buffer":0,"byteLength":192,"byteOffset":67272,"target":34962},{"buffer":0,"byteLength":192,"byteOffset":67464,"target":34962},{"buffer":0,"byteLength":128,"byteOffset":67656,"target":34962},{"buffer":0,"byteLength":48,"byteOffset":67784,"target":34963},{"buffer":0,"byteLength":192,"byteOffset":67832,"target":34962},{"buffer":0,"byteLength":192,"byteOffset":68024,"target":34962},{"buffer":0,"byteLength":128,"byteOffset":68216,"target":34962},{"buffer":0,"byteLength":48,"byteOffset":68344,"target":34963},{"buffer":0,"byteLength":192,"byteOffset":68392,"target":34962},{"buffer":0,"byteLength":192,"byteOffset":68584,"target":34962},{"buffer":0,"byteLength":128,"byteOffset":68776,"target":34962},{"buffer":0,"byteLength":528,"byteOffset":68904,"target":34963},{"buffer":0,"byteLength":1128,"byteOffset":69432,"target":34962},{"buffer":0,"byteLength":1128,"byteOffset":70560,"target":34962},{"buffer":0,"byteLength":752,"byteOffset":71688,"target":34962},{"buffer":0,"byteLength":492,"byteOffset":72440,"target":34963},{"buffer":0,"byteLength":1080,"byteOffset":72932,"target":34962},{"buffer":0,"byteLength":1080,"byteOffset":74012,"target":34962},{"buffer":0,"byteLength":720,"byteOffset":75092,"target":34962},{"buffer":0,"byteLength":246,"byteOffset":75812,"target":34963},{"buffer":0,"byteLength":756,"byteOffset":76060,"target":34962},{"buffer":0,"byteLength":756,"byteOffset":76816,"target":34962},{"buffer":0,"byteLength":504,"byteOffset":77572,"target":34962},{"buffer":0,"byteLength":84,"byteOffset":78076,"target":34963},{"buffer":0,"byteLength":336,"byteOffset":78160,"target":34962},{"buffer":0,"byteLength":336,"byteOffset":78496,"target":34962},{"buffer":0,"byteLength":224,"byteOffset":78832,"target":34962},{"buffer":0,"byteLength":84,"byteOffset":79056,"target":34963},{"buffer":0,"byteLength":336,"byteOffset":79140,"target":34962},{"buffer":0,"byteLength":336,"byteOffset":79476,"target":34962},{"buffer":0,"byteLength":224,"byteOffset":79812,"target":34962},{"buffer":0,"byteLength":84,"byteOffset":80036,"target":34963},{"buffer":0,"byteLength":336,"byteOffset":80120,"target":34962},{"buffer":0,"byteLength":336,"byteOffset":80456,"target":34962},{"buffer":0,"byteLength":224,"byteOffset":80792,"target":34962}],"buffers":[{"byteLength":81016,"uri":"Wall_Window_03.bin"}],"images":[{"name":"Wall_Brick_A","uri":"Wall_Brick_A.tga"},{"name":"Glass_A","uri":"Glass_A.tga"},{"name":"Wall_01_A","uri":"Wall_01_A.tga"},{"name":"Parapet_A","uri":"Parapet_A.tga"}],"materials":[{"alphaMode":"OPAQUE","doubleSided":false,"extras":{"fromFBX":{"isTruePBR":false,"shadingModel":"Phong"}},"name":"Wall_Brick","pbrMetallicRoughness":{"baseColorFactor":[1,1,1,1],"baseColorTexture":{"index":0,"texCoord":0},"metallicFactor":0.400000005960464,"roughnessFactor":0.272165536880493}},{"alphaMode":"OPAQUE","doubleSided":false,"extras":{"fromFBX":{"isTruePBR":false,"shadingModel":"Phong"}},"name":"Glass","pbrMetallicRoughness":{"baseColorFactor":[1,1,1,1],"baseColorTexture":{"index":1,"texCoord":0},"metallicFactor":0.400000005960464,"roughnessFactor":0.272165536880493}},{"alphaMode":"OPAQUE","doubleSided":false,"extras":{"fromFBX":{"isTruePBR":false,"shadingModel":"Phong"}},"name":"Wall_01","pbrMetallicRoughness":{"baseColorFactor":[1,1,1,1],"baseColorTexture":{"index":2,"texCoord":0},"metallicFactor":0.400000005960464,"roughnessFactor":0.272165536880493}},{"alphaMode":"OPAQUE","doubleSided":false,"extras":{"fromFBX":{"isTruePBR":false,"shadingModel":"Phong"}},"name":"Parapet","pbrMetallicRoughness":{"baseColorFactor":[1,1,1,1],"baseColorTexture":{"index":3,"texCoord":0},"metallicFactor":0.400000005960464,"roughnessFactor":0.272165536880493}}],"meshes":[{"name":"Wall_Window_03_LOD0","primitives":[{"attributes":{"NORMAL":2,"POSITION":1,"TEXCOORD_0":3},"indices":0,"material":0,"mode":4},{"attributes":{"NORMAL":14,"POSITION":13,"TEXCOORD_0":15},"indices":12,"material":1,"mode":4},{"attributes":{"NORMAL":26,"POSITION":25,"TEXCOORD_0":27},"indices":24,"material":2,"mode":4},{"attributes":{"NORMAL":38,"POSITION":37,"TEXCOORD_0":39},"indices":36,"material":3,"mode":4}]},{"name":"Wall_Window_03_LOD1","primitives":[{"attributes":{"NORMAL":6,"POSITION":5,"TEXCOORD_0":7},"indices":4,"material":0,"mode":4},{"attributes":{"NORMAL":18,"POSITION":17,"TEXCOORD_0":19},"indices":16,"material":1,"mode":4},{"attributes":{"NORMAL":30,"POSITION":29,"TEXCOORD_0":31},"indices":28,"material":2,"mode":4},{"attributes":{"NORMAL":42,"POSITION":41,"TEXCOORD_0":43},"indices":40,"material":3,"mode":4}]},{"name":"Wall_Window_03_LOD2","primitives":[{"attributes":{"NORMAL":10,"POSITION":9,"TEXCOORD_0":11},"indices":8,"material":0,"mode":4},{"attributes":{"NORMAL":22,"POSITION":21,"TEXCOORD_0":23},"indices":20,"material":1,"mode":4},{"attributes":{"NORMAL":34,"POSITION":33,"TEXCOORD_0":35},"indices":32,"material":2,"mode":4},{"attributes":{"NORMAL":46,"POSITION":45,"TEXCOORD_0":47},"indices":44,"material":3,"mode":4}]}],"nodes":[{"mesh":0,"name":"Wall_Window_03_LOD0","rotation":[0,0,0,1],"scale":[1,1,1],"translation":[0,0,0]},{"mesh":1,"name":"Wall_Window_03_LOD1","rotation":[0,0,0,1],"scale":[1,1,1],"translation":[0,0,0]},{"mesh":2,"name":"Wall_Window_03_LOD2","rotation":[0,0,0,1],"scale":[1,1,1],"translation":[0,0,0]}],"samplers":[{}],"scene":0,"scenes":[{"name":"Root Scene","nodes":[0,1,2]}],"textures":[{"name":"base_color_texture","sampler":0,"source":0},{"name":"base_color_texture","sampler":0,"source":1},{"name":"base_color_texture","sampler":0,"source":2},{"name":"base_color_texture","sampler":0,"source":3}]}