{"accessors":[{"bufferView":0,"byteOffset":0,"componentType":5123,"count":672,"type":"SCALAR"},{"bufferView":1,"byteOffset":0,"componentType":5126,"count":454,"max":[4.00000190734863,1,3.99999952316284],"min":[-0.54695171117783,0,-0.54695165157318],"type":"VEC3"},{"bufferView":2,"byteOffset":0,"componentType":5126,"count":454,"type":"VEC3"},{"bufferView":3,"byteOffset":0,"componentType":5126,"count":454,"type":"VEC2"},{"bufferView":4,"byteOffset":0,"componentType":5123,"count":546,"type":"SCALAR"},{"bufferView":5,"byteOffset":0,"componentType":5126,"count":376,"max":[4.00000190734863,1,3.99999952316284],"min":[-0.54695171117783,0,-0.54695165157318],"type":"VEC3"},{"bufferView":6,"byteOffset":0,"componentType":5126,"count":376,"type":"VEC3"},{"bufferView":7,"byteOffset":0,"componentType":5126,"count":376,"type":"VEC2"},{"bufferView":8,"byteOffset":0,"componentType":5123,"count":516,"type":"SCALAR"},{"bufferView":9,"byteOffset":0,"componentType":5126,"count":366,"max":[4.00000333786011,1,4.00000047683716],"min":[-0.54695171117783,0,-0.54695165157318],"type":"VEC3"},{"bufferView":10,"byteOffset":0,"componentType":5126,"count":366,"type":"VEC3"},{"bufferView":11,"byteOffset":0,"componentType":5126,"count":366,"type":"VEC2"},{"bufferView":12,"byteOffset":0,"componentType":5123,"count":9360,"type":"SCALAR"},{"bufferView":13,"byteOffset":0,"componentType":5126,"count":4346,"max":[4,5,3.99999952316284],"min":[-0.04140567779541,1,-0.0414057187736],"type":"VEC3"},{"bufferView":14,"byteOffset":0,"componentType":5126,"count":4346,"type":"VEC3"},{"bufferView":15,"byteOffset":0,"componentType":5126,"count":4346,"type":"VEC2"},{"bufferView":16,"byteOffset":0,"componentType":5123,"count":4836,"type":"SCALAR"},{"bufferView":17,"byteOffset":0,"componentType":5126,"count":2680,"max":[4,5,3.99999952316284],"min":[-0.04140567779541,1,-0.0414057187736],"type":"VEC3"},{"bufferView":18,"byteOffset":0,"componentType":5126,"count":2680,"type":"VEC3"},{"bufferView":19,"byteOffset":0,"componentType":5126,"count":2680,"type":"VEC2"},{"bufferView":20,"byteOffset":0,"componentType":5123,"count":1590,"type":"SCALAR"},{"bufferView":21,"byteOffset":0,"componentType":5126,"count":840,"max":[4,5,3.99999952316284],"min":[-0.04140567779541,1,-0.0414057187736],"type":"VEC3"},{"bufferView":22,"byteOffset":0,"componentType":5126,"count":840,"type":"VEC3"},{"bufferView":23,"byteOffset":0,"componentType":5126,"count":840,"type":"VEC2"},{"bufferView":24,"byteOffset":0,"componentType":5123,"count":1092,"type":"SCALAR"},{"bufferView":25,"byteOffset":0,"componentType":5126,"count":314,"max":[4,5,4],"min":[0.000000238418579101562,0.998761355876923,0.000000000000014210854715202],"type":"VEC3"},{"bufferView":26,"byteOffset":0,"componentType":5126,"count":314,"type":"VEC3"},{"bufferView":27,"byteOffset":0,"componentType":5126,"count":314,"type":"VEC2"},{"bufferView":28,"byteOffset":0,"componentType":5123,"count":1092,"type":"SCALAR"},{"bufferView":29,"byteOffset":0,"componentType":5126,"count":314,"max":[4,5,4],"min":[0.000000238418579101562,0.998761355876923,-0.00000000000001],"type":"VEC3"},{"bufferView":30,"byteOffset":0,"componentType":5126,"count":314,"type":"VEC3"},{"bufferView":31,"byteOffset":0,"componentType":5126,"count":314,"type":"VEC2"},{"bufferView":32,"byteOffset":0,"componentType":5123,"count":1092,"type":"SCALAR"},{"bufferView":33,"byteOffset":0,"componentType":5126,"count":314,"max":[4,5,4],"min":[0.000000238418579101562,0.998761355876923,0.000000000000042632564145606],"type":"VEC3"},{"bufferView":34,"byteOffset":0,"componentType":5126,"count":314,"type":"VEC3"},{"bufferView":35,"byteOffset":0,"componentType":5126,"count":314,"type":"VEC2"},{"bufferView":36,"byteOffset":0,"componentType":5123,"count":288,"type":"SCALAR"},{"bufferView":37,"byteOffset":0,"componentType":5126,"count":128,"max":[3.26523041725159,3.7350652217865,3.27914810180664],"min":[0.0981347560882568,1.8189195394516,0.0981345698237419],"type":"VEC3"},{"bufferView":38,"byteOffset":0,"componentType":5126,"count":128,"type":"VEC3"},{"bufferView":39,"byteOffset":0,"componentType":5126,"count":128,"type":"VEC2"},{"bufferView":40,"byteOffset":0,"componentType":5123,"count":288,"type":"SCALAR"},{"bufferView":41,"byteOffset":0,"componentType":5126,"count":128,"max":[3.26523041725159,3.7350652217865,3.27914810180664],"min":[0.0981347560882568,1.8189195394516,0.0981345698237419],"type":"VEC3"},{"bufferView":42,"byteOffset":0,"componentType":5126,"count":128,"type":"VEC3"},{"bufferView":43,"byteOffset":0,"componentType":5126,"count":128,"type":"VEC2"},{"bufferView":44,"byteOffset":0,"componentType":5123,"count":288,"type":"SCALAR"},{"bufferView":45,"byteOffset":0,"componentType":5126,"count":128,"max":[3.26523041725159,3.7350652217865,3.27914810180664],"min":[0.0981347560882568,1.8189195394516,0.0981345698237419],"type":"VEC3"},{"bufferView":46,"byteOffset":0,"componentType":5126,"count":128,"type":"VEC3"},{"bufferView":47,"byteOffset":0,"componentType":5126,"count":128,"type":"VEC2"}],"asset":{"generator":"FBX2glTF v0.13.1","version":"2.0"},"bufferViews":[{"buffer":0,"byteLength":1344,"byteOffset":0,"target":34963},{"buffer":0,"byteLength":5448,"byteOffset":1344,"target":34962},{"buffer":0,"byteLength":5448,"byteOffset":6792,"target":34962},{"buffer":0,"byteLength":3632,"byteOffset":12240,"target":34962},{"buffer":0,"byteLength":1092,"byteOffset":15872,"target":34963},{"buffer":0,"byteLength":4512,"byteOffset":16964,"target":34962},{"buffer":0,"byteLength":4512,"byteOffset":21476,"target":34962},{"buffer":0,"byteLength":3008,"byteOffset":25988,"target":34962},{"buffer":0,"byteLength":1032,"byteOffset":28996,"target":34963},{"buffer":0,"byteLength":4392,"byteOffset":30028,"target":34962},{"buffer":0,"byteLength":4392,"byteOffset":34420,"target":34962},{"buffer":0,"byteLength":2928,"byteOffset":38812,"target":34962},{"buffer":0,"byteLength":18720,"byteOffset":41740,"target":34963},{"buffer":0,"byteLength":52152,"byteOffset":60460,"target":34962},{"buffer":0,"byteLength":52152,"byteOffset":112612,"target":34962},{"buffer":0,"byteLength":34768,"byteOffset":164764,"target":34962},{"buffer":0,"byteLength":9672,"byteOffset":199532,"target":34963},{"buffer":0,"byteLength":32160,"byteOffset":209204,"target":34962},{"buffer":0,"byteLength":32160,"byteOffset":241364,"target":34962},{"buffer":0,"byteLength":21440,"byteOffset":273524,"target":34962},{"buffer":0,"byteLength":3180,"byteOffset":294964,"target":34963},{"buffer":0,"byteLength":10080,"byteOffset":298144,"target":34962},{"buffer":0,"byteLength":10080,"byteOffset":308224,"target":34962},{"buffer":0,"byteLength":6720,"byteOffset":318304,"target":34962},{"buffer":0,"byteLength":2184,"byteOffset":325024,"target":34963},{"buffer":0,"byteLength":3768,"byteOffset":327208,"target":34962},{"buffer":0,"byteLength":3768,"byteOffset":330976,"target":34962},{"buffer":0,"byteLength":2512,"byteOffset":334744,"target":34962},{"buffer":0,"byteLength":2184,"byteOffset":337256,"target":34963},{"buffer":0,"byteLength":3768,"byteOffset":339440,"target":34962},{"buffer":0,"byteLength":3768,"byteOffset":343208,"target":34962},{"buffer":0,"byteLength":2512,"byteOffset":346976,"target":34962},{"buffer":0,"byteLength":2184,"byteOffset":349488,"target":34963},{"buffer":0,"byteLength":3768,"byteOffset":351672,"target":34962},{"buffer":0,"byteLength":3768,"byteOffset":355440,"target":34962},{"buffer":0,"byteLength":2512,"byteOffset":359208,"target":34962},{"buffer":0,"byteLength":576,"byteOffset":361720,"target":34963},{"buffer":0,"byteLength":1536,"byteOffset":362296,"target":34962},{"buffer":0,"byteLength":1536,"byteOffset":363832,"target":34962},{"buffer":0,"byteLength":1024,"byteOffset":365368,"target":34962},{"buffer":0,"byteLength":576,"byteOffset":366392,"target":34963},{"buffer":0,"byteLength":1536,"byteOffset":366968,"target":34962},{"buffer":0,"byteLength":1536,"byteOffset":368504,"target":34962},{"buffer":0,"byteLength":1024,"byteOffset":370040,"target":34962},{"buffer":0,"byteLength":576,"byteOffset":371064,"target":34963},{"buffer":0,"byteLength":1536,"byteOffset":371640,"target":34962},{"buffer":0,"byteLength":1536,"byteOffset":373176,"target":34962},{"buffer":0,"byteLength":1024,"byteOffset":374712,"target":34962}],"buffers":[{"byteLength":375736,"uri":"Wall_Window_04.bin"}],"images":[{"name":"Parapet_A","uri":"Parapet_A.tga"},{"name":"Wall_Brick_A","uri":"Wall_Brick_A.tga"},{"name":"Wall_01_A","uri":"Wall_01_A.tga"},{"name":"Glass_A","uri":"Glass_A.tga"}],"materials":[{"alphaMode":"OPAQUE","doubleSided":false,"extras":{"fromFBX":{"isTruePBR":false,"shadingModel":"Phong"}},"name":"Parapet","pbrMetallicRoughness":{"baseColorFactor":[1,1,1,1],"baseColorTexture":{"index":0,"texCoord":0},"metallicFactor":0.400000005960464,"roughnessFactor":0.272165536880493}},{"alphaMode":"OPAQUE","doubleSided":false,"extras":{"fromFBX":{"isTruePBR":false,"shadingModel":"Phong"}},"name":"Wall_Brick","pbrMetallicRoughness":{"baseColorFactor":[1,1,1,1],"baseColorTexture":{"index":1,"texCoord":0},"metallicFactor":0.400000005960464,"roughnessFactor":0.272165536880493}},{"alphaMode":"OPAQUE","doubleSided":false,"extras":{"fromFBX":{"isTruePBR":false,"shadingModel":"Phong"}},"name":"Wall_01","pbrMetallicRoughness":{"baseColorFactor":[1,1,1,1],"baseColorTexture":{"index":2,"texCoord":0},"metallicFactor":0.400000005960464,"roughnessFactor":0.272165536880493}},{"alphaMode":"OPAQUE","doubleSided":false,"extras":{"fromFBX":{"isTruePBR":false,"shadingModel":"Phong"}},"name":"Glass","pbrMetallicRoughness":{"baseColorFactor":[1,1,1,1],"baseColorTexture":{"index":3,"texCoord":0},"metallicFactor":0.400000005960464,"roughnessFactor":0.272165536880493}}],"meshes":[{"name":"Wall_Window_04_LOD0","primitives":[{"attributes":{"NORMAL":2,"POSITION":1,"TEXCOORD_0":3},"indices":0,"material":0,"mode":4},{"attributes":{"NORMAL":14,"POSITION":13,"TEXCOORD_0":15},"indices":12,"material":1,"mode":4},{"attributes":{"NORMAL":26,"POSITION":25,"TEXCOORD_0":27},"indices":24,"material":2,"mode":4},{"attributes":{"NORMAL":38,"POSITION":37,"TEXCOORD_0":39},"indices":36,"material":3,"mode":4}]},{"name":"Wall_Window_04_LOD1","primitives":[{"attributes":{"NORMAL":6,"POSITION":5,"TEXCOORD_0":7},"indices":4,"material":0,"mode":4},{"attributes":{"NORMAL":18,"POSITION":17,"TEXCOORD_0":19},"indices":16,"material":1,"mode":4},{"attributes":{"NORMAL":30,"POSITION":29,"TEXCOORD_0":31},"indices":28,"material":2,"mode":4},{"attributes":{"NORMAL":42,"POSITION":41,"TEXCOORD_0":43},"indices":40,"material":3,"mode":4}]},{"name":"Wall_Window_04_LOD2","primitives":[{"attributes":{"NORMAL":10,"POSITION":9,"TEXCOORD_0":11},"indices":8,"material":0,"mode":4},{"attributes":{"NORMAL":22,"POSITION":21,"TEXCOORD_0":23},"indices":20,"material":1,"mode":4},{"attributes":{"NORMAL":34,"POSITION":33,"TEXCOORD_0":35},"indices":32,"material":2,"mode":4},{"attributes":{"NORMAL":46,"POSITION":45,"TEXCOORD_0":47},"indices":44,"material":3,"mode":4}]}],"nodes":[{"mesh":0,"name":"Wall_Window_04_LOD0","rotation":[0,0,0,1],"scale":[1,1,1],"translation":[0,0,0]},{"mesh":1,"name":"Wall_Window_04_LOD1","rotation":[0,0,0,1],"scale":[1,1,1],"translation":[0,0,0]},{"mesh":2,"name":"Wall_Window_04_LOD2","rotation":[0,0,0,1],"scale":[1,1,1],"translation":[0,0,0]}],"samplers":[{}],"scene":0,"scenes":[{"name":"Root Scene","nodes":[0,1,2]}],"textures":[{"name":"base_color_texture","sampler":0,"source":0},{"name":"base_color_texture","sampler":0,"source":1},{"name":"base_color_texture","sampler":0,"source":2},{"name":"base_color_texture","sampler":0,"source":3}]}