{"accessors":[{"bufferView":0,"byteOffset":0,"componentType":5123,"count":24,"type":"SCALAR"},{"bufferView":1,"byteOffset":0,"componentType":5126,"count":16,"max":[2,4,0],"min":[-0.00000065168268,0,-2],"type":"VEC3"},{"bufferView":2,"byteOffset":0,"componentType":5126,"count":16,"type":"VEC3"},{"bufferView":3,"byteOffset":0,"componentType":5126,"count":16,"type":"VEC2"},{"bufferView":4,"byteOffset":0,"componentType":5123,"count":108,"type":"SCALAR"},{"bufferView":5,"byteOffset":0,"componentType":5126,"count":48,"max":[2,4,-0.49842071533203],"min":[0.498504400253296,-0.00123828649521,-2.00000023841858],"type":"VEC3"},{"bufferView":6,"byteOffset":0,"componentType":5126,"count":48,"type":"VEC3"},{"bufferView":7,"byteOffset":0,"componentType":5126,"count":48,"type":"VEC2"},{"bufferView":8,"byteOffset":0,"componentType":5123,"count":84,"type":"SCALAR"},{"bufferView":9,"byteOffset":0,"componentType":5126,"count":56,"max":[2.00000095367432,-0.00041222572327,0.119278475642204],"min":[-0.11927840858698,-0.18762074410915,-2.00000095367432],"type":"VEC3"},{"bufferView":10,"byteOffset":0,"componentType":5126,"count":56,"type":"VEC3"},{"bufferView":11,"byteOffset":0,"componentType":5126,"count":56,"type":"VEC2"}],"asset":{"generator":"FBX2glTF v0.13.1","version":"2.0"},"bufferViews":[{"buffer":0,"byteLength":48,"byteOffset":0,"target":34963},{"buffer":0,"byteLength":192,"byteOffset":48,"target":34962},{"buffer":0,"byteLength":192,"byteOffset":240,"target":34962},{"buffer":0,"byteLength":128,"byteOffset":432,"target":34962},{"buffer":0,"byteLength":216,"byteOffset":560,"target":34963},{"buffer":0,"byteLength":576,"byteOffset":776,"target":34962},{"buffer":0,"byteLength":576,"byteOffset":1352,"target":34962},{"buffer":0,"byteLength":384,"byteOffset":1928,"target":34962},{"buffer":0,"byteLength":168,"byteOffset":2312,"target":34963},{"buffer":0,"byteLength":672,"byteOffset":2480,"target":34962},{"buffer":0,"byteLength":672,"byteOffset":3152,"target":34962},{"buffer":0,"byteLength":448,"byteOffset":3824,"target":34962}],"buffers":[{"byteLength":4272,"uri":"Wall_Angle_03.bin"}],"images":[{"name":"Wall_Brick_A","uri":"Wall_Brick_A.tga"},{"name":"Wall_01_A","uri":"Wall_01_A.tga"},{"name":"Parapet_A","uri":"Parapet_A.tga"}],"materials":[{"alphaMode":"OPAQUE","doubleSided":false,"extras":{"fromFBX":{"isTruePBR":false,"shadingModel":"Phong"}},"name":"Wall_Brick","pbrMetallicRoughness":{"baseColorFactor":[1,1,1,1],"baseColorTexture":{"index":0,"texCoord":0},"metallicFactor":0.400000005960464,"roughnessFactor":0.272165536880493}},{"alphaMode":"OPAQUE","doubleSided":false,"extras":{"fromFBX":{"isTruePBR":false,"shadingModel":"Phong"}},"name":"Wall_01","pbrMetallicRoughness":{"baseColorFactor":[1,1,1,1],"baseColorTexture":{"index":1,"texCoord":0},"metallicFactor":0.400000005960464,"roughnessFactor":0.272165536880493}},{"alphaMode":"OPAQUE","doubleSided":false,"extras":{"fromFBX":{"isTruePBR":false,"shadingModel":"Phong"}},"name":"Parapet","pbrMetallicRoughness":{"baseColorFactor":[1,1,1,1],"baseColorTexture":{"index":2,"texCoord":0},"metallicFactor":0.400000005960464,"roughnessFactor":0.272165536880493}}],"meshes":[{"name":"Wall_Angle_03","primitives":[{"attributes":{"NORMAL":2,"POSITION":1,"TEXCOORD_0":3},"indices":0,"material":0,"mode":4},{"attributes":{"NORMAL":6,"POSITION":5,"TEXCOORD_0":7},"indices":4,"material":1,"mode":4},{"attributes":{"NORMAL":10,"POSITION":9,"TEXCOORD_0":11},"indices":8,"material":2,"mode":4}]}],"nodes":[{"mesh":0,"name":"Wall_Angle_03","rotation":[0,0,0,1],"scale":[1,1,1],"translation":[0,0,0]}],"samplers":[{}],"scene":0,"scenes":[{"name":"Root Scene","nodes":[0]}],"textures":[{"name":"base_color_texture","sampler":0,"source":0},{"name":"base_color_texture","sampler":0,"source":1},{"name":"base_color_texture","sampler":0,"source":2}]}