{"accessors":[{"bufferView":0,"byteOffset":0,"componentType":5123,"count":1464,"type":"SCALAR"},{"bufferView":1,"byteOffset":0,"componentType":5126,"count":916,"max":[0.560240209102631,4,0],"min":[-2,0,-4],"type":"VEC3"},{"bufferView":2,"byteOffset":0,"componentType":5126,"count":916,"type":"VEC3"},{"bufferView":3,"byteOffset":0,"componentType":5126,"count":916,"type":"VEC2"},{"bufferView":4,"byteOffset":0,"componentType":5123,"count":1032,"type":"SCALAR"},{"bufferView":5,"byteOffset":0,"componentType":5126,"count":686,"max":[0.564293324947357,4,0],"min":[-2,0,-4],"type":"VEC3"},{"bufferView":6,"byteOffset":0,"componentType":5126,"count":686,"type":"VEC3"},{"bufferView":7,"byteOffset":0,"componentType":5126,"count":686,"type":"VEC2"},{"bufferView":8,"byteOffset":0,"componentType":5123,"count":432,"type":"SCALAR"},{"bufferView":9,"byteOffset":0,"componentType":5126,"count":290,"max":[0.564293324947357,4,0],"min":[-2,0,-4],"type":"VEC3"},{"bufferView":10,"byteOffset":0,"componentType":5126,"count":290,"type":"VEC3"},{"bufferView":11,"byteOffset":0,"componentType":5126,"count":290,"type":"VEC2"},{"bufferView":12,"byteOffset":0,"componentType":5123,"count":24,"type":"SCALAR"},{"bufferView":13,"byteOffset":0,"componentType":5126,"count":16,"max":[0.106942355632782,2.49098253250122,-0.71937584877014],"min":[0.0981353372335434,0.818919479846954,-3.27914810180664],"type":"VEC3"},{"bufferView":14,"byteOffset":0,"componentType":5126,"count":16,"type":"VEC3"},{"bufferView":15,"byteOffset":0,"componentType":5126,"count":16,"type":"VEC2"},{"bufferView":16,"byteOffset":0,"componentType":5123,"count":24,"type":"SCALAR"},{"bufferView":17,"byteOffset":0,"componentType":5126,"count":16,"max":[0.106942355632782,2.49098253250122,-0.71937584877014],"min":[0.0981353372335434,0.818919479846954,-3.27914810180664],"type":"VEC3"},{"bufferView":18,"byteOffset":0,"componentType":5126,"count":16,"type":"VEC3"},{"bufferView":19,"byteOffset":0,"componentType":5126,"count":16,"type":"VEC2"},{"bufferView":20,"byteOffset":0,"componentType":5123,"count":24,"type":"SCALAR"},{"bufferView":21,"byteOffset":0,"componentType":5126,"count":16,"max":[0.106942355632782,2.49098253250122,-0.71937584877014],"min":[0.0981353372335434,0.818919479846954,-3.27914810180664],"type":"VEC3"},{"bufferView":22,"byteOffset":0,"componentType":5126,"count":16,"type":"VEC3"},{"bufferView":23,"byteOffset":0,"componentType":5126,"count":16,"type":"VEC2"},{"bufferView":24,"byteOffset":0,"componentType":5123,"count":546,"type":"SCALAR"},{"bufferView":25,"byteOffset":0,"componentType":5126,"count":208,"max":[0.553928434848785,4,0.553928375244141],"min":[-2.00000023841858,-0.00123870372772,-4],"type":"VEC3"},{"bufferView":26,"byteOffset":0,"componentType":5126,"count":208,"type":"VEC3"},{"bufferView":27,"byteOffset":0,"componentType":5126,"count":208,"type":"VEC2"},{"bufferView":28,"byteOffset":0,"componentType":5123,"count":546,"type":"SCALAR"},{"bufferView":29,"byteOffset":0,"componentType":5126,"count":210,"max":[0.553928375244141,4,0.553928375244141],"min":[-2.00000023841858,-0.00123870372772,-4],"type":"VEC3"},{"bufferView":30,"byteOffset":0,"componentType":5126,"count":210,"type":"VEC3"},{"bufferView":31,"byteOffset":0,"componentType":5126,"count":210,"type":"VEC2"},{"bufferView":32,"byteOffset":0,"componentType":5123,"count":435,"type":"SCALAR"},{"bufferView":33,"byteOffset":0,"componentType":5126,"count":183,"max":[0.553928375244141,4,0.553928375244141],"min":[-2.00000023841858,-0.00123870372772,-4],"type":"VEC3"},{"bufferView":34,"byteOffset":0,"componentType":5126,"count":183,"type":"VEC3"},{"bufferView":35,"byteOffset":0,"componentType":5126,"count":183,"type":"VEC2"},{"bufferView":36,"byteOffset":0,"componentType":5123,"count":84,"type":"SCALAR"},{"bufferView":37,"byteOffset":0,"componentType":5126,"count":56,"max":[0,-0.00022518634796,0.0000019073486328125],"min":[-2,-0.18762074410915,-4],"type":"VEC3"},{"bufferView":38,"byteOffset":0,"componentType":5126,"count":56,"type":"VEC3"},{"bufferView":39,"byteOffset":0,"componentType":5126,"count":56,"type":"VEC2"},{"bufferView":40,"byteOffset":0,"componentType":5123,"count":84,"type":"SCALAR"},{"bufferView":41,"byteOffset":0,"componentType":5126,"count":56,"max":[0,-0.00022518634796,0.0000019073486328125],"min":[-2,-0.18762074410915,-4],"type":"VEC3"},{"bufferView":42,"byteOffset":0,"componentType":5126,"count":56,"type":"VEC3"},{"bufferView":43,"byteOffset":0,"componentType":5126,"count":56,"type":"VEC2"},{"bufferView":44,"byteOffset":0,"componentType":5123,"count":84,"type":"SCALAR"},{"bufferView":45,"byteOffset":0,"componentType":5126,"count":56,"max":[0,-0.00022518634796,0.0000019073486328125],"min":[-2,-0.18762074410915,-4],"type":"VEC3"},{"bufferView":46,"byteOffset":0,"componentType":5126,"count":56,"type":"VEC3"},{"bufferView":47,"byteOffset":0,"componentType":5126,"count":56,"type":"VEC2"}],"asset":{"generator":"FBX2glTF v0.13.1","version":"2.0"},"bufferViews":[{"buffer":0,"byteLength":2928,"byteOffset":0,"target":34963},{"buffer":0,"byteLength":10992,"byteOffset":2928,"target":34962},{"buffer":0,"byteLength":10992,"byteOffset":13920,"target":34962},{"buffer":0,"byteLength":7328,"byteOffset":24912,"target":34962},{"buffer":0,"byteLength":2064,"byteOffset":32240,"target":34963},{"buffer":0,"byteLength":8232,"byteOffset":34304,"target":34962},{"buffer":0,"byteLength":8232,"byteOffset":42536,"target":34962},{"buffer":0,"byteLength":5488,"byteOffset":50768,"target":34962},{"buffer":0,"byteLength":864,"byteOffset":56256,"target":34963},{"buffer":0,"byteLength":3480,"byteOffset":57120,"target":34962},{"buffer":0,"byteLength":3480,"byteOffset":60600,"target":34962},{"buffer":0,"byteLength":2320,"byteOffset":64080,"target":34962},{"buffer":0,"byteLength":48,"byteOffset":66400,"target":34963},{"buffer":0,"byteLength":192,"byteOffset":66448,"target":34962},{"buffer":0,"byteLength":192,"byteOffset":66640,"target":34962},{"buffer":0,"byteLength":128,"byteOffset":66832,"target":34962},{"buffer":0,"byteLength":48,"byteOffset":66960,"target":34963},{"buffer":0,"byteLength":192,"byteOffset":67008,"target":34962},{"buffer":0,"byteLength":192,"byteOffset":67200,"target":34962},{"buffer":0,"byteLength":128,"byteOffset":67392,"target":34962},{"buffer":0,"byteLength":48,"byteOffset":67520,"target":34963},{"buffer":0,"byteLength":192,"byteOffset":67568,"target":34962},{"buffer":0,"byteLength":192,"byteOffset":67760,"target":34962},{"buffer":0,"byteLength":128,"byteOffset":67952,"target":34962},{"buffer":0,"byteLength":1092,"byteOffset":68080,"target":34963},{"buffer":0,"byteLength":2496,"byteOffset":69172,"target":34962},{"buffer":0,"byteLength":2496,"byteOffset":71668,"target":34962},{"buffer":0,"byteLength":1664,"byteOffset":74164,"target":34962},{"buffer":0,"byteLength":1092,"byteOffset":75828,"target":34963},{"buffer":0,"byteLength":2520,"byteOffset":76920,"target":34962},{"buffer":0,"byteLength":2520,"byteOffset":79440,"target":34962},{"buffer":0,"byteLength":1680,"byteOffset":81960,"target":34962},{"buffer":0,"byteLength":870,"byteOffset":83640,"target":34963},{"buffer":0,"byteLength":2196,"byteOffset":84512,"target":34962},{"buffer":0,"byteLength":2196,"byteOffset":86708,"target":34962},{"buffer":0,"byteLength":1464,"byteOffset":88904,"target":34962},{"buffer":0,"byteLength":168,"byteOffset":90368,"target":34963},{"buffer":0,"byteLength":672,"byteOffset":90536,"target":34962},{"buffer":0,"byteLength":672,"byteOffset":91208,"target":34962},{"buffer":0,"byteLength":448,"byteOffset":91880,"target":34962},{"buffer":0,"byteLength":168,"byteOffset":92328,"target":34963},{"buffer":0,"byteLength":672,"byteOffset":92496,"target":34962},{"buffer":0,"byteLength":672,"byteOffset":93168,"target":34962},{"buffer":0,"byteLength":448,"byteOffset":93840,"target":34962},{"buffer":0,"byteLength":168,"byteOffset":94288,"target":34963},{"buffer":0,"byteLength":672,"byteOffset":94456,"target":34962},{"buffer":0,"byteLength":672,"byteOffset":95128,"target":34962},{"buffer":0,"byteLength":448,"byteOffset":95800,"target":34962}],"buffers":[{"byteLength":96248,"uri":"Wall_Window_10.bin"}],"images":[{"name":"Wall_Brick_A","uri":"Wall_Brick_A.tga"},{"name":"Glass_A","uri":"Glass_A.tga"},{"name":"Wall_01_A","uri":"Wall_01_A.tga"},{"name":"Parapet_A","uri":"Parapet_A.tga"}],"materials":[{"alphaMode":"OPAQUE","doubleSided":false,"extras":{"fromFBX":{"isTruePBR":false,"shadingModel":"Phong"}},"name":"Wall_Brick","pbrMetallicRoughness":{"baseColorFactor":[1,1,1,1],"baseColorTexture":{"index":0,"texCoord":0},"metallicFactor":0.400000005960464,"roughnessFactor":0.272165536880493}},{"alphaMode":"OPAQUE","doubleSided":false,"extras":{"fromFBX":{"isTruePBR":false,"shadingModel":"Phong"}},"name":"Glass","pbrMetallicRoughness":{"baseColorFactor":[1,1,1,1],"baseColorTexture":{"index":1,"texCoord":0},"metallicFactor":0.400000005960464,"roughnessFactor":0.272165536880493}},{"alphaMode":"OPAQUE","doubleSided":false,"extras":{"fromFBX":{"isTruePBR":false,"shadingModel":"Phong"}},"name":"Wall_01","pbrMetallicRoughness":{"baseColorFactor":[1,1,1,1],"baseColorTexture":{"index":2,"texCoord":0},"metallicFactor":0.400000005960464,"roughnessFactor":0.272165536880493}},{"alphaMode":"OPAQUE","doubleSided":false,"extras":{"fromFBX":{"isTruePBR":false,"shadingModel":"Phong"}},"name":"Parapet","pbrMetallicRoughness":{"baseColorFactor":[1,1,1,1],"baseColorTexture":{"index":3,"texCoord":0},"metallicFactor":0.400000005960464,"roughnessFactor":0.272165536880493}}],"meshes":[{"name":"Wall_Window_10_LOD0","primitives":[{"attributes":{"NORMAL":2,"POSITION":1,"TEXCOORD_0":3},"indices":0,"material":0,"mode":4},{"attributes":{"NORMAL":14,"POSITION":13,"TEXCOORD_0":15},"indices":12,"material":1,"mode":4},{"attributes":{"NORMAL":26,"POSITION":25,"TEXCOORD_0":27},"indices":24,"material":2,"mode":4},{"attributes":{"NORMAL":38,"POSITION":37,"TEXCOORD_0":39},"indices":36,"material":3,"mode":4}]},{"name":"Wall_Window_10_LOD1","primitives":[{"attributes":{"NORMAL":6,"POSITION":5,"TEXCOORD_0":7},"indices":4,"material":0,"mode":4},{"attributes":{"NORMAL":18,"POSITION":17,"TEXCOORD_0":19},"indices":16,"material":1,"mode":4},{"attributes":{"NORMAL":30,"POSITION":29,"TEXCOORD_0":31},"indices":28,"material":2,"mode":4},{"attributes":{"NORMAL":42,"POSITION":41,"TEXCOORD_0":43},"indices":40,"material":3,"mode":4}]},{"name":"Wall_Window_10_LOD2","primitives":[{"attributes":{"NORMAL":10,"POSITION":9,"TEXCOORD_0":11},"indices":8,"material":0,"mode":4},{"attributes":{"NORMAL":22,"POSITION":21,"TEXCOORD_0":23},"indices":20,"material":1,"mode":4},{"attributes":{"NORMAL":34,"POSITION":33,"TEXCOORD_0":35},"indices":32,"material":2,"mode":4},{"attributes":{"NORMAL":46,"POSITION":45,"TEXCOORD_0":47},"indices":44,"material":3,"mode":4}]}],"nodes":[{"mesh":0,"name":"Wall_Window_10_LOD0","rotation":[0,0,0,1],"scale":[1,1,1],"translation":[0,0,0]},{"mesh":1,"name":"Wall_Window_10_LOD1","rotation":[0,0,0,1],"scale":[1,1,1],"translation":[0,0,0]},{"mesh":2,"name":"Wall_Window_10_LOD2","rotation":[0,0,0,1],"scale":[1,1,1],"translation":[0,0,0]}],"samplers":[{}],"scene":0,"scenes":[{"name":"Root Scene","nodes":[0,1,2]}],"textures":[{"name":"base_color_texture","sampler":0,"source":0},{"name":"base_color_texture","sampler":0,"source":1},{"name":"base_color_texture","sampler":0,"source":2},{"name":"base_color_texture","sampler":0,"source":3}]}