{"accessors":[{"bufferView":0,"byteOffset":0,"componentType":5123,"count":2040,"type":"SCALAR"},{"bufferView":1,"byteOffset":0,"componentType":5126,"count":1446,"max":[4,4,4],"min":[-0.05771385878325,0,-0.05771388858557],"type":"VEC3"},{"bufferView":2,"byteOffset":0,"componentType":5126,"count":1446,"type":"VEC3"},{"bufferView":3,"byteOffset":0,"componentType":5126,"count":1446,"type":"VEC2"},{"bufferView":4,"byteOffset":0,"componentType":5123,"count":840,"type":"SCALAR"},{"bufferView":5,"byteOffset":0,"componentType":5126,"count":558,"max":[4,4,4],"min":[-0.05771385878325,0,-0.05771388858557],"type":"VEC3"},{"bufferView":6,"byteOffset":0,"componentType":5126,"count":558,"type":"VEC3"},{"bufferView":7,"byteOffset":0,"componentType":5126,"count":558,"type":"VEC2"},{"bufferView":8,"byteOffset":0,"componentType":5123,"count":2904,"type":"SCALAR"},{"bufferView":9,"byteOffset":0,"componentType":5126,"count":1852,"max":[4,4,3.99999952316284],"min":[-0.05771398544312,0,-0.05771388858557],"type":"VEC3"},{"bufferView":10,"byteOffset":0,"componentType":5126,"count":1852,"type":"VEC3"},{"bufferView":11,"byteOffset":0,"componentType":5126,"count":1852,"type":"VEC2"},{"bufferView":12,"byteOffset":0,"componentType":5123,"count":492,"type":"SCALAR"},{"bufferView":13,"byteOffset":0,"componentType":5126,"count":180,"max":[4.00000047683716,4,4],"min":[0,-0.00123864412308,-0.00000023841858],"type":"VEC3"},{"bufferView":14,"byteOffset":0,"componentType":5126,"count":180,"type":"VEC3"},{"bufferView":15,"byteOffset":0,"componentType":5126,"count":180,"type":"VEC2"},{"bufferView":16,"byteOffset":0,"componentType":5123,"count":246,"type":"SCALAR"},{"bufferView":17,"byteOffset":0,"componentType":5126,"count":126,"max":[4.00000047683716,4,4],"min":[0,-0.00123864412308,-0.00000023841858],"type":"VEC3"},{"bufferView":18,"byteOffset":0,"componentType":5126,"count":126,"type":"VEC3"},{"bufferView":19,"byteOffset":0,"componentType":5126,"count":126,"type":"VEC2"},{"bufferView":20,"byteOffset":0,"componentType":5123,"count":528,"type":"SCALAR"},{"bufferView":21,"byteOffset":0,"componentType":5126,"count":188,"max":[4.00000047683716,4,4],"min":[0,-0.00123864412308,-0.00000023841855],"type":"VEC3"},{"bufferView":22,"byteOffset":0,"componentType":5126,"count":188,"type":"VEC3"},{"bufferView":23,"byteOffset":0,"componentType":5126,"count":188,"type":"VEC2"},{"bufferView":24,"byteOffset":0,"componentType":5123,"count":48,"type":"SCALAR"},{"bufferView":25,"byteOffset":0,"componentType":5126,"count":32,"max":[3.28062391281128,2.49098253250122,3.27914810180664],"min":[0.0981353372335434,0.818919479846954,0.098135232925415],"type":"VEC3"},{"bufferView":26,"byteOffset":0,"componentType":5126,"count":32,"type":"VEC3"},{"bufferView":27,"byteOffset":0,"componentType":5126,"count":32,"type":"VEC2"},{"bufferView":28,"byteOffset":0,"componentType":5123,"count":48,"type":"SCALAR"},{"bufferView":29,"byteOffset":0,"componentType":5126,"count":32,"max":[3.28062391281128,2.49098253250122,3.27914810180664],"min":[0.0981353372335434,0.818919479846954,0.098135232925415],"type":"VEC3"},{"bufferView":30,"byteOffset":0,"componentType":5126,"count":32,"type":"VEC3"},{"bufferView":31,"byteOffset":0,"componentType":5126,"count":32,"type":"VEC2"},{"bufferView":32,"byteOffset":0,"componentType":5123,"count":48,"type":"SCALAR"},{"bufferView":33,"byteOffset":0,"componentType":5126,"count":32,"max":[3.28062391281128,2.49098253250122,3.27914810180664],"min":[0.0981354713439941,0.818919479846954,0.098135232925415],"type":"VEC3"},{"bufferView":34,"byteOffset":0,"componentType":5126,"count":32,"type":"VEC3"},{"bufferView":35,"byteOffset":0,"componentType":5126,"count":32,"type":"VEC2"},{"bufferView":36,"byteOffset":0,"componentType":5123,"count":84,"type":"SCALAR"},{"bufferView":37,"byteOffset":0,"componentType":5126,"count":60,"max":[4.00000190734863,-0.00041222572327,4],"min":[-0.12287038564682,-0.18762074410915,-0.12287055701017],"type":"VEC3"},{"bufferView":38,"byteOffset":0,"componentType":5126,"count":60,"type":"VEC3"},{"bufferView":39,"byteOffset":0,"componentType":5126,"count":60,"type":"VEC2"},{"bufferView":40,"byteOffset":0,"componentType":5123,"count":84,"type":"SCALAR"},{"bufferView":41,"byteOffset":0,"componentType":5126,"count":60,"max":[4.00000190734863,-0.00041222572327,4],"min":[-0.12287038564682,-0.18762074410915,-0.12287055701017],"type":"VEC3"},{"bufferView":42,"byteOffset":0,"componentType":5126,"count":60,"type":"VEC3"},{"bufferView":43,"byteOffset":0,"componentType":5126,"count":60,"type":"VEC2"},{"bufferView":44,"byteOffset":0,"componentType":5123,"count":156,"type":"SCALAR"},{"bufferView":45,"byteOffset":0,"componentType":5126,"count":108,"max":[4.00000190734863,-0.00041222572327,3.99999952316284],"min":[-0.11928406357765,-0.18762074410915,-0.11927881091833],"type":"VEC3"},{"bufferView":46,"byteOffset":0,"componentType":5126,"count":108,"type":"VEC3"},{"bufferView":47,"byteOffset":0,"componentType":5126,"count":108,"type":"VEC2"}],"asset":{"generator":"FBX2glTF v0.13.1","version":"2.0"},"bufferViews":[{"buffer":0,"byteLength":4080,"byteOffset":0,"target":34963},{"buffer":0,"byteLength":17352,"byteOffset":4080,"target":34962},{"buffer":0,"byteLength":17352,"byteOffset":21432,"target":34962},{"buffer":0,"byteLength":11568,"byteOffset":38784,"target":34962},{"buffer":0,"byteLength":1680,"byteOffset":50352,"target":34963},{"buffer":0,"byteLength":6696,"byteOffset":52032,"target":34962},{"buffer":0,"byteLength":6696,"byteOffset":58728,"target":34962},{"buffer":0,"byteLength":4464,"byteOffset":65424,"target":34962},{"buffer":0,"byteLength":5808,"byteOffset":69888,"target":34963},{"buffer":0,"byteLength":22224,"byteOffset":75696,"target":34962},{"buffer":0,"byteLength":22224,"byteOffset":97920,"target":34962},{"buffer":0,"byteLength":14816,"byteOffset":120144,"target":34962},{"buffer":0,"byteLength":984,"byteOffset":134960,"target":34963},{"buffer":0,"byteLength":2160,"byteOffset":135944,"target":34962},{"buffer":0,"byteLength":2160,"byteOffset":138104,"target":34962},{"buffer":0,"byteLength":1440,"byteOffset":140264,"target":34962},{"buffer":0,"byteLength":492,"byteOffset":141704,"target":34963},{"buffer":0,"byteLength":1512,"byteOffset":142196,"target":34962},{"buffer":0,"byteLength":1512,"byteOffset":143708,"target":34962},{"buffer":0,"byteLength":1008,"byteOffset":145220,"target":34962},{"buffer":0,"byteLength":1056,"byteOffset":146228,"target":34963},{"buffer":0,"byteLength":2256,"byteOffset":147284,"target":34962},{"buffer":0,"byteLength":2256,"byteOffset":149540,"target":34962},{"buffer":0,"byteLength":1504,"byteOffset":151796,"target":34962},{"buffer":0,"byteLength":96,"byteOffset":153300,"target":34963},{"buffer":0,"byteLength":384,"byteOffset":153396,"target":34962},{"buffer":0,"byteLength":384,"byteOffset":153780,"target":34962},{"buffer":0,"byteLength":256,"byteOffset":154164,"target":34962},{"buffer":0,"byteLength":96,"byteOffset":154420,"target":34963},{"buffer":0,"byteLength":384,"byteOffset":154516,"target":34962},{"buffer":0,"byteLength":384,"byteOffset":154900,"target":34962},{"buffer":0,"byteLength":256,"byteOffset":155284,"target":34962},{"buffer":0,"byteLength":96,"byteOffset":155540,"target":34963},{"buffer":0,"byteLength":384,"byteOffset":155636,"target":34962},{"buffer":0,"byteLength":384,"byteOffset":156020,"target":34962},{"buffer":0,"byteLength":256,"byteOffset":156404,"target":34962},{"buffer":0,"byteLength":168,"byteOffset":156660,"target":34963},{"buffer":0,"byteLength":720,"byteOffset":156828,"target":34962},{"buffer":0,"byteLength":720,"byteOffset":157548,"target":34962},{"buffer":0,"byteLength":480,"byteOffset":158268,"target":34962},{"buffer":0,"byteLength":168,"byteOffset":158748,"target":34963},{"buffer":0,"byteLength":720,"byteOffset":158916,"target":34962},{"buffer":0,"byteLength":720,"byteOffset":159636,"target":34962},{"buffer":0,"byteLength":480,"byteOffset":160356,"target":34962},{"buffer":0,"byteLength":312,"byteOffset":160836,"target":34963},{"buffer":0,"byteLength":1296,"byteOffset":161148,"target":34962},{"buffer":0,"byteLength":1296,"byteOffset":162444,"target":34962},{"buffer":0,"byteLength":864,"byteOffset":163740,"target":34962}],"buffers":[{"byteLength":164604,"uri":"Wall_Window_05.bin"}],"images":[{"name":"Wall_Brick_A","uri":"Wall_Brick_A.tga"},{"name":"Wall_01_A","uri":"Wall_01_A.tga"},{"name":"Glass_A","uri":"Glass_A.tga"},{"name":"Parapet_A","uri":"Parapet_A.tga"}],"materials":[{"alphaMode":"OPAQUE","doubleSided":false,"extras":{"fromFBX":{"isTruePBR":false,"shadingModel":"Phong"}},"name":"Wall_Brick","pbrMetallicRoughness":{"baseColorFactor":[1,1,1,1],"baseColorTexture":{"index":0,"texCoord":0},"metallicFactor":0.400000005960464,"roughnessFactor":0.272165536880493}},{"alphaMode":"OPAQUE","doubleSided":false,"extras":{"fromFBX":{"isTruePBR":false,"shadingModel":"Phong"}},"name":"Wall_01","pbrMetallicRoughness":{"baseColorFactor":[1,1,1,1],"baseColorTexture":{"index":1,"texCoord":0},"metallicFactor":0.400000005960464,"roughnessFactor":0.272165536880493}},{"alphaMode":"OPAQUE","doubleSided":false,"extras":{"fromFBX":{"isTruePBR":false,"shadingModel":"Phong"}},"name":"Glass","pbrMetallicRoughness":{"baseColorFactor":[1,1,1,1],"baseColorTexture":{"index":2,"texCoord":0},"metallicFactor":0.400000005960464,"roughnessFactor":0.272165536880493}},{"alphaMode":"OPAQUE","doubleSided":false,"extras":{"fromFBX":{"isTruePBR":false,"shadingModel":"Phong"}},"name":"Parapet","pbrMetallicRoughness":{"baseColorFactor":[1,1,1,1],"baseColorTexture":{"index":3,"texCoord":0},"metallicFactor":0.400000005960464,"roughnessFactor":0.272165536880493}}],"meshes":[{"name":"Wall_Window_05_LOD1","primitives":[{"attributes":{"NORMAL":2,"POSITION":1,"TEXCOORD_0":3},"indices":0,"material":0,"mode":4},{"attributes":{"NORMAL":14,"POSITION":13,"TEXCOORD_0":15},"indices":12,"material":1,"mode":4},{"attributes":{"NORMAL":26,"POSITION":25,"TEXCOORD_0":27},"indices":24,"material":2,"mode":4},{"attributes":{"NORMAL":38,"POSITION":37,"TEXCOORD_0":39},"indices":36,"material":3,"mode":4}]},{"name":"Wall_Window_05_LOD2","primitives":[{"attributes":{"NORMAL":6,"POSITION":5,"TEXCOORD_0":7},"indices":4,"material":0,"mode":4},{"attributes":{"NORMAL":18,"POSITION":17,"TEXCOORD_0":19},"indices":16,"material":1,"mode":4},{"attributes":{"NORMAL":30,"POSITION":29,"TEXCOORD_0":31},"indices":28,"material":2,"mode":4},{"attributes":{"NORMAL":42,"POSITION":41,"TEXCOORD_0":43},"indices":40,"material":3,"mode":4}]},{"name":"Wall_Window_05_LOD0","primitives":[{"attributes":{"NORMAL":10,"POSITION":9,"TEXCOORD_0":11},"indices":8,"material":0,"mode":4},{"attributes":{"NORMAL":22,"POSITION":21,"TEXCOORD_0":23},"indices":20,"material":1,"mode":4},{"attributes":{"NORMAL":34,"POSITION":33,"TEXCOORD_0":35},"indices":32,"material":2,"mode":4},{"attributes":{"NORMAL":46,"POSITION":45,"TEXCOORD_0":47},"indices":44,"material":3,"mode":4}]}],"nodes":[{"mesh":0,"name":"Wall_Window_05_LOD1","rotation":[0,0,0,1],"scale":[1,1,1],"translation":[0,0,0]},{"mesh":1,"name":"Wall_Window_05_LOD2","rotation":[0,0,0,1],"scale":[1,1,1],"translation":[0,0,0]},{"mesh":2,"name":"Wall_Window_05_LOD0","rotation":[0,0,0,1],"scale":[1,1,1],"translation":[0,0,0]}],"samplers":[{}],"scene":0,"scenes":[{"name":"Root Scene","nodes":[0,1,2]}],"textures":[{"name":"base_color_texture","sampler":0,"source":0},{"name":"base_color_texture","sampler":0,"source":1},{"name":"base_color_texture","sampler":0,"source":2},{"name":"base_color_texture","sampler":0,"source":3}]}