{"accessors":[{"bufferView":0,"byteOffset":0,"componentType":5123,"count":186,"type":"SCALAR"},{"bufferView":1,"byteOffset":0,"componentType":5126,"count":124,"max":[2.00000095367432,1,0.54695051908493],"min":[-0.54695099592209,0,-2.00289964675903],"type":"VEC3"},{"bufferView":2,"byteOffset":0,"componentType":5126,"count":124,"type":"VEC3"},{"bufferView":3,"byteOffset":0,"componentType":5126,"count":124,"type":"VEC2"},{"bufferView":4,"byteOffset":0,"componentType":5123,"count":24,"type":"SCALAR"},{"bufferView":5,"byteOffset":0,"componentType":5126,"count":16,"max":[2,5,0],"min":[-0.00000065168268,1,-2],"type":"VEC3"},{"bufferView":6,"byteOffset":0,"componentType":5126,"count":16,"type":"VEC3"},{"bufferView":7,"byteOffset":0,"componentType":5126,"count":16,"type":"VEC2"},{"bufferView":8,"byteOffset":0,"componentType":5123,"count":192,"type":"SCALAR"},{"bufferView":9,"byteOffset":0,"componentType":5126,"count":80,"max":[2,5,-0.49758127331734],"min":[0.497581005096436,0.998761713504791,-2.00000071525574],"type":"VEC3"},{"bufferView":10,"byteOffset":0,"componentType":5126,"count":80,"type":"VEC3"},{"bufferView":11,"byteOffset":0,"componentType":5126,"count":80,"type":"VEC2"}],"asset":{"generator":"FBX2glTF v0.13.1","version":"2.0"},"bufferViews":[{"buffer":0,"byteLength":372,"byteOffset":0,"target":34963},{"buffer":0,"byteLength":1488,"byteOffset":372,"target":34962},{"buffer":0,"byteLength":1488,"byteOffset":1860,"target":34962},{"buffer":0,"byteLength":992,"byteOffset":3348,"target":34962},{"buffer":0,"byteLength":48,"byteOffset":4340,"target":34963},{"buffer":0,"byteLength":192,"byteOffset":4388,"target":34962},{"buffer":0,"byteLength":192,"byteOffset":4580,"target":34962},{"buffer":0,"byteLength":128,"byteOffset":4772,"target":34962},{"buffer":0,"byteLength":384,"byteOffset":4900,"target":34963},{"buffer":0,"byteLength":960,"byteOffset":5284,"target":34962},{"buffer":0,"byteLength":960,"byteOffset":6244,"target":34962},{"buffer":0,"byteLength":640,"byteOffset":7204,"target":34962}],"buffers":[{"byteLength":7844,"uri":"Wall_Angle_02.bin"}],"images":[{"name":"Parapet_A","uri":"Parapet_A.tga"},{"name":"Wall_Brick_A","uri":"Wall_Brick_A.tga"},{"name":"Wall_01_A","uri":"Wall_01_A.tga"}],"materials":[{"alphaMode":"OPAQUE","doubleSided":false,"extras":{"fromFBX":{"isTruePBR":false,"shadingModel":"Phong"}},"name":"Parapet","pbrMetallicRoughness":{"baseColorFactor":[1,1,1,1],"baseColorTexture":{"index":0,"texCoord":0},"metallicFactor":0.400000005960464,"roughnessFactor":0.272165536880493}},{"alphaMode":"OPAQUE","doubleSided":false,"extras":{"fromFBX":{"isTruePBR":false,"shadingModel":"Phong"}},"name":"Wall_Brick","pbrMetallicRoughness":{"baseColorFactor":[1,1,1,1],"baseColorTexture":{"index":1,"texCoord":0},"metallicFactor":0.400000005960464,"roughnessFactor":0.272165536880493}},{"alphaMode":"OPAQUE","doubleSided":false,"extras":{"fromFBX":{"isTruePBR":false,"shadingModel":"Phong"}},"name":"Wall_01","pbrMetallicRoughness":{"baseColorFactor":[1,1,1,1],"baseColorTexture":{"index":2,"texCoord":0},"metallicFactor":0.400000005960464,"roughnessFactor":0.272165536880493}}],"meshes":[{"name":"Wall_Angle_02","primitives":[{"attributes":{"NORMAL":2,"POSITION":1,"TEXCOORD_0":3},"indices":0,"material":0,"mode":4},{"attributes":{"NORMAL":6,"POSITION":5,"TEXCOORD_0":7},"indices":4,"material":1,"mode":4},{"attributes":{"NORMAL":10,"POSITION":9,"TEXCOORD_0":11},"indices":8,"material":2,"mode":4}]}],"nodes":[{"mesh":0,"name":"Wall_Angle_02","rotation":[0,0,0,1],"scale":[1,1,1],"translation":[0,0,0]}],"samplers":[{}],"scene":0,"scenes":[{"name":"Root Scene","nodes":[0]}],"textures":[{"name":"base_color_texture","sampler":0,"source":0},{"name":"base_color_texture","sampler":0,"source":1},{"name":"base_color_texture","sampler":0,"source":2}]}