{"accessors":[{"bufferView":0,"byteOffset":0,"componentType":5123,"count":279,"type":"SCALAR"},{"bufferView":1,"byteOffset":0,"componentType":5126,"count":187,"max":[0.0612712316215038,1,4],"min":[-0.54695165157318,0,-0.00000190734863],"type":"VEC3"},{"bufferView":2,"byteOffset":0,"componentType":5126,"count":187,"type":"VEC3"},{"bufferView":3,"byteOffset":0,"componentType":5126,"count":187,"type":"VEC2"},{"bufferView":4,"byteOffset":0,"componentType":5123,"count":237,"type":"SCALAR"},{"bufferView":5,"byteOffset":0,"componentType":5126,"count":161,"max":[0.0592437125742435,1,4],"min":[-0.54695165157318,0,-0.00000190734863],"type":"VEC3"},{"bufferView":6,"byteOffset":0,"componentType":5126,"count":161,"type":"VEC3"},{"bufferView":7,"byteOffset":0,"componentType":5126,"count":161,"type":"VEC2"},{"bufferView":8,"byteOffset":0,"componentType":5123,"count":237,"type":"SCALAR"},{"bufferView":9,"byteOffset":0,"componentType":5126,"count":165,"max":[0.0592437125742435,1,4],"min":[-0.54695165157318,0,-0.00000190734863],"type":"VEC3"},{"bufferView":10,"byteOffset":0,"componentType":5126,"count":165,"type":"VEC3"},{"bufferView":11,"byteOffset":0,"componentType":5126,"count":165,"type":"VEC2"},{"bufferView":12,"byteOffset":0,"componentType":5123,"count":4680,"type":"SCALAR"},{"bufferView":13,"byteOffset":0,"componentType":5126,"count":2173,"max":[0.560239553451538,5,4],"min":[-0.04140569269657,1,0],"type":"VEC3"},{"bufferView":14,"byteOffset":0,"componentType":5126,"count":2173,"type":"VEC3"},{"bufferView":15,"byteOffset":0,"componentType":5126,"count":2173,"type":"VEC2"},{"bufferView":16,"byteOffset":0,"componentType":5123,"count":2418,"type":"SCALAR"},{"bufferView":17,"byteOffset":0,"componentType":5126,"count":1341,"max":[0.559318721294403,5,4],"min":[-0.04140569269657,1,0],"type":"VEC3"},{"bufferView":18,"byteOffset":0,"componentType":5126,"count":1341,"type":"VEC3"},{"bufferView":19,"byteOffset":0,"componentType":5126,"count":1341,"type":"VEC2"},{"bufferView":20,"byteOffset":0,"componentType":5123,"count":795,"type":"SCALAR"},{"bufferView":21,"byteOffset":0,"componentType":5126,"count":420,"max":[0.55915766954422,5,4],"min":[-0.04140569269657,1,0],"type":"VEC3"},{"bufferView":22,"byteOffset":0,"componentType":5126,"count":420,"type":"VEC3"},{"bufferView":23,"byteOffset":0,"componentType":5126,"count":420,"type":"VEC2"},{"bufferView":24,"byteOffset":0,"componentType":5123,"count":546,"type":"SCALAR"},{"bufferView":25,"byteOffset":0,"componentType":5126,"count":157,"max":[0.553928196430206,5,4],"min":[0.0718108937144279,0.998761296272278,0],"type":"VEC3"},{"bufferView":26,"byteOffset":0,"componentType":5126,"count":157,"type":"VEC3"},{"bufferView":27,"byteOffset":0,"componentType":5126,"count":157,"type":"VEC2"},{"bufferView":28,"byteOffset":0,"componentType":5123,"count":546,"type":"SCALAR"},{"bufferView":29,"byteOffset":0,"componentType":5126,"count":157,"max":[0.553928375244141,5,4],"min":[0.0718108937144279,0.998761296272278,0],"type":"VEC3"},{"bufferView":30,"byteOffset":0,"componentType":5126,"count":157,"type":"VEC3"},{"bufferView":31,"byteOffset":0,"componentType":5126,"count":157,"type":"VEC2"},{"bufferView":32,"byteOffset":0,"componentType":5123,"count":546,"type":"SCALAR"},{"bufferView":33,"byteOffset":0,"componentType":5126,"count":157,"max":[0.553928375244141,5,4],"min":[0.0718108937144279,0.998761296272278,0],"type":"VEC3"},{"bufferView":34,"byteOffset":0,"componentType":5126,"count":157,"type":"VEC3"},{"bufferView":35,"byteOffset":0,"componentType":5126,"count":157,"type":"VEC2"},{"bufferView":36,"byteOffset":0,"componentType":5123,"count":144,"type":"SCALAR"},{"bufferView":37,"byteOffset":0,"componentType":5126,"count":64,"max":[0.106941699981689,3.7350652217865,3.27914810180664],"min":[0.0981346741318703,1.8189195394516,0.734769582748413],"type":"VEC3"},{"bufferView":38,"byteOffset":0,"componentType":5126,"count":64,"type":"VEC3"},{"bufferView":39,"byteOffset":0,"componentType":5126,"count":64,"type":"VEC2"},{"bufferView":40,"byteOffset":0,"componentType":5123,"count":144,"type":"SCALAR"},{"bufferView":41,"byteOffset":0,"componentType":5126,"count":64,"max":[0.106941699981689,3.7350652217865,3.27914810180664],"min":[0.0981346741318703,1.8189195394516,0.734769582748413],"type":"VEC3"},{"bufferView":42,"byteOffset":0,"componentType":5126,"count":64,"type":"VEC3"},{"bufferView":43,"byteOffset":0,"componentType":5126,"count":64,"type":"VEC2"},{"bufferView":44,"byteOffset":0,"componentType":5123,"count":144,"type":"SCALAR"},{"bufferView":45,"byteOffset":0,"componentType":5126,"count":64,"max":[0.106941699981689,3.7350652217865,3.27914810180664],"min":[0.0981346741318703,1.8189195394516,0.734769582748413],"type":"VEC3"},{"bufferView":46,"byteOffset":0,"componentType":5126,"count":64,"type":"VEC3"},{"bufferView":47,"byteOffset":0,"componentType":5126,"count":64,"type":"VEC2"}],"asset":{"generator":"FBX2glTF v0.13.1","version":"2.0"},"bufferViews":[{"buffer":0,"byteLength":558,"byteOffset":0,"target":34963},{"buffer":0,"byteLength":2244,"byteOffset":560,"target":34962},{"buffer":0,"byteLength":2244,"byteOffset":2804,"target":34962},{"buffer":0,"byteLength":1496,"byteOffset":5048,"target":34962},{"buffer":0,"byteLength":474,"byteOffset":6544,"target":34963},{"buffer":0,"byteLength":1932,"byteOffset":7020,"target":34962},{"buffer":0,"byteLength":1932,"byteOffset":8952,"target":34962},{"buffer":0,"byteLength":1288,"byteOffset":10884,"target":34962},{"buffer":0,"byteLength":474,"byteOffset":12172,"target":34963},{"buffer":0,"byteLength":1980,"byteOffset":12648,"target":34962},{"buffer":0,"byteLength":1980,"byteOffset":14628,"target":34962},{"buffer":0,"byteLength":1320,"byteOffset":16608,"target":34962},{"buffer":0,"byteLength":9360,"byteOffset":17928,"target":34963},{"buffer":0,"byteLength":26076,"byteOffset":27288,"target":34962},{"buffer":0,"byteLength":26076,"byteOffset":53364,"target":34962},{"buffer":0,"byteLength":17384,"byteOffset":79440,"target":34962},{"buffer":0,"byteLength":4836,"byteOffset":96824,"target":34963},{"buffer":0,"byteLength":16092,"byteOffset":101660,"target":34962},{"buffer":0,"byteLength":16092,"byteOffset":117752,"target":34962},{"buffer":0,"byteLength":10728,"byteOffset":133844,"target":34962},{"buffer":0,"byteLength":1590,"byteOffset":144572,"target":34963},{"buffer":0,"byteLength":5040,"byteOffset":146164,"target":34962},{"buffer":0,"byteLength":5040,"byteOffset":151204,"target":34962},{"buffer":0,"byteLength":3360,"byteOffset":156244,"target":34962},{"buffer":0,"byteLength":1092,"byteOffset":159604,"target":34963},{"buffer":0,"byteLength":1884,"byteOffset":160696,"target":34962},{"buffer":0,"byteLength":1884,"byteOffset":162580,"target":34962},{"buffer":0,"byteLength":1256,"byteOffset":164464,"target":34962},{"buffer":0,"byteLength":1092,"byteOffset":165720,"target":34963},{"buffer":0,"byteLength":1884,"byteOffset":166812,"target":34962},{"buffer":0,"byteLength":1884,"byteOffset":168696,"target":34962},{"buffer":0,"byteLength":1256,"byteOffset":170580,"target":34962},{"buffer":0,"byteLength":1092,"byteOffset":171836,"target":34963},{"buffer":0,"byteLength":1884,"byteOffset":172928,"target":34962},{"buffer":0,"byteLength":1884,"byteOffset":174812,"target":34962},{"buffer":0,"byteLength":1256,"byteOffset":176696,"target":34962},{"buffer":0,"byteLength":288,"byteOffset":177952,"target":34963},{"buffer":0,"byteLength":768,"byteOffset":178240,"target":34962},{"buffer":0,"byteLength":768,"byteOffset":179008,"target":34962},{"buffer":0,"byteLength":512,"byteOffset":179776,"target":34962},{"buffer":0,"byteLength":288,"byteOffset":180288,"target":34963},{"buffer":0,"byteLength":768,"byteOffset":180576,"target":34962},{"buffer":0,"byteLength":768,"byteOffset":181344,"target":34962},{"buffer":0,"byteLength":512,"byteOffset":182112,"target":34962},{"buffer":0,"byteLength":288,"byteOffset":182624,"target":34963},{"buffer":0,"byteLength":768,"byteOffset":182912,"target":34962},{"buffer":0,"byteLength":768,"byteOffset":183680,"target":34962},{"buffer":0,"byteLength":512,"byteOffset":184448,"target":34962}],"buffers":[{"byteLength":184960,"uri":"Wall_Window_01.bin"}],"images":[{"name":"Parapet_A","uri":"Parapet_A.tga"},{"name":"Wall_Brick_A","uri":"Wall_Brick_A.tga"},{"name":"Wall_01_A","uri":"Wall_01_A.tga"},{"name":"Glass_A","uri":"Glass_A.tga"}],"materials":[{"alphaMode":"OPAQUE","doubleSided":false,"extras":{"fromFBX":{"isTruePBR":false,"shadingModel":"Phong"}},"name":"Parapet","pbrMetallicRoughness":{"baseColorFactor":[1,1,1,1],"baseColorTexture":{"index":0,"texCoord":0},"metallicFactor":0.400000005960464,"roughnessFactor":0.272165536880493}},{"alphaMode":"OPAQUE","doubleSided":false,"extras":{"fromFBX":{"isTruePBR":false,"shadingModel":"Phong"}},"name":"Wall_Brick","pbrMetallicRoughness":{"baseColorFactor":[1,1,1,1],"baseColorTexture":{"index":1,"texCoord":0},"metallicFactor":0.400000005960464,"roughnessFactor":0.272165536880493}},{"alphaMode":"OPAQUE","doubleSided":false,"extras":{"fromFBX":{"isTruePBR":false,"shadingModel":"Phong"}},"name":"Wall_01","pbrMetallicRoughness":{"baseColorFactor":[1,1,1,1],"baseColorTexture":{"index":2,"texCoord":0},"metallicFactor":0.400000005960464,"roughnessFactor":0.272165536880493}},{"alphaMode":"OPAQUE","doubleSided":false,"extras":{"fromFBX":{"isTruePBR":false,"shadingModel":"Phong"}},"name":"Glass","pbrMetallicRoughness":{"baseColorFactor":[1,1,1,1],"baseColorTexture":{"index":3,"texCoord":0},"metallicFactor":0.400000005960464,"roughnessFactor":0.272165536880493}}],"meshes":[{"name":"Wall_Window_01_LOD0","primitives":[{"attributes":{"NORMAL":2,"POSITION":1,"TEXCOORD_0":3},"indices":0,"material":0,"mode":4},{"attributes":{"NORMAL":14,"POSITION":13,"TEXCOORD_0":15},"indices":12,"material":1,"mode":4},{"attributes":{"NORMAL":26,"POSITION":25,"TEXCOORD_0":27},"indices":24,"material":2,"mode":4},{"attributes":{"NORMAL":38,"POSITION":37,"TEXCOORD_0":39},"indices":36,"material":3,"mode":4}]},{"name":"Wall_Window_01_LOD1","primitives":[{"attributes":{"NORMAL":6,"POSITION":5,"TEXCOORD_0":7},"indices":4,"material":0,"mode":4},{"attributes":{"NORMAL":18,"POSITION":17,"TEXCOORD_0":19},"indices":16,"material":1,"mode":4},{"attributes":{"NORMAL":30,"POSITION":29,"TEXCOORD_0":31},"indices":28,"material":2,"mode":4},{"attributes":{"NORMAL":42,"POSITION":41,"TEXCOORD_0":43},"indices":40,"material":3,"mode":4}]},{"name":"Wall_Window_01_LOD2","primitives":[{"attributes":{"NORMAL":10,"POSITION":9,"TEXCOORD_0":11},"indices":8,"material":0,"mode":4},{"attributes":{"NORMAL":22,"POSITION":21,"TEXCOORD_0":23},"indices":20,"material":1,"mode":4},{"attributes":{"NORMAL":34,"POSITION":33,"TEXCOORD_0":35},"indices":32,"material":2,"mode":4},{"attributes":{"NORMAL":46,"POSITION":45,"TEXCOORD_0":47},"indices":44,"material":3,"mode":4}]}],"nodes":[{"mesh":0,"name":"Wall_Window_01_LOD0","rotation":[0,0,0,1],"scale":[1,1,1],"translation":[0,0,0]},{"mesh":1,"name":"Wall_Window_01_LOD1","rotation":[0,0,0,1],"scale":[1,1,1],"translation":[0,0,0]},{"mesh":2,"name":"Wall_Window_01_LOD2","rotation":[0,0,0,1],"scale":[1,1,1],"translation":[0,0,0]}],"samplers":[{}],"scene":0,"scenes":[{"name":"Root Scene","nodes":[0,1,2]}],"textures":[{"name":"base_color_texture","sampler":0,"source":0},{"name":"base_color_texture","sampler":0,"source":1},{"name":"base_color_texture","sampler":0,"source":2},{"name":"base_color_texture","sampler":0,"source":3}]}