{"accessors":[{"bufferView":0,"byteOffset":0,"componentType":5123,"count":225,"type":"SCALAR"},{"bufferView":1,"byteOffset":0,"componentType":5126,"count":143,"max":[0.0592437125742435,1,0.00580076919868588],"min":[-2.00000023841858,0,-4],"type":"VEC3"},{"bufferView":2,"byteOffset":0,"componentType":5126,"count":143,"type":"VEC3"},{"bufferView":3,"byteOffset":0,"componentType":5126,"count":143,"type":"VEC2"},{"bufferView":4,"byteOffset":0,"componentType":5123,"count":225,"type":"SCALAR"},{"bufferView":5,"byteOffset":0,"componentType":5126,"count":147,"max":[0.0592437125742435,1,0.00580076919868588],"min":[-2.00000023841858,0,-4],"type":"VEC3"},{"bufferView":6,"byteOffset":0,"componentType":5126,"count":147,"type":"VEC3"},{"bufferView":7,"byteOffset":0,"componentType":5126,"count":147,"type":"VEC2"},{"bufferView":8,"byteOffset":0,"componentType":5123,"count":351,"type":"SCALAR"},{"bufferView":9,"byteOffset":0,"componentType":5126,"count":231,"max":[0.0612716674804688,1,0.00580076919868588],"min":[-2,0,-4],"type":"VEC3"},{"bufferView":10,"byteOffset":0,"componentType":5126,"count":231,"type":"VEC3"},{"bufferView":11,"byteOffset":0,"componentType":5126,"count":231,"type":"VEC2"},{"bufferView":12,"byteOffset":0,"componentType":5123,"count":2430,"type":"SCALAR"},{"bufferView":13,"byteOffset":0,"componentType":5126,"count":1354,"max":[0.559318721294403,5,0],"min":[-2,1,-4],"type":"VEC3"},{"bufferView":14,"byteOffset":0,"componentType":5126,"count":1354,"type":"VEC3"},{"bufferView":15,"byteOffset":0,"componentType":5126,"count":1354,"type":"VEC2"},{"bufferView":16,"byteOffset":0,"componentType":5123,"count":807,"type":"SCALAR"},{"bufferView":17,"byteOffset":0,"componentType":5126,"count":432,"max":[0.55915766954422,5,0],"min":[-2,1,-4],"type":"VEC3"},{"bufferView":18,"byteOffset":0,"componentType":5126,"count":432,"type":"VEC3"},{"bufferView":19,"byteOffset":0,"componentType":5126,"count":432,"type":"VEC2"},{"bufferView":20,"byteOffset":0,"componentType":5123,"count":4692,"type":"SCALAR"},{"bufferView":21,"byteOffset":0,"componentType":5126,"count":2176,"max":[0.560239791870117,5,0],"min":[-2,1,-4],"type":"VEC3"},{"bufferView":22,"byteOffset":0,"componentType":5126,"count":2176,"type":"VEC3"},{"bufferView":23,"byteOffset":0,"componentType":5126,"count":2176,"type":"VEC2"},{"bufferView":24,"byteOffset":0,"componentType":5123,"count":828,"type":"SCALAR"},{"bufferView":25,"byteOffset":0,"componentType":5126,"count":273,"max":[0.553928375244141,5,0.553928375244141],"min":[-2.00000023841858,0.998761296272278,-3.99999952316284],"type":"VEC3"},{"bufferView":26,"byteOffset":0,"componentType":5126,"count":273,"type":"VEC3"},{"bufferView":27,"byteOffset":0,"componentType":5126,"count":273,"type":"VEC2"},{"bufferView":28,"byteOffset":0,"componentType":5123,"count":828,"type":"SCALAR"},{"bufferView":29,"byteOffset":0,"componentType":5126,"count":269,"max":[0.553928375244141,5,0.553928375244141],"min":[-2.00000023841858,0.998761296272278,-3.99999952316284],"type":"VEC3"},{"bufferView":30,"byteOffset":0,"componentType":5126,"count":269,"type":"VEC3"},{"bufferView":31,"byteOffset":0,"componentType":5126,"count":269,"type":"VEC2"},{"bufferView":32,"byteOffset":0,"componentType":5123,"count":828,"type":"SCALAR"},{"bufferView":33,"byteOffset":0,"componentType":5126,"count":281,"max":[0.553928434848785,5,0.553928375244141],"min":[-2.00000023841858,0.998761296272278,-3.99999952316284],"type":"VEC3"},{"bufferView":34,"byteOffset":0,"componentType":5126,"count":281,"type":"VEC3"},{"bufferView":35,"byteOffset":0,"componentType":5126,"count":281,"type":"VEC2"},{"bufferView":36,"byteOffset":0,"componentType":5123,"count":144,"type":"SCALAR"},{"bufferView":37,"byteOffset":0,"componentType":5126,"count":64,"max":[0.106941699981689,3.7350652217865,-0.73476958274841],"min":[0.0981346741318703,1.8189195394516,-3.27914810180664],"type":"VEC3"},{"bufferView":38,"byteOffset":0,"componentType":5126,"count":64,"type":"VEC3"},{"bufferView":39,"byteOffset":0,"componentType":5126,"count":64,"type":"VEC2"},{"bufferView":40,"byteOffset":0,"componentType":5123,"count":144,"type":"SCALAR"},{"bufferView":41,"byteOffset":0,"componentType":5126,"count":64,"max":[0.106941699981689,3.7350652217865,-0.73476958274841],"min":[0.0981346741318703,1.8189195394516,-3.27914810180664],"type":"VEC3"},{"bufferView":42,"byteOffset":0,"componentType":5126,"count":64,"type":"VEC3"},{"bufferView":43,"byteOffset":0,"componentType":5126,"count":64,"type":"VEC2"},{"bufferView":44,"byteOffset":0,"componentType":5123,"count":144,"type":"SCALAR"},{"bufferView":45,"byteOffset":0,"componentType":5126,"count":64,"max":[0.106941223144531,3.7350652217865,-0.73476958274841],"min":[0.0981349945068359,1.8189195394516,-3.27914810180664],"type":"VEC3"},{"bufferView":46,"byteOffset":0,"componentType":5126,"count":64,"type":"VEC3"},{"bufferView":47,"byteOffset":0,"componentType":5126,"count":64,"type":"VEC2"}],"asset":{"generator":"FBX2glTF v0.13.1","version":"2.0"},"bufferViews":[{"buffer":0,"byteLength":450,"byteOffset":0,"target":34963},{"buffer":0,"byteLength":1716,"byteOffset":452,"target":34962},{"buffer":0,"byteLength":1716,"byteOffset":2168,"target":34962},{"buffer":0,"byteLength":1144,"byteOffset":3884,"target":34962},{"buffer":0,"byteLength":450,"byteOffset":5028,"target":34963},{"buffer":0,"byteLength":1764,"byteOffset":5480,"target":34962},{"buffer":0,"byteLength":1764,"byteOffset":7244,"target":34962},{"buffer":0,"byteLength":1176,"byteOffset":9008,"target":34962},{"buffer":0,"byteLength":702,"byteOffset":10184,"target":34963},{"buffer":0,"byteLength":2772,"byteOffset":10888,"target":34962},{"buffer":0,"byteLength":2772,"byteOffset":13660,"target":34962},{"buffer":0,"byteLength":1848,"byteOffset":16432,"target":34962},{"buffer":0,"byteLength":4860,"byteOffset":18280,"target":34963},{"buffer":0,"byteLength":16248,"byteOffset":23140,"target":34962},{"buffer":0,"byteLength":16248,"byteOffset":39388,"target":34962},{"buffer":0,"byteLength":10832,"byteOffset":55636,"target":34962},{"buffer":0,"byteLength":1614,"byteOffset":66468,"target":34963},{"buffer":0,"byteLength":5184,"byteOffset":68084,"target":34962},{"buffer":0,"byteLength":5184,"byteOffset":73268,"target":34962},{"buffer":0,"byteLength":3456,"byteOffset":78452,"target":34962},{"buffer":0,"byteLength":9384,"byteOffset":81908,"target":34963},{"buffer":0,"byteLength":26112,"byteOffset":91292,"target":34962},{"buffer":0,"byteLength":26112,"byteOffset":117404,"target":34962},{"buffer":0,"byteLength":17408,"byteOffset":143516,"target":34962},{"buffer":0,"byteLength":1656,"byteOffset":160924,"target":34963},{"buffer":0,"byteLength":3276,"byteOffset":162580,"target":34962},{"buffer":0,"byteLength":3276,"byteOffset":165856,"target":34962},{"buffer":0,"byteLength":2184,"byteOffset":169132,"target":34962},{"buffer":0,"byteLength":1656,"byteOffset":171316,"target":34963},{"buffer":0,"byteLength":3228,"byteOffset":172972,"target":34962},{"buffer":0,"byteLength":3228,"byteOffset":176200,"target":34962},{"buffer":0,"byteLength":2152,"byteOffset":179428,"target":34962},{"buffer":0,"byteLength":1656,"byteOffset":181580,"target":34963},{"buffer":0,"byteLength":3372,"byteOffset":183236,"target":34962},{"buffer":0,"byteLength":3372,"byteOffset":186608,"target":34962},{"buffer":0,"byteLength":2248,"byteOffset":189980,"target":34962},{"buffer":0,"byteLength":288,"byteOffset":192228,"target":34963},{"buffer":0,"byteLength":768,"byteOffset":192516,"target":34962},{"buffer":0,"byteLength":768,"byteOffset":193284,"target":34962},{"buffer":0,"byteLength":512,"byteOffset":194052,"target":34962},{"buffer":0,"byteLength":288,"byteOffset":194564,"target":34963},{"buffer":0,"byteLength":768,"byteOffset":194852,"target":34962},{"buffer":0,"byteLength":768,"byteOffset":195620,"target":34962},{"buffer":0,"byteLength":512,"byteOffset":196388,"target":34962},{"buffer":0,"byteLength":288,"byteOffset":196900,"target":34963},{"buffer":0,"byteLength":768,"byteOffset":197188,"target":34962},{"buffer":0,"byteLength":768,"byteOffset":197956,"target":34962},{"buffer":0,"byteLength":512,"byteOffset":198724,"target":34962}],"buffers":[{"byteLength":199236,"uri":"Wall_Window_07.bin"}],"images":[{"name":"Parapet_A","uri":"Parapet_A.tga"},{"name":"Wall_Brick_A","uri":"Wall_Brick_A.tga"},{"name":"Wall_01_A","uri":"Wall_01_A.tga"},{"name":"Glass_A","uri":"Glass_A.tga"}],"materials":[{"alphaMode":"OPAQUE","doubleSided":false,"extras":{"fromFBX":{"isTruePBR":false,"shadingModel":"Phong"}},"name":"Parapet","pbrMetallicRoughness":{"baseColorFactor":[1,1,1,1],"baseColorTexture":{"index":0,"texCoord":0},"metallicFactor":0.400000005960464,"roughnessFactor":0.272165536880493}},{"alphaMode":"OPAQUE","doubleSided":false,"extras":{"fromFBX":{"isTruePBR":false,"shadingModel":"Phong"}},"name":"Wall_Brick","pbrMetallicRoughness":{"baseColorFactor":[1,1,1,1],"baseColorTexture":{"index":1,"texCoord":0},"metallicFactor":0.400000005960464,"roughnessFactor":0.272165536880493}},{"alphaMode":"OPAQUE","doubleSided":false,"extras":{"fromFBX":{"isTruePBR":false,"shadingModel":"Phong"}},"name":"Wall_01","pbrMetallicRoughness":{"baseColorFactor":[1,1,1,1],"baseColorTexture":{"index":2,"texCoord":0},"metallicFactor":0.400000005960464,"roughnessFactor":0.272165536880493}},{"alphaMode":"OPAQUE","doubleSided":false,"extras":{"fromFBX":{"isTruePBR":false,"shadingModel":"Phong"}},"name":"Glass","pbrMetallicRoughness":{"baseColorFactor":[1,1,1,1],"baseColorTexture":{"index":3,"texCoord":0},"metallicFactor":0.400000005960464,"roughnessFactor":0.272165536880493}}],"meshes":[{"name":"Wall_Window_07_LOD1","primitives":[{"attributes":{"NORMAL":2,"POSITION":1,"TEXCOORD_0":3},"indices":0,"material":0,"mode":4},{"attributes":{"NORMAL":14,"POSITION":13,"TEXCOORD_0":15},"indices":12,"material":1,"mode":4},{"attributes":{"NORMAL":26,"POSITION":25,"TEXCOORD_0":27},"indices":24,"material":2,"mode":4},{"attributes":{"NORMAL":38,"POSITION":37,"TEXCOORD_0":39},"indices":36,"material":3,"mode":4}]},{"name":"Wall_Window_07_LOD2","primitives":[{"attributes":{"NORMAL":6,"POSITION":5,"TEXCOORD_0":7},"indices":4,"material":0,"mode":4},{"attributes":{"NORMAL":18,"POSITION":17,"TEXCOORD_0":19},"indices":16,"material":1,"mode":4},{"attributes":{"NORMAL":30,"POSITION":29,"TEXCOORD_0":31},"indices":28,"material":2,"mode":4},{"attributes":{"NORMAL":42,"POSITION":41,"TEXCOORD_0":43},"indices":40,"material":3,"mode":4}]},{"name":"Wall_Window_07_LOD0","primitives":[{"attributes":{"NORMAL":10,"POSITION":9,"TEXCOORD_0":11},"indices":8,"material":0,"mode":4},{"attributes":{"NORMAL":22,"POSITION":21,"TEXCOORD_0":23},"indices":20,"material":1,"mode":4},{"attributes":{"NORMAL":34,"POSITION":33,"TEXCOORD_0":35},"indices":32,"material":2,"mode":4},{"attributes":{"NORMAL":46,"POSITION":45,"TEXCOORD_0":47},"indices":44,"material":3,"mode":4}]}],"nodes":[{"mesh":0,"name":"Wall_Window_07_LOD1","rotation":[0,0,0,1],"scale":[1,1,1],"translation":[0,0,0]},{"mesh":1,"name":"Wall_Window_07_LOD2","rotation":[0,0,0,1],"scale":[1,1,1],"translation":[0,0,0]},{"mesh":2,"name":"Wall_Window_07_LOD0","rotation":[0,0,0,1],"scale":[1,1,1],"translation":[0,0,0]}],"samplers":[{}],"scene":0,"scenes":[{"name":"Root Scene","nodes":[0,1,2]}],"textures":[{"name":"base_color_texture","sampler":0,"source":0},{"name":"base_color_texture","sampler":0,"source":1},{"name":"base_color_texture","sampler":0,"source":2},{"name":"base_color_texture","sampler":0,"source":3}]}