{"accessors":[{"bufferView":0,"byteOffset":0,"componentType":5123,"count":12,"type":"SCALAR"},{"bufferView":1,"byteOffset":0,"componentType":5126,"count":8,"max":[0,5,0],"min":[-0.00000130336537,1,-4],"type":"VEC3"},{"bufferView":2,"byteOffset":0,"componentType":5126,"count":8,"type":"VEC3"},{"bufferView":3,"byteOffset":0,"componentType":5126,"count":8,"type":"VEC2"},{"bufferView":4,"byteOffset":0,"componentType":5123,"count":6,"type":"SCALAR"},{"bufferView":5,"byteOffset":0,"componentType":5126,"count":4,"max":[0.0000000000000161847159209794,5,0],"min":[-0.00000130336537,1,-4],"type":"VEC3"},{"bufferView":6,"byteOffset":0,"componentType":5126,"count":4,"type":"VEC3"},{"bufferView":7,"byteOffset":0,"componentType":5126,"count":4,"type":"VEC2"},{"bufferView":8,"byteOffset":0,"componentType":5123,"count":54,"type":"SCALAR"},{"bufferView":9,"byteOffset":0,"componentType":5126,"count":24,"max":[0.553928196430206,5,0],"min":[0.497581630945206,0.998761296272278,-4],"type":"VEC3"},{"bufferView":10,"byteOffset":0,"componentType":5126,"count":24,"type":"VEC3"},{"bufferView":11,"byteOffset":0,"componentType":5126,"count":24,"type":"VEC2"},{"bufferView":12,"byteOffset":0,"componentType":5123,"count":36,"type":"SCALAR"},{"bufferView":13,"byteOffset":0,"componentType":5126,"count":20,"max":[0.553928196430206,5,0],"min":[0.497581630945206,0.998761296272278,-4],"type":"VEC3"},{"bufferView":14,"byteOffset":0,"componentType":5126,"count":20,"type":"VEC3"},{"bufferView":15,"byteOffset":0,"componentType":5126,"count":20,"type":"VEC2"},{"bufferView":16,"byteOffset":0,"componentType":5123,"count":279,"type":"SCALAR"},{"bufferView":17,"byteOffset":0,"componentType":5126,"count":187,"max":[0.0612712316215038,1,0.0000000388655436722729],"min":[-0.54695165157318,0,-4.00000190734863],"type":"VEC3"},{"bufferView":18,"byteOffset":0,"componentType":5126,"count":187,"type":"VEC3"},{"bufferView":19,"byteOffset":0,"componentType":5126,"count":187,"type":"VEC2"},{"bufferView":20,"byteOffset":0,"componentType":5123,"count":150,"type":"SCALAR"},{"bufferView":21,"byteOffset":0,"componentType":5126,"count":102,"max":[0.0592437125742435,1,0],"min":[-0.54892253875732,0,-4.00000190734863],"type":"VEC3"},{"bufferView":22,"byteOffset":0,"componentType":5126,"count":102,"type":"VEC3"},{"bufferView":23,"byteOffset":0,"componentType":5126,"count":102,"type":"VEC2"}],"asset":{"generator":"FBX2glTF v0.13.1","version":"2.0"},"bufferViews":[{"buffer":0,"byteLength":24,"byteOffset":0,"target":34963},{"buffer":0,"byteLength":96,"byteOffset":24,"target":34962},{"buffer":0,"byteLength":96,"byteOffset":120,"target":34962},{"buffer":0,"byteLength":64,"byteOffset":216,"target":34962},{"buffer":0,"byteLength":12,"byteOffset":280,"target":34963},{"buffer":0,"byteLength":48,"byteOffset":292,"target":34962},{"buffer":0,"byteLength":48,"byteOffset":340,"target":34962},{"buffer":0,"byteLength":32,"byteOffset":388,"target":34962},{"buffer":0,"byteLength":108,"byteOffset":420,"target":34963},{"buffer":0,"byteLength":288,"byteOffset":528,"target":34962},{"buffer":0,"byteLength":288,"byteOffset":816,"target":34962},{"buffer":0,"byteLength":192,"byteOffset":1104,"target":34962},{"buffer":0,"byteLength":72,"byteOffset":1296,"target":34963},{"buffer":0,"byteLength":240,"byteOffset":1368,"target":34962},{"buffer":0,"byteLength":240,"byteOffset":1608,"target":34962},{"buffer":0,"byteLength":160,"byteOffset":1848,"target":34962},{"buffer":0,"byteLength":558,"byteOffset":2008,"target":34963},{"buffer":0,"byteLength":2244,"byteOffset":2568,"target":34962},{"buffer":0,"byteLength":2244,"byteOffset":4812,"target":34962},{"buffer":0,"byteLength":1496,"byteOffset":7056,"target":34962},{"buffer":0,"byteLength":300,"byteOffset":8552,"target":34963},{"buffer":0,"byteLength":1224,"byteOffset":8852,"target":34962},{"buffer":0,"byteLength":1224,"byteOffset":10076,"target":34962},{"buffer":0,"byteLength":816,"byteOffset":11300,"target":34962}],"buffers":[{"byteLength":12116,"uri":"Wall_01.bin"}],"images":[{"name":"Wall_Brick_A","uri":"Wall_Brick_A.tga"},{"name":"Wall_01_A","uri":"Wall_01_A.tga"},{"name":"Parapet_A","uri":"Parapet_A.tga"}],"materials":[{"alphaMode":"OPAQUE","doubleSided":false,"extras":{"fromFBX":{"isTruePBR":false,"shadingModel":"Phong"}},"name":"Wall_Brick","pbrMetallicRoughness":{"baseColorFactor":[1,1,1,1],"baseColorTexture":{"index":0,"texCoord":0},"metallicFactor":0.400000005960464,"roughnessFactor":0.272165536880493}},{"alphaMode":"OPAQUE","doubleSided":false,"extras":{"fromFBX":{"isTruePBR":false,"shadingModel":"Phong"}},"name":"Wall_01","pbrMetallicRoughness":{"baseColorFactor":[1,1,1,1],"baseColorTexture":{"index":1,"texCoord":0},"metallicFactor":0.400000005960464,"roughnessFactor":0.272165536880493}},{"alphaMode":"OPAQUE","doubleSided":false,"extras":{"fromFBX":{"isTruePBR":false,"shadingModel":"Phong"}},"name":"Parapet","pbrMetallicRoughness":{"baseColorFactor":[1,1,1,1],"baseColorTexture":{"index":2,"texCoord":0},"metallicFactor":0.400000005960464,"roughnessFactor":0.272165536880493}}],"meshes":[{"name":"Wall_01_LOD0","primitives":[{"attributes":{"NORMAL":2,"POSITION":1,"TEXCOORD_0":3},"indices":0,"material":0,"mode":4},{"attributes":{"NORMAL":10,"POSITION":9,"TEXCOORD_0":11},"indices":8,"material":1,"mode":4},{"attributes":{"NORMAL":18,"POSITION":17,"TEXCOORD_0":19},"indices":16,"material":2,"mode":4}]},{"name":"Wall_01_LOD1","primitives":[{"attributes":{"NORMAL":6,"POSITION":5,"TEXCOORD_0":7},"indices":4,"material":0,"mode":4},{"attributes":{"NORMAL":14,"POSITION":13,"TEXCOORD_0":15},"indices":12,"material":1,"mode":4},{"attributes":{"NORMAL":22,"POSITION":21,"TEXCOORD_0":23},"indices":20,"material":2,"mode":4}]}],"nodes":[{"mesh":0,"name":"Wall_01_LOD0","rotation":[0,0,0,1],"scale":[1,1,1],"translation":[0,0,0]},{"mesh":1,"name":"Wall_01_LOD1","rotation":[0,0,0,1],"scale":[1,1,1],"translation":[0,0,0]}],"samplers":[{}],"scene":0,"scenes":[{"name":"Root Scene","nodes":[0,1]}],"textures":[{"name":"base_color_texture","sampler":0,"source":0},{"name":"base_color_texture","sampler":0,"source":1},{"name":"base_color_texture","sampler":0,"source":2}]}