{"accessors":[{"bufferView":0,"byteOffset":0,"componentType":5123,"count":7914,"type":"SCALAR"},{"bufferView":1,"byteOffset":0,"componentType":5126,"count":2706,"max":[0.282192707061768,1.05453026294708,1.18111991882324],"min":[-0.46243345737457,-0.00017019361258,-1.18111991882324],"type":"VEC3"},{"bufferView":2,"byteOffset":0,"componentType":5126,"count":2706,"type":"VEC3"},{"bufferView":3,"byteOffset":0,"componentType":5126,"count":2706,"type":"VEC2"},{"bufferView":4,"byteOffset":0,"componentType":5123,"count":3900,"type":"SCALAR"},{"bufferView":5,"byteOffset":0,"componentType":5126,"count":1495,"max":[0.281020849943161,1.05388760566711,1.18111991882324],"min":[-0.46215429902077,-0.00017019361258,-1.18111991882324],"type":"VEC3"},{"bufferView":6,"byteOffset":0,"componentType":5126,"count":1495,"type":"VEC3"},{"bufferView":7,"byteOffset":0,"componentType":5126,"count":1495,"type":"VEC2"},{"bufferView":8,"byteOffset":0,"componentType":5123,"count":1380,"type":"SCALAR"},{"bufferView":9,"byteOffset":0,"componentType":5126,"count":582,"max":[0.278729796409607,1.05749583244324,1.18260169029236],"min":[-0.46395498514175,-0.00080918852473,-1.18259632587433],"type":"VEC3"},{"bufferView":10,"byteOffset":0,"componentType":5126,"count":582,"type":"VEC3"},{"bufferView":11,"byteOffset":0,"componentType":5126,"count":582,"type":"VEC2"}],"asset":{"generator":"FBX2glTF v0.13.1","version":"2.0"},"bufferViews":[{"buffer":0,"byteLength":15828,"byteOffset":0,"target":34963},{"buffer":0,"byteLength":32472,"byteOffset":15828,"target":34962},{"buffer":0,"byteLength":32472,"byteOffset":48300,"target":34962},{"buffer":0,"byteLength":21648,"byteOffset":80772,"target":34962},{"buffer":0,"byteLength":7800,"byteOffset":102420,"target":34963},{"buffer":0,"byteLength":17940,"byteOffset":110220,"target":34962},{"buffer":0,"byteLength":17940,"byteOffset":128160,"target":34962},{"buffer":0,"byteLength":11960,"byteOffset":146100,"target":34962},{"buffer":0,"byteLength":2760,"byteOffset":158060,"target":34963},{"buffer":0,"byteLength":6984,"byteOffset":160820,"target":34962},{"buffer":0,"byteLength":6984,"byteOffset":167804,"target":34962},{"buffer":0,"byteLength":4656,"byteOffset":174788,"target":34962}],"buffers":[{"byteLength":179444,"uri":"Bench_02.bin"}],"images":[{"name":"Bench_A","uri":"Bench_A.tga"}],"materials":[{"alphaMode":"OPAQUE","doubleSided":false,"extras":{"fromFBX":{"isTruePBR":false,"shadingModel":"Phong"}},"name":"Bench","pbrMetallicRoughness":{"baseColorFactor":[1,1,1,1],"baseColorTexture":{"index":0,"texCoord":0},"metallicFactor":0.400000005960464,"roughnessFactor":0.272165536880493}}],"meshes":[{"name":"Bench_02_LOD0","primitives":[{"attributes":{"NORMAL":2,"POSITION":1,"TEXCOORD_0":3},"indices":0,"material":0,"mode":4}]},{"name":"Bench_02_LOD1","primitives":[{"attributes":{"NORMAL":6,"POSITION":5,"TEXCOORD_0":7},"indices":4,"material":0,"mode":4}]},{"name":"Bench_02_LOD2","primitives":[{"attributes":{"NORMAL":10,"POSITION":9,"TEXCOORD_0":11},"indices":8,"material":0,"mode":4}]}],"nodes":[{"mesh":0,"name":"Bench_02_LOD0","rotation":[0,0,0,1],"scale":[1,1,1],"translation":[0,0,0]},{"mesh":1,"name":"Bench_02_LOD1","rotation":[0,0,0,1],"scale":[1,1,1],"translation":[0,0,0]},{"mesh":2,"name":"Bench_02_LOD2","rotation":[0,0,0,1],"scale":[1,1,1],"translation":[0,0,0]}],"samplers":[{}],"scene":0,"scenes":[{"name":"Root Scene","nodes":[0,1,2]}],"textures":[{"name":"base_color_texture","sampler":0,"source":0}]}