{"accessors":[{"bufferView":0,"byteOffset":0,"componentType":5123,"count":7272,"type":"SCALAR"},{"bufferView":1,"byteOffset":0,"componentType":5126,"count":2498,"max":[0.282192707061768,1.05453026294708,1.18111991882324],"min":[-0.46243345737457,-0.00017019361258,-1.18111991882324],"type":"VEC3"},{"bufferView":2,"byteOffset":0,"componentType":5126,"count":2498,"type":"VEC3"},{"bufferView":3,"byteOffset":0,"componentType":5126,"count":2498,"type":"VEC2"},{"bufferView":4,"byteOffset":0,"componentType":5123,"count":3555,"type":"SCALAR"},{"bufferView":5,"byteOffset":0,"componentType":5126,"count":1384,"max":[0.281020849943161,1.05388760566711,1.18111991882324],"min":[-0.46215429902077,-0.00017019361258,-1.18111991882324],"type":"VEC3"},{"bufferView":6,"byteOffset":0,"componentType":5126,"count":1384,"type":"VEC3"},{"bufferView":7,"byteOffset":0,"componentType":5126,"count":1384,"type":"VEC2"},{"bufferView":8,"byteOffset":0,"componentType":5123,"count":3381,"type":"SCALAR"},{"bufferView":9,"byteOffset":0,"componentType":5126,"count":1314,"max":[0.281020849943161,1.05388760566711,1.18111991882324],"min":[-0.46215429902077,-0.00017019361258,-1.18111991882324],"type":"VEC3"},{"bufferView":10,"byteOffset":0,"componentType":5126,"count":1314,"type":"VEC3"},{"bufferView":11,"byteOffset":0,"componentType":5126,"count":1314,"type":"VEC2"}],"asset":{"generator":"FBX2glTF v0.13.1","version":"2.0"},"bufferViews":[{"buffer":0,"byteLength":14544,"byteOffset":0,"target":34963},{"buffer":0,"byteLength":29976,"byteOffset":14544,"target":34962},{"buffer":0,"byteLength":29976,"byteOffset":44520,"target":34962},{"buffer":0,"byteLength":19984,"byteOffset":74496,"target":34962},{"buffer":0,"byteLength":7110,"byteOffset":94480,"target":34963},{"buffer":0,"byteLength":16608,"byteOffset":101592,"target":34962},{"buffer":0,"byteLength":16608,"byteOffset":118200,"target":34962},{"buffer":0,"byteLength":11072,"byteOffset":134808,"target":34962},{"buffer":0,"byteLength":6762,"byteOffset":145880,"target":34963},{"buffer":0,"byteLength":15768,"byteOffset":152644,"target":34962},{"buffer":0,"byteLength":15768,"byteOffset":168412,"target":34962},{"buffer":0,"byteLength":10512,"byteOffset":184180,"target":34962}],"buffers":[{"byteLength":194692,"uri":"Bench_01.bin"}],"images":[{"name":"Bench_A","uri":"Bench_A.tga"}],"materials":[{"alphaMode":"OPAQUE","doubleSided":false,"extras":{"fromFBX":{"isTruePBR":false,"shadingModel":"Phong"}},"name":"Bench","pbrMetallicRoughness":{"baseColorFactor":[1,1,1,1],"baseColorTexture":{"index":0,"texCoord":0},"metallicFactor":0.400000005960464,"roughnessFactor":0.272165536880493}}],"meshes":[{"name":"Bench_LOD0","primitives":[{"attributes":{"NORMAL":2,"POSITION":1,"TEXCOORD_0":3},"indices":0,"material":0,"mode":4}]},{"name":"Bench_LOD1","primitives":[{"attributes":{"NORMAL":6,"POSITION":5,"TEXCOORD_0":7},"indices":4,"material":0,"mode":4}]},{"name":"Bench_LOD2","primitives":[{"attributes":{"NORMAL":10,"POSITION":9,"TEXCOORD_0":11},"indices":8,"material":0,"mode":4}]}],"nodes":[{"mesh":0,"name":"Bench_LOD0","rotation":[0,0,0,1],"scale":[1,1,1],"translation":[0,0,0]},{"mesh":1,"name":"Bench_LOD1","rotation":[0,0,0,1],"scale":[1,1,1],"translation":[0,0,0]},{"mesh":2,"name":"Bench_LOD2","rotation":[0,0,0,1],"scale":[1,1,1],"translation":[0,0,0]}],"samplers":[{}],"scene":0,"scenes":[{"name":"Root Scene","nodes":[0,1,2]}],"textures":[{"name":"base_color_texture","sampler":0,"source":0}]}