{"accessors":[{"bufferView":0,"byteOffset":0,"componentType":5123,"count":9570,"type":"SCALAR"},{"bufferView":1,"byteOffset":0,"componentType":5126,"count":2927,"max":[0.791774034500122,0.225500404834747,0.530947506427765],"min":[-0.81490474939346,-0.11872693151236,-0.48535919189453],"type":"VEC3"},{"bufferView":2,"byteOffset":0,"componentType":5126,"count":2927,"type":"VEC3"},{"bufferView":3,"byteOffset":0,"componentType":5126,"count":2927,"type":"VEC2"},{"bufferView":4,"byteOffset":0,"componentType":5123,"count":4716,"type":"SCALAR"},{"bufferView":5,"byteOffset":0,"componentType":5126,"count":1528,"max":[0.791592836380005,0.224794954061508,0.531085968017578],"min":[-0.81500744819641,-0.1191279515624,-0.48535919189453],"type":"VEC3"},{"bufferView":6,"byteOffset":0,"componentType":5126,"count":1528,"type":"VEC3"},{"bufferView":7,"byteOffset":0,"componentType":5126,"count":1528,"type":"VEC2"},{"bufferView":8,"byteOffset":0,"componentType":5123,"count":495,"type":"SCALAR"},{"bufferView":9,"byteOffset":0,"componentType":5126,"count":254,"max":[0.792226910591125,0.176736012101173,0.531039297580719],"min":[-0.81516271829605,-0.1196413487196,-0.48572227358818],"type":"VEC3"},{"bufferView":10,"byteOffset":0,"componentType":5126,"count":254,"type":"VEC3"},{"bufferView":11,"byteOffset":0,"componentType":5126,"count":254,"type":"VEC2"}],"asset":{"generator":"FBX2glTF v0.13.1","version":"2.0"},"bufferViews":[{"buffer":0,"byteLength":19140,"byteOffset":0,"target":34963},{"buffer":0,"byteLength":35124,"byteOffset":19140,"target":34962},{"buffer":0,"byteLength":35124,"byteOffset":54264,"target":34962},{"buffer":0,"byteLength":23416,"byteOffset":89388,"target":34962},{"buffer":0,"byteLength":9432,"byteOffset":112804,"target":34963},{"buffer":0,"byteLength":18336,"byteOffset":122236,"target":34962},{"buffer":0,"byteLength":18336,"byteOffset":140572,"target":34962},{"buffer":0,"byteLength":12224,"byteOffset":158908,"target":34962},{"buffer":0,"byteLength":990,"byteOffset":171132,"target":34963},{"buffer":0,"byteLength":3048,"byteOffset":172124,"target":34962},{"buffer":0,"byteLength":3048,"byteOffset":175172,"target":34962},{"buffer":0,"byteLength":2032,"byteOffset":178220,"target":34962}],"buffers":[{"byteLength":180252,"uri":"Brick_Trash_01.bin"}],"images":[{"name":"Drainpipe_A","uri":"Drainpipe_A.tga"}],"materials":[{"alphaMode":"OPAQUE","doubleSided":false,"extras":{"fromFBX":{"isTruePBR":false,"shadingModel":"Phong"}},"name":"Drainpipe","pbrMetallicRoughness":{"baseColorFactor":[1,1,1,1],"baseColorTexture":{"index":0,"texCoord":0},"metallicFactor":0.400000005960464,"roughnessFactor":0.272165536880493}}],"meshes":[{"name":"Brick_Trash_01_LOD0","primitives":[{"attributes":{"NORMAL":2,"POSITION":1,"TEXCOORD_0":3},"indices":0,"material":0,"mode":4}]},{"name":"Brick_Trash_01_LOD1","primitives":[{"attributes":{"NORMAL":6,"POSITION":5,"TEXCOORD_0":7},"indices":4,"material":0,"mode":4}]},{"name":"Brick_Trash_01_LOD2","primitives":[{"attributes":{"NORMAL":10,"POSITION":9,"TEXCOORD_0":11},"indices":8,"material":0,"mode":4}]}],"nodes":[{"mesh":0,"name":"Brick_Trash_01_LOD0","rotation":[0,0,0,1],"scale":[1,1,1],"translation":[0,0,0]},{"mesh":1,"name":"Brick_Trash_01_LOD1","rotation":[0,0,0,1],"scale":[1,1,1],"translation":[0,0,0]},{"mesh":2,"name":"Brick_Trash_01_LOD2","rotation":[0,0,0,1],"scale":[1,1,1],"translation":[0,0,0]}],"samplers":[{}],"scene":0,"scenes":[{"name":"Root Scene","nodes":[0,1,2]}],"textures":[{"name":"base_color_texture","sampler":0,"source":0}]}