{"accessors":[{"bufferView":0,"byteOffset":0,"componentType":5123,"count":2508,"type":"SCALAR"},{"bufferView":1,"byteOffset":0,"componentType":5126,"count":750,"max":[0.212229251861572,0.102531619369984,0.150720089673996],"min":[-0.22079017758369,-0.07508876174688,-0.09385377913713],"type":"VEC3"},{"bufferView":2,"byteOffset":0,"componentType":5126,"count":750,"type":"VEC3"},{"bufferView":3,"byteOffset":0,"componentType":5126,"count":750,"type":"VEC2"},{"bufferView":4,"byteOffset":0,"componentType":5123,"count":1242,"type":"SCALAR"},{"bufferView":5,"byteOffset":0,"componentType":5126,"count":410,"max":[0.212735280394554,0.102968022227287,0.149865582585335],"min":[-0.22011037170887,-0.07558426260948,-0.09466844052076],"type":"VEC3"},{"bufferView":6,"byteOffset":0,"componentType":5126,"count":410,"type":"VEC3"},{"bufferView":7,"byteOffset":0,"componentType":5126,"count":410,"type":"VEC2"},{"bufferView":8,"byteOffset":0,"componentType":5123,"count":324,"type":"SCALAR"},{"bufferView":9,"byteOffset":0,"componentType":5126,"count":156,"max":[0.211663320660591,0.104908347129822,0.151422202587128],"min":[-0.22027978301048,-0.04329620301723,-0.06070496886969],"type":"VEC3"},{"bufferView":10,"byteOffset":0,"componentType":5126,"count":156,"type":"VEC3"},{"bufferView":11,"byteOffset":0,"componentType":5126,"count":156,"type":"VEC2"}],"asset":{"generator":"FBX2glTF v0.13.1","version":"2.0"},"bufferViews":[{"buffer":0,"byteLength":5016,"byteOffset":0,"target":34963},{"buffer":0,"byteLength":9000,"byteOffset":5016,"target":34962},{"buffer":0,"byteLength":9000,"byteOffset":14016,"target":34962},{"buffer":0,"byteLength":6000,"byteOffset":23016,"target":34962},{"buffer":0,"byteLength":2484,"byteOffset":29016,"target":34963},{"buffer":0,"byteLength":4920,"byteOffset":31500,"target":34962},{"buffer":0,"byteLength":4920,"byteOffset":36420,"target":34962},{"buffer":0,"byteLength":3280,"byteOffset":41340,"target":34962},{"buffer":0,"byteLength":648,"byteOffset":44620,"target":34963},{"buffer":0,"byteLength":1872,"byteOffset":45268,"target":34962},{"buffer":0,"byteLength":1872,"byteOffset":47140,"target":34962},{"buffer":0,"byteLength":1248,"byteOffset":49012,"target":34962}],"buffers":[{"byteLength":50260,"uri":"Brick_Trash_02.bin"}],"images":[{"name":"Drainpipe_A","uri":"Drainpipe_A.tga"}],"materials":[{"alphaMode":"OPAQUE","doubleSided":false,"extras":{"fromFBX":{"isTruePBR":false,"shadingModel":"Phong"}},"name":"Drainpipe","pbrMetallicRoughness":{"baseColorFactor":[1,1,1,1],"baseColorTexture":{"index":0,"texCoord":0},"metallicFactor":0.400000005960464,"roughnessFactor":0.272165536880493}}],"meshes":[{"name":"Brick_Trash_02_LOD0","primitives":[{"attributes":{"NORMAL":2,"POSITION":1,"TEXCOORD_0":3},"indices":0,"material":0,"mode":4}]},{"name":"Brick_Trash_02_LOD1","primitives":[{"attributes":{"NORMAL":6,"POSITION":5,"TEXCOORD_0":7},"indices":4,"material":0,"mode":4}]},{"name":"Brick_Trash_02_LOD2","primitives":[{"attributes":{"NORMAL":10,"POSITION":9,"TEXCOORD_0":11},"indices":8,"material":0,"mode":4}]}],"nodes":[{"mesh":0,"name":"Brick_Trash_02_LOD0","rotation":[0,0,0,1],"scale":[1,1,1],"translation":[0,0,0]},{"mesh":1,"name":"Brick_Trash_02_LOD1","rotation":[0,0,0,1],"scale":[1,1,1],"translation":[0,0,0]},{"mesh":2,"name":"Brick_Trash_02_LOD2","rotation":[0,0,0,1],"scale":[1,1,1],"translation":[0,0,0]}],"samplers":[{}],"scene":0,"scenes":[{"name":"Root Scene","nodes":[0,1,2]}],"textures":[{"name":"base_color_texture","sampler":0,"source":0}]}