{"accessors":[{"bufferView":0,"byteOffset":0,"componentType":5123,"count":198,"type":"SCALAR"},{"bufferView":1,"byteOffset":0,"componentType":5126,"count":48,"max":[1,0.152713879942894,0.0790042877197266],"min":[0,0,-0.07900428771973],"type":"VEC3"},{"bufferView":2,"byteOffset":0,"componentType":5126,"count":48,"type":"VEC3"},{"bufferView":3,"byteOffset":0,"componentType":5126,"count":48,"type":"VEC2"},{"bufferView":4,"byteOffset":0,"componentType":5123,"count":30,"type":"SCALAR"},{"bufferView":5,"byteOffset":0,"componentType":5126,"count":20,"max":[0.992046535015106,0.141236752271652,0.0710506439208984],"min":[0.00795364379882812,0,-0.0710506439209],"type":"VEC3"},{"bufferView":6,"byteOffset":0,"componentType":5126,"count":20,"type":"VEC3"},{"bufferView":7,"byteOffset":0,"componentType":5126,"count":20,"type":"VEC2"}],"asset":{"generator":"FBX2glTF v0.13.1","version":"2.0"},"bufferViews":[{"buffer":0,"byteLength":396,"byteOffset":0,"target":34963},{"buffer":0,"byteLength":576,"byteOffset":396,"target":34962},{"buffer":0,"byteLength":576,"byteOffset":972,"target":34962},{"buffer":0,"byteLength":384,"byteOffset":1548,"target":34962},{"buffer":0,"byteLength":60,"byteOffset":1932,"target":34963},{"buffer":0,"byteLength":240,"byteOffset":1992,"target":34962},{"buffer":0,"byteLength":240,"byteOffset":2232,"target":34962},{"buffer":0,"byteLength":160,"byteOffset":2472,"target":34962}],"buffers":[{"byteLength":2632,"uri":"Curbstone_02.bin"}],"images":[{"name":"Street_Lamp_A","uri":"Street_Lamp_A.tga"}],"materials":[{"alphaMode":"OPAQUE","doubleSided":false,"extras":{"fromFBX":{"isTruePBR":false,"shadingModel":"Phong"}},"name":"Street_Lamp","pbrMetallicRoughness":{"baseColorFactor":[1,1,1,1],"baseColorTexture":{"index":0,"texCoord":0},"metallicFactor":0.400000005960464,"roughnessFactor":0.272165536880493}}],"meshes":[{"name":"Curbstone_02_LOD0","primitives":[{"attributes":{"NORMAL":2,"POSITION":1,"TEXCOORD_0":3},"indices":0,"material":0,"mode":4}]},{"name":"Curbstone_02_LOD1","primitives":[{"attributes":{"NORMAL":6,"POSITION":5,"TEXCOORD_0":7},"indices":4,"material":0,"mode":4}]}],"nodes":[{"mesh":0,"name":"Curbstone_02_LOD0","rotation":[0,0,0,1],"scale":[1,1,1],"translation":[0,0,0]},{"mesh":1,"name":"Curbstone_02_LOD1","rotation":[0,0,0,1],"scale":[1,1,1],"translation":[0,0,0]}],"samplers":[{}],"scene":0,"scenes":[{"name":"Root Scene","nodes":[0,1]}],"textures":[{"name":"base_color_texture","sampler":0,"source":0}]}