{"accessors":[{"bufferView":0,"byteOffset":0,"componentType":5123,"count":1212,"type":"SCALAR"},{"bufferView":1,"byteOffset":0,"componentType":5126,"count":271,"max":[-0.01086664199829,0.600000023841858,0.0485659837722778],"min":[-0.15597830712795,0.15081250667572,-0.04856472834945],"type":"VEC3"},{"bufferView":2,"byteOffset":0,"componentType":5126,"count":271,"type":"VEC3"},{"bufferView":3,"byteOffset":0,"componentType":5126,"count":271,"type":"VEC2"},{"bufferView":4,"byteOffset":0,"componentType":5123,"count":570,"type":"SCALAR"},{"bufferView":5,"byteOffset":0,"componentType":5126,"count":156,"max":[-0.0134859085083,0.600000023841858,0.0452138781547546],"min":[-0.15597830712795,0.15081250667572,-0.04514729976654],"type":"VEC3"},{"bufferView":6,"byteOffset":0,"componentType":5126,"count":156,"type":"VEC3"},{"bufferView":7,"byteOffset":0,"componentType":5126,"count":156,"type":"VEC2"},{"bufferView":8,"byteOffset":0,"componentType":5123,"count":234,"type":"SCALAR"},{"bufferView":9,"byteOffset":0,"componentType":5126,"count":67,"max":[-0.01329875923693,0.600005209445953,0.0455970056355],"min":[-0.15454721450806,0.153417080640793,-0.04520617052913],"type":"VEC3"},{"bufferView":10,"byteOffset":0,"componentType":5126,"count":67,"type":"VEC3"},{"bufferView":11,"byteOffset":0,"componentType":5126,"count":67,"type":"VEC2"}],"asset":{"generator":"FBX2glTF v0.13.1","version":"2.0"},"bufferViews":[{"buffer":0,"byteLength":2424,"byteOffset":0,"target":34963},{"buffer":0,"byteLength":3252,"byteOffset":2424,"target":34962},{"buffer":0,"byteLength":3252,"byteOffset":5676,"target":34962},{"buffer":0,"byteLength":2168,"byteOffset":8928,"target":34962},{"buffer":0,"byteLength":1140,"byteOffset":11096,"target":34963},{"buffer":0,"byteLength":1872,"byteOffset":12236,"target":34962},{"buffer":0,"byteLength":1872,"byteOffset":14108,"target":34962},{"buffer":0,"byteLength":1248,"byteOffset":15980,"target":34962},{"buffer":0,"byteLength":468,"byteOffset":17228,"target":34963},{"buffer":0,"byteLength":804,"byteOffset":17696,"target":34962},{"buffer":0,"byteLength":804,"byteOffset":18500,"target":34962},{"buffer":0,"byteLength":536,"byteOffset":19304,"target":34962}],"buffers":[{"byteLength":19840,"uri":"Drainpipe_04.bin"}],"images":[{"name":"Drainpipe_A","uri":"Drainpipe_A.tga"}],"materials":[{"alphaMode":"OPAQUE","doubleSided":false,"extras":{"fromFBX":{"isTruePBR":false,"shadingModel":"Phong"}},"name":"Drainpipe","pbrMetallicRoughness":{"baseColorFactor":[1,1,1,1],"baseColorTexture":{"index":0,"texCoord":0},"metallicFactor":0.400000005960464,"roughnessFactor":0.272165536880493}}],"meshes":[{"name":"Drainpipe_04_LOD0","primitives":[{"attributes":{"NORMAL":2,"POSITION":1,"TEXCOORD_0":3},"indices":0,"material":0,"mode":4}]},{"name":"Drainpipe_04_LOD1","primitives":[{"attributes":{"NORMAL":6,"POSITION":5,"TEXCOORD_0":7},"indices":4,"material":0,"mode":4}]},{"name":"Drainpipe_04_LOD2","primitives":[{"attributes":{"NORMAL":10,"POSITION":9,"TEXCOORD_0":11},"indices":8,"material":0,"mode":4}]}],"nodes":[{"mesh":0,"name":"Drainpipe_04_LOD0","rotation":[0,0,0,1],"scale":[1,1,1],"translation":[0,0,0]},{"mesh":1,"name":"Drainpipe_04_LOD1","rotation":[0,0,0,1],"scale":[1,1,1],"translation":[0,0,0]},{"mesh":2,"name":"Drainpipe_04_LOD2","rotation":[0,0,0,1],"scale":[1,1,1],"translation":[0,0,0]}],"samplers":[{}],"scene":0,"scenes":[{"name":"Root Scene","nodes":[0,1,2]}],"textures":[{"name":"base_color_texture","sampler":0,"source":0}]}