{"accessors":[{"bufferView":0,"byteOffset":0,"componentType":5123,"count":1998,"type":"SCALAR"},{"bufferView":1,"byteOffset":0,"componentType":5126,"count":577,"max":[0.00185060501098633,1.37337672710419,0.131724238395691],"min":[-0.16481113433838,0.533191919326782,-0.13172435760498],"type":"VEC3"},{"bufferView":2,"byteOffset":0,"componentType":5126,"count":577,"type":"VEC3"},{"bufferView":3,"byteOffset":0,"componentType":5126,"count":577,"type":"VEC2"},{"bufferView":4,"byteOffset":0,"componentType":5123,"count":1050,"type":"SCALAR"},{"bufferView":5,"byteOffset":0,"componentType":5126,"count":345,"max":[-0.00000544074692,1.37337672710419,0.132157668471336],"min":[-0.16508466005325,0.533191919326782,-0.13225272297859],"type":"VEC3"},{"bufferView":6,"byteOffset":0,"componentType":5126,"count":345,"type":"VEC3"},{"bufferView":7,"byteOffset":0,"componentType":5126,"count":345,"type":"VEC2"},{"bufferView":8,"byteOffset":0,"componentType":5123,"count":567,"type":"SCALAR"},{"bufferView":9,"byteOffset":0,"componentType":5126,"count":217,"max":[0.00058844540035352,1.37337672710419,0.128699153661728],"min":[-0.16530871391296,0.533191919326782,-0.13002480566502],"type":"VEC3"},{"bufferView":10,"byteOffset":0,"componentType":5126,"count":217,"type":"VEC3"},{"bufferView":11,"byteOffset":0,"componentType":5126,"count":217,"type":"VEC2"}],"asset":{"generator":"FBX2glTF v0.13.1","version":"2.0"},"bufferViews":[{"buffer":0,"byteLength":3996,"byteOffset":0,"target":34963},{"buffer":0,"byteLength":6924,"byteOffset":3996,"target":34962},{"buffer":0,"byteLength":6924,"byteOffset":10920,"target":34962},{"buffer":0,"byteLength":4616,"byteOffset":17844,"target":34962},{"buffer":0,"byteLength":2100,"byteOffset":22460,"target":34963},{"buffer":0,"byteLength":4140,"byteOffset":24560,"target":34962},{"buffer":0,"byteLength":4140,"byteOffset":28700,"target":34962},{"buffer":0,"byteLength":2760,"byteOffset":32840,"target":34962},{"buffer":0,"byteLength":1134,"byteOffset":35600,"target":34963},{"buffer":0,"byteLength":2604,"byteOffset":36736,"target":34962},{"buffer":0,"byteLength":2604,"byteOffset":39340,"target":34962},{"buffer":0,"byteLength":1736,"byteOffset":41944,"target":34962}],"buffers":[{"byteLength":43680,"uri":"Drainpipe_03.bin"}],"images":[{"name":"Drainpipe_A","uri":"Drainpipe_A.tga"}],"materials":[{"alphaMode":"OPAQUE","doubleSided":false,"extras":{"fromFBX":{"isTruePBR":false,"shadingModel":"Phong"}},"name":"Drainpipe","pbrMetallicRoughness":{"baseColorFactor":[1,1,1,1],"baseColorTexture":{"index":0,"texCoord":0},"metallicFactor":0.400000005960464,"roughnessFactor":0.272165536880493}}],"meshes":[{"name":"Drainpipe_03_LOD0","primitives":[{"attributes":{"NORMAL":2,"POSITION":1,"TEXCOORD_0":3},"indices":0,"material":0,"mode":4}]},{"name":"Drainpipe_03_LOD1","primitives":[{"attributes":{"NORMAL":6,"POSITION":5,"TEXCOORD_0":7},"indices":4,"material":0,"mode":4}]},{"name":"Drainpipe_03_LOD2","primitives":[{"attributes":{"NORMAL":10,"POSITION":9,"TEXCOORD_0":11},"indices":8,"material":0,"mode":4}]}],"nodes":[{"mesh":0,"name":"Drainpipe_03_LOD0","rotation":[0,0,0,1],"scale":[1,1,1],"translation":[0,0,0]},{"mesh":1,"name":"Drainpipe_03_LOD1","rotation":[0,0,0,1],"scale":[1,1,1],"translation":[0,0,0]},{"mesh":2,"name":"Drainpipe_03_LOD2","rotation":[0,0,0,1],"scale":[1,1,1],"translation":[0,0,0]}],"samplers":[{}],"scene":0,"scenes":[{"name":"Root Scene","nodes":[0,1,2]}],"textures":[{"name":"base_color_texture","sampler":0,"source":0}]}