{"accessors":[{"bufferView":0,"byteOffset":0,"componentType":5123,"count":3324,"type":"SCALAR"},{"bufferView":1,"byteOffset":0,"componentType":5126,"count":850,"max":[0.00185063132084906,1.34552133083344,0.131724238395691],"min":[-0.23453497886658,0.516067147254944,-0.13172435760498],"type":"VEC3"},{"bufferView":2,"byteOffset":0,"componentType":5126,"count":850,"type":"VEC3"},{"bufferView":3,"byteOffset":0,"componentType":5126,"count":850,"type":"VEC2"},{"bufferView":4,"byteOffset":0,"componentType":5123,"count":1494,"type":"SCALAR"},{"bufferView":5,"byteOffset":0,"componentType":5126,"count":478,"max":[-0.00000548667958,1.34552133083344,0.132252603769302],"min":[-0.23453497886658,0.516067147254944,-0.13215778768063],"type":"VEC3"},{"bufferView":6,"byteOffset":0,"componentType":5126,"count":478,"type":"VEC3"},{"bufferView":7,"byteOffset":0,"componentType":5126,"count":478,"type":"VEC2"},{"bufferView":8,"byteOffset":0,"componentType":5123,"count":636,"type":"SCALAR"},{"bufferView":9,"byteOffset":0,"componentType":5126,"count":259,"max":[0.0000687308784108609,1.34552133083344,0.132634609937668],"min":[-0.23171989619732,0.516067147254944,-0.12770290672779],"type":"VEC3"},{"bufferView":10,"byteOffset":0,"componentType":5126,"count":259,"type":"VEC3"},{"bufferView":11,"byteOffset":0,"componentType":5126,"count":259,"type":"VEC2"}],"asset":{"generator":"FBX2glTF v0.13.1","version":"2.0"},"bufferViews":[{"buffer":0,"byteLength":6648,"byteOffset":0,"target":34963},{"buffer":0,"byteLength":10200,"byteOffset":6648,"target":34962},{"buffer":0,"byteLength":10200,"byteOffset":16848,"target":34962},{"buffer":0,"byteLength":6800,"byteOffset":27048,"target":34962},{"buffer":0,"byteLength":2988,"byteOffset":33848,"target":34963},{"buffer":0,"byteLength":5736,"byteOffset":36836,"target":34962},{"buffer":0,"byteLength":5736,"byteOffset":42572,"target":34962},{"buffer":0,"byteLength":3824,"byteOffset":48308,"target":34962},{"buffer":0,"byteLength":1272,"byteOffset":52132,"target":34963},{"buffer":0,"byteLength":3108,"byteOffset":53404,"target":34962},{"buffer":0,"byteLength":3108,"byteOffset":56512,"target":34962},{"buffer":0,"byteLength":2072,"byteOffset":59620,"target":34962}],"buffers":[{"byteLength":61692,"uri":"Drainpipe_02.bin"}],"images":[{"name":"Drainpipe_A","uri":"Drainpipe_A.tga"}],"materials":[{"alphaMode":"OPAQUE","doubleSided":false,"extras":{"fromFBX":{"isTruePBR":false,"shadingModel":"Phong"}},"name":"Drainpipe","pbrMetallicRoughness":{"baseColorFactor":[1,1,1,1],"baseColorTexture":{"index":0,"texCoord":0},"metallicFactor":0.400000005960464,"roughnessFactor":0.272165536880493}}],"meshes":[{"name":"Drainpipe_02_LOD0","primitives":[{"attributes":{"NORMAL":2,"POSITION":1,"TEXCOORD_0":3},"indices":0,"material":0,"mode":4}]},{"name":"Drainpipe_02_LOD1","primitives":[{"attributes":{"NORMAL":6,"POSITION":5,"TEXCOORD_0":7},"indices":4,"material":0,"mode":4}]},{"name":"Drainpipe_02_LOD2","primitives":[{"attributes":{"NORMAL":10,"POSITION":9,"TEXCOORD_0":11},"indices":8,"material":0,"mode":4}]}],"nodes":[{"mesh":0,"name":"Drainpipe_02_LOD0","rotation":[0,0,0,1],"scale":[1,1,1],"translation":[0,0,0]},{"mesh":1,"name":"Drainpipe_02_LOD1","rotation":[0,0,0,1],"scale":[1,1,1],"translation":[0,0,0]},{"mesh":2,"name":"Drainpipe_02_LOD2","rotation":[0,0,0,1],"scale":[1,1,1],"translation":[0,0,0]}],"samplers":[{}],"scene":0,"scenes":[{"name":"Root Scene","nodes":[0,1,2]}],"textures":[{"name":"base_color_texture","sampler":0,"source":0}]}