{"accessors":[{"bufferView":0,"byteOffset":0,"componentType":5123,"count":924,"type":"SCALAR"},{"bufferView":1,"byteOffset":0,"componentType":5126,"count":193,"max":[-0.00516674248502,3.32019829750061,0.674439668655396],"min":[-0.68292462825775,0.25,-0.0534677952528],"type":"VEC3"},{"bufferView":2,"byteOffset":0,"componentType":5126,"count":193,"type":"VEC3"},{"bufferView":3,"byteOffset":0,"componentType":5126,"count":193,"type":"VEC2"},{"bufferView":4,"byteOffset":0,"componentType":5123,"count":420,"type":"SCALAR"},{"bufferView":5,"byteOffset":0,"componentType":5126,"count":102,"max":[-0.01348661258817,3.32019829750061,0.674439668655396],"min":[-0.68292462825775,0.25,-0.04514791071415],"type":"VEC3"},{"bufferView":6,"byteOffset":0,"componentType":5126,"count":102,"type":"VEC3"},{"bufferView":7,"byteOffset":0,"componentType":5126,"count":102,"type":"VEC2"}],"asset":{"generator":"FBX2glTF v0.13.1","version":"2.0"},"bufferViews":[{"buffer":0,"byteLength":1848,"byteOffset":0,"target":34963},{"buffer":0,"byteLength":2316,"byteOffset":1848,"target":34962},{"buffer":0,"byteLength":2316,"byteOffset":4164,"target":34962},{"buffer":0,"byteLength":1544,"byteOffset":6480,"target":34962},{"buffer":0,"byteLength":840,"byteOffset":8024,"target":34963},{"buffer":0,"byteLength":1224,"byteOffset":8864,"target":34962},{"buffer":0,"byteLength":1224,"byteOffset":10088,"target":34962},{"buffer":0,"byteLength":816,"byteOffset":11312,"target":34962}],"buffers":[{"byteLength":12128,"uri":"Drainpipe_06.bin"}],"images":[{"name":"Drainpipe_A","uri":"Drainpipe_A.tga"}],"materials":[{"alphaMode":"OPAQUE","doubleSided":false,"extras":{"fromFBX":{"isTruePBR":false,"shadingModel":"Phong"}},"name":"Drainpipe","pbrMetallicRoughness":{"baseColorFactor":[1,1,1,1],"baseColorTexture":{"index":0,"texCoord":0},"metallicFactor":0.400000005960464,"roughnessFactor":0.272165536880493}}],"meshes":[{"name":"Drainpipe_06_LOD0","primitives":[{"attributes":{"NORMAL":2,"POSITION":1,"TEXCOORD_0":3},"indices":0,"material":0,"mode":4}]},{"name":"Drainpipe_06_LOD1","primitives":[{"attributes":{"NORMAL":6,"POSITION":5,"TEXCOORD_0":7},"indices":4,"material":0,"mode":4}]}],"nodes":[{"mesh":0,"name":"Drainpipe_06_LOD0","rotation":[0,0,0,1],"scale":[1,1,1],"translation":[0,0,0]},{"mesh":1,"name":"Drainpipe_06_LOD1","rotation":[0,0,0,1],"scale":[1,1,1],"translation":[0,0,0]}],"samplers":[{}],"scene":0,"scenes":[{"name":"Root Scene","nodes":[0,1]}],"textures":[{"name":"base_color_texture","sampler":0,"source":0}]}