{"accessors":[{"bufferView":0,"byteOffset":0,"componentType":5123,"count":11274,"type":"SCALAR"},{"bufferView":1,"byteOffset":0,"componentType":5126,"count":2856,"max":[0.00185063132084906,9.37337684631348,0.131724238395691],"min":[-0.23453497886658,0.15081250667572,-0.13172435760498],"type":"VEC3"},{"bufferView":2,"byteOffset":0,"componentType":5126,"count":2856,"type":"VEC3"},{"bufferView":3,"byteOffset":0,"componentType":5126,"count":2856,"type":"VEC2"},{"bufferView":4,"byteOffset":0,"componentType":5123,"count":4872,"type":"SCALAR"},{"bufferView":5,"byteOffset":0,"componentType":5126,"count":1557,"max":[-0.00000544074692,9.37337684631348,0.132252603769302],"min":[-0.23453497886658,0.15081250667572,-0.13225272297859],"type":"VEC3"},{"bufferView":6,"byteOffset":0,"componentType":5126,"count":1557,"type":"VEC3"},{"bufferView":7,"byteOffset":0,"componentType":5126,"count":1557,"type":"VEC2"},{"bufferView":8,"byteOffset":0,"componentType":5123,"count":2337,"type":"SCALAR"},{"bufferView":9,"byteOffset":0,"componentType":5126,"count":901,"max":[0.00058844540035352,9.37337684631348,0.132634609937668],"min":[-0.23171989619732,0.153417080640793,-0.13002480566502],"type":"VEC3"},{"bufferView":10,"byteOffset":0,"componentType":5126,"count":901,"type":"VEC3"},{"bufferView":11,"byteOffset":0,"componentType":5126,"count":901,"type":"VEC2"}],"asset":{"generator":"FBX2glTF v0.13.1","version":"2.0"},"bufferViews":[{"buffer":0,"byteLength":22548,"byteOffset":0,"target":34963},{"buffer":0,"byteLength":34272,"byteOffset":22548,"target":34962},{"buffer":0,"byteLength":34272,"byteOffset":56820,"target":34962},{"buffer":0,"byteLength":22848,"byteOffset":91092,"target":34962},{"buffer":0,"byteLength":9744,"byteOffset":113940,"target":34963},{"buffer":0,"byteLength":18684,"byteOffset":123684,"target":34962},{"buffer":0,"byteLength":18684,"byteOffset":142368,"target":34962},{"buffer":0,"byteLength":12456,"byteOffset":161052,"target":34962},{"buffer":0,"byteLength":4674,"byteOffset":173508,"target":34963},{"buffer":0,"byteLength":10812,"byteOffset":178184,"target":34962},{"buffer":0,"byteLength":10812,"byteOffset":188996,"target":34962},{"buffer":0,"byteLength":7208,"byteOffset":199808,"target":34962}],"buffers":[{"byteLength":207016,"uri":"Drainpipe_05.bin"}],"images":[{"name":"Drainpipe_A","uri":"Drainpipe_A.tga"}],"materials":[{"alphaMode":"OPAQUE","doubleSided":false,"extras":{"fromFBX":{"isTruePBR":false,"shadingModel":"Phong"}},"name":"Drainpipe","pbrMetallicRoughness":{"baseColorFactor":[1,1,1,1],"baseColorTexture":{"index":0,"texCoord":0},"metallicFactor":0.400000005960464,"roughnessFactor":0.272165536880493}}],"meshes":[{"name":"Drainpipe_05_LOD0","primitives":[{"attributes":{"NORMAL":2,"POSITION":1,"TEXCOORD_0":3},"indices":0,"material":0,"mode":4}]},{"name":"Drainpipe_05_LOD1","primitives":[{"attributes":{"NORMAL":6,"POSITION":5,"TEXCOORD_0":7},"indices":4,"material":0,"mode":4}]},{"name":"Drainpipe_05_LOD2","primitives":[{"attributes":{"NORMAL":10,"POSITION":9,"TEXCOORD_0":11},"indices":8,"material":0,"mode":4}]}],"nodes":[{"mesh":0,"name":"Drainpipe_05_LOD0","rotation":[0,0,0,1],"scale":[1,1,1],"translation":[0,0,0]},{"mesh":1,"name":"Drainpipe_05_LOD1","rotation":[0,0,0,1],"scale":[1,1,1],"translation":[0,0,0]},{"mesh":2,"name":"Drainpipe_05_LOD2","rotation":[0,0,0,1],"scale":[1,1,1],"translation":[0,0,0]}],"samplers":[{}],"scene":0,"scenes":[{"name":"Root Scene","nodes":[0,1,2]}],"textures":[{"name":"base_color_texture","sampler":0,"source":0}]}