{"accessors":[{"bufferView":0,"byteOffset":0,"componentType":5123,"count":708,"type":"SCALAR"},{"bufferView":1,"byteOffset":0,"componentType":5126,"count":154,"max":[-0.00516674248502,3.60000014305115,0.0534678585827351],"min":[-0.11210238933563,0.25,-0.0534677952528],"type":"VEC3"},{"bufferView":2,"byteOffset":0,"componentType":5126,"count":154,"type":"VEC3"},{"bufferView":3,"byteOffset":0,"componentType":5126,"count":154,"type":"VEC2"},{"bufferView":4,"byteOffset":0,"componentType":5123,"count":132,"type":"SCALAR"},{"bufferView":5,"byteOffset":0,"componentType":5126,"count":50,"max":[-0.01348660886288,3.60000014305115,0.0451480038464069],"min":[-0.10378251969814,0.25,-0.04514791071415],"type":"VEC3"},{"bufferView":6,"byteOffset":0,"componentType":5126,"count":50,"type":"VEC3"},{"bufferView":7,"byteOffset":0,"componentType":5126,"count":50,"type":"VEC2"}],"asset":{"generator":"FBX2glTF v0.13.1","version":"2.0"},"bufferViews":[{"buffer":0,"byteLength":1416,"byteOffset":0,"target":34963},{"buffer":0,"byteLength":1848,"byteOffset":1416,"target":34962},{"buffer":0,"byteLength":1848,"byteOffset":3264,"target":34962},{"buffer":0,"byteLength":1232,"byteOffset":5112,"target":34962},{"buffer":0,"byteLength":264,"byteOffset":6344,"target":34963},{"buffer":0,"byteLength":600,"byteOffset":6608,"target":34962},{"buffer":0,"byteLength":600,"byteOffset":7208,"target":34962},{"buffer":0,"byteLength":400,"byteOffset":7808,"target":34962}],"buffers":[{"byteLength":8208,"uri":"Drainpipe_01.bin"}],"images":[{"name":"Drainpipe_A","uri":"Drainpipe_A.tga"}],"materials":[{"alphaMode":"OPAQUE","doubleSided":false,"extras":{"fromFBX":{"isTruePBR":false,"shadingModel":"Phong"}},"name":"Drainpipe","pbrMetallicRoughness":{"baseColorFactor":[1,1,1,1],"baseColorTexture":{"index":0,"texCoord":0},"metallicFactor":0.400000005960464,"roughnessFactor":0.272165536880493}}],"meshes":[{"name":"Drainpipe_01_LOD0","primitives":[{"attributes":{"NORMAL":2,"POSITION":1,"TEXCOORD_0":3},"indices":0,"material":0,"mode":4}]},{"name":"Drainpipe_01_LOD1","primitives":[{"attributes":{"NORMAL":6,"POSITION":5,"TEXCOORD_0":7},"indices":4,"material":0,"mode":4}]}],"nodes":[{"mesh":0,"name":"Drainpipe_01_LOD0","rotation":[0,0,0,1],"scale":[1,1,1],"translation":[0,0,0]},{"mesh":1,"name":"Drainpipe_01_LOD1","rotation":[0,0,0,1],"scale":[1,1,1],"translation":[0,0,0]}],"samplers":[{}],"scene":0,"scenes":[{"name":"Root Scene","nodes":[0,1]}],"textures":[{"name":"base_color_texture","sampler":0,"source":0}]}