{"accessors":[{"bufferView":0,"byteOffset":0,"componentType":5123,"count":1146,"type":"SCALAR"},{"bufferView":1,"byteOffset":0,"componentType":5126,"count":406,"max":[0.0852938368916512,2.18992948532104,0.0972565412521362],"min":[-0.08529429137707,0.0000419290736317635,-0.0982733219862],"type":"VEC3"},{"bufferView":2,"byteOffset":0,"componentType":5126,"count":406,"type":"VEC3"},{"bufferView":3,"byteOffset":0,"componentType":5126,"count":406,"type":"VEC2"},{"bufferView":4,"byteOffset":0,"componentType":5123,"count":12876,"type":"SCALAR"},{"bufferView":5,"byteOffset":0,"componentType":5126,"count":2977,"max":[0.0740820020437241,2.18916797637939,4.07293224334717],"min":[-0.12930764257908,0.00141018629074097,-0.00191181898117],"type":"VEC3"},{"bufferView":6,"byteOffset":0,"componentType":5126,"count":2977,"type":"VEC3"},{"bufferView":7,"byteOffset":0,"componentType":5126,"count":2977,"type":"VEC2"},{"bufferView":8,"byteOffset":0,"componentType":5123,"count":573,"type":"SCALAR"},{"bufferView":9,"byteOffset":0,"componentType":5126,"count":237,"max":[0.0841083154082298,2.19048404693604,0.0961722284555435],"min":[-0.08559296280146,0.0000000809510822818993,-0.09718900173903],"type":"VEC3"},{"bufferView":10,"byteOffset":0,"componentType":5126,"count":237,"type":"VEC3"},{"bufferView":11,"byteOffset":0,"componentType":5126,"count":237,"type":"VEC2"},{"bufferView":12,"byteOffset":0,"componentType":5123,"count":6657,"type":"SCALAR"},{"bufferView":13,"byteOffset":0,"componentType":5126,"count":1699,"max":[0.0738150030374527,2.19003129005432,4.07293891906738],"min":[-0.12833714485168,0.00278955954127014,-0.00192754040472],"type":"VEC3"},{"bufferView":14,"byteOffset":0,"componentType":5126,"count":1699,"type":"VEC3"},{"bufferView":15,"byteOffset":0,"componentType":5126,"count":1699,"type":"VEC2"},{"bufferView":16,"byteOffset":0,"componentType":5123,"count":258,"type":"SCALAR"},{"bufferView":17,"byteOffset":0,"componentType":5126,"count":72,"max":[0.0841083154082298,2.19048404693604,0.0857178196310997],"min":[-0.08559296280146,0.0000000809510822818993,-0.08571778982878],"type":"VEC3"},{"bufferView":18,"byteOffset":0,"componentType":5126,"count":72,"type":"VEC3"},{"bufferView":19,"byteOffset":0,"componentType":5126,"count":72,"type":"VEC2"},{"bufferView":20,"byteOffset":0,"componentType":5123,"count":546,"type":"SCALAR"},{"bufferView":21,"byteOffset":0,"componentType":5126,"count":228,"max":[0.0745939463376999,2.18876338005066,4.05307054519653],"min":[-0.11459682136774,-0.00197511469014,-0.00192754040472],"type":"VEC3"},{"bufferView":22,"byteOffset":0,"componentType":5126,"count":228,"type":"VEC3"},{"bufferView":23,"byteOffset":0,"componentType":5126,"count":228,"type":"VEC2"}],"asset":{"generator":"FBX2glTF v0.13.1","version":"2.0"},"bufferViews":[{"buffer":0,"byteLength":2292,"byteOffset":0,"target":34963},{"buffer":0,"byteLength":4872,"byteOffset":2292,"target":34962},{"buffer":0,"byteLength":4872,"byteOffset":7164,"target":34962},{"buffer":0,"byteLength":3248,"byteOffset":12036,"target":34962},{"buffer":0,"byteLength":25752,"byteOffset":15284,"target":34963},{"buffer":0,"byteLength":35724,"byteOffset":41036,"target":34962},{"buffer":0,"byteLength":35724,"byteOffset":76760,"target":34962},{"buffer":0,"byteLength":23816,"byteOffset":112484,"target":34962},{"buffer":0,"byteLength":1146,"byteOffset":136300,"target":34963},{"buffer":0,"byteLength":2844,"byteOffset":137448,"target":34962},{"buffer":0,"byteLength":2844,"byteOffset":140292,"target":34962},{"buffer":0,"byteLength":1896,"byteOffset":143136,"target":34962},{"buffer":0,"byteLength":13314,"byteOffset":145032,"target":34963},{"buffer":0,"byteLength":20388,"byteOffset":158348,"target":34962},{"buffer":0,"byteLength":20388,"byteOffset":178736,"target":34962},{"buffer":0,"byteLength":13592,"byteOffset":199124,"target":34962},{"buffer":0,"byteLength":516,"byteOffset":212716,"target":34963},{"buffer":0,"byteLength":864,"byteOffset":213232,"target":34962},{"buffer":0,"byteLength":864,"byteOffset":214096,"target":34962},{"buffer":0,"byteLength":576,"byteOffset":214960,"target":34962},{"buffer":0,"byteLength":1092,"byteOffset":215536,"target":34963},{"buffer":0,"byteLength":2736,"byteOffset":216628,"target":34962},{"buffer":0,"byteLength":2736,"byteOffset":219364,"target":34962},{"buffer":0,"byteLength":1824,"byteOffset":222100,"target":34962}],"buffers":[{"byteLength":223924,"uri":"Fence_Gates.bin"}],"images":[{"name":"Fence_A","uri":"Fence_A.tga"}],"materials":[{"alphaMode":"OPAQUE","doubleSided":false,"extras":{"fromFBX":{"isTruePBR":false,"shadingModel":"Phong"}},"name":"Fence","pbrMetallicRoughness":{"baseColorFactor":[1,1,1,1],"baseColorTexture":{"index":0,"texCoord":0},"metallicFactor":0.400000005960464,"roughnessFactor":0.272165536880493}}],"meshes":[{"name":"Fence_Post_LOD0","primitives":[{"attributes":{"NORMAL":2,"POSITION":1,"TEXCOORD_0":3},"indices":0,"material":0,"mode":4}]},{"name":"Fence_Gates_LOD0","primitives":[{"attributes":{"NORMAL":6,"POSITION":5,"TEXCOORD_0":7},"indices":4,"material":0,"mode":4}]},{"name":"Fence_Post_LOD1","primitives":[{"attributes":{"NORMAL":10,"POSITION":9,"TEXCOORD_0":11},"indices":8,"material":0,"mode":4}]},{"name":"Fence_Gates_LOD1","primitives":[{"attributes":{"NORMAL":14,"POSITION":13,"TEXCOORD_0":15},"indices":12,"material":0,"mode":4}]},{"name":"Fence_Post_LOD2","primitives":[{"attributes":{"NORMAL":18,"POSITION":17,"TEXCOORD_0":19},"indices":16,"material":0,"mode":4}]},{"name":"Fence_Gates_LOD2","primitives":[{"attributes":{"NORMAL":22,"POSITION":21,"TEXCOORD_0":23},"indices":20,"material":0,"mode":4}]}],"nodes":[{"mesh":0,"name":"Fence_Post_LOD0","rotation":[0,0,0,1],"scale":[1,1,1],"translation":[0,0,0]},{"mesh":1,"name":"Fence_Gates_LOD0","rotation":[0,0,0,1],"scale":[1,1,1],"translation":[0,0,0]},{"mesh":2,"name":"Fence_Post_LOD1","rotation":[0,0,0,1],"scale":[1,1,1],"translation":[0,0,0]},{"mesh":3,"name":"Fence_Gates_LOD1","rotation":[0,0,0,1],"scale":[1,1,1],"translation":[0,0,0]},{"mesh":4,"name":"Fence_Post_LOD2","rotation":[0,0,0,1],"scale":[1,1,1],"translation":[0,0,0]},{"mesh":5,"name":"Fence_Gates_LOD2","rotation":[0,0,0,1],"scale":[1,1,1],"translation":[0,0,0]}],"samplers":[{}],"scene":0,"scenes":[{"name":"Root Scene","nodes":[0,1,2,3,4,5]}],"textures":[{"name":"base_color_texture","sampler":0,"source":0}]}