{"accessors":[{"bufferView":0,"byteOffset":0,"componentType":5123,"count":2070,"type":"SCALAR"},{"bufferView":1,"byteOffset":0,"componentType":5126,"count":680,"max":[0.0852938368916512,2.18992948532104,3.99999904632568],"min":[-0.08529429137707,0.0000419290736317635,-0.0982733219862],"type":"VEC3"},{"bufferView":2,"byteOffset":0,"componentType":5126,"count":680,"type":"VEC3"},{"bufferView":3,"byteOffset":0,"componentType":5126,"count":680,"type":"VEC2"},{"bufferView":4,"byteOffset":0,"componentType":5123,"count":1086,"type":"SCALAR"},{"bufferView":5,"byteOffset":0,"componentType":5126,"count":417,"max":[0.0852938368916512,2.19048404693604,4.00000286102295],"min":[-0.08529429137707,0.0000419290736317635,-0.09718900173903],"type":"VEC3"},{"bufferView":6,"byteOffset":0,"componentType":5126,"count":417,"type":"VEC3"},{"bufferView":7,"byteOffset":0,"componentType":5126,"count":417,"type":"VEC2"},{"bufferView":8,"byteOffset":0,"componentType":5123,"count":360,"type":"SCALAR"},{"bufferView":9,"byteOffset":0,"componentType":5126,"count":126,"max":[0.0842216312885284,2.18491244316101,4.00000190734863],"min":[-0.08340938389301,0.0000000813756031448065,-0.08379399776459],"type":"VEC3"},{"bufferView":10,"byteOffset":0,"componentType":5126,"count":126,"type":"VEC3"},{"bufferView":11,"byteOffset":0,"componentType":5126,"count":126,"type":"VEC2"}],"asset":{"generator":"FBX2glTF v0.13.1","version":"2.0"},"bufferViews":[{"buffer":0,"byteLength":4140,"byteOffset":0,"target":34963},{"buffer":0,"byteLength":8160,"byteOffset":4140,"target":34962},{"buffer":0,"byteLength":8160,"byteOffset":12300,"target":34962},{"buffer":0,"byteLength":5440,"byteOffset":20460,"target":34962},{"buffer":0,"byteLength":2172,"byteOffset":25900,"target":34963},{"buffer":0,"byteLength":5004,"byteOffset":28072,"target":34962},{"buffer":0,"byteLength":5004,"byteOffset":33076,"target":34962},{"buffer":0,"byteLength":3336,"byteOffset":38080,"target":34962},{"buffer":0,"byteLength":720,"byteOffset":41416,"target":34963},{"buffer":0,"byteLength":1512,"byteOffset":42136,"target":34962},{"buffer":0,"byteLength":1512,"byteOffset":43648,"target":34962},{"buffer":0,"byteLength":1008,"byteOffset":45160,"target":34962}],"buffers":[{"byteLength":46168,"uri":"Fence_01.bin"}],"images":[{"name":"Fence_A","uri":"Fence_A.tga"}],"materials":[{"alphaMode":"OPAQUE","doubleSided":false,"extras":{"fromFBX":{"isTruePBR":false,"shadingModel":"Phong"}},"name":"Fence","pbrMetallicRoughness":{"baseColorFactor":[1,1,1,1],"baseColorTexture":{"index":0,"texCoord":0},"metallicFactor":0.400000005960464,"roughnessFactor":0.272165536880493}}],"meshes":[{"name":"Fence_01_LOD0","primitives":[{"attributes":{"NORMAL":2,"POSITION":1,"TEXCOORD_0":3},"indices":0,"material":0,"mode":4}]},{"name":"Fence_01_LOD1","primitives":[{"attributes":{"NORMAL":6,"POSITION":5,"TEXCOORD_0":7},"indices":4,"material":0,"mode":4}]},{"name":"Fence_01_LOD2","primitives":[{"attributes":{"NORMAL":10,"POSITION":9,"TEXCOORD_0":11},"indices":8,"material":0,"mode":4}]}],"nodes":[{"mesh":0,"name":"Fence_01_LOD0","rotation":[0,0,0,1],"scale":[1,1,1],"translation":[0,0,0]},{"mesh":1,"name":"Fence_01_LOD1","rotation":[0,0,0,1],"scale":[1,1,1],"translation":[0,0,0]},{"mesh":2,"name":"Fence_01_LOD2","rotation":[0,0,0,1],"scale":[1,1,1],"translation":[0,0,0]}],"samplers":[{}],"scene":0,"scenes":[{"name":"Root Scene","nodes":[0,1,2]}],"textures":[{"name":"base_color_texture","sampler":0,"source":0}]}