{"accessors":[{"bufferView":0,"byteOffset":0,"componentType":5123,"count":3426,"type":"SCALAR"},{"bufferView":1,"byteOffset":0,"componentType":5126,"count":874,"max":[0.586710333824158,0.384225636720657,0.586710333824158],"min":[-0.58671033382416,0.00000000814292366868585,-0.58671033382416],"type":"VEC3"},{"bufferView":2,"byteOffset":0,"componentType":5126,"count":874,"type":"VEC3"},{"bufferView":3,"byteOffset":0,"componentType":5126,"count":874,"type":"VEC2"},{"bufferView":4,"byteOffset":0,"componentType":5123,"count":1605,"type":"SCALAR"},{"bufferView":5,"byteOffset":0,"componentType":5126,"count":495,"max":[0.586710333824158,0.384225636720657,0.586710333824158],"min":[-0.58671033382416,0.00000000814292366868585,-0.58671033382416],"type":"VEC3"},{"bufferView":6,"byteOffset":0,"componentType":5126,"count":495,"type":"VEC3"},{"bufferView":7,"byteOffset":0,"componentType":5126,"count":495,"type":"VEC2"},{"bufferView":8,"byteOffset":0,"componentType":5123,"count":699,"type":"SCALAR"},{"bufferView":9,"byteOffset":0,"componentType":5126,"count":325,"max":[0.586710333824158,0.386629700660706,0.586790502071381],"min":[-0.58671033382416,0.00000000814292366868585,-0.58671033382416],"type":"VEC3"},{"bufferView":10,"byteOffset":0,"componentType":5126,"count":325,"type":"VEC3"},{"bufferView":11,"byteOffset":0,"componentType":5126,"count":325,"type":"VEC2"}],"asset":{"generator":"FBX2glTF v0.13.1","version":"2.0"},"bufferViews":[{"buffer":0,"byteLength":6852,"byteOffset":0,"target":34963},{"buffer":0,"byteLength":10488,"byteOffset":6852,"target":34962},{"buffer":0,"byteLength":10488,"byteOffset":17340,"target":34962},{"buffer":0,"byteLength":6992,"byteOffset":27828,"target":34962},{"buffer":0,"byteLength":3210,"byteOffset":34820,"target":34963},{"buffer":0,"byteLength":5940,"byteOffset":38032,"target":34962},{"buffer":0,"byteLength":5940,"byteOffset":43972,"target":34962},{"buffer":0,"byteLength":3960,"byteOffset":49912,"target":34962},{"buffer":0,"byteLength":1398,"byteOffset":53872,"target":34963},{"buffer":0,"byteLength":3900,"byteOffset":55272,"target":34962},{"buffer":0,"byteLength":3900,"byteOffset":59172,"target":34962},{"buffer":0,"byteLength":2600,"byteOffset":63072,"target":34962}],"buffers":[{"byteLength":65672,"uri":"Hatch_Metal.bin"}],"images":[{"name":"Street_Lamp_A","uri":"Street_Lamp_A.tga"}],"materials":[{"alphaMode":"OPAQUE","doubleSided":false,"extras":{"fromFBX":{"isTruePBR":false,"shadingModel":"Phong"}},"name":"Street_Lamp","pbrMetallicRoughness":{"baseColorFactor":[1,1,1,1],"baseColorTexture":{"index":0,"texCoord":0},"metallicFactor":0.400000005960464,"roughnessFactor":0.272165536880493}}],"meshes":[{"name":"Hatch_Metal_LOD0","primitives":[{"attributes":{"NORMAL":2,"POSITION":1,"TEXCOORD_0":3},"indices":0,"material":0,"mode":4}]},{"name":"Hatch_Metal_LOD1","primitives":[{"attributes":{"NORMAL":6,"POSITION":5,"TEXCOORD_0":7},"indices":4,"material":0,"mode":4}]},{"name":"Hatch_Metal_LOD2","primitives":[{"attributes":{"NORMAL":10,"POSITION":9,"TEXCOORD_0":11},"indices":8,"material":0,"mode":4}]}],"nodes":[{"mesh":0,"name":"Hatch_Metal_LOD0","rotation":[0,0,0,1],"scale":[1,1,1],"translation":[0,0,0]},{"mesh":1,"name":"Hatch_Metal_LOD1","rotation":[0,0,0,1],"scale":[1,1,1],"translation":[0,0,0]},{"mesh":2,"name":"Hatch_Metal_LOD2","rotation":[0,0,0,1],"scale":[1,1,1],"translation":[0,0,0]}],"samplers":[{}],"scene":0,"scenes":[{"name":"Root Scene","nodes":[0,1,2]}],"textures":[{"name":"base_color_texture","sampler":0,"source":0}]}