{"accessors":[{"bufferView":0,"byteOffset":0,"componentType":5123,"count":516,"type":"SCALAR"},{"bufferView":1,"byteOffset":0,"componentType":5126,"count":232,"max":[0.0157266855239868,0.19420038163662,0.37454891204834],"min":[-0.01117169857025,-0.21247257292271,-0.37488269805908],"type":"VEC3"},{"bufferView":2,"byteOffset":0,"componentType":5126,"count":232,"type":"VEC3"},{"bufferView":3,"byteOffset":0,"componentType":5126,"count":232,"type":"VEC2"}],"asset":{"generator":"FBX2glTF v0.13.1","version":"2.0"},"bufferViews":[{"buffer":0,"byteLength":1032,"byteOffset":0,"target":34963},{"buffer":0,"byteLength":2784,"byteOffset":1032,"target":34962},{"buffer":0,"byteLength":2784,"byteOffset":3816,"target":34962},{"buffer":0,"byteLength":1856,"byteOffset":6600,"target":34962}],"buffers":[{"byteLength":8456,"uri":"Sign.bin"}],"images":[{"name":"Fence_A","uri":"Fence_A.tga"}],"materials":[{"alphaMode":"OPAQUE","doubleSided":false,"extras":{"fromFBX":{"isTruePBR":false,"shadingModel":"Phong"}},"name":"Fence","pbrMetallicRoughness":{"baseColorFactor":[1,1,1,1],"baseColorTexture":{"index":0,"texCoord":0},"metallicFactor":0.400000005960464,"roughnessFactor":0.272165536880493}}],"meshes":[{"name":"Sign","primitives":[{"attributes":{"NORMAL":2,"POSITION":1,"TEXCOORD_0":3},"indices":0,"material":0,"mode":4}]}],"nodes":[{"mesh":0,"name":"Sign","rotation":[0,0,0,1],"scale":[1,1,1],"translation":[0,0,0]}],"samplers":[{}],"scene":0,"scenes":[{"name":"Root Scene","nodes":[0]}],"textures":[{"name":"base_color_texture","sampler":0,"source":0}]}