{"accessors":[{"bufferView":0,"byteOffset":0,"componentType":5123,"count":1164,"type":"SCALAR"},{"bufferView":1,"byteOffset":0,"componentType":5126,"count":486,"max":[0.44645294547081,1.38053154945374,1.9675487279892],"min":[-0.44645354151726,-0.00000019316325,-1.96754896640778],"type":"VEC3"},{"bufferView":2,"byteOffset":0,"componentType":5126,"count":486,"type":"VEC3"},{"bufferView":3,"byteOffset":0,"componentType":5126,"count":486,"type":"VEC2"},{"bufferView":4,"byteOffset":0,"componentType":5123,"count":588,"type":"SCALAR"},{"bufferView":5,"byteOffset":0,"componentType":5126,"count":296,"max":[0.44645294547081,1.38053154945374,1.9675487279892],"min":[-0.44645354151726,-0.00000019316325,-1.96754896640778],"type":"VEC3"},{"bufferView":6,"byteOffset":0,"componentType":5126,"count":296,"type":"VEC3"},{"bufferView":7,"byteOffset":0,"componentType":5126,"count":296,"type":"VEC2"}],"asset":{"generator":"FBX2glTF v0.13.1","version":"2.0"},"bufferViews":[{"buffer":0,"byteLength":2328,"byteOffset":0,"target":34963},{"buffer":0,"byteLength":5832,"byteOffset":2328,"target":34962},{"buffer":0,"byteLength":5832,"byteOffset":8160,"target":34962},{"buffer":0,"byteLength":3888,"byteOffset":13992,"target":34962},{"buffer":0,"byteLength":1176,"byteOffset":17880,"target":34963},{"buffer":0,"byteLength":3552,"byteOffset":19056,"target":34962},{"buffer":0,"byteLength":3552,"byteOffset":22608,"target":34962},{"buffer":0,"byteLength":2368,"byteOffset":26160,"target":34962}],"buffers":[{"byteLength":28528,"uri":"Stone_Sign.bin"}],"images":[{"name":"Stone_Sign_A","uri":"Stone_Sign_A.tga"}],"materials":[{"alphaMode":"OPAQUE","doubleSided":false,"extras":{"fromFBX":{"isTruePBR":false,"shadingModel":"Phong"}},"name":"Stone_Sign","pbrMetallicRoughness":{"baseColorFactor":[1,1,1,1],"baseColorTexture":{"index":0,"texCoord":0},"metallicFactor":0.400000005960464,"roughnessFactor":0.272165536880493}}],"meshes":[{"name":"Stone_Sign_LOD0","primitives":[{"attributes":{"NORMAL":2,"POSITION":1,"TEXCOORD_0":3},"indices":0,"material":0,"mode":4}]},{"name":"Stone_Sign_LOD1","primitives":[{"attributes":{"NORMAL":6,"POSITION":5,"TEXCOORD_0":7},"indices":4,"material":0,"mode":4}]}],"nodes":[{"mesh":0,"name":"Stone_Sign_LOD0","rotation":[0,0,0,1],"scale":[1,1,1],"translation":[0,0,0]},{"mesh":1,"name":"Stone_Sign_LOD1","rotation":[0,0,0,1],"scale":[1,1,1],"translation":[0,0,0]}],"samplers":[{}],"scene":0,"scenes":[{"name":"Root Scene","nodes":[0,1]}],"textures":[{"name":"base_color_texture","sampler":0,"source":0}]}