{"accessors":[{"bufferView":0,"byteOffset":0,"componentType":5123,"count":8784,"type":"SCALAR"},{"bufferView":1,"byteOffset":0,"componentType":5126,"count":2799,"max":[0.588470458984375,3.52332139015198,0.178029775619507],"min":[-0.60705405473709,0,-0.16297125816345],"type":"VEC3"},{"bufferView":2,"byteOffset":0,"componentType":5126,"count":2799,"type":"VEC3"},{"bufferView":3,"byteOffset":0,"componentType":5126,"count":2799,"type":"VEC2"},{"bufferView":4,"byteOffset":0,"componentType":5123,"count":4743,"type":"SCALAR"},{"bufferView":5,"byteOffset":0,"componentType":5126,"count":1732,"max":[0.58603847026825,3.52332139015198,0.178029775619507],"min":[-0.60462206602097,0,-0.16297125816345],"type":"VEC3"},{"bufferView":6,"byteOffset":0,"componentType":5126,"count":1732,"type":"VEC3"},{"bufferView":7,"byteOffset":0,"componentType":5126,"count":1732,"type":"VEC2"},{"bufferView":8,"byteOffset":0,"componentType":5123,"count":2058,"type":"SCALAR"},{"bufferView":9,"byteOffset":0,"componentType":5126,"count":971,"max":[0.583482384681702,3.52332139015198,0.178029775619507],"min":[-0.60206592082977,0,-0.16297125816345],"type":"VEC3"},{"bufferView":10,"byteOffset":0,"componentType":5126,"count":971,"type":"VEC3"},{"bufferView":11,"byteOffset":0,"componentType":5126,"count":971,"type":"VEC2"},{"bufferView":12,"byteOffset":0,"componentType":5123,"count":144,"type":"SCALAR"},{"bufferView":13,"byteOffset":0,"componentType":5126,"count":96,"max":[0.528514087200165,3.27558040618896,0.12194487452507],"min":[-0.54709768295288,3.08051133155823,-0.10632944107056],"type":"VEC3"},{"bufferView":14,"byteOffset":0,"componentType":5126,"count":96,"type":"VEC3"},{"bufferView":15,"byteOffset":0,"componentType":5126,"count":96,"type":"VEC2"}],"asset":{"generator":"FBX2glTF v0.13.1","version":"2.0"},"bufferViews":[{"buffer":0,"byteLength":17568,"byteOffset":0,"target":34963},{"buffer":0,"byteLength":33588,"byteOffset":17568,"target":34962},{"buffer":0,"byteLength":33588,"byteOffset":51156,"target":34962},{"buffer":0,"byteLength":22392,"byteOffset":84744,"target":34962},{"buffer":0,"byteLength":9486,"byteOffset":107136,"target":34963},{"buffer":0,"byteLength":20784,"byteOffset":116624,"target":34962},{"buffer":0,"byteLength":20784,"byteOffset":137408,"target":34962},{"buffer":0,"byteLength":13856,"byteOffset":158192,"target":34962},{"buffer":0,"byteLength":4116,"byteOffset":172048,"target":34963},{"buffer":0,"byteLength":11652,"byteOffset":176164,"target":34962},{"buffer":0,"byteLength":11652,"byteOffset":187816,"target":34962},{"buffer":0,"byteLength":7768,"byteOffset":199468,"target":34962},{"buffer":0,"byteLength":288,"byteOffset":207236,"target":34963},{"buffer":0,"byteLength":1152,"byteOffset":207524,"target":34962},{"buffer":0,"byteLength":1152,"byteOffset":208676,"target":34962},{"buffer":0,"byteLength":768,"byteOffset":209828,"target":34962}],"buffers":[{"byteLength":210596,"uri":"Street_Lamp_01.bin"}],"images":[{"name":"Street_Lamp_A","uri":"Street_Lamp_A.tga"},{"name":"Glass_A","uri":"Glass_A.tga"}],"materials":[{"alphaMode":"OPAQUE","doubleSided":false,"extras":{"fromFBX":{"isTruePBR":false,"shadingModel":"Phong"}},"name":"Street_Lamp","pbrMetallicRoughness":{"baseColorFactor":[1,1,1,1],"baseColorTexture":{"index":0,"texCoord":0},"metallicFactor":0.400000005960464,"roughnessFactor":0.272165536880493}},{"alphaMode":"OPAQUE","doubleSided":false,"extras":{"fromFBX":{"isTruePBR":false,"shadingModel":"Phong"}},"name":"Glass(Fade)","pbrMetallicRoughness":{"baseColorFactor":[1,1,1,1],"baseColorTexture":{"index":1,"texCoord":0},"metallicFactor":0.400000005960464,"roughnessFactor":0.272165536880493}}],"meshes":[{"name":"Street_Lamp_01_LOD0","primitives":[{"attributes":{"NORMAL":2,"POSITION":1,"TEXCOORD_0":3},"indices":0,"material":0,"mode":4}]},{"name":"Street_Lamp_01_LOD1","primitives":[{"attributes":{"NORMAL":6,"POSITION":5,"TEXCOORD_0":7},"indices":4,"material":0,"mode":4}]},{"name":"Street_Lamp_01_LOD2","primitives":[{"attributes":{"NORMAL":10,"POSITION":9,"TEXCOORD_0":11},"indices":8,"material":0,"mode":4}]},{"name":"Street_Lamp_Glass","primitives":[{"attributes":{"NORMAL":14,"POSITION":13,"TEXCOORD_0":15},"indices":12,"material":1,"mode":4}]}],"nodes":[{"mesh":0,"name":"Street_Lamp_01_LOD0","rotation":[0,0,0,1],"scale":[1,1,1],"translation":[0,0,0]},{"mesh":3,"name":"Street_Lamp_Glass","rotation":[0,0,0,1],"scale":[1,1,1],"translation":[0,0,0]},{"mesh":1,"name":"Street_Lamp_01_LOD1","rotation":[0,0,0,1],"scale":[1,1,1],"translation":[0,0,0]},{"mesh":2,"name":"Street_Lamp_01_LOD2","rotation":[0,0,0,1],"scale":[1,1,1],"translation":[0,0,0]}],"samplers":[{}],"scene":0,"scenes":[{"name":"Root Scene","nodes":[0,1,2,3]}],"textures":[{"name":"base_color_texture","sampler":0,"source":0},{"name":"base_color_texture","sampler":0,"source":1}]}