{"accessors":[{"bufferView":0,"byteOffset":0,"componentType":5123,"count":3300,"type":"SCALAR"},{"bufferView":1,"byteOffset":0,"componentType":5126,"count":798,"max":[0.204089879989624,0.6199089884758,0.204089850187302],"min":[-0.20408987998962,0,-0.20408987998962],"type":"VEC3"},{"bufferView":2,"byteOffset":0,"componentType":5126,"count":798,"type":"VEC3"},{"bufferView":3,"byteOffset":0,"componentType":5126,"count":798,"type":"VEC2"},{"bufferView":4,"byteOffset":0,"componentType":5123,"count":1458,"type":"SCALAR"},{"bufferView":5,"byteOffset":0,"componentType":5126,"count":393,"max":[0.204411208629608,0.6199089884758,0.204089850187302],"min":[-0.20445470511913,0,-0.20445472002029],"type":"VEC3"},{"bufferView":6,"byteOffset":0,"componentType":5126,"count":393,"type":"VEC3"},{"bufferView":7,"byteOffset":0,"componentType":5126,"count":393,"type":"VEC2"},{"bufferView":8,"byteOffset":0,"componentType":5123,"count":762,"type":"SCALAR"},{"bufferView":9,"byteOffset":0,"componentType":5126,"count":215,"max":[0.205393239855766,0.621007204055786,0.203187495470047],"min":[-0.20862582325935,-0.0004643574357,-0.20838125050068],"type":"VEC3"},{"bufferView":10,"byteOffset":0,"componentType":5126,"count":215,"type":"VEC3"},{"bufferView":11,"byteOffset":0,"componentType":5126,"count":215,"type":"VEC2"}],"asset":{"generator":"FBX2glTF v0.13.1","version":"2.0"},"bufferViews":[{"buffer":0,"byteLength":6600,"byteOffset":0,"target":34963},{"buffer":0,"byteLength":9576,"byteOffset":6600,"target":34962},{"buffer":0,"byteLength":9576,"byteOffset":16176,"target":34962},{"buffer":0,"byteLength":6384,"byteOffset":25752,"target":34962},{"buffer":0,"byteLength":2916,"byteOffset":32136,"target":34963},{"buffer":0,"byteLength":4716,"byteOffset":35052,"target":34962},{"buffer":0,"byteLength":4716,"byteOffset":39768,"target":34962},{"buffer":0,"byteLength":3144,"byteOffset":44484,"target":34962},{"buffer":0,"byteLength":1524,"byteOffset":47628,"target":34963},{"buffer":0,"byteLength":2580,"byteOffset":49152,"target":34962},{"buffer":0,"byteLength":2580,"byteOffset":51732,"target":34962},{"buffer":0,"byteLength":1720,"byteOffset":54312,"target":34962}],"buffers":[{"byteLength":56032,"uri":"Urn_03.bin"}],"images":[{"name":"Bench_A","uri":"Bench_A.tga"}],"materials":[{"alphaMode":"OPAQUE","doubleSided":false,"extras":{"fromFBX":{"isTruePBR":false,"shadingModel":"Phong"}},"name":"Bench","pbrMetallicRoughness":{"baseColorFactor":[1,1,1,1],"baseColorTexture":{"index":0,"texCoord":0},"metallicFactor":0.400000005960464,"roughnessFactor":0.272165536880493}}],"meshes":[{"name":"Urn_03_LOD0","primitives":[{"attributes":{"NORMAL":2,"POSITION":1,"TEXCOORD_0":3},"indices":0,"material":0,"mode":4}]},{"name":"Urn_03_LOD1","primitives":[{"attributes":{"NORMAL":6,"POSITION":5,"TEXCOORD_0":7},"indices":4,"material":0,"mode":4}]},{"name":"Urn_03_LOD2","primitives":[{"attributes":{"NORMAL":10,"POSITION":9,"TEXCOORD_0":11},"indices":8,"material":0,"mode":4}]}],"nodes":[{"mesh":0,"name":"Urn_03_LOD0","rotation":[0,0,0,1],"scale":[1,1,1],"translation":[0,0,0]},{"mesh":1,"name":"Urn_03_LOD1","rotation":[0,0,0,1],"scale":[1,1,1],"translation":[0,0,0]},{"mesh":2,"name":"Urn_03_LOD2","rotation":[0,0,0,1],"scale":[1,1,1],"translation":[0,0,0]}],"samplers":[{}],"scene":0,"scenes":[{"name":"Root Scene","nodes":[0,1,2]}],"textures":[{"name":"base_color_texture","sampler":0,"source":0}]}