{"accessors":[{"bufferView":0,"byteOffset":0,"componentType":5123,"count":25629,"type":"SCALAR"},{"bufferView":1,"byteOffset":0,"componentType":5126,"count":4510,"max":[1.30740094184875,1.45527923107147,1.14037752151489],"min":[-0.94695866107941,-0.02858295105398,-1.07748293876648],"type":"VEC3"},{"bufferView":2,"byteOffset":0,"componentType":5126,"count":4510,"type":"VEC3"},{"bufferView":3,"byteOffset":0,"componentType":5126,"count":4510,"type":"VEC2"},{"bufferView":4,"byteOffset":0,"componentType":5123,"count":10017,"type":"SCALAR"},{"bufferView":5,"byteOffset":0,"componentType":5126,"count":1837,"max":[1.30913138389587,1.45625412464142,1.13683140277863],"min":[-0.9471480846405,-0.02959654666483,-1.07756125926971],"type":"VEC3"},{"bufferView":6,"byteOffset":0,"componentType":5126,"count":1837,"type":"VEC3"},{"bufferView":7,"byteOffset":0,"componentType":5126,"count":1837,"type":"VEC2"},{"bufferView":8,"byteOffset":0,"componentType":5123,"count":444,"type":"SCALAR"},{"bufferView":9,"byteOffset":0,"componentType":5126,"count":115,"max":[1.28153026103973,1.41555535793304,1.11434209346771],"min":[-0.93586766719818,-0.03739354759455,-1.07743227481842],"type":"VEC3"},{"bufferView":10,"byteOffset":0,"componentType":5126,"count":115,"type":"VEC3"},{"bufferView":11,"byteOffset":0,"componentType":5126,"count":115,"type":"VEC2"}],"asset":{"generator":"FBX2glTF v0.13.1","version":"2.0"},"bufferViews":[{"buffer":0,"byteLength":51258,"byteOffset":0,"target":34963},{"buffer":0,"byteLength":54120,"byteOffset":51260,"target":34962},{"buffer":0,"byteLength":54120,"byteOffset":105380,"target":34962},{"buffer":0,"byteLength":36080,"byteOffset":159500,"target":34962},{"buffer":0,"byteLength":20034,"byteOffset":195580,"target":34963},{"buffer":0,"byteLength":22044,"byteOffset":215616,"target":34962},{"buffer":0,"byteLength":22044,"byteOffset":237660,"target":34962},{"buffer":0,"byteLength":14696,"byteOffset":259704,"target":34962},{"buffer":0,"byteLength":888,"byteOffset":274400,"target":34963},{"buffer":0,"byteLength":1380,"byteOffset":275288,"target":34962},{"buffer":0,"byteLength":1380,"byteOffset":276668,"target":34962},{"buffer":0,"byteLength":920,"byteOffset":278048,"target":34962}],"buffers":[{"byteLength":278968,"uri":"Stone_01.bin"}],"materials":[{"alphaMode":"OPAQUE","doubleSided":false,"extras":{"fromFBX":{"isTruePBR":false,"shadingModel":"Lambert"}},"name":"DefaultMaterial","pbrMetallicRoughness":{"baseColorFactor":[0.5,0.5,0.5,1],"metallicFactor":0.200000002980232,"roughnessFactor":0.800000011920929}}],"meshes":[{"name":"Stone_01_LOD0","primitives":[{"attributes":{"NORMAL":2,"POSITION":1,"TEXCOORD_0":3},"indices":0,"material":0,"mode":4}]},{"name":"Stone_01_LOD1","primitives":[{"attributes":{"NORMAL":6,"POSITION":5,"TEXCOORD_0":7},"indices":4,"material":0,"mode":4}]},{"name":"Stone_01_LOD2","primitives":[{"attributes":{"NORMAL":10,"POSITION":9,"TEXCOORD_0":11},"indices":8,"material":0,"mode":4}]}],"nodes":[{"mesh":0,"name":"Stone_01_LOD0","rotation":[0,0,0,1],"scale":[1,1,1],"translation":[0,0,0]},{"mesh":1,"name":"Stone_01_LOD1","rotation":[0,0,0,1],"scale":[1,1,1],"translation":[0,0,0]},{"mesh":2,"name":"Stone_01_LOD2","rotation":[0,0,0,1],"scale":[1,1,1],"translation":[0,0,0]}],"samplers":[{}],"scene":0,"scenes":[{"name":"Root Scene","nodes":[0,1,2]}]}