{"accessors":[{"bufferView":0,"byteOffset":0,"componentType":5123,"count":2088,"type":"SCALAR"},{"bufferView":1,"byteOffset":0,"componentType":5126,"count":878,"max":[0.513754725456238,0.0378398559987545,0.585008978843689],"min":[-0.4879789352417,-0.00527772074565,-0.53852605819702],"type":"VEC3"},{"bufferView":2,"byteOffset":0,"componentType":5126,"count":878,"type":"VEC3"},{"bufferView":3,"byteOffset":0,"componentType":5126,"count":878,"type":"VEC2"},{"bufferView":4,"byteOffset":0,"componentType":5123,"count":1014,"type":"SCALAR"},{"bufferView":5,"byteOffset":0,"componentType":5126,"count":550,"max":[0.513754725456238,0.0391073636710644,0.58538407087326],"min":[-0.48680418729782,-0.00481938337907,-0.53852605819702],"type":"VEC3"},{"bufferView":6,"byteOffset":0,"componentType":5126,"count":550,"type":"VEC3"},{"bufferView":7,"byteOffset":0,"componentType":5126,"count":550,"type":"VEC2"},{"bufferView":8,"byteOffset":0,"componentType":5123,"count":516,"type":"SCALAR"},{"bufferView":9,"byteOffset":0,"componentType":5126,"count":341,"max":[0.512954652309418,0.0378398559987545,0.576855003833771],"min":[-0.48704901337624,-0.00400021951646,-0.5295182466507],"type":"VEC3"},{"bufferView":10,"byteOffset":0,"componentType":5126,"count":341,"type":"VEC3"},{"bufferView":11,"byteOffset":0,"componentType":5126,"count":341,"type":"VEC2"}],"asset":{"generator":"FBX2glTF v0.13.1","version":"2.0"},"bufferViews":[{"buffer":0,"byteLength":4176,"byteOffset":0,"target":34963},{"buffer":0,"byteLength":10536,"byteOffset":4176,"target":34962},{"buffer":0,"byteLength":10536,"byteOffset":14712,"target":34962},{"buffer":0,"byteLength":7024,"byteOffset":25248,"target":34962},{"buffer":0,"byteLength":2028,"byteOffset":32272,"target":34963},{"buffer":0,"byteLength":6600,"byteOffset":34300,"target":34962},{"buffer":0,"byteLength":6600,"byteOffset":40900,"target":34962},{"buffer":0,"byteLength":4400,"byteOffset":47500,"target":34962},{"buffer":0,"byteLength":1032,"byteOffset":51900,"target":34963},{"buffer":0,"byteLength":4092,"byteOffset":52932,"target":34962},{"buffer":0,"byteLength":4092,"byteOffset":57024,"target":34962},{"buffer":0,"byteLength":2728,"byteOffset":61116,"target":34962}],"buffers":[{"byteLength":63844,"uri":"Stone_04.bin"}],"images":[{"name":"Stone_01_A","uri":"Stone_01_A.tga"}],"materials":[{"alphaMode":"OPAQUE","doubleSided":false,"extras":{"fromFBX":{"isTruePBR":false,"shadingModel":"Phong"}},"name":"Stone_01","pbrMetallicRoughness":{"baseColorFactor":[1,1,1,1],"baseColorTexture":{"index":0,"texCoord":0},"metallicFactor":0.400000005960464,"roughnessFactor":0.272165536880493}}],"meshes":[{"name":"Stone_04_LOD0","primitives":[{"attributes":{"NORMAL":2,"POSITION":1,"TEXCOORD_0":3},"indices":0,"material":0,"mode":4}]},{"name":"Stone_04_LOD1","primitives":[{"attributes":{"NORMAL":6,"POSITION":5,"TEXCOORD_0":7},"indices":4,"material":0,"mode":4}]},{"name":"Stone_04_LOD2","primitives":[{"attributes":{"NORMAL":10,"POSITION":9,"TEXCOORD_0":11},"indices":8,"material":0,"mode":4}]}],"nodes":[{"mesh":0,"name":"Stone_04_LOD0","rotation":[0,0,0,1],"scale":[1,1,1],"translation":[0,0,0]},{"mesh":1,"name":"Stone_04_LOD1","rotation":[0,0,0,1],"scale":[1,1,1],"translation":[0,0,0]},{"mesh":2,"name":"Stone_04_LOD2","rotation":[0,0,0,1],"scale":[1,1,1],"translation":[0,0,0]}],"samplers":[{}],"scene":0,"scenes":[{"name":"Root Scene","nodes":[0,1,2]}],"textures":[{"name":"base_color_texture","sampler":0,"source":0}]}