{"accessors":[{"bufferView":0,"byteOffset":0,"componentType":5123,"count":17574,"type":"SCALAR"},{"bufferView":1,"byteOffset":0,"componentType":5126,"count":3174,"max":[0.838807106018066,0.808962404727936,1.12944316864014],"min":[-0.85263526439667,-0.03378977999091,-1.00274109840393],"type":"VEC3"},{"bufferView":2,"byteOffset":0,"componentType":5126,"count":3174,"type":"VEC3"},{"bufferView":3,"byteOffset":0,"componentType":5126,"count":3174,"type":"VEC2"},{"bufferView":4,"byteOffset":0,"componentType":5123,"count":6186,"type":"SCALAR"},{"bufferView":5,"byteOffset":0,"componentType":5126,"count":1213,"max":[0.84183806180954,0.808527946472168,1.13859415054321],"min":[-0.85263526439667,-0.03378977999091,-0.99906498193741],"type":"VEC3"},{"bufferView":6,"byteOffset":0,"componentType":5126,"count":1213,"type":"VEC3"},{"bufferView":7,"byteOffset":0,"componentType":5126,"count":1213,"type":"VEC2"},{"bufferView":8,"byteOffset":0,"componentType":5123,"count":765,"type":"SCALAR"},{"bufferView":9,"byteOffset":0,"componentType":5126,"count":201,"max":[0.835274994373322,0.801543712615967,1.1184446811676],"min":[-0.85294431447983,-0.04044055193663,-0.99735546112061],"type":"VEC3"},{"bufferView":10,"byteOffset":0,"componentType":5126,"count":201,"type":"VEC3"},{"bufferView":11,"byteOffset":0,"componentType":5126,"count":201,"type":"VEC2"}],"asset":{"generator":"FBX2glTF v0.13.1","version":"2.0"},"bufferViews":[{"buffer":0,"byteLength":35148,"byteOffset":0,"target":34963},{"buffer":0,"byteLength":38088,"byteOffset":35148,"target":34962},{"buffer":0,"byteLength":38088,"byteOffset":73236,"target":34962},{"buffer":0,"byteLength":25392,"byteOffset":111324,"target":34962},{"buffer":0,"byteLength":12372,"byteOffset":136716,"target":34963},{"buffer":0,"byteLength":14556,"byteOffset":149088,"target":34962},{"buffer":0,"byteLength":14556,"byteOffset":163644,"target":34962},{"buffer":0,"byteLength":9704,"byteOffset":178200,"target":34962},{"buffer":0,"byteLength":1530,"byteOffset":187904,"target":34963},{"buffer":0,"byteLength":2412,"byteOffset":189436,"target":34962},{"buffer":0,"byteLength":2412,"byteOffset":191848,"target":34962},{"buffer":0,"byteLength":1608,"byteOffset":194260,"target":34962}],"buffers":[{"byteLength":195868,"uri":"Stone_03.bin"}],"images":[{"name":"Stone_03_A","uri":"Stone_03_A.tga"}],"materials":[{"alphaMode":"OPAQUE","doubleSided":false,"extras":{"fromFBX":{"isTruePBR":false,"shadingModel":"Phong"}},"name":"Stone_03","pbrMetallicRoughness":{"baseColorFactor":[1,1,1,1],"baseColorTexture":{"index":0,"texCoord":0},"metallicFactor":0.400000005960464,"roughnessFactor":0.272165536880493}}],"meshes":[{"name":"Stone_03_LOD0","primitives":[{"attributes":{"NORMAL":2,"POSITION":1,"TEXCOORD_0":3},"indices":0,"material":0,"mode":4}]},{"name":"Stone_03_LOD1","primitives":[{"attributes":{"NORMAL":6,"POSITION":5,"TEXCOORD_0":7},"indices":4,"material":0,"mode":4}]},{"name":"Stone_03_LOD2","primitives":[{"attributes":{"NORMAL":10,"POSITION":9,"TEXCOORD_0":11},"indices":8,"material":0,"mode":4}]}],"nodes":[{"mesh":0,"name":"Stone_03_LOD0","rotation":[0,0,0,1],"scale":[1,1,1],"translation":[0,0,0]},{"mesh":1,"name":"Stone_03_LOD1","rotation":[0,0,0,1],"scale":[1,1,1],"translation":[0,0,0]},{"mesh":2,"name":"Stone_03_LOD2","rotation":[0,0,0,1],"scale":[1,1,1],"translation":[0,0,0]}],"samplers":[{}],"scene":0,"scenes":[{"name":"Root Scene","nodes":[0,1,2]}],"textures":[{"name":"base_color_texture","sampler":0,"source":0}]}