{"accessors":[{"bufferView":0,"byteOffset":0,"componentType":5123,"count":10725,"type":"SCALAR"},{"bufferView":1,"byteOffset":0,"componentType":5126,"count":1944,"max":[0.793881356716156,1.12656283378601,2.01102471351624],"min":[-0.99150425195694,0.00823832582682371,-0.71859234571457],"type":"VEC3"},{"bufferView":2,"byteOffset":0,"componentType":5126,"count":1944,"type":"VEC3"},{"bufferView":3,"byteOffset":0,"componentType":5126,"count":1944,"type":"VEC2"},{"bufferView":4,"byteOffset":0,"componentType":5123,"count":3783,"type":"SCALAR"},{"bufferView":5,"byteOffset":0,"componentType":5126,"count":748,"max":[0.793906331062317,1.12754881381989,2.01238083839417],"min":[-0.99150425195694,0.00648231990635395,-0.72075873613357],"type":"VEC3"},{"bufferView":6,"byteOffset":0,"componentType":5126,"count":748,"type":"VEC3"},{"bufferView":7,"byteOffset":0,"componentType":5126,"count":748,"type":"VEC2"},{"bufferView":8,"byteOffset":0,"componentType":5123,"count":750,"type":"SCALAR"},{"bufferView":9,"byteOffset":0,"componentType":5126,"count":183,"max":[0.78792142868042,1.12098515033722,2.01390767097473],"min":[-0.97966933250427,0.00388767081312835,-0.71723979711533],"type":"VEC3"},{"bufferView":10,"byteOffset":0,"componentType":5126,"count":183,"type":"VEC3"},{"bufferView":11,"byteOffset":0,"componentType":5126,"count":183,"type":"VEC2"}],"asset":{"generator":"FBX2glTF v0.13.1","version":"2.0"},"bufferViews":[{"buffer":0,"byteLength":21450,"byteOffset":0,"target":34963},{"buffer":0,"byteLength":23328,"byteOffset":21452,"target":34962},{"buffer":0,"byteLength":23328,"byteOffset":44780,"target":34962},{"buffer":0,"byteLength":15552,"byteOffset":68108,"target":34962},{"buffer":0,"byteLength":7566,"byteOffset":83660,"target":34963},{"buffer":0,"byteLength":8976,"byteOffset":91228,"target":34962},{"buffer":0,"byteLength":8976,"byteOffset":100204,"target":34962},{"buffer":0,"byteLength":5984,"byteOffset":109180,"target":34962},{"buffer":0,"byteLength":1500,"byteOffset":115164,"target":34963},{"buffer":0,"byteLength":2196,"byteOffset":116664,"target":34962},{"buffer":0,"byteLength":2196,"byteOffset":118860,"target":34962},{"buffer":0,"byteLength":1464,"byteOffset":121056,"target":34962}],"buffers":[{"byteLength":122520,"uri":"Stone_02.bin"}],"materials":[{"alphaMode":"OPAQUE","doubleSided":false,"extras":{"fromFBX":{"isTruePBR":false,"shadingModel":"Lambert"}},"name":"DefaultMaterial","pbrMetallicRoughness":{"baseColorFactor":[0.5,0.5,0.5,1],"metallicFactor":0.200000002980232,"roughnessFactor":0.800000011920929}}],"meshes":[{"name":"Stone_02_LOD0","primitives":[{"attributes":{"NORMAL":2,"POSITION":1,"TEXCOORD_0":3},"indices":0,"material":0,"mode":4}]},{"name":"Stone_02_LOD1","primitives":[{"attributes":{"NORMAL":6,"POSITION":5,"TEXCOORD_0":7},"indices":4,"material":0,"mode":4}]},{"name":"Stone_02_LOD2","primitives":[{"attributes":{"NORMAL":10,"POSITION":9,"TEXCOORD_0":11},"indices":8,"material":0,"mode":4}]}],"nodes":[{"mesh":0,"name":"Stone_02_LOD0","rotation":[0,0,0,1],"scale":[1,1,1],"translation":[0,0,0]},{"mesh":1,"name":"Stone_02_LOD1","rotation":[0,0,0,1],"scale":[1,1,1],"translation":[0,0,0]},{"mesh":2,"name":"Stone_02_LOD2","rotation":[0,0,0,1],"scale":[1,1,1],"translation":[0,0,0]}],"samplers":[{}],"scene":0,"scenes":[{"name":"Root Scene","nodes":[0,1,2]}]}