{"accessors":[{"bufferView":0,"byteOffset":0,"componentType":5123,"count":14592,"type":"SCALAR"},{"bufferView":1,"byteOffset":0,"componentType":5126,"count":4507,"max":[0.373175084590912,1.86666810512543,0.543613135814667],"min":[-0.70528095960617,-0.00210291147232,-0.92013210058212],"type":"VEC3"},{"bufferView":2,"byteOffset":0,"componentType":5126,"count":4507,"type":"VEC3"},{"bufferView":3,"byteOffset":0,"componentType":5126,"count":4507,"type":"VEC2"},{"bufferView":4,"byteOffset":0,"componentType":5123,"count":6678,"type":"SCALAR"},{"bufferView":5,"byteOffset":0,"componentType":5126,"count":2449,"max":[0.373175084590912,1.86675834655762,0.543843924999237],"min":[-0.70527303218842,-0.00242948764935,-0.9180446267128],"type":"VEC3"},{"bufferView":6,"byteOffset":0,"componentType":5126,"count":2449,"type":"VEC3"},{"bufferView":7,"byteOffset":0,"componentType":5126,"count":2449,"type":"VEC2"},{"bufferView":8,"byteOffset":0,"componentType":5123,"count":1215,"type":"SCALAR"},{"bufferView":9,"byteOffset":0,"componentType":5126,"count":829,"max":[0.37380388379097,1.85759770870209,0.539015412330627],"min":[-0.69586604833603,-0.00538754230365,-0.92402255535126],"type":"VEC3"},{"bufferView":10,"byteOffset":0,"componentType":5126,"count":829,"type":"VEC3"},{"bufferView":11,"byteOffset":0,"componentType":5126,"count":829,"type":"VEC2"},{"bufferView":12,"byteOffset":0,"componentType":5123,"count":366,"type":"SCALAR"},{"bufferView":13,"byteOffset":0,"componentType":5126,"count":253,"max":[0.373175084590912,1.85774302482605,0.539015412330627],"min":[-0.69586604833603,0.168345063924789,-0.91963970661163],"type":"VEC3"},{"bufferView":14,"byteOffset":0,"componentType":5126,"count":253,"type":"VEC3"},{"bufferView":15,"byteOffset":0,"componentType":5126,"count":253,"type":"VEC2"},{"bufferView":16,"byteOffset":0,"componentType":5123,"count":786,"type":"SCALAR"},{"bufferView":17,"byteOffset":0,"componentType":5126,"count":173,"max":[0.271259933710098,2.06283640861511,-0.05049179494381],"min":[-0.11613929271698,1.83388757705688,-0.43789100646973],"type":"VEC3"},{"bufferView":18,"byteOffset":0,"componentType":5126,"count":173,"type":"VEC3"},{"bufferView":19,"byteOffset":0,"componentType":5126,"count":173,"type":"VEC2"},{"bufferView":20,"byteOffset":0,"componentType":5123,"count":351,"type":"SCALAR"},{"bufferView":21,"byteOffset":0,"componentType":5126,"count":84,"max":[0.271259933710098,2.0629346370697,-0.05049179494381],"min":[-0.11648553609848,1.83388757705688,-0.43789100646973],"type":"VEC3"},{"bufferView":22,"byteOffset":0,"componentType":5126,"count":84,"type":"VEC3"},{"bufferView":23,"byteOffset":0,"componentType":5126,"count":84,"type":"VEC2"},{"bufferView":24,"byteOffset":0,"componentType":5123,"count":51,"type":"SCALAR"},{"bufferView":25,"byteOffset":0,"componentType":5126,"count":22,"max":[0.283734083175659,2.05230236053467,-0.04998187348247],"min":[-0.11643237620592,1.8338782787323,-0.45038366317749],"type":"VEC3"},{"bufferView":26,"byteOffset":0,"componentType":5126,"count":22,"type":"VEC3"},{"bufferView":27,"byteOffset":0,"componentType":5126,"count":22,"type":"VEC2"},{"bufferView":28,"byteOffset":0,"componentType":5123,"count":39,"type":"SCALAR"},{"bufferView":29,"byteOffset":0,"componentType":5126,"count":17,"max":[0.283734083175659,2.04979085922241,-0.04998187348247],"min":[-0.11643237620592,1.8338782787323,-0.45038366317749],"type":"VEC3"},{"bufferView":30,"byteOffset":0,"componentType":5126,"count":17,"type":"VEC3"},{"bufferView":31,"byteOffset":0,"componentType":5126,"count":17,"type":"VEC2"}],"asset":{"generator":"FBX2glTF v0.13.1","version":"2.0"},"bufferViews":[{"buffer":0,"byteLength":29184,"byteOffset":0,"target":34963},{"buffer":0,"byteLength":54084,"byteOffset":29184,"target":34962},{"buffer":0,"byteLength":54084,"byteOffset":83268,"target":34962},{"buffer":0,"byteLength":36056,"byteOffset":137352,"target":34962},{"buffer":0,"byteLength":13356,"byteOffset":173408,"target":34963},{"buffer":0,"byteLength":29388,"byteOffset":186764,"target":34962},{"buffer":0,"byteLength":29388,"byteOffset":216152,"target":34962},{"buffer":0,"byteLength":19592,"byteOffset":245540,"target":34962},{"buffer":0,"byteLength":2430,"byteOffset":265132,"target":34963},{"buffer":0,"byteLength":9948,"byteOffset":267564,"target":34962},{"buffer":0,"byteLength":9948,"byteOffset":277512,"target":34962},{"buffer":0,"byteLength":6632,"byteOffset":287460,"target":34962},{"buffer":0,"byteLength":732,"byteOffset":294092,"target":34963},{"buffer":0,"byteLength":3036,"byteOffset":294824,"target":34962},{"buffer":0,"byteLength":3036,"byteOffset":297860,"target":34962},{"buffer":0,"byteLength":2024,"byteOffset":300896,"target":34962},{"buffer":0,"byteLength":1572,"byteOffset":302920,"target":34963},{"buffer":0,"byteLength":2076,"byteOffset":304492,"target":34962},{"buffer":0,"byteLength":2076,"byteOffset":306568,"target":34962},{"buffer":0,"byteLength":1384,"byteOffset":308644,"target":34962},{"buffer":0,"byteLength":702,"byteOffset":310028,"target":34963},{"buffer":0,"byteLength":1008,"byteOffset":310732,"target":34962},{"buffer":0,"byteLength":1008,"byteOffset":311740,"target":34962},{"buffer":0,"byteLength":672,"byteOffset":312748,"target":34962},{"buffer":0,"byteLength":102,"byteOffset":313420,"target":34963},{"buffer":0,"byteLength":264,"byteOffset":313524,"target":34962},{"buffer":0,"byteLength":264,"byteOffset":313788,"target":34962},{"buffer":0,"byteLength":176,"byteOffset":314052,"target":34962},{"buffer":0,"byteLength":78,"byteOffset":314228,"target":34963},{"buffer":0,"byteLength":204,"byteOffset":314308,"target":34962},{"buffer":0,"byteLength":204,"byteOffset":314512,"target":34962},{"buffer":0,"byteLength":136,"byteOffset":314716,"target":34962}],"buffers":[{"byteLength":314852,"uri":"Artificial_Lung_Ventilation.bin"}],"images":[{"name":"Artificial_Lung_Ventilation_A","uri":"Artificial_Lung_Ventilation_A.tga"},{"name":"Glass_A","uri":"Glass_A.tga"}],"materials":[{"alphaMode":"OPAQUE","doubleSided":false,"extras":{"fromFBX":{"isTruePBR":false,"shadingModel":"Phong"}},"name":"Artificial_Lung_Ventilation","pbrMetallicRoughness":{"baseColorFactor":[1,1,1,1],"baseColorTexture":{"index":0,"texCoord":0},"metallicFactor":0.400000005960464,"roughnessFactor":0.272165536880493}},{"alphaMode":"OPAQUE","doubleSided":false,"extras":{"fromFBX":{"isTruePBR":false,"shadingModel":"Phong"}},"name":"Glass(Fade)","pbrMetallicRoughness":{"baseColorFactor":[1,1,1,1],"baseColorTexture":{"index":1,"texCoord":0},"metallicFactor":0.400000005960464,"roughnessFactor":0.272165536880493}}],"meshes":[{"name":"Artificial_Lung_Ventilation_LOD0","primitives":[{"attributes":{"NORMAL":2,"POSITION":1,"TEXCOORD_0":3},"indices":0,"material":0,"mode":4},{"attributes":{"NORMAL":18,"POSITION":17,"TEXCOORD_0":19},"indices":16,"material":1,"mode":4}]},{"name":"Artificial_Lung_Ventilation_LOD1","primitives":[{"attributes":{"NORMAL":6,"POSITION":5,"TEXCOORD_0":7},"indices":4,"material":0,"mode":4},{"attributes":{"NORMAL":22,"POSITION":21,"TEXCOORD_0":23},"indices":20,"material":1,"mode":4}]},{"name":"Artificial_Lung_Ventilation_LOD2","primitives":[{"attributes":{"NORMAL":10,"POSITION":9,"TEXCOORD_0":11},"indices":8,"material":0,"mode":4},{"attributes":{"NORMAL":26,"POSITION":25,"TEXCOORD_0":27},"indices":24,"material":1,"mode":4}]},{"name":"Artificial_Lung_Ventilation_LOD3","primitives":[{"attributes":{"NORMAL":14,"POSITION":13,"TEXCOORD_0":15},"indices":12,"material":0,"mode":4},{"attributes":{"NORMAL":30,"POSITION":29,"TEXCOORD_0":31},"indices":28,"material":1,"mode":4}]}],"nodes":[{"mesh":0,"name":"Artificial_Lung_Ventilation_LOD0","rotation":[0,0,0,1],"scale":[1,1,1],"translation":[0,0,0]},{"mesh":1,"name":"Artificial_Lung_Ventilation_LOD1","rotation":[0,0,0,1],"scale":[1,1,1],"translation":[0,0,0]},{"mesh":2,"name":"Artificial_Lung_Ventilation_LOD2","rotation":[0,0,0,1],"scale":[1,1,1],"translation":[0,0,0]},{"mesh":3,"name":"Artificial_Lung_Ventilation_LOD3","rotation":[0,0,0,1],"scale":[1,1,1],"translation":[0,0,0]}],"samplers":[{}],"scene":0,"scenes":[{"name":"Root Scene","nodes":[0,1,2,3]}],"textures":[{"name":"base_color_texture","sampler":0,"source":0},{"name":"base_color_texture","sampler":0,"source":1}]}