{"accessors":[{"bufferView":0,"byteOffset":0,"componentType":5123,"count":1134,"type":"SCALAR"},{"bufferView":1,"byteOffset":0,"componentType":5126,"count":306,"max":[0.190134763717651,0.00976505409926176,0.044721569865942],"min":[-0.18678127229214,-0.00976505409926,-0.04451325908303],"type":"VEC3"},{"bufferView":2,"byteOffset":0,"componentType":5126,"count":306,"type":"VEC3"},{"bufferView":3,"byteOffset":0,"componentType":5126,"count":306,"type":"VEC2"},{"bufferView":4,"byteOffset":0,"componentType":5123,"count":420,"type":"SCALAR"},{"bufferView":5,"byteOffset":0,"componentType":5126,"count":131,"max":[0.190134763717651,0.00958471372723579,0.0447259023785591],"min":[-0.18664015829563,-0.01015013083816,-0.04448673501611],"type":"VEC3"},{"bufferView":6,"byteOffset":0,"componentType":5126,"count":131,"type":"VEC3"},{"bufferView":7,"byteOffset":0,"componentType":5126,"count":131,"type":"VEC2"}],"asset":{"generator":"FBX2glTF v0.13.1","version":"2.0"},"bufferViews":[{"buffer":0,"byteLength":2268,"byteOffset":0,"target":34963},{"buffer":0,"byteLength":3672,"byteOffset":2268,"target":34962},{"buffer":0,"byteLength":3672,"byteOffset":5940,"target":34962},{"buffer":0,"byteLength":2448,"byteOffset":9612,"target":34962},{"buffer":0,"byteLength":840,"byteOffset":12060,"target":34963},{"buffer":0,"byteLength":1572,"byteOffset":12900,"target":34962},{"buffer":0,"byteLength":1572,"byteOffset":14472,"target":34962},{"buffer":0,"byteLength":1048,"byteOffset":16044,"target":34962}],"buffers":[{"byteLength":17092,"uri":"Bit.bin"}],"images":[{"name":"Surgical_Instruments_A","uri":"Surgical_Instruments_A.tga"}],"materials":[{"alphaMode":"OPAQUE","doubleSided":false,"extras":{"fromFBX":{"isTruePBR":false,"shadingModel":"Phong"}},"name":"Surgical_Instruments","pbrMetallicRoughness":{"baseColorFactor":[1,1,1,1],"baseColorTexture":{"index":0,"texCoord":0},"metallicFactor":0.400000005960464,"roughnessFactor":0.272165536880493}}],"meshes":[{"name":"Bit_LOD0","primitives":[{"attributes":{"NORMAL":2,"POSITION":1,"TEXCOORD_0":3},"indices":0,"material":0,"mode":4}]},{"name":"Bit_LOD1","primitives":[{"attributes":{"NORMAL":6,"POSITION":5,"TEXCOORD_0":7},"indices":4,"material":0,"mode":4}]}],"nodes":[{"mesh":0,"name":"Bit_LOD0","rotation":[0,0,0,1],"scale":[1,1,1],"translation":[0,0,0]},{"mesh":1,"name":"Bit_LOD1","rotation":[0,0,0,1],"scale":[1,1,1],"translation":[0,0,0]}],"samplers":[{}],"scene":0,"scenes":[{"name":"Root Scene","nodes":[0,1]}],"textures":[{"name":"base_color_texture","sampler":0,"source":0}]}