{"accessors":[{"bufferView":0,"byteOffset":0,"componentType":5123,"count":810,"type":"SCALAR"},{"bufferView":1,"byteOffset":0,"componentType":5126,"count":266,"max":[0.0187288299202919,0.331910610198975,0.363238334655762],"min":[-0.25276869535446,-0.31772953271866,-0.36323833465576],"type":"VEC3"},{"bufferView":2,"byteOffset":0,"componentType":5126,"count":266,"type":"VEC3"},{"bufferView":3,"byteOffset":0,"componentType":5126,"count":266,"type":"VEC2"},{"bufferView":4,"byteOffset":0,"componentType":5123,"count":3702,"type":"SCALAR"},{"bufferView":5,"byteOffset":0,"componentType":5126,"count":1175,"max":[0.0963958129286766,0.188980579376221,0.190861165523529],"min":[0,-0.18789947032929,-0.19066016376018],"type":"VEC3"},{"bufferView":6,"byteOffset":0,"componentType":5126,"count":1175,"type":"VEC3"},{"bufferView":7,"byteOffset":0,"componentType":5126,"count":1175,"type":"VEC2"},{"bufferView":8,"byteOffset":0,"componentType":5123,"count":1602,"type":"SCALAR"},{"bufferView":9,"byteOffset":0,"componentType":5126,"count":549,"max":[0.0964603945612907,0.188533306121826,0.190638616681099],"min":[-0.00015585469373,-0.18799138069153,-0.19100721180439],"type":"VEC3"},{"bufferView":10,"byteOffset":0,"componentType":5126,"count":549,"type":"VEC3"},{"bufferView":11,"byteOffset":0,"componentType":5126,"count":549,"type":"VEC2"},{"bufferView":12,"byteOffset":0,"componentType":5123,"count":738,"type":"SCALAR"},{"bufferView":13,"byteOffset":0,"componentType":5126,"count":350,"max":[0.0975649058818817,0.185154154896736,0.188898518681526],"min":[-0.00093522801762,-0.18722730875015,-0.18832030892372],"type":"VEC3"},{"bufferView":14,"byteOffset":0,"componentType":5126,"count":350,"type":"VEC3"},{"bufferView":15,"byteOffset":0,"componentType":5126,"count":350,"type":"VEC2"},{"bufferView":16,"byteOffset":0,"componentType":5123,"count":450,"type":"SCALAR"},{"bufferView":17,"byteOffset":0,"componentType":5126,"count":149,"max":[0.0187288299202919,0.331910610198975,0.363238334655762],"min":[-0.25282055139542,-0.31772953271866,-0.36323833465576],"type":"VEC3"},{"bufferView":18,"byteOffset":0,"componentType":5126,"count":149,"type":"VEC3"},{"bufferView":19,"byteOffset":0,"componentType":5126,"count":149,"type":"VEC2"}],"asset":{"generator":"FBX2glTF v0.13.1","version":"2.0"},"bufferViews":[{"buffer":0,"byteLength":1620,"byteOffset":0,"target":34963},{"buffer":0,"byteLength":3192,"byteOffset":1620,"target":34962},{"buffer":0,"byteLength":3192,"byteOffset":4812,"target":34962},{"buffer":0,"byteLength":2128,"byteOffset":8004,"target":34962},{"buffer":0,"byteLength":7404,"byteOffset":10132,"target":34963},{"buffer":0,"byteLength":14100,"byteOffset":17536,"target":34962},{"buffer":0,"byteLength":14100,"byteOffset":31636,"target":34962},{"buffer":0,"byteLength":9400,"byteOffset":45736,"target":34962},{"buffer":0,"byteLength":3204,"byteOffset":55136,"target":34963},{"buffer":0,"byteLength":6588,"byteOffset":58340,"target":34962},{"buffer":0,"byteLength":6588,"byteOffset":64928,"target":34962},{"buffer":0,"byteLength":4392,"byteOffset":71516,"target":34962},{"buffer":0,"byteLength":1476,"byteOffset":75908,"target":34963},{"buffer":0,"byteLength":4200,"byteOffset":77384,"target":34962},{"buffer":0,"byteLength":4200,"byteOffset":81584,"target":34962},{"buffer":0,"byteLength":2800,"byteOffset":85784,"target":34962},{"buffer":0,"byteLength":900,"byteOffset":88584,"target":34963},{"buffer":0,"byteLength":1788,"byteOffset":89484,"target":34962},{"buffer":0,"byteLength":1788,"byteOffset":91272,"target":34962},{"buffer":0,"byteLength":1192,"byteOffset":93060,"target":34962}],"buffers":[{"byteLength":94252,"uri":"Conditioner_01.bin"}],"images":[{"name":"Shelving_A","uri":"Shelving_A.tga"}],"materials":[{"alphaMode":"OPAQUE","doubleSided":false,"extras":{"fromFBX":{"isTruePBR":false,"shadingModel":"Phong"}},"name":"Shelving","pbrMetallicRoughness":{"baseColorFactor":[1,1,1,1],"baseColorTexture":{"index":0,"texCoord":0},"metallicFactor":0.400000005960464,"roughnessFactor":0.272165536880493}}],"meshes":[{"name":"Conditioner_01_LOD0","primitives":[{"attributes":{"NORMAL":2,"POSITION":1,"TEXCOORD_0":3},"indices":0,"material":0,"mode":4}]},{"name":"Conditioner_Propeller_01_LOD0","primitives":[{"attributes":{"NORMAL":6,"POSITION":5,"TEXCOORD_0":7},"indices":4,"material":0,"mode":4}]},{"name":"Conditioner_Propeller_01_LOD1","primitives":[{"attributes":{"NORMAL":10,"POSITION":9,"TEXCOORD_0":11},"indices":8,"material":0,"mode":4}]},{"name":"Conditioner_Propeller_01_LOD2","primitives":[{"attributes":{"NORMAL":14,"POSITION":13,"TEXCOORD_0":15},"indices":12,"material":0,"mode":4}]},{"name":"Conditioner_01_LOD1","primitives":[{"attributes":{"NORMAL":18,"POSITION":17,"TEXCOORD_0":19},"indices":16,"material":0,"mode":4}]}],"nodes":[{"mesh":0,"name":"Conditioner_01_LOD0","rotation":[0,0,0,1],"scale":[1,1,1],"translation":[0,0,0]},{"children":[2,3],"mesh":1,"name":"Conditioner_Propeller_01_LOD0","rotation":[0,0,0,1],"scale":[1,1,1],"translation":[-0.25503343343735,0.00671685067936778,0.00119459629058838]},{"mesh":2,"name":"Conditioner_Propeller_01_LOD1","rotation":[0,0,0,1],"scale":[1,1,1],"translation":[-0.00000007629394,0,0]},{"mesh":3,"name":"Conditioner_Propeller_01_LOD2","rotation":[0,0,0,1],"scale":[1,1,1],"translation":[-0.00000007629394,0,0]},{"mesh":4,"name":"Conditioner_01_LOD1","rotation":[0,0,0,1],"scale":[1,1,1],"translation":[0,0,0]}],"samplers":[{}],"scene":0,"scenes":[{"name":"Root Scene","nodes":[0,1,4]}],"textures":[{"name":"base_color_texture","sampler":0,"source":0}]}