{"accessors":[{"bufferView":0,"byteOffset":0,"componentType":5123,"count":3714,"type":"SCALAR"},{"bufferView":1,"byteOffset":0,"componentType":5126,"count":855,"max":[0.020799782127142,0.0260972566902637,0.342936009168625],"min":[-0.13537216186523,-0.02484563738108,-0.2950519323349],"type":"VEC3"},{"bufferView":2,"byteOffset":0,"componentType":5126,"count":855,"type":"VEC3"},{"bufferView":3,"byteOffset":0,"componentType":5126,"count":855,"type":"VEC2"},{"bufferView":4,"byteOffset":0,"componentType":5123,"count":1917,"type":"SCALAR"},{"bufferView":5,"byteOffset":0,"componentType":5126,"count":535,"max":[0.020799782127142,0.026116831228137,0.343051433563232],"min":[-0.13507907092571,-0.02484563738108,-0.29508006572723],"type":"VEC3"},{"bufferView":6,"byteOffset":0,"componentType":5126,"count":535,"type":"VEC3"},{"bufferView":7,"byteOffset":0,"componentType":5126,"count":535,"type":"VEC2"},{"bufferView":8,"byteOffset":0,"componentType":5123,"count":558,"type":"SCALAR"},{"bufferView":9,"byteOffset":0,"componentType":5126,"count":175,"max":[0.0210570860654116,0.024905351921916,0.338724046945572],"min":[-0.13540324568748,-0.02404540404677,-0.29423347115517],"type":"VEC3"},{"bufferView":10,"byteOffset":0,"componentType":5126,"count":175,"type":"VEC3"},{"bufferView":11,"byteOffset":0,"componentType":5126,"count":175,"type":"VEC2"}],"asset":{"generator":"FBX2glTF v0.13.1","version":"2.0"},"bufferViews":[{"buffer":0,"byteLength":7428,"byteOffset":0,"target":34963},{"buffer":0,"byteLength":10260,"byteOffset":7428,"target":34962},{"buffer":0,"byteLength":10260,"byteOffset":17688,"target":34962},{"buffer":0,"byteLength":6840,"byteOffset":27948,"target":34962},{"buffer":0,"byteLength":3834,"byteOffset":34788,"target":34963},{"buffer":0,"byteLength":6420,"byteOffset":38624,"target":34962},{"buffer":0,"byteLength":6420,"byteOffset":45044,"target":34962},{"buffer":0,"byteLength":4280,"byteOffset":51464,"target":34962},{"buffer":0,"byteLength":1116,"byteOffset":55744,"target":34963},{"buffer":0,"byteLength":2100,"byteOffset":56860,"target":34962},{"buffer":0,"byteLength":2100,"byteOffset":58960,"target":34962},{"buffer":0,"byteLength":1400,"byteOffset":61060,"target":34962}],"buffers":[{"byteLength":62460,"uri":"Drill.bin"}],"images":[{"name":"Surgical_Instruments_A","uri":"Surgical_Instruments_A.tga"}],"materials":[{"alphaMode":"OPAQUE","doubleSided":false,"extras":{"fromFBX":{"isTruePBR":false,"shadingModel":"Phong"}},"name":"Surgical_Instruments","pbrMetallicRoughness":{"baseColorFactor":[1,1,1,1],"baseColorTexture":{"index":0,"texCoord":0},"metallicFactor":0.400000005960464,"roughnessFactor":0.272165536880493}}],"meshes":[{"name":"Drill_LOD0","primitives":[{"attributes":{"NORMAL":2,"POSITION":1,"TEXCOORD_0":3},"indices":0,"material":0,"mode":4}]},{"name":"Drill_LOD1","primitives":[{"attributes":{"NORMAL":6,"POSITION":5,"TEXCOORD_0":7},"indices":4,"material":0,"mode":4}]},{"name":"Drill_LOD2","primitives":[{"attributes":{"NORMAL":10,"POSITION":9,"TEXCOORD_0":11},"indices":8,"material":0,"mode":4}]}],"nodes":[{"mesh":0,"name":"Drill_LOD0","rotation":[0,0,0,1],"scale":[1,1,1],"translation":[0,0,0]},{"mesh":1,"name":"Drill_LOD1","rotation":[0,0,0,1],"scale":[1,1,1],"translation":[0,0,0]},{"mesh":2,"name":"Drill_LOD2","rotation":[0,0,0,1],"scale":[1,1,1],"translation":[0,0,0]}],"samplers":[{}],"scene":0,"scenes":[{"name":"Root Scene","nodes":[0,1,2]}],"textures":[{"name":"base_color_texture","sampler":0,"source":0}]}