{"accessors":[{"bufferView":0,"byteOffset":0,"componentType":5123,"count":2238,"type":"SCALAR"},{"bufferView":1,"byteOffset":0,"componentType":5126,"count":514,"max":[0.020545145496726,0.0373759716749191,0.106271453201771],"min":[-0.02101907879114,-0.03737595304847,-0.11158572882414],"type":"VEC3"},{"bufferView":2,"byteOffset":0,"componentType":5126,"count":514,"type":"VEC3"},{"bufferView":3,"byteOffset":0,"componentType":5126,"count":514,"type":"VEC2"},{"bufferView":4,"byteOffset":0,"componentType":5123,"count":1104,"type":"SCALAR"},{"bufferView":5,"byteOffset":0,"componentType":5126,"count":266,"max":[0.020545145496726,0.0373847223818302,0.10669631510973],"min":[-0.02101907879114,-0.03738470748067,-0.11158572882414],"type":"VEC3"},{"bufferView":6,"byteOffset":0,"componentType":5126,"count":266,"type":"VEC3"},{"bufferView":7,"byteOffset":0,"componentType":5126,"count":266,"type":"VEC2"},{"bufferView":8,"byteOffset":0,"componentType":5123,"count":186,"type":"SCALAR"},{"bufferView":9,"byteOffset":0,"componentType":5126,"count":73,"max":[0.0201397035270929,0.0376466773450375,0.105379991233349],"min":[-0.02040869370103,-0.03764886781573,-0.1096008643508],"type":"VEC3"},{"bufferView":10,"byteOffset":0,"componentType":5126,"count":73,"type":"VEC3"},{"bufferView":11,"byteOffset":0,"componentType":5126,"count":73,"type":"VEC2"}],"asset":{"generator":"FBX2glTF v0.13.1","version":"2.0"},"bufferViews":[{"buffer":0,"byteLength":4476,"byteOffset":0,"target":34963},{"buffer":0,"byteLength":6168,"byteOffset":4476,"target":34962},{"buffer":0,"byteLength":6168,"byteOffset":10644,"target":34962},{"buffer":0,"byteLength":4112,"byteOffset":16812,"target":34962},{"buffer":0,"byteLength":2208,"byteOffset":20924,"target":34963},{"buffer":0,"byteLength":3192,"byteOffset":23132,"target":34962},{"buffer":0,"byteLength":3192,"byteOffset":26324,"target":34962},{"buffer":0,"byteLength":2128,"byteOffset":29516,"target":34962},{"buffer":0,"byteLength":372,"byteOffset":31644,"target":34963},{"buffer":0,"byteLength":876,"byteOffset":32016,"target":34962},{"buffer":0,"byteLength":876,"byteOffset":32892,"target":34962},{"buffer":0,"byteLength":584,"byteOffset":33768,"target":34962}],"buffers":[{"byteLength":34352,"uri":"Hammer_01.bin"}],"images":[{"name":"Surgical_Instruments_A","uri":"Surgical_Instruments_A.tga"}],"materials":[{"alphaMode":"OPAQUE","doubleSided":false,"extras":{"fromFBX":{"isTruePBR":false,"shadingModel":"Phong"}},"name":"Surgical_Instruments","pbrMetallicRoughness":{"baseColorFactor":[1,1,1,1],"baseColorTexture":{"index":0,"texCoord":0},"metallicFactor":0.400000005960464,"roughnessFactor":0.272165536880493}}],"meshes":[{"name":"Hammer_01_LOD0","primitives":[{"attributes":{"NORMAL":2,"POSITION":1,"TEXCOORD_0":3},"indices":0,"material":0,"mode":4}]},{"name":"Hammer_01_LOD1","primitives":[{"attributes":{"NORMAL":6,"POSITION":5,"TEXCOORD_0":7},"indices":4,"material":0,"mode":4}]},{"name":"Hammer_01_LOD2","primitives":[{"attributes":{"NORMAL":10,"POSITION":9,"TEXCOORD_0":11},"indices":8,"material":0,"mode":4}]}],"nodes":[{"mesh":0,"name":"Hammer_01_LOD0","rotation":[0,0,0,1],"scale":[1,1,1],"translation":[0,0,0]},{"mesh":1,"name":"Hammer_01_LOD1","rotation":[0,0,0,1],"scale":[1,1,1],"translation":[0,0,0]},{"mesh":2,"name":"Hammer_01_LOD2","rotation":[0,0,0,1],"scale":[1,1,1],"translation":[0,0,0]}],"samplers":[{}],"scene":0,"scenes":[{"name":"Root Scene","nodes":[0,1,2]}],"textures":[{"name":"base_color_texture","sampler":0,"source":0}]}