{"accessors":[{"bufferView":0,"byteOffset":0,"componentType":5123,"count":876,"type":"SCALAR"},{"bufferView":1,"byteOffset":0,"componentType":5126,"count":262,"max":[0.00808281358331442,0.0427246913313866,0.138221740722656],"min":[-0.0080870995298,-0.04878264293075,-0.10519201308489],"type":"VEC3"},{"bufferView":2,"byteOffset":0,"componentType":5126,"count":262,"type":"VEC3"},{"bufferView":3,"byteOffset":0,"componentType":5126,"count":262,"type":"VEC2"},{"bufferView":4,"byteOffset":0,"componentType":5123,"count":348,"type":"SCALAR"},{"bufferView":5,"byteOffset":0,"componentType":5126,"count":113,"max":[0.00812490098178387,0.0428893491625786,0.138221740722656],"min":[-0.00814621057361,-0.04878264293075,-0.10519202053547],"type":"VEC3"},{"bufferView":6,"byteOffset":0,"componentType":5126,"count":113,"type":"VEC3"},{"bufferView":7,"byteOffset":0,"componentType":5126,"count":113,"type":"VEC2"}],"asset":{"generator":"FBX2glTF v0.13.1","version":"2.0"},"bufferViews":[{"buffer":0,"byteLength":1752,"byteOffset":0,"target":34963},{"buffer":0,"byteLength":3144,"byteOffset":1752,"target":34962},{"buffer":0,"byteLength":3144,"byteOffset":4896,"target":34962},{"buffer":0,"byteLength":2096,"byteOffset":8040,"target":34962},{"buffer":0,"byteLength":696,"byteOffset":10136,"target":34963},{"buffer":0,"byteLength":1356,"byteOffset":10832,"target":34962},{"buffer":0,"byteLength":1356,"byteOffset":12188,"target":34962},{"buffer":0,"byteLength":904,"byteOffset":13544,"target":34962}],"buffers":[{"byteLength":14448,"uri":"Knife_01.bin"}],"images":[{"name":"Surgical_Instruments_A","uri":"Surgical_Instruments_A.tga"}],"materials":[{"alphaMode":"OPAQUE","doubleSided":false,"extras":{"fromFBX":{"isTruePBR":false,"shadingModel":"Phong"}},"name":"Surgical_Instruments","pbrMetallicRoughness":{"baseColorFactor":[1,1,1,1],"baseColorTexture":{"index":0,"texCoord":0},"metallicFactor":0.400000005960464,"roughnessFactor":0.272165536880493}}],"meshes":[{"name":"Knife_01_LOD0","primitives":[{"attributes":{"NORMAL":2,"POSITION":1,"TEXCOORD_0":3},"indices":0,"material":0,"mode":4}]},{"name":"Knife_01_LOD1","primitives":[{"attributes":{"NORMAL":6,"POSITION":5,"TEXCOORD_0":7},"indices":4,"material":0,"mode":4}]}],"nodes":[{"mesh":0,"name":"Knife_01_LOD0","rotation":[0,0,0,1],"scale":[1,1,1],"translation":[0,0,0]},{"mesh":1,"name":"Knife_01_LOD1","rotation":[0,0,0,1],"scale":[1,1,1],"translation":[0,0,0]}],"samplers":[{}],"scene":0,"scenes":[{"name":"Root Scene","nodes":[0,1]}],"textures":[{"name":"base_color_texture","sampler":0,"source":0}]}