{"accessors":[{"bufferView":0,"byteOffset":0,"componentType":5123,"count":852,"type":"SCALAR"},{"bufferView":1,"byteOffset":0,"componentType":5126,"count":259,"max":[0.0113556869328022,0.00532446056604385,0.154891774058342],"min":[-0.01247853878886,-0.00532446056604,-0.20561334490776],"type":"VEC3"},{"bufferView":2,"byteOffset":0,"componentType":5126,"count":259,"type":"VEC3"},{"bufferView":3,"byteOffset":0,"componentType":5126,"count":259,"type":"VEC2"},{"bufferView":4,"byteOffset":0,"componentType":5123,"count":432,"type":"SCALAR"},{"bufferView":5,"byteOffset":0,"componentType":5126,"count":146,"max":[0.0112706189975142,0.00532446056604385,0.155518501996994],"min":[-0.0125702386722,-0.00532446056604,-0.20595540106297],"type":"VEC3"},{"bufferView":6,"byteOffset":0,"componentType":5126,"count":146,"type":"VEC3"},{"bufferView":7,"byteOffset":0,"componentType":5126,"count":146,"type":"VEC2"}],"asset":{"generator":"FBX2glTF v0.13.1","version":"2.0"},"bufferViews":[{"buffer":0,"byteLength":1704,"byteOffset":0,"target":34963},{"buffer":0,"byteLength":3108,"byteOffset":1704,"target":34962},{"buffer":0,"byteLength":3108,"byteOffset":4812,"target":34962},{"buffer":0,"byteLength":2072,"byteOffset":7920,"target":34962},{"buffer":0,"byteLength":864,"byteOffset":9992,"target":34963},{"buffer":0,"byteLength":1752,"byteOffset":10856,"target":34962},{"buffer":0,"byteLength":1752,"byteOffset":12608,"target":34962},{"buffer":0,"byteLength":1168,"byteOffset":14360,"target":34962}],"buffers":[{"byteLength":15528,"uri":"Knife_02.bin"}],"images":[{"name":"Surgical_Instruments_A","uri":"Surgical_Instruments_A.tga"}],"materials":[{"alphaMode":"OPAQUE","doubleSided":false,"extras":{"fromFBX":{"isTruePBR":false,"shadingModel":"Phong"}},"name":"Surgical_Instruments","pbrMetallicRoughness":{"baseColorFactor":[1,1,1,1],"baseColorTexture":{"index":0,"texCoord":0},"metallicFactor":0.400000005960464,"roughnessFactor":0.272165536880493}}],"meshes":[{"name":"Knife_02_LOD0","primitives":[{"attributes":{"NORMAL":2,"POSITION":1,"TEXCOORD_0":3},"indices":0,"material":0,"mode":4}]},{"name":"Knife_02_LOD1","primitives":[{"attributes":{"NORMAL":6,"POSITION":5,"TEXCOORD_0":7},"indices":4,"material":0,"mode":4}]}],"nodes":[{"mesh":0,"name":"Knife_02_LOD0","rotation":[0,0,0,1],"scale":[1,1,1],"translation":[0,0,0]},{"mesh":1,"name":"Knife_02_LOD1","rotation":[0,0,0,1],"scale":[1,1,1],"translation":[0,0,0]}],"samplers":[{}],"scene":0,"scenes":[{"name":"Root Scene","nodes":[0,1]}],"textures":[{"name":"base_color_texture","sampler":0,"source":0}]}