{"accessors":[{"bufferView":0,"byteOffset":0,"componentType":5123,"count":756,"type":"SCALAR"},{"bufferView":1,"byteOffset":0,"componentType":5126,"count":236,"max":[0.02314293384552,0.0767054632306099,0.022971922531724],"min":[-0.02314245700836,0.00000000212834483370727,-0.02331346645951],"type":"VEC3"},{"bufferView":2,"byteOffset":0,"componentType":5126,"count":236,"type":"VEC3"},{"bufferView":3,"byteOffset":0,"componentType":5126,"count":236,"type":"VEC2"},{"bufferView":4,"byteOffset":0,"componentType":5123,"count":396,"type":"SCALAR"},{"bufferView":5,"byteOffset":0,"componentType":5126,"count":135,"max":[0.02314293384552,0.0767054706811905,0.0230493284761906],"min":[-0.02314245700836,-0.00008008253644,-0.023382762447],"type":"VEC3"},{"bufferView":6,"byteOffset":0,"componentType":5126,"count":135,"type":"VEC3"},{"bufferView":7,"byteOffset":0,"componentType":5126,"count":135,"type":"VEC2"}],"asset":{"generator":"FBX2glTF v0.13.1","version":"2.0"},"bufferViews":[{"buffer":0,"byteLength":1512,"byteOffset":0,"target":34963},{"buffer":0,"byteLength":2832,"byteOffset":1512,"target":34962},{"buffer":0,"byteLength":2832,"byteOffset":4344,"target":34962},{"buffer":0,"byteLength":1888,"byteOffset":7176,"target":34962},{"buffer":0,"byteLength":792,"byteOffset":9064,"target":34963},{"buffer":0,"byteLength":1620,"byteOffset":9856,"target":34962},{"buffer":0,"byteLength":1620,"byteOffset":11476,"target":34962},{"buffer":0,"byteLength":1080,"byteOffset":13096,"target":34962}],"buffers":[{"byteLength":14176,"uri":"Packaging_Tablets_12.bin"}],"images":[{"name":"Pills_A","uri":"Pills_A.tga"}],"materials":[{"alphaMode":"OPAQUE","doubleSided":false,"extras":{"fromFBX":{"isTruePBR":false,"shadingModel":"Phong"}},"name":"Pills","pbrMetallicRoughness":{"baseColorFactor":[1,1,1,1],"baseColorTexture":{"index":0,"texCoord":0},"metallicFactor":0.400000005960464,"roughnessFactor":0.272165536880493}}],"meshes":[{"name":"Packaging_Tablets_12_LOD0","primitives":[{"attributes":{"NORMAL":2,"POSITION":1,"TEXCOORD_0":3},"indices":0,"material":0,"mode":4}]},{"name":"Packaging_Tablets_12_LOD1","primitives":[{"attributes":{"NORMAL":6,"POSITION":5,"TEXCOORD_0":7},"indices":4,"material":0,"mode":4}]}],"nodes":[{"mesh":0,"name":"Packaging_Tablets_12_LOD0","rotation":[0,0,0,1],"scale":[1,1,1],"translation":[0,0,0]},{"mesh":1,"name":"Packaging_Tablets_12_LOD1","rotation":[0,0,0,1],"scale":[1,1,1],"translation":[0,0,0]}],"samplers":[{}],"scene":0,"scenes":[{"name":"Root Scene","nodes":[0,1]}],"textures":[{"name":"base_color_texture","sampler":0,"source":0}]}