{"accessors":[{"bufferView":0,"byteOffset":0,"componentType":5123,"count":756,"type":"SCALAR"},{"bufferView":1,"byteOffset":0,"componentType":5126,"count":236,"max":[0.0232092142105103,0.0767054632306099,0.0231576561927795],"min":[-0.02307617664337,0.00000000212834483370727,-0.0231277346611],"type":"VEC3"},{"bufferView":2,"byteOffset":0,"componentType":5126,"count":236,"type":"VEC3"},{"bufferView":3,"byteOffset":0,"componentType":5126,"count":236,"type":"VEC2"},{"bufferView":4,"byteOffset":0,"componentType":5123,"count":408,"type":"SCALAR"},{"bufferView":5,"byteOffset":0,"componentType":5126,"count":136,"max":[0.0232092142105103,0.0767054706811905,0.0232350621372461],"min":[-0.02307617664337,-0.00006688969734,-0.02320241369307],"type":"VEC3"},{"bufferView":6,"byteOffset":0,"componentType":5126,"count":136,"type":"VEC3"},{"bufferView":7,"byteOffset":0,"componentType":5126,"count":136,"type":"VEC2"}],"asset":{"generator":"FBX2glTF v0.13.1","version":"2.0"},"bufferViews":[{"buffer":0,"byteLength":1512,"byteOffset":0,"target":34963},{"buffer":0,"byteLength":2832,"byteOffset":1512,"target":34962},{"buffer":0,"byteLength":2832,"byteOffset":4344,"target":34962},{"buffer":0,"byteLength":1888,"byteOffset":7176,"target":34962},{"buffer":0,"byteLength":816,"byteOffset":9064,"target":34963},{"buffer":0,"byteLength":1632,"byteOffset":9880,"target":34962},{"buffer":0,"byteLength":1632,"byteOffset":11512,"target":34962},{"buffer":0,"byteLength":1088,"byteOffset":13144,"target":34962}],"buffers":[{"byteLength":14232,"uri":"Packaging_Tablets_11.bin"}],"images":[{"name":"Pills_A","uri":"Pills_A.tga"}],"materials":[{"alphaMode":"OPAQUE","doubleSided":false,"extras":{"fromFBX":{"isTruePBR":false,"shadingModel":"Phong"}},"name":"Pills","pbrMetallicRoughness":{"baseColorFactor":[1,1,1,1],"baseColorTexture":{"index":0,"texCoord":0},"metallicFactor":0.400000005960464,"roughnessFactor":0.272165536880493}}],"meshes":[{"name":"Packaging_Tablets_11_LOD0","primitives":[{"attributes":{"NORMAL":2,"POSITION":1,"TEXCOORD_0":3},"indices":0,"material":0,"mode":4}]},{"name":"Packaging_Tablets_11_LOD1","primitives":[{"attributes":{"NORMAL":6,"POSITION":5,"TEXCOORD_0":7},"indices":4,"material":0,"mode":4}]}],"nodes":[{"mesh":0,"name":"Packaging_Tablets_11_LOD0","rotation":[0,0,0,1],"scale":[1,1,1],"translation":[0,0,0]},{"mesh":1,"name":"Packaging_Tablets_11_LOD1","rotation":[0,0,0,1],"scale":[1,1,1],"translation":[0,0,0]}],"samplers":[{}],"scene":0,"scenes":[{"name":"Root Scene","nodes":[0,1]}],"textures":[{"name":"base_color_texture","sampler":0,"source":0}]}