{"accessors":[{"bufferView":0,"byteOffset":0,"componentType":5123,"count":756,"type":"SCALAR"},{"bufferView":1,"byteOffset":0,"componentType":5126,"count":219,"max":[0.0141775952652097,0.106354951858521,0.014094565063715],"min":[-0.01413020025939,0,-0.01421323046088],"type":"VEC3"},{"bufferView":2,"byteOffset":0,"componentType":5126,"count":219,"type":"VEC3"},{"bufferView":3,"byteOffset":0,"componentType":5126,"count":219,"type":"VEC2"},{"bufferView":4,"byteOffset":0,"componentType":5123,"count":348,"type":"SCALAR"},{"bufferView":5,"byteOffset":0,"componentType":5126,"count":105,"max":[0.0142086762934923,0.106372982263565,0.0140658337622881],"min":[-0.01413681916893,-0.00001168253311,-0.01424430683255],"type":"VEC3"},{"bufferView":6,"byteOffset":0,"componentType":5126,"count":105,"type":"VEC3"},{"bufferView":7,"byteOffset":0,"componentType":5126,"count":105,"type":"VEC2"}],"asset":{"generator":"FBX2glTF v0.13.1","version":"2.0"},"bufferViews":[{"buffer":0,"byteLength":1512,"byteOffset":0,"target":34963},{"buffer":0,"byteLength":2628,"byteOffset":1512,"target":34962},{"buffer":0,"byteLength":2628,"byteOffset":4140,"target":34962},{"buffer":0,"byteLength":1752,"byteOffset":6768,"target":34962},{"buffer":0,"byteLength":696,"byteOffset":8520,"target":34963},{"buffer":0,"byteLength":1260,"byteOffset":9216,"target":34962},{"buffer":0,"byteLength":1260,"byteOffset":10476,"target":34962},{"buffer":0,"byteLength":840,"byteOffset":11736,"target":34962}],"buffers":[{"byteLength":12576,"uri":"Packaging_Tablets_08.bin"}],"images":[{"name":"Pills_A","uri":"Pills_A.tga"}],"materials":[{"alphaMode":"OPAQUE","doubleSided":false,"extras":{"fromFBX":{"isTruePBR":false,"shadingModel":"Phong"}},"name":"Pills","pbrMetallicRoughness":{"baseColorFactor":[1,1,1,1],"baseColorTexture":{"index":0,"texCoord":0},"metallicFactor":0.400000005960464,"roughnessFactor":0.272165536880493}}],"meshes":[{"name":"Packaging_Tablets_08_LOD0","primitives":[{"attributes":{"NORMAL":2,"POSITION":1,"TEXCOORD_0":3},"indices":0,"material":0,"mode":4}]},{"name":"Packaging_Tablets_08_LOD1","primitives":[{"attributes":{"NORMAL":6,"POSITION":5,"TEXCOORD_0":7},"indices":4,"material":0,"mode":4}]}],"nodes":[{"mesh":0,"name":"Packaging_Tablets_08_LOD0","rotation":[0,0,0,1],"scale":[1,1,1],"translation":[0,0,0]},{"mesh":1,"name":"Packaging_Tablets_08_LOD1","rotation":[0,0,0,1],"scale":[1,1,1],"translation":[0,0,0]}],"samplers":[{}],"scene":0,"scenes":[{"name":"Root Scene","nodes":[0,1]}],"textures":[{"name":"base_color_texture","sampler":0,"source":0}]}