{"accessors":[{"bufferView":0,"byteOffset":0,"componentType":5123,"count":1428,"type":"SCALAR"},{"bufferView":1,"byteOffset":0,"componentType":5126,"count":338,"max":[0.0761784166097641,0.233292192220688,0.0761160999536514],"min":[-0.0760265737772,0,-0.07608889043331],"type":"VEC3"},{"bufferView":2,"byteOffset":0,"componentType":5126,"count":338,"type":"VEC3"},{"bufferView":3,"byteOffset":0,"componentType":5126,"count":338,"type":"VEC2"},{"bufferView":4,"byteOffset":0,"componentType":5123,"count":804,"type":"SCALAR"},{"bufferView":5,"byteOffset":0,"componentType":5126,"count":218,"max":[0.0761784166097641,0.230729922652245,0.0761160999536514],"min":[-0.0760265737772,0,-0.07608889043331],"type":"VEC3"},{"bufferView":6,"byteOffset":0,"componentType":5126,"count":218,"type":"VEC3"},{"bufferView":7,"byteOffset":0,"componentType":5126,"count":218,"type":"VEC2"},{"bufferView":8,"byteOffset":0,"componentType":5123,"count":426,"type":"SCALAR"},{"bufferView":9,"byteOffset":0,"componentType":5126,"count":132,"max":[0.0752667933702469,0.230328917503357,0.0763014405965805],"min":[-0.07533506304026,-0.00005691688057,-0.07627423107624],"type":"VEC3"},{"bufferView":10,"byteOffset":0,"componentType":5126,"count":132,"type":"VEC3"},{"bufferView":11,"byteOffset":0,"componentType":5126,"count":132,"type":"VEC2"}],"asset":{"generator":"FBX2glTF v0.13.1","version":"2.0"},"bufferViews":[{"buffer":0,"byteLength":2856,"byteOffset":0,"target":34963},{"buffer":0,"byteLength":4056,"byteOffset":2856,"target":34962},{"buffer":0,"byteLength":4056,"byteOffset":6912,"target":34962},{"buffer":0,"byteLength":2704,"byteOffset":10968,"target":34962},{"buffer":0,"byteLength":1608,"byteOffset":13672,"target":34963},{"buffer":0,"byteLength":2616,"byteOffset":15280,"target":34962},{"buffer":0,"byteLength":2616,"byteOffset":17896,"target":34962},{"buffer":0,"byteLength":1744,"byteOffset":20512,"target":34962},{"buffer":0,"byteLength":852,"byteOffset":22256,"target":34963},{"buffer":0,"byteLength":1584,"byteOffset":23108,"target":34962},{"buffer":0,"byteLength":1584,"byteOffset":24692,"target":34962},{"buffer":0,"byteLength":1056,"byteOffset":26276,"target":34962}],"buffers":[{"byteLength":27332,"uri":"Packaging_Tablets_06.bin"}],"images":[{"name":"Pills_A","uri":"Pills_A.tga"}],"materials":[{"alphaMode":"OPAQUE","doubleSided":false,"extras":{"fromFBX":{"isTruePBR":false,"shadingModel":"Phong"}},"name":"Pills","pbrMetallicRoughness":{"baseColorFactor":[1,1,1,1],"baseColorTexture":{"index":0,"texCoord":0},"metallicFactor":0.400000005960464,"roughnessFactor":0.272165536880493}}],"meshes":[{"name":"Packaging_Tablets_06_LOD0","primitives":[{"attributes":{"NORMAL":2,"POSITION":1,"TEXCOORD_0":3},"indices":0,"material":0,"mode":4}]},{"name":"Packaging_Tablets_06_LOD1","primitives":[{"attributes":{"NORMAL":6,"POSITION":5,"TEXCOORD_0":7},"indices":4,"material":0,"mode":4}]},{"name":"Packaging_Tablets_06_LOD2","primitives":[{"attributes":{"NORMAL":10,"POSITION":9,"TEXCOORD_0":11},"indices":8,"material":0,"mode":4}]}],"nodes":[{"mesh":0,"name":"Packaging_Tablets_06_LOD0","rotation":[0,0,0,1],"scale":[1,1,1],"translation":[0,0,0]},{"mesh":1,"name":"Packaging_Tablets_06_LOD1","rotation":[0,0,0,1],"scale":[1,1,1],"translation":[0,0,0]},{"mesh":2,"name":"Packaging_Tablets_06_LOD2","rotation":[0,0,0,1],"scale":[1,1,1],"translation":[0,0,0]}],"samplers":[{}],"scene":0,"scenes":[{"name":"Root Scene","nodes":[0,1,2]}],"textures":[{"name":"base_color_texture","sampler":0,"source":0}]}