{"accessors":[{"bufferView":0,"byteOffset":0,"componentType":5123,"count":1614,"type":"SCALAR"},{"bufferView":1,"byteOffset":0,"componentType":5126,"count":400,"max":[0.0759565234184265,0.315608650445938,0.0759812891483307],"min":[-0.07624852657318,0,-0.07622370123863],"type":"VEC3"},{"bufferView":2,"byteOffset":0,"componentType":5126,"count":400,"type":"VEC3"},{"bufferView":3,"byteOffset":0,"componentType":5126,"count":400,"type":"VEC2"},{"bufferView":4,"byteOffset":0,"componentType":5123,"count":606,"type":"SCALAR"},{"bufferView":5,"byteOffset":0,"componentType":5126,"count":189,"max":[0.0759565234184265,0.315197020769119,0.0759812891483307],"min":[-0.07624852657318,-0.00008351393626,-0.07553218305111],"type":"VEC3"},{"bufferView":6,"byteOffset":0,"componentType":5126,"count":189,"type":"VEC3"},{"bufferView":7,"byteOffset":0,"componentType":5126,"count":189,"type":"VEC2"}],"asset":{"generator":"FBX2glTF v0.13.1","version":"2.0"},"bufferViews":[{"buffer":0,"byteLength":3228,"byteOffset":0,"target":34963},{"buffer":0,"byteLength":4800,"byteOffset":3228,"target":34962},{"buffer":0,"byteLength":4800,"byteOffset":8028,"target":34962},{"buffer":0,"byteLength":3200,"byteOffset":12828,"target":34962},{"buffer":0,"byteLength":1212,"byteOffset":16028,"target":34963},{"buffer":0,"byteLength":2268,"byteOffset":17240,"target":34962},{"buffer":0,"byteLength":2268,"byteOffset":19508,"target":34962},{"buffer":0,"byteLength":1512,"byteOffset":21776,"target":34962}],"buffers":[{"byteLength":23288,"uri":"Packaging_Tablets_05.bin"}],"images":[{"name":"Pills_A","uri":"Pills_A.tga"}],"materials":[{"alphaMode":"OPAQUE","doubleSided":false,"extras":{"fromFBX":{"isTruePBR":false,"shadingModel":"Phong"}},"name":"Pills","pbrMetallicRoughness":{"baseColorFactor":[1,1,1,1],"baseColorTexture":{"index":0,"texCoord":0},"metallicFactor":0.400000005960464,"roughnessFactor":0.272165536880493}}],"meshes":[{"name":"Packaging_Tablets_05_LOD0","primitives":[{"attributes":{"NORMAL":2,"POSITION":1,"TEXCOORD_0":3},"indices":0,"material":0,"mode":4}]},{"name":"Packaging_Tablets_05_LOD1","primitives":[{"attributes":{"NORMAL":6,"POSITION":5,"TEXCOORD_0":7},"indices":4,"material":0,"mode":4}]}],"nodes":[{"mesh":0,"name":"Packaging_Tablets_05_LOD0","rotation":[0,0,0,1],"scale":[1,1,1],"translation":[0,0,0]},{"mesh":1,"name":"Packaging_Tablets_05_LOD1","rotation":[0,0,0,1],"scale":[1,1,1],"translation":[0,0,0]}],"samplers":[{}],"scene":0,"scenes":[{"name":"Root Scene","nodes":[0,1]}],"textures":[{"name":"base_color_texture","sampler":0,"source":0}]}