{"accessors":[{"bufferView":0,"byteOffset":0,"componentType":5123,"count":1236,"type":"SCALAR"},{"bufferView":1,"byteOffset":0,"componentType":5126,"count":306,"max":[0.0309392809867859,0.10135941952467,0.0307757910341024],"min":[-0.03093928098679,-0.00000000335551,-0.03110276907682],"type":"VEC3"},{"bufferView":2,"byteOffset":0,"componentType":5126,"count":306,"type":"VEC3"},{"bufferView":3,"byteOffset":0,"componentType":5126,"count":306,"type":"VEC2"},{"bufferView":4,"byteOffset":0,"componentType":5123,"count":450,"type":"SCALAR"},{"bufferView":5,"byteOffset":0,"componentType":5126,"count":130,"max":[0.0310080479830503,0.101392179727554,0.0308221746236086],"min":[-0.03102005459368,-0.00007186954463,-0.03111792169511],"type":"VEC3"},{"bufferView":6,"byteOffset":0,"componentType":5126,"count":130,"type":"VEC3"},{"bufferView":7,"byteOffset":0,"componentType":5126,"count":130,"type":"VEC2"}],"asset":{"generator":"FBX2glTF v0.13.1","version":"2.0"},"bufferViews":[{"buffer":0,"byteLength":2472,"byteOffset":0,"target":34963},{"buffer":0,"byteLength":3672,"byteOffset":2472,"target":34962},{"buffer":0,"byteLength":3672,"byteOffset":6144,"target":34962},{"buffer":0,"byteLength":2448,"byteOffset":9816,"target":34962},{"buffer":0,"byteLength":900,"byteOffset":12264,"target":34963},{"buffer":0,"byteLength":1560,"byteOffset":13164,"target":34962},{"buffer":0,"byteLength":1560,"byteOffset":14724,"target":34962},{"buffer":0,"byteLength":1040,"byteOffset":16284,"target":34962}],"buffers":[{"byteLength":17324,"uri":"Packaging_Tablets_01.bin"}],"images":[{"name":"Pills_A","uri":"Pills_A.tga"}],"materials":[{"alphaMode":"OPAQUE","doubleSided":false,"extras":{"fromFBX":{"isTruePBR":false,"shadingModel":"Phong"}},"name":"Pills","pbrMetallicRoughness":{"baseColorFactor":[1,1,1,1],"baseColorTexture":{"index":0,"texCoord":0},"metallicFactor":0.400000005960464,"roughnessFactor":0.272165536880493}}],"meshes":[{"name":"Packaging_Tablets_01_LOD0","primitives":[{"attributes":{"NORMAL":2,"POSITION":1,"TEXCOORD_0":3},"indices":0,"material":0,"mode":4}]},{"name":"Packaging_Tablets_01_LOD1","primitives":[{"attributes":{"NORMAL":6,"POSITION":5,"TEXCOORD_0":7},"indices":4,"material":0,"mode":4}]}],"nodes":[{"mesh":0,"name":"Packaging_Tablets_01_LOD0","rotation":[0,0,0,1],"scale":[1,1,1],"translation":[0,0,0]},{"mesh":1,"name":"Packaging_Tablets_01_LOD1","rotation":[0,0,0,1],"scale":[1,1,1],"translation":[0,0,0]}],"samplers":[{}],"scene":0,"scenes":[{"name":"Root Scene","nodes":[0,1]}],"textures":[{"name":"base_color_texture","sampler":0,"source":0}]}