{"accessors":[{"bufferView":0,"byteOffset":0,"componentType":5123,"count":1236,"type":"SCALAR"},{"bufferView":1,"byteOffset":0,"componentType":5126,"count":321,"max":[0.0404763221740723,0.142683520913124,0.04044059664011],"min":[-0.04055636376142,-0.00000000390999,-0.04059215635061],"type":"VEC3"},{"bufferView":2,"byteOffset":0,"componentType":5126,"count":321,"type":"VEC3"},{"bufferView":3,"byteOffset":0,"componentType":5126,"count":321,"type":"VEC2"},{"bufferView":4,"byteOffset":0,"componentType":5123,"count":384,"type":"SCALAR"},{"bufferView":5,"byteOffset":0,"componentType":5126,"count":118,"max":[0.0404763221740723,0.142736732959747,0.040022149682045],"min":[-0.04055636376142,-0.00002651582327,-0.04059215635061],"type":"VEC3"},{"bufferView":6,"byteOffset":0,"componentType":5126,"count":118,"type":"VEC3"},{"bufferView":7,"byteOffset":0,"componentType":5126,"count":118,"type":"VEC2"}],"asset":{"generator":"FBX2glTF v0.13.1","version":"2.0"},"bufferViews":[{"buffer":0,"byteLength":2472,"byteOffset":0,"target":34963},{"buffer":0,"byteLength":3852,"byteOffset":2472,"target":34962},{"buffer":0,"byteLength":3852,"byteOffset":6324,"target":34962},{"buffer":0,"byteLength":2568,"byteOffset":10176,"target":34962},{"buffer":0,"byteLength":768,"byteOffset":12744,"target":34963},{"buffer":0,"byteLength":1416,"byteOffset":13512,"target":34962},{"buffer":0,"byteLength":1416,"byteOffset":14928,"target":34962},{"buffer":0,"byteLength":944,"byteOffset":16344,"target":34962}],"buffers":[{"byteLength":17288,"uri":"Packaging_Tablets_03.bin"}],"images":[{"name":"Pills_A","uri":"Pills_A.tga"}],"materials":[{"alphaMode":"OPAQUE","doubleSided":false,"extras":{"fromFBX":{"isTruePBR":false,"shadingModel":"Phong"}},"name":"Pills","pbrMetallicRoughness":{"baseColorFactor":[1,1,1,1],"baseColorTexture":{"index":0,"texCoord":0},"metallicFactor":0.400000005960464,"roughnessFactor":0.272165536880493}}],"meshes":[{"name":"Packaging_Tablets_03_LOD0","primitives":[{"attributes":{"NORMAL":2,"POSITION":1,"TEXCOORD_0":3},"indices":0,"material":0,"mode":4}]},{"name":"Packaging_Tablets_03_LOD1","primitives":[{"attributes":{"NORMAL":6,"POSITION":5,"TEXCOORD_0":7},"indices":4,"material":0,"mode":4}]}],"nodes":[{"mesh":0,"name":"Packaging_Tablets_03_LOD0","rotation":[0,0,0,1],"scale":[1,1,1],"translation":[0,0,0]},{"mesh":1,"name":"Packaging_Tablets_03_LOD1","rotation":[0,0,0,1],"scale":[1,1,1],"translation":[0,0,0]}],"samplers":[{}],"scene":0,"scenes":[{"name":"Root Scene","nodes":[0,1]}],"textures":[{"name":"base_color_texture","sampler":0,"source":0}]}