{"accessors":[{"bufferView":0,"byteOffset":0,"componentType":5123,"count":1236,"type":"SCALAR"},{"bufferView":1,"byteOffset":0,"componentType":5126,"count":310,"max":[0.0308438297361135,0.132685929536819,0.0310147516429424],"min":[-0.03103473037481,-0.00000000335551,-0.03086380846798],"type":"VEC3"},{"bufferView":2,"byteOffset":0,"componentType":5126,"count":310,"type":"VEC3"},{"bufferView":3,"byteOffset":0,"componentType":5126,"count":310,"type":"VEC2"},{"bufferView":4,"byteOffset":0,"componentType":5123,"count":534,"type":"SCALAR"},{"bufferView":5,"byteOffset":0,"componentType":5126,"count":157,"max":[0.0308438297361135,0.132718667387962,0.0310611296445131],"min":[-0.03103473037481,-0.00002651760769,-0.03086380846798],"type":"VEC3"},{"bufferView":6,"byteOffset":0,"componentType":5126,"count":157,"type":"VEC3"},{"bufferView":7,"byteOffset":0,"componentType":5126,"count":157,"type":"VEC2"}],"asset":{"generator":"FBX2glTF v0.13.1","version":"2.0"},"bufferViews":[{"buffer":0,"byteLength":2472,"byteOffset":0,"target":34963},{"buffer":0,"byteLength":3720,"byteOffset":2472,"target":34962},{"buffer":0,"byteLength":3720,"byteOffset":6192,"target":34962},{"buffer":0,"byteLength":2480,"byteOffset":9912,"target":34962},{"buffer":0,"byteLength":1068,"byteOffset":12392,"target":34963},{"buffer":0,"byteLength":1884,"byteOffset":13460,"target":34962},{"buffer":0,"byteLength":1884,"byteOffset":15344,"target":34962},{"buffer":0,"byteLength":1256,"byteOffset":17228,"target":34962}],"buffers":[{"byteLength":18484,"uri":"Packaging_Tablets_02.bin"}],"images":[{"name":"Pills_A","uri":"Pills_A.tga"}],"materials":[{"alphaMode":"OPAQUE","doubleSided":false,"extras":{"fromFBX":{"isTruePBR":false,"shadingModel":"Phong"}},"name":"Pills","pbrMetallicRoughness":{"baseColorFactor":[1,1,1,1],"baseColorTexture":{"index":0,"texCoord":0},"metallicFactor":0.400000005960464,"roughnessFactor":0.272165536880493}}],"meshes":[{"name":"Packaging_Tablets_02_LOD0","primitives":[{"attributes":{"NORMAL":2,"POSITION":1,"TEXCOORD_0":3},"indices":0,"material":0,"mode":4}]},{"name":"Packaging_Tablets_02_LOD1","primitives":[{"attributes":{"NORMAL":6,"POSITION":5,"TEXCOORD_0":7},"indices":4,"material":0,"mode":4}]}],"nodes":[{"mesh":0,"name":"Packaging_Tablets_02_LOD0","rotation":[0,0,0,1],"scale":[1,1,1],"translation":[0,0,0]},{"mesh":1,"name":"Packaging_Tablets_02_LOD1","rotation":[0,0,0,1],"scale":[1,1,1],"translation":[0,0,0]}],"samplers":[{}],"scene":0,"scenes":[{"name":"Root Scene","nodes":[0,1]}],"textures":[{"name":"base_color_texture","sampler":0,"source":0}]}