{"accessors":[{"bufferView":0,"byteOffset":0,"componentType":5123,"count":1578,"type":"SCALAR"},{"bufferView":1,"byteOffset":0,"componentType":5126,"count":403,"max":[0.0340814590454102,0.172514110803604,0.0341006219387054],"min":[-0.03406536579132,0,-0.03404638171196],"type":"VEC3"},{"bufferView":2,"byteOffset":0,"componentType":5126,"count":403,"type":"VEC3"},{"bufferView":3,"byteOffset":0,"componentType":5126,"count":403,"type":"VEC2"},{"bufferView":4,"byteOffset":0,"componentType":5123,"count":834,"type":"SCALAR"},{"bufferView":5,"byteOffset":0,"componentType":5126,"count":225,"max":[0.0340814590454102,0.172584012150764,0.0341006219387054],"min":[-0.03406536579132,-0.0000152565899,-0.03404638171196],"type":"VEC3"},{"bufferView":6,"byteOffset":0,"componentType":5126,"count":225,"type":"VEC3"},{"bufferView":7,"byteOffset":0,"componentType":5126,"count":225,"type":"VEC2"},{"bufferView":8,"byteOffset":0,"componentType":5123,"count":372,"type":"SCALAR"},{"bufferView":9,"byteOffset":0,"componentType":5126,"count":122,"max":[0.0338800475001335,0.171956226229668,0.0341594442725182],"min":[-0.03368590027094,-0.00025098430342,-0.03318788483739],"type":"VEC3"},{"bufferView":10,"byteOffset":0,"componentType":5126,"count":122,"type":"VEC3"},{"bufferView":11,"byteOffset":0,"componentType":5126,"count":122,"type":"VEC2"}],"asset":{"generator":"FBX2glTF v0.13.1","version":"2.0"},"bufferViews":[{"buffer":0,"byteLength":3156,"byteOffset":0,"target":34963},{"buffer":0,"byteLength":4836,"byteOffset":3156,"target":34962},{"buffer":0,"byteLength":4836,"byteOffset":7992,"target":34962},{"buffer":0,"byteLength":3224,"byteOffset":12828,"target":34962},{"buffer":0,"byteLength":1668,"byteOffset":16052,"target":34963},{"buffer":0,"byteLength":2700,"byteOffset":17720,"target":34962},{"buffer":0,"byteLength":2700,"byteOffset":20420,"target":34962},{"buffer":0,"byteLength":1800,"byteOffset":23120,"target":34962},{"buffer":0,"byteLength":744,"byteOffset":24920,"target":34963},{"buffer":0,"byteLength":1464,"byteOffset":25664,"target":34962},{"buffer":0,"byteLength":1464,"byteOffset":27128,"target":34962},{"buffer":0,"byteLength":976,"byteOffset":28592,"target":34962}],"buffers":[{"byteLength":29568,"uri":"Packaging_Tablets_07.bin"}],"images":[{"name":"Pills_A","uri":"Pills_A.tga"}],"materials":[{"alphaMode":"OPAQUE","doubleSided":false,"extras":{"fromFBX":{"isTruePBR":false,"shadingModel":"Phong"}},"name":"Pills","pbrMetallicRoughness":{"baseColorFactor":[1,1,1,1],"baseColorTexture":{"index":0,"texCoord":0},"metallicFactor":0.400000005960464,"roughnessFactor":0.272165536880493}}],"meshes":[{"name":"Packaging_Tablets_07_LOD0","primitives":[{"attributes":{"NORMAL":2,"POSITION":1,"TEXCOORD_0":3},"indices":0,"material":0,"mode":4}]},{"name":"Packaging_Tablets_07_LOD1","primitives":[{"attributes":{"NORMAL":6,"POSITION":5,"TEXCOORD_0":7},"indices":4,"material":0,"mode":4}]},{"name":"Packaging_Tablets_07_LOD2","primitives":[{"attributes":{"NORMAL":10,"POSITION":9,"TEXCOORD_0":11},"indices":8,"material":0,"mode":4}]}],"nodes":[{"mesh":0,"name":"Packaging_Tablets_07_LOD0","rotation":[0,0,0,1],"scale":[1,1,1],"translation":[0,0,0]},{"mesh":1,"name":"Packaging_Tablets_07_LOD1","rotation":[0,0,0,1],"scale":[1,1,1],"translation":[0,0,0]},{"mesh":2,"name":"Packaging_Tablets_07_LOD2","rotation":[0,0,0,1],"scale":[1,1,1],"translation":[0,0,0]}],"samplers":[{}],"scene":0,"scenes":[{"name":"Root Scene","nodes":[0,1,2]}],"textures":[{"name":"base_color_texture","sampler":0,"source":0}]}