{"accessors":[{"bufferView":0,"byteOffset":0,"componentType":5123,"count":1044,"type":"SCALAR"},{"bufferView":1,"byteOffset":0,"componentType":5126,"count":236,"max":[0.0177781581878662,0.0696817114949226,0.0178980845957994],"min":[-0.01792961359024,0.00000000212834483370727,-0.01780962757766],"type":"VEC3"},{"bufferView":2,"byteOffset":0,"componentType":5126,"count":236,"type":"VEC3"},{"bufferView":3,"byteOffset":0,"componentType":5126,"count":236,"type":"VEC2"},{"bufferView":4,"byteOffset":0,"componentType":5123,"count":408,"type":"SCALAR"},{"bufferView":5,"byteOffset":0,"componentType":5126,"count":107,"max":[0.0177781581878662,0.0696817189455032,0.0179248470813036],"min":[-0.01792961359024,-0.00005188734212,-0.01777054183185],"type":"VEC3"},{"bufferView":6,"byteOffset":0,"componentType":5126,"count":107,"type":"VEC3"},{"bufferView":7,"byteOffset":0,"componentType":5126,"count":107,"type":"VEC2"}],"asset":{"generator":"FBX2glTF v0.13.1","version":"2.0"},"bufferViews":[{"buffer":0,"byteLength":2088,"byteOffset":0,"target":34963},{"buffer":0,"byteLength":2832,"byteOffset":2088,"target":34962},{"buffer":0,"byteLength":2832,"byteOffset":4920,"target":34962},{"buffer":0,"byteLength":1888,"byteOffset":7752,"target":34962},{"buffer":0,"byteLength":816,"byteOffset":9640,"target":34963},{"buffer":0,"byteLength":1284,"byteOffset":10456,"target":34962},{"buffer":0,"byteLength":1284,"byteOffset":11740,"target":34962},{"buffer":0,"byteLength":856,"byteOffset":13024,"target":34962}],"buffers":[{"byteLength":13880,"uri":"Packaging_Tablets_10.bin"}],"images":[{"name":"Pills_A","uri":"Pills_A.tga"}],"materials":[{"alphaMode":"OPAQUE","doubleSided":false,"extras":{"fromFBX":{"isTruePBR":false,"shadingModel":"Phong"}},"name":"Pills","pbrMetallicRoughness":{"baseColorFactor":[1,1,1,1],"baseColorTexture":{"index":0,"texCoord":0},"metallicFactor":0.400000005960464,"roughnessFactor":0.272165536880493}}],"meshes":[{"name":"Packaging_Tablets_10_LOD0","primitives":[{"attributes":{"NORMAL":2,"POSITION":1,"TEXCOORD_0":3},"indices":0,"material":0,"mode":4}]},{"name":"Packaging_Tablets_10_LOD1","primitives":[{"attributes":{"NORMAL":6,"POSITION":5,"TEXCOORD_0":7},"indices":4,"material":0,"mode":4}]}],"nodes":[{"mesh":0,"name":"Packaging_Tablets_10_LOD0","rotation":[0,0,0,1],"scale":[1,1,1],"translation":[0,0,0]},{"mesh":1,"name":"Packaging_Tablets_10_LOD1","rotation":[0,0,0,1],"scale":[1,1,1],"translation":[0,0,0]}],"samplers":[{}],"scene":0,"scenes":[{"name":"Root Scene","nodes":[0,1]}],"textures":[{"name":"base_color_texture","sampler":0,"source":0}]}