{"accessors":[{"bufferView":0,"byteOffset":0,"componentType":5123,"count":1236,"type":"SCALAR"},{"bufferView":1,"byteOffset":0,"componentType":5126,"count":321,"max":[0.0221933666616678,0.0885111689567566,0.0220322720706463],"min":[-0.02219397202134,-0.00000000214178,-0.02235506661236],"type":"VEC3"},{"bufferView":2,"byteOffset":0,"componentType":5126,"count":321,"type":"VEC3"},{"bufferView":3,"byteOffset":0,"componentType":5126,"count":321,"type":"VEC2"},{"bufferView":4,"byteOffset":0,"componentType":5123,"count":480,"type":"SCALAR"},{"bufferView":5,"byteOffset":0,"componentType":5126,"count":142,"max":[0.0221933666616678,0.0885446891188622,0.0220322720706463],"min":[-0.02219397202134,-0.00001936104309,-0.02235506661236],"type":"VEC3"},{"bufferView":6,"byteOffset":0,"componentType":5126,"count":142,"type":"VEC3"},{"bufferView":7,"byteOffset":0,"componentType":5126,"count":142,"type":"VEC2"}],"asset":{"generator":"FBX2glTF v0.13.1","version":"2.0"},"bufferViews":[{"buffer":0,"byteLength":2472,"byteOffset":0,"target":34963},{"buffer":0,"byteLength":3852,"byteOffset":2472,"target":34962},{"buffer":0,"byteLength":3852,"byteOffset":6324,"target":34962},{"buffer":0,"byteLength":2568,"byteOffset":10176,"target":34962},{"buffer":0,"byteLength":960,"byteOffset":12744,"target":34963},{"buffer":0,"byteLength":1704,"byteOffset":13704,"target":34962},{"buffer":0,"byteLength":1704,"byteOffset":15408,"target":34962},{"buffer":0,"byteLength":1136,"byteOffset":17112,"target":34962}],"buffers":[{"byteLength":18248,"uri":"Packaging_Tablets_04.bin"}],"images":[{"name":"Pills_A","uri":"Pills_A.tga"}],"materials":[{"alphaMode":"OPAQUE","doubleSided":false,"extras":{"fromFBX":{"isTruePBR":false,"shadingModel":"Phong"}},"name":"Pills","pbrMetallicRoughness":{"baseColorFactor":[1,1,1,1],"baseColorTexture":{"index":0,"texCoord":0},"metallicFactor":0.400000005960464,"roughnessFactor":0.272165536880493}}],"meshes":[{"name":"Packaging_Tablets_04_LOD0","primitives":[{"attributes":{"NORMAL":2,"POSITION":1,"TEXCOORD_0":3},"indices":0,"material":0,"mode":4}]},{"name":"Packaging_Tablets_04_LOD1","primitives":[{"attributes":{"NORMAL":6,"POSITION":5,"TEXCOORD_0":7},"indices":4,"material":0,"mode":4}]}],"nodes":[{"mesh":0,"name":"Packaging_Tablets_04_LOD0","rotation":[0,0,0,1],"scale":[1,1,1],"translation":[0,0,0]},{"mesh":1,"name":"Packaging_Tablets_04_LOD1","rotation":[0,0,0,1],"scale":[1,1,1],"translation":[0,0,0]}],"samplers":[{}],"scene":0,"scenes":[{"name":"Root Scene","nodes":[0,1]}],"textures":[{"name":"base_color_texture","sampler":0,"source":0}]}