{"accessors":[{"bufferView":0,"byteOffset":0,"componentType":5123,"count":8412,"type":"SCALAR"},{"bufferView":1,"byteOffset":0,"componentType":5126,"count":2580,"max":[0.135130405426025,0.00912404432892799,0.155057430267334],"min":[-0.20415650308132,-0.00000929986709,-0.16420571506023],"type":"VEC3"},{"bufferView":2,"byteOffset":0,"componentType":5126,"count":2580,"type":"VEC3"},{"bufferView":3,"byteOffset":0,"componentType":5126,"count":2580,"type":"VEC2"},{"bufferView":4,"byteOffset":0,"componentType":5123,"count":4398,"type":"SCALAR"},{"bufferView":5,"byteOffset":0,"componentType":5126,"count":1554,"max":[0.135130405426025,0.00913419295102358,0.155057430267334],"min":[-0.20415650308132,-0.00001945110307,-0.16420571506023],"type":"VEC3"},{"bufferView":6,"byteOffset":0,"componentType":5126,"count":1554,"type":"VEC3"},{"bufferView":7,"byteOffset":0,"componentType":5126,"count":1554,"type":"VEC2"},{"bufferView":8,"byteOffset":0,"componentType":5123,"count":1740,"type":"SCALAR"},{"bufferView":9,"byteOffset":0,"componentType":5126,"count":1069,"max":[0.135130405426025,0.00940397661179304,0.155057430267334],"min":[-0.20415650308132,-0.00028778248816,-0.16420571506023],"type":"VEC3"},{"bufferView":10,"byteOffset":0,"componentType":5126,"count":1069,"type":"VEC3"},{"bufferView":11,"byteOffset":0,"componentType":5126,"count":1069,"type":"VEC2"}],"asset":{"generator":"FBX2glTF v0.13.1","version":"2.0"},"bufferViews":[{"buffer":0,"byteLength":16824,"byteOffset":0,"target":34963},{"buffer":0,"byteLength":30960,"byteOffset":16824,"target":34962},{"buffer":0,"byteLength":30960,"byteOffset":47784,"target":34962},{"buffer":0,"byteLength":20640,"byteOffset":78744,"target":34962},{"buffer":0,"byteLength":8796,"byteOffset":99384,"target":34963},{"buffer":0,"byteLength":18648,"byteOffset":108180,"target":34962},{"buffer":0,"byteLength":18648,"byteOffset":126828,"target":34962},{"buffer":0,"byteLength":12432,"byteOffset":145476,"target":34962},{"buffer":0,"byteLength":3480,"byteOffset":157908,"target":34963},{"buffer":0,"byteLength":12828,"byteOffset":161388,"target":34962},{"buffer":0,"byteLength":12828,"byteOffset":174216,"target":34962},{"buffer":0,"byteLength":8552,"byteOffset":187044,"target":34962}],"buffers":[{"byteLength":195596,"uri":"Pills_01.bin"}],"images":[{"name":"Pills_A","uri":"Pills_A.tga"}],"materials":[{"alphaMode":"OPAQUE","doubleSided":false,"extras":{"fromFBX":{"isTruePBR":false,"shadingModel":"Phong"}},"name":"Pills","pbrMetallicRoughness":{"baseColorFactor":[1,1,1,1],"baseColorTexture":{"index":0,"texCoord":0},"metallicFactor":0.400000005960464,"roughnessFactor":0.272165536880493}}],"meshes":[{"name":"Pills_01_LOD0","primitives":[{"attributes":{"NORMAL":2,"POSITION":1,"TEXCOORD_0":3},"indices":0,"material":0,"mode":4}]},{"name":"Pills_01_LOD1","primitives":[{"attributes":{"NORMAL":6,"POSITION":5,"TEXCOORD_0":7},"indices":4,"material":0,"mode":4}]},{"name":"Pills_01_LOD2","primitives":[{"attributes":{"NORMAL":10,"POSITION":9,"TEXCOORD_0":11},"indices":8,"material":0,"mode":4}]}],"nodes":[{"mesh":0,"name":"Pills_01_LOD0","rotation":[0,0,0,1],"scale":[1,1,1],"translation":[0,0,0]},{"mesh":1,"name":"Pills_01_LOD1","rotation":[0,0,0,1],"scale":[1,1,1],"translation":[0,0,0]},{"mesh":2,"name":"Pills_01_LOD2","rotation":[0,0,0,1],"scale":[1,1,1],"translation":[0,0,0]}],"samplers":[{}],"scene":0,"scenes":[{"name":"Root Scene","nodes":[0,1,2]}],"textures":[{"name":"base_color_texture","sampler":0,"source":0}]}