{"accessors":[{"bufferView":0,"byteOffset":0,"componentType":5123,"count":2874,"type":"SCALAR"},{"bufferView":1,"byteOffset":0,"componentType":5126,"count":816,"max":[0.0182476453483105,0.0933597907423973,0.271950483322144],"min":[-0.01322059798986,-0.06796552240849,-0.20308820903301],"type":"VEC3"},{"bufferView":2,"byteOffset":0,"componentType":5126,"count":816,"type":"VEC3"},{"bufferView":3,"byteOffset":0,"componentType":5126,"count":816,"type":"VEC2"},{"bufferView":4,"byteOffset":0,"componentType":5123,"count":1260,"type":"SCALAR"},{"bufferView":5,"byteOffset":0,"componentType":5126,"count":431,"max":[0.0180882178246975,0.0933597907423973,0.271950483322144],"min":[-0.01305420696735,-0.06830320507288,-0.20309273898601],"type":"VEC3"},{"bufferView":6,"byteOffset":0,"componentType":5126,"count":431,"type":"VEC3"},{"bufferView":7,"byteOffset":0,"componentType":5126,"count":431,"type":"VEC2"},{"bufferView":8,"byteOffset":0,"componentType":5123,"count":717,"type":"SCALAR"},{"bufferView":9,"byteOffset":0,"componentType":5126,"count":246,"max":[0.00622331257909536,0.0927199423313141,0.27121701836586],"min":[-0.00615803757682,-0.06764017790556,-0.20309273898601],"type":"VEC3"},{"bufferView":10,"byteOffset":0,"componentType":5126,"count":246,"type":"VEC3"},{"bufferView":11,"byteOffset":0,"componentType":5126,"count":246,"type":"VEC2"}],"asset":{"generator":"FBX2glTF v0.13.1","version":"2.0"},"bufferViews":[{"buffer":0,"byteLength":5748,"byteOffset":0,"target":34963},{"buffer":0,"byteLength":9792,"byteOffset":5748,"target":34962},{"buffer":0,"byteLength":9792,"byteOffset":15540,"target":34962},{"buffer":0,"byteLength":6528,"byteOffset":25332,"target":34962},{"buffer":0,"byteLength":2520,"byteOffset":31860,"target":34963},{"buffer":0,"byteLength":5172,"byteOffset":34380,"target":34962},{"buffer":0,"byteLength":5172,"byteOffset":39552,"target":34962},{"buffer":0,"byteLength":3448,"byteOffset":44724,"target":34962},{"buffer":0,"byteLength":1434,"byteOffset":48172,"target":34963},{"buffer":0,"byteLength":2952,"byteOffset":49608,"target":34962},{"buffer":0,"byteLength":2952,"byteOffset":52560,"target":34962},{"buffer":0,"byteLength":1968,"byteOffset":55512,"target":34962}],"buffers":[{"byteLength":57480,"uri":"Saw.bin"}],"images":[{"name":"Surgical_Instruments_A","uri":"Surgical_Instruments_A.tga"}],"materials":[{"alphaMode":"OPAQUE","doubleSided":false,"extras":{"fromFBX":{"isTruePBR":false,"shadingModel":"Phong"}},"name":"Surgical_Instruments","pbrMetallicRoughness":{"baseColorFactor":[1,1,1,1],"baseColorTexture":{"index":0,"texCoord":0},"metallicFactor":0.400000005960464,"roughnessFactor":0.272165536880493}}],"meshes":[{"name":"Saw_LOD0","primitives":[{"attributes":{"NORMAL":2,"POSITION":1,"TEXCOORD_0":3},"indices":0,"material":0,"mode":4}]},{"name":"Saw_LOD1","primitives":[{"attributes":{"NORMAL":6,"POSITION":5,"TEXCOORD_0":7},"indices":4,"material":0,"mode":4}]},{"name":"Saw_LOD2","primitives":[{"attributes":{"NORMAL":10,"POSITION":9,"TEXCOORD_0":11},"indices":8,"material":0,"mode":4}]}],"nodes":[{"mesh":0,"name":"Saw_LOD0","rotation":[0,0,0,1],"scale":[1,1,1],"translation":[0,0,0]},{"mesh":1,"name":"Saw_LOD1","rotation":[0,0,0,1],"scale":[1,1,1],"translation":[0,0,0]},{"mesh":2,"name":"Saw_LOD2","rotation":[0,0,0,1],"scale":[1,1,1],"translation":[0,0,0]}],"samplers":[{}],"scene":0,"scenes":[{"name":"Root Scene","nodes":[0,1,2]}],"textures":[{"name":"base_color_texture","sampler":0,"source":0}]}