{"accessors":[{"bufferView":0,"byteOffset":0,"componentType":5123,"count":438,"type":"SCALAR"},{"bufferView":1,"byteOffset":0,"componentType":5126,"count":148,"max":[0.00796649884432554,0.00232739071361721,0.168514892458916],"min":[-0.01050707884133,-0.00232739071362,-0.16890631616116],"type":"VEC3"},{"bufferView":2,"byteOffset":0,"componentType":5126,"count":148,"type":"VEC3"},{"bufferView":3,"byteOffset":0,"componentType":5126,"count":148,"type":"VEC2"},{"bufferView":4,"byteOffset":0,"componentType":5123,"count":216,"type":"SCALAR"},{"bufferView":5,"byteOffset":0,"componentType":5126,"count":80,"max":[0.00796649884432554,0.00232739071361721,0.16830712556839],"min":[-0.01008766982704,-0.00232739071362,-0.1689939647913],"type":"VEC3"},{"bufferView":6,"byteOffset":0,"componentType":5126,"count":80,"type":"VEC3"},{"bufferView":7,"byteOffset":0,"componentType":5126,"count":80,"type":"VEC2"}],"asset":{"generator":"FBX2glTF v0.13.1","version":"2.0"},"bufferViews":[{"buffer":0,"byteLength":876,"byteOffset":0,"target":34963},{"buffer":0,"byteLength":1776,"byteOffset":876,"target":34962},{"buffer":0,"byteLength":1776,"byteOffset":2652,"target":34962},{"buffer":0,"byteLength":1184,"byteOffset":4428,"target":34962},{"buffer":0,"byteLength":432,"byteOffset":5612,"target":34963},{"buffer":0,"byteLength":960,"byteOffset":6044,"target":34962},{"buffer":0,"byteLength":960,"byteOffset":7004,"target":34962},{"buffer":0,"byteLength":640,"byteOffset":7964,"target":34962}],"buffers":[{"byteLength":8604,"uri":"Scalpel.bin"}],"images":[{"name":"Surgical_Instruments_A","uri":"Surgical_Instruments_A.tga"}],"materials":[{"alphaMode":"OPAQUE","doubleSided":false,"extras":{"fromFBX":{"isTruePBR":false,"shadingModel":"Phong"}},"name":"Surgical_Instruments","pbrMetallicRoughness":{"baseColorFactor":[1,1,1,1],"baseColorTexture":{"index":0,"texCoord":0},"metallicFactor":0.400000005960464,"roughnessFactor":0.272165536880493}}],"meshes":[{"name":"Scalpel_LOD0","primitives":[{"attributes":{"NORMAL":2,"POSITION":1,"TEXCOORD_0":3},"indices":0,"material":0,"mode":4}]},{"name":"Scalpel_LOD1","primitives":[{"attributes":{"NORMAL":6,"POSITION":5,"TEXCOORD_0":7},"indices":4,"material":0,"mode":4}]}],"nodes":[{"mesh":0,"name":"Scalpel_LOD0","rotation":[0,0,0,1],"scale":[1,1,1],"translation":[0,0,0]},{"mesh":1,"name":"Scalpel_LOD1","rotation":[0,0,0,1],"scale":[1,1,1],"translation":[0,0,0]}],"samplers":[{}],"scene":0,"scenes":[{"name":"Root Scene","nodes":[0,1]}],"textures":[{"name":"base_color_texture","sampler":0,"source":0}]}