{"accessors":[{"bufferView":0,"byteOffset":0,"componentType":5123,"count":726,"type":"SCALAR"},{"bufferView":1,"byteOffset":0,"componentType":5126,"count":252,"max":[0.00382554531097412,0.119558423757553,0.0455735996365547],"min":[-0.00191748142242,-0.15333449840546,-0.00864491052926],"type":"VEC3"},{"bufferView":2,"byteOffset":0,"componentType":5126,"count":252,"type":"VEC3"},{"bufferView":3,"byteOffset":0,"componentType":5126,"count":252,"type":"VEC2"},{"bufferView":4,"byteOffset":0,"componentType":5123,"count":354,"type":"SCALAR"},{"bufferView":5,"byteOffset":0,"componentType":5126,"count":136,"max":[0.00393998390063643,0.119992949068546,0.0453918129205704],"min":[-0.00191749015357,-0.15335351228714,-0.00864491052926],"type":"VEC3"},{"bufferView":6,"byteOffset":0,"componentType":5126,"count":136,"type":"VEC3"},{"bufferView":7,"byteOffset":0,"componentType":5126,"count":136,"type":"VEC2"},{"bufferView":8,"byteOffset":0,"componentType":5123,"count":726,"type":"SCALAR"},{"bufferView":9,"byteOffset":0,"componentType":5126,"count":252,"max":[0.00382554531097412,0.119558423757553,0.0455735996365547],"min":[-0.00191748142242,-0.15333449840546,-0.00864491052926],"type":"VEC3"},{"bufferView":10,"byteOffset":0,"componentType":5126,"count":252,"type":"VEC3"},{"bufferView":11,"byteOffset":0,"componentType":5126,"count":252,"type":"VEC2"},{"bufferView":12,"byteOffset":0,"componentType":5123,"count":354,"type":"SCALAR"},{"bufferView":13,"byteOffset":0,"componentType":5126,"count":136,"max":[0.00393998390063643,0.119992949068546,0.0453918129205704],"min":[-0.00191749015357,-0.15335351228714,-0.00864491052926],"type":"VEC3"},{"bufferView":14,"byteOffset":0,"componentType":5126,"count":136,"type":"VEC3"},{"bufferView":15,"byteOffset":0,"componentType":5126,"count":136,"type":"VEC2"}],"asset":{"generator":"FBX2glTF v0.13.1","version":"2.0"},"bufferViews":[{"buffer":0,"byteLength":1452,"byteOffset":0,"target":34963},{"buffer":0,"byteLength":3024,"byteOffset":1452,"target":34962},{"buffer":0,"byteLength":3024,"byteOffset":4476,"target":34962},{"buffer":0,"byteLength":2016,"byteOffset":7500,"target":34962},{"buffer":0,"byteLength":708,"byteOffset":9516,"target":34963},{"buffer":0,"byteLength":1632,"byteOffset":10224,"target":34962},{"buffer":0,"byteLength":1632,"byteOffset":11856,"target":34962},{"buffer":0,"byteLength":1088,"byteOffset":13488,"target":34962},{"buffer":0,"byteLength":1452,"byteOffset":14576,"target":34963},{"buffer":0,"byteLength":3024,"byteOffset":16028,"target":34962},{"buffer":0,"byteLength":3024,"byteOffset":19052,"target":34962},{"buffer":0,"byteLength":2016,"byteOffset":22076,"target":34962},{"buffer":0,"byteLength":708,"byteOffset":24092,"target":34963},{"buffer":0,"byteLength":1632,"byteOffset":24800,"target":34962},{"buffer":0,"byteLength":1632,"byteOffset":26432,"target":34962},{"buffer":0,"byteLength":1088,"byteOffset":28064,"target":34962}],"buffers":[{"byteLength":29152,"uri":"Scissors_02.bin"}],"images":[{"name":"Surgical_Instruments_A","uri":"Surgical_Instruments_A.tga"}],"materials":[{"alphaMode":"OPAQUE","doubleSided":false,"extras":{"fromFBX":{"isTruePBR":false,"shadingModel":"Phong"}},"name":"Surgical_Instruments","pbrMetallicRoughness":{"baseColorFactor":[1,1,1,1],"baseColorTexture":{"index":0,"texCoord":0},"metallicFactor":0.400000005960464,"roughnessFactor":0.272165536880493}}],"meshes":[{"name":"Scissors_01_LOD0","primitives":[{"attributes":{"NORMAL":2,"POSITION":1,"TEXCOORD_0":3},"indices":0,"material":0,"mode":4}]},{"name":"Scissors_01_LOD1","primitives":[{"attributes":{"NORMAL":6,"POSITION":5,"TEXCOORD_0":7},"indices":4,"material":0,"mode":4}]},{"name":"Scissors_02_LOD0","primitives":[{"attributes":{"NORMAL":10,"POSITION":9,"TEXCOORD_0":11},"indices":8,"material":0,"mode":4}]},{"name":"Scissors_02_LOD1","primitives":[{"attributes":{"NORMAL":14,"POSITION":13,"TEXCOORD_0":15},"indices":12,"material":0,"mode":4}]}],"nodes":[{"children":[1],"mesh":0,"name":"Scissors_01_LOD0","rotation":[0,0,0,1],"scale":[1,1,1],"translation":[0,0,0]},{"mesh":1,"name":"Scissors_01_LOD1","rotation":[0,0,0,1],"scale":[1,1,1],"translation":[0,0,0]},{"children":[3],"mesh":2,"name":"Scissors_02_LOD0","rotation":[0.0000000000000000612323492467033,1,0.0000000000000000612323492467033,-0.00000019470718],"scale":[1,1,1],"translation":[0,0,0]},{"mesh":3,"name":"Scissors_02_LOD1","rotation":[-0,0.0000000000000181898936288828,0.00000000000000000000000000000001,1],"scale":[1,1,1],"translation":[0,0,0]}],"samplers":[{}],"scene":0,"scenes":[{"name":"Root Scene","nodes":[0,2]}],"textures":[{"name":"base_color_texture","sampler":0,"source":0}]}