{"accessors":[{"bufferView":0,"byteOffset":0,"componentType":5123,"count":792,"type":"SCALAR"},{"bufferView":1,"byteOffset":0,"componentType":5126,"count":520,"max":[0.217879846692085,1.60270309448242,1.04499959945679],"min":[-0.22377467155457,0,-1.04499959945679],"type":"VEC3"},{"bufferView":2,"byteOffset":0,"componentType":5126,"count":520,"type":"VEC3"},{"bufferView":3,"byteOffset":0,"componentType":5126,"count":520,"type":"VEC2"},{"bufferView":4,"byteOffset":0,"componentType":5123,"count":522,"type":"SCALAR"},{"bufferView":5,"byteOffset":0,"componentType":5126,"count":360,"max":[0.217879861593246,1.60270309448242,1.04499959945679],"min":[-0.22377470135689,0.0000438469214714132,-1.04499959945679],"type":"VEC3"},{"bufferView":6,"byteOffset":0,"componentType":5126,"count":360,"type":"VEC3"},{"bufferView":7,"byteOffset":0,"componentType":5126,"count":360,"type":"VEC2"}],"asset":{"generator":"FBX2glTF v0.13.1","version":"2.0"},"bufferViews":[{"buffer":0,"byteLength":1584,"byteOffset":0,"target":34963},{"buffer":0,"byteLength":6240,"byteOffset":1584,"target":34962},{"buffer":0,"byteLength":6240,"byteOffset":7824,"target":34962},{"buffer":0,"byteLength":4160,"byteOffset":14064,"target":34962},{"buffer":0,"byteLength":1044,"byteOffset":18224,"target":34963},{"buffer":0,"byteLength":4320,"byteOffset":19268,"target":34962},{"buffer":0,"byteLength":4320,"byteOffset":23588,"target":34962},{"buffer":0,"byteLength":2880,"byteOffset":27908,"target":34962}],"buffers":[{"byteLength":30788,"uri":"Shelving.bin"}],"images":[{"name":"Shelving_A","uri":"Shelving_A.tga"}],"materials":[{"alphaMode":"OPAQUE","doubleSided":false,"extras":{"fromFBX":{"isTruePBR":false,"shadingModel":"Phong"}},"name":"Shelving","pbrMetallicRoughness":{"baseColorFactor":[1,1,1,1],"baseColorTexture":{"index":0,"texCoord":0},"metallicFactor":0.400000005960464,"roughnessFactor":0.272165536880493}}],"meshes":[{"name":"Shelving_01_LOD0","primitives":[{"attributes":{"NORMAL":2,"POSITION":1,"TEXCOORD_0":3},"indices":0,"material":0,"mode":4}]},{"name":"Shelving_01_LOD1","primitives":[{"attributes":{"NORMAL":6,"POSITION":5,"TEXCOORD_0":7},"indices":4,"material":0,"mode":4}]}],"nodes":[{"mesh":0,"name":"Shelving_01_LOD0","rotation":[0,0,0,1],"scale":[1,1,1],"translation":[0,0,0]},{"mesh":1,"name":"Shelving_01_LOD1","rotation":[0,0,0,1],"scale":[1,1,1],"translation":[0,0,0]}],"samplers":[{}],"scene":0,"scenes":[{"name":"Root Scene","nodes":[0,1]}],"textures":[{"name":"base_color_texture","sampler":0,"source":0}]}