{"accessors":[{"bufferView":0,"byteOffset":0,"componentType":5123,"count":5883,"type":"SCALAR"},{"bufferView":1,"byteOffset":0,"componentType":5126,"count":1983,"max":[0.143193915486336,0.326140403747559,0.236218079924583],"min":[-0.26986667513847,-0.00189229182433,-0.23621791601181],"type":"VEC3"},{"bufferView":2,"byteOffset":0,"componentType":5126,"count":1983,"type":"VEC3"},{"bufferView":3,"byteOffset":0,"componentType":5126,"count":1983,"type":"VEC2"},{"bufferView":4,"byteOffset":0,"componentType":5123,"count":3054,"type":"SCALAR"},{"bufferView":5,"byteOffset":0,"componentType":5126,"count":1123,"max":[0.143193930387497,0.326140403747559,0.236218079924583],"min":[-0.26999112963677,-0.00189229182433,-0.23621791601181],"type":"VEC3"},{"bufferView":6,"byteOffset":0,"componentType":5126,"count":1123,"type":"VEC3"},{"bufferView":7,"byteOffset":0,"componentType":5126,"count":1123,"type":"VEC2"},{"bufferView":8,"byteOffset":0,"componentType":5123,"count":1179,"type":"SCALAR"},{"bufferView":9,"byteOffset":0,"componentType":5126,"count":613,"max":[0.143196538090706,0.327143728733063,0.233457997441292],"min":[-0.27021905779839,0.00088390498422086,-0.233457878232],"type":"VEC3"},{"bufferView":10,"byteOffset":0,"componentType":5126,"count":613,"type":"VEC3"},{"bufferView":11,"byteOffset":0,"componentType":5126,"count":613,"type":"VEC2"}],"asset":{"generator":"FBX2glTF v0.13.1","version":"2.0"},"bufferViews":[{"buffer":0,"byteLength":11766,"byteOffset":0,"target":34963},{"buffer":0,"byteLength":23796,"byteOffset":11768,"target":34962},{"buffer":0,"byteLength":23796,"byteOffset":35564,"target":34962},{"buffer":0,"byteLength":15864,"byteOffset":59360,"target":34962},{"buffer":0,"byteLength":6108,"byteOffset":75224,"target":34963},{"buffer":0,"byteLength":13476,"byteOffset":81332,"target":34962},{"buffer":0,"byteLength":13476,"byteOffset":94808,"target":34962},{"buffer":0,"byteLength":8984,"byteOffset":108284,"target":34962},{"buffer":0,"byteLength":2358,"byteOffset":117268,"target":34963},{"buffer":0,"byteLength":7356,"byteOffset":119628,"target":34962},{"buffer":0,"byteLength":7356,"byteOffset":126984,"target":34962},{"buffer":0,"byteLength":4904,"byteOffset":134340,"target":34962}],"buffers":[{"byteLength":139244,"uri":"Surgical_Devices_03.bin"}],"images":[{"name":"Surgical_Devices_A","uri":"Surgical_Devices_A.tga"}],"materials":[{"alphaMode":"OPAQUE","doubleSided":false,"extras":{"fromFBX":{"isTruePBR":false,"shadingModel":"Phong"}},"name":"Surgical_Devices","pbrMetallicRoughness":{"baseColorFactor":[1,1,1,1],"baseColorTexture":{"index":0,"texCoord":0},"metallicFactor":0.400000005960464,"roughnessFactor":0.272165536880493}}],"meshes":[{"name":"Surgical_Devices_03_LOD0","primitives":[{"attributes":{"NORMAL":2,"POSITION":1,"TEXCOORD_0":3},"indices":0,"material":0,"mode":4}]},{"name":"Surgical_Devices_03_LOD1","primitives":[{"attributes":{"NORMAL":6,"POSITION":5,"TEXCOORD_0":7},"indices":4,"material":0,"mode":4}]},{"name":"Surgical_Devices_03_LOD2","primitives":[{"attributes":{"NORMAL":10,"POSITION":9,"TEXCOORD_0":11},"indices":8,"material":0,"mode":4}]}],"nodes":[{"mesh":0,"name":"Surgical_Devices_03_LOD0","rotation":[0,0,0,1],"scale":[1,1,1],"translation":[0,0,0]},{"mesh":1,"name":"Surgical_Devices_03_LOD1","rotation":[0,0,0,1],"scale":[1,1,1],"translation":[0,0,0]},{"mesh":2,"name":"Surgical_Devices_03_LOD2","rotation":[0,0,0,1],"scale":[1,1,1],"translation":[0,0,0]}],"samplers":[{}],"scene":0,"scenes":[{"name":"Root Scene","nodes":[0,1,2]}],"textures":[{"name":"base_color_texture","sampler":0,"source":0}]}