{"accessors":[{"bufferView":0,"byteOffset":0,"componentType":5123,"count":6042,"type":"SCALAR"},{"bufferView":1,"byteOffset":0,"componentType":5126,"count":1465,"max":[0.224529430270195,0.189287960529327,0.227596759796143],"min":[-0.22452948987484,-0.0000000250358,-0.22671294212341],"type":"VEC3"},{"bufferView":2,"byteOffset":0,"componentType":5126,"count":1465,"type":"VEC3"},{"bufferView":3,"byteOffset":0,"componentType":5126,"count":1465,"type":"VEC2"},{"bufferView":4,"byteOffset":0,"componentType":5123,"count":2412,"type":"SCALAR"},{"bufferView":5,"byteOffset":0,"componentType":5126,"count":713,"max":[0.223167285323143,0.18929959833622,0.227323710918427],"min":[-0.22316497564316,-0.00003158994878,-0.22644004225731],"type":"VEC3"},{"bufferView":6,"byteOffset":0,"componentType":5126,"count":713,"type":"VEC3"},{"bufferView":7,"byteOffset":0,"componentType":5126,"count":713,"type":"VEC2"},{"bufferView":8,"byteOffset":0,"componentType":5123,"count":408,"type":"SCALAR"},{"bufferView":9,"byteOffset":0,"componentType":5126,"count":147,"max":[0.222481593489647,0.191811248660088,0.223932564258575],"min":[-0.22206974029541,0.00248248456045985,-0.22328276932239],"type":"VEC3"},{"bufferView":10,"byteOffset":0,"componentType":5126,"count":147,"type":"VEC3"},{"bufferView":11,"byteOffset":0,"componentType":5126,"count":147,"type":"VEC2"}],"asset":{"generator":"FBX2glTF v0.13.1","version":"2.0"},"bufferViews":[{"buffer":0,"byteLength":12084,"byteOffset":0,"target":34963},{"buffer":0,"byteLength":17580,"byteOffset":12084,"target":34962},{"buffer":0,"byteLength":17580,"byteOffset":29664,"target":34962},{"buffer":0,"byteLength":11720,"byteOffset":47244,"target":34962},{"buffer":0,"byteLength":4824,"byteOffset":58964,"target":34963},{"buffer":0,"byteLength":8556,"byteOffset":63788,"target":34962},{"buffer":0,"byteLength":8556,"byteOffset":72344,"target":34962},{"buffer":0,"byteLength":5704,"byteOffset":80900,"target":34962},{"buffer":0,"byteLength":816,"byteOffset":86604,"target":34963},{"buffer":0,"byteLength":1764,"byteOffset":87420,"target":34962},{"buffer":0,"byteLength":1764,"byteOffset":89184,"target":34962},{"buffer":0,"byteLength":1176,"byteOffset":90948,"target":34962}],"buffers":[{"byteLength":92124,"uri":"Surgical_Box_01.bin"}],"images":[{"name":"Surgical_Box_A","uri":"Surgical_Box_A.tga"}],"materials":[{"alphaMode":"OPAQUE","doubleSided":false,"extras":{"fromFBX":{"isTruePBR":false,"shadingModel":"Phong"}},"name":"Surgical_Box","pbrMetallicRoughness":{"baseColorFactor":[1,1,1,1],"baseColorTexture":{"index":0,"texCoord":0},"metallicFactor":0.400000005960464,"roughnessFactor":0.272165536880493}}],"meshes":[{"name":"Surgical_Box_01_LOD0","primitives":[{"attributes":{"NORMAL":2,"POSITION":1,"TEXCOORD_0":3},"indices":0,"material":0,"mode":4}]},{"name":"Surgical_Box_01_LOD1","primitives":[{"attributes":{"NORMAL":6,"POSITION":5,"TEXCOORD_0":7},"indices":4,"material":0,"mode":4}]},{"name":"Surgical_Box_01_LOD2","primitives":[{"attributes":{"NORMAL":10,"POSITION":9,"TEXCOORD_0":11},"indices":8,"material":0,"mode":4}]}],"nodes":[{"mesh":0,"name":"Surgical_Box_01_LOD0","rotation":[0,0,0,1],"scale":[1,1,1],"translation":[0,0,0]},{"mesh":1,"name":"Surgical_Box_01_LOD1","rotation":[0,0,0,1],"scale":[1,1,1],"translation":[0,0,0]},{"mesh":2,"name":"Surgical_Box_01_LOD2","rotation":[0,0,0,1],"scale":[1,1,1],"translation":[0,0,0]}],"samplers":[{}],"scene":0,"scenes":[{"name":"Root Scene","nodes":[0,1,2]}],"textures":[{"name":"base_color_texture","sampler":0,"source":0}]}