{"accessors":[{"bufferView":0,"byteOffset":0,"componentType":5123,"count":8598,"type":"SCALAR"},{"bufferView":1,"byteOffset":0,"componentType":5126,"count":2400,"max":[0.303762525320053,0.919519186019897,0.414566993713379],"min":[-0.29086539149284,-0.00124545767903,-0.40954053401947],"type":"VEC3"},{"bufferView":2,"byteOffset":0,"componentType":5126,"count":2400,"type":"VEC3"},{"bufferView":3,"byteOffset":0,"componentType":5126,"count":2400,"type":"VEC2"},{"bufferView":4,"byteOffset":0,"componentType":5123,"count":4269,"type":"SCALAR"},{"bufferView":5,"byteOffset":0,"componentType":5126,"count":1376,"max":[0.303830713033676,0.919597387313843,0.41426408290863],"min":[-0.29087251424789,-0.00124545767903,-0.40968981385231],"type":"VEC3"},{"bufferView":6,"byteOffset":0,"componentType":5126,"count":1376,"type":"VEC3"},{"bufferView":7,"byteOffset":0,"componentType":5126,"count":1376,"type":"VEC2"},{"bufferView":8,"byteOffset":0,"componentType":5123,"count":1098,"type":"SCALAR"},{"bufferView":9,"byteOffset":0,"componentType":5126,"count":562,"max":[0.296531796455383,0.920096397399902,0.414290070533752],"min":[-0.29033213853836,-0.00124545767903,-0.40897604823112],"type":"VEC3"},{"bufferView":10,"byteOffset":0,"componentType":5126,"count":562,"type":"VEC3"},{"bufferView":11,"byteOffset":0,"componentType":5126,"count":562,"type":"VEC2"}],"asset":{"generator":"FBX2glTF v0.13.1","version":"2.0"},"bufferViews":[{"buffer":0,"byteLength":17196,"byteOffset":0,"target":34963},{"buffer":0,"byteLength":28800,"byteOffset":17196,"target":34962},{"buffer":0,"byteLength":28800,"byteOffset":45996,"target":34962},{"buffer":0,"byteLength":19200,"byteOffset":74796,"target":34962},{"buffer":0,"byteLength":8538,"byteOffset":93996,"target":34963},{"buffer":0,"byteLength":16512,"byteOffset":102536,"target":34962},{"buffer":0,"byteLength":16512,"byteOffset":119048,"target":34962},{"buffer":0,"byteLength":11008,"byteOffset":135560,"target":34962},{"buffer":0,"byteLength":2196,"byteOffset":146568,"target":34963},{"buffer":0,"byteLength":6744,"byteOffset":148764,"target":34962},{"buffer":0,"byteLength":6744,"byteOffset":155508,"target":34962},{"buffer":0,"byteLength":4496,"byteOffset":162252,"target":34962}],"buffers":[{"byteLength":166748,"uri":"Surgical_Bedside_Table.bin"}],"images":[{"name":"Shelving_A","uri":"Shelving_A.tga"}],"materials":[{"alphaMode":"OPAQUE","doubleSided":false,"extras":{"fromFBX":{"isTruePBR":false,"shadingModel":"Phong"}},"name":"Shelving","pbrMetallicRoughness":{"baseColorFactor":[1,1,1,1],"baseColorTexture":{"index":0,"texCoord":0},"metallicFactor":0.400000005960464,"roughnessFactor":0.272165536880493}}],"meshes":[{"name":"Surgical_Bedside_Table_LOD0","primitives":[{"attributes":{"NORMAL":2,"POSITION":1,"TEXCOORD_0":3},"indices":0,"material":0,"mode":4}]},{"name":"Surgical_Bedside_Table_LOD1","primitives":[{"attributes":{"NORMAL":6,"POSITION":5,"TEXCOORD_0":7},"indices":4,"material":0,"mode":4}]},{"name":"Surgical_Bedside_Table_LOD2","primitives":[{"attributes":{"NORMAL":10,"POSITION":9,"TEXCOORD_0":11},"indices":8,"material":0,"mode":4}]}],"nodes":[{"mesh":0,"name":"Surgical_Bedside_Table_LOD0","rotation":[0,0,0,1],"scale":[1,1,1],"translation":[0,0,0]},{"mesh":1,"name":"Surgical_Bedside_Table_LOD1","rotation":[0,0,0,1],"scale":[1,1,1],"translation":[0,0,0]},{"mesh":2,"name":"Surgical_Bedside_Table_LOD2","rotation":[0,0,0,1],"scale":[1,1,1],"translation":[0,0,0]}],"samplers":[{}],"scene":0,"scenes":[{"name":"Root Scene","nodes":[0,1,2]}],"textures":[{"name":"base_color_texture","sampler":0,"source":0}]}