{"accessors":[{"bufferView":0,"byteOffset":0,"componentType":5123,"count":1278,"type":"SCALAR"},{"bufferView":1,"byteOffset":0,"componentType":5126,"count":588,"max":[0.335933268070221,0.239772364497185,0.251212805509567],"min":[-0.07825806736946,-0.00103944540024,-0.25121280550957],"type":"VEC3"},{"bufferView":2,"byteOffset":0,"componentType":5126,"count":588,"type":"VEC3"},{"bufferView":3,"byteOffset":0,"componentType":5126,"count":588,"type":"VEC2"},{"bufferView":4,"byteOffset":0,"componentType":5123,"count":876,"type":"SCALAR"},{"bufferView":5,"byteOffset":0,"componentType":5126,"count":478,"max":[0.335933268070221,0.239772364497185,0.251212805509567],"min":[-0.07825806736946,-0.00103944540024,-0.25121280550957],"type":"VEC3"},{"bufferView":6,"byteOffset":0,"componentType":5126,"count":478,"type":"VEC3"},{"bufferView":7,"byteOffset":0,"componentType":5126,"count":478,"type":"VEC2"}],"asset":{"generator":"FBX2glTF v0.13.1","version":"2.0"},"bufferViews":[{"buffer":0,"byteLength":2556,"byteOffset":0,"target":34963},{"buffer":0,"byteLength":7056,"byteOffset":2556,"target":34962},{"buffer":0,"byteLength":7056,"byteOffset":9612,"target":34962},{"buffer":0,"byteLength":4704,"byteOffset":16668,"target":34962},{"buffer":0,"byteLength":1752,"byteOffset":21372,"target":34963},{"buffer":0,"byteLength":5736,"byteOffset":23124,"target":34962},{"buffer":0,"byteLength":5736,"byteOffset":28860,"target":34962},{"buffer":0,"byteLength":3824,"byteOffset":34596,"target":34962}],"buffers":[{"byteLength":38420,"uri":"Surgical_Devices_01.bin"}],"images":[{"name":"Surgical_Devices_A","uri":"Surgical_Devices_A.tga"}],"materials":[{"alphaMode":"OPAQUE","doubleSided":false,"extras":{"fromFBX":{"isTruePBR":false,"shadingModel":"Phong"}},"name":"Surgical_Devices","pbrMetallicRoughness":{"baseColorFactor":[1,1,1,1],"baseColorTexture":{"index":0,"texCoord":0},"metallicFactor":0.400000005960464,"roughnessFactor":0.272165536880493}}],"meshes":[{"name":"Surgical_Devices_01_LOD0","primitives":[{"attributes":{"NORMAL":2,"POSITION":1,"TEXCOORD_0":3},"indices":0,"material":0,"mode":4}]},{"name":"Surgical_Devices_01_LOD1","primitives":[{"attributes":{"NORMAL":6,"POSITION":5,"TEXCOORD_0":7},"indices":4,"material":0,"mode":4}]}],"nodes":[{"mesh":0,"name":"Surgical_Devices_01_LOD0","rotation":[0,0,0,1],"scale":[1,1,1],"translation":[0,0,0]},{"mesh":1,"name":"Surgical_Devices_01_LOD1","rotation":[0,0,0,1],"scale":[1,1,1],"translation":[0,0,0]}],"samplers":[{}],"scene":0,"scenes":[{"name":"Root Scene","nodes":[0,1]}],"textures":[{"name":"base_color_texture","sampler":0,"source":0}]}