{"accessors":[{"bufferView":0,"byteOffset":0,"componentType":5123,"count":5808,"type":"SCALAR"},{"bufferView":1,"byteOffset":0,"componentType":5126,"count":1561,"max":[0.203663647174835,0.180249109864235,0.307520121335983],"min":[-0.20366370677948,-0.0000000311805,-0.30549955368042],"type":"VEC3"},{"bufferView":2,"byteOffset":0,"componentType":5126,"count":1561,"type":"VEC3"},{"bufferView":3,"byteOffset":0,"componentType":5126,"count":1561,"type":"VEC2"},{"bufferView":4,"byteOffset":0,"componentType":5123,"count":1818,"type":"SCALAR"},{"bufferView":5,"byteOffset":0,"componentType":5126,"count":754,"max":[0.202027603983879,0.180372208356857,0.307295203208923],"min":[-0.20202766358852,-0.00007001184713,-0.30527380108833],"type":"VEC3"},{"bufferView":6,"byteOffset":0,"componentType":5126,"count":754,"type":"VEC3"},{"bufferView":7,"byteOffset":0,"componentType":5126,"count":754,"type":"VEC2"},{"bufferView":8,"byteOffset":0,"componentType":5123,"count":522,"type":"SCALAR"},{"bufferView":9,"byteOffset":0,"componentType":5126,"count":206,"max":[0.199804320931435,0.175566032528877,0.305151969194412],"min":[-0.19980439543724,0.00257258233614266,-0.30408477783203],"type":"VEC3"},{"bufferView":10,"byteOffset":0,"componentType":5126,"count":206,"type":"VEC3"},{"bufferView":11,"byteOffset":0,"componentType":5126,"count":206,"type":"VEC2"}],"asset":{"generator":"FBX2glTF v0.13.1","version":"2.0"},"bufferViews":[{"buffer":0,"byteLength":11616,"byteOffset":0,"target":34963},{"buffer":0,"byteLength":18732,"byteOffset":11616,"target":34962},{"buffer":0,"byteLength":18732,"byteOffset":30348,"target":34962},{"buffer":0,"byteLength":12488,"byteOffset":49080,"target":34962},{"buffer":0,"byteLength":3636,"byteOffset":61568,"target":34963},{"buffer":0,"byteLength":9048,"byteOffset":65204,"target":34962},{"buffer":0,"byteLength":9048,"byteOffset":74252,"target":34962},{"buffer":0,"byteLength":6032,"byteOffset":83300,"target":34962},{"buffer":0,"byteLength":1044,"byteOffset":89332,"target":34963},{"buffer":0,"byteLength":2472,"byteOffset":90376,"target":34962},{"buffer":0,"byteLength":2472,"byteOffset":92848,"target":34962},{"buffer":0,"byteLength":1648,"byteOffset":95320,"target":34962}],"buffers":[{"byteLength":96968,"uri":"Surgical_Box_02.bin"}],"images":[{"name":"Surgical_Box_A","uri":"Surgical_Box_A.tga"}],"materials":[{"alphaMode":"OPAQUE","doubleSided":false,"extras":{"fromFBX":{"isTruePBR":false,"shadingModel":"Phong"}},"name":"Surgical_Box","pbrMetallicRoughness":{"baseColorFactor":[1,1,1,1],"baseColorTexture":{"index":0,"texCoord":0},"metallicFactor":0.400000005960464,"roughnessFactor":0.272165536880493}}],"meshes":[{"name":"Surgical_Box_02_LOD0","primitives":[{"attributes":{"NORMAL":2,"POSITION":1,"TEXCOORD_0":3},"indices":0,"material":0,"mode":4}]},{"name":"Surgical_Box_02_LOD1","primitives":[{"attributes":{"NORMAL":6,"POSITION":5,"TEXCOORD_0":7},"indices":4,"material":0,"mode":4}]},{"name":"Surgical_Box_02_LOD2","primitives":[{"attributes":{"NORMAL":10,"POSITION":9,"TEXCOORD_0":11},"indices":8,"material":0,"mode":4}]}],"nodes":[{"mesh":0,"name":"Surgical_Box_02_LOD0","rotation":[0,0,0,1],"scale":[1,1,1],"translation":[0,0,0]},{"mesh":1,"name":"Surgical_Box_02_LOD1","rotation":[0,0,0,1],"scale":[1,1,1],"translation":[0,0,0]},{"mesh":2,"name":"Surgical_Box_02_LOD2","rotation":[0,0,0,1],"scale":[1,1,1],"translation":[0,0,0]}],"samplers":[{}],"scene":0,"scenes":[{"name":"Root Scene","nodes":[0,1,2]}],"textures":[{"name":"base_color_texture","sampler":0,"source":0}]}