{"accessors":[{"bufferView":0,"byteOffset":0,"componentType":5123,"count":1722,"type":"SCALAR"},{"bufferView":1,"byteOffset":0,"componentType":5126,"count":462,"max":[0.163548022508621,0.298269808292389,0.193657979369164],"min":[-0.17692096531391,-0.00083601474762,-0.19967661798],"type":"VEC3"},{"bufferView":2,"byteOffset":0,"componentType":5126,"count":462,"type":"VEC3"},{"bufferView":3,"byteOffset":0,"componentType":5126,"count":462,"type":"VEC2"},{"bufferView":4,"byteOffset":0,"componentType":5123,"count":900,"type":"SCALAR"},{"bufferView":5,"byteOffset":0,"componentType":5126,"count":267,"max":[0.163548022508621,0.297526568174362,0.192952215671539],"min":[-0.17692096531391,-0.0001302271412,-0.19897082448006],"type":"VEC3"},{"bufferView":6,"byteOffset":0,"componentType":5126,"count":267,"type":"VEC3"},{"bufferView":7,"byteOffset":0,"componentType":5126,"count":267,"type":"VEC2"},{"bufferView":8,"byteOffset":0,"componentType":5123,"count":534,"type":"SCALAR"},{"bufferView":9,"byteOffset":0,"componentType":5126,"count":196,"max":[0.163548022508621,0.297487735748291,0.192875921726227],"min":[-0.17692096531391,-0.00013020896586,-0.19897082448006],"type":"VEC3"},{"bufferView":10,"byteOffset":0,"componentType":5126,"count":196,"type":"VEC3"},{"bufferView":11,"byteOffset":0,"componentType":5126,"count":196,"type":"VEC2"}],"asset":{"generator":"FBX2glTF v0.13.1","version":"2.0"},"bufferViews":[{"buffer":0,"byteLength":3444,"byteOffset":0,"target":34963},{"buffer":0,"byteLength":5544,"byteOffset":3444,"target":34962},{"buffer":0,"byteLength":5544,"byteOffset":8988,"target":34962},{"buffer":0,"byteLength":3696,"byteOffset":14532,"target":34962},{"buffer":0,"byteLength":1800,"byteOffset":18228,"target":34963},{"buffer":0,"byteLength":3204,"byteOffset":20028,"target":34962},{"buffer":0,"byteLength":3204,"byteOffset":23232,"target":34962},{"buffer":0,"byteLength":2136,"byteOffset":26436,"target":34962},{"buffer":0,"byteLength":1068,"byteOffset":28572,"target":34963},{"buffer":0,"byteLength":2352,"byteOffset":29640,"target":34962},{"buffer":0,"byteLength":2352,"byteOffset":31992,"target":34962},{"buffer":0,"byteLength":1568,"byteOffset":34344,"target":34962}],"buffers":[{"byteLength":35912,"uri":"Surgical_Devices_02.bin"}],"images":[{"name":"Surgical_Devices_A","uri":"Surgical_Devices_A.tga"}],"materials":[{"alphaMode":"OPAQUE","doubleSided":false,"extras":{"fromFBX":{"isTruePBR":false,"shadingModel":"Phong"}},"name":"Surgical_Devices","pbrMetallicRoughness":{"baseColorFactor":[1,1,1,1],"baseColorTexture":{"index":0,"texCoord":0},"metallicFactor":0.400000005960464,"roughnessFactor":0.272165536880493}}],"meshes":[{"name":"Surgical_Devices_02_LOD0","primitives":[{"attributes":{"NORMAL":2,"POSITION":1,"TEXCOORD_0":3},"indices":0,"material":0,"mode":4}]},{"name":"Surgical_Devices_02_LOD1","primitives":[{"attributes":{"NORMAL":6,"POSITION":5,"TEXCOORD_0":7},"indices":4,"material":0,"mode":4}]},{"name":"Surgical_Devices_02_LOD2","primitives":[{"attributes":{"NORMAL":10,"POSITION":9,"TEXCOORD_0":11},"indices":8,"material":0,"mode":4}]}],"nodes":[{"mesh":0,"name":"Surgical_Devices_02_LOD0","rotation":[0,0,0,1],"scale":[1,1,1],"translation":[0,0,0]},{"mesh":1,"name":"Surgical_Devices_02_LOD1","rotation":[0,0,0,1],"scale":[1,1,1],"translation":[0,0,0]},{"mesh":2,"name":"Surgical_Devices_02_LOD2","rotation":[0,0,0,1],"scale":[1,1,1],"translation":[0,0,0]}],"samplers":[{}],"scene":0,"scenes":[{"name":"Root Scene","nodes":[0,1,2]}],"textures":[{"name":"base_color_texture","sampler":0,"source":0}]}