{"accessors":[{"bufferView":0,"byteOffset":0,"componentType":5123,"count":3756,"type":"SCALAR"},{"bufferView":1,"byteOffset":0,"componentType":5126,"count":934,"max":[0.165164947509766,0.162419736385345,0.267837584018707],"min":[-0.17936913669109,0,-0.26783758401871],"type":"VEC3"},{"bufferView":2,"byteOffset":0,"componentType":5126,"count":934,"type":"VEC3"},{"bufferView":3,"byteOffset":0,"componentType":5126,"count":934,"type":"VEC2"},{"bufferView":4,"byteOffset":0,"componentType":5123,"count":1701,"type":"SCALAR"},{"bufferView":5,"byteOffset":0,"componentType":5126,"count":545,"max":[0.164686426520348,0.162419736385345,0.267357468605042],"min":[-0.17924658954143,0.00016916054300963,-0.26735904812813],"type":"VEC3"},{"bufferView":6,"byteOffset":0,"componentType":5126,"count":545,"type":"VEC3"},{"bufferView":7,"byteOffset":0,"componentType":5126,"count":545,"type":"VEC2"},{"bufferView":8,"byteOffset":0,"componentType":5123,"count":660,"type":"SCALAR"},{"bufferView":9,"byteOffset":0,"componentType":5126,"count":260,"max":[0.163569211959839,0.161421731114388,0.266219943761826],"min":[-0.17621432244778,0.00010774452675832,-0.26623520255089],"type":"VEC3"},{"bufferView":10,"byteOffset":0,"componentType":5126,"count":260,"type":"VEC3"},{"bufferView":11,"byteOffset":0,"componentType":5126,"count":260,"type":"VEC2"}],"asset":{"generator":"FBX2glTF v0.13.1","version":"2.0"},"bufferViews":[{"buffer":0,"byteLength":7512,"byteOffset":0,"target":34963},{"buffer":0,"byteLength":11208,"byteOffset":7512,"target":34962},{"buffer":0,"byteLength":11208,"byteOffset":18720,"target":34962},{"buffer":0,"byteLength":7472,"byteOffset":29928,"target":34962},{"buffer":0,"byteLength":3402,"byteOffset":37400,"target":34963},{"buffer":0,"byteLength":6540,"byteOffset":40804,"target":34962},{"buffer":0,"byteLength":6540,"byteOffset":47344,"target":34962},{"buffer":0,"byteLength":4360,"byteOffset":53884,"target":34962},{"buffer":0,"byteLength":1320,"byteOffset":58244,"target":34963},{"buffer":0,"byteLength":3120,"byteOffset":59564,"target":34962},{"buffer":0,"byteLength":3120,"byteOffset":62684,"target":34962},{"buffer":0,"byteLength":2080,"byteOffset":65804,"target":34962}],"buffers":[{"byteLength":67884,"uri":"Surgical_Box_03.bin"}],"images":[{"name":"Surgical_Box_A","uri":"Surgical_Box_A.tga"}],"materials":[{"alphaMode":"OPAQUE","doubleSided":false,"extras":{"fromFBX":{"isTruePBR":false,"shadingModel":"Phong"}},"name":"Surgical_Box","pbrMetallicRoughness":{"baseColorFactor":[1,1,1,1],"baseColorTexture":{"index":0,"texCoord":0},"metallicFactor":0.400000005960464,"roughnessFactor":0.272165536880493}}],"meshes":[{"name":"Surgical_Box_03_LOD0","primitives":[{"attributes":{"NORMAL":2,"POSITION":1,"TEXCOORD_0":3},"indices":0,"material":0,"mode":4}]},{"name":"Surgical_Box_03_LOD1","primitives":[{"attributes":{"NORMAL":6,"POSITION":5,"TEXCOORD_0":7},"indices":4,"material":0,"mode":4}]},{"name":"Surgical_Box_03_LOD2","primitives":[{"attributes":{"NORMAL":10,"POSITION":9,"TEXCOORD_0":11},"indices":8,"material":0,"mode":4}]}],"nodes":[{"mesh":0,"name":"Surgical_Box_03_LOD0","rotation":[0,0,0,1],"scale":[1,1,1],"translation":[0,0,0]},{"mesh":1,"name":"Surgical_Box_03_LOD1","rotation":[0,0,0,1],"scale":[1,1,1],"translation":[0,0,0]},{"mesh":2,"name":"Surgical_Box_03_LOD2","rotation":[0,0,0,1],"scale":[1,1,1],"translation":[0,0,0]}],"samplers":[{}],"scene":0,"scenes":[{"name":"Root Scene","nodes":[0,1,2]}],"textures":[{"name":"base_color_texture","sampler":0,"source":0}]}