{"accessors":[{"bufferView":0,"byteOffset":0,"componentType":5123,"count":16806,"type":"SCALAR"},{"bufferView":1,"byteOffset":0,"componentType":5126,"count":4493,"max":[0.375817626714706,0.843634724617004,1.06918025016785],"min":[-0.41130971908569,-0.00614082906395,-1.06586718559265],"type":"VEC3"},{"bufferView":2,"byteOffset":0,"componentType":5126,"count":4493,"type":"VEC3"},{"bufferView":3,"byteOffset":0,"componentType":5126,"count":4493,"type":"VEC2"},{"bufferView":4,"byteOffset":0,"componentType":5123,"count":8286,"type":"SCALAR"},{"bufferView":5,"byteOffset":0,"componentType":5126,"count":2655,"max":[0.375817626714706,0.843623399734497,1.06918025016785],"min":[-0.41130971908569,-0.00614082906395,-1.06586718559265],"type":"VEC3"},{"bufferView":6,"byteOffset":0,"componentType":5126,"count":2655,"type":"VEC3"},{"bufferView":7,"byteOffset":0,"componentType":5126,"count":2655,"type":"VEC2"},{"bufferView":8,"byteOffset":0,"componentType":5123,"count":1695,"type":"SCALAR"},{"bufferView":9,"byteOffset":0,"componentType":5126,"count":853,"max":[0.375817626714706,0.843263447284698,1.05519938468933],"min":[-0.37582737207413,0.00082141597522422,-1.06586718559265],"type":"VEC3"},{"bufferView":10,"byteOffset":0,"componentType":5126,"count":853,"type":"VEC3"},{"bufferView":11,"byteOffset":0,"componentType":5126,"count":853,"type":"VEC2"},{"bufferView":12,"byteOffset":0,"componentType":5123,"count":669,"type":"SCALAR"},{"bufferView":13,"byteOffset":0,"componentType":5126,"count":372,"max":[0.375817626714706,0.829101920127869,1.05519938468933],"min":[-0.37582737207413,-0.00226916093379,-1.05461525917053],"type":"VEC3"},{"bufferView":14,"byteOffset":0,"componentType":5126,"count":372,"type":"VEC3"},{"bufferView":15,"byteOffset":0,"componentType":5126,"count":372,"type":"VEC2"}],"asset":{"generator":"FBX2glTF v0.13.1","version":"2.0"},"bufferViews":[{"buffer":0,"byteLength":33612,"byteOffset":0,"target":34963},{"buffer":0,"byteLength":53916,"byteOffset":33612,"target":34962},{"buffer":0,"byteLength":53916,"byteOffset":87528,"target":34962},{"buffer":0,"byteLength":35944,"byteOffset":141444,"target":34962},{"buffer":0,"byteLength":16572,"byteOffset":177388,"target":34963},{"buffer":0,"byteLength":31860,"byteOffset":193960,"target":34962},{"buffer":0,"byteLength":31860,"byteOffset":225820,"target":34962},{"buffer":0,"byteLength":21240,"byteOffset":257680,"target":34962},{"buffer":0,"byteLength":3390,"byteOffset":278920,"target":34963},{"buffer":0,"byteLength":10236,"byteOffset":282312,"target":34962},{"buffer":0,"byteLength":10236,"byteOffset":292548,"target":34962},{"buffer":0,"byteLength":6824,"byteOffset":302784,"target":34962},{"buffer":0,"byteLength":1338,"byteOffset":309608,"target":34963},{"buffer":0,"byteLength":4464,"byteOffset":310948,"target":34962},{"buffer":0,"byteLength":4464,"byteOffset":315412,"target":34962},{"buffer":0,"byteLength":2976,"byteOffset":319876,"target":34962}],"buffers":[{"byteLength":322852,"uri":"Surgical_Table_02.bin"}],"images":[{"name":"Surgical_Table_A","uri":"Surgical_Table_A.tga"}],"materials":[{"alphaMode":"OPAQUE","doubleSided":false,"extras":{"fromFBX":{"isTruePBR":false,"shadingModel":"Phong"}},"name":"Surgical_Table","pbrMetallicRoughness":{"baseColorFactor":[1,1,1,1],"baseColorTexture":{"index":0,"texCoord":0},"metallicFactor":0.400000005960464,"roughnessFactor":0.272165536880493}}],"meshes":[{"name":"Surgical_Table_02_LOD0","primitives":[{"attributes":{"NORMAL":2,"POSITION":1,"TEXCOORD_0":3},"indices":0,"material":0,"mode":4}]},{"name":"Surgical_Table_02_LOD1","primitives":[{"attributes":{"NORMAL":6,"POSITION":5,"TEXCOORD_0":7},"indices":4,"material":0,"mode":4}]},{"name":"Surgical_Table_02_LOD2","primitives":[{"attributes":{"NORMAL":10,"POSITION":9,"TEXCOORD_0":11},"indices":8,"material":0,"mode":4}]},{"name":"Surgical_Table_02_LOD3","primitives":[{"attributes":{"NORMAL":14,"POSITION":13,"TEXCOORD_0":15},"indices":12,"material":0,"mode":4}]}],"nodes":[{"mesh":0,"name":"Surgical_Table_02_LOD0","rotation":[0,0,0,1],"scale":[1,1,1],"translation":[0,0,0]},{"mesh":1,"name":"Surgical_Table_02_LOD1","rotation":[0,0,0,1],"scale":[1,1,1],"translation":[0,0,0]},{"mesh":2,"name":"Surgical_Table_02_LOD2","rotation":[0,0,0,1],"scale":[1,1,1],"translation":[0,0,0]},{"mesh":3,"name":"Surgical_Table_02_LOD3","rotation":[0,0,0,1],"scale":[1,1,1],"translation":[0,0,0]}],"samplers":[{}],"scene":0,"scenes":[{"name":"Root Scene","nodes":[0,1,2,3]}],"textures":[{"name":"base_color_texture","sampler":0,"source":0}]}