{"accessors":[{"bufferView":0,"byteOffset":0,"componentType":5123,"count":11607,"type":"SCALAR"},{"bufferView":1,"byteOffset":0,"componentType":5126,"count":3305,"max":[1.5003399848938,0.00828170776367188,0.632460296154022],"min":[-0.39622592926025,-2.32512426376343,-0.62764126062393],"type":"VEC3"},{"bufferView":2,"byteOffset":0,"componentType":5126,"count":3305,"type":"VEC3"},{"bufferView":3,"byteOffset":0,"componentType":5126,"count":3305,"type":"VEC2"},{"bufferView":4,"byteOffset":0,"componentType":5123,"count":6069,"type":"SCALAR"},{"bufferView":5,"byteOffset":0,"componentType":5126,"count":1991,"max":[1.49989473819733,0.00828170776367188,0.632646977901459],"min":[-0.39622592926025,-2.32518982887268,-0.62782800197601],"type":"VEC3"},{"bufferView":6,"byteOffset":0,"componentType":5126,"count":1991,"type":"VEC3"},{"bufferView":7,"byteOffset":0,"componentType":5126,"count":1991,"type":"VEC2"},{"bufferView":8,"byteOffset":0,"componentType":5123,"count":1335,"type":"SCALAR"},{"bufferView":9,"byteOffset":0,"componentType":5126,"count":734,"max":[1.50215065479279,0.00828170776367188,0.630330562591553],"min":[-0.39200189709663,-2.32098007202148,-0.62671542167664],"type":"VEC3"},{"bufferView":10,"byteOffset":0,"componentType":5126,"count":734,"type":"VEC3"},{"bufferView":11,"byteOffset":0,"componentType":5126,"count":734,"type":"VEC2"}],"asset":{"generator":"FBX2glTF v0.13.1","version":"2.0"},"bufferViews":[{"buffer":0,"byteLength":23214,"byteOffset":0,"target":34963},{"buffer":0,"byteLength":39660,"byteOffset":23216,"target":34962},{"buffer":0,"byteLength":39660,"byteOffset":62876,"target":34962},{"buffer":0,"byteLength":26440,"byteOffset":102536,"target":34962},{"buffer":0,"byteLength":12138,"byteOffset":128976,"target":34963},{"buffer":0,"byteLength":23892,"byteOffset":141116,"target":34962},{"buffer":0,"byteLength":23892,"byteOffset":165008,"target":34962},{"buffer":0,"byteLength":15928,"byteOffset":188900,"target":34962},{"buffer":0,"byteLength":2670,"byteOffset":204828,"target":34963},{"buffer":0,"byteLength":8808,"byteOffset":207500,"target":34962},{"buffer":0,"byteLength":8808,"byteOffset":216308,"target":34962},{"buffer":0,"byteLength":5872,"byteOffset":225116,"target":34962}],"buffers":[{"byteLength":230988,"uri":"Surgical_Lamp.bin"}],"images":[{"name":"Surgical_Lamp_A","uri":"Surgical_Lamp_A.tga"}],"materials":[{"alphaMode":"OPAQUE","doubleSided":false,"extras":{"fromFBX":{"isTruePBR":false,"shadingModel":"Phong"}},"name":"Surgical_Lamp","pbrMetallicRoughness":{"baseColorFactor":[1,1,1,1],"baseColorTexture":{"index":0,"texCoord":0},"metallicFactor":0.400000005960464,"roughnessFactor":0.272165536880493}}],"meshes":[{"name":"Surgical_Lamp_LOD0","primitives":[{"attributes":{"NORMAL":2,"POSITION":1,"TEXCOORD_0":3},"indices":0,"material":0,"mode":4}]},{"name":"Surgical_Lamp_LOD1","primitives":[{"attributes":{"NORMAL":6,"POSITION":5,"TEXCOORD_0":7},"indices":4,"material":0,"mode":4}]},{"name":"Surgical_Lamp_LOD2","primitives":[{"attributes":{"NORMAL":10,"POSITION":9,"TEXCOORD_0":11},"indices":8,"material":0,"mode":4}]}],"nodes":[{"mesh":0,"name":"Surgical_Lamp_LOD0","rotation":[0,0,0,1],"scale":[1,1,1],"translation":[0,0,0]},{"mesh":1,"name":"Surgical_Lamp_LOD1","rotation":[0,0,0,1],"scale":[1,1,1],"translation":[0,0,0]},{"mesh":2,"name":"Surgical_Lamp_LOD2","rotation":[0,0,0,1],"scale":[1,1,1],"translation":[0,0,0]}],"samplers":[{}],"scene":0,"scenes":[{"name":"Root Scene","nodes":[0,1,2]}],"textures":[{"name":"base_color_texture","sampler":0,"source":0}]}