{"accessors":[{"bufferView":0,"byteOffset":0,"componentType":5123,"count":3504,"type":"SCALAR"},{"bufferView":1,"byteOffset":0,"componentType":5126,"count":1005,"max":[0.0497728660702705,0.0288007855415344,0.167965367436409],"min":[-0.04926906898618,-0.0288007799536,-0.14325346052647],"type":"VEC3"},{"bufferView":2,"byteOffset":0,"componentType":5126,"count":1005,"type":"VEC3"},{"bufferView":3,"byteOffset":0,"componentType":5126,"count":1005,"type":"VEC2"},{"bufferView":4,"byteOffset":0,"componentType":5123,"count":1656,"type":"SCALAR"},{"bufferView":5,"byteOffset":0,"componentType":5126,"count":516,"max":[0.0496399439871311,0.0288007855415344,0.168013870716095],"min":[-0.04930876195431,-0.0288007799536,-0.1432633548975],"type":"VEC3"},{"bufferView":6,"byteOffset":0,"componentType":5126,"count":516,"type":"VEC3"},{"bufferView":7,"byteOffset":0,"componentType":5126,"count":516,"type":"VEC2"},{"bufferView":8,"byteOffset":0,"componentType":5123,"count":516,"type":"SCALAR"},{"bufferView":9,"byteOffset":0,"componentType":5126,"count":280,"max":[0.049824345856905,0.0298866592347622,0.168831884860992],"min":[-0.04871256276965,-0.02927673049271,-0.14352566003799],"type":"VEC3"},{"bufferView":10,"byteOffset":0,"componentType":5126,"count":280,"type":"VEC3"},{"bufferView":11,"byteOffset":0,"componentType":5126,"count":280,"type":"VEC2"}],"asset":{"generator":"FBX2glTF v0.13.1","version":"2.0"},"bufferViews":[{"buffer":0,"byteLength":7008,"byteOffset":0,"target":34963},{"buffer":0,"byteLength":12060,"byteOffset":7008,"target":34962},{"buffer":0,"byteLength":12060,"byteOffset":19068,"target":34962},{"buffer":0,"byteLength":8040,"byteOffset":31128,"target":34962},{"buffer":0,"byteLength":3312,"byteOffset":39168,"target":34963},{"buffer":0,"byteLength":6192,"byteOffset":42480,"target":34962},{"buffer":0,"byteLength":6192,"byteOffset":48672,"target":34962},{"buffer":0,"byteLength":4128,"byteOffset":54864,"target":34962},{"buffer":0,"byteLength":1032,"byteOffset":58992,"target":34963},{"buffer":0,"byteLength":3360,"byteOffset":60024,"target":34962},{"buffer":0,"byteLength":3360,"byteOffset":63384,"target":34962},{"buffer":0,"byteLength":2240,"byteOffset":66744,"target":34962}],"buffers":[{"byteLength":68984,"uri":"Syringe_01.bin"}],"images":[{"name":"Surgical_Instruments_A","uri":"Surgical_Instruments_A.tga"}],"materials":[{"alphaMode":"OPAQUE","doubleSided":false,"extras":{"fromFBX":{"isTruePBR":false,"shadingModel":"Phong"}},"name":"Surgical_Instruments","pbrMetallicRoughness":{"baseColorFactor":[1,1,1,1],"baseColorTexture":{"index":0,"texCoord":0},"metallicFactor":0.400000005960464,"roughnessFactor":0.272165536880493}}],"meshes":[{"name":"Syringe_01_LOD0","primitives":[{"attributes":{"NORMAL":2,"POSITION":1,"TEXCOORD_0":3},"indices":0,"material":0,"mode":4}]},{"name":"Syringe_01_LOD1","primitives":[{"attributes":{"NORMAL":6,"POSITION":5,"TEXCOORD_0":7},"indices":4,"material":0,"mode":4}]},{"name":"Syringe_01_LOD2","primitives":[{"attributes":{"NORMAL":10,"POSITION":9,"TEXCOORD_0":11},"indices":8,"material":0,"mode":4}]}],"nodes":[{"mesh":0,"name":"Syringe_01_LOD0","rotation":[0,0,0,1],"scale":[1,1,1],"translation":[0,0,0]},{"mesh":1,"name":"Syringe_01_LOD1","rotation":[0,0,0,1],"scale":[1,1,1],"translation":[0,0,0]},{"mesh":2,"name":"Syringe_01_LOD2","rotation":[0,0,0,1],"scale":[1,1,1],"translation":[0,0,0]}],"samplers":[{}],"scene":0,"scenes":[{"name":"Root Scene","nodes":[0,1,2]}],"textures":[{"name":"base_color_texture","sampler":0,"source":0}]}