{"accessors":[{"bufferView":0,"byteOffset":0,"componentType":5123,"count":2388,"type":"SCALAR"},{"bufferView":1,"byteOffset":0,"componentType":5126,"count":796,"max":[0.0498242266476154,0.0157623831182718,0.0876287221908569],"min":[-0.04979921132326,-0.01576238125563,-0.06348853558302],"type":"VEC3"},{"bufferView":2,"byteOffset":0,"componentType":5126,"count":796,"type":"VEC3"},{"bufferView":3,"byteOffset":0,"componentType":5126,"count":796,"type":"VEC2"},{"bufferView":4,"byteOffset":0,"componentType":5123,"count":1149,"type":"SCALAR"},{"bufferView":5,"byteOffset":0,"componentType":5126,"count":434,"max":[0.0498242266476154,0.0161423683166504,0.0876829773187637],"min":[-0.05001205205917,-0.01614237576723,-0.06351192295551],"type":"VEC3"},{"bufferView":6,"byteOffset":0,"componentType":5126,"count":434,"type":"VEC3"},{"bufferView":7,"byteOffset":0,"componentType":5126,"count":434,"type":"VEC2"},{"bufferView":8,"byteOffset":0,"componentType":5123,"count":402,"type":"SCALAR"},{"bufferView":9,"byteOffset":0,"componentType":5126,"count":253,"max":[0.0484563708305359,0.0149845080450177,0.0868761315941811],"min":[-0.05077604204416,-0.01550179719925,-0.05284773185849],"type":"VEC3"},{"bufferView":10,"byteOffset":0,"componentType":5126,"count":253,"type":"VEC3"},{"bufferView":11,"byteOffset":0,"componentType":5126,"count":253,"type":"VEC2"}],"asset":{"generator":"FBX2glTF v0.13.1","version":"2.0"},"bufferViews":[{"buffer":0,"byteLength":4776,"byteOffset":0,"target":34963},{"buffer":0,"byteLength":9552,"byteOffset":4776,"target":34962},{"buffer":0,"byteLength":9552,"byteOffset":14328,"target":34962},{"buffer":0,"byteLength":6368,"byteOffset":23880,"target":34962},{"buffer":0,"byteLength":2298,"byteOffset":30248,"target":34963},{"buffer":0,"byteLength":5208,"byteOffset":32548,"target":34962},{"buffer":0,"byteLength":5208,"byteOffset":37756,"target":34962},{"buffer":0,"byteLength":3472,"byteOffset":42964,"target":34962},{"buffer":0,"byteLength":804,"byteOffset":46436,"target":34963},{"buffer":0,"byteLength":3036,"byteOffset":47240,"target":34962},{"buffer":0,"byteLength":3036,"byteOffset":50276,"target":34962},{"buffer":0,"byteLength":2024,"byteOffset":53312,"target":34962}],"buffers":[{"byteLength":55336,"uri":"Syringe_02.bin"}],"images":[{"name":"Surgical_Instruments_A","uri":"Surgical_Instruments_A.tga"}],"materials":[{"alphaMode":"OPAQUE","doubleSided":false,"extras":{"fromFBX":{"isTruePBR":false,"shadingModel":"Phong"}},"name":"Surgical_Instruments","pbrMetallicRoughness":{"baseColorFactor":[1,1,1,1],"baseColorTexture":{"index":0,"texCoord":0},"metallicFactor":0.400000005960464,"roughnessFactor":0.272165536880493}}],"meshes":[{"name":"Syringe_02_LOD0","primitives":[{"attributes":{"NORMAL":2,"POSITION":1,"TEXCOORD_0":3},"indices":0,"material":0,"mode":4}]},{"name":"Syringe_02_LOD1","primitives":[{"attributes":{"NORMAL":6,"POSITION":5,"TEXCOORD_0":7},"indices":4,"material":0,"mode":4}]},{"name":"Syringe_02_LOD2","primitives":[{"attributes":{"NORMAL":10,"POSITION":9,"TEXCOORD_0":11},"indices":8,"material":0,"mode":4}]}],"nodes":[{"mesh":0,"name":"Syringe_02_LOD0","rotation":[0,0,0,1],"scale":[1,1,1],"translation":[0,0,0]},{"mesh":1,"name":"Syringe_02_LOD1","rotation":[0,0,0,1],"scale":[1,1,1],"translation":[0,0,0]},{"mesh":2,"name":"Syringe_02_LOD2","rotation":[0,0,0,1],"scale":[1,1,1],"translation":[0,0,0]}],"samplers":[{}],"scene":0,"scenes":[{"name":"Root Scene","nodes":[0,1,2]}],"textures":[{"name":"base_color_texture","sampler":0,"source":0}]}