{"accessors":[{"bufferView":0,"byteOffset":0,"componentType":5123,"count":5676,"type":"SCALAR"},{"bufferView":1,"byteOffset":0,"componentType":5126,"count":1908,"max":[0.374438494443893,1.00828528404236,0.966905415058136],"min":[-0.22538906335831,0.00019261240959167,-0.96366852521896],"type":"VEC3"},{"bufferView":2,"byteOffset":0,"componentType":5126,"count":1908,"type":"VEC3"},{"bufferView":3,"byteOffset":0,"componentType":5126,"count":1908,"type":"VEC2"},{"bufferView":4,"byteOffset":0,"componentType":5123,"count":2952,"type":"SCALAR"},{"bufferView":5,"byteOffset":0,"componentType":5126,"count":1135,"max":[0.374579280614853,1.00859713554382,0.967112123966217],"min":[-0.22571511566639,0.00019261240959167,-0.96387523412705],"type":"VEC3"},{"bufferView":6,"byteOffset":0,"componentType":5126,"count":1135,"type":"VEC3"},{"bufferView":7,"byteOffset":0,"componentType":5126,"count":1135,"type":"VEC2"},{"bufferView":8,"byteOffset":0,"componentType":5123,"count":1224,"type":"SCALAR"},{"bufferView":9,"byteOffset":0,"componentType":5126,"count":532,"max":[0.375483691692352,1.00890958309174,0.943844497203827],"min":[-0.19930295646191,0.0334151051938534,-0.94015049934387],"type":"VEC3"},{"bufferView":10,"byteOffset":0,"componentType":5126,"count":532,"type":"VEC3"},{"bufferView":11,"byteOffset":0,"componentType":5126,"count":532,"type":"VEC2"}],"asset":{"generator":"FBX2glTF v0.13.1","version":"2.0"},"bufferViews":[{"buffer":0,"byteLength":11352,"byteOffset":0,"target":34963},{"buffer":0,"byteLength":22896,"byteOffset":11352,"target":34962},{"buffer":0,"byteLength":22896,"byteOffset":34248,"target":34962},{"buffer":0,"byteLength":15264,"byteOffset":57144,"target":34962},{"buffer":0,"byteLength":5904,"byteOffset":72408,"target":34963},{"buffer":0,"byteLength":13620,"byteOffset":78312,"target":34962},{"buffer":0,"byteLength":13620,"byteOffset":91932,"target":34962},{"buffer":0,"byteLength":9080,"byteOffset":105552,"target":34962},{"buffer":0,"byteLength":2448,"byteOffset":114632,"target":34963},{"buffer":0,"byteLength":6384,"byteOffset":117080,"target":34962},{"buffer":0,"byteLength":6384,"byteOffset":123464,"target":34962},{"buffer":0,"byteLength":4256,"byteOffset":129848,"target":34962}],"buffers":[{"byteLength":134104,"uri":"Armchair.bin"}],"materials":[{"alphaMode":"OPAQUE","doubleSided":false,"extras":{"fromFBX":{"isTruePBR":false,"shadingModel":"Phong"}},"name":"Armchair","pbrMetallicRoughness":{"baseColorFactor":[0.800000011920929,0.800000011920929,0.800000011920929,1],"metallicFactor":0.400000005960464,"roughnessFactor":0.272165536880493}}],"meshes":[{"name":"Armchair_LOD0","primitives":[{"attributes":{"NORMAL":2,"POSITION":1,"TEXCOORD_0":3},"indices":0,"material":0,"mode":4}]},{"name":"Armchair_LOD1","primitives":[{"attributes":{"NORMAL":6,"POSITION":5,"TEXCOORD_0":7},"indices":4,"material":0,"mode":4}]},{"name":"Armchair_LOD2","primitives":[{"attributes":{"NORMAL":10,"POSITION":9,"TEXCOORD_0":11},"indices":8,"material":0,"mode":4}]}],"nodes":[{"mesh":0,"name":"Armchair_LOD0","rotation":[0,0,0,1],"scale":[1,1,1],"translation":[0,0,0]},{"mesh":1,"name":"Armchair_LOD1","rotation":[0,0,0,1],"scale":[1,1,1],"translation":[0,0,0]},{"mesh":2,"name":"Armchair_LOD2","rotation":[0,0,0,1],"scale":[1,1,1],"translation":[0,0,0]}],"samplers":[{}],"scene":0,"scenes":[{"name":"Root Scene","nodes":[0,1,2]}]}