{"accessors":[{"bufferView":0,"byteOffset":0,"componentType":5123,"count":1302,"type":"SCALAR"},{"bufferView":1,"byteOffset":0,"componentType":5126,"count":315,"max":[0.0212946906685829,0.170833751559258,0.399271696805954],"min":[-0.02129469066858,-0.15432518720627,-0.52979207038879],"type":"VEC3"},{"bufferView":2,"byteOffset":0,"componentType":5126,"count":315,"type":"VEC3"},{"bufferView":3,"byteOffset":0,"componentType":5126,"count":315,"type":"VEC2"},{"bufferView":4,"byteOffset":0,"componentType":5123,"count":618,"type":"SCALAR"},{"bufferView":5,"byteOffset":0,"componentType":5126,"count":170,"max":[0.0212946906685829,0.17187562584877,0.399007976055145],"min":[-0.0216500107199,-0.15340147912502,-0.52979207038879],"type":"VEC3"},{"bufferView":6,"byteOffset":0,"componentType":5126,"count":170,"type":"VEC3"},{"bufferView":7,"byteOffset":0,"componentType":5126,"count":170,"type":"VEC2"}],"asset":{"generator":"FBX2glTF v0.13.1","version":"2.0"},"bufferViews":[{"buffer":0,"byteLength":2604,"byteOffset":0,"target":34963},{"buffer":0,"byteLength":3780,"byteOffset":2604,"target":34962},{"buffer":0,"byteLength":3780,"byteOffset":6384,"target":34962},{"buffer":0,"byteLength":2520,"byteOffset":10164,"target":34962},{"buffer":0,"byteLength":1236,"byteOffset":12684,"target":34963},{"buffer":0,"byteLength":2040,"byteOffset":13920,"target":34962},{"buffer":0,"byteLength":2040,"byteOffset":15960,"target":34962},{"buffer":0,"byteLength":1360,"byteOffset":18000,"target":34962}],"buffers":[{"byteLength":19360,"uri":"Axe.bin"}],"images":[{"name":"Fire_Fighting_A","uri":"Fire_Fighting_A.tga"}],"materials":[{"alphaMode":"OPAQUE","doubleSided":false,"extras":{"fromFBX":{"isTruePBR":false,"shadingModel":"Phong"}},"name":"Fire_Fighting","pbrMetallicRoughness":{"baseColorFactor":[1,1,1,1],"baseColorTexture":{"index":0,"texCoord":0},"metallicFactor":0.400000005960464,"roughnessFactor":0.272165536880493}}],"meshes":[{"name":"Axe_LOD0","primitives":[{"attributes":{"NORMAL":2,"POSITION":1,"TEXCOORD_0":3},"indices":0,"material":0,"mode":4}]},{"name":"Axe_LOD1","primitives":[{"attributes":{"NORMAL":6,"POSITION":5,"TEXCOORD_0":7},"indices":4,"material":0,"mode":4}]}],"nodes":[{"mesh":0,"name":"Axe_LOD0","rotation":[0,0,0,1],"scale":[1,1,1],"translation":[0,0,0]},{"mesh":1,"name":"Axe_LOD1","rotation":[0,0,0,1],"scale":[1,1,1],"translation":[0,0,0]}],"samplers":[{}],"scene":0,"scenes":[{"name":"Root Scene","nodes":[0,1]}],"textures":[{"name":"base_color_texture","sampler":0,"source":0}]}