{"accessors":[{"bufferView":0,"byteOffset":0,"componentType":5123,"count":348,"type":"SCALAR"},{"bufferView":1,"byteOffset":0,"componentType":5126,"count":232,"max":[0.0268918294459581,0.904529094696045,0.651797294616699],"min":[-0.02050500735641,-0.91129940748215,-0.6517972946167],"type":"VEC3"},{"bufferView":2,"byteOffset":0,"componentType":5126,"count":232,"type":"VEC3"},{"bufferView":3,"byteOffset":0,"componentType":5126,"count":232,"type":"VEC2"}],"asset":{"generator":"FBX2glTF v0.13.1","version":"2.0"},"bufferViews":[{"buffer":0,"byteLength":696,"byteOffset":0,"target":34963},{"buffer":0,"byteLength":2784,"byteOffset":696,"target":34962},{"buffer":0,"byteLength":2784,"byteOffset":3480,"target":34962},{"buffer":0,"byteLength":1856,"byteOffset":6264,"target":34962}],"buffers":[{"byteLength":8120,"uri":"Board_Windows_01.bin"}],"images":[{"name":"Construction_Table_A","uri":"Construction_Table_A.tga"}],"materials":[{"alphaMode":"OPAQUE","doubleSided":false,"extras":{"fromFBX":{"isTruePBR":false,"shadingModel":"Phong"}},"name":"Construction_Table","pbrMetallicRoughness":{"baseColorFactor":[1,1,1,1],"baseColorTexture":{"index":0,"texCoord":0},"metallicFactor":0.400000005960464,"roughnessFactor":0.272165536880493}}],"meshes":[{"name":"Board_Windows_01","primitives":[{"attributes":{"NORMAL":2,"POSITION":1,"TEXCOORD_0":3},"indices":0,"material":0,"mode":4}]}],"nodes":[{"mesh":0,"name":"Board_Windows_01","rotation":[0,0,0,1],"scale":[1,1,1],"translation":[0,0,0]}],"samplers":[{}],"scene":0,"scenes":[{"name":"Root Scene","nodes":[0]}],"textures":[{"name":"base_color_texture","sampler":0,"source":0}]}