{"accessors":[{"bufferView":0,"byteOffset":0,"componentType":5123,"count":1470,"type":"SCALAR"},{"bufferView":1,"byteOffset":0,"componentType":5126,"count":421,"max":[0.0789826586842537,0.203417301177979,0.00369504885748029],"min":[-0.07898265868425,-0.20459015667438,-0.57291281223297],"type":"VEC3"},{"bufferView":2,"byteOffset":0,"componentType":5126,"count":421,"type":"VEC3"},{"bufferView":3,"byteOffset":0,"componentType":5126,"count":421,"type":"VEC2"},{"bufferView":4,"byteOffset":0,"componentType":5123,"count":1014,"type":"SCALAR"},{"bufferView":5,"byteOffset":0,"componentType":5126,"count":292,"max":[0.0789826586842537,0.203417301177979,0.00369504885748029],"min":[-0.07898265868425,-0.20459015667438,-0.57308530807495],"type":"VEC3"},{"bufferView":6,"byteOffset":0,"componentType":5126,"count":292,"type":"VEC3"},{"bufferView":7,"byteOffset":0,"componentType":5126,"count":292,"type":"VEC2"},{"bufferView":8,"byteOffset":0,"componentType":5123,"count":402,"type":"SCALAR"},{"bufferView":9,"byteOffset":0,"componentType":5126,"count":143,"max":[0.0697293728590012,0.203283250331879,0.00369504885748029],"min":[-0.069729372859,-0.20954659581184,-0.57355910539627],"type":"VEC3"},{"bufferView":10,"byteOffset":0,"componentType":5126,"count":143,"type":"VEC3"},{"bufferView":11,"byteOffset":0,"componentType":5126,"count":143,"type":"VEC2"},{"bufferView":12,"byteOffset":0,"componentType":5123,"count":708,"type":"SCALAR"},{"bufferView":13,"byteOffset":0,"componentType":5126,"count":144,"max":[0.0922385007143021,0.163784310221672,-0.20498043298721],"min":[-0.09305483847857,-0.16353525221348,-0.53229999542236],"type":"VEC3"},{"bufferView":14,"byteOffset":0,"componentType":5126,"count":144,"type":"VEC3"},{"bufferView":15,"byteOffset":0,"componentType":5126,"count":144,"type":"VEC2"},{"bufferView":16,"byteOffset":0,"componentType":5123,"count":318,"type":"SCALAR"},{"bufferView":17,"byteOffset":0,"componentType":5126,"count":79,"max":[0.092475414276123,0.163784310221672,-0.20498043298721],"min":[-0.09327978640795,-0.16353525221348,-0.53229999542236],"type":"VEC3"},{"bufferView":18,"byteOffset":0,"componentType":5126,"count":79,"type":"VEC3"},{"bufferView":19,"byteOffset":0,"componentType":5126,"count":79,"type":"VEC2"},{"bufferView":20,"byteOffset":0,"componentType":5123,"count":183,"type":"SCALAR"},{"bufferView":21,"byteOffset":0,"componentType":5126,"count":56,"max":[0.0868945270776749,0.166591197252274,-0.20008611679077],"min":[-0.09527505934238,-0.16678620874882,-0.53229999542236],"type":"VEC3"},{"bufferView":22,"byteOffset":0,"componentType":5126,"count":56,"type":"VEC3"},{"bufferView":23,"byteOffset":0,"componentType":5126,"count":56,"type":"VEC2"}],"asset":{"generator":"FBX2glTF v0.13.1","version":"2.0"},"bufferViews":[{"buffer":0,"byteLength":2940,"byteOffset":0,"target":34963},{"buffer":0,"byteLength":5052,"byteOffset":2940,"target":34962},{"buffer":0,"byteLength":5052,"byteOffset":7992,"target":34962},{"buffer":0,"byteLength":3368,"byteOffset":13044,"target":34962},{"buffer":0,"byteLength":2028,"byteOffset":16412,"target":34963},{"buffer":0,"byteLength":3504,"byteOffset":18440,"target":34962},{"buffer":0,"byteLength":3504,"byteOffset":21944,"target":34962},{"buffer":0,"byteLength":2336,"byteOffset":25448,"target":34962},{"buffer":0,"byteLength":804,"byteOffset":27784,"target":34963},{"buffer":0,"byteLength":1716,"byteOffset":28588,"target":34962},{"buffer":0,"byteLength":1716,"byteOffset":30304,"target":34962},{"buffer":0,"byteLength":1144,"byteOffset":32020,"target":34962},{"buffer":0,"byteLength":1416,"byteOffset":33164,"target":34963},{"buffer":0,"byteLength":1728,"byteOffset":34580,"target":34962},{"buffer":0,"byteLength":1728,"byteOffset":36308,"target":34962},{"buffer":0,"byteLength":1152,"byteOffset":38036,"target":34962},{"buffer":0,"byteLength":636,"byteOffset":39188,"target":34963},{"buffer":0,"byteLength":948,"byteOffset":39824,"target":34962},{"buffer":0,"byteLength":948,"byteOffset":40772,"target":34962},{"buffer":0,"byteLength":632,"byteOffset":41720,"target":34962},{"buffer":0,"byteLength":366,"byteOffset":42352,"target":34963},{"buffer":0,"byteLength":672,"byteOffset":42720,"target":34962},{"buffer":0,"byteLength":672,"byteOffset":43392,"target":34962},{"buffer":0,"byteLength":448,"byteOffset":44064,"target":34962}],"buffers":[{"byteLength":44512,"uri":"Clock.bin"}],"images":[{"name":"Telephone_A","uri":"Telephone_A.tga"},{"name":"Glass_A","uri":"Glass_A.tga"}],"materials":[{"alphaMode":"OPAQUE","doubleSided":false,"extras":{"fromFBX":{"isTruePBR":false,"shadingModel":"Phong"}},"name":"Telephone","pbrMetallicRoughness":{"baseColorFactor":[1,1,1,1],"baseColorTexture":{"index":0,"texCoord":0},"metallicFactor":0.400000005960464,"roughnessFactor":0.272165536880493}},{"alphaMode":"OPAQUE","doubleSided":false,"extras":{"fromFBX":{"isTruePBR":false,"shadingModel":"Phong"}},"name":"Glass(Fade)","pbrMetallicRoughness":{"baseColorFactor":[1,1,1,1],"baseColorTexture":{"index":1,"texCoord":0},"metallicFactor":0.400000005960464,"roughnessFactor":0.272165536880493}}],"meshes":[{"name":"Clock_LOD0","primitives":[{"attributes":{"NORMAL":2,"POSITION":1,"TEXCOORD_0":3},"indices":0,"material":0,"mode":4},{"attributes":{"NORMAL":14,"POSITION":13,"TEXCOORD_0":15},"indices":12,"material":1,"mode":4}]},{"name":"Clock_LOD1","primitives":[{"attributes":{"NORMAL":6,"POSITION":5,"TEXCOORD_0":7},"indices":4,"material":0,"mode":4},{"attributes":{"NORMAL":18,"POSITION":17,"TEXCOORD_0":19},"indices":16,"material":1,"mode":4}]},{"name":"Clock_LOD2","primitives":[{"attributes":{"NORMAL":10,"POSITION":9,"TEXCOORD_0":11},"indices":8,"material":0,"mode":4},{"attributes":{"NORMAL":22,"POSITION":21,"TEXCOORD_0":23},"indices":20,"material":1,"mode":4}]}],"nodes":[{"mesh":0,"name":"Clock_LOD0","rotation":[0,0,0,1],"scale":[1,1,1],"translation":[0,0,0]},{"mesh":1,"name":"Clock_LOD1","rotation":[0,0,0,1],"scale":[1,1,1],"translation":[0,0,0]},{"mesh":2,"name":"Clock_LOD2","rotation":[0,0,0,1],"scale":[1,1,1],"translation":[0,0,0]}],"samplers":[{}],"scene":0,"scenes":[{"name":"Root Scene","nodes":[0,1,2]}],"textures":[{"name":"base_color_texture","sampler":0,"source":0},{"name":"base_color_texture","sampler":0,"source":1}]}