{"accessors":[{"bufferView":0,"byteOffset":0,"componentType":5123,"count":6084,"type":"SCALAR"},{"bufferView":1,"byteOffset":0,"componentType":5126,"count":1844,"max":[0.275777697563171,0.587817192077637,0.342860668897629],"min":[-0.59580391645431,-0.00000002468005,-0.23535254597664],"type":"VEC3"},{"bufferView":2,"byteOffset":0,"componentType":5126,"count":1844,"type":"VEC3"},{"bufferView":3,"byteOffset":0,"componentType":5126,"count":1844,"type":"VEC2"},{"bufferView":4,"byteOffset":0,"componentType":5123,"count":3276,"type":"SCALAR"},{"bufferView":5,"byteOffset":0,"componentType":5126,"count":1537,"max":[0.275984585285187,0.587817192077637,0.342196464538574],"min":[-0.59494650363922,-0.0000000289871,-0.23535254597664],"type":"VEC3"},{"bufferView":6,"byteOffset":0,"componentType":5126,"count":1537,"type":"VEC3"},{"bufferView":7,"byteOffset":0,"componentType":5126,"count":1537,"type":"VEC2"},{"bufferView":8,"byteOffset":0,"componentType":5123,"count":351,"type":"SCALAR"},{"bufferView":9,"byteOffset":0,"componentType":5126,"count":214,"max":[0.237326115369797,0.586460530757904,0.344694048166275],"min":[-0.59504818916321,-0.00002403217695,-0.23535251617432],"type":"VEC3"},{"bufferView":10,"byteOffset":0,"componentType":5126,"count":214,"type":"VEC3"},{"bufferView":11,"byteOffset":0,"componentType":5126,"count":214,"type":"VEC2"}],"asset":{"generator":"FBX2glTF v0.13.1","version":"2.0"},"bufferViews":[{"buffer":0,"byteLength":12168,"byteOffset":0,"target":34963},{"buffer":0,"byteLength":22128,"byteOffset":12168,"target":34962},{"buffer":0,"byteLength":22128,"byteOffset":34296,"target":34962},{"buffer":0,"byteLength":14752,"byteOffset":56424,"target":34962},{"buffer":0,"byteLength":6552,"byteOffset":71176,"target":34963},{"buffer":0,"byteLength":18444,"byteOffset":77728,"target":34962},{"buffer":0,"byteLength":18444,"byteOffset":96172,"target":34962},{"buffer":0,"byteLength":12296,"byteOffset":114616,"target":34962},{"buffer":0,"byteLength":702,"byteOffset":126912,"target":34963},{"buffer":0,"byteLength":2568,"byteOffset":127616,"target":34962},{"buffer":0,"byteLength":2568,"byteOffset":130184,"target":34962},{"buffer":0,"byteLength":1712,"byteOffset":132752,"target":34962}],"buffers":[{"byteLength":134464,"uri":"Computers_01.bin"}],"images":[{"name":"Computers_A","uri":"Computers_A.tga"}],"materials":[{"alphaMode":"OPAQUE","doubleSided":false,"extras":{"fromFBX":{"isTruePBR":false,"shadingModel":"Phong"}},"name":"Computers","pbrMetallicRoughness":{"baseColorFactor":[1,1,1,1],"baseColorTexture":{"index":0,"texCoord":0},"metallicFactor":0.400000005960464,"roughnessFactor":0.272165536880493}}],"meshes":[{"name":"Computers_01_LOD0","primitives":[{"attributes":{"NORMAL":2,"POSITION":1,"TEXCOORD_0":3},"indices":0,"material":0,"mode":4}]},{"name":"Computers_01_LOD1","primitives":[{"attributes":{"NORMAL":6,"POSITION":5,"TEXCOORD_0":7},"indices":4,"material":0,"mode":4}]},{"name":"Computers_01_LOD2","primitives":[{"attributes":{"NORMAL":10,"POSITION":9,"TEXCOORD_0":11},"indices":8,"material":0,"mode":4}]}],"nodes":[{"mesh":0,"name":"Computers_01_LOD0","rotation":[0,0,0,1],"scale":[1,1,1],"translation":[0,0,0]},{"mesh":1,"name":"Computers_01_LOD1","rotation":[0,0,0,1],"scale":[1,1,1],"translation":[0,0,0]},{"mesh":2,"name":"Computers_01_LOD2","rotation":[0,0,0,1],"scale":[1,1,1],"translation":[0,0,0]}],"samplers":[{}],"scene":0,"scenes":[{"name":"Root Scene","nodes":[0,1,2]}],"textures":[{"name":"base_color_texture","sampler":0,"source":0}]}