{"accessors":[{"bufferView":0,"byteOffset":0,"componentType":5123,"count":2388,"type":"SCALAR"},{"bufferView":1,"byteOffset":0,"componentType":5126,"count":643,"max":[0,0.668261408805847,0.307230949401855],"min":[-0.51797294616699,0.0054319710470736,-0.30706977844238],"type":"VEC3"},{"bufferView":2,"byteOffset":0,"componentType":5126,"count":643,"type":"VEC3"},{"bufferView":3,"byteOffset":0,"componentType":5126,"count":643,"type":"VEC2"},{"bufferView":4,"byteOffset":0,"componentType":5123,"count":1293,"type":"SCALAR"},{"bufferView":5,"byteOffset":0,"componentType":5126,"count":381,"max":[0,0.668389797210693,0.307230949401855],"min":[-0.51797139644623,0.00695878779515624,-0.30706977844238],"type":"VEC3"},{"bufferView":6,"byteOffset":0,"componentType":5126,"count":381,"type":"VEC3"},{"bufferView":7,"byteOffset":0,"componentType":5126,"count":381,"type":"VEC2"},{"bufferView":8,"byteOffset":0,"componentType":5123,"count":465,"type":"SCALAR"},{"bufferView":9,"byteOffset":0,"componentType":5126,"count":176,"max":[0.0000080008003351395,0.67006927728653,0.304692924022675],"min":[-0.51172488927841,0.00695878779515624,-0.30324283242226],"type":"VEC3"},{"bufferView":10,"byteOffset":0,"componentType":5126,"count":176,"type":"VEC3"},{"bufferView":11,"byteOffset":0,"componentType":5126,"count":176,"type":"VEC2"}],"asset":{"generator":"FBX2glTF v0.13.1","version":"2.0"},"bufferViews":[{"buffer":0,"byteLength":4776,"byteOffset":0,"target":34963},{"buffer":0,"byteLength":7716,"byteOffset":4776,"target":34962},{"buffer":0,"byteLength":7716,"byteOffset":12492,"target":34962},{"buffer":0,"byteLength":5144,"byteOffset":20208,"target":34962},{"buffer":0,"byteLength":2586,"byteOffset":25352,"target":34963},{"buffer":0,"byteLength":4572,"byteOffset":27940,"target":34962},{"buffer":0,"byteLength":4572,"byteOffset":32512,"target":34962},{"buffer":0,"byteLength":3048,"byteOffset":37084,"target":34962},{"buffer":0,"byteLength":930,"byteOffset":40132,"target":34963},{"buffer":0,"byteLength":2112,"byteOffset":41064,"target":34962},{"buffer":0,"byteLength":2112,"byteOffset":43176,"target":34962},{"buffer":0,"byteLength":1408,"byteOffset":45288,"target":34962}],"buffers":[{"byteLength":46696,"uri":"Drinking_Fountain.bin"}],"images":[{"name":"Urn_A","uri":"Urn_A.tga"}],"materials":[{"alphaMode":"OPAQUE","doubleSided":false,"extras":{"fromFBX":{"isTruePBR":false,"shadingModel":"Phong"}},"name":"Urn","pbrMetallicRoughness":{"baseColorFactor":[1,1,1,1],"baseColorTexture":{"index":0,"texCoord":0},"metallicFactor":0.400000005960464,"roughnessFactor":0.272165536880493}}],"meshes":[{"name":"Drinking_Fountain_LOD0","primitives":[{"attributes":{"NORMAL":2,"POSITION":1,"TEXCOORD_0":3},"indices":0,"material":0,"mode":4}]},{"name":"Drinking_Fountain_LOD1","primitives":[{"attributes":{"NORMAL":6,"POSITION":5,"TEXCOORD_0":7},"indices":4,"material":0,"mode":4}]},{"name":"Drinking_Fountain_LOD2","primitives":[{"attributes":{"NORMAL":10,"POSITION":9,"TEXCOORD_0":11},"indices":8,"material":0,"mode":4}]}],"nodes":[{"mesh":0,"name":"Drinking_Fountain_LOD0","rotation":[0,0,0,1],"scale":[1,1,1],"translation":[0,0,0]},{"mesh":1,"name":"Drinking_Fountain_LOD1","rotation":[0,0,0,1],"scale":[1,1,1],"translation":[0,0,0]},{"mesh":2,"name":"Drinking_Fountain_LOD2","rotation":[0,0,0,1],"scale":[1,1,1],"translation":[0,0,0]}],"samplers":[{}],"scene":0,"scenes":[{"name":"Root Scene","nodes":[0,1,2]}],"textures":[{"name":"base_color_texture","sampler":0,"source":0}]}