{"accessors":[{"bufferView":0,"byteOffset":0,"componentType":5123,"count":10410,"type":"SCALAR"},{"bufferView":1,"byteOffset":0,"componentType":5126,"count":3209,"max":[0.00264425575733185,0.623797655105591,0.118070714175701],"min":[-0.21763488650322,-0.01341092307121,-0.19886183738708],"type":"VEC3"},{"bufferView":2,"byteOffset":0,"componentType":5126,"count":3209,"type":"VEC3"},{"bufferView":3,"byteOffset":0,"componentType":5126,"count":3209,"type":"VEC2"},{"bufferView":4,"byteOffset":0,"componentType":5123,"count":4215,"type":"SCALAR"},{"bufferView":5,"byteOffset":0,"componentType":5126,"count":1491,"max":[-0.00000698119402,0.624031484127045,0.117526851594448],"min":[-0.21722869575024,-0.01228687632829,-0.19886183738708],"type":"VEC3"},{"bufferView":6,"byteOffset":0,"componentType":5126,"count":1491,"type":"VEC3"},{"bufferView":7,"byteOffset":0,"componentType":5126,"count":1491,"type":"VEC2"},{"bufferView":8,"byteOffset":0,"componentType":5123,"count":924,"type":"SCALAR"},{"bufferView":9,"byteOffset":0,"componentType":5126,"count":421,"max":[-0.0185167118907,0.624388039112091,0.116584345698357],"min":[-0.21675328910351,-0.00331262452528,-0.20064240694046],"type":"VEC3"},{"bufferView":10,"byteOffset":0,"componentType":5126,"count":421,"type":"VEC3"},{"bufferView":11,"byteOffset":0,"componentType":5126,"count":421,"type":"VEC2"}],"asset":{"generator":"FBX2glTF v0.13.1","version":"2.0"},"bufferViews":[{"buffer":0,"byteLength":20820,"byteOffset":0,"target":34963},{"buffer":0,"byteLength":38508,"byteOffset":20820,"target":34962},{"buffer":0,"byteLength":38508,"byteOffset":59328,"target":34962},{"buffer":0,"byteLength":25672,"byteOffset":97836,"target":34962},{"buffer":0,"byteLength":8430,"byteOffset":123508,"target":34963},{"buffer":0,"byteLength":17892,"byteOffset":131940,"target":34962},{"buffer":0,"byteLength":17892,"byteOffset":149832,"target":34962},{"buffer":0,"byteLength":11928,"byteOffset":167724,"target":34962},{"buffer":0,"byteLength":1848,"byteOffset":179652,"target":34963},{"buffer":0,"byteLength":5052,"byteOffset":181500,"target":34962},{"buffer":0,"byteLength":5052,"byteOffset":186552,"target":34962},{"buffer":0,"byteLength":3368,"byteOffset":191604,"target":34962}],"buffers":[{"byteLength":194972,"uri":"Extinguisher.bin"}],"images":[{"name":"Fire_Fighting_A","uri":"Fire_Fighting_A.tga"}],"materials":[{"alphaMode":"OPAQUE","doubleSided":false,"extras":{"fromFBX":{"isTruePBR":false,"shadingModel":"Phong"}},"name":"Fire_Fighting","pbrMetallicRoughness":{"baseColorFactor":[1,1,1,1],"baseColorTexture":{"index":0,"texCoord":0},"metallicFactor":0.400000005960464,"roughnessFactor":0.272165536880493}}],"meshes":[{"name":"Extinguisher_LOD0","primitives":[{"attributes":{"NORMAL":2,"POSITION":1,"TEXCOORD_0":3},"indices":0,"material":0,"mode":4}]},{"name":"Extinguisher_LOD1","primitives":[{"attributes":{"NORMAL":6,"POSITION":5,"TEXCOORD_0":7},"indices":4,"material":0,"mode":4}]},{"name":"Extinguisher_LOD2","primitives":[{"attributes":{"NORMAL":10,"POSITION":9,"TEXCOORD_0":11},"indices":8,"material":0,"mode":4}]}],"nodes":[{"mesh":0,"name":"Extinguisher_LOD0","rotation":[0,0,0,1],"scale":[1,1,1],"translation":[0,0,0]},{"mesh":1,"name":"Extinguisher_LOD1","rotation":[0,0,0,1],"scale":[1,1,1],"translation":[0,0,0]},{"mesh":2,"name":"Extinguisher_LOD2","rotation":[0,0,0,1],"scale":[1,1,1],"translation":[0,0,0]}],"samplers":[{}],"scene":0,"scenes":[{"name":"Root Scene","nodes":[0,1,2]}],"textures":[{"name":"base_color_texture","sampler":0,"source":0}]}