{"accessors":[{"bufferView":0,"byteOffset":0,"componentType":5123,"count":1176,"type":"SCALAR"},{"bufferView":1,"byteOffset":0,"componentType":5126,"count":283,"max":[1,0.0589529871940613,0.0589530020952225],"min":[-1,-0.43164804577827,-0.05895303189754],"type":"VEC3"},{"bufferView":2,"byteOffset":0,"componentType":5126,"count":283,"type":"VEC3"},{"bufferView":3,"byteOffset":0,"componentType":5126,"count":283,"type":"VEC2"},{"bufferView":4,"byteOffset":0,"componentType":5123,"count":582,"type":"SCALAR"},{"bufferView":5,"byteOffset":0,"componentType":5126,"count":163,"max":[1,0.0592584535479546,0.0592584870755672],"min":[-1,-0.43054762482643,-0.05919740721583],"type":"VEC3"},{"bufferView":6,"byteOffset":0,"componentType":5126,"count":163,"type":"VEC3"},{"bufferView":7,"byteOffset":0,"componentType":5126,"count":163,"type":"VEC2"}],"asset":{"generator":"FBX2glTF v0.13.1","version":"2.0"},"bufferViews":[{"buffer":0,"byteLength":2352,"byteOffset":0,"target":34963},{"buffer":0,"byteLength":3396,"byteOffset":2352,"target":34962},{"buffer":0,"byteLength":3396,"byteOffset":5748,"target":34962},{"buffer":0,"byteLength":2264,"byteOffset":9144,"target":34962},{"buffer":0,"byteLength":1164,"byteOffset":11408,"target":34963},{"buffer":0,"byteLength":1956,"byteOffset":12572,"target":34962},{"buffer":0,"byteLength":1956,"byteOffset":14528,"target":34962},{"buffer":0,"byteLength":1304,"byteOffset":16484,"target":34962}],"buffers":[{"byteLength":17788,"uri":"FirePipe_07.bin"}],"images":[{"name":"Ventilation_System_A","uri":"Ventilation_System_A.tga"}],"materials":[{"alphaMode":"OPAQUE","doubleSided":false,"extras":{"fromFBX":{"isTruePBR":false,"shadingModel":"Phong"}},"name":"Ventilation_System","pbrMetallicRoughness":{"baseColorFactor":[1,1,1,1],"baseColorTexture":{"index":0,"texCoord":0},"metallicFactor":0.400000005960464,"roughnessFactor":0.272165536880493}}],"meshes":[{"name":"FirePipe_07_LOD0","primitives":[{"attributes":{"NORMAL":2,"POSITION":1,"TEXCOORD_0":3},"indices":0,"material":0,"mode":4}]},{"name":"FirePipe_07_LOD1","primitives":[{"attributes":{"NORMAL":6,"POSITION":5,"TEXCOORD_0":7},"indices":4,"material":0,"mode":4}]}],"nodes":[{"mesh":0,"name":"FirePipe_07_LOD0","rotation":[0,0,0,1],"scale":[1,1,1],"translation":[0,0,0]},{"mesh":1,"name":"FirePipe_07_LOD1","rotation":[0,0,0,1],"scale":[1,1,1],"translation":[0,0,0]}],"samplers":[{}],"scene":0,"scenes":[{"name":"Root Scene","nodes":[0,1]}],"textures":[{"name":"base_color_texture","sampler":0,"source":0}]}