{"accessors":[{"bufferView":0,"byteOffset":0,"componentType":5123,"count":1368,"type":"SCALAR"},{"bufferView":1,"byteOffset":0,"componentType":5126,"count":508,"max":[0.99999988079071,0.401902198791504,0.0646839141845703],"min":[-1,-0.17275983095169,-0.06468391418457],"type":"VEC3"},{"bufferView":2,"byteOffset":0,"componentType":5126,"count":508,"type":"VEC3"},{"bufferView":3,"byteOffset":0,"componentType":5126,"count":508,"type":"VEC2"},{"bufferView":4,"byteOffset":0,"componentType":5123,"count":708,"type":"SCALAR"},{"bufferView":5,"byteOffset":0,"componentType":5126,"count":335,"max":[0.99999988079071,0.401902228593826,0.0646839141845703],"min":[-1,-0.17275983095169,-0.06468380987644],"type":"VEC3"},{"bufferView":6,"byteOffset":0,"componentType":5126,"count":335,"type":"VEC3"},{"bufferView":7,"byteOffset":0,"componentType":5126,"count":335,"type":"VEC2"},{"bufferView":8,"byteOffset":0,"componentType":5123,"count":189,"type":"SCALAR"},{"bufferView":9,"byteOffset":0,"componentType":5126,"count":79,"max":[0.99999988079071,0.0592584535479546,0.0592584833502769],"min":[-1,-0.05919736623764,-0.05919740721583],"type":"VEC3"},{"bufferView":10,"byteOffset":0,"componentType":5126,"count":79,"type":"VEC3"},{"bufferView":11,"byteOffset":0,"componentType":5126,"count":79,"type":"VEC2"}],"asset":{"generator":"FBX2glTF v0.13.1","version":"2.0"},"bufferViews":[{"buffer":0,"byteLength":2736,"byteOffset":0,"target":34963},{"buffer":0,"byteLength":6096,"byteOffset":2736,"target":34962},{"buffer":0,"byteLength":6096,"byteOffset":8832,"target":34962},{"buffer":0,"byteLength":4064,"byteOffset":14928,"target":34962},{"buffer":0,"byteLength":1416,"byteOffset":18992,"target":34963},{"buffer":0,"byteLength":4020,"byteOffset":20408,"target":34962},{"buffer":0,"byteLength":4020,"byteOffset":24428,"target":34962},{"buffer":0,"byteLength":2680,"byteOffset":28448,"target":34962},{"buffer":0,"byteLength":378,"byteOffset":31128,"target":34963},{"buffer":0,"byteLength":948,"byteOffset":31508,"target":34962},{"buffer":0,"byteLength":948,"byteOffset":32456,"target":34962},{"buffer":0,"byteLength":632,"byteOffset":33404,"target":34962}],"buffers":[{"byteLength":34036,"uri":"FirePipe_01.bin"}],"images":[{"name":"Ventilation_System_A","uri":"Ventilation_System_A.tga"}],"materials":[{"alphaMode":"OPAQUE","doubleSided":false,"extras":{"fromFBX":{"isTruePBR":false,"shadingModel":"Phong"}},"name":"Ventilation_System","pbrMetallicRoughness":{"baseColorFactor":[1,1,1,1],"baseColorTexture":{"index":0,"texCoord":0},"metallicFactor":0.400000005960464,"roughnessFactor":0.272165536880493}}],"meshes":[{"name":"FirePipe_01_LOD0","primitives":[{"attributes":{"NORMAL":2,"POSITION":1,"TEXCOORD_0":3},"indices":0,"material":0,"mode":4}]},{"name":"FirePipe_01_LOD1","primitives":[{"attributes":{"NORMAL":6,"POSITION":5,"TEXCOORD_0":7},"indices":4,"material":0,"mode":4}]},{"name":"FirePipe_01_LOD2","primitives":[{"attributes":{"NORMAL":10,"POSITION":9,"TEXCOORD_0":11},"indices":8,"material":0,"mode":4}]}],"nodes":[{"mesh":0,"name":"FirePipe_01_LOD0","rotation":[0,0,0,1],"scale":[1,1,1],"translation":[0,0,0]},{"mesh":1,"name":"FirePipe_01_LOD1","rotation":[0,0,0,1],"scale":[1,1,1],"translation":[0,0,0]},{"mesh":2,"name":"FirePipe_01_LOD2","rotation":[0,0,0,1],"scale":[1,1,1],"translation":[0,0,0]}],"samplers":[{}],"scene":0,"scenes":[{"name":"Root Scene","nodes":[0,1,2]}],"textures":[{"name":"base_color_texture","sampler":0,"source":0}]}