{"accessors":[{"bufferView":0,"byteOffset":0,"componentType":5123,"count":354,"type":"SCALAR"},{"bufferView":1,"byteOffset":0,"componentType":5126,"count":191,"max":[0.0018408769974485,0.0836771354079247,0.0655825138092041],"min":[-0.06493809819221,-0.08367713540792,-0.06563204526901],"type":"VEC3"},{"bufferView":2,"byteOffset":0,"componentType":5126,"count":191,"type":"VEC3"},{"bufferView":3,"byteOffset":0,"componentType":5126,"count":191,"type":"VEC2"}],"asset":{"generator":"FBX2glTF v0.13.1","version":"2.0"},"bufferViews":[{"buffer":0,"byteLength":708,"byteOffset":0,"target":34963},{"buffer":0,"byteLength":2292,"byteOffset":708,"target":34962},{"buffer":0,"byteLength":2292,"byteOffset":3000,"target":34962},{"buffer":0,"byteLength":1528,"byteOffset":5292,"target":34962}],"buffers":[{"byteLength":6820,"uri":"Fire_Fighting.bin"}],"images":[{"name":"Fire_Fighting_A","uri":"Fire_Fighting_A.tga"}],"materials":[{"alphaMode":"OPAQUE","doubleSided":false,"extras":{"fromFBX":{"isTruePBR":false,"shadingModel":"Phong"}},"name":"Fire_Fighting","pbrMetallicRoughness":{"baseColorFactor":[1,1,1,1],"baseColorTexture":{"index":0,"texCoord":0},"metallicFactor":0.400000005960464,"roughnessFactor":0.272165536880493}}],"meshes":[{"name":"Fire_Fighting","primitives":[{"attributes":{"NORMAL":2,"POSITION":1,"TEXCOORD_0":3},"indices":0,"material":0,"mode":4}]}],"nodes":[{"mesh":0,"name":"Fire_Fighting","rotation":[0,0,0,1],"scale":[1,1,1],"translation":[0,0,0]}],"samplers":[{}],"scene":0,"scenes":[{"name":"Root Scene","nodes":[0]}],"textures":[{"name":"base_color_texture","sampler":0,"source":0}]}