{"accessors":[{"bufferView":0,"byteOffset":0,"componentType":5123,"count":336,"type":"SCALAR"},{"bufferView":1,"byteOffset":0,"componentType":5126,"count":118,"max":[-0.00000005960464,0.0589529871940613,0.0589535646140575],"min":[-1,-0.05895298719406,-0.05895303189754],"type":"VEC3"},{"bufferView":2,"byteOffset":0,"componentType":5126,"count":118,"type":"VEC3"},{"bufferView":3,"byteOffset":0,"componentType":5126,"count":118,"type":"VEC2"}],"asset":{"generator":"FBX2glTF v0.13.1","version":"2.0"},"bufferViews":[{"buffer":0,"byteLength":672,"byteOffset":0,"target":34963},{"buffer":0,"byteLength":1416,"byteOffset":672,"target":34962},{"buffer":0,"byteLength":1416,"byteOffset":2088,"target":34962},{"buffer":0,"byteLength":944,"byteOffset":3504,"target":34962}],"buffers":[{"byteLength":4448,"uri":"FirePipe_06.bin"}],"images":[{"name":"Ventilation_System_A","uri":"Ventilation_System_A.tga"}],"materials":[{"alphaMode":"OPAQUE","doubleSided":false,"extras":{"fromFBX":{"isTruePBR":false,"shadingModel":"Phong"}},"name":"Ventilation_System","pbrMetallicRoughness":{"baseColorFactor":[1,1,1,1],"baseColorTexture":{"index":0,"texCoord":0},"metallicFactor":0.400000005960464,"roughnessFactor":0.272165536880493}}],"meshes":[{"name":"FirePipe_06","primitives":[{"attributes":{"NORMAL":2,"POSITION":1,"TEXCOORD_0":3},"indices":0,"material":0,"mode":4}]}],"nodes":[{"mesh":0,"name":"FirePipe_06","rotation":[0,0,0,1],"scale":[1,1,1],"translation":[0,0,0]}],"samplers":[{}],"scene":0,"scenes":[{"name":"Root Scene","nodes":[0]}],"textures":[{"name":"base_color_texture","sampler":0,"source":0}]}