{"accessors":[{"bufferView":0,"byteOffset":0,"componentType":5123,"count":1512,"type":"SCALAR"},{"bufferView":1,"byteOffset":0,"componentType":5126,"count":384,"max":[0.5,0.0589529871940613,0.558953046798706],"min":[-0.5,-0.05895298719406,-0.55895304679871],"type":"VEC3"},{"bufferView":2,"byteOffset":0,"componentType":5126,"count":384,"type":"VEC3"},{"bufferView":3,"byteOffset":0,"componentType":5126,"count":384,"type":"VEC2"},{"bufferView":4,"byteOffset":0,"componentType":5123,"count":768,"type":"SCALAR"},{"bufferView":5,"byteOffset":0,"componentType":5126,"count":210,"max":[0.5,0.0589529871940613,0.559258580207825],"min":[-0.5,-0.0593649558723,-0.55925858020783],"type":"VEC3"},{"bufferView":6,"byteOffset":0,"componentType":5126,"count":210,"type":"VEC3"},{"bufferView":7,"byteOffset":0,"componentType":5126,"count":210,"type":"VEC2"},{"bufferView":8,"byteOffset":0,"componentType":5123,"count":339,"type":"SCALAR"},{"bufferView":9,"byteOffset":0,"componentType":5126,"count":160,"max":[0.500035405158997,0.0695159211754799,0.559258580207825],"min":[-0.50088620185852,-0.06326293945312,-0.55925858020783],"type":"VEC3"},{"bufferView":10,"byteOffset":0,"componentType":5126,"count":160,"type":"VEC3"},{"bufferView":11,"byteOffset":0,"componentType":5126,"count":160,"type":"VEC2"}],"asset":{"generator":"FBX2glTF v0.13.1","version":"2.0"},"bufferViews":[{"buffer":0,"byteLength":3024,"byteOffset":0,"target":34963},{"buffer":0,"byteLength":4608,"byteOffset":3024,"target":34962},{"buffer":0,"byteLength":4608,"byteOffset":7632,"target":34962},{"buffer":0,"byteLength":3072,"byteOffset":12240,"target":34962},{"buffer":0,"byteLength":1536,"byteOffset":15312,"target":34963},{"buffer":0,"byteLength":2520,"byteOffset":16848,"target":34962},{"buffer":0,"byteLength":2520,"byteOffset":19368,"target":34962},{"buffer":0,"byteLength":1680,"byteOffset":21888,"target":34962},{"buffer":0,"byteLength":678,"byteOffset":23568,"target":34963},{"buffer":0,"byteLength":1920,"byteOffset":24248,"target":34962},{"buffer":0,"byteLength":1920,"byteOffset":26168,"target":34962},{"buffer":0,"byteLength":1280,"byteOffset":28088,"target":34962}],"buffers":[{"byteLength":29368,"uri":"FirePipe_02.bin"}],"images":[{"name":"Ventilation_System_A","uri":"Ventilation_System_A.tga"}],"materials":[{"alphaMode":"OPAQUE","doubleSided":false,"extras":{"fromFBX":{"isTruePBR":false,"shadingModel":"Phong"}},"name":"Ventilation_System","pbrMetallicRoughness":{"baseColorFactor":[1,1,1,1],"baseColorTexture":{"index":0,"texCoord":0},"metallicFactor":0.400000005960464,"roughnessFactor":0.272165536880493}}],"meshes":[{"name":"FirePipe_02_LOD0","primitives":[{"attributes":{"NORMAL":2,"POSITION":1,"TEXCOORD_0":3},"indices":0,"material":0,"mode":4}]},{"name":"FirePipe_02_LOD1","primitives":[{"attributes":{"NORMAL":6,"POSITION":5,"TEXCOORD_0":7},"indices":4,"material":0,"mode":4}]},{"name":"FirePipe_02_LOD2","primitives":[{"attributes":{"NORMAL":10,"POSITION":9,"TEXCOORD_0":11},"indices":8,"material":0,"mode":4}]}],"nodes":[{"mesh":0,"name":"FirePipe_02_LOD0","rotation":[0,0,0,1],"scale":[1,1,1],"translation":[0,0,0]},{"mesh":1,"name":"FirePipe_02_LOD1","rotation":[0,0,0,1],"scale":[1,1,1],"translation":[0,0,0]},{"mesh":2,"name":"FirePipe_02_LOD2","rotation":[0,0,0,1],"scale":[1,1,1],"translation":[0,0,0]}],"samplers":[{}],"scene":0,"scenes":[{"name":"Root Scene","nodes":[0,1,2]}],"textures":[{"name":"base_color_texture","sampler":0,"source":0}]}