{"accessors":[{"bufferView":0,"byteOffset":0,"componentType":5123,"count":1626,"type":"SCALAR"},{"bufferView":1,"byteOffset":0,"componentType":5126,"count":589,"max":[1,0.401902198791504,1],"min":[-1,-0.17275983095169,-0.05895303189754],"type":"VEC3"},{"bufferView":2,"byteOffset":0,"componentType":5126,"count":589,"type":"VEC3"},{"bufferView":3,"byteOffset":0,"componentType":5126,"count":589,"type":"VEC2"},{"bufferView":4,"byteOffset":0,"componentType":5123,"count":843,"type":"SCALAR"},{"bufferView":5,"byteOffset":0,"componentType":5126,"count":391,"max":[1,0.401902228593826,1],"min":[-1,-0.17275983095169,-0.05919740721583],"type":"VEC3"},{"bufferView":6,"byteOffset":0,"componentType":5126,"count":391,"type":"VEC3"},{"bufferView":7,"byteOffset":0,"componentType":5126,"count":391,"type":"VEC2"},{"bufferView":8,"byteOffset":0,"componentType":5123,"count":321,"type":"SCALAR"},{"bufferView":9,"byteOffset":0,"componentType":5126,"count":132,"max":[1,0.0592584535479546,1],"min":[-1,-0.05919736623764,-0.05919740721583],"type":"VEC3"},{"bufferView":10,"byteOffset":0,"componentType":5126,"count":132,"type":"VEC3"},{"bufferView":11,"byteOffset":0,"componentType":5126,"count":132,"type":"VEC2"}],"asset":{"generator":"FBX2glTF v0.13.1","version":"2.0"},"bufferViews":[{"buffer":0,"byteLength":3252,"byteOffset":0,"target":34963},{"buffer":0,"byteLength":7068,"byteOffset":3252,"target":34962},{"buffer":0,"byteLength":7068,"byteOffset":10320,"target":34962},{"buffer":0,"byteLength":4712,"byteOffset":17388,"target":34962},{"buffer":0,"byteLength":1686,"byteOffset":22100,"target":34963},{"buffer":0,"byteLength":4692,"byteOffset":23788,"target":34962},{"buffer":0,"byteLength":4692,"byteOffset":28480,"target":34962},{"buffer":0,"byteLength":3128,"byteOffset":33172,"target":34962},{"buffer":0,"byteLength":642,"byteOffset":36300,"target":34963},{"buffer":0,"byteLength":1584,"byteOffset":36944,"target":34962},{"buffer":0,"byteLength":1584,"byteOffset":38528,"target":34962},{"buffer":0,"byteLength":1056,"byteOffset":40112,"target":34962}],"buffers":[{"byteLength":41168,"uri":"FirePipe_03.bin"}],"images":[{"name":"Ventilation_System_A","uri":"Ventilation_System_A.tga"}],"materials":[{"alphaMode":"OPAQUE","doubleSided":false,"extras":{"fromFBX":{"isTruePBR":false,"shadingModel":"Phong"}},"name":"Ventilation_System","pbrMetallicRoughness":{"baseColorFactor":[1,1,1,1],"baseColorTexture":{"index":0,"texCoord":0},"metallicFactor":0.400000005960464,"roughnessFactor":0.272165536880493}}],"meshes":[{"name":"FirePipe_03_LOD0","primitives":[{"attributes":{"NORMAL":2,"POSITION":1,"TEXCOORD_0":3},"indices":0,"material":0,"mode":4}]},{"name":"FirePipe_03_LOD1","primitives":[{"attributes":{"NORMAL":6,"POSITION":5,"TEXCOORD_0":7},"indices":4,"material":0,"mode":4}]},{"name":"FirePipe_03_LOD2","primitives":[{"attributes":{"NORMAL":10,"POSITION":9,"TEXCOORD_0":11},"indices":8,"material":0,"mode":4}]}],"nodes":[{"mesh":0,"name":"FirePipe_03_LOD0","rotation":[0,0,0,1],"scale":[1,1,1],"translation":[0,0,0]},{"mesh":1,"name":"FirePipe_03_LOD1","rotation":[0,0,0,1],"scale":[1,1,1],"translation":[0,0,0]},{"mesh":2,"name":"FirePipe_03_LOD2","rotation":[0,0,0,1],"scale":[1,1,1],"translation":[0,0,0]}],"samplers":[{}],"scene":0,"scenes":[{"name":"Root Scene","nodes":[0,1,2]}],"textures":[{"name":"base_color_texture","sampler":0,"source":0}]}