{"accessors":[{"bufferView":0,"byteOffset":0,"componentType":5123,"count":756,"type":"SCALAR"},{"bufferView":1,"byteOffset":0,"componentType":5126,"count":195,"max":[0.0000000192093345674493,0.0589529871940613,0.5],"min":[-0.55895274877548,-0.05895298719406,-0.05895300209522],"type":"VEC3"},{"bufferView":2,"byteOffset":0,"componentType":5126,"count":195,"type":"VEC3"},{"bufferView":3,"byteOffset":0,"componentType":5126,"count":195,"type":"VEC2"},{"bufferView":4,"byteOffset":0,"componentType":5123,"count":345,"type":"SCALAR"},{"bufferView":5,"byteOffset":0,"componentType":5126,"count":113,"max":[0.0000000192237816776242,0.0592584498226643,0.5],"min":[-0.55895274877548,-0.05919736623764,-0.05925848707557],"type":"VEC3"},{"bufferView":6,"byteOffset":0,"componentType":5126,"count":113,"type":"VEC3"},{"bufferView":7,"byteOffset":0,"componentType":5126,"count":113,"type":"VEC2"}],"asset":{"generator":"FBX2glTF v0.13.1","version":"2.0"},"bufferViews":[{"buffer":0,"byteLength":1512,"byteOffset":0,"target":34963},{"buffer":0,"byteLength":2340,"byteOffset":1512,"target":34962},{"buffer":0,"byteLength":2340,"byteOffset":3852,"target":34962},{"buffer":0,"byteLength":1560,"byteOffset":6192,"target":34962},{"buffer":0,"byteLength":690,"byteOffset":7752,"target":34963},{"buffer":0,"byteLength":1356,"byteOffset":8444,"target":34962},{"buffer":0,"byteLength":1356,"byteOffset":9800,"target":34962},{"buffer":0,"byteLength":904,"byteOffset":11156,"target":34962}],"buffers":[{"byteLength":12060,"uri":"FirePipe_04.bin"}],"images":[{"name":"Ventilation_System_A","uri":"Ventilation_System_A.tga"}],"materials":[{"alphaMode":"OPAQUE","doubleSided":false,"extras":{"fromFBX":{"isTruePBR":false,"shadingModel":"Phong"}},"name":"Ventilation_System","pbrMetallicRoughness":{"baseColorFactor":[1,1,1,1],"baseColorTexture":{"index":0,"texCoord":0},"metallicFactor":0.400000005960464,"roughnessFactor":0.272165536880493}}],"meshes":[{"name":"FirePipe_04_LOD0","primitives":[{"attributes":{"NORMAL":2,"POSITION":1,"TEXCOORD_0":3},"indices":0,"material":0,"mode":4}]},{"name":"FirePipe_04_LOD1","primitives":[{"attributes":{"NORMAL":6,"POSITION":5,"TEXCOORD_0":7},"indices":4,"material":0,"mode":4}]}],"nodes":[{"mesh":0,"name":"FirePipe_04_LOD0","rotation":[0,0,0,1],"scale":[1,1,1],"translation":[0,0,0]},{"mesh":1,"name":"FirePipe_04_LOD1","rotation":[0,0,0,1],"scale":[1,1,1],"translation":[0,0,0]}],"samplers":[{}],"scene":0,"scenes":[{"name":"Root Scene","nodes":[0,1]}],"textures":[{"name":"base_color_texture","sampler":0,"source":0}]}