{"accessors":[{"bufferView":0,"byteOffset":0,"componentType":5123,"count":960,"type":"SCALAR"},{"bufferView":1,"byteOffset":0,"componentType":5126,"count":284,"max":[0.00538132200017571,0.0912404358386993,0.0912405177950859],"min":[-0.06464976072311,-0.08022078126669,-0.07390964031219],"type":"VEC3"},{"bufferView":2,"byteOffset":0,"componentType":5126,"count":284,"type":"VEC3"},{"bufferView":3,"byteOffset":0,"componentType":5126,"count":284,"type":"VEC2"},{"bufferView":4,"byteOffset":0,"componentType":5123,"count":366,"type":"SCALAR"},{"bufferView":5,"byteOffset":0,"componentType":5126,"count":118,"max":[0.00538132200017571,0.0919612646102905,0.0919613167643547],"min":[-0.06475830823183,-0.08040837198496,-0.07322105765343],"type":"VEC3"},{"bufferView":6,"byteOffset":0,"componentType":5126,"count":118,"type":"VEC3"},{"bufferView":7,"byteOffset":0,"componentType":5126,"count":118,"type":"VEC2"}],"asset":{"generator":"FBX2glTF v0.13.1","version":"2.0"},"bufferViews":[{"buffer":0,"byteLength":1920,"byteOffset":0,"target":34963},{"buffer":0,"byteLength":3408,"byteOffset":1920,"target":34962},{"buffer":0,"byteLength":3408,"byteOffset":5328,"target":34962},{"buffer":0,"byteLength":2272,"byteOffset":8736,"target":34962},{"buffer":0,"byteLength":732,"byteOffset":11008,"target":34963},{"buffer":0,"byteLength":1416,"byteOffset":11740,"target":34962},{"buffer":0,"byteLength":1416,"byteOffset":13156,"target":34962},{"buffer":0,"byteLength":944,"byteOffset":14572,"target":34962}],"buffers":[{"byteLength":15516,"uri":"Fire_Call.bin"}],"images":[{"name":"Fire_Fighting_A","uri":"Fire_Fighting_A.tga"}],"materials":[{"alphaMode":"OPAQUE","doubleSided":false,"extras":{"fromFBX":{"isTruePBR":false,"shadingModel":"Phong"}},"name":"Fire_Fighting","pbrMetallicRoughness":{"baseColorFactor":[1,1,1,1],"baseColorTexture":{"index":0,"texCoord":0},"metallicFactor":0.400000005960464,"roughnessFactor":0.272165536880493}}],"meshes":[{"name":"Fire_Call_LOD0","primitives":[{"attributes":{"NORMAL":2,"POSITION":1,"TEXCOORD_0":3},"indices":0,"material":0,"mode":4}]},{"name":"Fire_Call_LOD1","primitives":[{"attributes":{"NORMAL":6,"POSITION":5,"TEXCOORD_0":7},"indices":4,"material":0,"mode":4}]}],"nodes":[{"mesh":0,"name":"Fire_Call_LOD0","rotation":[0,0,0,1],"scale":[1,1,1],"translation":[0,0,0]},{"mesh":1,"name":"Fire_Call_LOD1","rotation":[0,0,0,1],"scale":[1,1,1],"translation":[0,0,0]}],"samplers":[{}],"scene":0,"scenes":[{"name":"Root Scene","nodes":[0,1]}],"textures":[{"name":"base_color_texture","sampler":0,"source":0}]}