{"accessors":[{"bufferView":0,"byteOffset":0,"componentType":5123,"count":1020,"type":"SCALAR"},{"bufferView":1,"byteOffset":0,"componentType":5126,"count":264,"max":[0.327362477779388,0.372346937656403,0.0492459125816822],"min":[-0.01093657221645,-0.00004233419895,-0.03832006454468],"type":"VEC3"},{"bufferView":2,"byteOffset":0,"componentType":5126,"count":264,"type":"VEC3"},{"bufferView":3,"byteOffset":0,"componentType":5126,"count":264,"type":"VEC2"},{"bufferView":4,"byteOffset":0,"componentType":5123,"count":294,"type":"SCALAR"},{"bufferView":5,"byteOffset":0,"componentType":5126,"count":143,"max":[0.327375560998917,0.372343897819519,0.0485697723925114],"min":[-0.00859038904309,-0.00003905776248,-0.03611383959651],"type":"VEC3"},{"bufferView":6,"byteOffset":0,"componentType":5126,"count":143,"type":"VEC3"},{"bufferView":7,"byteOffset":0,"componentType":5126,"count":143,"type":"VEC2"}],"asset":{"generator":"FBX2glTF v0.13.1","version":"2.0"},"bufferViews":[{"buffer":0,"byteLength":2040,"byteOffset":0,"target":34963},{"buffer":0,"byteLength":3168,"byteOffset":2040,"target":34962},{"buffer":0,"byteLength":3168,"byteOffset":5208,"target":34962},{"buffer":0,"byteLength":2112,"byteOffset":8376,"target":34962},{"buffer":0,"byteLength":588,"byteOffset":10488,"target":34963},{"buffer":0,"byteLength":1716,"byteOffset":11076,"target":34962},{"buffer":0,"byteLength":1716,"byteOffset":12792,"target":34962},{"buffer":0,"byteLength":1144,"byteOffset":14508,"target":34962}],"buffers":[{"byteLength":15652,"uri":"Folder_03.bin"}],"images":[{"name":"Stationery_A","uri":"Stationery_A.tga"}],"materials":[{"alphaMode":"OPAQUE","doubleSided":false,"extras":{"fromFBX":{"isTruePBR":false,"shadingModel":"Phong"}},"name":"Stationery","pbrMetallicRoughness":{"baseColorFactor":[1,1,1,1],"baseColorTexture":{"index":0,"texCoord":0},"metallicFactor":0.400000005960464,"roughnessFactor":0.272165536880493}}],"meshes":[{"name":"Folder_03_LOD0","primitives":[{"attributes":{"NORMAL":2,"POSITION":1,"TEXCOORD_0":3},"indices":0,"material":0,"mode":4}]},{"name":"Folder_03_LOD1","primitives":[{"attributes":{"NORMAL":6,"POSITION":5,"TEXCOORD_0":7},"indices":4,"material":0,"mode":4}]}],"nodes":[{"mesh":0,"name":"Folder_03_LOD0","rotation":[0,0,0,1],"scale":[1,1,1],"translation":[0,0,0]},{"mesh":1,"name":"Folder_03_LOD1","rotation":[0,0,0,1],"scale":[1,1,1],"translation":[0,0,0]}],"samplers":[{}],"scene":0,"scenes":[{"name":"Root Scene","nodes":[0,1]}],"textures":[{"name":"base_color_texture","sampler":0,"source":0}]}