{"accessors":[{"bufferView":0,"byteOffset":0,"componentType":5123,"count":516,"type":"SCALAR"},{"bufferView":1,"byteOffset":0,"componentType":5126,"count":186,"max":[0.219600021839142,0.0606575012207031,0.151234403252602],"min":[-0.2197762876749,-0.00257611274719,-0.15167798101902],"type":"VEC3"},{"bufferView":2,"byteOffset":0,"componentType":5126,"count":186,"type":"VEC3"},{"bufferView":3,"byteOffset":0,"componentType":5126,"count":186,"type":"VEC2"},{"bufferView":4,"byteOffset":0,"componentType":5123,"count":222,"type":"SCALAR"},{"bufferView":5,"byteOffset":0,"componentType":5126,"count":102,"max":[0.219687834382057,0.0603788904845715,0.151234418153763],"min":[-0.21974958479404,-0.00158025708515,-0.15182581543922],"type":"VEC3"},{"bufferView":6,"byteOffset":0,"componentType":5126,"count":102,"type":"VEC3"},{"bufferView":7,"byteOffset":0,"componentType":5126,"count":102,"type":"VEC2"}],"asset":{"generator":"FBX2glTF v0.13.1","version":"2.0"},"bufferViews":[{"buffer":0,"byteLength":1032,"byteOffset":0,"target":34963},{"buffer":0,"byteLength":2232,"byteOffset":1032,"target":34962},{"buffer":0,"byteLength":2232,"byteOffset":3264,"target":34962},{"buffer":0,"byteLength":1488,"byteOffset":5496,"target":34962},{"buffer":0,"byteLength":444,"byteOffset":6984,"target":34963},{"buffer":0,"byteLength":1224,"byteOffset":7428,"target":34962},{"buffer":0,"byteLength":1224,"byteOffset":8652,"target":34962},{"buffer":0,"byteLength":816,"byteOffset":9876,"target":34962}],"buffers":[{"byteLength":10692,"uri":"Folder_01.bin"}],"images":[{"name":"Stationery_A","uri":"Stationery_A.tga"}],"materials":[{"alphaMode":"OPAQUE","doubleSided":false,"extras":{"fromFBX":{"isTruePBR":false,"shadingModel":"Phong"}},"name":"Stationery","pbrMetallicRoughness":{"baseColorFactor":[1,1,1,1],"baseColorTexture":{"index":0,"texCoord":0},"metallicFactor":0.400000005960464,"roughnessFactor":0.272165536880493}}],"meshes":[{"name":"Folder_01_LOD0","primitives":[{"attributes":{"NORMAL":2,"POSITION":1,"TEXCOORD_0":3},"indices":0,"material":0,"mode":4}]},{"name":"Folder_01_LOD1","primitives":[{"attributes":{"NORMAL":6,"POSITION":5,"TEXCOORD_0":7},"indices":4,"material":0,"mode":4}]}],"nodes":[{"mesh":0,"name":"Folder_01_LOD0","rotation":[0,0,0,1],"scale":[1,1,1],"translation":[0,0,0]},{"mesh":1,"name":"Folder_01_LOD1","rotation":[0,0,0,1],"scale":[1,1,1],"translation":[0,0,0]}],"samplers":[{}],"scene":0,"scenes":[{"name":"Root Scene","nodes":[0,1]}],"textures":[{"name":"base_color_texture","sampler":0,"source":0}]}