{"accessors":[{"bufferView":0,"byteOffset":0,"componentType":5123,"count":1140,"type":"SCALAR"},{"bufferView":1,"byteOffset":0,"componentType":5126,"count":324,"max":[0.261841773986816,0.0450929254293442,0.146396994590759],"min":[-0.17676687240601,-0.00607178080827,-0.15526759624481],"type":"VEC3"},{"bufferView":2,"byteOffset":0,"componentType":5126,"count":324,"type":"VEC3"},{"bufferView":3,"byteOffset":0,"componentType":5126,"count":324,"type":"VEC2"},{"bufferView":4,"byteOffset":0,"componentType":5123,"count":228,"type":"SCALAR"},{"bufferView":5,"byteOffset":0,"componentType":5126,"count":76,"max":[0.261841773986816,0.0450929254293442,0.146396994590759],"min":[-0.17676687240601,-0.00542117515579,-0.15526759624481],"type":"VEC3"},{"bufferView":6,"byteOffset":0,"componentType":5126,"count":76,"type":"VEC3"},{"bufferView":7,"byteOffset":0,"componentType":5126,"count":76,"type":"VEC2"}],"asset":{"generator":"FBX2glTF v0.13.1","version":"2.0"},"bufferViews":[{"buffer":0,"byteLength":2280,"byteOffset":0,"target":34963},{"buffer":0,"byteLength":3888,"byteOffset":2280,"target":34962},{"buffer":0,"byteLength":3888,"byteOffset":6168,"target":34962},{"buffer":0,"byteLength":2592,"byteOffset":10056,"target":34962},{"buffer":0,"byteLength":456,"byteOffset":12648,"target":34963},{"buffer":0,"byteLength":912,"byteOffset":13104,"target":34962},{"buffer":0,"byteLength":912,"byteOffset":14016,"target":34962},{"buffer":0,"byteLength":608,"byteOffset":14928,"target":34962}],"buffers":[{"byteLength":15536,"uri":"Folder_02.bin"}],"images":[{"name":"Stationery_A","uri":"Stationery_A.tga"}],"materials":[{"alphaMode":"OPAQUE","doubleSided":false,"extras":{"fromFBX":{"isTruePBR":false,"shadingModel":"Phong"}},"name":"Stationery","pbrMetallicRoughness":{"baseColorFactor":[1,1,1,1],"baseColorTexture":{"index":0,"texCoord":0},"metallicFactor":0.400000005960464,"roughnessFactor":0.272165536880493}}],"meshes":[{"name":"Folder_02_LOD0","primitives":[{"attributes":{"NORMAL":2,"POSITION":1,"TEXCOORD_0":3},"indices":0,"material":0,"mode":4}]},{"name":"Folder_02_LOD1","primitives":[{"attributes":{"NORMAL":6,"POSITION":5,"TEXCOORD_0":7},"indices":4,"material":0,"mode":4}]}],"nodes":[{"mesh":0,"name":"Folder_02_LOD0","rotation":[0,0,0,1],"scale":[1,1,1],"translation":[0,0,0]},{"mesh":1,"name":"Folder_02_LOD1","rotation":[0,0,0,1],"scale":[1,1,1],"translation":[0,0,0]}],"samplers":[{}],"scene":0,"scenes":[{"name":"Root Scene","nodes":[0,1]}],"textures":[{"name":"base_color_texture","sampler":0,"source":0}]}