{"accessors":[{"bufferView":0,"byteOffset":0,"componentType":5123,"count":1020,"type":"SCALAR"},{"bufferView":1,"byteOffset":0,"componentType":5126,"count":264,"max":[0.327239900827408,0.374156326055527,0.0497817285358906],"min":[-0.01105923764408,0.0016441490733996,-0.03744851797819],"type":"VEC3"},{"bufferView":2,"byteOffset":0,"componentType":5126,"count":264,"type":"VEC3"},{"bufferView":3,"byteOffset":0,"componentType":5126,"count":264,"type":"VEC2"},{"bufferView":4,"byteOffset":0,"componentType":5123,"count":252,"type":"SCALAR"},{"bufferView":5,"byteOffset":0,"componentType":5126,"count":141,"max":[0.327259451150894,0.374148547649384,0.0492064692080021],"min":[-0.00871310941875,0.00165201141498983,-0.0352422632277],"type":"VEC3"},{"bufferView":6,"byteOffset":0,"componentType":5126,"count":141,"type":"VEC3"},{"bufferView":7,"byteOffset":0,"componentType":5126,"count":141,"type":"VEC2"}],"asset":{"generator":"FBX2glTF v0.13.1","version":"2.0"},"bufferViews":[{"buffer":0,"byteLength":2040,"byteOffset":0,"target":34963},{"buffer":0,"byteLength":3168,"byteOffset":2040,"target":34962},{"buffer":0,"byteLength":3168,"byteOffset":5208,"target":34962},{"buffer":0,"byteLength":2112,"byteOffset":8376,"target":34962},{"buffer":0,"byteLength":504,"byteOffset":10488,"target":34963},{"buffer":0,"byteLength":1692,"byteOffset":10992,"target":34962},{"buffer":0,"byteLength":1692,"byteOffset":12684,"target":34962},{"buffer":0,"byteLength":1128,"byteOffset":14376,"target":34962}],"buffers":[{"byteLength":15504,"uri":"Folder_04.bin"}],"images":[{"name":"Stationery_A","uri":"Stationery_A.tga"}],"materials":[{"alphaMode":"OPAQUE","doubleSided":false,"extras":{"fromFBX":{"isTruePBR":false,"shadingModel":"Phong"}},"name":"Stationery","pbrMetallicRoughness":{"baseColorFactor":[1,1,1,1],"baseColorTexture":{"index":0,"texCoord":0},"metallicFactor":0.400000005960464,"roughnessFactor":0.272165536880493}}],"meshes":[{"name":"Folder_04_LOD0","primitives":[{"attributes":{"NORMAL":2,"POSITION":1,"TEXCOORD_0":3},"indices":0,"material":0,"mode":4}]},{"name":"Folder_04_LOD1","primitives":[{"attributes":{"NORMAL":6,"POSITION":5,"TEXCOORD_0":7},"indices":4,"material":0,"mode":4}]}],"nodes":[{"mesh":0,"name":"Folder_04_LOD0","rotation":[0,0,0,1],"scale":[1,1,1],"translation":[0,0,0]},{"mesh":1,"name":"Folder_04_LOD1","rotation":[0,0,0,1],"scale":[1,1,1],"translation":[0,0,0]}],"samplers":[{}],"scene":0,"scenes":[{"name":"Root Scene","nodes":[0,1]}],"textures":[{"name":"base_color_texture","sampler":0,"source":0}]}