{"accessors":[{"bufferView":0,"byteOffset":0,"componentType":5123,"count":4320,"type":"SCALAR"},{"bufferView":1,"byteOffset":0,"componentType":5126,"count":909,"max":[0.310699552297592,0.00653427466750145,0.310699462890625],"min":[-0.31069955229759,-1.15797507762909,-0.31069946289062],"type":"VEC3"},{"bufferView":2,"byteOffset":0,"componentType":5126,"count":909,"type":"VEC3"},{"bufferView":3,"byteOffset":0,"componentType":5126,"count":909,"type":"VEC2"},{"bufferView":4,"byteOffset":0,"componentType":5123,"count":2079,"type":"SCALAR"},{"bufferView":5,"byteOffset":0,"componentType":5126,"count":463,"max":[0.310699552297592,0.00653429189696908,0.310699462890625],"min":[-0.31069955229759,-1.15858364105225,-0.31118822097778],"type":"VEC3"},{"bufferView":6,"byteOffset":0,"componentType":5126,"count":463,"type":"VEC3"},{"bufferView":7,"byteOffset":0,"componentType":5126,"count":463,"type":"VEC2"},{"bufferView":8,"byteOffset":0,"componentType":5123,"count":645,"type":"SCALAR"},{"bufferView":9,"byteOffset":0,"componentType":5126,"count":184,"max":[0.310908526182175,0.006895387545228,0.309891879558563],"min":[-0.31008890271187,-1.1538360118866,-0.29956731200218],"type":"VEC3"},{"bufferView":10,"byteOffset":0,"componentType":5126,"count":184,"type":"VEC3"},{"bufferView":11,"byteOffset":0,"componentType":5126,"count":184,"type":"VEC2"}],"asset":{"generator":"FBX2glTF v0.13.1","version":"2.0"},"bufferViews":[{"buffer":0,"byteLength":8640,"byteOffset":0,"target":34963},{"buffer":0,"byteLength":10908,"byteOffset":8640,"target":34962},{"buffer":0,"byteLength":10908,"byteOffset":19548,"target":34962},{"buffer":0,"byteLength":7272,"byteOffset":30456,"target":34962},{"buffer":0,"byteLength":4158,"byteOffset":37728,"target":34963},{"buffer":0,"byteLength":5556,"byteOffset":41888,"target":34962},{"buffer":0,"byteLength":5556,"byteOffset":47444,"target":34962},{"buffer":0,"byteLength":3704,"byteOffset":53000,"target":34962},{"buffer":0,"byteLength":1290,"byteOffset":56704,"target":34963},{"buffer":0,"byteLength":2208,"byteOffset":57996,"target":34962},{"buffer":0,"byteLength":2208,"byteOffset":60204,"target":34962},{"buffer":0,"byteLength":1472,"byteOffset":62412,"target":34962}],"buffers":[{"byteLength":63884,"uri":"Lamp_04.bin"}],"images":[{"name":"Urn_A","uri":"Urn_A.tga"}],"materials":[{"alphaMode":"OPAQUE","doubleSided":false,"extras":{"fromFBX":{"isTruePBR":false,"shadingModel":"Phong"}},"name":"Urn","pbrMetallicRoughness":{"baseColorFactor":[1,1,1,1],"baseColorTexture":{"index":0,"texCoord":0},"metallicFactor":0.400000005960464,"roughnessFactor":0.272165536880493}}],"meshes":[{"name":"Lamp_04_LOD0","primitives":[{"attributes":{"NORMAL":2,"POSITION":1,"TEXCOORD_0":3},"indices":0,"material":0,"mode":4}]},{"name":"Lamp_04_LOD1","primitives":[{"attributes":{"NORMAL":6,"POSITION":5,"TEXCOORD_0":7},"indices":4,"material":0,"mode":4}]},{"name":"Lamp_04_LOD2","primitives":[{"attributes":{"NORMAL":10,"POSITION":9,"TEXCOORD_0":11},"indices":8,"material":0,"mode":4}]}],"nodes":[{"mesh":0,"name":"Lamp_04_LOD0","rotation":[0,0,0,1],"scale":[1,1,1],"translation":[0,0,0]},{"mesh":1,"name":"Lamp_04_LOD1","rotation":[0,0,0,1],"scale":[1,1,1],"translation":[0,0,0]},{"mesh":2,"name":"Lamp_04_LOD2","rotation":[0,0,0,1],"scale":[1,1,1],"translation":[0,0,0]}],"samplers":[{}],"scene":0,"scenes":[{"name":"Root Scene","nodes":[0,1,2]}],"textures":[{"name":"base_color_texture","sampler":0,"source":0}]}