{"accessors":[{"bufferView":0,"byteOffset":0,"componentType":5123,"count":3384,"type":"SCALAR"},{"bufferView":1,"byteOffset":0,"componentType":5126,"count":771,"max":[0.00301414984278381,0.0939541161060333,0.204097434878349],"min":[-0.09944313764572,-0.09625650942326,-0.20384365320206],"type":"VEC3"},{"bufferView":2,"byteOffset":0,"componentType":5126,"count":771,"type":"VEC3"},{"bufferView":3,"byteOffset":0,"componentType":5126,"count":771,"type":"VEC2"},{"bufferView":4,"byteOffset":0,"componentType":5123,"count":1662,"type":"SCALAR"},{"bufferView":5,"byteOffset":0,"componentType":5126,"count":452,"max":[0.00301414984278381,0.0939541161060333,0.204097434878349],"min":[-0.09873086959124,-0.09625650942326,-0.20384365320206],"type":"VEC3"},{"bufferView":6,"byteOffset":0,"componentType":5126,"count":452,"type":"VEC3"},{"bufferView":7,"byteOffset":0,"componentType":5126,"count":452,"type":"VEC2"},{"bufferView":8,"byteOffset":0,"componentType":5123,"count":372,"type":"SCALAR"},{"bufferView":9,"byteOffset":0,"componentType":5126,"count":110,"max":[0.00314439460635185,0.0931082293391228,0.206420302391052],"min":[-0.08900763094425,-0.09528164565563,-0.20616655051708],"type":"VEC3"},{"bufferView":10,"byteOffset":0,"componentType":5126,"count":110,"type":"VEC3"},{"bufferView":11,"byteOffset":0,"componentType":5126,"count":110,"type":"VEC2"},{"bufferView":12,"byteOffset":0,"componentType":5123,"count":510,"type":"SCALAR"},{"bufferView":13,"byteOffset":0,"componentType":5126,"count":96,"max":[-0.02908435277641,0.0597740821540356,0.161242306232452],"min":[-0.08996152877808,-0.0655904263258,-0.15794724225998],"type":"VEC3"},{"bufferView":14,"byteOffset":0,"componentType":5126,"count":96,"type":"VEC3"},{"bufferView":15,"byteOffset":0,"componentType":5126,"count":96,"type":"VEC2"},{"bufferView":16,"byteOffset":0,"componentType":5123,"count":228,"type":"SCALAR"},{"bufferView":17,"byteOffset":0,"componentType":5126,"count":47,"max":[-0.02908628620207,0.0605886094272137,0.162056848406792],"min":[-0.0885339602828,-0.06640497595072,-0.15876179933548],"type":"VEC3"},{"bufferView":18,"byteOffset":0,"componentType":5126,"count":47,"type":"VEC3"},{"bufferView":19,"byteOffset":0,"componentType":5126,"count":47,"type":"VEC2"},{"bufferView":20,"byteOffset":0,"componentType":5123,"count":102,"type":"SCALAR"},{"bufferView":21,"byteOffset":0,"componentType":5126,"count":22,"max":[-0.02914258651435,0.0588693991303444,0.160340592265129],"min":[-0.08793067932129,-0.06469643861055,-0.15704555809498],"type":"VEC3"},{"bufferView":22,"byteOffset":0,"componentType":5126,"count":22,"type":"VEC3"},{"bufferView":23,"byteOffset":0,"componentType":5126,"count":22,"type":"VEC2"}],"asset":{"generator":"FBX2glTF v0.13.1","version":"2.0"},"bufferViews":[{"buffer":0,"byteLength":6768,"byteOffset":0,"target":34963},{"buffer":0,"byteLength":9252,"byteOffset":6768,"target":34962},{"buffer":0,"byteLength":9252,"byteOffset":16020,"target":34962},{"buffer":0,"byteLength":6168,"byteOffset":25272,"target":34962},{"buffer":0,"byteLength":3324,"byteOffset":31440,"target":34963},{"buffer":0,"byteLength":5424,"byteOffset":34764,"target":34962},{"buffer":0,"byteLength":5424,"byteOffset":40188,"target":34962},{"buffer":0,"byteLength":3616,"byteOffset":45612,"target":34962},{"buffer":0,"byteLength":744,"byteOffset":49228,"target":34963},{"buffer":0,"byteLength":1320,"byteOffset":49972,"target":34962},{"buffer":0,"byteLength":1320,"byteOffset":51292,"target":34962},{"buffer":0,"byteLength":880,"byteOffset":52612,"target":34962},{"buffer":0,"byteLength":1020,"byteOffset":53492,"target":34963},{"buffer":0,"byteLength":1152,"byteOffset":54512,"target":34962},{"buffer":0,"byteLength":1152,"byteOffset":55664,"target":34962},{"buffer":0,"byteLength":768,"byteOffset":56816,"target":34962},{"buffer":0,"byteLength":456,"byteOffset":57584,"target":34963},{"buffer":0,"byteLength":564,"byteOffset":58040,"target":34962},{"buffer":0,"byteLength":564,"byteOffset":58604,"target":34962},{"buffer":0,"byteLength":376,"byteOffset":59168,"target":34962},{"buffer":0,"byteLength":204,"byteOffset":59544,"target":34963},{"buffer":0,"byteLength":264,"byteOffset":59748,"target":34962},{"buffer":0,"byteLength":264,"byteOffset":60012,"target":34962},{"buffer":0,"byteLength":176,"byteOffset":60276,"target":34962}],"buffers":[{"byteLength":60452,"uri":"Lamp_03.bin"}],"images":[{"name":"Telephone_A","uri":"Telephone_A.tga"},{"name":"Glass_A","uri":"Glass_A.tga"}],"materials":[{"alphaMode":"OPAQUE","doubleSided":false,"extras":{"fromFBX":{"isTruePBR":false,"shadingModel":"Phong"}},"name":"Telephone","pbrMetallicRoughness":{"baseColorFactor":[1,1,1,1],"baseColorTexture":{"index":0,"texCoord":0},"metallicFactor":0.400000005960464,"roughnessFactor":0.272165536880493}},{"alphaMode":"OPAQUE","doubleSided":false,"extras":{"fromFBX":{"isTruePBR":false,"shadingModel":"Phong"}},"name":"Glass(Fade)","pbrMetallicRoughness":{"baseColorFactor":[1,1,1,1],"baseColorTexture":{"index":1,"texCoord":0},"metallicFactor":0.400000005960464,"roughnessFactor":0.272165536880493}}],"meshes":[{"name":"Lamp_03_LOD0","primitives":[{"attributes":{"NORMAL":2,"POSITION":1,"TEXCOORD_0":3},"indices":0,"material":0,"mode":4},{"attributes":{"NORMAL":14,"POSITION":13,"TEXCOORD_0":15},"indices":12,"material":1,"mode":4}]},{"name":"Lamp_03_LOD1","primitives":[{"attributes":{"NORMAL":6,"POSITION":5,"TEXCOORD_0":7},"indices":4,"material":0,"mode":4},{"attributes":{"NORMAL":18,"POSITION":17,"TEXCOORD_0":19},"indices":16,"material":1,"mode":4}]},{"name":"Lamp_03_LOD2","primitives":[{"attributes":{"NORMAL":10,"POSITION":9,"TEXCOORD_0":11},"indices":8,"material":0,"mode":4},{"attributes":{"NORMAL":22,"POSITION":21,"TEXCOORD_0":23},"indices":20,"material":1,"mode":4}]}],"nodes":[{"mesh":0,"name":"Lamp_03_LOD0","rotation":[0,0,0,1],"scale":[1,1,1],"translation":[0,0,0]},{"mesh":1,"name":"Lamp_03_LOD1","rotation":[0,0,0,1],"scale":[1,1,1],"translation":[0,0,0]},{"mesh":2,"name":"Lamp_03_LOD2","rotation":[0,0,0,1],"scale":[1,1,1],"translation":[0,0,0]}],"samplers":[{}],"scene":0,"scenes":[{"name":"Root Scene","nodes":[0,1,2]}],"textures":[{"name":"base_color_texture","sampler":0,"source":0},{"name":"base_color_texture","sampler":0,"source":1}]}