{"accessors":[{"bufferView":0,"byteOffset":0,"componentType":5123,"count":1440,"type":"SCALAR"},{"bufferView":1,"byteOffset":0,"componentType":5126,"count":744,"max":[0.987431466579437,0.0109233651310205,0.0984871387481689],"min":[-0.9696010351181,-0.50079399347305,-0.09662775695324],"type":"VEC3"},{"bufferView":2,"byteOffset":0,"componentType":5126,"count":744,"type":"VEC3"},{"bufferView":3,"byteOffset":0,"componentType":5126,"count":744,"type":"VEC2"},{"bufferView":4,"byteOffset":0,"componentType":5123,"count":654,"type":"SCALAR"},{"bufferView":5,"byteOffset":0,"componentType":5126,"count":336,"max":[0.987431466579437,0.0109233651310205,0.0957779064774513],"min":[-0.9696010351181,-0.50081449747086,-0.09256282448769],"type":"VEC3"},{"bufferView":6,"byteOffset":0,"componentType":5126,"count":336,"type":"VEC3"},{"bufferView":7,"byteOffset":0,"componentType":5126,"count":336,"type":"VEC2"}],"asset":{"generator":"FBX2glTF v0.13.1","version":"2.0"},"bufferViews":[{"buffer":0,"byteLength":2880,"byteOffset":0,"target":34963},{"buffer":0,"byteLength":8928,"byteOffset":2880,"target":34962},{"buffer":0,"byteLength":8928,"byteOffset":11808,"target":34962},{"buffer":0,"byteLength":5952,"byteOffset":20736,"target":34962},{"buffer":0,"byteLength":1308,"byteOffset":26688,"target":34963},{"buffer":0,"byteLength":4032,"byteOffset":27996,"target":34962},{"buffer":0,"byteLength":4032,"byteOffset":32028,"target":34962},{"buffer":0,"byteLength":2688,"byteOffset":36060,"target":34962}],"buffers":[{"byteLength":38748,"uri":"Lamp_01.bin"}],"images":[{"name":"Ceiling_A","uri":"Ceiling_A.tga"}],"materials":[{"alphaMode":"OPAQUE","doubleSided":false,"extras":{"fromFBX":{"isTruePBR":false,"shadingModel":"Phong"}},"name":"Ceiling","pbrMetallicRoughness":{"baseColorFactor":[1,1,1,1],"baseColorTexture":{"index":0,"texCoord":0},"metallicFactor":0.400000005960464,"roughnessFactor":0.272165536880493}}],"meshes":[{"name":"Lamp_01_LOD0","primitives":[{"attributes":{"NORMAL":2,"POSITION":1,"TEXCOORD_0":3},"indices":0,"material":0,"mode":4}]},{"name":"Lamp_01_LOD1","primitives":[{"attributes":{"NORMAL":6,"POSITION":5,"TEXCOORD_0":7},"indices":4,"material":0,"mode":4}]}],"nodes":[{"mesh":0,"name":"Lamp_01_LOD0","rotation":[0,0,0,1],"scale":[1,1,1],"translation":[0,0,0]},{"mesh":1,"name":"Lamp_01_LOD1","rotation":[0,0,0,1],"scale":[1,1,1],"translation":[0,0,0]}],"samplers":[{}],"scene":0,"scenes":[{"name":"Root Scene","nodes":[0,1]}],"textures":[{"name":"base_color_texture","sampler":0,"source":0}]}