{"accessors":[{"bufferView":0,"byteOffset":0,"componentType":5123,"count":2448,"type":"SCALAR"},{"bufferView":1,"byteOffset":0,"componentType":5126,"count":955,"max":[1.01255643367767,0.0112191801890731,0.119711510837078],"min":[-0.91056007146835,-0.99834477901459,-0.09662781655788],"type":"VEC3"},{"bufferView":2,"byteOffset":0,"componentType":5126,"count":955,"type":"VEC3"},{"bufferView":3,"byteOffset":0,"componentType":5126,"count":955,"type":"VEC2"},{"bufferView":4,"byteOffset":0,"componentType":5123,"count":1197,"type":"SCALAR"},{"bufferView":5,"byteOffset":0,"componentType":5126,"count":568,"max":[1.01256167888641,0.0112273432314396,0.119711510837078],"min":[-0.91056007146835,-0.99831616878509,-0.09256280958653],"type":"VEC3"},{"bufferView":6,"byteOffset":0,"componentType":5126,"count":568,"type":"VEC3"},{"bufferView":7,"byteOffset":0,"componentType":5126,"count":568,"type":"VEC2"},{"bufferView":8,"byteOffset":0,"componentType":5123,"count":450,"type":"SCALAR"},{"bufferView":9,"byteOffset":0,"componentType":5126,"count":212,"max":[1.01256167888641,0.0112273432314396,0.0944220870733261],"min":[-0.91056007146835,-0.94807064533234,-0.09256280958653],"type":"VEC3"},{"bufferView":10,"byteOffset":0,"componentType":5126,"count":212,"type":"VEC3"},{"bufferView":11,"byteOffset":0,"componentType":5126,"count":212,"type":"VEC2"}],"asset":{"generator":"FBX2glTF v0.13.1","version":"2.0"},"bufferViews":[{"buffer":0,"byteLength":4896,"byteOffset":0,"target":34963},{"buffer":0,"byteLength":11460,"byteOffset":4896,"target":34962},{"buffer":0,"byteLength":11460,"byteOffset":16356,"target":34962},{"buffer":0,"byteLength":7640,"byteOffset":27816,"target":34962},{"buffer":0,"byteLength":2394,"byteOffset":35456,"target":34963},{"buffer":0,"byteLength":6816,"byteOffset":37852,"target":34962},{"buffer":0,"byteLength":6816,"byteOffset":44668,"target":34962},{"buffer":0,"byteLength":4544,"byteOffset":51484,"target":34962},{"buffer":0,"byteLength":900,"byteOffset":56028,"target":34963},{"buffer":0,"byteLength":2544,"byteOffset":56928,"target":34962},{"buffer":0,"byteLength":2544,"byteOffset":59472,"target":34962},{"buffer":0,"byteLength":1696,"byteOffset":62016,"target":34962}],"buffers":[{"byteLength":63712,"uri":"Lamp_02.bin"}],"images":[{"name":"Ceiling_A","uri":"Ceiling_A.tga"}],"materials":[{"alphaMode":"OPAQUE","doubleSided":false,"extras":{"fromFBX":{"isTruePBR":false,"shadingModel":"Phong"}},"name":"Ceiling","pbrMetallicRoughness":{"baseColorFactor":[1,1,1,1],"baseColorTexture":{"index":0,"texCoord":0},"metallicFactor":0.400000005960464,"roughnessFactor":0.272165536880493}}],"meshes":[{"name":"Lamp_02_LOD0","primitives":[{"attributes":{"NORMAL":2,"POSITION":1,"TEXCOORD_0":3},"indices":0,"material":0,"mode":4}]},{"name":"Lamp_02_LOD1","primitives":[{"attributes":{"NORMAL":6,"POSITION":5,"TEXCOORD_0":7},"indices":4,"material":0,"mode":4}]},{"name":"Lamp_02_LOD2","primitives":[{"attributes":{"NORMAL":10,"POSITION":9,"TEXCOORD_0":11},"indices":8,"material":0,"mode":4}]}],"nodes":[{"mesh":0,"name":"Lamp_02_LOD0","rotation":[0,0,0,1],"scale":[1,1,1],"translation":[0,0,0]},{"mesh":1,"name":"Lamp_02_LOD1","rotation":[0,0,0,1],"scale":[1,1,1],"translation":[0,0,0]},{"mesh":2,"name":"Lamp_02_LOD2","rotation":[0,0,0,1],"scale":[1,1,1],"translation":[0,0,0]}],"samplers":[{}],"scene":0,"scenes":[{"name":"Root Scene","nodes":[0,1,2]}],"textures":[{"name":"base_color_texture","sampler":0,"source":0}]}