{"accessors":[{"bufferView":0,"byteOffset":0,"componentType":5123,"count":456,"type":"SCALAR"},{"bufferView":1,"byteOffset":0,"componentType":5126,"count":161,"max":[0,0.141815021634102,0.137843489646912],"min":[-0.09263360500336,-0.16705384850502,-0.11669063568115],"type":"VEC3"},{"bufferView":2,"byteOffset":0,"componentType":5126,"count":161,"type":"VEC3"},{"bufferView":3,"byteOffset":0,"componentType":5126,"count":161,"type":"VEC2"}],"asset":{"generator":"FBX2glTF v0.13.1","version":"2.0"},"bufferViews":[{"buffer":0,"byteLength":912,"byteOffset":0,"target":34963},{"buffer":0,"byteLength":1932,"byteOffset":912,"target":34962},{"buffer":0,"byteLength":1932,"byteOffset":2844,"target":34962},{"buffer":0,"byteLength":1288,"byteOffset":4776,"target":34962}],"buffers":[{"byteLength":6064,"uri":"Loudspeaker.bin"}],"images":[{"name":"Urn_A","uri":"Urn_A.tga"}],"materials":[{"alphaMode":"OPAQUE","doubleSided":false,"extras":{"fromFBX":{"isTruePBR":false,"shadingModel":"Phong"}},"name":"Urn","pbrMetallicRoughness":{"baseColorFactor":[1,1,1,1],"baseColorTexture":{"index":0,"texCoord":0},"metallicFactor":0.400000005960464,"roughnessFactor":0.272165536880493}}],"meshes":[{"name":"Loudspeaker","primitives":[{"attributes":{"NORMAL":2,"POSITION":1,"TEXCOORD_0":3},"indices":0,"material":0,"mode":4}]}],"nodes":[{"mesh":0,"name":"Loudspeaker","rotation":[0,0,0,1],"scale":[1,1,1],"translation":[0,0,0]}],"samplers":[{}],"scene":0,"scenes":[{"name":"Root Scene","nodes":[0]}],"textures":[{"name":"base_color_texture","sampler":0,"source":0}]}