{"accessors":[{"bufferView":0,"byteOffset":0,"componentType":5123,"count":2556,"type":"SCALAR"},{"bufferView":1,"byteOffset":0,"componentType":5126,"count":960,"max":[0.509684026241302,0.039311159402132,0.528648495674133],"min":[-0.60719335079193,-0.01014185976237,-0.40638041496277],"type":"VEC3"},{"bufferView":2,"byteOffset":0,"componentType":5126,"count":960,"type":"VEC3"},{"bufferView":3,"byteOffset":0,"componentType":5126,"count":960,"type":"VEC2"},{"bufferView":4,"byteOffset":0,"componentType":5123,"count":1080,"type":"SCALAR"},{"bufferView":5,"byteOffset":0,"componentType":5126,"count":535,"max":[0.509926080703735,0.0400823354721069,0.528282523155212],"min":[-0.61005425453186,-0.01001410000026,-0.40623542666435],"type":"VEC3"},{"bufferView":6,"byteOffset":0,"componentType":5126,"count":535,"type":"VEC3"},{"bufferView":7,"byteOffset":0,"componentType":5126,"count":535,"type":"VEC2"},{"bufferView":8,"byteOffset":0,"componentType":5123,"count":576,"type":"SCALAR"},{"bufferView":9,"byteOffset":0,"componentType":5126,"count":330,"max":[0.509926080703735,0.038356851786375,0.390623837709427],"min":[-0.6117040514946,-0.01001410000026,-0.40636846423149],"type":"VEC3"},{"bufferView":10,"byteOffset":0,"componentType":5126,"count":330,"type":"VEC3"},{"bufferView":11,"byteOffset":0,"componentType":5126,"count":330,"type":"VEC2"}],"asset":{"generator":"FBX2glTF v0.13.1","version":"2.0"},"bufferViews":[{"buffer":0,"byteLength":5112,"byteOffset":0,"target":34963},{"buffer":0,"byteLength":11520,"byteOffset":5112,"target":34962},{"buffer":0,"byteLength":11520,"byteOffset":16632,"target":34962},{"buffer":0,"byteLength":7680,"byteOffset":28152,"target":34962},{"buffer":0,"byteLength":2160,"byteOffset":35832,"target":34963},{"buffer":0,"byteLength":6420,"byteOffset":37992,"target":34962},{"buffer":0,"byteLength":6420,"byteOffset":44412,"target":34962},{"buffer":0,"byteLength":4280,"byteOffset":50832,"target":34962},{"buffer":0,"byteLength":1152,"byteOffset":55112,"target":34963},{"buffer":0,"byteLength":3960,"byteOffset":56264,"target":34962},{"buffer":0,"byteLength":3960,"byteOffset":60224,"target":34962},{"buffer":0,"byteLength":2640,"byteOffset":64184,"target":34962}],"buffers":[{"byteLength":66824,"uri":"Plaster_Fallen_04.bin"}],"images":[{"name":"Plaster_A","uri":"Plaster_A.tga"}],"materials":[{"alphaMode":"OPAQUE","doubleSided":false,"extras":{"fromFBX":{"isTruePBR":false,"shadingModel":"Phong"}},"name":"Plaster","pbrMetallicRoughness":{"baseColorFactor":[1,1,1,1],"baseColorTexture":{"index":0,"texCoord":0},"metallicFactor":0.400000005960464,"roughnessFactor":0.272165536880493}}],"meshes":[{"name":"Plaster_Fallen_04_LOD0","primitives":[{"attributes":{"NORMAL":2,"POSITION":1,"TEXCOORD_0":3},"indices":0,"material":0,"mode":4}]},{"name":"Plaster_Fallen_04_LOD1","primitives":[{"attributes":{"NORMAL":6,"POSITION":5,"TEXCOORD_0":7},"indices":4,"material":0,"mode":4}]},{"name":"Plaster_Fallen_04_LOD2","primitives":[{"attributes":{"NORMAL":10,"POSITION":9,"TEXCOORD_0":11},"indices":8,"material":0,"mode":4}]}],"nodes":[{"mesh":0,"name":"Plaster_Fallen_04_LOD0","rotation":[0,0,0,1],"scale":[1,1,1],"translation":[0,0,0]},{"mesh":1,"name":"Plaster_Fallen_04_LOD1","rotation":[0,0,0,1],"scale":[1,1,1],"translation":[0,0,0]},{"mesh":2,"name":"Plaster_Fallen_04_LOD2","rotation":[0,0,0,1],"scale":[1,1,1],"translation":[0,0,0]}],"samplers":[{}],"scene":0,"scenes":[{"name":"Root Scene","nodes":[0,1,2]}],"textures":[{"name":"base_color_texture","sampler":0,"source":0}]}