{"accessors":[{"bufferView":0,"byteOffset":0,"componentType":5123,"count":1608,"type":"SCALAR"},{"bufferView":1,"byteOffset":0,"componentType":5126,"count":593,"max":[0.509684026241302,0.039311159402132,0.528648495674133],"min":[-0.61250519752502,-0.00319190486334,-0.45208299160004],"type":"VEC3"},{"bufferView":2,"byteOffset":0,"componentType":5126,"count":593,"type":"VEC3"},{"bufferView":3,"byteOffset":0,"componentType":5126,"count":593,"type":"VEC2"},{"bufferView":4,"byteOffset":0,"componentType":5123,"count":726,"type":"SCALAR"},{"bufferView":5,"byteOffset":0,"componentType":5126,"count":346,"max":[0.509926080703735,0.0400823354721069,0.528648495674133],"min":[-0.61282503604889,-0.00246513169259,-0.45261335372925],"type":"VEC3"},{"bufferView":6,"byteOffset":0,"componentType":5126,"count":346,"type":"VEC3"},{"bufferView":7,"byteOffset":0,"componentType":5126,"count":346,"type":"VEC2"}],"asset":{"generator":"FBX2glTF v0.13.1","version":"2.0"},"bufferViews":[{"buffer":0,"byteLength":3216,"byteOffset":0,"target":34963},{"buffer":0,"byteLength":7116,"byteOffset":3216,"target":34962},{"buffer":0,"byteLength":7116,"byteOffset":10332,"target":34962},{"buffer":0,"byteLength":4744,"byteOffset":17448,"target":34962},{"buffer":0,"byteLength":1452,"byteOffset":22192,"target":34963},{"buffer":0,"byteLength":4152,"byteOffset":23644,"target":34962},{"buffer":0,"byteLength":4152,"byteOffset":27796,"target":34962},{"buffer":0,"byteLength":2768,"byteOffset":31948,"target":34962}],"buffers":[{"byteLength":34716,"uri":"Plaster_Fallen_01.bin"}],"images":[{"name":"Plaster_A","uri":"Plaster_A.tga"}],"materials":[{"alphaMode":"OPAQUE","doubleSided":false,"extras":{"fromFBX":{"isTruePBR":false,"shadingModel":"Phong"}},"name":"Plaster","pbrMetallicRoughness":{"baseColorFactor":[1,1,1,1],"baseColorTexture":{"index":0,"texCoord":0},"metallicFactor":0.400000005960464,"roughnessFactor":0.272165536880493}}],"meshes":[{"name":"Plaster_Fallen_01_LOD0","primitives":[{"attributes":{"NORMAL":2,"POSITION":1,"TEXCOORD_0":3},"indices":0,"material":0,"mode":4}]},{"name":"Plaster_Fallen_01_LOD1","primitives":[{"attributes":{"NORMAL":6,"POSITION":5,"TEXCOORD_0":7},"indices":4,"material":0,"mode":4}]}],"nodes":[{"mesh":0,"name":"Plaster_Fallen_01_LOD0","rotation":[0,0,0,1],"scale":[1,1,1],"translation":[0,0,0]},{"mesh":1,"name":"Plaster_Fallen_01_LOD1","rotation":[0,0,0,1],"scale":[1,1,1],"translation":[0,0,0]}],"samplers":[{}],"scene":0,"scenes":[{"name":"Root Scene","nodes":[0,1]}],"textures":[{"name":"base_color_texture","sampler":0,"source":0}]}