{"accessors":[{"bufferView":0,"byteOffset":0,"componentType":5123,"count":2544,"type":"SCALAR"},{"bufferView":1,"byteOffset":0,"componentType":5126,"count":957,"max":[0.498963207006454,0.0863282829523087,0.297167897224426],"min":[-0.41472163796425,-0.00702297501266,-0.02068581990898],"type":"VEC3"},{"bufferView":2,"byteOffset":0,"componentType":5126,"count":957,"type":"VEC3"},{"bufferView":3,"byteOffset":0,"componentType":5126,"count":957,"type":"VEC2"},{"bufferView":4,"byteOffset":0,"componentType":5123,"count":1314,"type":"SCALAR"},{"bufferView":5,"byteOffset":0,"componentType":5126,"count":621,"max":[0.498963207006454,0.0867207050323486,0.297167897224426],"min":[-0.41472163796425,-0.0079037360847,-0.01798152923584],"type":"VEC3"},{"bufferView":6,"byteOffset":0,"componentType":5126,"count":621,"type":"VEC3"},{"bufferView":7,"byteOffset":0,"componentType":5126,"count":621,"type":"VEC2"},{"bufferView":8,"byteOffset":0,"componentType":5123,"count":696,"type":"SCALAR"},{"bufferView":9,"byteOffset":0,"componentType":5126,"count":406,"max":[0.499215692281723,0.0818423628807068,0.297167897224426],"min":[-0.41440230607987,-0.0079037360847,-0.01980791427195],"type":"VEC3"},{"bufferView":10,"byteOffset":0,"componentType":5126,"count":406,"type":"VEC3"},{"bufferView":11,"byteOffset":0,"componentType":5126,"count":406,"type":"VEC2"}],"asset":{"generator":"FBX2glTF v0.13.1","version":"2.0"},"bufferViews":[{"buffer":0,"byteLength":5088,"byteOffset":0,"target":34963},{"buffer":0,"byteLength":11484,"byteOffset":5088,"target":34962},{"buffer":0,"byteLength":11484,"byteOffset":16572,"target":34962},{"buffer":0,"byteLength":7656,"byteOffset":28056,"target":34962},{"buffer":0,"byteLength":2628,"byteOffset":35712,"target":34963},{"buffer":0,"byteLength":7452,"byteOffset":38340,"target":34962},{"buffer":0,"byteLength":7452,"byteOffset":45792,"target":34962},{"buffer":0,"byteLength":4968,"byteOffset":53244,"target":34962},{"buffer":0,"byteLength":1392,"byteOffset":58212,"target":34963},{"buffer":0,"byteLength":4872,"byteOffset":59604,"target":34962},{"buffer":0,"byteLength":4872,"byteOffset":64476,"target":34962},{"buffer":0,"byteLength":3248,"byteOffset":69348,"target":34962}],"buffers":[{"byteLength":72596,"uri":"Plaster_Fallen_03.bin"}],"images":[{"name":"Plaster_A","uri":"Plaster_A.tga"}],"materials":[{"alphaMode":"OPAQUE","doubleSided":false,"extras":{"fromFBX":{"isTruePBR":false,"shadingModel":"Phong"}},"name":"Plaster","pbrMetallicRoughness":{"baseColorFactor":[1,1,1,1],"baseColorTexture":{"index":0,"texCoord":0},"metallicFactor":0.400000005960464,"roughnessFactor":0.272165536880493}}],"meshes":[{"name":"Plaster_Fallen__03_LOD0","primitives":[{"attributes":{"NORMAL":2,"POSITION":1,"TEXCOORD_0":3},"indices":0,"material":0,"mode":4}]},{"name":"Plaster_Fallen__03_LOD1","primitives":[{"attributes":{"NORMAL":6,"POSITION":5,"TEXCOORD_0":7},"indices":4,"material":0,"mode":4}]},{"name":"Plaster_Fallen__03_LOD2","primitives":[{"attributes":{"NORMAL":10,"POSITION":9,"TEXCOORD_0":11},"indices":8,"material":0,"mode":4}]}],"nodes":[{"mesh":0,"name":"Plaster_Fallen__03_LOD0","rotation":[0,0,0,1],"scale":[1,1,1],"translation":[0,0,0]},{"mesh":1,"name":"Plaster_Fallen__03_LOD1","rotation":[0,0,0,1],"scale":[1,1,1],"translation":[0,0,0]},{"mesh":2,"name":"Plaster_Fallen__03_LOD2","rotation":[0,0,0,1],"scale":[1,1,1],"translation":[0,0,0]}],"samplers":[{}],"scene":0,"scenes":[{"name":"Root Scene","nodes":[0,1,2]}],"textures":[{"name":"base_color_texture","sampler":0,"source":0}]}