{"accessors":[{"bufferView":0,"byteOffset":0,"componentType":5123,"count":2166,"type":"SCALAR"},{"bufferView":1,"byteOffset":0,"componentType":5126,"count":805,"max":[0.498963207006454,0.0641428679227829,0.290924906730652],"min":[-0.69550877809525,-0.00940023642033,-0.00354277715087],"type":"VEC3"},{"bufferView":2,"byteOffset":0,"componentType":5126,"count":805,"type":"VEC3"},{"bufferView":3,"byteOffset":0,"componentType":5126,"count":805,"type":"VEC2"},{"bufferView":4,"byteOffset":0,"componentType":5123,"count":1104,"type":"SCALAR"},{"bufferView":5,"byteOffset":0,"componentType":5126,"count":502,"max":[0.498963207006454,0.0646163672208786,0.290924906730652],"min":[-0.69550877809525,-0.00946296192706,-0.00318385288119],"type":"VEC3"},{"bufferView":6,"byteOffset":0,"componentType":5126,"count":502,"type":"VEC3"},{"bufferView":7,"byteOffset":0,"componentType":5126,"count":502,"type":"VEC2"},{"bufferView":8,"byteOffset":0,"componentType":5123,"count":450,"type":"SCALAR"},{"bufferView":9,"byteOffset":0,"componentType":5126,"count":266,"max":[0.499215692281723,0.0646163672208786,0.265245288610458],"min":[-0.69528746604919,-0.00554239377379,-0.00310764065944],"type":"VEC3"},{"bufferView":10,"byteOffset":0,"componentType":5126,"count":266,"type":"VEC3"},{"bufferView":11,"byteOffset":0,"componentType":5126,"count":266,"type":"VEC2"}],"asset":{"generator":"FBX2glTF v0.13.1","version":"2.0"},"bufferViews":[{"buffer":0,"byteLength":4332,"byteOffset":0,"target":34963},{"buffer":0,"byteLength":9660,"byteOffset":4332,"target":34962},{"buffer":0,"byteLength":9660,"byteOffset":13992,"target":34962},{"buffer":0,"byteLength":6440,"byteOffset":23652,"target":34962},{"buffer":0,"byteLength":2208,"byteOffset":30092,"target":34963},{"buffer":0,"byteLength":6024,"byteOffset":32300,"target":34962},{"buffer":0,"byteLength":6024,"byteOffset":38324,"target":34962},{"buffer":0,"byteLength":4016,"byteOffset":44348,"target":34962},{"buffer":0,"byteLength":900,"byteOffset":48364,"target":34963},{"buffer":0,"byteLength":3192,"byteOffset":49264,"target":34962},{"buffer":0,"byteLength":3192,"byteOffset":52456,"target":34962},{"buffer":0,"byteLength":2128,"byteOffset":55648,"target":34962}],"buffers":[{"byteLength":57776,"uri":"Plaster_Fallen_02.bin"}],"images":[{"name":"Plaster_A","uri":"Plaster_A.tga"}],"materials":[{"alphaMode":"OPAQUE","doubleSided":false,"extras":{"fromFBX":{"isTruePBR":false,"shadingModel":"Phong"}},"name":"Plaster","pbrMetallicRoughness":{"baseColorFactor":[1,1,1,1],"baseColorTexture":{"index":0,"texCoord":0},"metallicFactor":0.400000005960464,"roughnessFactor":0.272165536880493}}],"meshes":[{"name":"Plaster_Fallen__02_LOD0","primitives":[{"attributes":{"NORMAL":2,"POSITION":1,"TEXCOORD_0":3},"indices":0,"material":0,"mode":4}]},{"name":"Plaster_Fallen__02_LOD1","primitives":[{"attributes":{"NORMAL":6,"POSITION":5,"TEXCOORD_0":7},"indices":4,"material":0,"mode":4}]},{"name":"Plaster_Fallen__02_LOD2","primitives":[{"attributes":{"NORMAL":10,"POSITION":9,"TEXCOORD_0":11},"indices":8,"material":0,"mode":4}]}],"nodes":[{"mesh":0,"name":"Plaster_Fallen__02_LOD0","rotation":[0,0,0,1],"scale":[1,1,1],"translation":[0,0,0]},{"mesh":1,"name":"Plaster_Fallen__02_LOD1","rotation":[0,0,0,1],"scale":[1,1,1],"translation":[0,0,0]},{"mesh":2,"name":"Plaster_Fallen__02_LOD2","rotation":[0,0,0,1],"scale":[1,1,1],"translation":[0,0,0]}],"samplers":[{}],"scene":0,"scenes":[{"name":"Root Scene","nodes":[0,1,2]}],"textures":[{"name":"base_color_texture","sampler":0,"source":0}]}