{"accessors":[{"bufferView":0,"byteOffset":0,"componentType":5123,"count":3618,"type":"SCALAR"},{"bufferView":1,"byteOffset":0,"componentType":5126,"count":991,"max":[0.0000000554336274660727,0.269093990325928,0.271104633808136],"min":[-0.15795601904392,-0.26909402012825,-0.27110463380814],"type":"VEC3"},{"bufferView":2,"byteOffset":0,"componentType":5126,"count":991,"type":"VEC3"},{"bufferView":3,"byteOffset":0,"componentType":5126,"count":991,"type":"VEC2"},{"bufferView":4,"byteOffset":0,"componentType":5123,"count":2004,"type":"SCALAR"},{"bufferView":5,"byteOffset":0,"componentType":5126,"count":633,"max":[0.0000000553719416984677,0.268026351928711,0.270036578178406],"min":[-0.15738441050053,-0.26802635192871,-0.27003657817841],"type":"VEC3"},{"bufferView":6,"byteOffset":0,"componentType":5126,"count":633,"type":"VEC3"},{"bufferView":7,"byteOffset":0,"componentType":5126,"count":633,"type":"VEC2"},{"bufferView":8,"byteOffset":0,"componentType":5123,"count":288,"type":"SCALAR"},{"bufferView":9,"byteOffset":0,"componentType":5126,"count":148,"max":[0.0000000553719416984677,0.268026351928711,0.270036578178406],"min":[-0.15783457458019,-0.26802635192871,-0.27003657817841],"type":"VEC3"},{"bufferView":10,"byteOffset":0,"componentType":5126,"count":148,"type":"VEC3"},{"bufferView":11,"byteOffset":0,"componentType":5126,"count":148,"type":"VEC2"},{"bufferView":12,"byteOffset":0,"componentType":5123,"count":66,"type":"SCALAR"},{"bufferView":13,"byteOffset":0,"componentType":5126,"count":24,"max":[-0.14434368908405,0.16106128692627,0.156828343868256],"min":[-0.1443437486887,-0.16106134653091,-0.15682834386826],"type":"VEC3"},{"bufferView":14,"byteOffset":0,"componentType":5126,"count":24,"type":"VEC3"},{"bufferView":15,"byteOffset":0,"componentType":5126,"count":24,"type":"VEC2"},{"bufferView":16,"byteOffset":0,"componentType":5123,"count":18,"type":"SCALAR"},{"bufferView":17,"byteOffset":0,"componentType":5126,"count":8,"max":[-0.14433094859123,0.160469725728035,0.154650315642357],"min":[-0.14434319734573,-0.16046977043152,-0.15625061094761],"type":"VEC3"},{"bufferView":18,"byteOffset":0,"componentType":5126,"count":8,"type":"VEC3"},{"bufferView":19,"byteOffset":0,"componentType":5126,"count":8,"type":"VEC2"},{"bufferView":20,"byteOffset":0,"componentType":5123,"count":6,"type":"SCALAR"},{"bufferView":21,"byteOffset":0,"componentType":5126,"count":4,"max":[-0.14413720369339,0.154638424515724,0.150284454226494],"min":[-0.14438727498054,-0.15566748380661,-0.15122938156128],"type":"VEC3"},{"bufferView":22,"byteOffset":0,"componentType":5126,"count":4,"type":"VEC3"},{"bufferView":23,"byteOffset":0,"componentType":5126,"count":4,"type":"VEC2"}],"asset":{"generator":"FBX2glTF v0.13.1","version":"2.0"},"bufferViews":[{"buffer":0,"byteLength":7236,"byteOffset":0,"target":34963},{"buffer":0,"byteLength":11892,"byteOffset":7236,"target":34962},{"buffer":0,"byteLength":11892,"byteOffset":19128,"target":34962},{"buffer":0,"byteLength":7928,"byteOffset":31020,"target":34962},{"buffer":0,"byteLength":4008,"byteOffset":38948,"target":34963},{"buffer":0,"byteLength":7596,"byteOffset":42956,"target":34962},{"buffer":0,"byteLength":7596,"byteOffset":50552,"target":34962},{"buffer":0,"byteLength":5064,"byteOffset":58148,"target":34962},{"buffer":0,"byteLength":576,"byteOffset":63212,"target":34963},{"buffer":0,"byteLength":1776,"byteOffset":63788,"target":34962},{"buffer":0,"byteLength":1776,"byteOffset":65564,"target":34962},{"buffer":0,"byteLength":1184,"byteOffset":67340,"target":34962},{"buffer":0,"byteLength":132,"byteOffset":68524,"target":34963},{"buffer":0,"byteLength":288,"byteOffset":68656,"target":34962},{"buffer":0,"byteLength":288,"byteOffset":68944,"target":34962},{"buffer":0,"byteLength":192,"byteOffset":69232,"target":34962},{"buffer":0,"byteLength":36,"byteOffset":69424,"target":34963},{"buffer":0,"byteLength":96,"byteOffset":69460,"target":34962},{"buffer":0,"byteLength":96,"byteOffset":69556,"target":34962},{"buffer":0,"byteLength":64,"byteOffset":69652,"target":34962},{"buffer":0,"byteLength":12,"byteOffset":69716,"target":34963},{"buffer":0,"byteLength":48,"byteOffset":69728,"target":34962},{"buffer":0,"byteLength":48,"byteOffset":69776,"target":34962},{"buffer":0,"byteLength":32,"byteOffset":69824,"target":34962}],"buffers":[{"byteLength":69856,"uri":"Pressure_Hose.bin"}],"images":[{"name":"Fire_Fighting_A","uri":"Fire_Fighting_A.tga"},{"name":"Glass_A","uri":"Glass_A.tga"}],"materials":[{"alphaMode":"OPAQUE","doubleSided":false,"extras":{"fromFBX":{"isTruePBR":false,"shadingModel":"Phong"}},"name":"Fire_Fighting","pbrMetallicRoughness":{"baseColorFactor":[1,1,1,1],"baseColorTexture":{"index":0,"texCoord":0},"metallicFactor":0.400000005960464,"roughnessFactor":0.272165536880493}},{"alphaMode":"OPAQUE","doubleSided":false,"extras":{"fromFBX":{"isTruePBR":false,"shadingModel":"Phong"}},"name":"Glass(Fade)","pbrMetallicRoughness":{"baseColorFactor":[1,1,1,1],"baseColorTexture":{"index":1,"texCoord":0},"metallicFactor":0.400000005960464,"roughnessFactor":0.272165536880493}}],"meshes":[{"name":"Pressure_Hose_LOD0","primitives":[{"attributes":{"NORMAL":2,"POSITION":1,"TEXCOORD_0":3},"indices":0,"material":0,"mode":4},{"attributes":{"NORMAL":14,"POSITION":13,"TEXCOORD_0":15},"indices":12,"material":1,"mode":4}]},{"name":"Pressure_Hose_LOD1","primitives":[{"attributes":{"NORMAL":6,"POSITION":5,"TEXCOORD_0":7},"indices":4,"material":0,"mode":4},{"attributes":{"NORMAL":18,"POSITION":17,"TEXCOORD_0":19},"indices":16,"material":1,"mode":4}]},{"name":"Pressure_Hose_LOD2","primitives":[{"attributes":{"NORMAL":10,"POSITION":9,"TEXCOORD_0":11},"indices":8,"material":0,"mode":4},{"attributes":{"NORMAL":22,"POSITION":21,"TEXCOORD_0":23},"indices":20,"material":1,"mode":4}]}],"nodes":[{"mesh":0,"name":"Pressure_Hose_LOD0","rotation":[0,0,0,1],"scale":[1,1,1],"translation":[0,0,0]},{"mesh":1,"name":"Pressure_Hose_LOD1","rotation":[0,0,0,1],"scale":[1,1,1],"translation":[0,0,0]},{"mesh":2,"name":"Pressure_Hose_LOD2","rotation":[0,0,0,1],"scale":[1,1,1],"translation":[0,0,0]}],"samplers":[{}],"scene":0,"scenes":[{"name":"Root Scene","nodes":[0,1,2]}],"textures":[{"name":"base_color_texture","sampler":0,"source":0},{"name":"base_color_texture","sampler":0,"source":1}]}