{"accessors":[{"bufferView":0,"byteOffset":0,"componentType":5123,"count":24804,"type":"SCALAR"},{"bufferView":1,"byteOffset":0,"componentType":5126,"count":5854,"max":[0.125868245959282,0.723476111888885,0.642588496208191],"min":[-0.1165229678154,-0.00000022026501,-0.64198189973831],"type":"VEC3"},{"bufferView":2,"byteOffset":0,"componentType":5126,"count":5854,"type":"VEC3"},{"bufferView":3,"byteOffset":0,"componentType":5126,"count":5854,"type":"VEC2"},{"bufferView":4,"byteOffset":0,"componentType":5123,"count":12801,"type":"SCALAR"},{"bufferView":5,"byteOffset":0,"componentType":5126,"count":3235,"max":[0.126774042844772,0.724821209907532,0.642421960830688],"min":[-0.11742875725031,-0.00000022026501,-0.64198189973831],"type":"VEC3"},{"bufferView":6,"byteOffset":0,"componentType":5126,"count":3235,"type":"VEC3"},{"bufferView":7,"byteOffset":0,"componentType":5126,"count":3235,"type":"VEC2"},{"bufferView":8,"byteOffset":0,"componentType":5123,"count":3231,"type":"SCALAR"},{"bufferView":9,"byteOffset":0,"componentType":5126,"count":1001,"max":[0.123593620955944,0.726919174194336,0.648041725158691],"min":[-0.11382869631052,-0.00052948406665,-0.64058148860931],"type":"VEC3"},{"bufferView":10,"byteOffset":0,"componentType":5126,"count":1001,"type":"VEC3"},{"bufferView":11,"byteOffset":0,"componentType":5126,"count":1001,"type":"VEC2"}],"asset":{"generator":"FBX2glTF v0.13.1","version":"2.0"},"bufferViews":[{"buffer":0,"byteLength":49608,"byteOffset":0,"target":34963},{"buffer":0,"byteLength":70248,"byteOffset":49608,"target":34962},{"buffer":0,"byteLength":70248,"byteOffset":119856,"target":34962},{"buffer":0,"byteLength":46832,"byteOffset":190104,"target":34962},{"buffer":0,"byteLength":25602,"byteOffset":236936,"target":34963},{"buffer":0,"byteLength":38820,"byteOffset":262540,"target":34962},{"buffer":0,"byteLength":38820,"byteOffset":301360,"target":34962},{"buffer":0,"byteLength":25880,"byteOffset":340180,"target":34962},{"buffer":0,"byteLength":6462,"byteOffset":366060,"target":34963},{"buffer":0,"byteLength":12012,"byteOffset":372524,"target":34962},{"buffer":0,"byteLength":12012,"byteOffset":384536,"target":34962},{"buffer":0,"byteLength":8008,"byteOffset":396548,"target":34962}],"buffers":[{"byteLength":404556,"uri":"Radiator.bin"}],"images":[{"name":"Radiator_A","uri":"Radiator_A.tga"}],"materials":[{"alphaMode":"OPAQUE","doubleSided":false,"extras":{"fromFBX":{"isTruePBR":false,"shadingModel":"Phong"}},"name":"Radiator","pbrMetallicRoughness":{"baseColorFactor":[1,1,1,1],"baseColorTexture":{"index":0,"texCoord":0},"metallicFactor":0.400000005960464,"roughnessFactor":0.272165536880493}}],"meshes":[{"name":"Radiator_LOD0","primitives":[{"attributes":{"NORMAL":2,"POSITION":1,"TEXCOORD_0":3},"indices":0,"material":0,"mode":4}]},{"name":"Radiator_LOD1","primitives":[{"attributes":{"NORMAL":6,"POSITION":5,"TEXCOORD_0":7},"indices":4,"material":0,"mode":4}]},{"name":"Radiator_LOD2","primitives":[{"attributes":{"NORMAL":10,"POSITION":9,"TEXCOORD_0":11},"indices":8,"material":0,"mode":4}]}],"nodes":[{"mesh":0,"name":"Radiator_LOD0","rotation":[0,0,0,1],"scale":[1,1,1],"translation":[0,0,0]},{"mesh":1,"name":"Radiator_LOD1","rotation":[0,0,0,1],"scale":[1,1,1],"translation":[0,0,0]},{"mesh":2,"name":"Radiator_LOD2","rotation":[0,0,0,1],"scale":[1,1,1],"translation":[0,0,0]}],"samplers":[{}],"scene":0,"scenes":[{"name":"Root Scene","nodes":[0,1,2]}],"textures":[{"name":"base_color_texture","sampler":0,"source":0}]}