{"accessors":[{"bufferView":0,"byteOffset":0,"componentType":5123,"count":1236,"type":"SCALAR"},{"bufferView":1,"byteOffset":0,"componentType":5126,"count":292,"max":[0.097659058868885,30.8640956878662,2.36377882957458],"min":[-3.20724964141846,-33.2812881469727,-2.24154281616211],"type":"VEC3"},{"bufferView":2,"byteOffset":0,"componentType":5126,"count":292,"type":"VEC3"},{"bufferView":3,"byteOffset":0,"componentType":5126,"count":292,"type":"VEC2"},{"bufferView":4,"byteOffset":0,"componentType":5123,"count":708,"type":"SCALAR"},{"bufferView":5,"byteOffset":0,"componentType":5126,"count":192,"max":[0.097659058868885,30.7695846557617,2.26926708221436],"min":[-3.21256685256958,-33.1867752075195,-2.1470308303833],"type":"VEC3"},{"bufferView":6,"byteOffset":0,"componentType":5126,"count":192,"type":"VEC3"},{"bufferView":7,"byteOffset":0,"componentType":5126,"count":192,"type":"VEC2"},{"bufferView":8,"byteOffset":0,"componentType":5123,"count":159,"type":"SCALAR"},{"bufferView":9,"byteOffset":0,"componentType":5126,"count":73,"max":[0.097659058868885,30.8439331054688,2.17162418365479],"min":[-2.85493564605713,-33.2611236572266,-2.04938769340515],"type":"VEC3"},{"bufferView":10,"byteOffset":0,"componentType":5126,"count":73,"type":"VEC3"},{"bufferView":11,"byteOffset":0,"componentType":5126,"count":73,"type":"VEC2"}],"asset":{"generator":"FBX2glTF v0.13.1","version":"2.0"},"bufferViews":[{"buffer":0,"byteLength":2472,"byteOffset":0,"target":34963},{"buffer":0,"byteLength":3504,"byteOffset":2472,"target":34962},{"buffer":0,"byteLength":3504,"byteOffset":5976,"target":34962},{"buffer":0,"byteLength":2336,"byteOffset":9480,"target":34962},{"buffer":0,"byteLength":1416,"byteOffset":11816,"target":34963},{"buffer":0,"byteLength":2304,"byteOffset":13232,"target":34962},{"buffer":0,"byteLength":2304,"byteOffset":15536,"target":34962},{"buffer":0,"byteLength":1536,"byteOffset":17840,"target":34962},{"buffer":0,"byteLength":318,"byteOffset":19376,"target":34963},{"buffer":0,"byteLength":876,"byteOffset":19696,"target":34962},{"buffer":0,"byteLength":876,"byteOffset":20572,"target":34962},{"buffer":0,"byteLength":584,"byteOffset":21448,"target":34962}],"buffers":[{"byteLength":22032,"uri":"Railing.bin"}],"images":[{"name":"Radiator_A","uri":"Radiator_A.tga"}],"materials":[{"alphaMode":"OPAQUE","doubleSided":false,"extras":{"fromFBX":{"isTruePBR":false,"shadingModel":"Phong"}},"name":"Radiator","pbrMetallicRoughness":{"baseColorFactor":[1,1,1,1],"baseColorTexture":{"index":0,"texCoord":0},"metallicFactor":0.400000005960464,"roughnessFactor":0.272165536880493}}],"meshes":[{"name":"Railing_LOD0","primitives":[{"attributes":{"NORMAL":2,"POSITION":1,"TEXCOORD_0":3},"indices":0,"material":0,"mode":4}]},{"name":"Railing_LOD1","primitives":[{"attributes":{"NORMAL":6,"POSITION":5,"TEXCOORD_0":7},"indices":4,"material":0,"mode":4}]},{"name":"Railing_LOD2","primitives":[{"attributes":{"NORMAL":10,"POSITION":9,"TEXCOORD_0":11},"indices":8,"material":0,"mode":4}]}],"nodes":[{"mesh":0,"name":"Railing_LOD0","rotation":[0.707106828689575,0,0,0.707106709480286],"scale":[0.0311791691929102,0.0311791691929102,0.0311791691929102],"translation":[0,0,0]},{"mesh":1,"name":"Railing_LOD1","rotation":[0.707106828689575,0,0,0.707106709480286],"scale":[0.0311791691929102,0.0311791691929102,0.0311791691929102],"translation":[0,0,0]},{"mesh":2,"name":"Railing_LOD2","rotation":[0.707106828689575,0,0,0.707106709480286],"scale":[0.0311791691929102,0.0311791691929102,0.0311791691929102],"translation":[0,0,0]}],"samplers":[{}],"scene":0,"scenes":[{"name":"Root Scene","nodes":[0,1,2]}],"textures":[{"name":"base_color_texture","sampler":0,"source":0}]}