{"accessors":[{"bufferView":0,"byteOffset":0,"componentType":5123,"count":3054,"type":"SCALAR"},{"bufferView":1,"byteOffset":0,"componentType":5126,"count":1602,"max":[0.8173548579216,3.2749297618866,2],"min":[-0.25602233409882,-0.00000002980232,-2.00000047683716],"type":"VEC3"},{"bufferView":2,"byteOffset":0,"componentType":5126,"count":1602,"type":"VEC3"},{"bufferView":3,"byteOffset":0,"componentType":5126,"count":1602,"type":"VEC2"},{"bufferView":4,"byteOffset":0,"componentType":5123,"count":2760,"type":"SCALAR"},{"bufferView":5,"byteOffset":0,"componentType":5126,"count":834,"max":[0.0580503940582275,2.10243487358093,0.0160074234008789],"min":[-0.10843539237976,0,-1.10000002384186],"type":"VEC3"},{"bufferView":6,"byteOffset":0,"componentType":5126,"count":834,"type":"VEC3"},{"bufferView":7,"byteOffset":0,"componentType":5126,"count":834,"type":"VEC2"},{"bufferView":8,"byteOffset":0,"componentType":5123,"count":864,"type":"SCALAR"},{"bufferView":9,"byteOffset":0,"componentType":5126,"count":338,"max":[0.0571800172328949,2.10243487358093,0],"min":[-0.10756500810385,0,-1.10000002384186],"type":"VEC3"},{"bufferView":10,"byteOffset":0,"componentType":5126,"count":338,"type":"VEC3"},{"bufferView":11,"byteOffset":0,"componentType":5126,"count":338,"type":"VEC2"},{"bufferView":12,"byteOffset":0,"componentType":5123,"count":420,"type":"SCALAR"},{"bufferView":13,"byteOffset":0,"componentType":5126,"count":172,"max":[0.00808107852935791,2.10243487358093,0],"min":[-0.05846607685089,0,-1.10000002384186],"type":"VEC3"},{"bufferView":14,"byteOffset":0,"componentType":5126,"count":172,"type":"VEC3"},{"bufferView":15,"byteOffset":0,"componentType":5126,"count":172,"type":"VEC2"},{"bufferView":16,"byteOffset":0,"componentType":5123,"count":1914,"type":"SCALAR"},{"bufferView":17,"byteOffset":0,"componentType":5126,"count":1122,"max":[0.8173548579216,3.2749297618866,2],"min":[-0.25602233409882,-0.00000002980232,-2.00000047683716],"type":"VEC3"},{"bufferView":18,"byteOffset":0,"componentType":5126,"count":1122,"type":"VEC3"},{"bufferView":19,"byteOffset":0,"componentType":5126,"count":1122,"type":"VEC2"},{"bufferView":20,"byteOffset":0,"componentType":5123,"count":192,"type":"SCALAR"},{"bufferView":21,"byteOffset":0,"componentType":5126,"count":78,"max":[-0.00053821504116,3.70898914337158,1.99999964237213],"min":[-0.14447940886021,-0.00123870372772,-2],"type":"VEC3"},{"bufferView":22,"byteOffset":0,"componentType":5126,"count":78,"type":"VEC3"},{"bufferView":23,"byteOffset":0,"componentType":5126,"count":78,"type":"VEC2"},{"bufferView":24,"byteOffset":0,"componentType":5123,"count":156,"type":"SCALAR"},{"bufferView":25,"byteOffset":0,"componentType":5126,"count":68,"max":[-0.00053821504116,3.70898914337158,1.99999964237213],"min":[-0.14447940886021,-0.00123870372772,-2],"type":"VEC3"},{"bufferView":26,"byteOffset":0,"componentType":5126,"count":68,"type":"VEC3"},{"bufferView":27,"byteOffset":0,"componentType":5126,"count":68,"type":"VEC2"},{"bufferView":28,"byteOffset":0,"componentType":5123,"count":72,"type":"SCALAR"},{"bufferView":29,"byteOffset":0,"componentType":5126,"count":48,"max":[-0.03379597887397,3.15441393852234,1.91192734241486],"min":[-0.05660348758101,0.959159135818481,-1.9182790517807],"type":"VEC3"},{"bufferView":30,"byteOffset":0,"componentType":5126,"count":48,"type":"VEC3"},{"bufferView":31,"byteOffset":0,"componentType":5126,"count":48,"type":"VEC2"},{"bufferView":32,"byteOffset":0,"componentType":5123,"count":12,"type":"SCALAR"},{"bufferView":33,"byteOffset":0,"componentType":5126,"count":8,"max":[-0.0181769579649,1.827103972435,-0.18452687561512],"min":[-0.03509208932519,1.3265483379364,-0.91547310352325],"type":"VEC3"},{"bufferView":34,"byteOffset":0,"componentType":5126,"count":8,"type":"VEC3"},{"bufferView":35,"byteOffset":0,"componentType":5126,"count":8,"type":"VEC2"},{"bufferView":36,"byteOffset":0,"componentType":5123,"count":12,"type":"SCALAR"},{"bufferView":37,"byteOffset":0,"componentType":5126,"count":8,"max":[-0.0181769579649,1.827103972435,-0.18452687561512],"min":[-0.03509208932519,1.3265483379364,-0.91547310352325],"type":"VEC3"},{"bufferView":38,"byteOffset":0,"componentType":5126,"count":8,"type":"VEC3"},{"bufferView":39,"byteOffset":0,"componentType":5126,"count":8,"type":"VEC2"},{"bufferView":40,"byteOffset":0,"componentType":5123,"count":12,"type":"SCALAR"},{"bufferView":41,"byteOffset":0,"componentType":5126,"count":8,"max":[-0.0181769579649,1.827103972435,-0.18452687561512],"min":[-0.03509208932519,1.3265483379364,-0.91547310352325],"type":"VEC3"},{"bufferView":42,"byteOffset":0,"componentType":5126,"count":8,"type":"VEC3"},{"bufferView":43,"byteOffset":0,"componentType":5126,"count":8,"type":"VEC2"},{"bufferView":44,"byteOffset":0,"componentType":5123,"count":72,"type":"SCALAR"},{"bufferView":45,"byteOffset":0,"componentType":5126,"count":48,"max":[-0.03379597887397,3.15441393852234,1.91192734241486],"min":[-0.05660348758101,0.959159135818481,-1.9182790517807],"type":"VEC3"},{"bufferView":46,"byteOffset":0,"componentType":5126,"count":48,"type":"VEC3"},{"bufferView":47,"byteOffset":0,"componentType":5126,"count":48,"type":"VEC2"}],"asset":{"generator":"FBX2glTF v0.13.1","version":"2.0"},"bufferViews":[{"buffer":0,"byteLength":6108,"byteOffset":0,"target":34963},{"buffer":0,"byteLength":19224,"byteOffset":6108,"target":34962},{"buffer":0,"byteLength":19224,"byteOffset":25332,"target":34962},{"buffer":0,"byteLength":12816,"byteOffset":44556,"target":34962},{"buffer":0,"byteLength":5520,"byteOffset":57372,"target":34963},{"buffer":0,"byteLength":10008,"byteOffset":62892,"target":34962},{"buffer":0,"byteLength":10008,"byteOffset":72900,"target":34962},{"buffer":0,"byteLength":6672,"byteOffset":82908,"target":34962},{"buffer":0,"byteLength":1728,"byteOffset":89580,"target":34963},{"buffer":0,"byteLength":4056,"byteOffset":91308,"target":34962},{"buffer":0,"byteLength":4056,"byteOffset":95364,"target":34962},{"buffer":0,"byteLength":2704,"byteOffset":99420,"target":34962},{"buffer":0,"byteLength":840,"byteOffset":102124,"target":34963},{"buffer":0,"byteLength":2064,"byteOffset":102964,"target":34962},{"buffer":0,"byteLength":2064,"byteOffset":105028,"target":34962},{"buffer":0,"byteLength":1376,"byteOffset":107092,"target":34962},{"buffer":0,"byteLength":3828,"byteOffset":108468,"target":34963},{"buffer":0,"byteLength":13464,"byteOffset":112296,"target":34962},{"buffer":0,"byteLength":13464,"byteOffset":125760,"target":34962},{"buffer":0,"byteLength":8976,"byteOffset":139224,"target":34962},{"buffer":0,"byteLength":384,"byteOffset":148200,"target":34963},{"buffer":0,"byteLength":936,"byteOffset":148584,"target":34962},{"buffer":0,"byteLength":936,"byteOffset":149520,"target":34962},{"buffer":0,"byteLength":624,"byteOffset":150456,"target":34962},{"buffer":0,"byteLength":312,"byteOffset":151080,"target":34963},{"buffer":0,"byteLength":816,"byteOffset":151392,"target":34962},{"buffer":0,"byteLength":816,"byteOffset":152208,"target":34962},{"buffer":0,"byteLength":544,"byteOffset":153024,"target":34962},{"buffer":0,"byteLength":144,"byteOffset":153568,"target":34963},{"buffer":0,"byteLength":576,"byteOffset":153712,"target":34962},{"buffer":0,"byteLength":576,"byteOffset":154288,"target":34962},{"buffer":0,"byteLength":384,"byteOffset":154864,"target":34962},{"buffer":0,"byteLength":24,"byteOffset":155248,"target":34963},{"buffer":0,"byteLength":96,"byteOffset":155272,"target":34962},{"buffer":0,"byteLength":96,"byteOffset":155368,"target":34962},{"buffer":0,"byteLength":64,"byteOffset":155464,"target":34962},{"buffer":0,"byteLength":24,"byteOffset":155528,"target":34963},{"buffer":0,"byteLength":96,"byteOffset":155552,"target":34962},{"buffer":0,"byteLength":96,"byteOffset":155648,"target":34962},{"buffer":0,"byteLength":64,"byteOffset":155744,"target":34962},{"buffer":0,"byteLength":24,"byteOffset":155808,"target":34963},{"buffer":0,"byteLength":96,"byteOffset":155832,"target":34962},{"buffer":0,"byteLength":96,"byteOffset":155928,"target":34962},{"buffer":0,"byteLength":64,"byteOffset":156024,"target":34962},{"buffer":0,"byteLength":144,"byteOffset":156088,"target":34963},{"buffer":0,"byteLength":576,"byteOffset":156232,"target":34962},{"buffer":0,"byteLength":576,"byteOffset":156808,"target":34962},{"buffer":0,"byteLength":384,"byteOffset":157384,"target":34962}],"buffers":[{"byteLength":157768,"uri":"Reception_01.bin"}],"images":[{"name":"Reception_A","uri":"Reception_A.tga"},{"name":"Wall_01_A","uri":"Wall_01_A.tga"},{"name":"Glass_A","uri":"Glass_A.tga"}],"materials":[{"alphaMode":"OPAQUE","doubleSided":false,"extras":{"fromFBX":{"isTruePBR":false,"shadingModel":"Phong"}},"name":"Reception","pbrMetallicRoughness":{"baseColorFactor":[1,1,1,1],"baseColorTexture":{"index":0,"texCoord":0},"metallicFactor":0.400000005960464,"roughnessFactor":0.272165536880493}},{"alphaMode":"OPAQUE","doubleSided":false,"extras":{"fromFBX":{"isTruePBR":false,"shadingModel":"Phong"}},"name":"Wall_01","pbrMetallicRoughness":{"baseColorFactor":[1,1,1,1],"baseColorTexture":{"index":1,"texCoord":0},"metallicFactor":0.400000005960464,"roughnessFactor":0.272165536880493}},{"alphaMode":"OPAQUE","doubleSided":false,"extras":{"fromFBX":{"isTruePBR":false,"shadingModel":"Phong"}},"name":"Glass(Fade)","pbrMetallicRoughness":{"baseColorFactor":[1,1,1,1],"baseColorTexture":{"index":2,"texCoord":0},"metallicFactor":0.400000005960464,"roughnessFactor":0.272165536880493}}],"meshes":[{"name":"Reception_LOD0","primitives":[{"attributes":{"NORMAL":2,"POSITION":1,"TEXCOORD_0":3},"indices":0,"material":0,"mode":4},{"attributes":{"NORMAL":22,"POSITION":21,"TEXCOORD_0":23},"indices":20,"material":1,"mode":4},{"attributes":{"NORMAL":30,"POSITION":29,"TEXCOORD_0":31},"indices":28,"material":2,"mode":4}]},{"name":"Reception_Door_LOD0","primitives":[{"attributes":{"NORMAL":6,"POSITION":5,"TEXCOORD_0":7},"indices":4,"material":0,"mode":4},{"attributes":{"NORMAL":34,"POSITION":33,"TEXCOORD_0":35},"indices":32,"material":2,"mode":4}]},{"name":"Reception_Door_LOD1","primitives":[{"attributes":{"NORMAL":10,"POSITION":9,"TEXCOORD_0":11},"indices":8,"material":0,"mode":4},{"attributes":{"NORMAL":38,"POSITION":37,"TEXCOORD_0":39},"indices":36,"material":2,"mode":4}]},{"name":"Reception_Door_LOD2","primitives":[{"attributes":{"NORMAL":14,"POSITION":13,"TEXCOORD_0":15},"indices":12,"material":0,"mode":4},{"attributes":{"NORMAL":42,"POSITION":41,"TEXCOORD_0":43},"indices":40,"material":2,"mode":4}]},{"name":"Reception_LOD1","primitives":[{"attributes":{"NORMAL":18,"POSITION":17,"TEXCOORD_0":19},"indices":16,"material":0,"mode":4},{"attributes":{"NORMAL":26,"POSITION":25,"TEXCOORD_0":27},"indices":24,"material":1,"mode":4},{"attributes":{"NORMAL":46,"POSITION":45,"TEXCOORD_0":47},"indices":44,"material":2,"mode":4}]}],"nodes":[{"mesh":0,"name":"Reception_LOD0","rotation":[0,0,0,1],"scale":[1,1,1],"translation":[-0.1620979309082,0,0]},{"children":[2,3],"mesh":1,"name":"Reception_Door_LOD0","rotation":[0,0,0,1],"scale":[1,1,1],"translation":[-0.16301536560059,0,1.91567230224609]},{"mesh":2,"name":"Reception_Door_LOD1","rotation":[0,0,0,1],"scale":[1,1,1],"translation":[0,0,0.000000152587887214395]},{"mesh":3,"name":"Reception_Door_LOD2","rotation":[0,0,0,1],"scale":[1,1,1],"translation":[-0.00205278396606,0.00227850023657084,-0.01010711677372]},{"mesh":4,"name":"Reception_LOD1","rotation":[0,0,0,1],"scale":[1,1,1],"translation":[-0.1620979309082,0,0]}],"samplers":[{}],"scene":0,"scenes":[{"name":"Root Scene","nodes":[0,1,4]}],"textures":[{"name":"base_color_texture","sampler":0,"source":0},{"name":"base_color_texture","sampler":0,"source":1},{"name":"base_color_texture","sampler":0,"source":2}]}