{"accessors":[{"bufferView":0,"byteOffset":0,"componentType":5123,"count":4614,"type":"SCALAR"},{"bufferView":1,"byteOffset":0,"componentType":5126,"count":1302,"max":[0.262461602687836,0.410793036222458,0.31146651506424],"min":[-0.24034667015076,-0.00151183584239,-0.26463788747787],"type":"VEC3"},{"bufferView":2,"byteOffset":0,"componentType":5126,"count":1302,"type":"VEC3"},{"bufferView":3,"byteOffset":0,"componentType":5126,"count":1302,"type":"VEC2"},{"bufferView":4,"byteOffset":0,"componentType":5123,"count":2433,"type":"SCALAR"},{"bufferView":5,"byteOffset":0,"componentType":5126,"count":875,"max":[0.262461602687836,0.410793036222458,0.31146651506424],"min":[-0.24034667015076,-0.00151183584239,-0.26463788747787],"type":"VEC3"},{"bufferView":6,"byteOffset":0,"componentType":5126,"count":875,"type":"VEC3"},{"bufferView":7,"byteOffset":0,"componentType":5126,"count":875,"type":"VEC2"},{"bufferView":8,"byteOffset":0,"componentType":5123,"count":366,"type":"SCALAR"},{"bufferView":9,"byteOffset":0,"componentType":5126,"count":200,"max":[0.262746036052704,0.408613234758377,0.31146651506424],"min":[-0.24034667015076,0.0169412866234779,-0.26463788747787],"type":"VEC3"},{"bufferView":10,"byteOffset":0,"componentType":5126,"count":200,"type":"VEC3"},{"bufferView":11,"byteOffset":0,"componentType":5126,"count":200,"type":"VEC2"}],"asset":{"generator":"FBX2glTF v0.13.1","version":"2.0"},"bufferViews":[{"buffer":0,"byteLength":9228,"byteOffset":0,"target":34963},{"buffer":0,"byteLength":15624,"byteOffset":9228,"target":34962},{"buffer":0,"byteLength":15624,"byteOffset":24852,"target":34962},{"buffer":0,"byteLength":10416,"byteOffset":40476,"target":34962},{"buffer":0,"byteLength":4866,"byteOffset":50892,"target":34963},{"buffer":0,"byteLength":10500,"byteOffset":55760,"target":34962},{"buffer":0,"byteLength":10500,"byteOffset":66260,"target":34962},{"buffer":0,"byteLength":7000,"byteOffset":76760,"target":34962},{"buffer":0,"byteLength":732,"byteOffset":83760,"target":34963},{"buffer":0,"byteLength":2400,"byteOffset":84492,"target":34962},{"buffer":0,"byteLength":2400,"byteOffset":86892,"target":34962},{"buffer":0,"byteLength":1600,"byteOffset":89292,"target":34962}],"buffers":[{"byteLength":90892,"uri":"Stand_Folders_01.bin"}],"images":[{"name":"Stationery_A","uri":"Stationery_A.tga"}],"materials":[{"alphaMode":"OPAQUE","doubleSided":false,"extras":{"fromFBX":{"isTruePBR":false,"shadingModel":"Phong"}},"name":"Stationery","pbrMetallicRoughness":{"baseColorFactor":[1,1,1,1],"baseColorTexture":{"index":0,"texCoord":0},"metallicFactor":0.400000005960464,"roughnessFactor":0.272165536880493}}],"meshes":[{"name":"Stand_Folders_01_LOD0","primitives":[{"attributes":{"NORMAL":2,"POSITION":1,"TEXCOORD_0":3},"indices":0,"material":0,"mode":4}]},{"name":"Stand_Folders_01_LOD1","primitives":[{"attributes":{"NORMAL":6,"POSITION":5,"TEXCOORD_0":7},"indices":4,"material":0,"mode":4}]},{"name":"Stand_Folders_01_LOD2","primitives":[{"attributes":{"NORMAL":10,"POSITION":9,"TEXCOORD_0":11},"indices":8,"material":0,"mode":4}]}],"nodes":[{"mesh":0,"name":"Stand_Folders_01_LOD0","rotation":[0,0,0,1],"scale":[1,1,1],"translation":[0,0,0]},{"mesh":1,"name":"Stand_Folders_01_LOD1","rotation":[0,0,0,1],"scale":[1,1,1],"translation":[0,0,0]},{"mesh":2,"name":"Stand_Folders_01_LOD2","rotation":[0,0,0,1],"scale":[1,1,1],"translation":[0,0,0]}],"samplers":[{}],"scene":0,"scenes":[{"name":"Root Scene","nodes":[0,1,2]}],"textures":[{"name":"base_color_texture","sampler":0,"source":0}]}