{"accessors":[{"bufferView":0,"byteOffset":0,"componentType":5123,"count":1524,"type":"SCALAR"},{"bufferView":1,"byteOffset":0,"componentType":5126,"count":444,"max":[0.0712656378746033,0.288165301084518,0.0603485107421875],"min":[-0.0594881772995,0,-0.06134820729494],"type":"VEC3"},{"bufferView":2,"byteOffset":0,"componentType":5126,"count":444,"type":"VEC3"},{"bufferView":3,"byteOffset":0,"componentType":5126,"count":444,"type":"VEC2"},{"bufferView":4,"byteOffset":0,"componentType":5123,"count":558,"type":"SCALAR"},{"bufferView":5,"byteOffset":0,"componentType":5126,"count":206,"max":[0.0686037465929985,0.28814908862114,0.0599684827029705],"min":[-0.0594881772995,-0.0000020826003,-0.060297049582],"type":"VEC3"},{"bufferView":6,"byteOffset":0,"componentType":5126,"count":206,"type":"VEC3"},{"bufferView":7,"byteOffset":0,"componentType":5126,"count":206,"type":"VEC2"}],"asset":{"generator":"FBX2glTF v0.13.1","version":"2.0"},"bufferViews":[{"buffer":0,"byteLength":3048,"byteOffset":0,"target":34963},{"buffer":0,"byteLength":5328,"byteOffset":3048,"target":34962},{"buffer":0,"byteLength":5328,"byteOffset":8376,"target":34962},{"buffer":0,"byteLength":3552,"byteOffset":13704,"target":34962},{"buffer":0,"byteLength":1116,"byteOffset":17256,"target":34963},{"buffer":0,"byteLength":2472,"byteOffset":18372,"target":34962},{"buffer":0,"byteLength":2472,"byteOffset":20844,"target":34962},{"buffer":0,"byteLength":1648,"byteOffset":23316,"target":34962}],"buffers":[{"byteLength":24964,"uri":"Stationery.bin"}],"images":[{"name":"Stationery_A","uri":"Stationery_A.tga"}],"materials":[{"alphaMode":"OPAQUE","doubleSided":false,"extras":{"fromFBX":{"isTruePBR":false,"shadingModel":"Phong"}},"name":"Stationery","pbrMetallicRoughness":{"baseColorFactor":[1,1,1,1],"baseColorTexture":{"index":0,"texCoord":0},"metallicFactor":0.400000005960464,"roughnessFactor":0.272165536880493}}],"meshes":[{"name":"Stationery_LOD0","primitives":[{"attributes":{"NORMAL":2,"POSITION":1,"TEXCOORD_0":3},"indices":0,"material":0,"mode":4}]},{"name":"Stationery_LOD1","primitives":[{"attributes":{"NORMAL":6,"POSITION":5,"TEXCOORD_0":7},"indices":4,"material":0,"mode":4}]}],"nodes":[{"mesh":0,"name":"Stationery_LOD0","rotation":[0,0,0,1],"scale":[1,1,1],"translation":[0,0,0]},{"mesh":1,"name":"Stationery_LOD1","rotation":[0,0,0,1],"scale":[1,1,1],"translation":[0,0,0]}],"samplers":[{}],"scene":0,"scenes":[{"name":"Root Scene","nodes":[0,1]}],"textures":[{"name":"base_color_texture","sampler":0,"source":0}]}