{"accessors":[{"bufferView":0,"byteOffset":0,"componentType":5123,"count":6480,"type":"SCALAR"},{"bufferView":1,"byteOffset":0,"componentType":5126,"count":1732,"max":[0.236409291625023,1.07257699966431,0.512899160385132],"min":[-0.48182773590088,-0.00073850154877,-0.3811257481575],"type":"VEC3"},{"bufferView":2,"byteOffset":0,"componentType":5126,"count":1732,"type":"VEC3"},{"bufferView":3,"byteOffset":0,"componentType":5126,"count":1732,"type":"VEC2"},{"bufferView":4,"byteOffset":0,"componentType":5123,"count":2490,"type":"SCALAR"},{"bufferView":5,"byteOffset":0,"componentType":5126,"count":803,"max":[0.23594368994236,1.07175266742706,0.512524545192719],"min":[-0.48253336548805,-0.00027287466219,-0.38081726431847],"type":"VEC3"},{"bufferView":6,"byteOffset":0,"componentType":5126,"count":803,"type":"VEC3"},{"bufferView":7,"byteOffset":0,"componentType":5126,"count":803,"type":"VEC2"},{"bufferView":8,"byteOffset":0,"componentType":5123,"count":492,"type":"SCALAR"},{"bufferView":9,"byteOffset":0,"componentType":5126,"count":248,"max":[0.232079446315765,1.07372462749481,0.511245131492615],"min":[-0.48824611306191,-0.00389416399412,-0.38313817977905],"type":"VEC3"},{"bufferView":10,"byteOffset":0,"componentType":5126,"count":248,"type":"VEC3"},{"bufferView":11,"byteOffset":0,"componentType":5126,"count":248,"type":"VEC2"}],"asset":{"generator":"FBX2glTF v0.13.1","version":"2.0"},"bufferViews":[{"buffer":0,"byteLength":12960,"byteOffset":0,"target":34963},{"buffer":0,"byteLength":20784,"byteOffset":12960,"target":34962},{"buffer":0,"byteLength":20784,"byteOffset":33744,"target":34962},{"buffer":0,"byteLength":13856,"byteOffset":54528,"target":34962},{"buffer":0,"byteLength":4980,"byteOffset":68384,"target":34963},{"buffer":0,"byteLength":9636,"byteOffset":73364,"target":34962},{"buffer":0,"byteLength":9636,"byteOffset":83000,"target":34962},{"buffer":0,"byteLength":6424,"byteOffset":92636,"target":34962},{"buffer":0,"byteLength":984,"byteOffset":99060,"target":34963},{"buffer":0,"byteLength":2976,"byteOffset":100044,"target":34962},{"buffer":0,"byteLength":2976,"byteOffset":103020,"target":34962},{"buffer":0,"byteLength":1984,"byteOffset":105996,"target":34962}],"buffers":[{"byteLength":107980,"uri":"Surgical_Table.bin"}],"materials":[{"alphaMode":"OPAQUE","doubleSided":false,"extras":{"fromFBX":{"isTruePBR":false,"shadingModel":"Phong"}},"name":"Armchair","pbrMetallicRoughness":{"baseColorFactor":[0.800000011920929,0.800000011920929,0.800000011920929,1],"metallicFactor":0.400000005960464,"roughnessFactor":0.272165536880493}}],"meshes":[{"name":"Surgical_Table_LOD0","primitives":[{"attributes":{"NORMAL":2,"POSITION":1,"TEXCOORD_0":3},"indices":0,"material":0,"mode":4}]},{"name":"Surgical_Table_LOD1","primitives":[{"attributes":{"NORMAL":6,"POSITION":5,"TEXCOORD_0":7},"indices":4,"material":0,"mode":4}]},{"name":"Surgical_Table_LOD2","primitives":[{"attributes":{"NORMAL":10,"POSITION":9,"TEXCOORD_0":11},"indices":8,"material":0,"mode":4}]}],"nodes":[{"mesh":0,"name":"Surgical_Table_LOD0","rotation":[0,0,0,1],"scale":[1,1,1],"translation":[0,0,0]},{"mesh":1,"name":"Surgical_Table_LOD1","rotation":[0,0,0,1],"scale":[1,1,1],"translation":[0,0,0]},{"mesh":2,"name":"Surgical_Table_LOD2","rotation":[0,0,0,1],"scale":[1,1,1],"translation":[0,0,0]}],"samplers":[{}],"scene":0,"scenes":[{"name":"Root Scene","nodes":[0,1,2]}]}