{"accessors":[{"bufferView":0,"byteOffset":0,"componentType":5123,"count":900,"type":"SCALAR"},{"bufferView":1,"byteOffset":0,"componentType":5126,"count":288,"max":[0.0993802547454834,0.037740558385849,0.189504787325859],"min":[-0.09180164337158,-0.00473657250404,-0.19501893222332],"type":"VEC3"},{"bufferView":2,"byteOffset":0,"componentType":5126,"count":288,"type":"VEC3"},{"bufferView":3,"byteOffset":0,"componentType":5126,"count":288,"type":"VEC2"},{"bufferView":4,"byteOffset":0,"componentType":5123,"count":516,"type":"SCALAR"},{"bufferView":5,"byteOffset":0,"componentType":5126,"count":162,"max":[0.0981738269329071,0.037740558385849,0.18921186029911],"min":[-0.09066054970026,-0.00473873363808,-0.19472602009773],"type":"VEC3"},{"bufferView":6,"byteOffset":0,"componentType":5126,"count":162,"type":"VEC3"},{"bufferView":7,"byteOffset":0,"componentType":5126,"count":162,"type":"VEC2"}],"asset":{"generator":"FBX2glTF v0.13.1","version":"2.0"},"bufferViews":[{"buffer":0,"byteLength":1800,"byteOffset":0,"target":34963},{"buffer":0,"byteLength":3456,"byteOffset":1800,"target":34962},{"buffer":0,"byteLength":3456,"byteOffset":5256,"target":34962},{"buffer":0,"byteLength":2304,"byteOffset":8712,"target":34962},{"buffer":0,"byteLength":1032,"byteOffset":11016,"target":34963},{"buffer":0,"byteLength":1944,"byteOffset":12048,"target":34962},{"buffer":0,"byteLength":1944,"byteOffset":13992,"target":34962},{"buffer":0,"byteLength":1296,"byteOffset":15936,"target":34962}],"buffers":[{"byteLength":17232,"uri":"Surgical_Bowl.bin"}],"materials":[{"alphaMode":"OPAQUE","doubleSided":false,"extras":{"fromFBX":{"isTruePBR":false,"shadingModel":"Phong"}},"name":"Armchair","pbrMetallicRoughness":{"baseColorFactor":[0.800000011920929,0.800000011920929,0.800000011920929,1],"metallicFactor":0.400000005960464,"roughnessFactor":0.272165536880493}}],"meshes":[{"name":"Surgical_Bowl_LOD0","primitives":[{"attributes":{"NORMAL":2,"POSITION":1,"TEXCOORD_0":3},"indices":0,"material":0,"mode":4}]},{"name":"Surgical_Bowl_LOD1","primitives":[{"attributes":{"NORMAL":6,"POSITION":5,"TEXCOORD_0":7},"indices":4,"material":0,"mode":4}]}],"nodes":[{"mesh":0,"name":"Surgical_Bowl_LOD0","rotation":[0,0,0,1],"scale":[1,1,1],"translation":[0,0,0]},{"mesh":1,"name":"Surgical_Bowl_LOD1","rotation":[0,0,0,1],"scale":[1,1,1],"translation":[0,0,0]}],"samplers":[{}],"scene":0,"scenes":[{"name":"Root Scene","nodes":[0,1]}]}