{"accessors":[{"bufferView":0,"byteOffset":0,"componentType":5123,"count":30,"type":"SCALAR"},{"bufferView":1,"byteOffset":0,"componentType":5126,"count":20,"max":[0.00423385761678219,0.400174409151077,0.249650478363037],"min":[-0.0133108003065,-0.32804611325264,-0.24965047836304],"type":"VEC3"},{"bufferView":2,"byteOffset":0,"componentType":5126,"count":20,"type":"VEC3"},{"bufferView":3,"byteOffset":0,"componentType":5126,"count":20,"type":"VEC2"}],"asset":{"generator":"FBX2glTF v0.13.1","version":"2.0"},"bufferViews":[{"buffer":0,"byteLength":60,"byteOffset":0,"target":34963},{"buffer":0,"byteLength":240,"byteOffset":60,"target":34962},{"buffer":0,"byteLength":240,"byteOffset":300,"target":34962},{"buffer":0,"byteLength":160,"byteOffset":540,"target":34962}],"buffers":[{"byteLength":700,"uri":"Tablet_09.bin"}],"images":[{"name":"Projector_Screen_A","uri":"Projector_Screen_A.tga"}],"materials":[{"alphaMode":"OPAQUE","doubleSided":false,"extras":{"fromFBX":{"isTruePBR":false,"shadingModel":"Phong"}},"name":"Projector_Screen","pbrMetallicRoughness":{"baseColorFactor":[1,1,1,1],"baseColorTexture":{"index":0,"texCoord":0},"metallicFactor":0.400000005960464,"roughnessFactor":0.272165536880493}}],"meshes":[{"name":"Tablet_09","primitives":[{"attributes":{"NORMAL":2,"POSITION":1,"TEXCOORD_0":3},"indices":0,"material":0,"mode":4}]}],"nodes":[{"mesh":0,"name":"Tablet_09","rotation":[0,0,0,1],"scale":[1,1,1],"translation":[0,0,0]}],"samplers":[{}],"scene":0,"scenes":[{"name":"Root Scene","nodes":[0]}],"textures":[{"name":"base_color_texture","sampler":0,"source":0}]}