{"accessors":[{"bufferView":0,"byteOffset":0,"componentType":5123,"count":78,"type":"SCALAR"},{"bufferView":1,"byteOffset":0,"componentType":5126,"count":36,"max":[0.00048577971756458,0.0850222110748291,0.203205585479736],"min":[-0.03083031065762,-0.08502221107483,-0.2057459205389],"type":"VEC3"},{"bufferView":2,"byteOffset":0,"componentType":5126,"count":36,"type":"VEC3"},{"bufferView":3,"byteOffset":0,"componentType":5126,"count":36,"type":"VEC2"}],"asset":{"generator":"FBX2glTF v0.13.1","version":"2.0"},"bufferViews":[{"buffer":0,"byteLength":156,"byteOffset":0,"target":34963},{"buffer":0,"byteLength":432,"byteOffset":156,"target":34962},{"buffer":0,"byteLength":432,"byteOffset":588,"target":34962},{"buffer":0,"byteLength":288,"byteOffset":1020,"target":34962}],"buffers":[{"byteLength":1308,"uri":"Tablet_05.bin"}],"images":[{"name":"Telephone_A","uri":"Telephone_A.tga"}],"materials":[{"alphaMode":"OPAQUE","doubleSided":false,"extras":{"fromFBX":{"isTruePBR":false,"shadingModel":"Phong"}},"name":"Telephone","pbrMetallicRoughness":{"baseColorFactor":[1,1,1,1],"baseColorTexture":{"index":0,"texCoord":0},"metallicFactor":0.400000005960464,"roughnessFactor":0.272165536880493}}],"meshes":[{"name":"Tablet_05","primitives":[{"attributes":{"NORMAL":2,"POSITION":1,"TEXCOORD_0":3},"indices":0,"material":0,"mode":4}]}],"nodes":[{"mesh":0,"name":"Tablet_05","rotation":[0,0,0,1],"scale":[1,1,1],"translation":[0,0,0]}],"samplers":[{}],"scene":0,"scenes":[{"name":"Root Scene","nodes":[0]}],"textures":[{"name":"base_color_texture","sampler":0,"source":0}]}