{"accessors":[{"bufferView":0,"byteOffset":0,"componentType":5123,"count":3006,"type":"SCALAR"},{"bufferView":1,"byteOffset":0,"componentType":5126,"count":750,"max":[0.00164877541828901,0.442240089178085,0.163640454411507],"min":[-0.20425009727478,-0.14050649106502,-0.20687541365623],"type":"VEC3"},{"bufferView":2,"byteOffset":0,"componentType":5126,"count":750,"type":"VEC3"},{"bufferView":3,"byteOffset":0,"componentType":5126,"count":750,"type":"VEC2"},{"bufferView":4,"byteOffset":0,"componentType":5123,"count":1509,"type":"SCALAR"},{"bufferView":5,"byteOffset":0,"componentType":5126,"count":432,"max":[0.00164877541828901,0.442240089178085,0.163640454411507],"min":[-0.20440384745598,-0.14050649106502,-0.20687541365623],"type":"VEC3"},{"bufferView":6,"byteOffset":0,"componentType":5126,"count":432,"type":"VEC3"},{"bufferView":7,"byteOffset":0,"componentType":5126,"count":432,"type":"VEC2"},{"bufferView":8,"byteOffset":0,"componentType":5123,"count":426,"type":"SCALAR"},{"bufferView":9,"byteOffset":0,"componentType":5126,"count":165,"max":[0.00164957414381206,0.43992418050766,0.161271095275879],"min":[-0.20464980602264,0.00194334890693426,-0.16136662662029],"type":"VEC3"},{"bufferView":10,"byteOffset":0,"componentType":5126,"count":165,"type":"VEC3"},{"bufferView":11,"byteOffset":0,"componentType":5126,"count":165,"type":"VEC2"}],"asset":{"generator":"FBX2glTF v0.13.1","version":"2.0"},"bufferViews":[{"buffer":0,"byteLength":6012,"byteOffset":0,"target":34963},{"buffer":0,"byteLength":9000,"byteOffset":6012,"target":34962},{"buffer":0,"byteLength":9000,"byteOffset":15012,"target":34962},{"buffer":0,"byteLength":6000,"byteOffset":24012,"target":34962},{"buffer":0,"byteLength":3018,"byteOffset":30012,"target":34963},{"buffer":0,"byteLength":5184,"byteOffset":33032,"target":34962},{"buffer":0,"byteLength":5184,"byteOffset":38216,"target":34962},{"buffer":0,"byteLength":3456,"byteOffset":43400,"target":34962},{"buffer":0,"byteLength":852,"byteOffset":46856,"target":34963},{"buffer":0,"byteLength":1980,"byteOffset":47708,"target":34962},{"buffer":0,"byteLength":1980,"byteOffset":49688,"target":34962},{"buffer":0,"byteLength":1320,"byteOffset":51668,"target":34962}],"buffers":[{"byteLength":52988,"uri":"Telephone.bin"}],"images":[{"name":"Telephone_A","uri":"Telephone_A.tga"}],"materials":[{"alphaMode":"OPAQUE","doubleSided":false,"extras":{"fromFBX":{"isTruePBR":false,"shadingModel":"Phong"}},"name":"Telephone","pbrMetallicRoughness":{"baseColorFactor":[1,1,1,1],"baseColorTexture":{"index":0,"texCoord":0},"metallicFactor":0.400000005960464,"roughnessFactor":0.272165536880493}}],"meshes":[{"name":"Telephone_LOD0","primitives":[{"attributes":{"NORMAL":2,"POSITION":1,"TEXCOORD_0":3},"indices":0,"material":0,"mode":4}]},{"name":"Telephone_LOD1","primitives":[{"attributes":{"NORMAL":6,"POSITION":5,"TEXCOORD_0":7},"indices":4,"material":0,"mode":4}]},{"name":"Telephone_LOD2","primitives":[{"attributes":{"NORMAL":10,"POSITION":9,"TEXCOORD_0":11},"indices":8,"material":0,"mode":4}]}],"nodes":[{"mesh":0,"name":"Telephone_LOD0","rotation":[0,0,0,1],"scale":[1,1,1],"translation":[0,0,0]},{"mesh":1,"name":"Telephone_LOD1","rotation":[0,0,0,1],"scale":[1,1,1],"translation":[0,0,0]},{"mesh":2,"name":"Telephone_LOD2","rotation":[0,0,0,1],"scale":[1,1,1],"translation":[0,0,0]}],"samplers":[{}],"scene":0,"scenes":[{"name":"Root Scene","nodes":[0,1,2]}],"textures":[{"name":"base_color_texture","sampler":0,"source":0}]}