{"accessors":[{"bufferView":0,"byteOffset":0,"componentType":5123,"count":948,"type":"SCALAR"},{"bufferView":1,"byteOffset":0,"componentType":5126,"count":598,"max":[0.176521375775337,0.013275982812047,0.19145841896534],"min":[-0.14805616438389,-0.00261886790395,-0.17606458067894],"type":"VEC3"},{"bufferView":2,"byteOffset":0,"componentType":5126,"count":598,"type":"VEC3"},{"bufferView":3,"byteOffset":0,"componentType":5126,"count":598,"type":"VEC2"},{"bufferView":4,"byteOffset":0,"componentType":5123,"count":504,"type":"SCALAR"},{"bufferView":5,"byteOffset":0,"componentType":5126,"count":396,"max":[0.176521390676498,0.0117066595703363,0.19145841896534],"min":[-0.1480308175087,-0.0015059967991,-0.17599166929722],"type":"VEC3"},{"bufferView":6,"byteOffset":0,"componentType":5126,"count":396,"type":"VEC3"},{"bufferView":7,"byteOffset":0,"componentType":5126,"count":396,"type":"VEC2"}],"asset":{"generator":"FBX2glTF v0.13.1","version":"2.0"},"bufferViews":[{"buffer":0,"byteLength":1896,"byteOffset":0,"target":34963},{"buffer":0,"byteLength":7176,"byteOffset":1896,"target":34962},{"buffer":0,"byteLength":7176,"byteOffset":9072,"target":34962},{"buffer":0,"byteLength":4784,"byteOffset":16248,"target":34962},{"buffer":0,"byteLength":1008,"byteOffset":21032,"target":34963},{"buffer":0,"byteLength":4752,"byteOffset":22040,"target":34962},{"buffer":0,"byteLength":4752,"byteOffset":26792,"target":34962},{"buffer":0,"byteLength":3168,"byteOffset":31544,"target":34962}],"buffers":[{"byteLength":34712,"uri":"Trash_03.bin"}],"images":[{"name":"Wall_01_A","uri":"Wall_01_A.tga"}],"materials":[{"alphaMode":"OPAQUE","doubleSided":false,"extras":{"fromFBX":{"isTruePBR":false,"shadingModel":"Phong"}},"name":"Wall_02","pbrMetallicRoughness":{"baseColorFactor":[1,1,1,1],"baseColorTexture":{"index":0,"texCoord":0},"metallicFactor":0.400000005960464,"roughnessFactor":0.272165536880493}}],"meshes":[{"name":"Trash_03_LOD0","primitives":[{"attributes":{"NORMAL":2,"POSITION":1,"TEXCOORD_0":3},"indices":0,"material":0,"mode":4}]},{"name":"Trash_03_LOD1","primitives":[{"attributes":{"NORMAL":6,"POSITION":5,"TEXCOORD_0":7},"indices":4,"material":0,"mode":4}]}],"nodes":[{"mesh":0,"name":"Trash_03_LOD0","rotation":[0,0,0,1],"scale":[1,1,1],"translation":[0,0,0]},{"mesh":1,"name":"Trash_03_LOD1","rotation":[0,0,0,1],"scale":[1,1,1],"translation":[0,0,0]}],"samplers":[{}],"scene":0,"scenes":[{"name":"Root Scene","nodes":[0,1]}],"textures":[{"name":"base_color_texture","sampler":0,"source":0}]}