{"accessors":[{"bufferView":0,"byteOffset":0,"componentType":5123,"count":1248,"type":"SCALAR"},{"bufferView":1,"byteOffset":0,"componentType":5126,"count":774,"max":[0.330571323633194,0.0200585797429085,1.03877377510071],"min":[-0.15128210186958,-0.00232747290283,-0.62029683589935],"type":"VEC3"},{"bufferView":2,"byteOffset":0,"componentType":5126,"count":774,"type":"VEC3"},{"bufferView":3,"byteOffset":0,"componentType":5126,"count":774,"type":"VEC2"},{"bufferView":4,"byteOffset":0,"componentType":5123,"count":738,"type":"SCALAR"},{"bufferView":5,"byteOffset":0,"componentType":5126,"count":522,"max":[0.330380767583847,0.0185171365737915,1.03873062133789],"min":[-0.15126529335976,-0.00232747290283,-0.61820006370544],"type":"VEC3"},{"bufferView":6,"byteOffset":0,"componentType":5126,"count":522,"type":"VEC3"},{"bufferView":7,"byteOffset":0,"componentType":5126,"count":522,"type":"VEC2"}],"asset":{"generator":"FBX2glTF v0.13.1","version":"2.0"},"bufferViews":[{"buffer":0,"byteLength":2496,"byteOffset":0,"target":34963},{"buffer":0,"byteLength":9288,"byteOffset":2496,"target":34962},{"buffer":0,"byteLength":9288,"byteOffset":11784,"target":34962},{"buffer":0,"byteLength":6192,"byteOffset":21072,"target":34962},{"buffer":0,"byteLength":1476,"byteOffset":27264,"target":34963},{"buffer":0,"byteLength":6264,"byteOffset":28740,"target":34962},{"buffer":0,"byteLength":6264,"byteOffset":35004,"target":34962},{"buffer":0,"byteLength":4176,"byteOffset":41268,"target":34962}],"buffers":[{"byteLength":45444,"uri":"Trash_02.bin"}],"images":[{"name":"Wall_01_A","uri":"Wall_01_A.tga"}],"materials":[{"alphaMode":"OPAQUE","doubleSided":false,"extras":{"fromFBX":{"isTruePBR":false,"shadingModel":"Phong"}},"name":"Wall_01","pbrMetallicRoughness":{"baseColorFactor":[1,1,1,1],"baseColorTexture":{"index":0,"texCoord":0},"metallicFactor":0.400000005960464,"roughnessFactor":0.272165536880493}}],"meshes":[{"name":"Trash_02_LOD0","primitives":[{"attributes":{"NORMAL":2,"POSITION":1,"TEXCOORD_0":3},"indices":0,"material":0,"mode":4}]},{"name":"Trash_02_LOD1","primitives":[{"attributes":{"NORMAL":6,"POSITION":5,"TEXCOORD_0":7},"indices":4,"material":0,"mode":4}]}],"nodes":[{"mesh":0,"name":"Trash_02_LOD0","rotation":[0,0,0,1],"scale":[1,1,1],"translation":[0,0,0]},{"mesh":1,"name":"Trash_02_LOD1","rotation":[0,0,0,1],"scale":[1,1,1],"translation":[0,0,0]}],"samplers":[{}],"scene":0,"scenes":[{"name":"Root Scene","nodes":[0,1]}],"textures":[{"name":"base_color_texture","sampler":0,"source":0}]}