{"accessors":[{"bufferView":0,"byteOffset":0,"componentType":5123,"count":1740,"type":"SCALAR"},{"bufferView":1,"byteOffset":0,"componentType":5126,"count":1150,"max":[0.643197059631348,0.0237810276448727,0.663718998432159],"min":[-0.55653530359268,-0.00282538100146,-0.57413214445114],"type":"VEC3"},{"bufferView":2,"byteOffset":0,"componentType":5126,"count":1150,"type":"VEC3"},{"bufferView":3,"byteOffset":0,"componentType":5126,"count":1150,"type":"VEC2"},{"bufferView":4,"byteOffset":0,"componentType":5123,"count":924,"type":"SCALAR"},{"bufferView":5,"byteOffset":0,"componentType":5126,"count":716,"max":[0.643197059631348,0.0237810276448727,0.663718998432159],"min":[-0.55653530359268,-0.00282538100146,-0.57393819093704],"type":"VEC3"},{"bufferView":6,"byteOffset":0,"componentType":5126,"count":716,"type":"VEC3"},{"bufferView":7,"byteOffset":0,"componentType":5126,"count":716,"type":"VEC2"}],"asset":{"generator":"FBX2glTF v0.13.1","version":"2.0"},"bufferViews":[{"buffer":0,"byteLength":3480,"byteOffset":0,"target":34963},{"buffer":0,"byteLength":13800,"byteOffset":3480,"target":34962},{"buffer":0,"byteLength":13800,"byteOffset":17280,"target":34962},{"buffer":0,"byteLength":9200,"byteOffset":31080,"target":34962},{"buffer":0,"byteLength":1848,"byteOffset":40280,"target":34963},{"buffer":0,"byteLength":8592,"byteOffset":42128,"target":34962},{"buffer":0,"byteLength":8592,"byteOffset":50720,"target":34962},{"buffer":0,"byteLength":5728,"byteOffset":59312,"target":34962}],"buffers":[{"byteLength":65040,"uri":"Trash_01.bin"}],"images":[{"name":"Floor_01_A","uri":"Floor_01_A.tga"}],"materials":[{"alphaMode":"OPAQUE","doubleSided":false,"extras":{"fromFBX":{"isTruePBR":false,"shadingModel":"Phong"}},"name":"Floor_02","pbrMetallicRoughness":{"baseColorFactor":[1,1,1,1],"baseColorTexture":{"index":0,"texCoord":0},"metallicFactor":0.400000005960464,"roughnessFactor":0.272165536880493}}],"meshes":[{"name":"Trash_01_LOD0","primitives":[{"attributes":{"NORMAL":2,"POSITION":1,"TEXCOORD_0":3},"indices":0,"material":0,"mode":4}]},{"name":"Trash_01_LOD1","primitives":[{"attributes":{"NORMAL":6,"POSITION":5,"TEXCOORD_0":7},"indices":4,"material":0,"mode":4}]}],"nodes":[{"mesh":0,"name":"Trash_01_LOD0","rotation":[0,0,0,1],"scale":[1,1,1],"translation":[0,0,0]},{"mesh":1,"name":"Trash_01_LOD1","rotation":[0,0,0,1],"scale":[1,1,1],"translation":[0,0,0]}],"samplers":[{}],"scene":0,"scenes":[{"name":"Root Scene","nodes":[0,1]}],"textures":[{"name":"base_color_texture","sampler":0,"source":0}]}