{"accessors":[{"bufferView":0,"byteOffset":0,"componentType":5123,"count":900,"type":"SCALAR"},{"bufferView":1,"byteOffset":0,"componentType":5126,"count":249,"max":[22.4735984802246,22.3326244354248,0.115569725632668],"min":[-22.1915836334229,-22.3326244354248,-77.8231506347656],"type":"VEC3"},{"bufferView":2,"byteOffset":0,"componentType":5126,"count":249,"type":"VEC3"},{"bufferView":3,"byteOffset":0,"componentType":5126,"count":249,"type":"VEC2"},{"bufferView":4,"byteOffset":0,"componentType":5123,"count":270,"type":"SCALAR"},{"bufferView":5,"byteOffset":0,"componentType":5126,"count":188,"max":[22.3822383880615,22.1408615112305,-0.06051329895854],"min":[-22.060733795166,-22.1627578735352,-77.5802841186523],"type":"VEC3"},{"bufferView":6,"byteOffset":0,"componentType":5126,"count":188,"type":"VEC3"},{"bufferView":7,"byteOffset":0,"componentType":5126,"count":188,"type":"VEC2"}],"asset":{"generator":"FBX2glTF v0.13.1","version":"2.0"},"bufferViews":[{"buffer":0,"byteLength":1800,"byteOffset":0,"target":34963},{"buffer":0,"byteLength":2988,"byteOffset":1800,"target":34962},{"buffer":0,"byteLength":2988,"byteOffset":4788,"target":34962},{"buffer":0,"byteLength":1992,"byteOffset":7776,"target":34962},{"buffer":0,"byteLength":540,"byteOffset":9768,"target":34963},{"buffer":0,"byteLength":2256,"byteOffset":10308,"target":34962},{"buffer":0,"byteLength":2256,"byteOffset":12564,"target":34962},{"buffer":0,"byteLength":1504,"byteOffset":14820,"target":34962}],"buffers":[{"byteLength":16324,"uri":"Urn_01.bin"}],"images":[{"name":"Urn_A","uri":"Urn_A.tga"}],"materials":[{"alphaMode":"OPAQUE","doubleSided":false,"extras":{"fromFBX":{"isTruePBR":false,"shadingModel":"Phong"}},"name":"Urn","pbrMetallicRoughness":{"baseColorFactor":[1,1,1,1],"baseColorTexture":{"index":0,"texCoord":0},"metallicFactor":0.400000005960464,"roughnessFactor":0.272165536880493}}],"meshes":[{"name":"Urn_01_LOD0","primitives":[{"attributes":{"NORMAL":2,"POSITION":1,"TEXCOORD_0":3},"indices":0,"material":0,"mode":4}]},{"name":"Urn_01_LOD1","primitives":[{"attributes":{"NORMAL":6,"POSITION":5,"TEXCOORD_0":7},"indices":4,"material":0,"mode":4}]}],"nodes":[{"mesh":0,"name":"Urn_01_LOD0","rotation":[0.707106828689575,0,0,0.707106709480286],"scale":[0.00999999977648258,0.00999999977648258,0.00999999977648258],"translation":[0,0,0]},{"mesh":1,"name":"Urn_01_LOD1","rotation":[0.707106828689575,0,0,0.707106709480286],"scale":[0.00999999977648258,0.00999999977648258,0.00999999977648258],"translation":[0,0,0]}],"samplers":[{}],"scene":0,"scenes":[{"name":"Root Scene","nodes":[0,1]}],"textures":[{"name":"base_color_texture","sampler":0,"source":0}]}