{"accessors":[{"bufferView":0,"byteOffset":0,"componentType":5123,"count":2229,"type":"SCALAR"},{"bufferView":1,"byteOffset":0,"componentType":5126,"count":781,"max":[0.218361258506775,0.496028691530228,0.155640706419945],"min":[-0.21305710077286,-0.00078787788516,-0.1582522392273],"type":"VEC3"},{"bufferView":2,"byteOffset":0,"componentType":5126,"count":781,"type":"VEC3"},{"bufferView":3,"byteOffset":0,"componentType":5126,"count":781,"type":"VEC2"},{"bufferView":4,"byteOffset":0,"componentType":5123,"count":978,"type":"SCALAR"},{"bufferView":5,"byteOffset":0,"componentType":5126,"count":262,"max":[0.218085080385208,0.494199484586716,0.155759423971176],"min":[-0.21395689249039,-0.00078991265036,-0.15764005482197],"type":"VEC3"},{"bufferView":6,"byteOffset":0,"componentType":5126,"count":262,"type":"VEC3"},{"bufferView":7,"byteOffset":0,"componentType":5126,"count":262,"type":"VEC2"},{"bufferView":8,"byteOffset":0,"componentType":5123,"count":204,"type":"SCALAR"},{"bufferView":9,"byteOffset":0,"componentType":5126,"count":58,"max":[0.217425689101219,0.490802526473999,0.150320589542389],"min":[-0.20687386393547,-0.00080750626512,-0.16148337721825],"type":"VEC3"},{"bufferView":10,"byteOffset":0,"componentType":5126,"count":58,"type":"VEC3"},{"bufferView":11,"byteOffset":0,"componentType":5126,"count":58,"type":"VEC2"}],"asset":{"generator":"FBX2glTF v0.13.1","version":"2.0"},"bufferViews":[{"buffer":0,"byteLength":4458,"byteOffset":0,"target":34963},{"buffer":0,"byteLength":9372,"byteOffset":4460,"target":34962},{"buffer":0,"byteLength":9372,"byteOffset":13832,"target":34962},{"buffer":0,"byteLength":6248,"byteOffset":23204,"target":34962},{"buffer":0,"byteLength":1956,"byteOffset":29452,"target":34963},{"buffer":0,"byteLength":3144,"byteOffset":31408,"target":34962},{"buffer":0,"byteLength":3144,"byteOffset":34552,"target":34962},{"buffer":0,"byteLength":2096,"byteOffset":37696,"target":34962},{"buffer":0,"byteLength":408,"byteOffset":39792,"target":34963},{"buffer":0,"byteLength":696,"byteOffset":40200,"target":34962},{"buffer":0,"byteLength":696,"byteOffset":40896,"target":34962},{"buffer":0,"byteLength":464,"byteOffset":41592,"target":34962}],"buffers":[{"byteLength":42056,"uri":"Urn_02.bin"}],"images":[{"name":"Urn_A","uri":"Urn_A.tga"}],"materials":[{"alphaMode":"OPAQUE","doubleSided":false,"extras":{"fromFBX":{"isTruePBR":false,"shadingModel":"Phong"}},"name":"Urn","pbrMetallicRoughness":{"baseColorFactor":[1,1,1,1],"baseColorTexture":{"index":0,"texCoord":0},"metallicFactor":0.400000005960464,"roughnessFactor":0.272165536880493}}],"meshes":[{"name":"Urn_02_LOD0","primitives":[{"attributes":{"NORMAL":2,"POSITION":1,"TEXCOORD_0":3},"indices":0,"material":0,"mode":4}]},{"name":"Urn_02_LOD1","primitives":[{"attributes":{"NORMAL":6,"POSITION":5,"TEXCOORD_0":7},"indices":4,"material":0,"mode":4}]},{"name":"Urn_02_LOD2","primitives":[{"attributes":{"NORMAL":10,"POSITION":9,"TEXCOORD_0":11},"indices":8,"material":0,"mode":4}]}],"nodes":[{"mesh":0,"name":"Urn_02_LOD0","rotation":[0,0,0,1],"scale":[1,1,1],"translation":[0,0,0]},{"mesh":1,"name":"Urn_02_LOD1","rotation":[0,0,0,1],"scale":[1,1,1],"translation":[0,0,0]},{"mesh":2,"name":"Urn_02_LOD2","rotation":[0,0,0,1],"scale":[1,1,1],"translation":[0,0,0]}],"samplers":[{}],"scene":0,"scenes":[{"name":"Root Scene","nodes":[0,1,2]}],"textures":[{"name":"base_color_texture","sampler":0,"source":0}]}