{"accessors":[{"bufferView":0,"byteOffset":0,"componentType":5123,"count":660,"type":"SCALAR"},{"bufferView":1,"byteOffset":0,"componentType":5126,"count":320,"max":[1.04202175140381,0.799999892711639,0.299469977617264],"min":[-1,-0.18473069369793,-0.29699745774269],"type":"VEC3"},{"bufferView":2,"byteOffset":0,"componentType":5126,"count":320,"type":"VEC3"},{"bufferView":3,"byteOffset":0,"componentType":5126,"count":320,"type":"VEC2"}],"asset":{"generator":"FBX2glTF v0.13.1","version":"2.0"},"bufferViews":[{"buffer":0,"byteLength":1320,"byteOffset":0,"target":34963},{"buffer":0,"byteLength":3840,"byteOffset":1320,"target":34962},{"buffer":0,"byteLength":3840,"byteOffset":5160,"target":34962},{"buffer":0,"byteLength":2560,"byteOffset":9000,"target":34962}],"buffers":[{"byteLength":11560,"uri":"Ventilation_System_04.bin"}],"images":[{"name":"Ventilation_System_A","uri":"Ventilation_System_A.tga"}],"materials":[{"alphaMode":"OPAQUE","doubleSided":false,"extras":{"fromFBX":{"isTruePBR":false,"shadingModel":"Phong"}},"name":"Ventilation_System","pbrMetallicRoughness":{"baseColorFactor":[1,1,1,1],"baseColorTexture":{"index":0,"texCoord":0},"metallicFactor":0.400000005960464,"roughnessFactor":0.272165536880493}}],"meshes":[{"name":"Ventilation_System_04","primitives":[{"attributes":{"NORMAL":2,"POSITION":1,"TEXCOORD_0":3},"indices":0,"material":0,"mode":4}]}],"nodes":[{"mesh":0,"name":"Ventilation_System_04","rotation":[0,0,0,1],"scale":[1,1,1],"translation":[0,0,0]}],"samplers":[{}],"scene":0,"scenes":[{"name":"Root Scene","nodes":[0]}],"textures":[{"name":"base_color_texture","sampler":0,"source":0}]}