{"accessors":[{"bufferView":0,"byteOffset":0,"componentType":5123,"count":852,"type":"SCALAR"},{"bufferView":1,"byteOffset":0,"componentType":5126,"count":400,"max":[0.282231271266937,0.799999892711639,0.299469977617264],"min":[-1.0041092634201,-0.04400864616036,-1],"type":"VEC3"},{"bufferView":2,"byteOffset":0,"componentType":5126,"count":400,"type":"VEC3"},{"bufferView":3,"byteOffset":0,"componentType":5126,"count":400,"type":"VEC2"}],"asset":{"generator":"FBX2glTF v0.13.1","version":"2.0"},"bufferViews":[{"buffer":0,"byteLength":1704,"byteOffset":0,"target":34963},{"buffer":0,"byteLength":4800,"byteOffset":1704,"target":34962},{"buffer":0,"byteLength":4800,"byteOffset":6504,"target":34962},{"buffer":0,"byteLength":3200,"byteOffset":11304,"target":34962}],"buffers":[{"byteLength":14504,"uri":"Ventilation_System_03.bin"}],"images":[{"name":"Ventilation_System_A","uri":"Ventilation_System_A.tga"}],"materials":[{"alphaMode":"OPAQUE","doubleSided":false,"extras":{"fromFBX":{"isTruePBR":false,"shadingModel":"Phong"}},"name":"Ventilation_System","pbrMetallicRoughness":{"baseColorFactor":[1,1,1,1],"baseColorTexture":{"index":0,"texCoord":0},"metallicFactor":0.400000005960464,"roughnessFactor":0.272165536880493}}],"meshes":[{"name":"Ventilation_System_03","primitives":[{"attributes":{"NORMAL":2,"POSITION":1,"TEXCOORD_0":3},"indices":0,"material":0,"mode":4}]}],"nodes":[{"mesh":0,"name":"Ventilation_System_03","rotation":[0,0,0,1],"scale":[1,1,1],"translation":[0,0,0]}],"samplers":[{}],"scene":0,"scenes":[{"name":"Root Scene","nodes":[0]}],"textures":[{"name":"base_color_texture","sampler":0,"source":0}]}