{"accessors":[{"bufferView":0,"byteOffset":0,"componentType":5123,"count":78,"type":"SCALAR"},{"bufferView":1,"byteOffset":0,"componentType":5126,"count":28,"max":[0.282231211662292,0.532231211662292,0],"min":[-0.28223133087158,-0.03223118185997,-0.01923060417175],"type":"VEC3"},{"bufferView":2,"byteOffset":0,"componentType":5126,"count":28,"type":"VEC3"},{"bufferView":3,"byteOffset":0,"componentType":5126,"count":28,"type":"VEC2"}],"asset":{"generator":"FBX2glTF v0.13.1","version":"2.0"},"bufferViews":[{"buffer":0,"byteLength":156,"byteOffset":0,"target":34963},{"buffer":0,"byteLength":336,"byteOffset":156,"target":34962},{"buffer":0,"byteLength":336,"byteOffset":492,"target":34962},{"buffer":0,"byteLength":224,"byteOffset":828,"target":34962}],"buffers":[{"byteLength":1052,"uri":"Ventilation_System_05.bin"}],"images":[{"name":"Ventilation_System_A","uri":"Ventilation_System_A.tga"}],"materials":[{"alphaMode":"OPAQUE","doubleSided":false,"extras":{"fromFBX":{"isTruePBR":false,"shadingModel":"Phong"}},"name":"Ventilation_System","pbrMetallicRoughness":{"baseColorFactor":[1,1,1,1],"baseColorTexture":{"index":0,"texCoord":0},"metallicFactor":0.400000005960464,"roughnessFactor":0.272165536880493}}],"meshes":[{"name":"Ventilation_System_05","primitives":[{"attributes":{"NORMAL":2,"POSITION":1,"TEXCOORD_0":3},"indices":0,"material":0,"mode":4}]}],"nodes":[{"mesh":0,"name":"Ventilation_System_05","rotation":[0,0,0,1],"scale":[1,1,1],"translation":[0,0,0]}],"samplers":[{}],"scene":0,"scenes":[{"name":"Root Scene","nodes":[0]}],"textures":[{"name":"base_color_texture","sampler":0,"source":0}]}