{"accessors":[{"bufferView":0,"byteOffset":0,"componentType":5123,"count":1728,"type":"SCALAR"},{"bufferView":1,"byteOffset":0,"componentType":5126,"count":692,"max":[0.276784896850586,2.56310081481934,0.65077543258667],"min":[-0.32156607508659,0.0000162981450557709,-0.65077543258667],"type":"VEC3"},{"bufferView":2,"byteOffset":0,"componentType":5126,"count":692,"type":"VEC3"},{"bufferView":3,"byteOffset":0,"componentType":5126,"count":692,"type":"VEC2"},{"bufferView":4,"byteOffset":0,"componentType":5123,"count":528,"type":"SCALAR"},{"bufferView":5,"byteOffset":0,"componentType":5126,"count":264,"max":[0.0338084697723389,1.27134025096893,0.621854782104492],"min":[-0.01747290417552,0,-0.01118326187134],"type":"VEC3"},{"bufferView":6,"byteOffset":0,"componentType":5126,"count":264,"type":"VEC3"},{"bufferView":7,"byteOffset":0,"componentType":5126,"count":264,"type":"VEC2"},{"bufferView":8,"byteOffset":0,"componentType":5123,"count":273,"type":"SCALAR"},{"bufferView":9,"byteOffset":0,"componentType":5126,"count":150,"max":[0.0338084697723389,1.27134025096893,0.621854782104492],"min":[-0.01758224517107,0,-0.01013193372637],"type":"VEC3"},{"bufferView":10,"byteOffset":0,"componentType":5126,"count":150,"type":"VEC3"},{"bufferView":11,"byteOffset":0,"componentType":5126,"count":150,"type":"VEC2"},{"bufferView":12,"byteOffset":0,"componentType":5123,"count":84,"type":"SCALAR"},{"bufferView":13,"byteOffset":0,"componentType":5126,"count":60,"max":[0.0338084697723389,1.27134025096893,0.621854782104492],"min":[0,0,0],"type":"VEC3"},{"bufferView":14,"byteOffset":0,"componentType":5126,"count":60,"type":"VEC3"},{"bufferView":15,"byteOffset":0,"componentType":5126,"count":60,"type":"VEC2"},{"bufferView":16,"byteOffset":0,"componentType":5123,"count":360,"type":"SCALAR"},{"bufferView":17,"byteOffset":0,"componentType":5126,"count":196,"max":[0.0338084697723389,1.27134025096893,0.0111832618713379],"min":[-0.01259213685989,0,-0.62185478210449],"type":"VEC3"},{"bufferView":18,"byteOffset":0,"componentType":5126,"count":196,"type":"VEC3"},{"bufferView":19,"byteOffset":0,"componentType":5126,"count":196,"type":"VEC2"},{"bufferView":20,"byteOffset":0,"componentType":5123,"count":198,"type":"SCALAR"},{"bufferView":21,"byteOffset":0,"componentType":5126,"count":124,"max":[0.0338084697723389,1.27134025096893,0.0101319337263703],"min":[-0.01255952659994,0,-0.62185478210449],"type":"VEC3"},{"bufferView":22,"byteOffset":0,"componentType":5126,"count":124,"type":"VEC3"},{"bufferView":23,"byteOffset":0,"componentType":5126,"count":124,"type":"VEC2"},{"bufferView":24,"byteOffset":0,"componentType":5123,"count":78,"type":"SCALAR"},{"bufferView":25,"byteOffset":0,"componentType":5126,"count":54,"max":[0.0338084697723389,1.27134025096893,0],"min":[0,0,-0.62185478210449],"type":"VEC3"},{"bufferView":26,"byteOffset":0,"componentType":5126,"count":54,"type":"VEC3"},{"bufferView":27,"byteOffset":0,"componentType":5126,"count":54,"type":"VEC2"},{"bufferView":28,"byteOffset":0,"componentType":5123,"count":846,"type":"SCALAR"},{"bufferView":29,"byteOffset":0,"componentType":5126,"count":422,"max":[0.276784896850586,2.56310081481934,0.65077543258667],"min":[-0.32156607508659,0.0000162956694111926,-0.65077543258667],"type":"VEC3"},{"bufferView":30,"byteOffset":0,"componentType":5126,"count":422,"type":"VEC3"},{"bufferView":31,"byteOffset":0,"componentType":5126,"count":422,"type":"VEC2"},{"bufferView":32,"byteOffset":0,"componentType":5123,"count":240,"type":"SCALAR"},{"bufferView":33,"byteOffset":0,"componentType":5126,"count":158,"max":[0.276784896850586,2.56310081481934,0.65077543258667],"min":[-0.32156607508659,0.0585549287497997,-0.65077543258667],"type":"VEC3"},{"bufferView":34,"byteOffset":0,"componentType":5126,"count":158,"type":"VEC3"},{"bufferView":35,"byteOffset":0,"componentType":5126,"count":158,"type":"VEC2"},{"bufferView":36,"byteOffset":0,"componentType":5123,"count":12,"type":"SCALAR"},{"bufferView":37,"byteOffset":0,"componentType":5126,"count":8,"max":[0.0192896258085966,1.20361173152924,0.531604468822479],"min":[0.0155982486903667,0.0975199490785599,0.0830919593572617],"type":"VEC3"},{"bufferView":38,"byteOffset":0,"componentType":5126,"count":8,"type":"VEC3"},{"bufferView":39,"byteOffset":0,"componentType":5126,"count":8,"type":"VEC2"},{"bufferView":40,"byteOffset":0,"componentType":5123,"count":12,"type":"SCALAR"},{"bufferView":41,"byteOffset":0,"componentType":5126,"count":8,"max":[0.0192896258085966,1.20361173152924,0.531604468822479],"min":[0.0155982486903667,0.0975199490785599,0.0830919593572617],"type":"VEC3"},{"bufferView":42,"byteOffset":0,"componentType":5126,"count":8,"type":"VEC3"},{"bufferView":43,"byteOffset":0,"componentType":5126,"count":8,"type":"VEC2"},{"bufferView":44,"byteOffset":0,"componentType":5123,"count":12,"type":"SCALAR"},{"bufferView":45,"byteOffset":0,"componentType":5126,"count":8,"max":[0.0192896258085966,1.20361173152924,0.531604468822479],"min":[0.0155982486903667,0.0975199490785599,0.0830919593572617],"type":"VEC3"},{"bufferView":46,"byteOffset":0,"componentType":5126,"count":8,"type":"VEC3"},{"bufferView":47,"byteOffset":0,"componentType":5126,"count":8,"type":"VEC2"},{"bufferView":48,"byteOffset":0,"componentType":5123,"count":12,"type":"SCALAR"},{"bufferView":49,"byteOffset":0,"componentType":5126,"count":8,"max":[0.0192896258085966,1.20361173152924,-0.08364868164062],"min":[0.0155982486903667,0.0975199490785599,-0.53216117620468],"type":"VEC3"},{"bufferView":50,"byteOffset":0,"componentType":5126,"count":8,"type":"VEC3"},{"bufferView":51,"byteOffset":0,"componentType":5126,"count":8,"type":"VEC2"},{"bufferView":52,"byteOffset":0,"componentType":5123,"count":12,"type":"SCALAR"},{"bufferView":53,"byteOffset":0,"componentType":5126,"count":8,"max":[0.0192896258085966,1.20361173152924,-0.08364868164062],"min":[0.0155982486903667,0.0975199490785599,-0.53216117620468],"type":"VEC3"},{"bufferView":54,"byteOffset":0,"componentType":5126,"count":8,"type":"VEC3"},{"bufferView":55,"byteOffset":0,"componentType":5126,"count":8,"type":"VEC2"},{"bufferView":56,"byteOffset":0,"componentType":5123,"count":12,"type":"SCALAR"},{"bufferView":57,"byteOffset":0,"componentType":5126,"count":8,"max":[0.0192896258085966,1.20361173152924,-0.08364868164062],"min":[0.0155982486903667,0.0975199490785599,-0.53216117620468],"type":"VEC3"},{"bufferView":58,"byteOffset":0,"componentType":5126,"count":8,"type":"VEC3"},{"bufferView":59,"byteOffset":0,"componentType":5126,"count":8,"type":"VEC2"}],"asset":{"generator":"FBX2glTF v0.13.1","version":"2.0"},"bufferViews":[{"buffer":0,"byteLength":3456,"byteOffset":0,"target":34963},{"buffer":0,"byteLength":8304,"byteOffset":3456,"target":34962},{"buffer":0,"byteLength":8304,"byteOffset":11760,"target":34962},{"buffer":0,"byteLength":5536,"byteOffset":20064,"target":34962},{"buffer":0,"byteLength":1056,"byteOffset":25600,"target":34963},{"buffer":0,"byteLength":3168,"byteOffset":26656,"target":34962},{"buffer":0,"byteLength":3168,"byteOffset":29824,"target":34962},{"buffer":0,"byteLength":2112,"byteOffset":32992,"target":34962},{"buffer":0,"byteLength":546,"byteOffset":35104,"target":34963},{"buffer":0,"byteLength":1800,"byteOffset":35652,"target":34962},{"buffer":0,"byteLength":1800,"byteOffset":37452,"target":34962},{"buffer":0,"byteLength":1200,"byteOffset":39252,"target":34962},{"buffer":0,"byteLength":168,"byteOffset":40452,"target":34963},{"buffer":0,"byteLength":720,"byteOffset":40620,"target":34962},{"buffer":0,"byteLength":720,"byteOffset":41340,"target":34962},{"buffer":0,"byteLength":480,"byteOffset":42060,"target":34962},{"buffer":0,"byteLength":720,"byteOffset":42540,"target":34963},{"buffer":0,"byteLength":2352,"byteOffset":43260,"target":34962},{"buffer":0,"byteLength":2352,"byteOffset":45612,"target":34962},{"buffer":0,"byteLength":1568,"byteOffset":47964,"target":34962},{"buffer":0,"byteLength":396,"byteOffset":49532,"target":34963},{"buffer":0,"byteLength":1488,"byteOffset":49928,"target":34962},{"buffer":0,"byteLength":1488,"byteOffset":51416,"target":34962},{"buffer":0,"byteLength":992,"byteOffset":52904,"target":34962},{"buffer":0,"byteLength":156,"byteOffset":53896,"target":34963},{"buffer":0,"byteLength":648,"byteOffset":54052,"target":34962},{"buffer":0,"byteLength":648,"byteOffset":54700,"target":34962},{"buffer":0,"byteLength":432,"byteOffset":55348,"target":34962},{"buffer":0,"byteLength":1692,"byteOffset":55780,"target":34963},{"buffer":0,"byteLength":5064,"byteOffset":57472,"target":34962},{"buffer":0,"byteLength":5064,"byteOffset":62536,"target":34962},{"buffer":0,"byteLength":3376,"byteOffset":67600,"target":34962},{"buffer":0,"byteLength":480,"byteOffset":70976,"target":34963},{"buffer":0,"byteLength":1896,"byteOffset":71456,"target":34962},{"buffer":0,"byteLength":1896,"byteOffset":73352,"target":34962},{"buffer":0,"byteLength":1264,"byteOffset":75248,"target":34962},{"buffer":0,"byteLength":24,"byteOffset":76512,"target":34963},{"buffer":0,"byteLength":96,"byteOffset":76536,"target":34962},{"buffer":0,"byteLength":96,"byteOffset":76632,"target":34962},{"buffer":0,"byteLength":64,"byteOffset":76728,"target":34962},{"buffer":0,"byteLength":24,"byteOffset":76792,"target":34963},{"buffer":0,"byteLength":96,"byteOffset":76816,"target":34962},{"buffer":0,"byteLength":96,"byteOffset":76912,"target":34962},{"buffer":0,"byteLength":64,"byteOffset":77008,"target":34962},{"buffer":0,"byteLength":24,"byteOffset":77072,"target":34963},{"buffer":0,"byteLength":96,"byteOffset":77096,"target":34962},{"buffer":0,"byteLength":96,"byteOffset":77192,"target":34962},{"buffer":0,"byteLength":64,"byteOffset":77288,"target":34962},{"buffer":0,"byteLength":24,"byteOffset":77352,"target":34963},{"buffer":0,"byteLength":96,"byteOffset":77376,"target":34962},{"buffer":0,"byteLength":96,"byteOffset":77472,"target":34962},{"buffer":0,"byteLength":64,"byteOffset":77568,"target":34962},{"buffer":0,"byteLength":24,"byteOffset":77632,"target":34963},{"buffer":0,"byteLength":96,"byteOffset":77656,"target":34962},{"buffer":0,"byteLength":96,"byteOffset":77752,"target":34962},{"buffer":0,"byteLength":64,"byteOffset":77848,"target":34962},{"buffer":0,"byteLength":24,"byteOffset":77912,"target":34963},{"buffer":0,"byteLength":96,"byteOffset":77936,"target":34962},{"buffer":0,"byteLength":96,"byteOffset":78032,"target":34962},{"buffer":0,"byteLength":64,"byteOffset":78128,"target":34962}],"buffers":[{"byteLength":78192,"uri":"Wardrobe_01.bin"}],"images":[{"name":"Wardrobe_A","uri":"Wardrobe_A.tga"},{"name":"Glass_A","uri":"Glass_A.tga"}],"materials":[{"alphaMode":"OPAQUE","doubleSided":false,"extras":{"fromFBX":{"isTruePBR":false,"shadingModel":"Phong"}},"name":"Wardrobe","pbrMetallicRoughness":{"baseColorFactor":[1,1,1,1],"baseColorTexture":{"index":0,"texCoord":0},"metallicFactor":0.400000005960464,"roughnessFactor":0.272165536880493}},{"alphaMode":"OPAQUE","doubleSided":false,"extras":{"fromFBX":{"isTruePBR":false,"shadingModel":"Phong"}},"name":"Glass","pbrMetallicRoughness":{"baseColorFactor":[1,1,1,1],"baseColorTexture":{"index":1,"texCoord":0},"metallicFactor":0.400000005960464,"roughnessFactor":0.272165536880493}}],"meshes":[{"name":"Wardrobe_01_LOD0","primitives":[{"attributes":{"NORMAL":2,"POSITION":1,"TEXCOORD_0":3},"indices":0,"material":0,"mode":4}]},{"name":"Wardrobe_Door_01_LOD0","primitives":[{"attributes":{"NORMAL":6,"POSITION":5,"TEXCOORD_0":7},"indices":4,"material":0,"mode":4},{"attributes":{"NORMAL":38,"POSITION":37,"TEXCOORD_0":39},"indices":36,"material":1,"mode":4}]},{"name":"Wardrobe_Door_01_LOD1","primitives":[{"attributes":{"NORMAL":10,"POSITION":9,"TEXCOORD_0":11},"indices":8,"material":0,"mode":4},{"attributes":{"NORMAL":42,"POSITION":41,"TEXCOORD_0":43},"indices":40,"material":1,"mode":4}]},{"name":"Wardrobe_Door_01_LOD2","primitives":[{"attributes":{"NORMAL":14,"POSITION":13,"TEXCOORD_0":15},"indices":12,"material":0,"mode":4},{"attributes":{"NORMAL":46,"POSITION":45,"TEXCOORD_0":47},"indices":44,"material":1,"mode":4}]},{"name":"Wardrobe_Door_02_LOD0","primitives":[{"attributes":{"NORMAL":18,"POSITION":17,"TEXCOORD_0":19},"indices":16,"material":0,"mode":4},{"attributes":{"NORMAL":50,"POSITION":49,"TEXCOORD_0":51},"indices":48,"material":1,"mode":4}]},{"name":"Wardrobe_Door_02_LOD1","primitives":[{"attributes":{"NORMAL":22,"POSITION":21,"TEXCOORD_0":23},"indices":20,"material":0,"mode":4},{"attributes":{"NORMAL":54,"POSITION":53,"TEXCOORD_0":55},"indices":52,"material":1,"mode":4}]},{"name":"Wardrobe_Door_02_LOD2","primitives":[{"attributes":{"NORMAL":26,"POSITION":25,"TEXCOORD_0":27},"indices":24,"material":0,"mode":4},{"attributes":{"NORMAL":58,"POSITION":57,"TEXCOORD_0":59},"indices":56,"material":1,"mode":4}]},{"name":"Wardrobe_01_LOD1","primitives":[{"attributes":{"NORMAL":30,"POSITION":29,"TEXCOORD_0":31},"indices":28,"material":0,"mode":4}]},{"name":"Wardrobe_01_LOD2","primitives":[{"attributes":{"NORMAL":34,"POSITION":33,"TEXCOORD_0":35},"indices":32,"material":0,"mode":4}]}],"nodes":[{"mesh":0,"name":"Wardrobe_01_LOD0","rotation":[0,0,0,1],"scale":[1,1,1],"translation":[0,0,0]},{"children":[2,3],"mesh":1,"name":"Wardrobe_Door_01_LOD0","rotation":[0,0,0,1],"scale":[1,1,1],"translation":[-0.27844905853272,1.26326203346252,-0.62688064575195]},{"mesh":2,"name":"Wardrobe_Door_01_LOD1","rotation":[0,0,0,1],"scale":[1,1,1],"translation":[0,0.0000000762939436071974,0.000000114440915410796]},{"mesh":3,"name":"Wardrobe_Door_01_LOD2","rotation":[0,0,0,1],"scale":[1,1,1],"translation":[0,0.0000000762939436071974,0.000000114440915410796]},{"children":[5,6],"mesh":4,"name":"Wardrobe_Door_02_LOD0","rotation":[0,0,0,1],"scale":[1,1,1],"translation":[-0.27844905853272,1.26326203346252,0.620460510253906]},{"mesh":5,"name":"Wardrobe_Door_02_LOD1","rotation":[0,0,0,1],"scale":[1,1,1],"translation":[0,0.0000000762939436071974,0.000000114440915410796]},{"mesh":6,"name":"Wardrobe_Door_02_LOD2","rotation":[0,0,0,1],"scale":[1,1,1],"translation":[0,0.0000000762939436071974,0.000000114440915410796]},{"mesh":7,"name":"Wardrobe_01_LOD1","rotation":[0,0,0,1],"scale":[1,1,1],"translation":[0,0,0]},{"mesh":8,"name":"Wardrobe_01_LOD2","rotation":[0,0,0,1],"scale":[1,1,1],"translation":[0,0,0]}],"samplers":[{}],"scene":0,"scenes":[{"name":"Root Scene","nodes":[0,1,4,7,8]}],"textures":[{"name":"base_color_texture","sampler":0,"source":0},{"name":"base_color_texture","sampler":0,"source":1}]}