{"accessors":[{"bufferView":0,"byteOffset":0,"componentType":5123,"count":3444,"type":"SCALAR"},{"bufferView":1,"byteOffset":0,"componentType":5126,"count":2096,"max":[0.285070061683655,2.58169937133789,0.659303903579712],"min":[-0.29142716526985,0,-0.30161035060883],"type":"VEC3"},{"bufferView":2,"byteOffset":0,"componentType":5126,"count":2096,"type":"VEC3"},{"bufferView":3,"byteOffset":0,"componentType":5126,"count":2096,"type":"VEC2"},{"bufferView":4,"byteOffset":0,"componentType":5123,"count":336,"type":"SCALAR"},{"bufferView":5,"byteOffset":0,"componentType":5126,"count":156,"max":[0.0264444351196289,2.04100131988525,0.0139346122741699],"min":[-0.00591331720352,0,-0.87648624181747],"type":"VEC3"},{"bufferView":6,"byteOffset":0,"componentType":5126,"count":156,"type":"VEC3"},{"bufferView":7,"byteOffset":0,"componentType":5126,"count":156,"type":"VEC2"},{"bufferView":8,"byteOffset":0,"componentType":5123,"count":165,"type":"SCALAR"},{"bufferView":9,"byteOffset":0,"componentType":5126,"count":99,"max":[0.0264444351196289,2.04100131988525,0.0139020122587681],"min":[-0.00607017008588,0,-0.87648624181747],"type":"VEC3"},{"bufferView":10,"byteOffset":0,"componentType":5126,"count":99,"type":"VEC3"},{"bufferView":11,"byteOffset":0,"componentType":5126,"count":99,"type":"VEC2"},{"bufferView":12,"byteOffset":0,"componentType":5123,"count":990,"type":"SCALAR"},{"bufferView":13,"byteOffset":0,"componentType":5126,"count":669,"max":[0.285664200782776,2.5794243812561,0.659835398197174],"min":[-0.29182726144791,0,-0.30226361751556],"type":"VEC3"},{"bufferView":14,"byteOffset":0,"componentType":5126,"count":669,"type":"VEC3"},{"bufferView":15,"byteOffset":0,"componentType":5126,"count":669,"type":"VEC2"},{"bufferView":16,"byteOffset":0,"componentType":5123,"count":648,"type":"SCALAR"},{"bufferView":17,"byteOffset":0,"componentType":5126,"count":376,"max":[0.285070061683655,2.58169937133789,0.659303903579712],"min":[-0.29142716526985,0,-0.30161035060883],"type":"VEC3"},{"bufferView":18,"byteOffset":0,"componentType":5126,"count":376,"type":"VEC3"},{"bufferView":19,"byteOffset":0,"componentType":5126,"count":376,"type":"VEC2"},{"bufferView":20,"byteOffset":0,"componentType":5123,"count":12,"type":"SCALAR"},{"bufferView":21,"byteOffset":0,"componentType":5126,"count":8,"max":[0.021407425403595,1.9829283952713,-0.05838394165039],"min":[0.0105903148651123,0.0603613257408142,-0.81482923030853],"type":"VEC3"},{"bufferView":22,"byteOffset":0,"componentType":5126,"count":8,"type":"VEC3"},{"bufferView":23,"byteOffset":0,"componentType":5126,"count":8,"type":"VEC2"},{"bufferView":24,"byteOffset":0,"componentType":5123,"count":12,"type":"SCALAR"},{"bufferView":25,"byteOffset":0,"componentType":5126,"count":8,"max":[0.021407425403595,1.9829283952713,-0.05838394165039],"min":[0.0105903148651123,0.0603613257408142,-0.81482923030853],"type":"VEC3"},{"bufferView":26,"byteOffset":0,"componentType":5126,"count":8,"type":"VEC3"},{"bufferView":27,"byteOffset":0,"componentType":5126,"count":8,"type":"VEC2"}],"asset":{"generator":"FBX2glTF v0.13.1","version":"2.0"},"bufferViews":[{"buffer":0,"byteLength":6888,"byteOffset":0,"target":34963},{"buffer":0,"byteLength":25152,"byteOffset":6888,"target":34962},{"buffer":0,"byteLength":25152,"byteOffset":32040,"target":34962},{"buffer":0,"byteLength":16768,"byteOffset":57192,"target":34962},{"buffer":0,"byteLength":672,"byteOffset":73960,"target":34963},{"buffer":0,"byteLength":1872,"byteOffset":74632,"target":34962},{"buffer":0,"byteLength":1872,"byteOffset":76504,"target":34962},{"buffer":0,"byteLength":1248,"byteOffset":78376,"target":34962},{"buffer":0,"byteLength":330,"byteOffset":79624,"target":34963},{"buffer":0,"byteLength":1188,"byteOffset":79956,"target":34962},{"buffer":0,"byteLength":1188,"byteOffset":81144,"target":34962},{"buffer":0,"byteLength":792,"byteOffset":82332,"target":34962},{"buffer":0,"byteLength":1980,"byteOffset":83124,"target":34963},{"buffer":0,"byteLength":8028,"byteOffset":85104,"target":34962},{"buffer":0,"byteLength":8028,"byteOffset":93132,"target":34962},{"buffer":0,"byteLength":5352,"byteOffset":101160,"target":34962},{"buffer":0,"byteLength":1296,"byteOffset":106512,"target":34963},{"buffer":0,"byteLength":4512,"byteOffset":107808,"target":34962},{"buffer":0,"byteLength":4512,"byteOffset":112320,"target":34962},{"buffer":0,"byteLength":3008,"byteOffset":116832,"target":34962},{"buffer":0,"byteLength":24,"byteOffset":119840,"target":34963},{"buffer":0,"byteLength":96,"byteOffset":119864,"target":34962},{"buffer":0,"byteLength":96,"byteOffset":119960,"target":34962},{"buffer":0,"byteLength":64,"byteOffset":120056,"target":34962},{"buffer":0,"byteLength":24,"byteOffset":120120,"target":34963},{"buffer":0,"byteLength":96,"byteOffset":120144,"target":34962},{"buffer":0,"byteLength":96,"byteOffset":120240,"target":34962},{"buffer":0,"byteLength":64,"byteOffset":120336,"target":34962}],"buffers":[{"byteLength":120400,"uri":"Wardrobe_02.bin"}],"images":[{"name":"Wardrobe_A","uri":"Wardrobe_A.tga"},{"name":"Glass_A","uri":"Glass_A.tga"}],"materials":[{"alphaMode":"OPAQUE","doubleSided":false,"extras":{"fromFBX":{"isTruePBR":false,"shadingModel":"Phong"}},"name":"Wardrobe","pbrMetallicRoughness":{"baseColorFactor":[1,1,1,1],"baseColorTexture":{"index":0,"texCoord":0},"metallicFactor":0.400000005960464,"roughnessFactor":0.272165536880493}},{"alphaMode":"OPAQUE","doubleSided":false,"extras":{"fromFBX":{"isTruePBR":false,"shadingModel":"Phong"}},"name":"Glass","pbrMetallicRoughness":{"baseColorFactor":[1,1,1,1],"baseColorTexture":{"index":1,"texCoord":0},"metallicFactor":0.400000005960464,"roughnessFactor":0.272165536880493}}],"meshes":[{"name":"Wardrobe_02_LOD0","primitives":[{"attributes":{"NORMAL":2,"POSITION":1,"TEXCOORD_0":3},"indices":0,"material":0,"mode":4}]},{"name":"Wardrobe_02_Door_LOD0","primitives":[{"attributes":{"NORMAL":6,"POSITION":5,"TEXCOORD_0":7},"indices":4,"material":0,"mode":4},{"attributes":{"NORMAL":22,"POSITION":21,"TEXCOORD_0":23},"indices":20,"material":1,"mode":4}]},{"name":"Wardrobe_02_Door_LOD1","primitives":[{"attributes":{"NORMAL":10,"POSITION":9,"TEXCOORD_0":11},"indices":8,"material":0,"mode":4},{"attributes":{"NORMAL":26,"POSITION":25,"TEXCOORD_0":27},"indices":24,"material":1,"mode":4}]},{"name":"Wardrobe_02_LOD1","primitives":[{"attributes":{"NORMAL":14,"POSITION":13,"TEXCOORD_0":15},"indices":12,"material":0,"mode":4}]},{"name":"Wardrobe_02_LOD2","primitives":[{"attributes":{"NORMAL":18,"POSITION":17,"TEXCOORD_0":19},"indices":16,"material":0,"mode":4}]}],"nodes":[{"mesh":0,"name":"Wardrobe_02_LOD0","rotation":[0,0,0,1],"scale":[1,1,1],"translation":[0,0,0]},{"children":[2],"mesh":1,"name":"Wardrobe_02_Door_LOD0","rotation":[0,0,0,1],"scale":[1,1,1],"translation":[-0.27783697843552,0.493601024150848,0.621854782104492]},{"mesh":2,"name":"Wardrobe_02_Door_LOD1","rotation":[0,0,0,1],"scale":[1,1,1],"translation":[0,0.0000000381469718035987,0.0000000762939436071974]},{"mesh":3,"name":"Wardrobe_02_LOD1","rotation":[0,0,0,1],"scale":[1,1,1],"translation":[0,0,0]},{"mesh":4,"name":"Wardrobe_02_LOD2","rotation":[0,0,0,1],"scale":[1,1,1],"translation":[0,0,0]}],"samplers":[{}],"scene":0,"scenes":[{"name":"Root Scene","nodes":[0,1,3,4]}],"textures":[{"name":"base_color_texture","sampler":0,"source":0},{"name":"base_color_texture","sampler":0,"source":1}]}