{"accessors":[{"bufferView":0,"byteOffset":0,"componentType":5123,"count":26646,"type":"SCALAR"},{"bufferView":1,"byteOffset":0,"componentType":5126,"count":7676,"max":[0.650537550449371,1.31470382213593,0.429542005062103],"min":[-0.63716304302216,0.00127261877059937,-0.4295420050621],"type":"VEC3"},{"bufferView":2,"byteOffset":0,"componentType":5126,"count":7676,"type":"VEC3"},{"bufferView":3,"byteOffset":0,"componentType":5126,"count":7676,"type":"VEC2"},{"bufferView":4,"byteOffset":0,"componentType":5123,"count":13695,"type":"SCALAR"},{"bufferView":5,"byteOffset":0,"componentType":5126,"count":4523,"max":[0.650655746459961,1.31483471393585,0.429542005062103],"min":[-0.63716304302216,0.00127261877059937,-0.4295420050621],"type":"VEC3"},{"bufferView":6,"byteOffset":0,"componentType":5126,"count":4523,"type":"VEC3"},{"bufferView":7,"byteOffset":0,"componentType":5126,"count":4523,"type":"VEC2"},{"bufferView":8,"byteOffset":0,"componentType":5123,"count":1854,"type":"SCALAR"},{"bufferView":9,"byteOffset":0,"componentType":5126,"count":847,"max":[0.646430671215057,1.31449151039124,0.418564319610596],"min":[-0.63716304302216,-0.01036972831935,-0.42401370406151],"type":"VEC3"},{"bufferView":10,"byteOffset":0,"componentType":5126,"count":847,"type":"VEC3"},{"bufferView":11,"byteOffset":0,"componentType":5126,"count":847,"type":"VEC2"}],"asset":{"generator":"FBX2glTF v0.13.1","version":"2.0"},"bufferViews":[{"buffer":0,"byteLength":53292,"byteOffset":0,"target":34963},{"buffer":0,"byteLength":92112,"byteOffset":53292,"target":34962},{"buffer":0,"byteLength":92112,"byteOffset":145404,"target":34962},{"buffer":0,"byteLength":61408,"byteOffset":237516,"target":34962},{"buffer":0,"byteLength":27390,"byteOffset":298924,"target":34963},{"buffer":0,"byteLength":54276,"byteOffset":326316,"target":34962},{"buffer":0,"byteLength":54276,"byteOffset":380592,"target":34962},{"buffer":0,"byteLength":36184,"byteOffset":434868,"target":34962},{"buffer":0,"byteLength":3708,"byteOffset":471052,"target":34963},{"buffer":0,"byteLength":10164,"byteOffset":474760,"target":34962},{"buffer":0,"byteLength":10164,"byteOffset":484924,"target":34962},{"buffer":0,"byteLength":6776,"byteOffset":495088,"target":34962}],"buffers":[{"byteLength":501864,"uri":"Wheelchair.bin"}],"images":[{"name":"Wheelchair_A","uri":"Wheelchair_A.tga"}],"materials":[{"alphaMode":"OPAQUE","doubleSided":false,"extras":{"fromFBX":{"isTruePBR":false,"shadingModel":"Phong"}},"name":"Wheelchair","pbrMetallicRoughness":{"baseColorFactor":[1,1,1,1],"baseColorTexture":{"index":0,"texCoord":0},"metallicFactor":0.400000005960464,"roughnessFactor":0.272165536880493}}],"meshes":[{"name":"Wheelchair_LOD0","primitives":[{"attributes":{"NORMAL":2,"POSITION":1,"TEXCOORD_0":3},"indices":0,"material":0,"mode":4}]},{"name":"Wheelchair_LOD1","primitives":[{"attributes":{"NORMAL":6,"POSITION":5,"TEXCOORD_0":7},"indices":4,"material":0,"mode":4}]},{"name":"Wheelchair_LOD2","primitives":[{"attributes":{"NORMAL":10,"POSITION":9,"TEXCOORD_0":11},"indices":8,"material":0,"mode":4}]}],"nodes":[{"mesh":0,"name":"Wheelchair_LOD0","rotation":[0,0,0,1],"scale":[1,1,1],"translation":[0,0,0]},{"mesh":1,"name":"Wheelchair_LOD1","rotation":[0,0,0,1],"scale":[1,1,1],"translation":[0,0,0]},{"mesh":2,"name":"Wheelchair_LOD2","rotation":[0,0,0,1],"scale":[1,1,1],"translation":[0,0,0]}],"samplers":[{}],"scene":0,"scenes":[{"name":"Root Scene","nodes":[0,1,2]}],"textures":[{"name":"base_color_texture","sampler":0,"source":0}]}